<svg width="297" height="52" viewBox="0 0 297 52" fill="none" xmlns="http://www.w3.org/2000/svg">
<path d="M8.52859 7.38487C9.16034 7.65215 9.65845 8.05914 10.0229 8.60585C10.3874 9.15255 10.5696 9.76608 10.5696 10.4464C10.5696 11.4305 10.2234 12.2688 9.53088 12.9613C8.83839 13.6538 8.00011 14 7.01604 14H1.45788V1.24356H6.5969C7.53237 1.24356 8.34028 1.58373 9.02063 2.26407C9.68882 2.93227 10.0229 3.7341 10.0229 4.66957C10.0229 5.86018 9.52481 6.76528 8.52859 7.38487ZM6.5969 2.44631H2.73352V6.89284H6.5969C7.18005 6.89284 7.68424 6.68023 8.10945 6.25502C8.53467 5.80551 8.74727 5.27702 8.74727 4.66957C8.74727 4.07427 8.53467 3.55187 8.10945 3.10235C7.68424 2.66499 7.18005 2.44631 6.5969 2.44631ZM2.73352 12.7972H7.01604C7.64779 12.7972 8.18235 12.5725 8.61971 12.123C9.06922 11.6735 9.29398 11.1146 9.29398 10.4464C9.29398 9.79037 9.06922 9.2376 8.61971 8.78808C8.18235 8.32642 7.64779 8.09559 7.01604 8.09559H2.73352V12.7972ZM13.5969 8.35072H16.0935C16.9318 8.35072 17.6485 8.618 18.2438 9.15255C18.8391 9.67496 19.1368 10.3492 19.1368 11.1754C19.1368 12.0136 18.8391 12.694 18.2438 13.2164C17.6728 13.7388 16.9561 14 16.0935 14H12.3941V4.88826H13.5969V8.35072ZM20.4124 14V4.88826H21.6152V14H20.4124ZM13.5969 12.8337H16.0935C16.6159 12.8337 17.0532 12.6818 17.4056 12.3781C17.7579 12.0622 17.934 11.6613 17.934 11.1754C17.934 10.6894 17.7579 10.2946 17.4056 9.99083C17.0532 9.67496 16.6159 9.51702 16.0935 9.51702H13.5969V12.8337ZM28.0387 14.2187C26.7387 14.2187 25.6453 13.7874 24.7585 12.9248C23.8837 12.0501 23.4464 10.9202 23.4464 9.53525C23.4464 7.98017 23.6772 6.78957 24.1389 5.96344C24.6005 5.12516 25.536 4.36585 26.9453 3.68551C27.3948 3.47897 27.7471 3.32104 28.0022 3.2117C28.4275 3.04161 28.7615 2.89582 29.0045 2.77433C30.0615 2.28837 30.596 1.687 30.6082 0.970207L31.5558 1.51691C31.4951 1.82064 31.3979 2.09399 31.2642 2.33697C31.1063 2.60425 30.9484 2.81685 30.7904 2.97479C30.6446 3.13273 30.4138 3.30281 30.0979 3.48505C29.8914 3.60654 29.6424 3.74018 29.3508 3.88597L28.4396 4.26866L27.5831 4.63313C26.7448 4.9976 26.1191 5.38029 25.7061 5.78121C25.3052 6.16997 25.0197 6.68023 24.8496 7.31198C25.2383 6.78957 25.7486 6.39473 26.3803 6.12745C27.0121 5.84803 27.6499 5.70831 28.2938 5.70831C29.5087 5.70831 30.511 6.10923 31.3007 6.91106C32.1025 7.70075 32.5034 8.71519 32.5034 9.95439C32.5034 11.1814 32.0782 12.2019 31.2278 13.0159C30.3895 13.8178 29.3265 14.2187 28.0387 14.2187ZM25.6696 12.123C26.3014 12.7183 27.0911 13.0159 28.0387 13.0159C28.9863 13.0159 29.7638 12.7304 30.3713 12.1594C30.9909 11.5763 31.3007 10.8413 31.3007 9.95439C31.3007 9.05536 31.0091 8.32035 30.426 7.74934C29.855 7.16619 29.0896 6.87462 28.1298 6.87462C27.2672 6.87462 26.4836 7.14797 25.779 7.69467C25.0743 8.21708 24.722 8.93387 24.722 9.84504C24.722 10.7684 25.0379 11.5277 25.6696 12.123ZM35.3533 11.9043L40.7839 4.88826H41.8044V14H40.6016V6.98396L35.171 14H34.1505V4.88826H35.3533V11.9043ZM49.0495 4.66957C50.3495 4.66957 51.455 5.13124 52.3662 6.05456C53.2895 6.97788 53.7512 8.10774 53.7512 9.44413C53.7512 10.7805 53.2895 11.9104 52.3662 12.8337C51.455 13.757 50.3495 14.2187 49.0495 14.2187C47.4337 14.2187 46.2066 13.5505 45.3684 12.2141V17.6447H44.1656V4.88826H45.3684V6.67416C46.2066 5.33777 47.4337 4.66957 49.0495 4.66957ZM46.4071 12.0136C47.0996 12.7061 47.95 13.0524 48.9584 13.0524C49.9668 13.0524 50.8172 12.7061 51.5097 12.0136C52.2022 11.2968 52.5484 10.4403 52.5484 9.44413C52.5484 8.43576 52.2022 7.58533 51.5097 6.89284C50.8172 6.1882 49.9668 5.83588 48.9584 5.83588C47.95 5.83588 47.0996 6.1882 46.4071 6.89284C45.7146 7.58533 45.3684 8.43576 45.3684 9.44413C45.3684 10.4403 45.7146 11.2968 46.4071 12.0136ZM63.4049 6.67416V4.88826H64.6077V14H63.4049V12.2141C62.5666 13.5505 61.3396 14.2187 59.7238 14.2187C58.4238 14.2187 57.3122 13.757 56.3889 12.8337C55.4777 11.9104 55.0221 10.7805 55.0221 9.44413C55.0221 8.10774 55.4777 6.97788 56.3889 6.05456C57.3122 5.13124 58.4238 4.66957 59.7238 4.66957C61.3396 4.66957 62.5666 5.33777 63.4049 6.67416ZM57.2636 12.0136C57.9561 12.7061 58.8065 13.0524 59.8149 13.0524C60.8233 13.0524 61.6737 12.7061 62.3662 12.0136C63.0587 11.2968 63.4049 10.4403 63.4049 9.44413C63.4049 8.43576 63.0587 7.58533 62.3662 6.89284C61.6737 6.1882 60.8233 5.83588 59.8149 5.83588C58.8065 5.83588 57.9561 6.1882 57.2636 6.89284C56.5711 7.58533 56.2249 8.43576 56.2249 9.44413C56.2249 10.4403 56.5711 11.2968 57.2636 12.0136ZM73.168 3.43038H68.4299V2.37342H73.168V3.43038ZM68.1748 11.9043L73.6054 4.88826H74.6259V14H73.4231V6.98396L67.9925 14H66.972V4.88826H68.1748V11.9043ZM81.3607 4.88826H89.0146V14H87.8119V6.05456H82.5635V14H81.3607V4.88826ZM99.0115 12.8519C98.076 13.7631 96.9461 14.2187 95.6219 14.2187C94.2734 14.2187 93.1374 13.7631 92.2141 12.8519C91.2908 11.9286 90.8291 10.7927 90.8291 9.44413C90.8291 8.09559 91.2908 6.96573 92.2141 6.05456C93.1374 5.13124 94.2734 4.66957 95.6219 4.66957C96.9583 4.66957 98.0882 5.13124 99.0115 6.05456C99.9469 6.96573 100.415 8.09559 100.415 9.44413C100.415 10.7805 99.9469 11.9164 99.0115 12.8519ZM93.0706 12.0136C93.7631 12.7061 94.6135 13.0524 95.6219 13.0524C96.6303 13.0524 97.4807 12.7061 98.1732 12.0136C98.8657 11.2968 99.2119 10.4403 99.2119 9.44413C99.2119 8.43576 98.8657 7.58533 98.1732 6.89284C97.4807 6.1882 96.6303 5.83588 95.6219 5.83588C94.6135 5.83588 93.7631 6.1882 93.0706 6.89284C92.3781 7.58533 92.0319 8.43576 92.0319 9.44413C92.0319 10.4403 92.3781 11.2968 93.0706 12.0136ZM108.696 8.86098V4.88826H109.899V14H108.696V10.0273H103.448V14H102.245V4.88826H103.448V8.86098H108.696ZM117.144 4.66957C118.444 4.66957 119.55 5.13124 120.461 6.05456C121.384 6.97788 121.846 8.10774 121.846 9.44413C121.846 10.7805 121.384 11.9104 120.461 12.8337C119.55 13.757 118.444 14.2187 117.144 14.2187C115.528 14.2187 114.301 13.5505 113.463 12.2141V17.6447H112.26V4.88826H113.463V6.67416C114.301 5.33777 115.528 4.66957 117.144 4.66957ZM114.502 12.0136C115.194 12.7061 116.045 13.0524 117.053 13.0524C118.061 13.0524 118.912 12.7061 119.604 12.0136C120.297 11.2968 120.643 10.4403 120.643 9.44413C120.643 8.43576 120.297 7.58533 119.604 6.89284C118.912 6.1882 118.061 5.83588 117.053 5.83588C116.045 5.83588 115.194 6.1882 114.502 6.89284C113.809 7.58533 113.463 8.43576 113.463 9.44413C113.463 10.4403 113.809 11.2968 114.502 12.0136ZM131.5 6.67416V4.88826H132.702V14H131.5V12.2141C130.661 13.5505 129.434 14.2187 127.818 14.2187C126.518 14.2187 125.407 13.757 124.483 12.8337C123.572 11.9104 123.117 10.7805 123.117 9.44413C123.117 8.10774 123.572 6.97788 124.483 6.05456C125.407 5.13124 126.518 4.66957 127.818 4.66957C129.434 4.66957 130.661 5.33777 131.5 6.67416ZM125.358 12.0136C126.051 12.7061 126.901 13.0524 127.91 13.0524C128.918 13.0524 129.768 12.7061 130.461 12.0136C131.153 11.2968 131.5 10.4403 131.5 9.44413C131.5 8.43576 131.153 7.58533 130.461 6.89284C129.768 6.1882 128.918 5.83588 127.91 5.83588C126.901 5.83588 126.051 6.1882 125.358 6.89284C124.666 7.58533 124.319 8.43576 124.319 9.44413C124.319 10.4403 124.666 11.2968 125.358 12.0136ZM140.862 9.31656C141.858 9.68103 142.356 10.3917 142.356 11.4487C142.356 12.2019 142.101 12.8155 141.591 13.2893C141.093 13.7631 140.394 14 139.495 14H135.067V4.88826H139.13C140.005 4.88826 140.686 5.11301 141.172 5.56253C141.67 6.01204 141.919 6.60126 141.919 7.3302C141.919 8.24138 141.566 8.9035 140.862 9.31656ZM139.13 6.05456H136.269V8.82453H139.13C140.187 8.82453 140.716 8.35072 140.716 7.4031C140.716 6.97788 140.576 6.64986 140.297 6.41903C140.03 6.17605 139.641 6.05456 139.13 6.05456ZM136.269 12.8337H139.495C140.03 12.8337 140.436 12.7061 140.716 12.451C141.008 12.1959 141.153 11.8375 141.153 11.3758C141.153 10.9385 141.008 10.5983 140.716 10.3553C140.436 10.1123 140.03 9.99083 139.495 9.99083H136.269V12.8337ZM145.199 11.9043L150.629 4.88826H151.65V14H150.447V6.98396L145.017 14H143.996V4.88826H145.199V11.9043ZM159.806 9.31656C160.803 9.68103 161.301 10.3917 161.301 11.4487C161.301 12.2019 161.046 12.8155 160.535 13.2893C160.037 13.7631 159.339 14 158.44 14H154.011V4.88826H158.075C158.95 4.88826 159.63 5.11301 160.116 5.56253C160.614 6.01204 160.863 6.60126 160.863 7.3302C160.863 8.24138 160.511 8.9035 159.806 9.31656ZM158.075 6.05456H155.214V8.82453H158.075C159.132 8.82453 159.661 8.35072 159.661 7.4031C159.661 6.97788 159.521 6.64986 159.241 6.41903C158.974 6.17605 158.585 6.05456 158.075 6.05456ZM155.214 12.8337H158.44C158.974 12.8337 159.381 12.7061 159.661 12.451C159.952 12.1959 160.098 11.8375 160.098 11.3758C160.098 10.9385 159.952 10.5983 159.661 10.3553C159.381 10.1123 158.974 9.99083 158.44 9.99083H155.214V12.8337ZM173.948 12.8337V4.88826H175.15V14H162.941V4.88826H164.143V12.8337H168.444V4.88826H169.647V12.8337H173.948ZM181.721 4.66957C183.082 4.66957 184.169 5.14946 184.983 6.10923C185.822 7.05685 186.241 8.18063 186.241 9.48058C186.241 9.54132 186.229 9.72963 186.204 10.0455H178.204C178.326 10.9567 178.714 11.6856 179.37 12.2323C180.027 12.779 180.847 13.0524 181.831 13.0524C183.216 13.0524 184.194 12.536 184.765 11.5034L185.822 12.123C185.421 12.779 184.868 13.2954 184.163 13.672C183.471 14.0364 182.687 14.2187 181.812 14.2187C180.379 14.2187 179.213 13.7692 178.314 12.8701C177.415 11.9711 176.965 10.8291 176.965 9.44413C176.965 8.07129 177.408 6.93536 178.295 6.03634C179.182 5.12516 180.324 4.66957 181.721 4.66957ZM181.721 5.83588C180.774 5.83588 179.978 6.1153 179.334 6.67416C178.702 7.23301 178.326 7.96803 178.204 8.8792H185.002C184.868 7.90728 184.497 7.16012 183.89 6.63771C183.258 6.10316 182.535 5.83588 181.721 5.83588ZM192.181 4.66957C193.542 4.66957 194.629 5.14946 195.443 6.10923C196.282 7.05685 196.701 8.18063 196.701 9.48058C196.701 9.54132 196.689 9.72963 196.664 10.0455H188.664C188.786 10.9567 189.174 11.6856 189.83 12.2323C190.487 12.779 191.307 13.0524 192.291 13.0524C193.676 13.0524 194.654 12.536 195.225 11.5034L196.282 12.123C195.881 12.779 195.328 13.2954 194.623 13.672C193.931 14.0364 193.147 14.2187 192.272 14.2187C190.839 14.2187 189.673 13.7692 188.774 12.8701C187.875 11.9711 187.425 10.8291 187.425 9.44413C187.425 8.07129 187.868 6.93536 188.755 6.03634C189.642 5.12516 190.784 4.66957 192.181 4.66957ZM192.181 5.83588C191.234 5.83588 190.438 6.1153 189.794 6.67416C189.162 7.23301 188.786 7.96803 188.664 8.8792H195.462C195.328 7.90728 194.957 7.16012 194.35 6.63771C193.718 6.10316 192.995 5.83588 192.181 5.83588ZM202.678 14.2187C201.305 14.2187 200.163 13.7631 199.252 12.8519C198.341 11.9164 197.885 10.7805 197.885 9.44413C197.885 8.09559 198.341 6.96573 199.252 6.05456C200.163 5.13124 201.305 4.66957 202.678 4.66957C203.577 4.66957 204.385 4.88826 205.101 5.32562C205.818 5.75084 206.341 6.32791 206.669 7.05685L205.685 7.62178C205.442 7.07508 205.047 6.64379 204.5 6.32791C203.966 5.99989 203.358 5.83588 202.678 5.83588C201.669 5.83588 200.819 6.1882 200.126 6.89284C199.434 7.58533 199.088 8.43576 199.088 9.44413C199.088 10.4403 199.434 11.2968 200.126 12.0136C200.819 12.7061 201.669 13.0524 202.678 13.0524C203.346 13.0524 203.947 12.8944 204.482 12.5786C205.029 12.2627 205.454 11.8253 205.758 11.2665L206.76 11.8496C206.383 12.5786 205.83 13.1556 205.101 13.5809C204.373 14.0061 203.565 14.2187 202.678 14.2187ZM210.988 4.88826H214.687V14H213.484V10.5011H211.917L209.111 14H207.58L210.459 10.4646C209.718 10.3553 209.111 10.0516 208.637 9.55347C208.175 9.04321 207.944 8.42969 207.944 7.7129C207.944 6.89891 208.236 6.22465 208.819 5.69009C209.426 5.15553 210.149 4.88826 210.988 4.88826ZM210.988 9.37123H213.484V6.05456H210.988C210.465 6.05456 210.028 6.2125 209.675 6.52837C209.323 6.8321 209.147 7.22694 209.147 7.7129C209.147 8.19886 209.323 8.59977 209.675 8.91565C210.028 9.21937 210.465 9.37123 210.988 9.37123ZM225.676 14.2187C224.303 14.2187 223.161 13.7631 222.25 12.8519C221.338 11.9164 220.883 10.7805 220.883 9.44413C220.883 8.09559 221.338 6.96573 222.25 6.05456C223.161 5.13124 224.303 4.66957 225.676 4.66957C226.575 4.66957 227.383 4.88826 228.099 5.32562C228.816 5.75084 229.339 6.32791 229.667 7.05685L228.683 7.62178C228.44 7.07508 228.045 6.64379 227.498 6.32791C226.963 5.99989 226.356 5.83588 225.676 5.83588C224.667 5.83588 223.817 6.1882 223.124 6.89284C222.432 7.58533 222.086 8.43576 222.086 9.44413C222.086 10.4403 222.432 11.2968 223.124 12.0136C223.817 12.7061 224.667 13.0524 225.676 13.0524C226.344 13.0524 226.945 12.8944 227.48 12.5786C228.026 12.2627 228.452 11.8253 228.755 11.2665L229.758 11.8496C229.381 12.5786 228.828 13.1556 228.099 13.5809C227.37 14.0061 226.563 14.2187 225.676 14.2187ZM238.849 12.8519C237.913 13.7631 236.784 14.2187 235.459 14.2187C234.111 14.2187 232.975 13.7631 232.052 12.8519C231.128 11.9286 230.667 10.7927 230.667 9.44413C230.667 8.09559 231.128 6.96573 232.052 6.05456C232.975 5.13124 234.111 4.66957 235.459 4.66957C236.796 4.66957 237.926 5.13124 238.849 6.05456C239.784 6.96573 240.252 8.09559 240.252 9.44413C240.252 10.7805 239.784 11.9164 238.849 12.8519ZM232.908 12.0136C233.601 12.7061 234.451 13.0524 235.459 13.0524C236.468 13.0524 237.318 12.7061 238.011 12.0136C238.703 11.2968 239.049 10.4403 239.049 9.44413C239.049 8.43576 238.703 7.58533 238.011 6.89284C237.318 6.1882 236.468 5.83588 235.459 5.83588C234.451 5.83588 233.601 6.1882 232.908 6.89284C232.216 7.58533 231.869 8.43576 231.869 9.44413C231.869 10.4403 232.216 11.2968 232.908 12.0136ZM246.128 14.2187C244.828 14.2187 243.735 13.7874 242.848 12.9248C241.973 12.0501 241.536 10.9202 241.536 9.53525C241.536 7.98017 241.767 6.78957 242.228 5.96344C242.69 5.12516 243.626 4.36585 245.035 3.68551C245.484 3.47897 245.837 3.32104 246.092 3.2117C246.517 3.04161 246.851 2.89582 247.094 2.77433C248.151 2.28837 248.686 1.687 248.698 0.970207L249.645 1.51691C249.585 1.82064 249.487 2.09399 249.354 2.33697C249.196 2.60425 249.038 2.81685 248.88 2.97479C248.734 3.13273 248.503 3.30281 248.188 3.48505C247.981 3.60654 247.732 3.74018 247.44 3.88597L246.529 4.26866L245.673 4.63313C244.834 4.9976 244.209 5.38029 243.796 5.78121C243.395 6.16997 243.109 6.68023 242.939 7.31198C243.328 6.78957 243.838 6.39473 244.47 6.12745C245.102 5.84803 245.739 5.70831 246.383 5.70831C247.598 5.70831 248.601 6.10923 249.39 6.91106C250.192 7.70075 250.593 8.71519 250.593 9.95439C250.593 11.1814 250.168 12.2019 249.317 13.0159C248.479 13.8178 247.416 14.2187 246.128 14.2187ZM243.759 12.123C244.391 12.7183 245.181 13.0159 246.128 13.0159C247.076 13.0159 247.853 12.7304 248.461 12.1594C249.08 11.5763 249.39 10.8413 249.39 9.95439C249.39 9.05536 249.099 8.32035 248.516 7.74934C247.945 7.16619 247.179 6.87462 246.219 6.87462C245.357 6.87462 244.573 7.14797 243.869 7.69467C243.164 8.21708 242.812 8.93387 242.812 9.84504C242.812 10.7684 243.127 11.5277 243.759 12.123ZM253.443 8.35072H255.939C256.778 8.35072 257.495 8.618 258.09 9.15255C258.685 9.67496 258.983 10.3492 258.983 11.1754C258.983 12.0136 258.685 12.694 258.09 13.2164C257.519 13.7388 256.802 14 255.939 14H252.24V4.88826H253.443V8.35072ZM260.258 14V4.88826H261.461V14H260.258ZM253.443 12.8337H255.939C256.462 12.8337 256.899 12.6818 257.252 12.3781C257.604 12.0622 257.78 11.6613 257.78 11.1754C257.78 10.6894 257.604 10.2946 257.252 9.99083C256.899 9.67496 256.462 9.51702 255.939 9.51702H253.443V12.8337ZM262.746 4.88826H270.4V6.05456H267.174V14H265.971V6.05456H262.746V4.88826ZM272.886 11.9043L278.316 4.88826H279.337V14H278.134V6.98396L272.704 14H271.683V4.88826H272.886V11.9043ZM285.908 4.66957C287.268 4.66957 288.356 5.14946 289.17 6.10923C290.008 7.05685 290.427 8.18063 290.427 9.48058C290.427 9.54132 290.415 9.72963 290.391 10.0455H282.391C282.512 10.9567 282.901 11.6856 283.557 12.2323C284.213 12.779 285.033 13.0524 286.017 13.0524C287.402 13.0524 288.38 12.536 288.951 11.5034L290.008 12.123C289.607 12.779 289.054 13.2954 288.35 13.672C287.657 14.0364 286.874 14.2187 285.999 14.2187C284.565 14.2187 283.399 13.7692 282.5 12.8701C281.601 11.9711 281.151 10.8291 281.151 9.44413C281.151 8.07129 281.595 6.93536 282.482 6.03634C283.369 5.12516 284.511 4.66957 285.908 4.66957ZM285.908 5.83588C284.96 5.83588 284.164 6.1153 283.52 6.67416C282.889 7.23301 282.512 7.96803 282.391 8.8792H289.188C289.054 7.90728 288.684 7.16012 288.076 6.63771C287.445 6.10316 286.722 5.83588 285.908 5.83588ZM291.975 12.451H293.433L292.34 16.5513H291.246L291.975 12.451ZM5.9773 27.3166C7.03427 27.7175 7.56275 28.4464 7.56275 29.5034C7.56275 30.2688 7.2651 30.9127 6.6698 31.4351C6.09879 31.9575 5.26051 32.2187 4.15496 32.2187C2.30831 32.2187 1.10556 31.4897 0.546705 30.0319L1.56722 29.4305C1.95599 30.5117 2.81857 31.0524 4.15496 31.0524C4.84745 31.0524 5.38808 30.9066 5.77685 30.615C6.16561 30.3113 6.36 29.9164 6.36 29.4305C6.36 28.9931 6.20206 28.6469 5.88619 28.3917C5.57031 28.1245 5.1451 27.9908 4.61054 27.9908H3.28023V26.8245H4.24607C4.76848 26.8245 5.17547 26.697 5.46705 26.4418C5.77077 26.1746 5.92263 25.8101 5.92263 25.3484C5.92263 24.9111 5.7404 24.5527 5.37593 24.2732C5.02361 23.9817 4.55587 23.8359 3.97272 23.8359C2.84286 23.8359 2.08355 24.2915 1.69478 25.2026L0.692493 24.6195C1.29994 23.3195 2.39335 22.6696 3.97272 22.6696C4.94464 22.6696 5.71003 22.9247 6.26888 23.435C6.83988 23.9331 7.12538 24.5466 7.12538 25.2755C7.12538 26.211 6.74269 26.8913 5.9773 27.3166ZM15.6597 26.861V22.8883H16.8624V32H15.6597V28.0273H10.4113V32H9.20855V22.8883H10.4113V26.861H15.6597ZM27.0597 24.6742V22.8883H28.2625V32H27.0597V30.2141C26.2215 31.5505 24.9944 32.2187 23.3786 32.2187C22.0787 32.2187 20.967 31.757 20.0437 30.8337C19.1325 29.9104 18.6769 28.7805 18.6769 27.4441C18.6769 26.1077 19.1325 24.9779 20.0437 24.0546C20.967 23.1312 22.0787 22.6696 23.3786 22.6696C24.9944 22.6696 26.2215 23.3378 27.0597 24.6742ZM20.9184 30.0136C21.6109 30.7061 22.4613 31.0524 23.4697 31.0524C24.4781 31.0524 25.3285 30.7061 26.021 30.0136C26.7135 29.2968 27.0597 28.4403 27.0597 27.4441C27.0597 26.4358 26.7135 25.5853 26.021 24.8928C25.3285 24.1882 24.4781 23.8359 23.4697 23.8359C22.4613 23.8359 21.6109 24.1882 20.9184 24.8928C20.2259 25.5853 19.8797 26.4358 19.8797 27.4441C19.8797 28.4403 20.2259 29.2968 20.9184 30.0136ZM33.1052 27.2619L37.9891 32H36.3855L31.8296 27.6081V32H30.6268V22.8883H31.8296V26.9156L36.1668 22.8883H37.8069L33.1052 27.2619ZM46.1776 30.8519C45.2421 31.7631 44.1123 32.2187 42.788 32.2187C41.4395 32.2187 40.3036 31.7631 39.3802 30.8519C38.4569 29.9286 37.9953 28.7927 37.9953 27.4441C37.9953 26.0956 38.4569 24.9657 39.3802 24.0546C40.3036 23.1312 41.4395 22.6696 42.788 22.6696C44.1244 22.6696 45.2543 23.1312 46.1776 24.0546C47.1131 24.9657 47.5808 26.0956 47.5808 27.4441C47.5808 28.7805 47.1131 29.9164 46.1776 30.8519ZM40.2367 30.0136C40.9292 30.7061 41.7797 31.0524 42.788 31.0524C43.7964 31.0524 44.6468 30.7061 45.3393 30.0136C46.0318 29.2968 46.3781 28.4403 46.3781 27.4441C46.3781 26.4358 46.0318 25.5853 45.3393 24.8928C44.6468 24.1882 43.7964 23.8359 42.788 23.8359C41.7797 23.8359 40.9292 24.1882 40.2367 24.8928C39.5443 25.5853 39.198 26.4358 39.198 27.4441C39.198 28.4403 39.5443 29.2968 40.2367 30.0136ZM56.9558 22.8883H58.3408V32H57.138V24.7288L53.9489 29.9043H53.8031L50.614 24.7288V32H49.4113V22.8883H50.7963L53.876 27.8815L56.9558 22.8883ZM61.9105 26.3507H64.4071C65.2453 26.3507 65.9621 26.618 66.5574 27.1526C67.1527 27.675 67.4504 28.3492 67.4504 29.1754C67.4504 30.0136 67.1527 30.694 66.5574 31.2164C65.9864 31.7388 65.2696 32 64.4071 32H60.7077V22.8883H61.9105V26.3507ZM61.9105 30.8337H64.4071C64.9295 30.8337 65.3668 30.6818 65.7192 30.3781C66.0715 30.0622 66.2476 29.6613 66.2476 29.1754C66.2476 28.6894 66.0715 28.2946 65.7192 27.9908C65.3668 27.675 64.9295 27.517 64.4071 27.517H61.9105V30.8337ZM73.2426 32.2187C71.8698 32.2187 70.7278 31.7631 69.8166 30.8519C68.9054 29.9164 68.4498 28.7805 68.4498 27.4441C68.4498 26.0956 68.9054 24.9657 69.8166 24.0546C70.7278 23.1312 71.8698 22.6696 73.2426 22.6696C74.1416 22.6696 74.9495 22.8883 75.6663 23.3256C76.3831 23.7508 76.9055 24.3279 77.2336 25.0569L76.2495 25.6218C76.0065 25.0751 75.6117 24.6438 75.065 24.3279C74.5304 23.9999 73.923 23.8359 73.2426 23.8359C72.2342 23.8359 71.3838 24.1882 70.6913 24.8928C69.9988 25.5853 69.6526 26.4358 69.6526 27.4441C69.6526 28.4403 69.9988 29.2968 70.6913 30.0136C71.3838 30.7061 72.2342 31.0524 73.2426 31.0524C73.9108 31.0524 74.5122 30.8944 75.0467 30.5786C75.5934 30.2627 76.0187 29.8253 76.3224 29.2665L77.3247 29.8496C76.9481 30.5786 76.3953 31.1556 75.6663 31.5809C74.9374 32.0061 74.1295 32.2187 73.2426 32.2187ZM81.5524 22.8883H85.2517V32H84.049V28.5011H82.4818L79.6754 32H78.1446L81.0239 28.4646C80.2828 28.3553 79.6754 28.0516 79.2016 27.5535C78.7399 27.0432 78.5091 26.4297 78.5091 25.7129C78.5091 24.8989 78.8006 24.2246 79.3838 23.6901C79.9912 23.1555 80.7141 22.8883 81.5524 22.8883ZM81.5524 27.3712H84.049V24.0546H81.5524C81.03 24.0546 80.5926 24.2125 80.2403 24.5284C79.888 24.8321 79.7118 25.2269 79.7118 25.7129C79.7118 26.1989 79.888 26.5998 80.2403 26.9156C80.5926 27.2194 81.03 27.3712 81.5524 27.3712ZM93.1972 29.9043L98.6278 22.8883H99.6483V32H98.4455V24.984L93.0149 32H91.9944V22.8883H93.1972V29.9043ZM112.834 26.861V22.8883H114.037V32H112.834V28.0273H107.586V32H106.383V22.8883H107.586V26.861H112.834ZM124.234 24.6742V22.8883H125.437V32H124.234V30.2141C123.396 31.5505 122.169 32.2187 120.553 32.2187C119.253 32.2187 118.142 31.757 117.218 30.8337C116.307 29.9104 115.852 28.7805 115.852 27.4441C115.852 26.1077 116.307 24.9779 117.218 24.0546C118.142 23.1312 119.253 22.6696 120.553 22.6696C122.169 22.6696 123.396 23.3378 124.234 24.6742ZM118.093 30.0136C118.786 30.7061 119.636 31.0524 120.644 31.0524C121.653 31.0524 122.503 30.7061 123.196 30.0136C123.888 29.2968 124.234 28.4403 124.234 27.4441C124.234 26.4358 123.888 25.5853 123.196 24.8928C122.503 24.1882 121.653 23.8359 120.644 23.8359C119.636 23.8359 118.786 24.1882 118.093 24.8928C117.401 25.5853 117.054 26.4358 117.054 27.4441C117.054 28.4403 117.401 29.2968 118.093 30.0136ZM132.048 32.2187C130.675 32.2187 129.533 31.7631 128.622 30.8519C127.71 29.9164 127.255 28.7805 127.255 27.4441C127.255 26.0956 127.71 24.9657 128.622 24.0546C129.533 23.1312 130.675 22.6696 132.048 22.6696C132.947 22.6696 133.754 22.8883 134.471 23.3256C135.188 23.7508 135.71 24.3279 136.038 25.0569L135.054 25.6218C134.811 25.0751 134.417 24.6438 133.87 24.3279C133.335 23.9999 132.728 23.8359 132.048 23.8359C131.039 23.8359 130.189 24.1882 129.496 24.8928C128.804 25.5853 128.457 26.4358 128.457 27.4441C128.457 28.4403 128.804 29.2968 129.496 30.0136C130.189 30.7061 131.039 31.0524 132.048 31.0524C132.716 31.0524 133.317 30.8944 133.852 30.5786C134.398 30.2627 134.824 29.8253 135.127 29.2665L136.13 29.8496C135.753 30.5786 135.2 31.1556 134.471 31.5809C133.742 32.0061 132.934 32.2187 132.048 32.2187ZM138.444 22.8883H144.968V32H143.765V24.0546H139.647V28.1184C139.647 29.637 139.355 30.6818 138.772 31.2528C138.201 31.8238 137.411 32.0729 136.403 32V30.8701C137.107 30.943 137.624 30.773 137.952 30.3599C138.28 29.9468 138.444 29.1997 138.444 28.1184V22.8883ZM155.169 24.6742V22.8883H156.372V32H155.169V30.2141C154.331 31.5505 153.104 32.2187 151.488 32.2187C150.188 32.2187 149.077 31.757 148.153 30.8337C147.242 29.9104 146.787 28.7805 146.787 27.4441C146.787 26.1077 147.242 24.9779 148.153 24.0546C149.077 23.1312 150.188 22.6696 151.488 22.6696C153.104 22.6696 154.331 23.3378 155.169 24.6742ZM149.028 30.0136C149.721 30.7061 150.571 31.0524 151.579 31.0524C152.588 31.0524 153.438 30.7061 154.131 30.0136C154.823 29.2968 155.169 28.4403 155.169 27.4441C155.169 26.4358 154.823 25.5853 154.131 24.8928C153.438 24.1882 152.588 23.8359 151.579 23.8359C150.571 23.8359 149.721 24.1882 149.028 24.8928C148.336 25.5853 147.989 26.4358 147.989 27.4441C147.989 28.4403 148.336 29.2968 149.028 30.0136ZM165.297 27.2619L169.379 32H167.921L164.204 27.6081V32H163.001V27.6081L159.283 32H157.825L161.907 27.2619L158.008 22.8883H159.465L163.001 26.9339V22.8883H164.204V26.9339L167.739 22.8883H169.197L165.297 27.2619ZM178.488 22.8883V30.8337H179.763V34.4419H178.561V32H171.125V34.4419H169.923V30.8337H171.034C171.654 30.0076 171.964 28.8595 171.964 27.3895V22.8883H178.488ZM172.492 30.8337H177.285V24.0546H173.166V27.3895C173.166 28.7987 172.942 29.9468 172.492 30.8337ZM188.881 24.6742V22.8883H190.083V32H188.881V30.2141C188.042 31.5505 186.815 32.2187 185.2 32.2187C183.9 32.2187 182.788 31.757 181.865 30.8337C180.954 29.9104 180.498 28.7805 180.498 27.4441C180.498 26.1077 180.954 24.9779 181.865 24.0546C182.788 23.1312 183.9 22.6696 185.2 22.6696C186.815 22.6696 188.042 23.3378 188.881 24.6742ZM182.739 30.0136C183.432 30.7061 184.282 31.0524 185.291 31.0524C186.299 31.0524 187.15 30.7061 187.842 30.0136C188.534 29.2968 188.881 28.4403 188.881 27.4441C188.881 26.4358 188.534 25.5853 187.842 24.8928C187.15 24.1882 186.299 23.8359 185.291 23.8359C184.282 23.8359 183.432 24.1882 182.739 24.8928C182.047 25.5853 181.701 26.4358 181.701 27.4441C181.701 28.4403 182.047 29.2968 182.739 30.0136ZM198.644 21.4304H193.906V20.3734H198.644V21.4304ZM193.651 29.9043L199.081 22.8883H200.102V32H198.899V24.984L193.468 32H192.448V22.8883H193.651V29.9043ZM206.709 32.2187C205.336 32.2187 204.194 31.7631 203.283 30.8519C202.372 29.9164 201.916 28.7805 201.916 27.4441C201.916 26.0956 202.372 24.9657 203.283 24.0546C204.194 23.1312 205.336 22.6696 206.709 22.6696C207.608 22.6696 208.416 22.8883 209.133 23.3256C209.85 23.7508 210.372 24.3279 210.7 25.0569L209.716 25.6218C209.473 25.0751 209.078 24.6438 208.531 24.3279C207.997 23.9999 207.389 23.8359 206.709 23.8359C205.701 23.8359 204.85 24.1882 204.158 24.8928C203.465 25.5853 203.119 26.4358 203.119 27.4441C203.119 28.4403 203.465 29.2968 204.158 30.0136C204.85 30.7061 205.701 31.0524 206.709 31.0524C207.377 31.0524 207.979 30.8944 208.513 30.5786C209.06 30.2627 209.485 29.8253 209.789 29.2665L210.791 29.8496C210.414 30.5786 209.862 31.1556 209.133 31.5809C208.404 32.0061 207.596 32.2187 206.709 32.2187ZM215.019 22.8883H218.718V32H217.515V28.5011H215.948L213.142 32H211.611L214.49 28.4646C213.749 28.3553 213.142 28.0516 212.668 27.5535C212.206 27.0432 211.975 26.4297 211.975 25.7129C211.975 24.8989 212.267 24.2246 212.85 23.6901C213.458 23.1555 214.18 22.8883 215.019 22.8883ZM215.019 27.3712H217.515V24.0546H215.019C214.496 24.0546 214.059 24.2125 213.707 24.5284C213.354 24.8321 213.178 25.2269 213.178 25.7129C213.178 26.1989 213.354 26.5998 213.707 26.9156C214.059 27.2194 214.496 27.3712 215.019 27.3712ZM231.256 27.3166C232.252 27.681 232.75 28.3917 232.75 29.4487C232.75 30.2019 232.495 30.8155 231.985 31.2893C231.487 31.7631 230.788 32 229.889 32H225.461V22.8883H229.525C230.399 22.8883 231.08 23.113 231.566 23.5625C232.064 24.012 232.313 24.6013 232.313 25.3302C232.313 26.2414 231.961 26.9035 231.256 27.3166ZM229.525 24.0546H226.664V26.8245H229.525C230.582 26.8245 231.11 26.3507 231.11 25.4031C231.11 24.9779 230.97 24.6499 230.691 24.419C230.424 24.176 230.035 24.0546 229.525 24.0546ZM226.664 30.8337H229.889C230.424 30.8337 230.831 30.7061 231.11 30.451C231.402 30.1959 231.547 29.8375 231.547 29.3758C231.547 28.9385 231.402 28.5983 231.11 28.3553C230.831 28.1123 230.424 27.9908 229.889 27.9908H226.664V30.8337ZM241.935 22.8883H243.32V32H242.117V24.7288L238.928 29.9043H238.782L235.593 24.7288V32H234.39V22.8883H235.775L238.855 27.8815L241.935 22.8883ZM249.896 22.6696C251.257 22.6696 252.344 23.1495 253.158 24.1092C253.997 25.0569 254.416 26.1806 254.416 27.4806C254.416 27.5413 254.404 27.7296 254.379 28.0455H246.379C246.501 28.9567 246.89 29.6856 247.546 30.2323C248.202 30.779 249.022 31.0524 250.006 31.0524C251.391 31.0524 252.369 30.536 252.94 29.5034L253.997 30.123C253.596 30.779 253.043 31.2954 252.338 31.672C251.646 32.0364 250.862 32.2187 249.988 32.2187C248.554 32.2187 247.388 31.7692 246.489 30.8701C245.59 29.9711 245.14 28.8291 245.14 27.4441C245.14 26.0713 245.583 24.9354 246.47 24.0363C247.357 23.1252 248.499 22.6696 249.896 22.6696ZM249.896 23.8359C248.949 23.8359 248.153 24.1153 247.509 24.6742C246.877 25.233 246.501 25.968 246.379 26.8792H253.177C253.043 25.9073 252.672 25.1601 252.065 24.6377C251.433 24.1032 250.71 23.8359 249.896 23.8359ZM260.393 32.2187C259.02 32.2187 257.878 31.7631 256.967 30.8519C256.056 29.9164 255.6 28.7805 255.6 27.4441C255.6 26.0956 256.056 24.9657 256.967 24.0546C257.878 23.1312 259.02 22.6696 260.393 22.6696C261.292 22.6696 262.1 22.8883 262.817 23.3256C263.533 23.7508 264.056 24.3279 264.384 25.0569L263.4 25.6218C263.157 25.0751 262.762 24.6438 262.215 24.3279C261.681 23.9999 261.073 23.8359 260.393 23.8359C259.384 23.8359 258.534 24.1882 257.842 24.8928C257.149 25.5853 256.803 26.4358 256.803 27.4441C256.803 28.4403 257.149 29.2968 257.842 30.0136C258.534 30.7061 259.384 31.0524 260.393 31.0524C261.061 31.0524 261.662 30.8944 262.197 30.5786C262.744 30.2627 263.169 29.8253 263.473 29.2665L264.475 29.8496C264.098 30.5786 263.545 31.1556 262.817 31.5809C262.088 32.0061 261.28 32.2187 260.393 32.2187ZM264.748 22.8883H272.402V24.0546H269.176V32H267.974V24.0546H264.748V22.8883ZM277.539 22.6696C278.9 22.6696 279.987 23.1495 280.801 24.1092C281.639 25.0569 282.059 26.1806 282.059 27.4806C282.059 27.5413 282.046 27.7296 282.022 28.0455H274.022C274.143 28.9567 274.532 29.6856 275.188 30.2323C275.844 30.779 276.664 31.0524 277.648 31.0524C279.033 31.0524 280.011 30.536 280.582 29.5034L281.639 30.123C281.239 30.779 280.686 31.2954 279.981 31.672C279.289 32.0364 278.505 32.2187 277.63 32.2187C276.197 32.2187 275.03 31.7692 274.131 30.8701C273.232 29.9711 272.783 28.8291 272.783 27.4441C272.783 26.0713 273.226 24.9354 274.113 24.0363C275 23.1252 276.142 22.6696 277.539 22.6696ZM277.539 23.8359C276.592 23.8359 275.796 24.1153 275.152 24.6742C274.52 25.233 274.143 25.968 274.022 26.8792H280.819C280.686 25.9073 280.315 25.1601 279.708 24.6377C279.076 24.1032 278.353 23.8359 277.539 23.8359ZM292.409 32.2187C291.036 32.2187 289.894 31.7631 288.983 30.8519C288.072 29.9164 287.616 28.7805 287.616 27.4441C287.616 26.0956 288.072 24.9657 288.983 24.0546C289.894 23.1312 291.036 22.6696 292.409 22.6696C293.308 22.6696 294.116 22.8883 294.833 23.3256C295.55 23.7508 296.072 24.3279 296.4 25.0569L295.416 25.6218C295.173 25.0751 294.778 24.6438 294.232 24.3279C293.697 23.9999 293.09 23.8359 292.409 23.8359C291.401 23.8359 290.55 24.1882 289.858 24.8928C289.165 25.5853 288.819 26.4358 288.819 27.4441C288.819 28.4403 289.165 29.2968 289.858 30.0136C290.55 30.7061 291.401 31.0524 292.409 31.0524C293.077 31.0524 293.679 30.8944 294.213 30.5786C294.76 30.2627 295.185 29.8253 295.489 29.2665L296.491 29.8496C296.115 30.5786 295.562 31.1556 294.833 31.5809C294.104 32.0061 293.296 32.2187 292.409 32.2187ZM11.2986 51H9.95002L8.7655 47.8656H2.7153L1.53077 51H0.182235L5.08435 38.2436H6.39644L11.2986 51ZM5.7404 39.829L3.17089 46.6628H8.30991L5.7404 39.829ZM16.6402 51.2187C15.2673 51.2187 14.1253 50.7631 13.2142 49.8519C12.303 48.9164 11.8474 47.7805 11.8474 46.4441C11.8474 45.0956 12.303 43.9657 13.2142 43.0546C14.1253 42.1312 15.2673 41.6696 16.6402 41.6696C17.5392 41.6696 18.3471 41.8883 19.0639 42.3256C19.7807 42.7508 20.3031 43.3279 20.6311 44.0569L19.6471 44.6218C19.4041 44.0751 19.0092 43.6438 18.4625 43.3279C17.928 42.9999 17.3205 42.8359 16.6402 42.8359C15.6318 42.8359 14.7814 43.1882 14.0889 43.8928C13.3964 44.5853 13.0502 45.4358 13.0502 46.4441C13.0502 47.4403 13.3964 48.2968 14.0889 49.0136C14.7814 49.7061 15.6318 50.0524 16.6402 50.0524C17.3084 50.0524 17.9097 49.8944 18.4443 49.5786C18.991 49.2627 19.4162 48.8253 19.7199 48.2665L20.7222 48.8496C20.3456 49.5786 19.7928 50.1556 19.0639 50.5809C18.335 51.0061 17.5271 51.2187 16.6402 51.2187ZM27.096 41.8883V43.0546H24.4719V48.5763C24.4719 49.0744 24.5691 49.4328 24.7634 49.6515C24.9578 49.858 25.2494 49.9673 25.6382 49.9795C26.0269 49.9795 26.5129 49.9673 27.096 49.943V51C25.7961 51.1944 24.8303 51.1033 24.1985 50.7266C23.5789 50.3379 23.2691 49.6211 23.2691 48.5763V43.0546H21.3556V41.8883H23.2691V39.7014L24.4719 39.337V41.8883H27.096ZM30.3945 39.0818C30.3945 39.3248 30.3095 39.5314 30.1394 39.7014C29.9693 39.8715 29.7627 39.9566 29.5198 39.9566C29.2768 39.9566 29.0703 39.8715 28.9002 39.7014C28.7301 39.5314 28.645 39.3248 28.645 39.0818C28.645 38.8389 28.7301 38.6323 28.9002 38.4622C29.0703 38.2922 29.2768 38.2071 29.5198 38.2071C29.7627 38.2071 29.9693 38.2922 30.1394 38.4622C30.3095 38.6323 30.3945 38.8389 30.3945 39.0818ZM30.1211 51H28.9184V41.8883H30.1211V51Z" fill="#F4F8FD"/>
</svg>
