<svg width="334" height="32" viewBox="0 0 334 32" fill="none" xmlns="http://www.w3.org/2000/svg">
<path d="M1.61608 5.84V9.142H6.03608V10H0.706077V0.899999H5.97108V1.758H1.61608V4.982H5.64608V5.84H1.61608ZM10.2417 10.156C9.26234 10.156 8.44768 9.831 7.79768 9.181C7.14768 8.51367 6.82268 7.70333 6.82268 6.75C6.82268 5.788 7.14768 4.982 7.79768 4.332C8.44768 3.67333 9.26234 3.344 10.2417 3.344C10.883 3.344 11.4593 3.5 11.9707 3.812C12.482 4.11533 12.8547 4.527 13.0887 5.047L12.3867 5.45C12.2133 5.06 11.9317 4.75233 11.5417 4.527C11.1603 4.293 10.727 4.176 10.2417 4.176C9.52234 4.176 8.91568 4.42733 8.42168 4.93C7.92768 5.424 7.68068 6.03067 7.68068 6.75C7.68068 7.46067 7.92768 8.07167 8.42168 8.583C8.91568 9.077 9.52234 9.324 10.2417 9.324C10.7183 9.324 11.1473 9.21133 11.5287 8.986C11.9187 8.76067 12.222 8.44867 12.4387 8.05L13.1537 8.466C12.885 8.986 12.4907 9.39767 11.9707 9.701C11.4507 10.0043 10.8743 10.156 10.2417 10.156ZM14.8046 3.5H19.4586V10H18.6006V4.332H15.6626V7.231C15.6626 8.31433 15.4546 9.05967 15.0386 9.467C14.6312 9.87433 14.0679 10.052 13.3486 10V9.194C13.8512 9.246 14.2196 9.12467 14.4536 8.83C14.6876 8.53533 14.8046 8.00233 14.8046 7.231V3.5ZM22.004 8.505L25.878 3.5H26.606V10H25.748V4.995L21.874 10H21.146V3.5H22.004V8.505ZM35.5445 6.659C36.2551 6.919 36.6105 7.426 36.6105 8.18C36.6105 8.71733 36.4285 9.155 36.0645 9.493C35.7091 9.831 35.2108 10 34.5695 10H31.4105V3.5H34.3095C34.9335 3.5 35.4188 3.66033 35.7655 3.981C36.1208 4.30167 36.2985 4.722 36.2985 5.242C36.2985 5.892 36.0471 6.36433 35.5445 6.659ZM34.3095 4.332H32.2685V6.308H34.3095C35.0635 6.308 35.4405 5.97 35.4405 5.294C35.4405 4.99067 35.3408 4.75667 35.1415 4.592C34.9508 4.41867 34.6735 4.332 34.3095 4.332ZM32.2685 9.168H34.5695C34.9508 9.168 35.2411 9.077 35.4405 8.895C35.6485 8.713 35.7525 8.45733 35.7525 8.128C35.7525 7.816 35.6485 7.57333 35.4405 7.4C35.2411 7.22667 34.9508 7.14 34.5695 7.14H32.2685V9.168ZM43.2275 9.181C42.5601 9.831 41.7541 10.156 40.8095 10.156C39.8475 10.156 39.0371 9.831 38.3785 9.181C37.7198 8.52233 37.3905 7.712 37.3905 6.75C37.3905 5.788 37.7198 4.982 38.3785 4.332C39.0371 3.67333 39.8475 3.344 40.8095 3.344C41.7628 3.344 42.5688 3.67333 43.2275 4.332C43.8948 4.982 44.2285 5.788 44.2285 6.75C44.2285 7.70333 43.8948 8.51367 43.2275 9.181ZM38.9895 8.583C39.4835 9.077 40.0901 9.324 40.8095 9.324C41.5288 9.324 42.1355 9.077 42.6295 8.583C43.1235 8.07167 43.3705 7.46067 43.3705 6.75C43.3705 6.03067 43.1235 5.424 42.6295 4.93C42.1355 4.42733 41.5288 4.176 40.8095 4.176C40.0901 4.176 39.4835 4.42733 38.9895 4.93C38.4955 5.424 38.2485 6.03067 38.2485 6.75C38.2485 7.46067 38.4955 8.07167 38.9895 8.583ZM48.6343 6.659C49.3883 6.945 49.7653 7.465 49.7653 8.219C49.7653 8.765 49.553 9.22433 49.1283 9.597C48.721 9.96967 48.123 10.156 47.3343 10.156C46.017 10.156 45.159 9.636 44.7603 8.596L45.4883 8.167C45.7657 8.93833 46.381 9.324 47.3343 9.324C47.8283 9.324 48.214 9.22 48.4913 9.012C48.7687 8.79533 48.9073 8.51367 48.9073 8.167C48.9073 7.855 48.7947 7.608 48.5693 7.426C48.344 7.23533 48.0407 7.14 47.6593 7.14H46.7103V6.308H47.3993C47.772 6.308 48.0623 6.217 48.2703 6.035C48.487 5.84433 48.5953 5.58433 48.5953 5.255C48.5953 4.943 48.4653 4.68733 48.2053 4.488C47.954 4.28 47.6203 4.176 47.2043 4.176C46.3983 4.176 45.8567 4.501 45.5793 5.151L44.8643 4.735C45.2977 3.80767 46.0777 3.344 47.2043 3.344C47.8977 3.344 48.4437 3.526 48.8423 3.89C49.2497 4.24533 49.4533 4.683 49.4533 5.203C49.4533 5.87033 49.1803 6.35567 48.6343 6.659ZM55.5414 6.334V3.5H56.3994V10H55.5414V7.166H51.7974V10H50.9394V3.5H51.7974V6.334H55.5414ZM58.9418 8.505L62.8158 3.5H63.5438V10H62.6858V4.995L58.8118 10H58.0838V3.5H58.9418V8.505ZM66.9962 6.62L70.4802 10H69.3362L66.0862 6.867V10H65.2282V3.5H66.0862V6.373L69.1802 3.5H70.3502L66.9962 6.62ZM72.1981 3.5H76.8521V10H75.9941V4.332H73.0561V7.231C73.0561 8.31433 72.8481 9.05967 72.4321 9.467C72.0247 9.87433 71.4614 10.052 70.7421 10V9.194C71.2447 9.246 71.6131 9.12467 71.8471 8.83C72.0811 8.53533 72.1981 8.00233 72.1981 7.231V3.5ZM79.3975 8.505L83.2715 3.5H83.9995V10H83.1415V4.995L79.2675 10H78.5395V3.5H79.3975V8.505ZM88.8039 3.5H94.2639V10H93.4059V4.332H89.6619V10H88.8039V3.5ZM99.4323 3.344C100.36 3.344 101.148 3.67333 101.798 4.332C102.457 4.99067 102.786 5.79667 102.786 6.75C102.786 7.70333 102.457 8.50933 101.798 9.168C101.148 9.82667 100.36 10.156 99.4323 10.156C98.2797 10.156 97.4043 9.67933 96.8063 8.726V12.6H95.9483V3.5H96.8063V4.774C97.4043 3.82067 98.2797 3.344 99.4323 3.344ZM97.5473 8.583C98.0413 9.077 98.648 9.324 99.3673 9.324C100.087 9.324 100.693 9.077 101.187 8.583C101.681 8.07167 101.928 7.46067 101.928 6.75C101.928 6.03067 101.681 5.424 101.187 4.93C100.693 4.42733 100.087 4.176 99.3673 4.176C98.648 4.176 98.0413 4.42733 97.5473 4.93C97.0533 5.424 96.8063 6.03067 96.8063 6.75C96.8063 7.46067 97.0533 8.07167 97.5473 8.583ZM109.53 9.181C108.863 9.831 108.057 10.156 107.112 10.156C106.15 10.156 105.34 9.831 104.681 9.181C104.022 8.52233 103.693 7.712 103.693 6.75C103.693 5.788 104.022 4.982 104.681 4.332C105.34 3.67333 106.15 3.344 107.112 3.344C108.065 3.344 108.871 3.67333 109.53 4.332C110.197 4.982 110.531 5.788 110.531 6.75C110.531 7.70333 110.197 8.51367 109.53 9.181ZM105.292 8.583C105.786 9.077 106.393 9.324 107.112 9.324C107.831 9.324 108.438 9.077 108.932 8.583C109.426 8.07167 109.673 7.46067 109.673 6.75C109.673 6.03067 109.426 5.424 108.932 4.93C108.438 4.42733 107.831 4.176 107.112 4.176C106.393 4.176 105.786 4.42733 105.292 4.93C104.798 5.424 104.551 6.03067 104.551 6.75C104.551 7.46067 104.798 8.07167 105.292 8.583ZM114.723 10.156C113.795 10.156 113.015 9.84833 112.383 9.233C111.759 8.609 111.447 7.803 111.447 6.815C111.447 5.70567 111.611 4.85633 111.941 4.267C112.27 3.669 112.937 3.12733 113.943 2.642C114.263 2.49467 114.515 2.382 114.697 2.304C115 2.18267 115.238 2.07867 115.412 1.992C116.166 1.64533 116.547 1.21633 116.556 0.705L117.232 1.095C117.188 1.31167 117.119 1.50667 117.024 1.68C116.911 1.87067 116.798 2.02233 116.686 2.135C116.582 2.24767 116.417 2.369 116.192 2.499C116.044 2.58567 115.867 2.681 115.659 2.785L115.009 3.058L114.398 3.318C113.8 3.578 113.353 3.851 113.059 4.137C112.773 4.41433 112.569 4.77833 112.448 5.229C112.725 4.85633 113.089 4.57467 113.54 4.384C113.99 4.18467 114.445 4.085 114.905 4.085C115.771 4.085 116.486 4.371 117.05 4.943C117.622 5.50633 117.908 6.23 117.908 7.114C117.908 7.98933 117.604 8.71733 116.998 9.298C116.4 9.87 115.641 10.156 114.723 10.156ZM113.033 8.661C113.483 9.08567 114.047 9.298 114.723 9.298C115.399 9.298 115.953 9.09433 116.387 8.687C116.829 8.271 117.05 7.74667 117.05 7.114C117.05 6.47267 116.842 5.94833 116.426 5.541C116.018 5.125 115.472 4.917 114.788 4.917C114.172 4.917 113.613 5.112 113.111 5.502C112.608 5.87467 112.357 6.386 112.357 7.036C112.357 7.69467 112.582 8.23633 113.033 8.661ZM119.505 3.5H124.159V10H123.301V4.332H120.363V7.231C120.363 8.31433 120.155 9.05967 119.739 9.467C119.332 9.87433 118.768 10.052 118.049 10V9.194C118.552 9.246 118.92 9.12467 119.154 8.83C119.388 8.53533 119.505 8.00233 119.505 7.231V3.5ZM128.849 3.344C129.82 3.344 130.596 3.68633 131.176 4.371C131.774 5.047 132.073 5.84867 132.073 6.776C132.073 6.81933 132.065 6.95367 132.047 7.179H126.34C126.427 7.829 126.704 8.349 127.172 8.739C127.64 9.129 128.225 9.324 128.927 9.324C129.915 9.324 130.613 8.95567 131.02 8.219L131.774 8.661C131.488 9.129 131.094 9.49733 130.591 9.766C130.097 10.026 129.538 10.156 128.914 10.156C127.892 10.156 127.06 9.83533 126.418 9.194C125.777 8.55267 125.456 7.738 125.456 6.75C125.456 5.77067 125.773 4.96033 126.405 4.319C127.038 3.669 127.853 3.344 128.849 3.344ZM128.849 4.176C128.173 4.176 127.606 4.37533 127.146 4.774C126.696 5.17267 126.427 5.697 126.34 6.347H131.189C131.094 5.65367 130.83 5.12067 130.396 4.748C129.946 4.36667 129.43 4.176 128.849 4.176ZM138.69 3.5H139.678V10H138.82V4.813L136.545 8.505H136.441L134.166 4.813V10H133.308V3.5H134.296L136.493 7.062L138.69 3.5ZM142.225 5.97H144.006C144.604 5.97 145.115 6.16067 145.54 6.542C145.964 6.91467 146.177 7.39567 146.177 7.985C146.177 8.583 145.964 9.06833 145.54 9.441C145.132 9.81367 144.621 10 144.006 10H141.367V3.5H142.225V5.97ZM147.087 10V3.5H147.945V10H147.087ZM142.225 9.168H144.006C144.378 9.168 144.69 9.05967 144.942 8.843C145.193 8.61767 145.319 8.33167 145.319 7.985C145.319 7.63833 145.193 7.35667 144.942 7.14C144.69 6.91467 144.378 6.802 144.006 6.802H142.225V9.168ZM155.79 10.156C154.811 10.156 153.996 9.831 153.346 9.181C152.696 8.51367 152.371 7.70333 152.371 6.75C152.371 5.788 152.696 4.982 153.346 4.332C153.996 3.67333 154.811 3.344 155.79 3.344C156.431 3.344 157.008 3.5 157.519 3.812C158.03 4.11533 158.403 4.527 158.637 5.047L157.935 5.45C157.762 5.06 157.48 4.75233 157.09 4.527C156.709 4.293 156.275 4.176 155.79 4.176C155.071 4.176 154.464 4.42733 153.97 4.93C153.476 5.424 153.229 6.03067 153.229 6.75C153.229 7.46067 153.476 8.07167 153.97 8.583C154.464 9.077 155.071 9.324 155.79 9.324C156.267 9.324 156.696 9.21133 157.077 8.986C157.467 8.76067 157.77 8.44867 157.987 8.05L158.702 8.466C158.433 8.986 158.039 9.39767 157.519 9.701C156.999 10.0043 156.423 10.156 155.79 10.156ZM166.408 3.344C167.335 3.344 168.124 3.67333 168.774 4.332C169.432 4.99067 169.762 5.79667 169.762 6.75C169.762 7.70333 169.432 8.50933 168.774 9.168C168.124 9.82667 167.335 10.156 166.408 10.156C165.255 10.156 164.38 9.67933 163.782 8.726V12.6H162.924V3.5H163.782V4.774C164.38 3.82067 165.255 3.344 166.408 3.344ZM164.523 8.583C165.017 9.077 165.623 9.324 166.343 9.324C167.062 9.324 167.669 9.077 168.163 8.583C168.657 8.07167 168.904 7.46067 168.904 6.75C168.904 6.03067 168.657 5.424 168.163 4.93C167.669 4.42733 167.062 4.176 166.343 4.176C165.623 4.176 165.017 4.42733 164.523 4.93C164.029 5.424 163.782 6.03067 163.782 6.75C163.782 7.46067 164.029 8.07167 164.523 8.583ZM174.061 3.344C175.032 3.344 175.808 3.68633 176.388 4.371C176.986 5.047 177.285 5.84867 177.285 6.776C177.285 6.81933 177.277 6.95367 177.259 7.179H171.552C171.639 7.829 171.916 8.349 172.384 8.739C172.852 9.129 173.437 9.324 174.139 9.324C175.127 9.324 175.825 8.95567 176.232 8.219L176.986 8.661C176.7 9.129 176.306 9.49733 175.803 9.766C175.309 10.026 174.75 10.156 174.126 10.156C173.104 10.156 172.272 9.83533 171.63 9.194C170.989 8.55267 170.668 7.738 170.668 6.75C170.668 5.77067 170.985 4.96033 171.617 4.319C172.25 3.669 173.065 3.344 174.061 3.344ZM174.061 4.176C173.385 4.176 172.818 4.37533 172.358 4.774C171.908 5.17267 171.639 5.697 171.552 6.347H176.401C176.306 5.65367 176.042 5.12067 175.608 4.748C175.158 4.36667 174.642 4.176 174.061 4.176ZM178.52 3.5H182.68V4.332H179.378V10H178.52V3.5ZM184.453 8.505L188.327 3.5H189.055V10H188.197V4.995L184.323 10H183.595V3.5H184.453V8.505ZM193.769 10.156C192.789 10.156 191.975 9.831 191.325 9.181C190.675 8.51367 190.35 7.70333 190.35 6.75C190.35 5.788 190.675 4.982 191.325 4.332C191.975 3.67333 192.789 3.344 193.769 3.344C194.41 3.344 194.986 3.5 195.498 3.812C196.009 4.11533 196.382 4.527 196.616 5.047L195.914 5.45C195.74 5.06 195.459 4.75233 195.069 4.527C194.687 4.293 194.254 4.176 193.769 4.176C193.049 4.176 192.443 4.42733 191.949 4.93C191.455 5.424 191.208 6.03067 191.208 6.75C191.208 7.46067 191.455 8.07167 191.949 8.583C192.443 9.077 193.049 9.324 193.769 9.324C194.245 9.324 194.674 9.21133 195.056 8.986C195.446 8.76067 195.749 8.44867 195.966 8.05L196.681 8.466C196.412 8.986 196.018 9.39767 195.498 9.701C194.978 10.0043 194.401 10.156 193.769 10.156ZM196.876 3.5H202.336V4.332H200.035V10H199.177V4.332H196.876V3.5ZM206.735 3.344C207.662 3.344 208.451 3.67333 209.101 4.332C209.76 4.99067 210.089 5.79667 210.089 6.75C210.089 7.70333 209.76 8.50933 209.101 9.168C208.451 9.82667 207.662 10.156 206.735 10.156C205.582 10.156 204.707 9.67933 204.109 8.726V12.6H203.251V3.5H204.109V4.774C204.707 3.82067 205.582 3.344 206.735 3.344ZM204.85 8.583C205.344 9.077 205.951 9.324 206.67 9.324C207.389 9.324 207.996 9.077 208.49 8.583C208.984 8.07167 209.231 7.46067 209.231 6.75C209.231 6.03067 208.984 5.424 208.49 4.93C207.996 4.42733 207.389 4.176 206.67 4.176C205.951 4.176 205.344 4.42733 204.85 4.93C204.356 5.424 204.109 6.03067 204.109 6.75C204.109 7.46067 204.356 8.07167 204.85 8.583ZM216.976 4.774V3.5H217.834V10H216.976V8.726C216.378 9.67933 215.502 10.156 214.35 10.156C213.422 10.156 212.629 9.82667 211.971 9.168C211.321 8.50933 210.996 7.70333 210.996 6.75C210.996 5.79667 211.321 4.99067 211.971 4.332C212.629 3.67333 213.422 3.344 214.35 3.344C215.502 3.344 216.378 3.82067 216.976 4.774ZM212.595 8.583C213.089 9.077 213.695 9.324 214.415 9.324C215.134 9.324 215.741 9.077 216.235 8.583C216.729 8.07167 216.976 7.46067 216.976 6.75C216.976 6.03067 216.729 5.424 216.235 4.93C215.741 4.42733 215.134 4.176 214.415 4.176C213.695 4.176 213.089 4.42733 212.595 4.93C212.101 5.424 211.854 6.03067 211.854 6.75C211.854 7.46067 212.101 8.07167 212.595 8.583ZM224.85 3.5V9.168H225.89V11.742H225.032V10H219.52V3.5H220.378V9.168H223.992V3.5H224.85ZM227.916 8.505L231.79 3.5H232.518V10H231.66V4.995L227.786 10H227.058V3.5H227.916V8.505ZM237.206 3.344C238.176 3.344 238.952 3.68633 239.533 4.371C240.131 5.047 240.43 5.84867 240.43 6.776C240.43 6.81933 240.421 6.95367 240.404 7.179H234.697C234.783 7.829 235.061 8.349 235.529 8.739C235.997 9.129 236.582 9.324 237.284 9.324C238.272 9.324 238.969 8.95567 239.377 8.219L240.131 8.661C239.845 9.129 239.45 9.49733 238.948 9.766C238.454 10.026 237.895 10.156 237.271 10.156C236.248 10.156 235.416 9.83533 234.775 9.194C234.133 8.55267 233.813 7.738 233.813 6.75C233.813 5.77067 234.129 4.96033 234.762 4.319C235.394 3.669 236.209 3.344 237.206 3.344ZM237.206 4.176C236.53 4.176 235.962 4.37533 235.503 4.774C235.052 5.17267 234.783 5.697 234.697 6.347H239.546C239.45 5.65367 239.186 5.12067 238.753 4.748C238.302 4.36667 237.786 4.176 237.206 4.176ZM246.085 2.46H242.705V1.706H246.085V2.46ZM242.523 8.505L246.397 3.5H247.125V10H246.267V4.995L242.393 10H241.665V3.5H242.523V8.505ZM249.199 8.895H250.239L249.459 11.82H248.679L249.199 8.895ZM260.369 9.181C259.702 9.831 258.896 10.156 257.951 10.156C256.989 10.156 256.179 9.831 255.52 9.181C254.861 8.52233 254.532 7.712 254.532 6.75C254.532 5.788 254.861 4.982 255.52 4.332C256.179 3.67333 256.989 3.344 257.951 3.344C258.904 3.344 259.71 3.67333 260.369 4.332C261.036 4.982 261.37 5.788 261.37 6.75C261.37 7.70333 261.036 8.51367 260.369 9.181ZM256.131 8.583C256.625 9.077 257.232 9.324 257.951 9.324C258.67 9.324 259.277 9.077 259.771 8.583C260.265 8.07167 260.512 7.46067 260.512 6.75C260.512 6.03067 260.265 5.424 259.771 4.93C259.277 4.42733 258.67 4.176 257.951 4.176C257.232 4.176 256.625 4.42733 256.131 4.93C255.637 5.424 255.39 6.03067 255.39 6.75C255.39 7.46067 255.637 8.07167 256.131 8.583ZM265.562 10.156C264.635 10.156 263.855 9.84833 263.222 9.233C262.598 8.609 262.286 7.803 262.286 6.815C262.286 5.70567 262.451 4.85633 262.78 4.267C263.109 3.669 263.777 3.12733 264.782 2.642C265.103 2.49467 265.354 2.382 265.536 2.304C265.839 2.18267 266.078 2.07867 266.251 1.992C267.005 1.64533 267.386 1.21633 267.395 0.705L268.071 1.095C268.028 1.31167 267.958 1.50667 267.863 1.68C267.75 1.87067 267.638 2.02233 267.525 2.135C267.421 2.24767 267.256 2.369 267.031 2.499C266.884 2.58567 266.706 2.681 266.498 2.785L265.848 3.058L265.237 3.318C264.639 3.578 264.193 3.851 263.898 4.137C263.612 4.41433 263.408 4.77833 263.287 5.229C263.564 4.85633 263.928 4.57467 264.379 4.384C264.83 4.18467 265.285 4.085 265.744 4.085C266.611 4.085 267.326 4.371 267.889 4.943C268.461 5.50633 268.747 6.23 268.747 7.114C268.747 7.98933 268.444 8.71733 267.837 9.298C267.239 9.87 266.481 10.156 265.562 10.156ZM263.872 8.661C264.323 9.08567 264.886 9.298 265.562 9.298C266.238 9.298 266.793 9.09433 267.226 8.687C267.668 8.271 267.889 7.74667 267.889 7.114C267.889 6.47267 267.681 5.94833 267.265 5.541C266.858 5.125 266.312 4.917 265.627 4.917C265.012 4.917 264.453 5.112 263.95 5.502C263.447 5.87467 263.196 6.386 263.196 7.036C263.196 7.69467 263.421 8.23633 263.872 8.661ZM273.406 3.344C274.333 3.344 275.122 3.67333 275.772 4.332C276.431 4.99067 276.76 5.79667 276.76 6.75C276.76 7.70333 276.431 8.50933 275.772 9.168C275.122 9.82667 274.333 10.156 273.406 10.156C272.253 10.156 271.378 9.67933 270.78 8.726V12.6H269.922V3.5H270.78V4.774C271.378 3.82067 272.253 3.344 273.406 3.344ZM271.521 8.583C272.015 9.077 272.622 9.324 273.341 9.324C274.06 9.324 274.667 9.077 275.161 8.583C275.655 8.07167 275.902 7.46067 275.902 6.75C275.902 6.03067 275.655 5.424 275.161 4.93C274.667 4.42733 274.06 4.176 273.341 4.176C272.622 4.176 272.015 4.42733 271.521 4.93C271.027 5.424 270.78 6.03067 270.78 6.75C270.78 7.46067 271.027 8.07167 271.521 8.583ZM283.647 4.774V3.5H284.505V10H283.647V8.726C283.049 9.67933 282.173 10.156 281.021 10.156C280.093 10.156 279.3 9.82667 278.642 9.168C277.992 8.50933 277.667 7.70333 277.667 6.75C277.667 5.79667 277.992 4.99067 278.642 4.332C279.3 3.67333 280.093 3.344 281.021 3.344C282.173 3.344 283.049 3.82067 283.647 4.774ZM279.266 8.583C279.76 9.077 280.366 9.324 281.086 9.324C281.805 9.324 282.412 9.077 282.906 8.583C283.4 8.07167 283.647 7.46067 283.647 6.75C283.647 6.03067 283.4 5.424 282.906 4.93C282.412 4.42733 281.805 4.176 281.086 4.176C280.366 4.176 279.76 4.42733 279.266 4.93C278.772 5.424 278.525 6.03067 278.525 6.75C278.525 7.46067 278.772 8.07167 279.266 8.583ZM285.411 3.5H290.871V4.332H288.57V10H287.712V4.332H285.411V3.5ZM292.645 8.505L296.519 3.5H297.247V10H296.389V4.995L292.515 10H291.787V3.5H292.645V8.505ZM298.151 3.5H303.611V4.332H301.31V10H300.452V4.332H298.151V3.5ZM307.276 3.344C308.246 3.344 309.022 3.68633 309.603 4.371C310.201 5.047 310.5 5.84867 310.5 6.776C310.5 6.81933 310.491 6.95367 310.474 7.179H304.767C304.853 7.829 305.131 8.349 305.599 8.739C306.067 9.129 306.652 9.324 307.354 9.324C308.342 9.324 309.039 8.95567 309.447 8.219L310.201 8.661C309.915 9.129 309.52 9.49733 309.018 9.766C308.524 10.026 307.965 10.156 307.341 10.156C306.318 10.156 305.486 9.83533 304.845 9.194C304.203 8.55267 303.883 7.738 303.883 6.75C303.883 5.77067 304.199 4.96033 304.832 4.319C305.464 3.669 306.279 3.344 307.276 3.344ZM307.276 4.176C306.6 4.176 306.032 4.37533 305.573 4.774C305.122 5.17267 304.853 5.697 304.767 6.347H309.616C309.52 5.65367 309.256 5.12067 308.823 4.748C308.372 4.36667 307.856 4.176 307.276 4.176ZM314.764 10.156C313.784 10.156 312.97 9.831 312.32 9.181C311.67 8.51367 311.345 7.70333 311.345 6.75C311.345 5.788 311.67 4.982 312.32 4.332C312.97 3.67333 313.784 3.344 314.764 3.344C315.405 3.344 315.981 3.5 316.493 3.812C317.004 4.11533 317.377 4.527 317.611 5.047L316.909 5.45C316.735 5.06 316.454 4.75233 316.064 4.527C315.682 4.293 315.249 4.176 314.764 4.176C314.044 4.176 313.438 4.42733 312.944 4.93C312.45 5.424 312.203 6.03067 312.203 6.75C312.203 7.46067 312.45 8.07167 312.944 8.583C313.438 9.077 314.044 9.324 314.764 9.324C315.24 9.324 315.669 9.21133 316.051 8.986C316.441 8.76067 316.744 8.44867 316.961 8.05L317.676 8.466C317.407 8.986 317.013 9.39767 316.493 9.701C315.973 10.0043 315.396 10.156 314.764 10.156ZM319.635 5.97H321.416C322.014 5.97 322.526 6.16067 322.95 6.542C323.375 6.91467 323.587 7.39567 323.587 7.985C323.587 8.583 323.375 9.06833 322.95 9.441C322.543 9.81367 322.032 10 321.416 10H318.777V3.5H319.635V5.97ZM319.635 9.168H321.416C321.789 9.168 322.101 9.05967 322.352 8.843C322.604 8.61767 322.729 8.33167 322.729 7.985C322.729 7.63833 322.604 7.35667 322.352 7.14C322.101 6.91467 321.789 6.802 321.416 6.802H319.635V9.168ZM332.008 6.659C332.719 6.919 333.074 7.426 333.074 8.18C333.074 8.71733 332.892 9.155 332.528 9.493C332.173 9.831 331.674 10 331.033 10H327.874V3.5H330.773C331.397 3.5 331.882 3.66033 332.229 3.981C332.584 4.30167 332.762 4.722 332.762 5.242C332.762 5.892 332.511 6.36433 332.008 6.659ZM330.773 4.332H328.732V6.308H330.773C331.527 6.308 331.904 5.97 331.904 5.294C331.904 4.99067 331.804 4.75667 331.605 4.592C331.414 4.41867 331.137 4.332 330.773 4.332ZM328.732 9.168H331.033C331.414 9.168 331.705 9.077 331.904 8.895C332.112 8.713 332.216 8.45733 332.216 8.128C332.216 7.816 332.112 7.57333 331.904 7.4C331.705 7.22667 331.414 7.14 331.033 7.14H328.732V9.168Z" fill="#949494"/>
<path d="M114.558 28.156C113.579 28.156 112.764 27.831 112.114 27.181C111.464 26.5137 111.139 25.7033 111.139 24.75C111.139 23.788 111.464 22.982 112.114 22.332C112.764 21.6733 113.579 21.344 114.558 21.344C115.199 21.344 115.776 21.5 116.287 21.812C116.798 22.1153 117.171 22.527 117.405 23.047L116.703 23.45C116.53 23.06 116.248 22.7523 115.858 22.527C115.477 22.293 115.043 22.176 114.558 22.176C113.839 22.176 113.232 22.4273 112.738 22.93C112.244 23.424 111.997 24.0307 111.997 24.75C111.997 25.4607 112.244 26.0717 112.738 26.583C113.232 27.077 113.839 27.324 114.558 27.324C115.035 27.324 115.464 27.2113 115.845 26.986C116.235 26.7607 116.538 26.4487 116.755 26.05L117.47 26.466C117.201 26.986 116.807 27.3977 116.287 27.701C115.767 28.0043 115.191 28.156 114.558 28.156ZM119.121 21.5H123.775V28H122.917V22.332H119.979V25.231C119.979 26.3143 119.771 27.0597 119.355 27.467C118.948 27.8743 118.384 28.052 117.665 28V27.194C118.168 27.246 118.536 27.1247 118.77 26.83C119.004 26.5353 119.121 26.0023 119.121 25.231V21.5ZM128.036 26.947L130.142 21.5H131.052L128.27 28.598C128.01 29.2567 127.646 29.7637 127.178 30.119C126.719 30.483 126.208 30.6433 125.644 30.6V29.794C126.424 29.8893 127.018 29.4387 127.425 28.442L127.594 28.039L124.682 21.5H125.592L128.036 26.947ZM136.512 24.62L139.424 28H138.384L135.732 24.867V28H134.874V24.867L132.222 28H131.182L134.094 24.62L131.312 21.5H132.352L134.874 24.386V21.5H135.732V24.386L138.254 21.5H139.294L136.512 24.62ZM142.828 28.156C141.9 28.156 141.12 27.8483 140.488 27.233C139.864 26.609 139.552 25.803 139.552 24.815C139.552 23.7057 139.716 22.8563 140.046 22.267C140.375 21.669 141.042 21.1273 142.048 20.642C142.368 20.4947 142.62 20.382 142.802 20.304C143.105 20.1827 143.343 20.0787 143.517 19.992C144.271 19.6453 144.652 19.2163 144.661 18.705L145.337 19.095C145.293 19.3117 145.224 19.5067 145.129 19.68C145.016 19.8707 144.903 20.0223 144.791 20.135C144.687 20.2477 144.522 20.369 144.297 20.499C144.149 20.5857 143.972 20.681 143.764 20.785L143.114 21.058L142.503 21.318C141.905 21.578 141.458 21.851 141.164 22.137C140.878 22.4143 140.674 22.7783 140.553 23.229C140.83 22.8563 141.194 22.5747 141.645 22.384C142.095 22.1847 142.55 22.085 143.01 22.085C143.876 22.085 144.591 22.371 145.155 22.943C145.727 23.5063 146.013 24.23 146.013 25.114C146.013 25.9893 145.709 26.7173 145.103 27.298C144.505 27.87 143.746 28.156 142.828 28.156ZM141.138 26.661C141.588 27.0857 142.152 27.298 142.828 27.298C143.504 27.298 144.058 27.0943 144.492 26.687C144.934 26.271 145.155 25.7467 145.155 25.114C145.155 24.4727 144.947 23.9483 144.531 23.541C144.123 23.125 143.577 22.917 142.893 22.917C142.277 22.917 141.718 23.112 141.216 23.502C140.713 23.8747 140.462 24.386 140.462 25.036C140.462 25.6947 140.687 26.2363 141.138 26.661ZM149.508 26.947L151.614 21.5H152.524L149.742 28.598C149.482 29.2567 149.118 29.7637 148.65 30.119C148.19 30.483 147.679 30.6433 147.116 30.6V29.794C147.896 29.8893 148.489 29.4387 148.897 28.442L149.066 28.039L146.154 21.5H147.064L149.508 26.947ZM156.551 21.5H162.011V28H161.153V22.332H157.409V28H156.551V21.5ZM169.142 27.181C168.475 27.831 167.669 28.156 166.724 28.156C165.762 28.156 164.952 27.831 164.293 27.181C163.634 26.5223 163.305 25.712 163.305 24.75C163.305 23.788 163.634 22.982 164.293 22.332C164.952 21.6733 165.762 21.344 166.724 21.344C167.677 21.344 168.483 21.6733 169.142 22.332C169.809 22.982 170.143 23.788 170.143 24.75C170.143 25.7033 169.809 26.5137 169.142 27.181ZM164.904 26.583C165.398 27.077 166.005 27.324 166.724 27.324C167.443 27.324 168.05 27.077 168.544 26.583C169.038 26.0717 169.285 25.4607 169.285 24.75C169.285 24.0307 169.038 23.424 168.544 22.93C168.05 22.4273 167.443 22.176 166.724 22.176C166.005 22.176 165.398 22.4273 164.904 22.93C164.41 23.424 164.163 24.0307 164.163 24.75C164.163 25.4607 164.41 26.0717 164.904 26.583ZM176.655 21.5V27.168H177.565V29.742H176.707V28H171.403V29.742H170.545V27.168H171.338C171.78 26.5787 172.001 25.7597 172.001 24.711V21.5H176.655ZM172.378 27.168H175.797V22.332H172.859V24.711C172.859 25.7163 172.699 26.5353 172.378 27.168ZM184.193 21.5V27.168H185.103V29.742H184.245V28H178.941V29.742H178.083V27.168H178.876C179.318 26.5787 179.539 25.7597 179.539 24.711V21.5H184.193ZM179.916 27.168H183.335V22.332H180.397V24.711C180.397 25.7163 180.237 26.5353 179.916 27.168ZM189.02 21.344C189.991 21.344 190.766 21.6863 191.347 22.371C191.945 23.047 192.244 23.8487 192.244 24.776C192.244 24.8193 192.235 24.9537 192.218 25.179H186.511C186.598 25.829 186.875 26.349 187.343 26.739C187.811 27.129 188.396 27.324 189.098 27.324C190.086 27.324 190.784 26.9557 191.191 26.219L191.945 26.661C191.659 27.129 191.265 27.4973 190.762 27.766C190.268 28.026 189.709 28.156 189.085 28.156C188.062 28.156 187.23 27.8353 186.589 27.194C185.948 26.5527 185.627 25.738 185.627 24.75C185.627 23.7707 185.943 22.9603 186.576 22.319C187.209 21.669 188.023 21.344 189.02 21.344ZM189.02 22.176C188.344 22.176 187.776 22.3753 187.317 22.774C186.866 23.1727 186.598 23.697 186.511 24.347H191.36C191.265 23.6537 191 23.1207 190.567 22.748C190.116 22.3667 189.601 22.176 189.02 22.176ZM196.963 21.344C197.89 21.344 198.679 21.6733 199.329 22.332C199.987 22.9907 200.317 23.7967 200.317 24.75C200.317 25.7033 199.987 26.5093 199.329 27.168C198.679 27.8267 197.89 28.156 196.963 28.156C195.81 28.156 194.935 27.6793 194.337 26.726V30.6H193.479V21.5H194.337V22.774C194.935 21.8207 195.81 21.344 196.963 21.344ZM195.078 26.583C195.572 27.077 196.178 27.324 196.898 27.324C197.617 27.324 198.224 27.077 198.718 26.583C199.212 26.0717 199.459 25.4607 199.459 24.75C199.459 24.0307 199.212 23.424 198.718 22.93C198.224 22.4273 197.617 22.176 196.898 22.176C196.178 22.176 195.572 22.4273 195.078 22.93C194.584 23.424 194.337 24.0307 194.337 24.75C194.337 25.4607 194.584 26.0717 195.078 26.583ZM205.773 24.62L208.685 28H207.645L204.993 24.867V28H204.135V24.867L201.483 28H200.443L203.355 24.62L200.573 21.5H201.613L204.135 24.386V21.5H204.993V24.386L207.515 21.5H208.555L205.773 24.62ZM211.491 24.62L214.975 28H213.831L210.581 24.867V28H209.723V21.5H210.581V24.373L213.675 21.5H214.845L211.491 24.62ZM216.875 26.505L220.749 21.5H221.477V28H220.619V22.995L216.745 28H216.017V21.5H216.875V26.505Z" fill="#4293EF"/>
<path d="M110.619 30.6H222.387V31.25H110.619V30.6Z" fill="#4293EF"/>
</svg>
