<svg width="315" height="35" viewBox="0 0 315 35" fill="none" xmlns="http://www.w3.org/2000/svg">
<path d="M5.4763 0.727273V8H4.59561V1.50852H0.930842V8H0.0501598V0.727273H5.4763ZM7.03912 10.0455V2.54545H7.84877V3.41193H7.94821C8.00976 3.31723 8.09499 3.1965 8.20389 3.04972C8.31516 2.90057 8.47377 2.76799 8.67974 2.65199C8.88807 2.53362 9.1698 2.47443 9.52491 2.47443C9.98419 2.47443 10.389 2.58925 10.7394 2.81889C11.0898 3.04853 11.3632 3.37405 11.5597 3.79545C11.7562 4.21686 11.8545 4.71402 11.8545 5.28693C11.8545 5.86458 11.7562 6.36529 11.5597 6.78906C11.3632 7.21046 11.091 7.53717 10.743 7.76918C10.3949 7.99882 9.99366 8.11364 9.53912 8.11364C9.18874 8.11364 8.9082 8.05563 8.6975 7.93963C8.4868 7.82126 8.32463 7.6875 8.21099 7.53835C8.09735 7.38684 8.00976 7.26136 7.94821 7.16193H7.87718V10.0455H7.03912ZM7.86298 5.27273C7.86298 5.68466 7.92335 6.04806 8.04409 6.36293C8.16483 6.67543 8.3412 6.92045 8.57321 7.09801C8.80521 7.2732 9.0893 7.3608 9.42548 7.3608C9.77586 7.3608 10.0682 7.26847 10.3026 7.08381C10.5394 6.89678 10.7169 6.64583 10.8353 6.33097C10.956 6.01373 11.0164 5.66098 11.0164 5.27273C11.0164 4.8892 10.9572 4.54356 10.8388 4.2358C10.7228 3.92566 10.5465 3.68063 10.3097 3.50071C10.0753 3.31842 9.78059 3.22727 9.42548 3.22727C9.08457 3.22727 8.79811 3.31368 8.5661 3.48651C8.3341 3.65696 8.15891 3.89607 8.04054 4.20384C7.92216 4.50923 7.86298 4.86553 7.86298 5.27273ZM13.8709 6.7642L16.4988 2.54545H17.4647V8H16.6266V3.78125L14.013 8H13.0329V2.54545H13.8709V6.7642ZM21.6122 8V2.54545H23.8423C24.4294 2.54545 24.8958 2.67803 25.2414 2.94318C25.5871 3.20833 25.7599 3.55871 25.7599 3.99432C25.7599 4.32576 25.6616 4.58262 25.4651 4.76491C25.2686 4.94484 25.0165 5.06676 24.7088 5.13068C24.91 5.15909 25.1053 5.23011 25.2947 5.34375C25.4865 5.45739 25.6451 5.61364 25.7705 5.8125C25.896 6.009 25.9588 6.25047 25.9588 6.53693C25.9588 6.81629 25.8877 7.06605 25.7457 7.28622C25.6036 7.50639 25.4 7.6804 25.1349 7.80824C24.8697 7.93608 24.5525 8 24.1832 8H21.6122ZM22.4076 7.23295H24.1832C24.472 7.23295 24.6981 7.1643 24.8615 7.02699C25.0248 6.88968 25.1065 6.70265 25.1065 6.46591C25.1065 6.18419 25.0248 5.96283 24.8615 5.80185C24.6981 5.63849 24.472 5.55682 24.1832 5.55682H22.4076V7.23295ZM22.4076 4.83239H23.8423C24.0672 4.83239 24.2601 4.80161 24.4211 4.74006C24.5821 4.67614 24.7052 4.58617 24.7904 4.47017C24.878 4.3518 24.9218 4.21212 24.9218 4.05114C24.9218 3.8215 24.8259 3.64157 24.6342 3.51136C24.4424 3.37879 24.1785 3.3125 23.8423 3.3125H22.4076V4.83239ZM27.7524 2.54545L29.0592 4.77557L30.366 2.54545H31.3319L29.5706 5.27273L31.3319 8H30.366L29.0592 5.88352L27.7524 8H26.7865L28.5194 5.27273L26.7865 2.54545H27.7524ZM34.4191 8.11364C33.9267 8.11364 33.4946 7.99645 33.1229 7.76207C32.7536 7.5277 32.4648 7.19981 32.2564 6.77841C32.0505 6.35701 31.9475 5.86458 31.9475 5.30114C31.9475 4.73295 32.0505 4.23698 32.2564 3.81321C32.4648 3.38944 32.7536 3.06037 33.1229 2.82599C33.4946 2.59162 33.9267 2.47443 34.4191 2.47443C34.9115 2.47443 35.3424 2.59162 35.7117 2.82599C36.0834 3.06037 36.3722 3.38944 36.5782 3.81321C36.7865 4.23698 36.8907 4.73295 36.8907 5.30114C36.8907 5.86458 36.7865 6.35701 36.5782 6.77841C36.3722 7.19981 36.0834 7.5277 35.7117 7.76207C35.3424 7.99645 34.9115 8.11364 34.4191 8.11364ZM34.4191 7.3608C34.7931 7.3608 35.1009 7.26491 35.3424 7.07315C35.5839 6.88139 35.7626 6.62926 35.8786 6.31676C35.9946 6.00426 36.0526 5.66572 36.0526 5.30114C36.0526 4.93655 35.9946 4.59683 35.8786 4.28196C35.7626 3.96709 35.5839 3.71259 35.3424 3.51847C35.1009 3.32434 34.7931 3.22727 34.4191 3.22727C34.045 3.22727 33.7373 3.32434 33.4958 3.51847C33.2543 3.71259 33.0756 3.96709 32.9596 4.28196C32.8436 4.59683 32.7856 4.93655 32.7856 5.30114C32.7856 5.66572 32.8436 6.00426 32.9596 6.31676C33.0756 6.62926 33.2543 6.88139 33.4958 7.07315C33.7373 7.26491 34.045 7.3608 34.4191 7.3608ZM37.4876 9.5625V7.21875H37.9421C38.0534 7.10275 38.1493 6.97727 38.2298 6.84233C38.3103 6.70739 38.3801 6.54759 38.4393 6.36293C38.5008 6.1759 38.5529 5.94863 38.5955 5.68111C38.6382 5.41122 38.676 5.0857 38.7092 4.70455L38.8938 2.54545H42.3597V7.21875H43.1978V9.5625H42.3597V8H38.3257V9.5625H37.4876ZM38.8938 7.21875H41.5217V3.3267H39.6751L39.533 4.70455C39.4739 5.27509 39.4005 5.77344 39.3129 6.19957C39.2253 6.62571 39.0856 6.96544 38.8938 7.21875ZM46.4971 8.11364C45.9716 8.11364 45.5182 7.99763 45.1371 7.76562C44.7583 7.53125 44.4659 7.20455 44.2599 6.78551C44.0563 6.36411 43.9545 5.87405 43.9545 5.31534C43.9545 4.75663 44.0563 4.2642 44.2599 3.83807C44.4659 3.40956 44.7524 3.07576 45.1193 2.83665C45.4886 2.59517 45.9195 2.47443 46.4119 2.47443C46.696 2.47443 46.9765 2.52178 47.2535 2.61648C47.5305 2.71117 47.7827 2.86506 48.0099 3.07812C48.2372 3.28883 48.4183 3.56818 48.5533 3.91619C48.6882 4.2642 48.7557 4.69271 48.7557 5.2017V5.55682H44.5511V4.83239H47.9034C47.9034 4.52462 47.8418 4.25 47.7187 4.00852C47.598 3.76705 47.4252 3.57647 47.2003 3.43679C46.9777 3.29711 46.7149 3.22727 46.4119 3.22727C46.0781 3.22727 45.7893 3.31013 45.5454 3.47585C45.304 3.6392 45.1181 3.85227 44.9879 4.11506C44.8577 4.37784 44.7926 4.65956 44.7926 4.96023V5.44318C44.7926 5.85511 44.8636 6.20431 45.0057 6.49077C45.1501 6.77486 45.3501 6.99148 45.6058 7.14062C45.8615 7.28741 46.1586 7.3608 46.4971 7.3608C46.7173 7.3608 46.9162 7.33002 47.0937 7.26847C47.2737 7.20455 47.4287 7.10985 47.5589 6.98438C47.6891 6.85653 47.7898 6.69792 47.8608 6.50852L48.6704 6.7358C48.5852 7.01042 48.442 7.25189 48.2408 7.46023C48.0395 7.66619 47.7909 7.82718 47.495 7.94318C47.1991 8.05682 46.8665 8.11364 46.4971 8.11364ZM53.4811 6.7642L56.1089 2.54545H57.0748V8H56.2368V3.78125L53.6231 8H52.643V2.54545H53.4811V6.7642ZM61.2223 10.0455V2.54545H62.032V3.41193H62.1314C62.193 3.31723 62.2782 3.1965 62.3871 3.04972C62.4984 2.90057 62.657 2.76799 62.8629 2.65199C63.0713 2.53362 63.353 2.47443 63.7081 2.47443C64.1674 2.47443 64.5722 2.58925 64.9226 2.81889C65.273 3.04853 65.5464 3.37405 65.7429 3.79545C65.9394 4.21686 66.0377 4.71402 66.0377 5.28693C66.0377 5.86458 65.9394 6.36529 65.7429 6.78906C65.5464 7.21046 65.2742 7.53717 64.9262 7.76918C64.5781 7.99882 64.1769 8.11364 63.7223 8.11364C63.3719 8.11364 63.0914 8.05563 62.8807 7.93963C62.67 7.82126 62.5078 7.6875 62.3942 7.53835C62.2806 7.38684 62.193 7.26136 62.1314 7.16193H62.0604V10.0455H61.2223ZM62.0462 5.27273C62.0462 5.68466 62.1066 6.04806 62.2273 6.36293C62.348 6.67543 62.5244 6.92045 62.7564 7.09801C62.9884 7.2732 63.2725 7.3608 63.6087 7.3608C63.9591 7.3608 64.2514 7.26847 64.4858 7.08381C64.7226 6.89678 64.9001 6.64583 65.0185 6.33097C65.1392 6.01373 65.1996 5.66098 65.1996 5.27273C65.1996 4.8892 65.1404 4.54356 65.022 4.2358C64.906 3.92566 64.7297 3.68063 64.4929 3.50071C64.2585 3.31842 63.9638 3.22727 63.6087 3.22727C63.2678 3.22727 62.9813 3.31368 62.7493 3.48651C62.5173 3.65696 62.3421 3.89607 62.2237 4.20384C62.1054 4.50923 62.0462 4.86553 62.0462 5.27273ZM69.503 8.11364C68.9774 8.11364 68.5241 7.99763 68.1429 7.76562C67.7641 7.53125 67.4717 7.20455 67.2658 6.78551C67.0622 6.36411 66.9604 5.87405 66.9604 5.31534C66.9604 4.75663 67.0622 4.2642 67.2658 3.83807C67.4717 3.40956 67.7582 3.07576 68.1252 2.83665C68.4945 2.59517 68.9253 2.47443 69.4178 2.47443C69.7019 2.47443 69.9824 2.52178 70.2594 2.61648C70.5364 2.71117 70.7885 2.86506 71.0158 3.07812C71.2431 3.28883 71.4242 3.56818 71.5591 3.91619C71.694 4.2642 71.7615 4.69271 71.7615 5.2017V5.55682H67.557V4.83239H70.9092C70.9092 4.52462 70.8477 4.25 70.7246 4.00852C70.6039 3.76705 70.431 3.57647 70.2061 3.43679C69.9836 3.29711 69.7208 3.22727 69.4178 3.22727C69.084 3.22727 68.7951 3.31013 68.5513 3.47585C68.3098 3.6392 68.124 3.85227 67.9938 4.11506C67.8636 4.37784 67.7985 4.65956 67.7985 4.96023V5.44318C67.7985 5.85511 67.8695 6.20431 68.0115 6.49077C68.1559 6.77486 68.356 6.99148 68.6117 7.14062C68.8673 7.28741 69.1645 7.3608 69.503 7.3608C69.7232 7.3608 69.922 7.33002 70.0996 7.26847C70.2795 7.20455 70.4346 7.10985 70.5648 6.98438C70.695 6.85653 70.7956 6.69792 70.8666 6.50852L71.6763 6.7358C71.5911 7.01042 71.4478 7.25189 71.2466 7.46023C71.0454 7.66619 70.7968 7.82718 70.5009 7.94318C70.2049 8.05682 69.8723 8.11364 69.503 8.11364ZM76.3029 2.54545V3.3267H73.7744V8H72.9364V2.54545H76.3029ZM78.2643 6.7642L80.8921 2.54545H81.858V8H81.02V3.78125L78.4063 8H77.4262V2.54545H78.2643V6.7642ZM85.5089 8.11364C84.9976 8.11364 84.5572 7.9929 84.1879 7.75142C83.8186 7.50994 83.5345 7.17732 83.3356 6.75355C83.1368 6.32978 83.0373 5.84564 83.0373 5.30114C83.0373 4.74716 83.1391 4.25829 83.3427 3.83452C83.5487 3.40838 83.8352 3.07576 84.2021 2.83665C84.5714 2.59517 85.0023 2.47443 85.4947 2.47443C85.8783 2.47443 86.2239 2.54545 86.5317 2.6875C86.8394 2.82955 87.0916 3.02841 87.2881 3.28409C87.4845 3.53977 87.6065 3.83807 87.6538 4.17898H86.8158C86.7518 3.9304 86.6098 3.71023 86.3896 3.51847C86.1718 3.32434 85.8783 3.22727 85.5089 3.22727C85.1822 3.22727 84.8958 3.3125 84.6496 3.48295C84.4057 3.65104 84.2151 3.88897 84.0778 4.19673C83.9429 4.50213 83.8754 4.8608 83.8754 5.27273C83.8754 5.69413 83.9417 6.06108 84.0743 6.37358C84.2092 6.68608 84.3986 6.92874 84.6425 7.10156C84.8887 7.27438 85.1775 7.3608 85.5089 7.3608C85.7267 7.3608 85.9244 7.32292 86.102 7.24716C86.2795 7.1714 86.4299 7.0625 86.553 6.92045C86.6761 6.77841 86.7637 6.60795 86.8158 6.40909H87.6538C87.6065 6.73106 87.4893 7.02107 87.3023 7.27912C87.1176 7.5348 86.8726 7.7384 86.5672 7.88991C86.2641 8.03906 85.9114 8.11364 85.5089 8.11364ZM88.3493 3.3267V2.54545H92.7811V3.3267H90.9913V8H90.1533V3.3267H88.3493ZM93.9036 10.0455V2.54545H94.7132V3.41193H94.8127C94.8742 3.31723 94.9594 3.1965 95.0683 3.04972C95.1796 2.90057 95.3382 2.76799 95.5442 2.65199C95.7525 2.53362 96.0342 2.47443 96.3894 2.47443C96.8486 2.47443 97.2535 2.58925 97.6039 2.81889C97.9542 3.04853 98.2277 3.37405 98.4242 3.79545C98.6207 4.21686 98.7189 4.71402 98.7189 5.28693C98.7189 5.86458 98.6207 6.36529 98.4242 6.78906C98.2277 7.21046 97.9554 7.53717 97.6074 7.76918C97.2594 7.99882 96.8581 8.11364 96.4036 8.11364C96.0532 8.11364 95.7726 8.05563 95.5619 7.93963C95.3512 7.82126 95.1891 7.6875 95.0754 7.53835C94.9618 7.38684 94.8742 7.26136 94.8127 7.16193H94.7416V10.0455H93.9036ZM94.7274 5.27273C94.7274 5.68466 94.7878 6.04806 94.9085 6.36293C95.0293 6.67543 95.2056 6.92045 95.4377 7.09801C95.6697 7.2732 95.9538 7.3608 96.2899 7.3608C96.6403 7.3608 96.9327 7.26847 97.1671 7.08381C97.4038 6.89678 97.5814 6.64583 97.6997 6.33097C97.8205 6.01373 97.8808 5.66098 97.8808 5.27273C97.8808 4.8892 97.8217 4.54356 97.7033 4.2358C97.5873 3.92566 97.4109 3.68063 97.1742 3.50071C96.9398 3.31842 96.645 3.22727 96.2899 3.22727C95.949 3.22727 95.6626 3.31368 95.4306 3.48651C95.1985 3.65696 95.0234 3.89607 94.905 4.20384C94.7866 4.50923 94.7274 4.86553 94.7274 5.27273ZM101.502 8.12784C101.157 8.12784 100.843 8.06274 100.561 7.93253C100.28 7.79995 100.056 7.60938 99.8902 7.3608C99.7245 7.10985 99.6416 6.80682 99.6416 6.4517C99.6416 6.1392 99.7032 5.88589 99.8263 5.69176C99.9494 5.49527 100.114 5.34138 100.32 5.23011C100.526 5.11884 100.753 5.03598 101.002 4.98153C101.253 4.92472 101.505 4.87973 101.758 4.84659C102.09 4.80398 102.358 4.77202 102.564 4.75071C102.773 4.72704 102.924 4.68797 103.019 4.63352C103.116 4.57907 103.164 4.48437 103.164 4.34943V4.32102C103.164 3.97064 103.068 3.69839 102.877 3.50426C102.687 3.31013 102.4 3.21307 102.014 3.21307C101.614 3.21307 101.3 3.30066 101.073 3.47585C100.845 3.65104 100.686 3.83807 100.593 4.03693L99.7979 3.75284C99.9399 3.4214 100.129 3.16335 100.366 2.97869C100.605 2.79167 100.866 2.66146 101.147 2.58807C101.431 2.51231 101.711 2.47443 101.985 2.47443C102.161 2.47443 102.362 2.49574 102.589 2.53835C102.819 2.5786 103.04 2.66264 103.253 2.79048C103.469 2.91832 103.647 3.11127 103.789 3.36932C103.931 3.62737 104.002 3.97301 104.002 4.40625V8H103.164V7.26136H103.122C103.065 7.37973 102.97 7.50639 102.838 7.64134C102.705 7.77628 102.529 7.8911 102.309 7.9858C102.088 8.08049 101.82 8.12784 101.502 8.12784ZM101.63 7.375C101.962 7.375 102.241 7.3099 102.468 7.17969C102.698 7.04948 102.871 6.88139 102.987 6.67543C103.105 6.46946 103.164 6.25284 103.164 6.02557V5.25852C103.129 5.30114 103.051 5.3402 102.93 5.37571C102.812 5.40885 102.674 5.43845 102.518 5.46449C102.364 5.48816 102.214 5.50947 102.067 5.52841C101.923 5.54498 101.805 5.55919 101.715 5.57102C101.498 5.59943 101.294 5.6456 101.105 5.70952C100.918 5.77107 100.766 5.86458 100.65 5.99006C100.537 6.11316 100.48 6.28125 100.48 6.49432C100.48 6.78551 100.587 7.00568 100.803 7.15483C101.021 7.30161 101.296 7.375 101.63 7.375ZM109.722 2.54545V7.21875H110.489V9.76136H109.651V8H105.432V2.54545H106.27V7.21875H108.884V2.54545H109.722ZM112.518 6.7642L115.146 2.54545H116.112V8H115.273V3.78125L112.66 8H111.68V2.54545H112.518V6.7642ZM118.385 6.7642L121.012 2.54545H121.978V8H121.14V3.78125L118.527 8H117.547V2.54545H118.385V6.7642ZM124.663 7.00568L124.607 7.3892C124.566 7.65909 124.505 7.94792 124.422 8.25568C124.341 8.56345 124.257 8.85346 124.17 9.12571C124.082 9.39796 124.01 9.61458 123.953 9.77557H123.314C123.345 9.62405 123.385 9.42401 123.435 9.17543C123.484 8.92685 123.534 8.64867 123.584 8.34091C123.636 8.03551 123.678 7.72301 123.712 7.40341L123.754 7.00568H124.663ZM131.541 8V2.54545H133.771C134.358 2.54545 134.825 2.67803 135.17 2.94318C135.516 3.20833 135.689 3.55871 135.689 3.99432C135.689 4.32576 135.591 4.58262 135.394 4.76491C135.198 4.94484 134.945 5.06676 134.638 5.13068C134.839 5.15909 135.034 5.23011 135.224 5.34375C135.415 5.45739 135.574 5.61364 135.699 5.8125C135.825 6.009 135.888 6.25047 135.888 6.53693C135.888 6.81629 135.817 7.06605 135.675 7.28622C135.533 7.50639 135.329 7.6804 135.064 7.80824C134.799 7.93608 134.481 8 134.112 8H131.541ZM132.337 7.23295H134.112C134.401 7.23295 134.627 7.1643 134.79 7.02699C134.954 6.88968 135.035 6.70265 135.035 6.46591C135.035 6.18419 134.954 5.96283 134.79 5.80185C134.627 5.63849 134.401 5.55682 134.112 5.55682H132.337V7.23295ZM132.337 4.83239H133.771C133.996 4.83239 134.189 4.80161 134.35 4.74006C134.511 4.67614 134.634 4.58617 134.719 4.47017C134.807 4.3518 134.851 4.21212 134.851 4.05114C134.851 3.8215 134.755 3.64157 134.563 3.51136C134.371 3.37879 134.107 3.3125 133.771 3.3125H132.337V4.83239ZM137.781 4.51989H139.343C139.982 4.51989 140.471 4.68205 140.81 5.00639C141.148 5.33073 141.318 5.74148 141.318 6.23864C141.318 6.56534 141.242 6.86245 141.09 7.12997C140.939 7.39512 140.716 7.60701 140.423 7.76562C140.129 7.92188 139.769 8 139.343 8H137.056V2.54545H137.894V7.21875H139.343C139.675 7.21875 139.947 7.13116 140.16 6.95597C140.373 6.78078 140.48 6.55587 140.48 6.28125C140.48 5.99242 140.373 5.75687 140.16 5.57457C139.947 5.39228 139.675 5.30114 139.343 5.30114H137.781V4.51989ZM142.184 8V2.54545H143.022V8H142.184ZM149.385 8.11364C148.873 8.11364 148.433 7.9929 148.064 7.75142C147.694 7.50994 147.41 7.17732 147.211 6.75355C147.013 6.32978 146.913 5.84564 146.913 5.30114C146.913 4.74716 147.015 4.25829 147.219 3.83452C147.424 3.40838 147.711 3.07576 148.078 2.83665C148.447 2.59517 148.878 2.47443 149.371 2.47443C149.754 2.47443 150.1 2.54545 150.407 2.6875C150.715 2.82955 150.967 3.02841 151.164 3.28409C151.36 3.53977 151.482 3.83807 151.53 4.17898H150.692C150.628 3.9304 150.486 3.71023 150.265 3.51847C150.048 3.32434 149.754 3.22727 149.385 3.22727C149.058 3.22727 148.772 3.3125 148.525 3.48295C148.281 3.65104 148.091 3.88897 147.954 4.19673C147.819 4.50213 147.751 4.8608 147.751 5.27273C147.751 5.69413 147.817 6.06108 147.95 6.37358C148.085 6.68608 148.274 6.92874 148.518 7.10156C148.764 7.27438 149.053 7.3608 149.385 7.3608C149.603 7.3608 149.8 7.32292 149.978 7.24716C150.155 7.1714 150.306 7.0625 150.429 6.92045C150.552 6.77841 150.639 6.60795 150.692 6.40909H151.53C151.482 6.73106 151.365 7.02107 151.178 7.27912C150.993 7.5348 150.748 7.7384 150.443 7.88991C150.14 8.03906 149.787 8.11364 149.385 8.11364ZM154.871 8.11364C154.378 8.11364 153.946 7.99645 153.574 7.76207C153.205 7.5277 152.916 7.19981 152.708 6.77841C152.502 6.35701 152.399 5.86458 152.399 5.30114C152.399 4.73295 152.502 4.23698 152.708 3.81321C152.916 3.38944 153.205 3.06037 153.574 2.82599C153.946 2.59162 154.378 2.47443 154.871 2.47443C155.363 2.47443 155.794 2.59162 156.163 2.82599C156.535 3.06037 156.824 3.38944 157.03 3.81321C157.238 4.23698 157.342 4.73295 157.342 5.30114C157.342 5.86458 157.238 6.35701 157.03 6.77841C156.824 7.19981 156.535 7.5277 156.163 7.76207C155.794 7.99645 155.363 8.11364 154.871 8.11364ZM154.871 7.3608C155.245 7.3608 155.552 7.26491 155.794 7.07315C156.035 6.88139 156.214 6.62926 156.33 6.31676C156.446 6.00426 156.504 5.66572 156.504 5.30114C156.504 4.93655 156.446 4.59683 156.33 4.28196C156.214 3.96709 156.035 3.71259 155.794 3.51847C155.552 3.32434 155.245 3.22727 154.871 3.22727C154.497 3.22727 154.189 3.32434 153.947 3.51847C153.706 3.71259 153.527 3.96709 153.411 4.28196C153.295 4.59683 153.237 4.93655 153.237 5.30114C153.237 5.66572 153.295 6.00426 153.411 6.31676C153.527 6.62926 153.706 6.88139 153.947 7.07315C154.189 7.26491 154.497 7.3608 154.871 7.3608ZM161.888 2.54545V3.3267H159.36V8H158.522V2.54545H161.888ZM162.069 8V7.21875H162.268C162.432 7.21875 162.568 7.18679 162.677 7.12287C162.786 7.05658 162.873 6.94176 162.939 6.77841C163.008 6.61269 163.06 6.38305 163.096 6.08949C163.134 5.79356 163.161 5.41714 163.177 4.96023L163.277 2.54545H166.913V8H166.075V3.3267H164.072L163.987 5.27273C163.968 5.72017 163.928 6.11435 163.866 6.45526C163.807 6.7938 163.716 7.07789 163.593 7.30753C163.472 7.53717 163.311 7.70999 163.11 7.82599C162.909 7.942 162.657 8 162.354 8H162.069ZM169.956 8.12784C169.61 8.12784 169.297 8.06274 169.015 7.93253C168.733 7.79995 168.509 7.60938 168.344 7.3608C168.178 7.10985 168.095 6.80682 168.095 6.4517C168.095 6.1392 168.157 5.88589 168.28 5.69176C168.403 5.49527 168.567 5.34138 168.773 5.23011C168.979 5.11884 169.207 5.03598 169.455 4.98153C169.706 4.92472 169.958 4.87973 170.212 4.84659C170.543 4.80398 170.812 4.77202 171.018 4.75071C171.226 4.72704 171.378 4.68797 171.472 4.63352C171.569 4.57907 171.618 4.48437 171.618 4.34943V4.32102C171.618 3.97064 171.522 3.69839 171.33 3.50426C171.141 3.31013 170.853 3.21307 170.467 3.21307C170.067 3.21307 169.754 3.30066 169.526 3.47585C169.299 3.65104 169.139 3.83807 169.047 4.03693L168.251 3.75284C168.393 3.4214 168.583 3.16335 168.82 2.97869C169.059 2.79167 169.319 2.66146 169.601 2.58807C169.885 2.51231 170.164 2.47443 170.439 2.47443C170.614 2.47443 170.815 2.49574 171.043 2.53835C171.272 2.5786 171.494 2.66264 171.707 2.79048C171.922 2.91832 172.101 3.11127 172.243 3.36932C172.385 3.62737 172.456 3.97301 172.456 4.40625V8H171.618V7.26136H171.575C171.518 7.37973 171.424 7.50639 171.291 7.64134C171.159 7.77628 170.982 7.8911 170.762 7.9858C170.542 8.08049 170.273 8.12784 169.956 8.12784ZM170.084 7.375C170.415 7.375 170.695 7.3099 170.922 7.17969C171.151 7.04948 171.324 6.88139 171.44 6.67543C171.559 6.46946 171.618 6.25284 171.618 6.02557V5.25852C171.582 5.30114 171.504 5.3402 171.384 5.37571C171.265 5.40885 171.128 5.43845 170.972 5.46449C170.818 5.48816 170.667 5.50947 170.521 5.52841C170.376 5.54498 170.259 5.55919 170.169 5.57102C169.951 5.59943 169.748 5.6456 169.558 5.70952C169.371 5.77107 169.22 5.86458 169.104 5.99006C168.99 6.11316 168.933 6.28125 168.933 6.49432C168.933 6.78551 169.041 7.00568 169.256 7.15483C169.474 7.30161 169.75 7.375 170.084 7.375ZM173.886 2.54545H174.724V7.21875H176.783V2.54545H177.621V7.21875H179.681V2.54545H180.519V8H173.886V2.54545ZM183.555 8.12784C183.209 8.12784 182.895 8.06274 182.614 7.93253C182.332 7.79995 182.108 7.60938 181.943 7.3608C181.777 7.10985 181.694 6.80682 181.694 6.4517C181.694 6.1392 181.756 5.88589 181.879 5.69176C182.002 5.49527 182.166 5.34138 182.372 5.23011C182.578 5.11884 182.805 5.03598 183.054 4.98153C183.305 4.92472 183.557 4.87973 183.81 4.84659C184.142 4.80398 184.411 4.77202 184.617 4.75071C184.825 4.72704 184.976 4.68797 185.071 4.63352C185.168 4.57907 185.217 4.48437 185.217 4.34943V4.32102C185.217 3.97064 185.121 3.69839 184.929 3.50426C184.74 3.31013 184.452 3.21307 184.066 3.21307C183.666 3.21307 183.352 3.30066 183.125 3.47585C182.898 3.65104 182.738 3.83807 182.646 4.03693L181.85 3.75284C181.992 3.4214 182.182 3.16335 182.418 2.97869C182.658 2.79167 182.918 2.66146 183.2 2.58807C183.484 2.51231 183.763 2.47443 184.038 2.47443C184.213 2.47443 184.414 2.49574 184.641 2.53835C184.871 2.5786 185.092 2.66264 185.305 2.79048C185.521 2.91832 185.7 3.11127 185.842 3.36932C185.984 3.62737 186.055 3.97301 186.055 4.40625V8H185.217V7.26136H185.174C185.117 7.37973 185.023 7.50639 184.89 7.64134C184.757 7.77628 184.581 7.8911 184.361 7.9858C184.141 8.08049 183.872 8.12784 183.555 8.12784ZM183.683 7.375C184.014 7.375 184.293 7.3099 184.521 7.17969C184.75 7.04948 184.923 6.88139 185.039 6.67543C185.158 6.46946 185.217 6.25284 185.217 6.02557V5.25852C185.181 5.30114 185.103 5.3402 184.982 5.37571C184.864 5.40885 184.727 5.43845 184.57 5.46449C184.417 5.48816 184.266 5.50947 184.119 5.52841C183.975 5.54498 183.858 5.55919 183.768 5.57102C183.55 5.59943 183.346 5.6456 183.157 5.70952C182.97 5.77107 182.819 5.86458 182.703 5.99006C182.589 6.11316 182.532 6.28125 182.532 6.49432C182.532 6.78551 182.64 7.00568 182.855 7.15483C183.073 7.30161 183.349 7.375 183.683 7.375ZM189.771 8.11364C189.246 8.11364 188.792 7.99763 188.411 7.76562C188.032 7.53125 187.74 7.20455 187.534 6.78551C187.331 6.36411 187.229 5.87405 187.229 5.31534C187.229 4.75663 187.331 4.2642 187.534 3.83807C187.74 3.40956 188.027 3.07576 188.394 2.83665C188.763 2.59517 189.194 2.47443 189.686 2.47443C189.97 2.47443 190.251 2.52178 190.528 2.61648C190.805 2.71117 191.057 2.86506 191.284 3.07812C191.511 3.28883 191.693 3.56818 191.827 3.91619C191.962 4.2642 192.03 4.69271 192.03 5.2017V5.55682H187.825V4.83239H191.178C191.178 4.52462 191.116 4.25 190.993 4.00852C190.872 3.76705 190.699 3.57647 190.474 3.43679C190.252 3.29711 189.989 3.22727 189.686 3.22727C189.352 3.22727 189.063 3.31013 188.82 3.47585C188.578 3.6392 188.392 3.85227 188.262 4.11506C188.132 4.37784 188.067 4.65956 188.067 4.96023V5.44318C188.067 5.85511 188.138 6.20431 188.28 6.49077C188.424 6.77486 188.624 6.99148 188.88 7.14062C189.136 7.28741 189.433 7.3608 189.771 7.3608C189.992 7.3608 190.19 7.33002 190.368 7.26847C190.548 7.20455 190.703 7.10985 190.833 6.98438C190.963 6.85653 191.064 6.69792 191.135 6.50852L191.945 6.7358C191.859 7.01042 191.716 7.25189 191.515 7.46023C191.314 7.66619 191.065 7.82718 190.769 7.94318C190.473 8.05682 190.141 8.11364 189.771 8.11364ZM192.697 3.3267V2.54545H197.129V3.3267H195.339V8H194.501V3.3267H192.697ZM200.255 8.11364C199.729 8.11364 199.276 7.99763 198.895 7.76562C198.516 7.53125 198.224 7.20455 198.018 6.78551C197.814 6.36411 197.712 5.87405 197.712 5.31534C197.712 4.75663 197.814 4.2642 198.018 3.83807C198.224 3.40956 198.51 3.07576 198.877 2.83665C199.246 2.59517 199.677 2.47443 200.17 2.47443C200.454 2.47443 200.734 2.52178 201.011 2.61648C201.288 2.71117 201.54 2.86506 201.768 3.07812C201.995 3.28883 202.176 3.56818 202.311 3.91619C202.446 4.2642 202.513 4.69271 202.513 5.2017V5.55682H198.309V4.83239H201.661C201.661 4.52462 201.6 4.25 201.477 4.00852C201.356 3.76705 201.183 3.57647 200.958 3.43679C200.736 3.29711 200.473 3.22727 200.17 3.22727C199.836 3.22727 199.547 3.31013 199.303 3.47585C199.062 3.6392 198.876 3.85227 198.746 4.11506C198.616 4.37784 198.55 4.65956 198.55 4.96023V5.44318C198.55 5.85511 198.621 6.20431 198.763 6.49077C198.908 6.77486 199.108 6.99148 199.364 7.14062C199.619 7.28741 199.916 7.3608 200.255 7.3608C200.475 7.3608 200.674 7.33002 200.852 7.26847C201.031 7.20455 201.187 7.10985 201.317 6.98438C201.447 6.85653 201.548 6.69792 201.619 6.50852L202.428 6.7358C202.343 7.01042 202.2 7.25189 201.999 7.46023C201.797 7.66619 201.549 7.82718 201.253 7.94318C200.957 8.05682 200.624 8.11364 200.255 8.11364ZM205.904 8.11364C205.393 8.11364 204.953 7.9929 204.583 7.75142C204.214 7.50994 203.93 7.17732 203.731 6.75355C203.532 6.32978 203.433 5.84564 203.433 5.30114C203.433 4.74716 203.534 4.25829 203.738 3.83452C203.944 3.40838 204.23 3.07576 204.597 2.83665C204.967 2.59517 205.398 2.47443 205.89 2.47443C206.274 2.47443 206.619 2.54545 206.927 2.6875C207.235 2.82955 207.487 3.02841 207.683 3.28409C207.88 3.53977 208.002 3.83807 208.049 4.17898H207.211C207.147 3.9304 207.005 3.71023 206.785 3.51847C206.567 3.32434 206.274 3.22727 205.904 3.22727C205.578 3.22727 205.291 3.3125 205.045 3.48295C204.801 3.65104 204.61 3.88897 204.473 4.19673C204.338 4.50213 204.271 4.8608 204.271 5.27273C204.271 5.69413 204.337 6.06108 204.47 6.37358C204.605 6.68608 204.794 6.92874 205.038 7.10156C205.284 7.27438 205.573 7.3608 205.904 7.3608C206.122 7.3608 206.32 7.32292 206.497 7.24716C206.675 7.1714 206.825 7.0625 206.948 6.92045C207.071 6.77841 207.159 6.60795 207.211 6.40909H208.049C208.002 6.73106 207.885 7.02107 207.698 7.27912C207.513 7.5348 207.268 7.7384 206.962 7.88991C206.659 8.03906 206.307 8.11364 205.904 8.11364ZM209.899 4.51989H211.461C212.1 4.51989 212.589 4.68205 212.928 5.00639C213.266 5.33073 213.436 5.74148 213.436 6.23864C213.436 6.56534 213.36 6.86245 213.208 7.12997C213.057 7.39512 212.834 7.60701 212.541 7.76562C212.247 7.92188 211.887 8 211.461 8H209.174V2.54545H210.012V7.21875H211.461C211.793 7.21875 212.065 7.13116 212.278 6.95597C212.491 6.78078 212.598 6.55587 212.598 6.28125C212.598 5.99242 212.491 5.75687 212.278 5.57457C212.065 5.39228 211.793 5.30114 211.461 5.30114H209.899V4.51989ZM219.54 8.11364C219.028 8.11364 218.588 7.9929 218.219 7.75142C217.849 7.50994 217.565 7.17732 217.366 6.75355C217.168 6.32978 217.068 5.84564 217.068 5.30114C217.068 4.74716 217.17 4.25829 217.374 3.83452C217.58 3.40838 217.866 3.07576 218.233 2.83665C218.602 2.59517 219.033 2.47443 219.526 2.47443C219.909 2.47443 220.255 2.54545 220.563 2.6875C220.87 2.82955 221.122 3.02841 221.319 3.28409C221.515 3.53977 221.637 3.83807 221.685 4.17898H220.847C220.783 3.9304 220.641 3.71023 220.42 3.51847C220.203 3.32434 219.909 3.22727 219.54 3.22727C219.213 3.22727 218.927 3.3125 218.68 3.48295C218.437 3.65104 218.246 3.88897 218.109 4.19673C217.974 4.50213 217.906 4.8608 217.906 5.27273C217.906 5.69413 217.973 6.06108 218.105 6.37358C218.24 6.68608 218.429 6.92874 218.673 7.10156C218.92 7.27438 219.208 7.3608 219.54 7.3608C219.758 7.3608 219.955 7.32292 220.133 7.24716C220.31 7.1714 220.461 7.0625 220.584 6.92045C220.707 6.77841 220.795 6.60795 220.847 6.40909H221.685C221.637 6.73106 221.52 7.02107 221.333 7.27912C221.148 7.5348 220.903 7.7384 220.598 7.88991C220.295 8.03906 219.942 8.11364 219.54 8.11364ZM254.301 19.0057L254.244 19.3892C254.204 19.6591 254.142 19.9479 254.059 20.2557C253.979 20.5634 253.895 20.8535 253.807 21.1257C253.719 21.398 253.647 21.6146 253.59 21.7756H252.951C252.982 21.6241 253.022 21.424 253.072 21.1754C253.122 20.9268 253.171 20.6487 253.221 20.3409C253.273 20.0355 253.316 19.723 253.349 19.4034L253.392 19.0057H254.301ZM260.071 20.1278C259.725 20.1278 259.412 20.0627 259.13 19.9325C258.848 19.8 258.625 19.6094 258.459 19.3608C258.293 19.1098 258.21 18.8068 258.21 18.4517C258.21 18.1392 258.272 17.8859 258.395 17.6918C258.518 17.4953 258.683 17.3414 258.888 17.2301C259.094 17.1188 259.322 17.036 259.57 16.9815C259.821 16.9247 260.073 16.8797 260.327 16.8466C260.658 16.804 260.927 16.772 261.133 16.7507C261.341 16.727 261.493 16.688 261.587 16.6335C261.684 16.5791 261.733 16.4844 261.733 16.3494V16.321C261.733 15.9706 261.637 15.6984 261.445 15.5043C261.256 15.3101 260.968 15.2131 260.582 15.2131C260.182 15.2131 259.869 15.3007 259.641 15.4759C259.414 15.651 259.254 15.8381 259.162 16.0369L258.366 15.7528C258.509 15.4214 258.698 15.1634 258.935 14.9787C259.174 14.7917 259.434 14.6615 259.716 14.5881C260 14.5123 260.279 14.4744 260.554 14.4744C260.729 14.4744 260.93 14.4957 261.158 14.5384C261.387 14.5786 261.609 14.6626 261.822 14.7905C262.037 14.9183 262.216 15.1113 262.358 15.3693C262.5 15.6274 262.571 15.973 262.571 16.4062V20H261.733V19.2614H261.69C261.634 19.3797 261.539 19.5064 261.406 19.6413C261.274 19.7763 261.097 19.8911 260.877 19.9858C260.657 20.0805 260.388 20.1278 260.071 20.1278ZM260.199 19.375C260.53 19.375 260.81 19.3099 261.037 19.1797C261.267 19.0495 261.439 18.8814 261.555 18.6754C261.674 18.4695 261.733 18.2528 261.733 18.0256V17.2585C261.697 17.3011 261.619 17.3402 261.499 17.3757C261.38 17.4089 261.243 17.4384 261.087 17.4645C260.933 17.4882 260.782 17.5095 260.636 17.5284C260.491 17.545 260.374 17.5592 260.284 17.571C260.066 17.5994 259.863 17.6456 259.673 17.7095C259.486 17.7711 259.335 17.8646 259.219 17.9901C259.105 18.1132 259.048 18.2812 259.048 18.4943C259.048 18.7855 259.156 19.0057 259.371 19.1548C259.589 19.3016 259.865 19.375 260.199 19.375ZM266.401 15.3267V14.5455H270.832V15.3267H269.043V20H268.205V15.3267H266.401ZM273.277 20.1278C272.931 20.1278 272.618 20.0627 272.336 19.9325C272.054 19.8 271.83 19.6094 271.665 19.3608C271.499 19.1098 271.416 18.8068 271.416 18.4517C271.416 18.1392 271.478 17.8859 271.601 17.6918C271.724 17.4953 271.888 17.3414 272.094 17.2301C272.3 17.1188 272.528 17.036 272.776 16.9815C273.027 16.9247 273.279 16.8797 273.533 16.8466C273.864 16.804 274.133 16.772 274.339 16.7507C274.547 16.727 274.698 16.688 274.793 16.6335C274.89 16.5791 274.939 16.4844 274.939 16.3494V16.321C274.939 15.9706 274.843 15.6984 274.651 15.5043C274.462 15.3101 274.174 15.2131 273.788 15.2131C273.388 15.2131 273.074 15.3007 272.847 15.4759C272.62 15.651 272.46 15.8381 272.368 16.0369L271.572 15.7528C271.714 15.4214 271.904 15.1634 272.14 14.9787C272.38 14.7917 272.64 14.6615 272.922 14.5881C273.206 14.5123 273.485 14.4744 273.76 14.4744C273.935 14.4744 274.136 14.4957 274.364 14.5384C274.593 14.5786 274.814 14.6626 275.028 14.7905C275.243 14.9183 275.422 15.1113 275.564 15.3693C275.706 15.6274 275.777 15.973 275.777 16.4062V20H274.939V19.2614H274.896C274.839 19.3797 274.745 19.5064 274.612 19.6413C274.48 19.7763 274.303 19.8911 274.083 19.9858C273.863 20.0805 273.594 20.1278 273.277 20.1278ZM273.405 19.375C273.736 19.375 274.015 19.3099 274.243 19.1797C274.472 19.0495 274.645 18.8814 274.761 18.6754C274.88 18.4695 274.939 18.2528 274.939 18.0256V17.2585C274.903 17.3011 274.825 17.3402 274.704 17.3757C274.586 17.4089 274.449 17.4384 274.292 17.4645C274.139 17.4882 273.988 17.5095 273.841 17.5284C273.697 17.545 273.58 17.5592 273.49 17.571C273.272 17.5994 273.069 17.6456 272.879 17.7095C272.692 17.7711 272.541 17.8646 272.425 17.9901C272.311 18.1132 272.254 18.2812 272.254 18.4943C272.254 18.7855 272.362 19.0057 272.577 19.1548C272.795 19.3016 273.071 19.375 273.405 19.375ZM277.206 20V14.5455H278.045V16.9176H278.599L280.559 14.5455H281.638L279.437 17.1733L281.667 20H280.587L278.797 17.6989H278.045V20H277.206ZM282.137 20L284.353 17.2301L282.165 14.5455H283.159L284.978 16.875H285.432V14.5455H286.27V16.875H286.711L288.529 14.5455H289.523L287.35 17.2301L289.551 20H288.543L286.696 17.6562H286.27V20H285.432V17.6562H285.006L283.145 20H282.137ZM292.711 20.1136C292.186 20.1136 291.732 19.9976 291.351 19.7656C290.973 19.5312 290.68 19.2045 290.474 18.7855C290.271 18.3641 290.169 17.8741 290.169 17.3153C290.169 16.7566 290.271 16.2642 290.474 15.8381C290.68 15.4096 290.967 15.0758 291.334 14.8366C291.703 14.5952 292.134 14.4744 292.626 14.4744C292.91 14.4744 293.191 14.5218 293.468 14.6165C293.745 14.7112 293.997 14.8651 294.224 15.0781C294.451 15.2888 294.633 15.5682 294.767 15.9162C294.902 16.2642 294.97 16.6927 294.97 17.2017V17.5568H290.765V16.8324H294.118C294.118 16.5246 294.056 16.25 293.933 16.0085C293.812 15.767 293.639 15.5765 293.415 15.4368C293.192 15.2971 292.929 15.2273 292.626 15.2273C292.292 15.2273 292.004 15.3101 291.76 15.4759C291.518 15.6392 291.332 15.8523 291.202 16.1151C291.072 16.3778 291.007 16.6596 291.007 16.9602V17.4432C291.007 17.8551 291.078 18.2043 291.22 18.4908C291.364 18.7749 291.564 18.9915 291.82 19.1406C292.076 19.2874 292.373 19.3608 292.711 19.3608C292.932 19.3608 293.13 19.33 293.308 19.2685C293.488 19.2045 293.643 19.1098 293.773 18.9844C293.903 18.8565 294.004 18.6979 294.075 18.5085L294.885 18.7358C294.799 19.0104 294.656 19.2519 294.455 19.4602C294.254 19.6662 294.005 19.8272 293.709 19.9432C293.413 20.0568 293.081 20.1136 292.711 20.1136ZM60.6717 32V26.5455H64.9615V32H64.1234V27.3267H61.5098V32H60.6717ZM68.608 32.1136C68.1155 32.1136 67.6835 31.9964 67.3118 31.7621C66.9425 31.5277 66.6536 31.1998 66.4453 30.7784C66.2393 30.357 66.1364 29.8646 66.1364 29.3011C66.1364 28.733 66.2393 28.237 66.4453 27.8132C66.6536 27.3894 66.9425 27.0604 67.3118 26.826C67.6835 26.5916 68.1155 26.4744 68.608 26.4744C69.1004 26.4744 69.5313 26.5916 69.9006 26.826C70.2723 27.0604 70.5611 27.3894 70.767 27.8132C70.9754 28.237 71.0795 28.733 71.0795 29.3011C71.0795 29.8646 70.9754 30.357 70.767 30.7784C70.5611 31.1998 70.2723 31.5277 69.9006 31.7621C69.5313 31.9964 69.1004 32.1136 68.608 32.1136ZM68.608 31.3608C68.982 31.3608 69.2898 31.2649 69.5312 31.0732C69.7727 30.8814 69.9515 30.6293 70.0675 30.3168C70.1835 30.0043 70.2415 29.6657 70.2415 29.3011C70.2415 28.9366 70.1835 28.5968 70.0675 28.282C69.9515 27.9671 69.7727 27.7126 69.5312 27.5185C69.2898 27.3243 68.982 27.2273 68.608 27.2273C68.2339 27.2273 67.9261 27.3243 67.6847 27.5185C67.4432 27.7126 67.2644 27.9671 67.1484 28.282C67.0324 28.5968 66.9744 28.9366 66.9744 29.3011C66.9744 29.6657 67.0324 30.0043 67.1484 30.3168C67.2644 30.6293 67.4432 30.8814 67.6847 31.0732C67.9261 31.2649 68.2339 31.3608 68.608 31.3608ZM71.6765 33.5625V31.2188H72.131C72.2423 31.1027 72.3382 30.9773 72.4186 30.8423C72.4991 30.7074 72.569 30.5476 72.6282 30.3629C72.6897 30.1759 72.7418 29.9486 72.7844 29.6811C72.827 29.4112 72.8649 29.0857 72.898 28.7045L73.0827 26.5455H76.5486V31.2188H77.3867V33.5625H76.5486V32H72.5145V33.5625H71.6765ZM73.0827 31.2188H75.7105V27.3267H73.864L73.7219 28.7045C73.6627 29.2751 73.5893 29.7734 73.5017 30.1996C73.4141 30.6257 73.2745 30.9654 73.0827 31.2188ZM78.0866 27.3267V26.5455H82.5184V27.3267H80.7286V32H79.8906V27.3267H78.0866ZM83.6409 32V26.5455H85.871C86.4581 26.5455 86.9245 26.678 87.2701 26.9432C87.6158 27.2083 87.7886 27.5587 87.7886 27.9943C87.7886 28.3258 87.6903 28.5826 87.4939 28.7649C87.2974 28.9448 87.0452 29.0668 86.7375 29.1307C86.9387 29.1591 87.134 29.2301 87.3234 29.3438C87.5152 29.4574 87.6738 29.6136 87.7993 29.8125C87.9247 30.009 87.9875 30.2505 87.9875 30.5369C87.9875 30.8163 87.9164 31.0661 87.7744 31.2862C87.6323 31.5064 87.4287 31.6804 87.1636 31.8082C86.8984 31.9361 86.5812 32 86.2119 32H83.6409ZM84.4363 31.233H86.2119C86.5007 31.233 86.7268 31.1643 86.8902 31.027C87.0535 30.8897 87.1352 30.7027 87.1352 30.4659C87.1352 30.1842 87.0535 29.9628 86.8902 29.8018C86.7268 29.6385 86.5007 29.5568 86.2119 29.5568H84.4363V31.233ZM84.4363 28.8324H85.871C86.0959 28.8324 86.2888 28.8016 86.4498 28.7401C86.6108 28.6761 86.7339 28.5862 86.8191 28.4702C86.9067 28.3518 86.9505 28.2121 86.9505 28.0511C86.9505 27.8215 86.8546 27.6416 86.6629 27.5114C86.4711 27.3788 86.2072 27.3125 85.871 27.3125H84.4363V28.8324ZM91.443 32.1136C90.9175 32.1136 90.4641 31.9976 90.083 31.7656C89.7042 31.5312 89.4118 31.2045 89.2058 30.7855C89.0022 30.3641 88.9004 29.8741 88.9004 29.3153C88.9004 28.7566 89.0022 28.2642 89.2058 27.8381C89.4118 27.4096 89.6982 27.0758 90.0652 26.8366C90.4345 26.5952 90.8654 26.4744 91.3578 26.4744C91.6419 26.4744 91.9224 26.5218 92.1994 26.6165C92.4764 26.7112 92.7285 26.8651 92.9558 27.0781C93.1831 27.2888 93.3642 27.5682 93.4991 27.9162C93.6341 28.2642 93.7016 28.6927 93.7016 29.2017V29.5568H89.497V28.8324H92.8493C92.8493 28.5246 92.7877 28.25 92.6646 28.0085C92.5439 27.767 92.3711 27.5765 92.1462 27.4368C91.9236 27.2971 91.6608 27.2273 91.3578 27.2273C91.024 27.2273 90.7352 27.3101 90.4913 27.4759C90.2499 27.6392 90.064 27.8523 89.9338 28.1151C89.8036 28.3778 89.7385 28.6596 89.7385 28.9602V29.4432C89.7385 29.8551 89.8095 30.2043 89.9516 30.4908C90.096 30.7749 90.296 30.9915 90.5517 31.1406C90.8074 31.2874 91.1045 31.3608 91.443 31.3608C91.6632 31.3608 91.8621 31.33 92.0396 31.2685C92.2196 31.2045 92.3746 31.1098 92.5048 30.9844C92.635 30.8565 92.7357 30.6979 92.8067 30.5085L93.6163 30.7358C93.5311 31.0104 93.3879 31.2519 93.1866 31.4602C92.9854 31.6662 92.7368 31.8272 92.4409 31.9432C92.145 32.0568 91.8124 32.1136 91.443 32.1136ZM94.8764 34.0455V26.5455H95.6861V27.4119H95.7855C95.8471 27.3172 95.9323 27.1965 96.0412 27.0497C96.1525 26.9006 96.3111 26.768 96.517 26.652C96.7254 26.5336 97.0071 26.4744 97.3622 26.4744C97.8215 26.4744 98.2263 26.5893 98.5767 26.8189C98.9271 27.0485 99.2005 27.3741 99.397 27.7955C99.5935 28.2169 99.6918 28.714 99.6918 29.2869C99.6918 29.8646 99.5935 30.3653 99.397 30.7891C99.2005 31.2105 98.9283 31.5372 98.5803 31.7692C98.2322 31.9988 97.831 32.1136 97.3764 32.1136C97.026 32.1136 96.7455 32.0556 96.5348 31.9396C96.3241 31.8213 96.1619 31.6875 96.0483 31.5384C95.9347 31.3868 95.8471 31.2614 95.7855 31.1619H95.7145V34.0455H94.8764ZM95.7003 29.2727C95.7003 29.6847 95.7607 30.0481 95.8814 30.3629C96.0021 30.6754 96.1785 30.9205 96.4105 31.098C96.6425 31.2732 96.9266 31.3608 97.2628 31.3608C97.6132 31.3608 97.9055 31.2685 98.1399 31.0838C98.3767 30.8968 98.5542 30.6458 98.6726 30.331C98.7933 30.0137 98.8537 29.661 98.8537 29.2727C98.8537 28.8892 98.7945 28.5436 98.6761 28.2358C98.5601 27.9257 98.3838 27.6806 98.147 27.5007C97.9126 27.3184 97.6179 27.2273 97.2628 27.2273C96.9219 27.2273 96.6354 27.3137 96.4034 27.4865C96.1714 27.657 95.9962 27.8961 95.8778 28.2038C95.7595 28.5092 95.7003 28.8655 95.7003 29.2727ZM100.305 32L102.521 29.2301L100.333 26.5455H101.327L103.146 28.875H103.6V26.5455H104.438V28.875H104.879L106.697 26.5455H107.691L105.518 29.2301L107.719 32H106.711L104.864 29.6562H104.438V32H103.6V29.6562H103.174L101.313 32H100.305ZM108.235 33.5625V31.2188H108.689C108.8 31.1027 108.896 30.9773 108.977 30.8423C109.057 30.7074 109.127 30.5476 109.186 30.3629C109.248 30.1759 109.3 29.9486 109.343 29.6811C109.385 29.4112 109.423 29.0857 109.456 28.7045L109.641 26.5455H113.107V31.2188H113.945V33.5625H113.107V32H109.073V33.5625H108.235ZM109.641 31.2188H112.269V27.3267H110.422L110.28 28.7045C110.221 29.2751 110.148 29.7734 110.06 30.1996C109.972 30.6257 109.833 30.9654 109.641 31.2188ZM116.562 32.1278C116.217 32.1278 115.903 32.0627 115.621 31.9325C115.34 31.8 115.116 31.6094 114.95 31.3608C114.784 31.1098 114.702 30.8068 114.702 30.4517C114.702 30.1392 114.763 29.8859 114.886 29.6918C115.009 29.4953 115.174 29.3414 115.38 29.2301C115.586 29.1188 115.813 29.036 116.062 28.9815C116.313 28.9247 116.565 28.8797 116.818 28.8466C117.15 28.804 117.418 28.772 117.624 28.7507C117.833 28.727 117.984 28.688 118.079 28.6335C118.176 28.5791 118.224 28.4844 118.224 28.3494V28.321C118.224 27.9706 118.128 27.6984 117.937 27.5043C117.747 27.3101 117.46 27.2131 117.074 27.2131C116.674 27.2131 116.36 27.3007 116.133 27.4759C115.905 27.651 115.746 27.8381 115.653 28.0369L114.858 27.7528C115 27.4214 115.189 27.1634 115.426 26.9787C115.665 26.7917 115.926 26.6615 116.207 26.5881C116.491 26.5123 116.771 26.4744 117.045 26.4744C117.221 26.4744 117.422 26.4957 117.649 26.5384C117.879 26.5786 118.1 26.6626 118.313 26.7905C118.529 26.9183 118.707 27.1113 118.849 27.3693C118.991 27.6274 119.062 27.973 119.062 28.4062V32H118.224V31.2614H118.182C118.125 31.3797 118.03 31.5064 117.898 31.6413C117.765 31.7763 117.589 31.8911 117.368 31.9858C117.148 32.0805 116.88 32.1278 116.562 32.1278ZM116.69 31.375C117.022 31.375 117.301 31.3099 117.528 31.1797C117.758 31.0495 117.931 30.8814 118.047 30.6754C118.165 30.4695 118.224 30.2528 118.224 30.0256V29.2585C118.189 29.3011 118.111 29.3402 117.99 29.3757C117.872 29.4089 117.734 29.4384 117.578 29.4645C117.424 29.4882 117.274 29.5095 117.127 29.5284C116.983 29.545 116.865 29.5592 116.775 29.571C116.558 29.5994 116.354 29.6456 116.165 29.7095C115.978 29.7711 115.826 29.8646 115.71 29.9901C115.596 30.1132 115.54 30.2812 115.54 30.4943C115.54 30.7855 115.647 31.0057 115.863 31.1548C116.081 31.3016 116.356 31.375 116.69 31.375ZM122.779 32.1136C122.253 32.1136 121.8 31.9976 121.419 31.7656C121.04 31.5312 120.748 31.2045 120.542 30.7855C120.338 30.3641 120.236 29.8741 120.236 29.3153C120.236 28.7566 120.338 28.2642 120.542 27.8381C120.748 27.4096 121.034 27.0758 121.401 26.8366C121.77 26.5952 122.201 26.4744 122.694 26.4744C122.978 26.4744 123.258 26.5218 123.535 26.6165C123.812 26.7112 124.064 26.8651 124.292 27.0781C124.519 27.2888 124.7 27.5682 124.835 27.9162C124.97 28.2642 125.038 28.6927 125.038 29.2017V29.5568H120.833V28.8324H124.185C124.185 28.5246 124.124 28.25 124.001 28.0085C123.88 27.767 123.707 27.5765 123.482 27.4368C123.26 27.2971 122.997 27.2273 122.694 27.2273C122.36 27.2273 122.071 27.3101 121.827 27.4759C121.586 27.6392 121.4 27.8523 121.27 28.1151C121.14 28.3778 121.074 28.6596 121.074 28.9602V29.4432C121.074 29.8551 121.145 30.2043 121.288 30.4908C121.432 30.7749 121.632 30.9915 121.888 31.1406C122.143 31.2874 122.44 31.3608 122.779 31.3608C122.999 31.3608 123.198 31.33 123.376 31.2685C123.555 31.2045 123.711 31.1098 123.841 30.9844C123.971 30.8565 124.072 30.6979 124.143 30.5085L124.952 30.7358C124.867 31.0104 124.724 31.2519 124.523 31.4602C124.321 31.6662 124.073 31.8272 123.777 31.9432C123.481 32.0568 123.148 32.1136 122.779 32.1136ZM125.705 27.3267V26.5455H130.136V27.3267H128.347V32H127.509V27.3267H125.705ZM133.263 32.1136C132.737 32.1136 132.284 31.9976 131.902 31.7656C131.524 31.5312 131.231 31.2045 131.025 30.7855C130.822 30.3641 130.72 29.8741 130.72 29.3153C130.72 28.7566 130.822 28.2642 131.025 27.8381C131.231 27.4096 131.518 27.0758 131.885 26.8366C132.254 26.5952 132.685 26.4744 133.177 26.4744C133.461 26.4744 133.742 26.5218 134.019 26.6165C134.296 26.7112 134.548 26.8651 134.775 27.0781C135.003 27.2888 135.184 27.5682 135.319 27.9162C135.454 28.2642 135.521 28.6927 135.521 29.2017V29.5568H131.317V28.8324H134.669C134.669 28.5246 134.607 28.25 134.484 28.0085C134.363 27.767 134.191 27.5765 133.966 27.4368C133.743 27.2971 133.48 27.2273 133.177 27.2273C132.844 27.2273 132.555 27.3101 132.311 27.4759C132.069 27.6392 131.884 27.8523 131.753 28.1151C131.623 28.3778 131.558 28.6596 131.558 28.9602V29.4432C131.558 29.8551 131.629 30.2043 131.771 30.4908C131.916 30.7749 132.116 30.9915 132.371 31.1406C132.627 31.2874 132.924 31.3608 133.263 31.3608C133.483 31.3608 133.682 31.33 133.859 31.2685C134.039 31.2045 134.194 31.1098 134.324 30.9844C134.455 30.8565 134.555 30.6979 134.626 30.5085L135.436 30.7358C135.351 31.0104 135.207 31.2519 135.006 31.4602C134.805 31.6662 134.556 31.8272 134.26 31.9432C133.965 32.0568 133.632 32.1136 133.263 32.1136ZM137.946 31.0057L137.889 31.3892C137.849 31.6591 137.787 31.9479 137.704 32.2557C137.624 32.5634 137.54 32.8535 137.452 33.1257C137.365 33.398 137.293 33.6146 137.236 33.7756H136.597C136.627 33.6241 136.668 33.424 136.717 33.1754C136.767 32.9268 136.817 32.6487 136.866 32.3409C136.918 32.0355 136.961 31.723 136.994 31.4034L137.037 31.0057H137.946ZM146.316 26.5455V32H145.478V26.5455H146.316ZM145.989 29.1449V29.9261C145.8 29.9972 145.611 30.0599 145.424 30.1143C145.237 30.1664 145.041 30.2079 144.835 30.2386C144.629 30.267 144.403 30.2812 144.157 30.2812C143.539 30.2812 143.043 30.1143 142.669 29.7805C142.297 29.4467 142.111 28.946 142.111 28.2784V26.5312H142.949V28.2784C142.949 28.5578 143.003 28.7874 143.109 28.9673C143.216 29.1473 143.36 29.281 143.542 29.3686C143.725 29.4562 143.929 29.5 144.157 29.5C144.512 29.5 144.833 29.468 145.119 29.4041C145.408 29.3378 145.698 29.2514 145.989 29.1449ZM147.011 27.3267V26.5455H151.443V27.3267H149.653V32H148.815V27.3267H147.011ZM154.498 32.1136C154.006 32.1136 153.574 31.9964 153.202 31.7621C152.833 31.5277 152.544 31.1998 152.336 30.7784C152.13 30.357 152.027 29.8646 152.027 29.3011C152.027 28.733 152.13 28.237 152.336 27.8132C152.544 27.3894 152.833 27.0604 153.202 26.826C153.574 26.5916 154.006 26.4744 154.498 26.4744C154.991 26.4744 155.421 26.5916 155.791 26.826C156.162 27.0604 156.451 27.3894 156.657 27.8132C156.866 28.237 156.97 28.733 156.97 29.3011C156.97 29.8646 156.866 30.357 156.657 30.7784C156.451 31.1998 156.162 31.5277 155.791 31.7621C155.421 31.9964 154.991 32.1136 154.498 32.1136ZM154.498 31.3608C154.872 31.3608 155.18 31.2649 155.421 31.0732C155.663 30.8814 155.842 30.6293 155.958 30.3168C156.074 30.0043 156.132 29.6657 156.132 29.3011C156.132 28.9366 156.074 28.5968 155.958 28.282C155.842 27.9671 155.663 27.7126 155.421 27.5185C155.18 27.3243 154.872 27.2273 154.498 27.2273C154.124 27.2273 153.816 27.3243 153.575 27.5185C153.333 27.7126 153.155 27.9671 153.039 28.282C152.923 28.5968 152.865 28.9366 152.865 29.3011C152.865 29.6657 152.923 30.0043 153.039 30.3168C153.155 30.6293 153.333 30.8814 153.575 31.0732C153.816 31.2649 154.124 31.3608 154.498 31.3608ZM160.862 32V26.5455H163.092C163.679 26.5455 164.145 26.678 164.491 26.9432C164.836 27.2083 165.009 27.5587 165.009 27.9943C165.009 28.3258 164.911 28.5826 164.715 28.7649C164.518 28.9448 164.266 29.0668 163.958 29.1307C164.159 29.1591 164.355 29.2301 164.544 29.3438C164.736 29.4574 164.894 29.6136 165.02 29.8125C165.145 30.009 165.208 30.2505 165.208 30.5369C165.208 30.8163 165.137 31.0661 164.995 31.2862C164.853 31.5064 164.649 31.6804 164.384 31.8082C164.119 31.9361 163.802 32 163.433 32H160.862ZM161.657 31.233H163.433C163.721 31.233 163.948 31.1643 164.111 31.027C164.274 30.8897 164.356 30.7027 164.356 30.4659C164.356 30.1842 164.274 29.9628 164.111 29.8018C163.948 29.6385 163.721 29.5568 163.433 29.5568H161.657V31.233ZM161.657 28.8324H163.092C163.317 28.8324 163.51 28.8016 163.671 28.7401C163.832 28.6761 163.955 28.5862 164.04 28.4702C164.127 28.3518 164.171 28.2121 164.171 28.0511C164.171 27.8215 164.075 27.6416 163.884 27.5114C163.692 27.3788 163.428 27.3125 163.092 27.3125H161.657V28.8324ZM167.982 32.1278C167.636 32.1278 167.323 32.0627 167.041 31.9325C166.759 31.8 166.535 31.6094 166.37 31.3608C166.204 31.1098 166.121 30.8068 166.121 30.4517C166.121 30.1392 166.183 29.8859 166.306 29.6918C166.429 29.4953 166.593 29.3414 166.799 29.2301C167.005 29.1188 167.233 29.036 167.481 28.9815C167.732 28.9247 167.984 28.8797 168.238 28.8466C168.569 28.804 168.838 28.772 169.044 28.7507C169.252 28.727 169.404 28.688 169.498 28.6335C169.595 28.5791 169.644 28.4844 169.644 28.3494V28.321C169.644 27.9706 169.548 27.6984 169.356 27.5043C169.167 27.3101 168.879 27.2131 168.493 27.2131C168.093 27.2131 167.78 27.3007 167.552 27.4759C167.325 27.651 167.165 27.8381 167.073 28.0369L166.277 27.7528C166.419 27.4214 166.609 27.1634 166.846 26.9787C167.085 26.7917 167.345 26.6615 167.627 26.5881C167.911 26.5123 168.19 26.4744 168.465 26.4744C168.64 26.4744 168.841 26.4957 169.069 26.5384C169.298 26.5786 169.52 26.6626 169.733 26.7905C169.948 26.9183 170.127 27.1113 170.269 27.3693C170.411 27.6274 170.482 27.973 170.482 28.4062V32H169.644V31.2614H169.601C169.544 31.3797 169.45 31.5064 169.317 31.6413C169.185 31.7763 169.008 31.8911 168.788 31.9858C168.568 32.0805 168.299 32.1278 167.982 32.1278ZM168.11 31.375C168.441 31.375 168.721 31.3099 168.948 31.1797C169.177 31.0495 169.35 30.8814 169.466 30.6754C169.585 30.4695 169.644 30.2528 169.644 30.0256V29.2585C169.608 29.3011 169.53 29.3402 169.409 29.3757C169.291 29.4089 169.154 29.4384 168.998 29.4645C168.844 29.4882 168.693 29.5095 168.547 29.5284C168.402 29.545 168.285 29.5592 168.195 29.571C167.977 29.5994 167.774 29.6456 167.584 29.7095C167.397 29.7711 167.246 29.8646 167.13 29.9901C167.016 30.1132 166.959 30.2812 166.959 30.4943C166.959 30.7855 167.067 31.0057 167.282 31.1548C167.5 31.3016 167.776 31.375 168.11 31.375ZM174.895 30.8636L176.798 26.5455H177.593L175.235 32H174.554L172.238 26.5455H173.02L174.895 30.8636ZM172.75 26.5455V32H171.912V26.5455H172.75ZM177.039 32V26.5455H177.877V32H177.039ZM184.567 24.7273V32H183.686V25.6506H183.643L181.868 26.8295V25.9347L183.686 24.7273H184.567ZM188.888 32.0994C188.4 32.0994 187.969 32.013 187.595 31.8402C187.224 31.665 186.934 31.4247 186.725 31.1193C186.517 30.8116 186.414 30.4612 186.416 30.0682C186.414 29.7604 186.474 29.4763 186.597 29.2159C186.72 28.9531 186.889 28.7341 187.102 28.5589C187.317 28.3814 187.557 28.2689 187.823 28.2216V28.179C187.474 28.089 187.198 27.8937 186.992 27.593C186.786 27.29 186.684 26.9455 186.686 26.5597C186.684 26.1903 186.777 25.8601 186.967 25.5689C187.156 25.2777 187.416 25.0481 187.748 24.88C188.082 24.7119 188.462 24.6278 188.888 24.6278C189.309 24.6278 189.686 24.7119 190.017 24.88C190.349 25.0481 190.609 25.2777 190.798 25.5689C190.99 25.8601 191.087 26.1903 191.09 26.5597C191.087 26.9455 190.982 27.29 190.774 27.593C190.568 27.8937 190.294 28.089 189.953 28.179V28.2216C190.216 28.2689 190.453 28.3814 190.663 28.5589C190.874 28.7341 191.042 28.9531 191.168 29.2159C191.293 29.4763 191.357 29.7604 191.359 30.0682C191.357 30.4612 191.251 30.8116 191.04 31.1193C190.832 31.4247 190.541 31.665 190.17 31.8402C189.8 32.013 189.373 32.0994 188.888 32.0994ZM188.888 31.3182C189.217 31.3182 189.501 31.2649 189.74 31.1584C189.979 31.0518 190.164 30.9015 190.294 30.7074C190.424 30.5133 190.491 30.286 190.493 30.0256C190.491 29.7509 190.42 29.5083 190.28 29.2976C190.14 29.0869 189.95 28.9212 189.708 28.8004C189.469 28.6797 189.196 28.6193 188.888 28.6193C188.578 28.6193 188.301 28.6797 188.057 28.8004C187.815 28.9212 187.625 29.0869 187.485 29.2976C187.348 29.5083 187.28 29.7509 187.283 30.0256C187.28 30.286 187.343 30.5133 187.471 30.7074C187.601 30.9015 187.787 31.0518 188.028 31.1584C188.27 31.2649 188.556 31.3182 188.888 31.3182ZM188.888 27.8665C189.148 27.8665 189.379 27.8144 189.58 27.7102C189.784 27.6061 189.944 27.4605 190.06 27.2734C190.176 27.0864 190.235 26.8674 190.237 26.6165C190.235 26.3703 190.177 26.156 190.063 25.9737C189.95 25.7891 189.792 25.647 189.591 25.5476C189.39 25.4458 189.155 25.3949 188.888 25.3949C188.616 25.3949 188.378 25.4458 188.174 25.5476C187.97 25.647 187.813 25.7891 187.702 25.9737C187.591 26.156 187.536 26.3703 187.538 26.6165C187.536 26.8674 187.592 27.0864 187.705 27.2734C187.821 27.4605 187.981 27.6061 188.185 27.7102C188.388 27.8144 188.623 27.8665 188.888 27.8665ZM194.864 32V31.2188H195.063C195.226 31.2188 195.363 31.1868 195.471 31.1229C195.58 31.0566 195.668 30.9418 195.734 30.7784C195.803 30.6127 195.855 30.383 195.89 30.0895C195.928 29.7936 195.956 29.4171 195.972 28.9602L196.072 26.5455H199.708V32H198.87V27.3267H196.867L196.782 29.2727C196.763 29.7202 196.723 30.1143 196.661 30.4553C196.602 30.7938 196.511 31.0779 196.388 31.3075C196.267 31.5372 196.106 31.71 195.905 31.826C195.703 31.942 195.451 32 195.148 32H194.864ZM203.432 32.1136C202.907 32.1136 202.454 31.9976 202.072 31.7656C201.694 31.5312 201.401 31.2045 201.195 30.7855C200.992 30.3641 200.89 29.8741 200.89 29.3153C200.89 28.7566 200.992 28.2642 201.195 27.8381C201.401 27.4096 201.688 27.0758 202.055 26.8366C202.424 26.5952 202.855 26.4744 203.347 26.4744C203.631 26.4744 203.912 26.5218 204.189 26.6165C204.466 26.7112 204.718 26.8651 204.945 27.0781C205.173 27.2888 205.354 27.5682 205.489 27.9162C205.624 28.2642 205.691 28.6927 205.691 29.2017V29.5568H201.486V28.8324H204.839C204.839 28.5246 204.777 28.25 204.654 28.0085C204.533 27.767 204.361 27.5765 204.136 27.4368C203.913 27.2971 203.65 27.2273 203.347 27.2273C203.013 27.2273 202.725 27.3101 202.481 27.4759C202.239 27.6392 202.053 27.8523 201.923 28.1151C201.793 28.3778 201.728 28.6596 201.728 28.9602V29.4432C201.728 29.8551 201.799 30.2043 201.941 30.4908C202.085 30.7749 202.285 30.9915 202.541 31.1406C202.797 31.2874 203.094 31.3608 203.432 31.3608C203.653 31.3608 203.852 31.33 204.029 31.2685C204.209 31.2045 204.364 31.1098 204.494 30.9844C204.624 30.8565 204.725 30.6979 204.796 30.5085L205.606 30.7358C205.521 31.0104 205.377 31.2519 205.176 31.4602C204.975 31.6662 204.726 31.8272 204.43 31.9432C204.134 32.0568 203.802 32.1136 203.432 32.1136ZM206.358 27.3267V26.5455H210.79V27.3267H209V32H208.162V27.3267H206.358ZM215.463 30.7642L218.091 26.5455H219.057V32H218.219V27.7812L215.605 32H214.625V26.5455H215.463V30.7642ZM227.252 24.5L227.679 25.0114C227.513 25.1723 227.321 25.2848 227.103 25.3487C226.885 25.4126 226.639 25.4517 226.365 25.4659C226.09 25.4801 225.785 25.4943 225.448 25.5085C225.07 25.5227 224.756 25.6151 224.507 25.7855C224.259 25.956 224.067 26.2022 223.932 26.5241C223.797 26.8461 223.711 27.2415 223.673 27.7102H223.744C223.929 27.3693 224.184 27.1184 224.511 26.9574C224.838 26.7964 225.188 26.7159 225.562 26.7159C225.988 26.7159 226.372 26.8153 226.713 27.0142C227.054 27.2131 227.323 27.5078 227.522 27.8984C227.721 28.2891 227.821 28.7708 227.821 29.3438C227.821 29.9143 227.719 30.4067 227.515 30.821C227.314 31.2353 227.031 31.5549 226.667 31.7798C226.304 32.0024 225.879 32.1136 225.392 32.1136C224.904 32.1136 224.477 31.9988 224.11 31.7692C223.743 31.5372 223.457 31.1939 223.254 30.7393C223.05 30.2824 222.948 29.7178 222.948 29.0455V28.4631C222.948 27.2486 223.154 26.3277 223.566 25.7003C223.981 25.0729 224.603 24.7486 225.434 24.7273C225.728 24.7178 225.989 24.7154 226.219 24.7202C226.449 24.7249 226.649 24.7143 226.819 24.6882C226.99 24.6622 227.134 24.5994 227.252 24.5ZM225.392 31.3608C225.721 31.3608 226.004 31.2779 226.24 31.1122C226.479 30.9465 226.663 30.7133 226.791 30.4126C226.919 30.1096 226.983 29.7533 226.983 29.3438C226.983 28.946 226.917 28.6075 226.787 28.3281C226.659 28.0488 226.476 27.8357 226.237 27.6889C225.998 27.5421 225.711 27.4688 225.377 27.4688C225.134 27.4688 224.915 27.5102 224.72 27.593C224.526 27.6759 224.361 27.7978 224.223 27.9588C224.086 28.1198 223.979 28.3163 223.904 28.5483C223.83 28.7803 223.791 29.0455 223.787 29.3438C223.787 29.9545 223.93 30.4434 224.216 30.8104C224.503 31.1773 224.894 31.3608 225.392 31.3608ZM231.218 32.1136C230.726 32.1136 230.294 31.9964 229.922 31.7621C229.553 31.5277 229.264 31.1998 229.056 30.7784C228.85 30.357 228.747 29.8646 228.747 29.3011C228.747 28.733 228.85 28.237 229.056 27.8132C229.264 27.3894 229.553 27.0604 229.922 26.826C230.294 26.5916 230.726 26.4744 231.218 26.4744C231.711 26.4744 232.142 26.5916 232.511 26.826C232.883 27.0604 233.172 27.3894 233.378 27.8132C233.586 28.237 233.69 28.733 233.69 29.3011C233.69 29.8646 233.586 30.357 233.378 30.7784C233.172 31.1998 232.883 31.5277 232.511 31.7621C232.142 31.9964 231.711 32.1136 231.218 32.1136ZM231.218 31.3608C231.593 31.3608 231.9 31.2649 232.142 31.0732C232.383 30.8814 232.562 30.6293 232.678 30.3168C232.794 30.0043 232.852 29.6657 232.852 29.3011C232.852 28.9366 232.794 28.5968 232.678 28.282C232.562 27.9671 232.383 27.7126 232.142 27.5185C231.9 27.3243 231.593 27.2273 231.218 27.2273C230.844 27.2273 230.537 27.3243 230.295 27.5185C230.054 27.7126 229.875 27.9671 229.759 28.282C229.643 28.5968 229.585 28.9366 229.585 29.3011C229.585 29.6657 229.643 30.0043 229.759 30.3168C229.875 30.6293 230.054 30.8814 230.295 31.0732C230.537 31.2649 230.844 31.3608 231.218 31.3608ZM234.386 32V31.2188H234.585C234.749 31.2188 234.885 31.1868 234.994 31.1229C235.103 31.0566 235.19 30.9418 235.256 30.7784C235.325 30.6127 235.377 30.383 235.413 30.0895C235.451 29.7936 235.478 29.4171 235.494 28.9602L235.594 26.5455H239.23V32H238.392V27.3267H236.389L236.304 29.2727C236.285 29.7202 236.245 30.1143 236.183 30.4553C236.124 30.7938 236.033 31.0779 235.91 31.3075C235.789 31.5372 235.628 31.71 235.427 31.826C235.226 31.942 234.974 32 234.671 32H234.386ZM242.955 32.1136C242.429 32.1136 241.976 31.9976 241.595 31.7656C241.216 31.5312 240.924 31.2045 240.718 30.7855C240.514 30.3641 240.412 29.8741 240.412 29.3153C240.412 28.7566 240.514 28.2642 240.718 27.8381C240.924 27.4096 241.21 27.0758 241.577 26.8366C241.946 26.5952 242.377 26.4744 242.87 26.4744C243.154 26.4744 243.434 26.5218 243.711 26.6165C243.988 26.7112 244.24 26.8651 244.468 27.0781C244.695 27.2888 244.876 27.5682 245.011 27.9162C245.146 28.2642 245.213 28.6927 245.213 29.2017V29.5568H241.009V28.8324H244.361C244.361 28.5246 244.299 28.25 244.176 28.0085C244.056 27.767 243.883 27.5765 243.658 27.4368C243.435 27.2971 243.173 27.2273 242.87 27.2273C242.536 27.2273 242.247 27.3101 242.003 27.4759C241.762 27.6392 241.576 27.8523 241.446 28.1151C241.315 28.3778 241.25 28.6596 241.25 28.9602V29.4432C241.25 29.8551 241.321 30.2043 241.463 30.4908C241.608 30.7749 241.808 30.9915 242.063 31.1406C242.319 31.2874 242.616 31.3608 242.955 31.3608C243.175 31.3608 243.374 31.33 243.551 31.2685C243.731 31.2045 243.886 31.1098 244.017 30.9844C244.147 30.8565 244.247 30.6979 244.318 30.5085L245.128 30.7358C245.043 31.0104 244.9 31.2519 244.698 31.4602C244.497 31.6662 244.249 31.8272 243.953 31.9432C243.657 32.0568 243.324 32.1136 242.955 32.1136ZM248.675 32.1136C248.15 32.1136 247.696 31.9976 247.315 31.7656C246.936 31.5312 246.644 31.2045 246.438 30.7855C246.234 30.3641 246.132 29.8741 246.132 29.3153C246.132 28.7566 246.234 28.2642 246.438 27.8381C246.644 27.4096 246.93 27.0758 247.297 26.8366C247.667 26.5952 248.097 26.4744 248.59 26.4744C248.874 26.4744 249.154 26.5218 249.431 26.6165C249.708 26.7112 249.961 26.8651 250.188 27.0781C250.415 27.2888 250.596 27.5682 250.731 27.9162C250.866 28.2642 250.934 28.6927 250.934 29.2017V29.5568H246.729V28.8324H250.081C250.081 28.5246 250.02 28.25 249.897 28.0085C249.776 27.767 249.603 27.5765 249.378 27.4368C249.156 27.2971 248.893 27.2273 248.59 27.2273C248.256 27.2273 247.967 27.3101 247.723 27.4759C247.482 27.6392 247.296 27.8523 247.166 28.1151C247.036 28.3778 246.971 28.6596 246.971 28.9602V29.4432C246.971 29.8551 247.042 30.2043 247.184 30.4908C247.328 30.7749 247.528 30.9915 247.784 31.1406C248.039 31.2874 248.337 31.3608 248.675 31.3608C248.895 31.3608 249.094 31.33 249.272 31.2685C249.452 31.2045 249.607 31.1098 249.737 30.9844C249.867 30.8565 249.968 30.6979 250.039 30.5085L250.848 30.7358C250.763 31.0104 250.62 31.2519 250.419 31.4602C250.217 31.6662 249.969 31.8272 249.673 31.9432C249.377 32.0568 249.044 32.1136 248.675 32.1136ZM252.719 32.0568C252.544 32.0568 252.394 31.9941 252.268 31.8686C252.143 31.7431 252.08 31.5928 252.08 31.4176C252.08 31.2424 252.143 31.0921 252.268 30.9666C252.394 30.8411 252.544 30.7784 252.719 30.7784C252.894 30.7784 253.045 30.8411 253.17 30.9666C253.296 31.0921 253.358 31.2424 253.358 31.4176C253.358 31.5336 253.329 31.6402 253.27 31.7372C253.213 31.8343 253.136 31.9124 253.039 31.9716C252.944 32.0284 252.838 32.0568 252.719 32.0568Z" fill="#666666"/>
<path d="M225.522 8V2.54545H229.812V8H228.974V3.3267H226.36V8H225.522ZM233.459 8.11364C232.966 8.11364 232.534 7.99645 232.162 7.76207C231.793 7.5277 231.504 7.19981 231.296 6.77841C231.09 6.35701 230.987 5.86458 230.987 5.30114C230.987 4.73295 231.09 4.23698 231.296 3.81321C231.504 3.38944 231.793 3.06037 232.162 2.82599C232.534 2.59162 232.966 2.47443 233.459 2.47443C233.951 2.47443 234.382 2.59162 234.751 2.82599C235.123 3.06037 235.412 3.38944 235.618 3.81321C235.826 4.23698 235.93 4.73295 235.93 5.30114C235.93 5.86458 235.826 6.35701 235.618 6.77841C235.412 7.19981 235.123 7.5277 234.751 7.76207C234.382 7.99645 233.951 8.11364 233.459 8.11364ZM233.459 7.3608C233.833 7.3608 234.14 7.26491 234.382 7.07315C234.623 6.88139 234.802 6.62926 234.918 6.31676C235.034 6.00426 235.092 5.66572 235.092 5.30114C235.092 4.93655 235.034 4.59683 234.918 4.28196C234.802 3.96709 234.623 3.71259 234.382 3.51847C234.14 3.32434 233.833 3.22727 233.459 3.22727C233.084 3.22727 232.777 3.32434 232.535 3.51847C232.294 3.71259 232.115 3.96709 231.999 4.28196C231.883 4.59683 231.825 4.93655 231.825 5.30114C231.825 5.66572 231.883 6.00426 231.999 6.31676C232.115 6.62926 232.294 6.88139 232.535 7.07315C232.777 7.26491 233.084 7.3608 233.459 7.3608ZM236.626 8V7.21875H236.825C236.989 7.21875 237.125 7.18679 237.234 7.12287C237.343 7.05658 237.43 6.94176 237.496 6.77841C237.565 6.61269 237.617 6.38305 237.653 6.08949C237.691 5.79356 237.718 5.41714 237.734 4.96023L237.834 2.54545H241.47V8H240.632V3.3267H238.629L238.544 5.27273C238.525 5.72017 238.485 6.11435 238.423 6.45526C238.364 6.7938 238.273 7.07789 238.15 7.30753C238.029 7.53717 237.868 7.70999 237.667 7.82599C237.466 7.942 237.214 8 236.911 8H236.626ZM243.632 4.51989H245.195C245.834 4.51989 246.323 4.68205 246.661 5.00639C247 5.33073 247.169 5.74148 247.169 6.23864C247.169 6.56534 247.093 6.86245 246.942 7.12997C246.79 7.39512 246.568 7.60701 246.274 7.76562C245.981 7.92188 245.621 8 245.195 8H242.908V2.54545H243.746V7.21875H245.195C245.526 7.21875 245.798 7.13116 246.012 6.95597C246.225 6.78078 246.331 6.55587 246.331 6.28125C246.331 5.99242 246.225 5.75687 246.012 5.57457C245.798 5.39228 245.526 5.30114 245.195 5.30114H243.632V4.51989ZM248.004 6.60795H248.899C248.918 6.85417 249.029 7.04119 249.233 7.16903C249.439 7.29688 249.706 7.3608 250.035 7.3608C250.372 7.3608 250.659 7.29214 250.898 7.15483C251.137 7.01515 251.257 6.79025 251.257 6.48011C251.257 6.29782 251.212 6.1392 251.122 6.00426C251.032 5.86695 250.905 5.76042 250.742 5.68466C250.579 5.6089 250.386 5.57102 250.163 5.57102H249.226V4.81818H250.163C250.497 4.81818 250.743 4.74242 250.902 4.59091C251.063 4.43939 251.143 4.25 251.143 4.02273C251.143 3.77888 251.057 3.58357 250.884 3.43679C250.711 3.28764 250.466 3.21307 250.149 3.21307C249.829 3.21307 249.563 3.28527 249.35 3.42969C249.137 3.57173 249.024 3.75521 249.013 3.98011H248.132C248.141 3.68655 248.231 3.42732 248.402 3.20241C248.572 2.97514 248.804 2.79759 249.098 2.66974C249.391 2.53954 249.728 2.47443 250.106 2.47443C250.49 2.47443 250.822 2.5419 251.104 2.67685C251.388 2.80942 251.607 2.99053 251.761 3.22017C251.917 3.44744 251.996 3.70549 251.996 3.99432C251.996 4.30208 251.909 4.55066 251.736 4.74006C251.564 4.92945 251.347 5.06439 251.086 5.14489V5.2017C251.292 5.21591 251.471 5.2822 251.623 5.40057C251.777 5.51657 251.896 5.66927 251.981 5.85866C252.067 6.04569 252.109 6.25284 252.109 6.48011C252.109 6.81155 252.02 7.10038 251.843 7.34659C251.665 7.59044 251.421 7.77983 251.111 7.91477C250.801 8.04735 250.447 8.11364 250.05 8.11364C249.664 8.11364 249.318 8.0509 249.013 7.92543C248.707 7.79759 248.465 7.62121 248.285 7.39631C248.107 7.16903 248.014 6.90625 248.004 6.60795ZM255.402 8.11364C254.91 8.11364 254.478 7.99645 254.106 7.76207C253.737 7.5277 253.448 7.19981 253.24 6.77841C253.034 6.35701 252.931 5.86458 252.931 5.30114C252.931 4.73295 253.034 4.23698 253.24 3.81321C253.448 3.38944 253.737 3.06037 254.106 2.82599C254.478 2.59162 254.91 2.47443 255.402 2.47443C255.895 2.47443 256.326 2.59162 256.695 2.82599C257.067 3.06037 257.355 3.38944 257.561 3.81321C257.77 4.23698 257.874 4.73295 257.874 5.30114C257.874 5.86458 257.77 6.35701 257.561 6.77841C257.355 7.19981 257.067 7.5277 256.695 7.76207C256.326 7.99645 255.895 8.11364 255.402 8.11364ZM255.402 7.3608C255.776 7.3608 256.084 7.26491 256.326 7.07315C256.567 6.88139 256.746 6.62926 256.862 6.31676C256.978 6.00426 257.036 5.66572 257.036 5.30114C257.036 4.93655 256.978 4.59683 256.862 4.28196C256.746 3.96709 256.567 3.71259 256.326 3.51847C256.084 3.32434 255.776 3.22727 255.402 3.22727C255.028 3.22727 254.72 3.32434 254.479 3.51847C254.238 3.71259 254.059 3.96709 253.943 4.28196C253.827 4.59683 253.769 4.93655 253.769 5.30114C253.769 5.66572 253.827 6.00426 253.943 6.31676C254.059 6.62926 254.238 6.88139 254.479 7.07315C254.72 7.26491 255.028 7.3608 255.402 7.3608ZM259.053 8V2.54545H261.283C261.87 2.54545 262.337 2.67803 262.682 2.94318C263.028 3.20833 263.201 3.55871 263.201 3.99432C263.201 4.32576 263.103 4.58262 262.906 4.76491C262.71 4.94484 262.458 5.06676 262.15 5.13068C262.351 5.15909 262.546 5.23011 262.736 5.34375C262.927 5.45739 263.086 5.61364 263.212 5.8125C263.337 6.009 263.4 6.25047 263.4 6.53693C263.4 6.81629 263.329 7.06605 263.187 7.28622C263.045 7.50639 262.841 7.6804 262.576 7.80824C262.311 7.93608 261.994 8 261.624 8H259.053ZM259.849 7.23295H261.624C261.913 7.23295 262.139 7.1643 262.302 7.02699C262.466 6.88968 262.547 6.70265 262.547 6.46591C262.547 6.18419 262.466 5.96283 262.302 5.80185C262.139 5.63849 261.913 5.55682 261.624 5.55682H259.849V7.23295ZM259.849 4.83239H261.283C261.508 4.83239 261.701 4.80161 261.862 4.74006C262.023 4.67614 262.146 4.58617 262.231 4.47017C262.319 4.3518 262.363 4.21212 262.363 4.05114C262.363 3.8215 262.267 3.64157 262.075 3.51136C261.883 3.37879 261.619 3.3125 261.283 3.3125H259.849V4.83239ZM266.174 8.12784C265.828 8.12784 265.514 8.06274 265.232 7.93253C264.951 7.79995 264.727 7.60938 264.561 7.3608C264.396 7.10985 264.313 6.80682 264.313 6.4517C264.313 6.1392 264.374 5.88589 264.497 5.69176C264.62 5.49527 264.785 5.34138 264.991 5.23011C265.197 5.11884 265.424 5.03598 265.673 4.98153C265.924 4.92472 266.176 4.87973 266.429 4.84659C266.761 4.80398 267.029 4.77202 267.235 4.75071C267.444 4.72704 267.595 4.68797 267.69 4.63352C267.787 4.57907 267.835 4.48437 267.835 4.34943V4.32102C267.835 3.97064 267.74 3.69839 267.548 3.50426C267.358 3.31013 267.071 3.21307 266.685 3.21307C266.285 3.21307 265.971 3.30066 265.744 3.47585C265.517 3.65104 265.357 3.83807 265.264 4.03693L264.469 3.75284C264.611 3.4214 264.8 3.16335 265.037 2.97869C265.276 2.79167 265.537 2.66146 265.818 2.58807C266.102 2.51231 266.382 2.47443 266.656 2.47443C266.832 2.47443 267.033 2.49574 267.26 2.53835C267.49 2.5786 267.711 2.66264 267.924 2.79048C268.14 2.91832 268.318 3.11127 268.46 3.36932C268.602 3.62737 268.674 3.97301 268.674 4.40625V8H267.835V7.26136H267.793C267.736 7.37973 267.641 7.50639 267.509 7.64134C267.376 7.77628 267.2 7.8911 266.98 7.9858C266.759 8.08049 266.491 8.12784 266.174 8.12784ZM266.301 7.375C266.633 7.375 266.912 7.3099 267.139 7.17969C267.369 7.04948 267.542 6.88139 267.658 6.67543C267.776 6.46946 267.835 6.25284 267.835 6.02557V5.25852C267.8 5.30114 267.722 5.3402 267.601 5.37571C267.483 5.40885 267.345 5.43845 267.189 5.46449C267.035 5.48816 266.885 5.50947 266.738 5.52841C266.594 5.54498 266.477 5.55919 266.387 5.57102C266.169 5.59943 265.965 5.6456 265.776 5.70952C265.589 5.77107 265.437 5.86458 265.321 5.99006C265.208 6.11316 265.151 6.28125 265.151 6.49432C265.151 6.78551 265.259 7.00568 265.474 7.15483C265.692 7.30161 265.968 7.375 266.301 7.375ZM269.361 3.3267V2.54545H273.793V3.3267H272.003V8H271.165V3.3267H269.361ZM276.919 8.11364C276.393 8.11364 275.94 7.99763 275.559 7.76562C275.18 7.53125 274.888 7.20455 274.682 6.78551C274.478 6.36411 274.376 5.87405 274.376 5.31534C274.376 4.75663 274.478 4.2642 274.682 3.83807C274.888 3.40956 275.174 3.07576 275.541 2.83665C275.911 2.59517 276.341 2.47443 276.834 2.47443C277.118 2.47443 277.398 2.52178 277.675 2.61648C277.952 2.71117 278.205 2.86506 278.432 3.07812C278.659 3.28883 278.84 3.56818 278.975 3.91619C279.11 4.2642 279.178 4.69271 279.178 5.2017V5.55682H274.973V4.83239H278.325C278.325 4.52462 278.264 4.25 278.141 4.00852C278.02 3.76705 277.847 3.57647 277.622 3.43679C277.4 3.29711 277.137 3.22727 276.834 3.22727C276.5 3.22727 276.211 3.31013 275.967 3.47585C275.726 3.6392 275.54 3.85227 275.41 4.11506C275.28 4.37784 275.214 4.65956 275.214 4.96023V5.44318C275.214 5.85511 275.286 6.20431 275.428 6.49077C275.572 6.77486 275.772 6.99148 276.028 7.14062C276.283 7.28741 276.58 7.3608 276.919 7.3608C277.139 7.3608 277.338 7.33002 277.516 7.26847C277.696 7.20455 277.851 7.10985 277.981 6.98438C278.111 6.85653 278.212 6.69792 278.283 6.50852L279.092 6.7358C279.007 7.01042 278.864 7.25189 278.663 7.46023C278.461 7.66619 278.213 7.82718 277.917 7.94318C277.621 8.05682 277.288 8.11364 276.919 8.11364ZM279.869 8V7.21875H280.068C280.232 7.21875 280.368 7.18679 280.477 7.12287C280.586 7.05658 280.673 6.94176 280.739 6.77841C280.808 6.61269 280.86 6.38305 280.896 6.08949C280.934 5.79356 280.961 5.41714 280.977 4.96023L281.077 2.54545H284.713V8H283.875V3.3267H281.872L281.787 5.27273C281.768 5.72017 281.728 6.11435 281.666 6.45526C281.607 6.7938 281.516 7.07789 281.393 7.30753C281.272 7.53717 281.111 7.70999 280.91 7.82599C280.709 7.942 280.457 8 280.154 8H279.869ZM286.875 4.51989H288.438C289.077 4.51989 289.566 4.68205 289.904 5.00639C290.243 5.33073 290.412 5.74148 290.412 6.23864C290.412 6.56534 290.336 6.86245 290.185 7.12997C290.033 7.39512 289.811 7.60701 289.517 7.76562C289.224 7.92188 288.864 8 288.438 8H286.151V2.54545H286.989V7.21875H288.438C288.769 7.21875 289.041 7.13116 289.255 6.95597C289.468 6.78078 289.574 6.55587 289.574 6.28125C289.574 5.99242 289.468 5.75687 289.255 5.57457C289.041 5.39228 288.769 5.30114 288.438 5.30114H286.875V4.51989ZM293.804 8.11364C293.292 8.11364 292.852 7.9929 292.483 7.75142C292.114 7.50994 291.829 7.17732 291.631 6.75355C291.432 6.32978 291.332 5.84564 291.332 5.30114C291.332 4.74716 291.434 4.25829 291.638 3.83452C291.844 3.40838 292.13 3.07576 292.497 2.83665C292.866 2.59517 293.297 2.47443 293.79 2.47443C294.173 2.47443 294.519 2.54545 294.827 2.6875C295.134 2.82955 295.386 3.02841 295.583 3.28409C295.779 3.53977 295.901 3.83807 295.949 4.17898H295.111C295.047 3.9304 294.905 3.71023 294.685 3.51847C294.467 3.32434 294.173 3.22727 293.804 3.22727C293.477 3.22727 293.191 3.3125 292.944 3.48295C292.701 3.65104 292.51 3.88897 292.373 4.19673C292.238 4.50213 292.17 4.8608 292.17 5.27273C292.17 5.69413 292.237 6.06108 292.369 6.37358C292.504 6.68608 292.694 6.92874 292.937 7.10156C293.184 7.27438 293.472 7.3608 293.804 7.3608C294.022 7.3608 294.219 7.32292 294.397 7.24716C294.574 7.1714 294.725 7.0625 294.848 6.92045C294.971 6.77841 295.059 6.60795 295.111 6.40909H295.949C295.901 6.73106 295.784 7.02107 295.597 7.27912C295.413 7.5348 295.167 7.7384 294.862 7.88991C294.559 8.03906 294.206 8.11364 293.804 8.11364ZM297.074 8V2.54545H297.912V4.91761H298.466L300.426 2.54545H301.506L299.304 5.1733L301.534 8H300.455L298.665 5.69886H297.912V8H297.074ZM303.183 6.7642L305.811 2.54545H306.777V8H305.939V3.78125L303.325 8H302.345V2.54545H303.183V6.7642ZM311.195 6.86364L313.098 2.54545H313.894L311.536 8H310.854L308.538 2.54545H309.32L311.195 6.86364ZM309.05 2.54545V8H308.212V2.54545H309.05ZM313.34 8V2.54545H314.178V8H313.34ZM21.6052 20.1136C21.0939 20.1136 20.6535 19.9929 20.2842 19.7514C19.9149 19.5099 19.6308 19.1773 19.4319 18.7536C19.2331 18.3298 19.1336 17.8456 19.1336 17.3011C19.1336 16.7472 19.2354 16.2583 19.439 15.8345C19.645 15.4084 19.9315 15.0758 20.2984 14.8366C20.6677 14.5952 21.0986 14.4744 21.591 14.4744C21.9745 14.4744 22.3202 14.5455 22.628 14.6875C22.9357 14.8295 23.1878 15.0284 23.3843 15.2841C23.5808 15.5398 23.7028 15.8381 23.7501 16.179H22.912C22.8481 15.9304 22.7061 15.7102 22.4859 15.5185C22.2681 15.3243 21.9745 15.2273 21.6052 15.2273C21.2785 15.2273 20.9921 15.3125 20.7458 15.483C20.502 15.651 20.3114 15.889 20.1741 16.1967C20.0392 16.5021 19.9717 16.8608 19.9717 17.2727C19.9717 17.6941 20.038 18.0611 20.1706 18.3736C20.3055 18.6861 20.4949 18.9287 20.7387 19.1016C20.985 19.2744 21.2738 19.3608 21.6052 19.3608C21.823 19.3608 22.0207 19.3229 22.1983 19.2472C22.3758 19.1714 22.5262 19.0625 22.6493 18.9205C22.7724 18.7784 22.86 18.608 22.912 18.4091H23.7501C23.7028 18.7311 23.5856 19.0211 23.3985 19.2791C23.2139 19.5348 22.9689 19.7384 22.6635 19.8899C22.3604 20.0391 22.0077 20.1136 21.6052 20.1136ZM27.0912 20.1136C26.5987 20.1136 26.1667 19.9964 25.795 19.7621C25.4257 19.5277 25.1369 19.1998 24.9285 18.7784C24.7226 18.357 24.6196 17.8646 24.6196 17.3011C24.6196 16.733 24.7226 16.237 24.9285 15.8132C25.1369 15.3894 25.4257 15.0604 25.795 14.826C26.1667 14.5916 26.5987 14.4744 27.0912 14.4744C27.5836 14.4744 28.0145 14.5916 28.3838 14.826C28.7555 15.0604 29.0443 15.3894 29.2503 15.8132C29.4586 16.237 29.5628 16.733 29.5628 17.3011C29.5628 17.8646 29.4586 18.357 29.2503 18.7784C29.0443 19.1998 28.7555 19.5277 28.3838 19.7621C28.0145 19.9964 27.5836 20.1136 27.0912 20.1136ZM27.0912 19.3608C27.4652 19.3608 27.773 19.2649 28.0145 19.0732C28.2559 18.8814 28.4347 18.6293 28.5507 18.3168C28.6667 18.0043 28.7247 17.6657 28.7247 17.3011C28.7247 16.9366 28.6667 16.5968 28.5507 16.282C28.4347 15.9671 28.2559 15.7126 28.0145 15.5185C27.773 15.3243 27.4652 15.2273 27.0912 15.2273C26.7171 15.2273 26.4093 15.3243 26.1679 15.5185C25.9264 15.7126 25.7476 15.9671 25.6316 16.282C25.5156 16.5968 25.4576 16.9366 25.4576 17.3011C25.4576 17.6657 25.5156 18.0043 25.6316 18.3168C25.7476 18.6293 25.9264 18.8814 26.1679 19.0732C26.4093 19.2649 26.7171 19.3608 27.0912 19.3608ZM34.1085 14.5455V15.3267H31.5801V20H30.742V14.5455H34.1085ZM34.29 20V19.2188H34.4888C34.6522 19.2188 34.7883 19.1868 34.8972 19.1229C35.0061 19.0566 35.0937 18.9418 35.16 18.7784C35.2286 18.6127 35.2807 18.383 35.3162 18.0895C35.3541 17.7936 35.3813 17.4171 35.3979 16.9602L35.4973 14.5455H39.1337V20H38.2956V15.3267H36.2928L36.2076 17.2727C36.1886 17.7202 36.1484 18.1143 36.0868 18.4553C36.0276 18.7938 35.9365 19.0779 35.8134 19.3075C35.6927 19.5372 35.5317 19.71 35.3304 19.826C35.1292 19.942 34.8771 20 34.574 20H34.29ZM42.1765 20.1278C41.8308 20.1278 41.5171 20.0627 41.2354 19.9325C40.9537 19.8 40.73 19.6094 40.5642 19.3608C40.3985 19.1098 40.3157 18.8068 40.3157 18.4517C40.3157 18.1392 40.3772 17.8859 40.5003 17.6918C40.6234 17.4953 40.788 17.3414 40.9939 17.2301C41.1999 17.1188 41.4272 17.036 41.6757 16.9815C41.9267 16.9247 42.1788 16.8797 42.4321 16.8466C42.7636 16.804 43.0323 16.772 43.2382 16.7507C43.4466 16.727 43.5981 16.688 43.6928 16.6335C43.7899 16.5791 43.8384 16.4844 43.8384 16.3494V16.321C43.8384 15.9706 43.7425 15.6984 43.5507 15.5043C43.3614 15.3101 43.0737 15.2131 42.6878 15.2131C42.2877 15.2131 41.974 15.3007 41.7468 15.4759C41.5195 15.651 41.3597 15.8381 41.2674 16.0369L40.4719 15.7528C40.614 15.4214 40.8034 15.1634 41.0401 14.9787C41.2792 14.7917 41.5396 14.6615 41.8213 14.5881C42.1054 14.5123 42.3848 14.4744 42.6594 14.4744C42.8346 14.4744 43.0358 14.4957 43.2631 14.5384C43.4927 14.5786 43.7141 14.6626 43.9272 14.7905C44.1426 14.9183 44.3213 15.1113 44.4634 15.3693C44.6054 15.6274 44.6765 15.973 44.6765 16.4062V20H43.8384V19.2614H43.7958C43.739 19.3797 43.6443 19.5064 43.5117 19.6413C43.3791 19.7763 43.2027 19.8911 42.9826 19.9858C42.7624 20.0805 42.4937 20.1278 42.1765 20.1278ZM42.3043 19.375C42.6357 19.375 42.9151 19.3099 43.1424 19.1797C43.372 19.0495 43.5448 18.8814 43.6608 18.6754C43.7792 18.4695 43.8384 18.2528 43.8384 18.0256V17.2585C43.8029 17.3011 43.7248 17.3402 43.604 17.3757C43.4856 17.4089 43.3483 17.4384 43.1921 17.4645C43.0382 17.4882 42.8879 17.5095 42.7411 17.5284C42.5967 17.545 42.4795 17.5592 42.3895 17.571C42.1717 17.5994 41.9681 17.6456 41.7787 17.7095C41.5917 17.7711 41.4402 17.8646 41.3242 17.9901C41.2105 18.1132 41.1537 18.2812 41.1537 18.4943C41.1537 18.7855 41.2614 19.0057 41.4769 19.1548C41.6947 19.3016 41.9705 19.375 42.3043 19.375ZM46.1061 14.5455H46.9442V19.2188H49.0038V14.5455H49.8419V19.2188H51.9016V14.5455H52.7396V20H46.1061V14.5455ZM56.4571 20.1136C55.9315 20.1136 55.4782 19.9976 55.097 19.7656C54.7182 19.5312 54.4259 19.2045 54.2199 18.7855C54.0163 18.3641 53.9145 17.8741 53.9145 17.3153C53.9145 16.7566 54.0163 16.2642 54.2199 15.8381C54.4259 15.4096 54.7123 15.0758 55.0793 14.8366C55.4486 14.5952 55.8795 14.4744 56.3719 14.4744C56.656 14.4744 56.9365 14.5218 57.2135 14.6165C57.4905 14.7112 57.7426 14.8651 57.9699 15.0781C58.1972 15.2888 58.3783 15.5682 58.5132 15.9162C58.6482 16.2642 58.7156 16.6927 58.7156 17.2017V17.5568H54.5111V16.8324H57.8634C57.8634 16.5246 57.8018 16.25 57.6787 16.0085C57.558 15.767 57.3851 15.5765 57.1602 15.4368C56.9377 15.2971 56.6749 15.2273 56.3719 15.2273C56.0381 15.2273 55.7492 15.3101 55.5054 15.4759C55.2639 15.6392 55.0781 15.8523 54.9479 16.1151C54.8177 16.3778 54.7526 16.6596 54.7526 16.9602V17.4432C54.7526 17.8551 54.8236 18.2043 54.9656 18.4908C55.11 18.7749 55.3101 18.9915 55.5658 19.1406C55.8215 19.2874 56.1186 19.3608 56.4571 19.3608C56.6773 19.3608 56.8761 19.33 57.0537 19.2685C57.2336 19.2045 57.3887 19.1098 57.5189 18.9844C57.6491 18.8565 57.7497 18.6979 57.8207 18.5085L58.6304 18.7358C58.5452 19.0104 58.4019 19.2519 58.2007 19.4602C57.9995 19.6662 57.7509 19.8272 57.455 19.9432C57.159 20.0568 56.8264 20.1136 56.4571 20.1136ZM63.5411 16.8892V17.6705H60.5297V16.8892H63.5411ZM60.7286 14.5455V20H59.8905V14.5455H60.7286ZM64.1803 14.5455V20H63.3422V14.5455H64.1803ZM66.4489 18.7642L69.0767 14.5455H70.0426V20H69.2045V15.7812L66.5909 20H65.6108V14.5455H66.4489V18.7642ZM73.7645 20.1136C73.239 20.1136 72.7856 19.9976 72.4044 19.7656C72.0257 19.5312 71.7333 19.2045 71.5273 18.7855C71.3237 18.3641 71.2219 17.8741 71.2219 17.3153C71.2219 16.7566 71.3237 16.2642 71.5273 15.8381C71.7333 15.4096 72.0197 15.0758 72.3867 14.8366C72.756 14.5952 73.1869 14.4744 73.6793 14.4744C73.9634 14.4744 74.2439 14.5218 74.5209 14.6165C74.7979 14.7112 75.05 14.8651 75.2773 15.0781C75.5046 15.2888 75.6857 15.5682 75.8206 15.9162C75.9556 16.2642 76.023 16.6927 76.023 17.2017V17.5568H71.8185V16.8324H75.1708C75.1708 16.5246 75.1092 16.25 74.9861 16.0085C74.8654 15.767 74.6926 15.5765 74.4677 15.4368C74.2451 15.2971 73.9823 15.2273 73.6793 15.2273C73.3455 15.2273 73.0567 15.3101 72.8128 15.4759C72.5713 15.6392 72.3855 15.8523 72.2553 16.1151C72.1251 16.3778 72.06 16.6596 72.06 16.9602V17.4432C72.06 17.8551 72.131 18.2043 72.273 18.4908C72.4175 18.7749 72.6175 18.9915 72.8732 19.1406C73.1289 19.2874 73.426 19.3608 73.7645 19.3608C73.9847 19.3608 74.1836 19.33 74.3611 19.2685C74.541 19.2045 74.6961 19.1098 74.8263 18.9844C74.9565 18.8565 75.0571 18.6979 75.1282 18.5085L75.9378 18.7358C75.8526 19.0104 75.7094 19.2519 75.5081 19.4602C75.3069 19.6662 75.0583 19.8272 74.7624 19.9432C74.4665 20.0568 74.1338 20.1136 73.7645 20.1136ZM80.1809 18.8636L82.0843 14.5455H82.8797L80.5218 20H79.84L77.5246 14.5455H78.3059L80.1809 18.8636ZM78.036 14.5455V20H77.1979V14.5455H78.036ZM82.3257 20V14.5455H83.1638V20H82.3257ZM88.1485 18.7642L90.7763 14.5455H91.7422V20H90.9042V15.7812L88.2905 20H87.3104V14.5455H88.1485V18.7642ZM95.8897 20V14.5455H100.179V20H99.3414V15.3267H96.7278V20H95.8897ZM103.826 20.1136C103.334 20.1136 102.901 19.9964 102.53 19.7621C102.16 19.5277 101.872 19.1998 101.663 18.7784C101.457 18.357 101.354 17.8646 101.354 17.3011C101.354 16.733 101.457 16.237 101.663 15.8132C101.872 15.3894 102.16 15.0604 102.53 14.826C102.901 14.5916 103.334 14.4744 103.826 14.4744C104.318 14.4744 104.749 14.5916 105.119 14.826C105.49 15.0604 105.779 15.3894 105.985 15.8132C106.193 16.237 106.298 16.733 106.298 17.3011C106.298 17.8646 106.193 18.357 105.985 18.7784C105.779 19.1998 105.49 19.5277 105.119 19.7621C104.749 19.9964 104.318 20.1136 103.826 20.1136ZM103.826 19.3608C104.2 19.3608 104.508 19.2649 104.749 19.0732C104.991 18.8814 105.169 18.6293 105.285 18.3168C105.401 18.0043 105.459 17.6657 105.459 17.3011C105.459 16.9366 105.401 16.5968 105.285 16.282C105.169 15.9671 104.991 15.7126 104.749 15.5185C104.508 15.3243 104.2 15.2273 103.826 15.2273C103.452 15.2273 103.144 15.3243 102.903 15.5185C102.661 15.7126 102.482 15.9671 102.366 16.282C102.25 16.5968 102.192 16.9366 102.192 17.3011C102.192 17.6657 102.25 18.0043 102.366 18.3168C102.482 18.6293 102.661 18.8814 102.903 19.0732C103.144 19.2649 103.452 19.3608 103.826 19.3608ZM106.994 20V19.2188H107.193C107.356 19.2188 107.492 19.1868 107.601 19.1229C107.71 19.0566 107.798 18.9418 107.864 18.7784C107.933 18.6127 107.985 18.383 108.02 18.0895C108.058 17.7936 108.085 17.4171 108.102 16.9602L108.201 14.5455H111.838V20H111V15.3267H108.997L108.911 17.2727C108.893 17.7202 108.852 18.1143 108.791 18.4553C108.732 18.7938 108.64 19.0779 108.517 19.3075C108.397 19.5372 108.236 19.71 108.034 19.826C107.833 19.942 107.581 20 107.278 20H106.994ZM114.113 18.7642L116.741 14.5455H117.707V20H116.869V15.7812L114.255 20H113.275V14.5455H114.113V18.7642ZM118.4 15.3267V14.5455H122.832V15.3267H121.042V20H120.204V15.3267H118.4ZM124.792 18.7642L127.42 14.5455H128.386V20H127.548V15.7812L124.934 20H123.954V14.5455H124.792V18.7642ZM129.821 20V14.5455H130.659V16.9176H131.213L133.173 14.5455H134.253L132.051 17.1733L134.281 20H133.202L131.412 17.6989H130.659V20H129.821ZM137.083 20.1136C136.591 20.1136 136.159 19.9964 135.787 19.7621C135.418 19.5277 135.129 19.1998 134.921 18.7784C134.715 18.357 134.612 17.8646 134.612 17.3011C134.612 16.733 134.715 16.237 134.921 15.8132C135.129 15.3894 135.418 15.0604 135.787 14.826C136.159 14.5916 136.591 14.4744 137.083 14.4744C137.576 14.4744 138.007 14.5916 138.376 14.826C138.748 15.0604 139.036 15.3894 139.242 15.8132C139.451 16.237 139.555 16.733 139.555 17.3011C139.555 17.8646 139.451 18.357 139.242 18.7784C139.036 19.1998 138.748 19.5277 138.376 19.7621C138.007 19.9964 137.576 20.1136 137.083 20.1136ZM137.083 19.3608C137.457 19.3608 137.765 19.2649 138.007 19.0732C138.248 18.8814 138.427 18.6293 138.543 18.3168C138.659 18.0043 138.717 17.6657 138.717 17.3011C138.717 16.9366 138.659 16.5968 138.543 16.282C138.427 15.9671 138.248 15.7126 138.007 15.5185C137.765 15.3243 137.457 15.2273 137.083 15.2273C136.709 15.2273 136.402 15.3243 136.16 15.5185C135.919 15.7126 135.74 15.9671 135.624 16.282C135.508 16.5968 135.45 16.9366 135.45 17.3011C135.45 17.6657 135.508 18.0043 135.624 18.3168C135.74 18.6293 135.919 18.8814 136.16 19.0732C136.402 19.2649 136.709 19.3608 137.083 19.3608ZM141.572 18.7642L144.2 14.5455H145.166V20H144.328V15.7812L141.714 20H140.734V14.5455H141.572V18.7642ZM143.646 12.7273H144.427C144.427 13.1108 144.295 13.4245 144.03 13.6683C143.765 13.9122 143.405 14.0341 142.95 14.0341C142.503 14.0341 142.146 13.9122 141.881 13.6683C141.618 13.4245 141.487 13.1108 141.487 12.7273H142.268C142.268 12.9119 142.319 13.0741 142.421 13.2138C142.525 13.3535 142.702 13.4233 142.95 13.4233C143.199 13.4233 143.376 13.3535 143.483 13.2138C143.592 13.0741 143.646 12.9119 143.646 12.7273ZM149.314 20V14.5455H150.152V16.9176H150.706L152.666 14.5455H153.745L151.544 17.1733L153.774 20H152.694L150.904 17.6989H150.152V20H149.314ZM156.576 20.1136C156.084 20.1136 155.651 19.9964 155.28 19.7621C154.91 19.5277 154.622 19.1998 154.413 18.7784C154.207 18.357 154.104 17.8646 154.104 17.3011C154.104 16.733 154.207 16.237 154.413 15.8132C154.622 15.3894 154.91 15.0604 155.28 14.826C155.651 14.5916 156.084 14.4744 156.576 14.4744C157.068 14.4744 157.499 14.5916 157.869 14.826C158.24 15.0604 158.529 15.3894 158.735 15.8132C158.943 16.237 159.048 16.733 159.048 17.3011C159.048 17.8646 158.943 18.357 158.735 18.7784C158.529 19.1998 158.24 19.5277 157.869 19.7621C157.499 19.9964 157.068 20.1136 156.576 20.1136ZM156.576 19.3608C156.95 19.3608 157.258 19.2649 157.499 19.0732C157.741 18.8814 157.919 18.6293 158.035 18.3168C158.151 18.0043 158.209 17.6657 158.209 17.3011C158.209 16.9366 158.151 16.5968 158.035 16.282C157.919 15.9671 157.741 15.7126 157.499 15.5185C157.258 15.3243 156.95 15.2273 156.576 15.2273C156.202 15.2273 155.894 15.3243 155.653 15.5185C155.411 15.7126 155.232 15.9671 155.116 16.282C155 16.5968 154.942 16.9366 154.942 17.3011C154.942 17.6657 155 18.0043 155.116 18.3168C155.232 18.6293 155.411 18.8814 155.653 19.0732C155.894 19.2649 156.202 19.3608 156.576 19.3608ZM163.877 16.8892V17.6705H160.866V16.8892H163.877ZM161.065 14.5455V20H160.227V14.5455H161.065ZM164.517 14.5455V20H163.679V14.5455H164.517ZM168.163 21.8608V12.7273H169.001V21.8608H168.163ZM168.163 20.1136C167.794 20.1136 167.458 20.0473 167.155 19.9148C166.851 19.7798 166.591 19.5893 166.373 19.343C166.155 19.0945 165.987 18.7973 165.869 18.4517C165.751 18.1061 165.691 17.7225 165.691 17.3011C165.691 16.875 165.751 16.4891 165.869 16.1435C165.987 15.7955 166.155 15.4972 166.373 15.2486C166.591 15 166.851 14.8094 167.155 14.6768C167.458 14.5419 167.794 14.4744 168.163 14.4744H168.419V20.1136H168.163ZM168.163 19.3608H168.305V15.2273H168.163C167.884 15.2273 167.641 15.2841 167.435 15.3977C167.229 15.509 167.059 15.6617 166.924 15.8558C166.791 16.0476 166.692 16.2678 166.625 16.5163C166.561 16.7649 166.53 17.0265 166.53 17.3011C166.53 17.6657 166.588 18.0043 166.704 18.3168C166.82 18.6293 166.998 18.8814 167.24 19.0732C167.481 19.2649 167.789 19.3608 168.163 19.3608ZM169.001 20.1136H168.745V14.4744H169.001C169.37 14.4744 169.707 14.5419 170.01 14.6768C170.313 14.8094 170.573 15 170.791 15.2486C171.009 15.4972 171.177 15.7955 171.295 16.1435C171.414 16.4891 171.473 16.875 171.473 17.3011C171.473 17.7225 171.414 18.1061 171.295 18.4517C171.177 18.7973 171.009 19.0945 170.791 19.343C170.573 19.5893 170.313 19.7798 170.01 19.9148C169.707 20.0473 169.37 20.1136 169.001 20.1136ZM169.001 19.3608C169.283 19.3608 169.525 19.3063 169.729 19.1974C169.935 19.0862 170.104 18.9347 170.237 18.7429C170.372 18.5488 170.471 18.3286 170.535 18.0824C170.601 17.8338 170.635 17.5734 170.635 17.3011C170.635 16.9366 170.577 16.5968 170.461 16.282C170.345 15.9671 170.166 15.7126 169.924 15.5185C169.683 15.3243 169.375 15.2273 169.001 15.2273H168.859V19.3608H169.001ZM173.492 18.7642L176.12 14.5455H177.086V20H176.248V15.7812L173.634 20H172.654V14.5455H173.492V18.7642ZM177.938 21.5625V19.2188H178.393C178.504 19.1027 178.6 18.9773 178.68 18.8423C178.761 18.7074 178.831 18.5476 178.89 18.3629C178.951 18.1759 179.004 17.9486 179.046 17.6811C179.089 17.4112 179.127 17.0857 179.16 16.7045L179.344 14.5455H182.81V19.2188H183.648V21.5625H182.81V20H178.776V21.5625H177.938ZM179.344 19.2188H181.972V15.3267H180.126L179.984 16.7045C179.924 17.2751 179.851 17.7734 179.763 18.1996C179.676 18.6257 179.536 18.9654 179.344 19.2188ZM186.948 20.1136C186.422 20.1136 185.969 19.9976 185.588 19.7656C185.209 19.5312 184.916 19.2045 184.711 18.7855C184.507 18.3641 184.405 17.8741 184.405 17.3153C184.405 16.7566 184.507 16.2642 184.711 15.8381C184.916 15.4096 185.203 15.0758 185.57 14.8366C185.939 14.5952 186.37 14.4744 186.863 14.4744C187.147 14.4744 187.427 14.5218 187.704 14.6165C187.981 14.7112 188.233 14.8651 188.461 15.0781C188.688 15.2888 188.869 15.5682 189.004 15.9162C189.139 16.2642 189.206 16.6927 189.206 17.2017V17.5568H185.002V16.8324H188.354C188.354 16.5246 188.292 16.25 188.169 16.0085C188.049 15.767 187.876 15.5765 187.651 15.4368C187.428 15.2971 187.166 15.2273 186.863 15.2273C186.529 15.2273 186.24 15.3101 185.996 15.4759C185.755 15.6392 185.569 15.8523 185.438 16.1151C185.308 16.3778 185.243 16.6596 185.243 16.9602V17.4432C185.243 17.8551 185.314 18.2043 185.456 18.4908C185.601 18.7749 185.801 18.9915 186.056 19.1406C186.312 19.2874 186.609 19.3608 186.948 19.3608C187.168 19.3608 187.367 19.33 187.544 19.2685C187.724 19.2045 187.879 19.1098 188.01 18.9844C188.14 18.8565 188.24 18.6979 188.311 18.5085L189.121 18.7358C189.036 19.0104 188.893 19.2519 188.691 19.4602C188.49 19.6662 188.242 19.8272 187.946 19.9432C187.65 20.0568 187.317 20.1136 186.948 20.1136ZM194.032 16.8892V17.6705H191.02V16.8892H194.032ZM191.219 14.5455V20H190.381V14.5455H191.219ZM194.671 14.5455V20H193.833V14.5455H194.671ZM200.391 14.5455V19.2188H201.158V21.7614H200.32V20H196.101V14.5455H196.939V19.2188H199.553V14.5455H200.391ZM203.187 18.7642L205.815 14.5455H206.781V20H205.943V15.7812L203.329 20H202.349V14.5455H203.187V18.7642ZM209.821 20.1278C209.475 20.1278 209.162 20.0627 208.88 19.9325C208.598 19.8 208.375 19.6094 208.209 19.3608C208.043 19.1098 207.96 18.8068 207.96 18.4517C207.96 18.1392 208.022 17.8859 208.145 17.6918C208.268 17.4953 208.433 17.3414 208.638 17.2301C208.844 17.1188 209.072 17.036 209.32 16.9815C209.571 16.9247 209.823 16.8797 210.077 16.8466C210.408 16.804 210.677 16.772 210.883 16.7507C211.091 16.727 211.243 16.688 211.337 16.6335C211.434 16.5791 211.483 16.4844 211.483 16.3494V16.321C211.483 15.9706 211.387 15.6984 211.195 15.5043C211.006 15.3101 210.718 15.2131 210.332 15.2131C209.932 15.2131 209.619 15.3007 209.391 15.4759C209.164 15.651 209.004 15.8381 208.912 16.0369L208.116 15.7528C208.258 15.4214 208.448 15.1634 208.685 14.9787C208.924 14.7917 209.184 14.6615 209.466 14.5881C209.75 14.5123 210.029 14.4744 210.304 14.4744C210.479 14.4744 210.68 14.4957 210.908 14.5384C211.137 14.5786 211.359 14.6626 211.572 14.7905C211.787 14.9183 211.966 15.1113 212.108 15.3693C212.25 15.6274 212.321 15.973 212.321 16.4062V20H211.483V19.2614H211.44C211.383 19.3797 211.289 19.5064 211.156 19.6413C211.024 19.7763 210.847 19.8911 210.627 19.9858C210.407 20.0805 210.138 20.1278 209.821 20.1278ZM209.949 19.375C210.28 19.375 210.56 19.3099 210.787 19.1797C211.017 19.0495 211.189 18.8814 211.305 18.6754C211.424 18.4695 211.483 18.2528 211.483 18.0256V17.2585C211.447 17.3011 211.369 17.3402 211.249 17.3757C211.13 17.4089 210.993 17.4384 210.837 17.4645C210.683 17.4882 210.532 17.5095 210.386 17.5284C210.241 17.545 210.124 17.5592 210.034 17.571C209.816 17.5994 209.613 17.6456 209.423 17.7095C209.236 17.7711 209.085 17.8646 208.969 17.9901C208.855 18.1132 208.798 18.2812 208.798 18.4943C208.798 18.7855 208.906 19.0057 209.121 19.1548C209.339 19.3016 209.615 19.375 209.949 19.375ZM213.268 20V19.2188H213.467C213.63 19.2188 213.766 19.1868 213.875 19.1229C213.984 19.0566 214.071 18.9418 214.138 18.7784C214.206 18.6127 214.258 18.383 214.294 18.0895C214.332 17.7936 214.359 17.4171 214.376 16.9602L214.475 14.5455H218.111V20H217.273V15.3267H215.271L215.185 17.2727C215.166 17.7202 215.126 18.1143 215.065 18.4553C215.005 18.7938 214.914 19.0779 214.791 19.3075C214.67 19.5372 214.509 19.71 214.308 19.826C214.107 19.942 213.855 20 213.552 20H213.268ZM220.274 16.5199H221.836C222.475 16.5199 222.964 16.6821 223.303 17.0064C223.641 17.3307 223.81 17.7415 223.81 18.2386C223.81 18.5653 223.735 18.8625 223.583 19.13C223.432 19.3951 223.209 19.607 222.916 19.7656C222.622 19.9219 222.262 20 221.836 20H219.549V14.5455H220.387V19.2188H221.836C222.167 19.2188 222.44 19.1312 222.653 18.956C222.866 18.7808 222.972 18.5559 222.972 18.2812C222.972 17.9924 222.866 17.7569 222.653 17.5746C222.44 17.3923 222.167 17.3011 221.836 17.3011H220.274V16.5199ZM228.637 16.8892V17.6705H225.625V16.8892H228.637ZM225.824 14.5455V20H224.986V14.5455H225.824ZM229.276 14.5455V20H228.438V14.5455H229.276ZM232.922 20.1136C232.43 20.1136 231.998 19.9964 231.626 19.7621C231.257 19.5277 230.968 19.1998 230.76 18.7784C230.554 18.357 230.451 17.8646 230.451 17.3011C230.451 16.733 230.554 16.237 230.76 15.8132C230.968 15.3894 231.257 15.0604 231.626 14.826C231.998 14.5916 232.43 14.4744 232.922 14.4744C233.415 14.4744 233.846 14.5916 234.215 14.826C234.587 15.0604 234.876 15.3894 235.081 15.8132C235.29 16.237 235.394 16.733 235.394 17.3011C235.394 17.8646 235.29 18.357 235.081 18.7784C234.876 19.1998 234.587 19.5277 234.215 19.7621C233.846 19.9964 233.415 20.1136 232.922 20.1136ZM232.922 19.3608C233.296 19.3608 233.604 19.2649 233.846 19.0732C234.087 18.8814 234.266 18.6293 234.382 18.3168C234.498 18.0043 234.556 17.6657 234.556 17.3011C234.556 16.9366 234.498 16.5968 234.382 16.282C234.266 15.9671 234.087 15.7126 233.846 15.5185C233.604 15.3243 233.296 15.2273 232.922 15.2273C232.548 15.2273 232.241 15.3243 231.999 15.5185C231.758 15.7126 231.579 15.9671 231.463 16.282C231.347 16.5968 231.289 16.9366 231.289 17.3011C231.289 17.6657 231.347 18.0043 231.463 18.3168C231.579 18.6293 231.758 18.8814 231.999 19.0732C232.241 19.2649 232.548 19.3608 232.922 19.3608ZM238.789 20.1136C238.278 20.1136 237.838 19.9929 237.468 19.7514C237.099 19.5099 236.815 19.1773 236.616 18.7536C236.417 18.3298 236.318 17.8456 236.318 17.3011C236.318 16.7472 236.419 16.2583 236.623 15.8345C236.829 15.4084 237.115 15.0758 237.482 14.8366C237.852 14.5952 238.283 14.4744 238.775 14.4744C239.159 14.4744 239.504 14.5455 239.812 14.6875C240.12 14.8295 240.372 15.0284 240.568 15.2841C240.765 15.5398 240.887 15.8381 240.934 16.179H240.096C240.032 15.9304 239.89 15.7102 239.67 15.5185C239.452 15.3243 239.159 15.2273 238.789 15.2273C238.463 15.2273 238.176 15.3125 237.93 15.483C237.686 15.651 237.495 15.889 237.358 16.1967C237.223 16.5021 237.156 16.8608 237.156 17.2727C237.156 17.6941 237.222 18.0611 237.355 18.3736C237.489 18.6861 237.679 18.9287 237.923 19.1016C238.169 19.2744 238.458 19.3608 238.789 19.3608C239.007 19.3608 239.205 19.3229 239.382 19.2472C239.56 19.1714 239.71 19.0625 239.833 18.9205C239.956 18.7784 240.044 18.608 240.096 18.4091H240.934C240.887 18.7311 240.77 19.0211 240.583 19.2791C240.398 19.5348 240.153 19.7384 239.847 19.8899C239.544 20.0391 239.192 20.1136 238.789 20.1136ZM241.63 15.3267V14.5455H246.061V15.3267H244.272V20H243.434V15.3267H241.63ZM248.022 18.7642L250.65 14.5455H251.616V20H250.778V15.7812L248.164 20H247.184V14.5455H248.022V18.7642Z" fill="#4293EF"/>
</svg>
