<svg width="337" height="51" viewBox="0 0 337 51" fill="none" xmlns="http://www.w3.org/2000/svg">
<path d="M1.60478 6.2V10.01H6.70478V11H0.554782V0.499999H6.62978V1.49H1.60478V5.21H6.25478V6.2H1.60478ZM11.5574 11.18C10.4274 11.18 9.4874 10.805 8.7374 10.055C7.9874 9.285 7.6124 8.35 7.6124 7.25C7.6124 6.14 7.9874 5.21 8.7374 4.46C9.4874 3.7 10.4274 3.32 11.5574 3.32C12.2974 3.32 12.9624 3.5 13.5524 3.86C14.1424 4.21 14.5724 4.685 14.8424 5.285L14.0324 5.75C13.8324 5.3 13.5074 4.945 13.0574 4.685C12.6174 4.415 12.1174 4.28 11.5574 4.28C10.7274 4.28 10.0274 4.57 9.4574 5.15C8.8874 5.72 8.6024 6.42 8.6024 7.25C8.6024 8.07 8.8874 8.775 9.4574 9.365C10.0274 9.935 10.7274 10.22 11.5574 10.22C12.1074 10.22 12.6024 10.09 13.0424 9.83C13.4924 9.57 13.8424 9.21 14.0924 8.75L14.9174 9.23C14.6074 9.83 14.1524 10.305 13.5524 10.655C12.9524 11.005 12.2874 11.18 11.5574 11.18ZM16.8223 3.5H22.1923V11H21.2023V4.46H17.8123V7.805C17.8123 9.055 17.5723 9.915 17.0923 10.385C16.6223 10.855 15.9723 11.06 15.1423 11V10.07C15.7223 10.13 16.1473 9.99 16.4173 9.65C16.6873 9.31 16.8223 8.695 16.8223 7.805V3.5ZM25.1294 9.275L29.5994 3.5H30.4394V11H29.4494V5.225L24.9794 11H24.1394V3.5H25.1294V9.275ZM38.9529 9.785L41.3829 3.5H42.4329L39.2229 11.69C38.9229 12.45 38.5029 13.035 37.9629 13.445C37.4329 13.865 36.8429 14.05 36.1929 14V13.07C37.0929 13.18 37.7779 12.66 38.2479 11.51L38.4429 11.045L35.0829 3.5H36.1329L38.9529 9.785ZM48.2494 7.145C49.0694 7.445 49.4794 8.03 49.4794 8.9C49.4794 9.52 49.2694 10.025 48.8494 10.415C48.4394 10.805 47.8644 11 47.1244 11H43.4794V3.5H46.8244C47.5444 3.5 48.1044 3.685 48.5044 4.055C48.9144 4.425 49.1194 4.91 49.1194 5.51C49.1194 6.26 48.8294 6.805 48.2494 7.145ZM46.8244 4.46H44.4694V6.74H46.8244C47.6944 6.74 48.1294 6.35 48.1294 5.57C48.1294 5.22 48.0144 4.95 47.7844 4.76C47.5644 4.56 47.2444 4.46 46.8244 4.46ZM44.4694 10.04H47.1244C47.5644 10.04 47.8994 9.935 48.1294 9.725C48.3694 9.515 48.4894 9.22 48.4894 8.84C48.4894 8.48 48.3694 8.2 48.1294 8C47.8994 7.8 47.5644 7.7 47.1244 7.7H44.4694V10.04ZM54.2944 3.32C55.4144 3.32 56.3094 3.715 56.9794 4.505C57.6694 5.285 58.0144 6.21 58.0144 7.28C58.0144 7.33 58.0044 7.485 57.9844 7.745H51.3994C51.4994 8.495 51.8194 9.095 52.3594 9.545C52.8994 9.995 53.5744 10.22 54.3844 10.22C55.5244 10.22 56.3294 9.795 56.7994 8.945L57.6694 9.455C57.3394 9.995 56.8844 10.42 56.3044 10.73C55.7344 11.03 55.0894 11.18 54.3694 11.18C53.1894 11.18 52.2294 10.81 51.4894 10.07C50.7494 9.33 50.3794 8.39 50.3794 7.25C50.3794 6.12 50.7444 5.185 51.4744 4.445C52.2044 3.695 53.1444 3.32 54.2944 3.32ZM54.2944 4.28C53.5144 4.28 52.8594 4.51 52.3294 4.97C51.8094 5.43 51.4994 6.035 51.3994 6.785H56.9944C56.8844 5.985 56.5794 5.37 56.0794 4.94C55.5594 4.5 54.9644 4.28 54.2944 4.28ZM65.4462 3.5V10.04H66.4962V13.01H65.5062V11H59.3862V13.01H58.3962V10.04H59.3112C59.8212 9.36 60.0762 8.415 60.0762 7.205V3.5H65.4462ZM60.5112 10.04H64.4562V4.46H61.0662V7.205C61.0662 8.365 60.8812 9.31 60.5112 10.04ZM73.8359 10.055C73.0659 10.805 72.1359 11.18 71.0459 11.18C69.9359 11.18 69.0009 10.805 68.2409 10.055C67.4809 9.295 67.1009 8.36 67.1009 7.25C67.1009 6.14 67.4809 5.21 68.2409 4.46C69.0009 3.7 69.9359 3.32 71.0459 3.32C72.1459 3.32 73.0759 3.7 73.8359 4.46C74.6059 5.21 74.9909 6.14 74.9909 7.25C74.9909 8.35 74.6059 9.285 73.8359 10.055ZM68.9459 9.365C69.5159 9.935 70.2159 10.22 71.0459 10.22C71.8759 10.22 72.5759 9.935 73.1459 9.365C73.7159 8.775 74.0009 8.07 74.0009 7.25C74.0009 6.42 73.7159 5.72 73.1459 5.15C72.5759 4.57 71.8759 4.28 71.0459 4.28C70.2159 4.28 69.5159 4.57 68.9459 5.15C68.3759 5.72 68.0909 6.42 68.0909 7.25C68.0909 8.07 68.3759 8.775 68.9459 9.365ZM82.7076 3.5H83.8476V11H82.8576V5.015L80.2326 9.275H80.1126L77.4876 5.015V11H76.4976V3.5H77.6376L80.1726 7.61L82.7076 3.5ZM86.5758 3.5H91.9458V11H90.9558V4.46H87.5658V7.805C87.5658 9.055 87.3258 9.915 86.8458 10.385C86.3758 10.855 85.7258 11.06 84.8958 11V10.07C85.4758 10.13 85.9008 9.99 86.1708 9.65C86.4408 9.31 86.5758 8.695 86.5758 7.805V3.5ZM97.3579 3.32C98.4779 3.32 99.3729 3.715 100.043 4.505C100.733 5.285 101.078 6.21 101.078 7.28C101.078 7.33 101.068 7.485 101.048 7.745H94.4629C94.5629 8.495 94.8829 9.095 95.4229 9.545C95.9629 9.995 96.6379 10.22 97.4479 10.22C98.5879 10.22 99.3929 9.795 99.8629 8.945L100.733 9.455C100.403 9.995 99.9479 10.42 99.3679 10.73C98.7979 11.03 98.1529 11.18 97.4329 11.18C96.2529 11.18 95.2929 10.81 94.5529 10.07C93.8129 9.33 93.4429 8.39 93.4429 7.25C93.4429 6.12 93.8079 5.185 94.5379 4.445C95.2679 3.695 96.2079 3.32 97.3579 3.32ZM97.3579 4.28C96.5779 4.28 95.9229 4.51 95.3929 4.97C94.8729 5.43 94.5629 6.035 94.4629 6.785H100.058C99.9479 5.985 99.6429 5.37 99.1429 4.94C98.6229 4.5 98.0279 4.28 97.3579 4.28ZM107.813 6.77V3.5H108.803V11H107.813V7.73H103.493V11H102.503V3.5H103.493V6.77H107.813ZM111.736 9.275L116.206 3.5H117.046V11H116.056V5.225L111.586 11H110.746V3.5H111.736V9.275ZM122.455 3.32C123.575 3.32 124.47 3.715 125.14 4.505C125.83 5.285 126.175 6.21 126.175 7.28C126.175 7.33 126.165 7.485 126.145 7.745H119.56C119.66 8.495 119.98 9.095 120.52 9.545C121.06 9.995 121.735 10.22 122.545 10.22C123.685 10.22 124.49 9.795 124.96 8.945L125.83 9.455C125.5 9.995 125.045 10.42 124.465 10.73C123.895 11.03 123.25 11.18 122.53 11.18C121.35 11.18 120.39 10.81 119.65 10.07C118.91 9.33 118.54 8.39 118.54 7.25C118.54 6.12 118.905 5.185 119.635 4.445C120.365 3.695 121.305 3.32 122.455 3.32ZM122.455 4.28C121.675 4.28 121.02 4.51 120.49 4.97C119.97 5.43 119.66 6.035 119.56 6.785H125.155C125.045 5.985 124.74 5.37 124.24 4.94C123.72 4.5 123.125 4.28 122.455 4.28ZM136.51 6.77V3.5H137.5V11H136.51V7.73H132.19V11H131.2V3.5H132.19V6.77H136.51ZM142.908 3.32C144.028 3.32 144.923 3.715 145.593 4.505C146.283 5.285 146.628 6.21 146.628 7.28C146.628 7.33 146.618 7.485 146.598 7.745H140.013C140.113 8.495 140.433 9.095 140.973 9.545C141.513 9.995 142.188 10.22 142.998 10.22C144.138 10.22 144.943 9.795 145.413 8.945L146.283 9.455C145.953 9.995 145.498 10.42 144.918 10.73C144.348 11.03 143.703 11.18 142.983 11.18C141.803 11.18 140.843 10.81 140.103 10.07C139.363 9.33 138.993 8.39 138.993 7.25C138.993 6.12 139.358 5.185 140.088 4.445C140.818 3.695 141.758 3.32 142.908 3.32ZM142.908 4.28C142.128 4.28 141.473 4.51 140.943 4.97C140.423 5.43 140.113 6.035 140.013 6.785H145.608C145.498 5.985 145.193 5.37 144.693 4.94C144.173 4.5 143.578 4.28 142.908 4.28ZM151.653 3.5H157.953V11H156.963V4.46H152.643V11H151.653V3.5ZM163.916 3.32C164.986 3.32 165.896 3.7 166.646 4.46C167.406 5.22 167.786 6.15 167.786 7.25C167.786 8.35 167.406 9.28 166.646 10.04C165.896 10.8 164.986 11.18 163.916 11.18C162.586 11.18 161.576 10.63 160.886 9.53V14H159.896V3.5H160.886V4.97C161.576 3.87 162.586 3.32 163.916 3.32ZM161.741 9.365C162.311 9.935 163.011 10.22 163.841 10.22C164.671 10.22 165.371 9.935 165.941 9.365C166.511 8.775 166.796 8.07 166.796 7.25C166.796 6.42 166.511 5.72 165.941 5.15C165.371 4.57 164.671 4.28 163.841 4.28C163.011 4.28 162.311 4.57 161.741 5.15C161.171 5.72 160.886 6.42 160.886 7.25C160.886 8.07 161.171 8.775 161.741 9.365ZM170.273 9.275L174.743 3.5H175.583V11H174.593V5.225L170.123 11H169.283V3.5H170.273V9.275ZM180.901 7.115L183.826 11H182.641L180.301 7.91L177.961 11H176.776L179.716 7.115L176.971 3.5H178.156L180.301 6.335L182.446 3.5H183.631L180.901 7.115ZM190.78 10.055C190.01 10.805 189.08 11.18 187.99 11.18C186.88 11.18 185.945 10.805 185.185 10.055C184.425 9.295 184.045 8.36 184.045 7.25C184.045 6.14 184.425 5.21 185.185 4.46C185.945 3.7 186.88 3.32 187.99 3.32C189.09 3.32 190.02 3.7 190.78 4.46C191.55 5.21 191.935 6.14 191.935 7.25C191.935 8.35 191.55 9.285 190.78 10.055ZM185.89 9.365C186.46 9.935 187.16 10.22 187.99 10.22C188.82 10.22 189.52 9.935 190.09 9.365C190.66 8.775 190.945 8.07 190.945 7.25C190.945 6.42 190.66 5.72 190.09 5.15C189.52 4.57 188.82 4.28 187.99 4.28C187.16 4.28 186.46 4.57 185.89 5.15C185.32 5.72 185.035 6.42 185.035 7.25C185.035 8.07 185.32 8.775 185.89 9.365ZM199.449 3.5V10.04H200.499V13.01H199.509V11H193.389V13.01H192.399V10.04H193.314C193.824 9.36 194.079 8.415 194.079 7.205V3.5H199.449ZM194.514 10.04H198.459V4.46H195.069V7.205C195.069 8.365 194.884 9.31 194.514 10.04ZM202.837 9.275L207.307 3.5H208.147V11H207.157V5.225L202.687 11H201.847V3.5H202.837V9.275ZM209.19 3.5H215.49V4.46H212.835V11H211.845V4.46H209.19V3.5ZM224.917 7.145C225.737 7.445 226.147 8.03 226.147 8.9C226.147 9.52 225.937 10.025 225.517 10.415C225.107 10.805 224.532 11 223.792 11H220.147V3.5H223.492C224.212 3.5 224.772 3.685 225.172 4.055C225.582 4.425 225.787 4.91 225.787 5.51C225.787 6.26 225.497 6.805 224.917 7.145ZM223.492 4.46H221.137V6.74H223.492C224.362 6.74 224.797 6.35 224.797 5.57C224.797 5.22 224.682 4.95 224.452 4.76C224.232 4.56 223.912 4.46 223.492 4.46ZM221.137 10.04H223.792C224.232 10.04 224.567 9.935 224.797 9.725C225.037 9.515 225.157 9.22 225.157 8.84C225.157 8.48 225.037 8.2 224.797 8C224.567 7.8 224.232 7.7 223.792 7.7H221.137V10.04ZM230.197 3.5H236.497V4.46H233.842V11H232.852V4.46H230.197V3.5ZM240.725 3.32C241.845 3.32 242.74 3.715 243.41 4.505C244.1 5.285 244.445 6.21 244.445 7.28C244.445 7.33 244.435 7.485 244.415 7.745H237.83C237.93 8.495 238.25 9.095 238.79 9.545C239.33 9.995 240.005 10.22 240.815 10.22C241.955 10.22 242.76 9.795 243.23 8.945L244.1 9.455C243.77 9.995 243.315 10.42 242.735 10.73C242.165 11.03 241.52 11.18 240.8 11.18C239.62 11.18 238.66 10.81 237.92 10.07C237.18 9.33 236.81 8.39 236.81 7.25C236.81 6.12 237.175 5.185 237.905 4.445C238.635 3.695 239.575 3.32 240.725 3.32ZM240.725 4.28C239.945 4.28 239.29 4.51 238.76 4.97C238.24 5.43 237.93 6.035 237.83 6.785H243.425C243.315 5.985 243.01 5.37 242.51 4.94C241.99 4.5 241.395 4.28 240.725 4.28ZM250.73 7.235V3.5H251.72V11H250.73V8.15C250.15 8.45 249.435 8.6 248.585 8.6C247.595 8.6 246.845 8.375 246.335 7.925C245.825 7.465 245.57 6.79 245.57 5.9V3.5H246.56V5.9C246.56 6.52 246.72 6.97 247.04 7.25C247.37 7.53 247.875 7.67 248.555 7.67C249.315 7.67 250.04 7.525 250.73 7.235ZM257.139 3.32C258.259 3.32 259.154 3.715 259.824 4.505C260.514 5.285 260.859 6.21 260.859 7.28C260.859 7.33 260.849 7.485 260.829 7.745H254.244C254.344 8.495 254.664 9.095 255.204 9.545C255.744 9.995 256.419 10.22 257.229 10.22C258.369 10.22 259.174 9.795 259.644 8.945L260.514 9.455C260.184 9.995 259.729 10.42 259.149 10.73C258.579 11.03 257.934 11.18 257.214 11.18C256.034 11.18 255.074 10.81 254.334 10.07C253.594 9.33 253.224 8.39 253.224 7.25C253.224 6.12 253.589 5.185 254.319 4.445C255.049 3.695 255.989 3.32 257.139 3.32ZM257.139 4.28C256.359 4.28 255.704 4.51 255.174 4.97C254.654 5.43 254.344 6.035 254.244 6.785H259.839C259.729 5.985 259.424 5.37 258.924 4.94C258.404 4.5 257.809 4.28 257.139 4.28ZM267.594 6.77V3.5H268.584V11H267.594V7.73H263.274V11H262.284V3.5H263.274V6.77H267.594ZM271.517 9.275L275.987 3.5H276.827V11H275.837V5.225L271.367 11H270.527V3.5H271.517V9.275ZM279.761 9.275L284.231 3.5H285.071V11H284.081V5.225L279.611 11H278.771V3.5H279.761V9.275ZM296.464 1.49L294.019 4.865C294.849 4.965 295.539 5.29 296.089 5.84C296.639 6.36 296.914 7.065 296.914 7.955C296.914 8.945 296.569 9.735 295.879 10.325C295.209 10.895 294.379 11.18 293.389 11.18C292.599 11.18 291.899 11 291.289 10.64C290.679 10.27 290.254 9.755 290.014 9.095L290.884 8.585C291.054 9.095 291.354 9.485 291.784 9.755C292.224 10.025 292.759 10.16 293.389 10.16C294.129 10.16 294.724 9.965 295.174 9.575C295.634 9.175 295.864 8.635 295.864 7.955C295.864 7.275 295.634 6.74 295.174 6.35C294.724 5.95 294.129 5.75 293.389 5.75V5.735L293.374 5.75H293.089L292.639 5.06L295.249 1.49H290.314V0.499999H296.464V1.49ZM305.018 9.71C304.328 10.69 303.353 11.18 302.093 11.18C300.843 11.18 299.863 10.69 299.153 9.71C298.463 8.72 298.118 7.4 298.118 5.75C298.118 4.09 298.463 2.775 299.153 1.805C299.863 0.815 300.843 0.32 302.093 0.32C303.353 0.32 304.328 0.815 305.018 1.805C305.718 2.775 306.068 4.09 306.068 5.75C306.068 7.41 305.718 8.73 305.018 9.71ZM299.933 9.005C300.463 9.775 301.183 10.16 302.093 10.16C303.013 10.16 303.728 9.775 304.238 9.005C304.758 8.245 305.018 7.16 305.018 5.75C305.018 4.34 304.758 3.255 304.238 2.495C303.728 1.725 303.013 1.34 302.093 1.34C301.183 1.34 300.463 1.725 299.933 2.495C299.423 3.265 299.168 4.35 299.168 5.75C299.168 7.15 299.423 8.235 299.933 9.005ZM314.812 11.18C313.682 11.18 312.742 10.805 311.992 10.055C311.242 9.285 310.867 8.35 310.867 7.25C310.867 6.14 311.242 5.21 311.992 4.46C312.742 3.7 313.682 3.32 314.812 3.32C315.552 3.32 316.217 3.5 316.807 3.86C317.397 4.21 317.827 4.685 318.097 5.285L317.287 5.75C317.087 5.3 316.762 4.945 316.312 4.685C315.872 4.415 315.372 4.28 314.812 4.28C313.982 4.28 313.282 4.57 312.712 5.15C312.142 5.72 311.857 6.42 311.857 7.25C311.857 8.07 312.142 8.775 312.712 9.365C313.282 9.935 313.982 10.22 314.812 10.22C315.362 10.22 315.857 10.09 316.297 9.83C316.747 9.57 317.097 9.21 317.347 8.75L318.172 9.23C317.862 9.83 317.407 10.305 316.807 10.655C316.207 11.005 315.542 11.18 314.812 11.18ZM322.835 3.32C323.955 3.32 324.85 3.715 325.52 4.505C326.21 5.285 326.555 6.21 326.555 7.28C326.555 7.33 326.545 7.485 326.525 7.745H319.94C320.04 8.495 320.36 9.095 320.9 9.545C321.44 9.995 322.115 10.22 322.925 10.22C324.065 10.22 324.87 9.795 325.34 8.945L326.21 9.455C325.88 9.995 325.425 10.42 324.845 10.73C324.275 11.03 323.63 11.18 322.91 11.18C321.73 11.18 320.77 10.81 320.03 10.07C319.29 9.33 318.92 8.39 318.92 7.25C318.92 6.12 319.285 5.185 320.015 4.445C320.745 3.695 321.685 3.32 322.835 3.32ZM322.835 4.28C322.055 4.28 321.4 4.51 320.87 4.97C320.35 5.43 320.04 6.035 319.94 6.785H325.535C325.425 5.985 325.12 5.37 324.62 4.94C324.1 4.5 323.505 4.28 322.835 4.28ZM330.02 7.1L334.04 11H332.72L328.97 7.385V11H327.98V3.5H328.97V6.815L332.54 3.5H333.89L330.02 7.1ZM335.692 9.725H336.892L335.992 13.1H335.092L335.692 9.725ZM19.2074 23.555C19.7274 23.775 20.1374 24.11 20.4374 24.56C20.7374 25.01 20.8874 25.515 20.8874 26.075C20.8874 26.885 20.6024 27.575 20.0324 28.145C19.4624 28.715 18.7724 29 17.9624 29H13.3874V18.5H17.6174C18.3874 18.5 19.0524 18.78 19.6124 19.34C20.1624 19.89 20.4374 20.55 20.4374 21.32C20.4374 22.3 20.0274 23.045 19.2074 23.555ZM17.6174 19.49H14.4374V23.15H17.6174C18.0974 23.15 18.5124 22.975 18.8624 22.625C19.2124 22.255 19.3874 21.82 19.3874 21.32C19.3874 20.83 19.2124 20.4 18.8624 20.03C18.5124 19.67 18.0974 19.49 17.6174 19.49ZM14.4374 28.01H17.9624C18.4824 28.01 18.9224 27.825 19.2824 27.455C19.6524 27.085 19.8374 26.625 19.8374 26.075C19.8374 25.535 19.6524 25.08 19.2824 24.71C18.9224 24.33 18.4824 24.14 17.9624 24.14H14.4374V28.01ZM23.3792 24.35H25.4342C26.1242 24.35 26.7142 24.57 27.2042 25.01C27.6942 25.44 27.9392 25.995 27.9392 26.675C27.9392 27.365 27.6942 27.925 27.2042 28.355C26.7342 28.785 26.1442 29 25.4342 29H22.3892V21.5H23.3792V24.35ZM28.9892 29V21.5H29.9792V29H28.9892ZM23.3792 28.04H25.4342C25.8642 28.04 26.2242 27.915 26.5142 27.665C26.8042 27.405 26.9492 27.075 26.9492 26.675C26.9492 26.275 26.8042 25.95 26.5142 25.7C26.2242 25.44 25.8642 25.31 25.4342 25.31H23.3792V28.04ZM38.8664 29.18C37.7964 29.18 36.8964 28.825 36.1664 28.115C35.4464 27.395 35.0864 26.465 35.0864 25.325C35.0864 24.045 35.2764 23.065 35.6564 22.385C36.0364 21.695 36.8064 21.07 37.9664 20.51C38.3364 20.34 38.6264 20.21 38.8364 20.12C39.1864 19.98 39.4614 19.86 39.6614 19.76C40.5314 19.36 40.9714 18.865 40.9814 18.275L41.7614 18.725C41.7114 18.975 41.6314 19.2 41.5214 19.4C41.3914 19.62 41.2614 19.795 41.1314 19.925C41.0114 20.055 40.8214 20.195 40.5614 20.345C40.3914 20.445 40.1864 20.555 39.9464 20.675L39.1964 20.99L38.4914 21.29C37.8014 21.59 37.2864 21.905 36.9464 22.235C36.6164 22.555 36.3814 22.975 36.2414 23.495C36.5614 23.065 36.9814 22.74 37.5014 22.52C38.0214 22.29 38.5464 22.175 39.0764 22.175C40.0764 22.175 40.9014 22.505 41.5514 23.165C42.2114 23.815 42.5414 24.65 42.5414 25.67C42.5414 26.68 42.1914 27.52 41.4914 28.19C40.8014 28.85 39.9264 29.18 38.8664 29.18ZM36.9164 27.455C37.4364 27.945 38.0864 28.19 38.8664 28.19C39.6464 28.19 40.2864 27.955 40.7864 27.485C41.2964 27.005 41.5514 26.4 41.5514 25.67C41.5514 24.93 41.3114 24.325 40.8314 23.855C40.3614 23.375 39.7314 23.135 38.9414 23.135C38.2314 23.135 37.5864 23.36 37.0064 23.81C36.4264 24.24 36.1364 24.83 36.1364 25.58C36.1364 26.34 36.3964 26.965 36.9164 27.455ZM46.5742 27.785L49.0042 21.5H50.0542L46.8442 29.69C46.5442 30.45 46.1242 31.035 45.5842 31.445C45.0542 31.865 44.4642 32.05 43.8142 32V31.07C44.7142 31.18 45.3992 30.66 45.8692 29.51L46.0642 29.045L42.7042 21.5H43.7542L46.5742 27.785ZM56.9466 21.5V28.04H57.9966V31.01H57.0066V29H50.8866V31.01H49.8966V28.04H50.8116C51.3216 27.36 51.5766 26.415 51.5766 25.205V21.5H56.9466ZM52.0116 28.04H55.9566V22.46H52.5666V25.205C52.5666 26.365 52.3816 27.31 52.0116 28.04ZM62.5163 21.32C63.6363 21.32 64.5313 21.715 65.2013 22.505C65.8913 23.285 66.2363 24.21 66.2363 25.28C66.2363 25.33 66.2263 25.485 66.2063 25.745H59.6213C59.7213 26.495 60.0413 27.095 60.5813 27.545C61.1213 27.995 61.7963 28.22 62.6063 28.22C63.7463 28.22 64.5513 27.795 65.0213 26.945L65.8913 27.455C65.5613 27.995 65.1063 28.42 64.5263 28.73C63.9563 29.03 63.3113 29.18 62.5913 29.18C61.4113 29.18 60.4513 28.81 59.7113 28.07C58.9713 27.33 58.6013 26.39 58.6013 25.25C58.6013 24.12 58.9663 23.185 59.6963 22.445C60.4263 21.695 61.3663 21.32 62.5163 21.32ZM62.5163 22.28C61.7363 22.28 61.0813 22.51 60.5513 22.97C60.0313 23.43 59.7213 24.035 59.6213 24.785H65.2163C65.1063 23.985 64.8013 23.37 64.3013 22.94C63.7813 22.5 63.1863 22.28 62.5163 22.28ZM66.4681 21.5H72.7681V22.46H70.1131V29H69.1231V22.46H66.4681V21.5ZM76.9966 21.32C78.1166 21.32 79.0116 21.715 79.6816 22.505C80.3716 23.285 80.7166 24.21 80.7166 25.28C80.7166 25.33 80.7066 25.485 80.6866 25.745H74.1016C74.2016 26.495 74.5216 27.095 75.0616 27.545C75.6016 27.995 76.2766 28.22 77.0866 28.22C78.2266 28.22 79.0316 27.795 79.5016 26.945L80.3716 27.455C80.0416 27.995 79.5866 28.42 79.0066 28.73C78.4366 29.03 77.7916 29.18 77.0716 29.18C75.8916 29.18 74.9316 28.81 74.1916 28.07C73.4516 27.33 73.0816 26.39 73.0816 25.25C73.0816 24.12 73.4466 23.185 74.1766 22.445C74.9066 21.695 75.8466 21.32 76.9966 21.32ZM76.9966 22.28C76.2166 22.28 75.5616 22.51 75.0316 22.97C74.5116 23.43 74.2016 24.035 74.1016 24.785H79.6966C79.5866 23.985 79.2816 23.37 78.7816 22.94C78.2616 22.5 77.6666 22.28 76.9966 22.28ZM85.7413 21.5H92.0413V29H91.0513V22.46H86.7313V29H85.7413V21.5ZM97.4499 21.32C98.5699 21.32 99.4649 21.715 100.135 22.505C100.825 23.285 101.17 24.21 101.17 25.28C101.17 25.33 101.16 25.485 101.14 25.745H94.5549C94.6549 26.495 94.9749 27.095 95.5149 27.545C96.0549 27.995 96.7299 28.22 97.5399 28.22C98.6799 28.22 99.4849 27.795 99.9549 26.945L100.825 27.455C100.495 27.995 100.04 28.42 99.4599 28.73C98.8899 29.03 98.2449 29.18 97.5249 29.18C96.3449 29.18 95.3849 28.81 94.6449 28.07C93.9049 27.33 93.5349 26.39 93.5349 25.25C93.5349 24.12 93.8999 23.185 94.6299 22.445C95.3599 21.695 96.2999 21.32 97.4499 21.32ZM97.4499 22.28C96.6699 22.28 96.0149 22.51 95.4849 22.97C94.9649 23.43 94.6549 24.035 94.5549 24.785H100.15C100.04 23.985 99.7349 23.37 99.2349 22.94C98.7149 22.5 98.1199 22.28 97.4499 22.28ZM106.615 21.32C107.685 21.32 108.595 21.7 109.345 22.46C110.105 23.22 110.485 24.15 110.485 25.25C110.485 26.35 110.105 27.28 109.345 28.04C108.595 28.8 107.685 29.18 106.615 29.18C105.285 29.18 104.275 28.63 103.585 27.53V32H102.595V21.5H103.585V22.97C104.275 21.87 105.285 21.32 106.615 21.32ZM104.44 27.365C105.01 27.935 105.71 28.22 106.54 28.22C107.37 28.22 108.07 27.935 108.64 27.365C109.21 26.775 109.495 26.07 109.495 25.25C109.495 24.42 109.21 23.72 108.64 23.15C108.07 22.57 107.37 22.28 106.54 22.28C105.71 22.28 105.01 22.57 104.44 23.15C103.87 23.72 103.585 24.42 103.585 25.25C103.585 26.07 103.87 26.775 104.44 27.365ZM115.446 21.32C116.566 21.32 117.461 21.715 118.131 22.505C118.821 23.285 119.166 24.21 119.166 25.28C119.166 25.33 119.156 25.485 119.136 25.745H112.551C112.651 26.495 112.971 27.095 113.511 27.545C114.051 27.995 114.726 28.22 115.536 28.22C116.676 28.22 117.481 27.795 117.951 26.945L118.821 27.455C118.491 27.995 118.036 28.42 117.456 28.73C116.886 29.03 116.241 29.18 115.521 29.18C114.341 29.18 113.381 28.81 112.641 28.07C111.901 27.33 111.531 26.39 111.531 25.25C111.531 24.12 111.896 23.185 112.626 22.445C113.356 21.695 114.296 21.32 115.446 21.32ZM115.446 22.28C114.666 22.28 114.011 22.51 113.481 22.97C112.961 23.43 112.651 24.035 112.551 24.785H118.146C118.036 23.985 117.731 23.37 117.231 22.94C116.711 22.5 116.116 22.28 115.446 22.28ZM125.901 24.77V21.5H126.891V29H125.901V25.73H121.581V29H120.591V21.5H121.581V24.77H125.901ZM135.284 22.97V21.5H136.274V29H135.284V27.53C134.594 28.63 133.584 29.18 132.254 29.18C131.184 29.18 130.269 28.8 129.509 28.04C128.759 27.28 128.384 26.35 128.384 25.25C128.384 24.15 128.759 23.22 129.509 22.46C130.269 21.7 131.184 21.32 132.254 21.32C133.584 21.32 134.594 21.87 135.284 22.97ZM130.229 27.365C130.799 27.935 131.499 28.22 132.329 28.22C133.159 28.22 133.859 27.935 134.429 27.365C134.999 26.775 135.284 26.07 135.284 25.25C135.284 24.42 134.999 23.72 134.429 23.15C133.859 22.57 133.159 22.28 132.329 22.28C131.499 22.28 130.799 22.57 130.229 23.15C129.659 23.72 129.374 24.42 129.374 25.25C129.374 26.07 129.659 26.775 130.229 27.365ZM138.22 21.5H144.52V29H143.53V22.46H139.21V29H138.22V21.5ZM150.484 21.32C151.554 21.32 152.464 21.7 153.214 22.46C153.974 23.22 154.354 24.15 154.354 25.25C154.354 26.35 153.974 27.28 153.214 28.04C152.464 28.8 151.554 29.18 150.484 29.18C149.154 29.18 148.144 28.63 147.454 27.53V32H146.464V21.5H147.454V22.97C148.144 21.87 149.154 21.32 150.484 21.32ZM148.309 27.365C148.879 27.935 149.579 28.22 150.409 28.22C151.239 28.22 151.939 27.935 152.509 27.365C153.079 26.775 153.364 26.07 153.364 25.25C153.364 24.42 153.079 23.72 152.509 23.15C151.939 22.57 151.239 22.28 150.409 22.28C149.579 22.28 148.879 22.57 148.309 23.15C147.739 23.72 147.454 24.42 147.454 25.25C147.454 26.07 147.739 26.775 148.309 27.365ZM162.3 22.97V21.5H163.29V29H162.3V27.53C161.61 28.63 160.6 29.18 159.27 29.18C158.2 29.18 157.285 28.8 156.525 28.04C155.775 27.28 155.4 26.35 155.4 25.25C155.4 24.15 155.775 23.22 156.525 22.46C157.285 21.7 158.2 21.32 159.27 21.32C160.6 21.32 161.61 21.87 162.3 22.97ZM157.245 27.365C157.815 27.935 158.515 28.22 159.345 28.22C160.175 28.22 160.875 27.935 161.445 27.365C162.015 26.775 162.3 26.07 162.3 25.25C162.3 24.42 162.015 23.72 161.445 23.15C160.875 22.57 160.175 22.28 159.345 22.28C158.515 22.28 157.815 22.57 157.245 23.15C156.675 23.72 156.39 24.42 156.39 25.25C156.39 26.07 156.675 26.775 157.245 27.365ZM170.006 25.145C170.826 25.445 171.236 26.03 171.236 26.9C171.236 27.52 171.026 28.025 170.606 28.415C170.196 28.805 169.621 29 168.881 29H165.236V21.5H168.581C169.301 21.5 169.861 21.685 170.261 22.055C170.671 22.425 170.876 22.91 170.876 23.51C170.876 24.26 170.586 24.805 170.006 25.145ZM168.581 22.46H166.226V24.74H168.581C169.451 24.74 169.886 24.35 169.886 23.57C169.886 23.22 169.771 22.95 169.541 22.76C169.321 22.56 169.001 22.46 168.581 22.46ZM166.226 28.04H168.881C169.321 28.04 169.656 27.935 169.886 27.725C170.126 27.515 170.246 27.22 170.246 26.84C170.246 26.48 170.126 26.2 169.886 26C169.656 25.8 169.321 25.7 168.881 25.7H166.226V28.04ZM173.073 21.5H178.443V29H177.453V22.46H174.063V25.805C174.063 27.055 173.823 27.915 173.343 28.385C172.873 28.855 172.223 29.06 171.393 29V28.07C171.973 28.13 172.398 27.99 172.668 27.65C172.938 27.31 173.073 26.695 173.073 25.805V21.5ZM183.855 21.32C184.975 21.32 185.87 21.715 186.54 22.505C187.23 23.285 187.575 24.21 187.575 25.28C187.575 25.33 187.565 25.485 187.545 25.745H180.96C181.06 26.495 181.38 27.095 181.92 27.545C182.46 27.995 183.135 28.22 183.945 28.22C185.085 28.22 185.89 27.795 186.36 26.945L187.23 27.455C186.9 27.995 186.445 28.42 185.865 28.73C185.295 29.03 184.65 29.18 183.93 29.18C182.75 29.18 181.79 28.81 181.05 28.07C180.31 27.33 179.94 26.39 179.94 25.25C179.94 24.12 180.305 23.185 181.035 22.445C181.765 21.695 182.705 21.32 183.855 21.32ZM183.855 22.28C183.075 22.28 182.42 22.51 181.89 22.97C181.37 23.43 181.06 24.035 180.96 24.785H186.555C186.445 23.985 186.14 23.37 185.64 22.94C185.12 22.5 184.525 22.28 183.855 22.28ZM194.31 24.77V21.5H195.3V29H194.31V25.73H189.99V29H189V21.5H189.99V24.77H194.31ZM198.233 24.35H200.288C200.978 24.35 201.568 24.57 202.058 25.01C202.548 25.44 202.793 25.995 202.793 26.675C202.793 27.365 202.548 27.925 202.058 28.355C201.588 28.785 200.998 29 200.288 29H197.243V21.5H198.233V24.35ZM203.843 29V21.5H204.833V29H203.843ZM198.233 28.04H200.288C200.718 28.04 201.078 27.915 201.368 27.665C201.658 27.405 201.803 27.075 201.803 26.675C201.803 26.275 201.658 25.95 201.368 25.7C201.078 25.44 200.718 25.31 200.288 25.31H198.233V28.04ZM215.701 24.77V21.5H216.691V29H215.701V25.73H211.381V29H210.391V21.5H211.381V24.77H215.701ZM225.084 22.97V21.5H226.074V29H225.084V27.53C224.394 28.63 223.384 29.18 222.054 29.18C220.984 29.18 220.069 28.8 219.309 28.04C218.559 27.28 218.184 26.35 218.184 25.25C218.184 24.15 218.559 23.22 219.309 22.46C220.069 21.7 220.984 21.32 222.054 21.32C223.384 21.32 224.394 21.87 225.084 22.97ZM220.029 27.365C220.599 27.935 221.299 28.22 222.129 28.22C222.959 28.22 223.659 27.935 224.229 27.365C224.799 26.775 225.084 26.07 225.084 25.25C225.084 24.42 224.799 23.72 224.229 23.15C223.659 22.57 222.959 22.28 222.129 22.28C221.299 22.28 220.599 22.57 220.029 23.15C219.459 23.72 219.174 24.42 219.174 25.25C219.174 26.07 219.459 26.775 220.029 27.365ZM235.64 21.32C236.71 21.32 237.62 21.7 238.37 22.46C239.13 23.22 239.51 24.15 239.51 25.25C239.51 26.35 239.13 27.28 238.37 28.04C237.62 28.8 236.71 29.18 235.64 29.18C234.31 29.18 233.3 28.63 232.61 27.53V32H231.62V21.5H232.61V22.97C233.3 21.87 234.31 21.32 235.64 21.32ZM233.465 27.365C234.035 27.935 234.735 28.22 235.565 28.22C236.395 28.22 237.095 27.935 237.665 27.365C238.235 26.775 238.52 26.07 238.52 25.25C238.52 24.42 238.235 23.72 237.665 23.15C237.095 22.57 236.395 22.28 235.565 22.28C234.735 22.28 234.035 22.57 233.465 23.15C232.895 23.72 232.61 24.42 232.61 25.25C232.61 26.07 232.895 26.775 233.465 27.365ZM244.472 21.32C245.592 21.32 246.487 21.715 247.157 22.505C247.847 23.285 248.192 24.21 248.192 25.28C248.192 25.33 248.182 25.485 248.162 25.745H241.577C241.677 26.495 241.997 27.095 242.537 27.545C243.077 27.995 243.752 28.22 244.562 28.22C245.702 28.22 246.507 27.795 246.977 26.945L247.847 27.455C247.517 27.995 247.062 28.42 246.482 28.73C245.912 29.03 245.267 29.18 244.547 29.18C243.367 29.18 242.407 28.81 241.667 28.07C240.927 27.33 240.557 26.39 240.557 25.25C240.557 24.12 240.922 23.185 241.652 22.445C242.382 21.695 243.322 21.32 244.472 21.32ZM244.472 22.28C243.692 22.28 243.037 22.51 242.507 22.97C241.987 23.43 241.677 24.035 241.577 24.785H247.172C247.062 23.985 246.757 23.37 246.257 22.94C245.737 22.5 245.142 22.28 244.472 22.28ZM249.616 21.5H254.416V22.46H250.606V29H249.616V21.5ZM256.462 27.275L260.932 21.5H261.772V29H260.782V23.225L256.312 29H255.472V21.5H256.462V27.275ZM267.211 29.18C266.081 29.18 265.141 28.805 264.391 28.055C263.641 27.285 263.266 26.35 263.266 25.25C263.266 24.14 263.641 23.21 264.391 22.46C265.141 21.7 266.081 21.32 267.211 21.32C267.951 21.32 268.616 21.5 269.206 21.86C269.796 22.21 270.226 22.685 270.496 23.285L269.686 23.75C269.486 23.3 269.161 22.945 268.711 22.685C268.271 22.415 267.771 22.28 267.211 22.28C266.381 22.28 265.681 22.57 265.111 23.15C264.541 23.72 264.256 24.42 264.256 25.25C264.256 26.07 264.541 26.775 265.111 27.365C265.681 27.935 266.381 28.22 267.211 28.22C267.761 28.22 268.256 28.09 268.696 27.83C269.146 27.57 269.496 27.21 269.746 26.75L270.571 27.23C270.261 27.83 269.806 28.305 269.206 28.655C268.606 29.005 267.941 29.18 267.211 29.18ZM270.796 21.5H277.096V22.46H274.441V29H273.451V22.46H270.796V21.5ZM282.172 21.32C283.242 21.32 284.152 21.7 284.902 22.46C285.662 23.22 286.042 24.15 286.042 25.25C286.042 26.35 285.662 27.28 284.902 28.04C284.152 28.8 283.242 29.18 282.172 29.18C280.842 29.18 279.832 28.63 279.142 27.53V32H278.152V21.5H279.142V22.97C279.832 21.87 280.842 21.32 282.172 21.32ZM279.997 27.365C280.567 27.935 281.267 28.22 282.097 28.22C282.927 28.22 283.627 27.935 284.197 27.365C284.767 26.775 285.052 26.07 285.052 25.25C285.052 24.42 284.767 23.72 284.197 23.15C283.627 22.57 282.927 22.28 282.097 22.28C281.267 22.28 280.567 22.57 279.997 23.15C279.427 23.72 279.142 24.42 279.142 25.25C279.142 26.07 279.427 26.775 279.997 27.365ZM293.988 22.97V21.5H294.978V29H293.988V27.53C293.298 28.63 292.288 29.18 290.958 29.18C289.888 29.18 288.973 28.8 288.213 28.04C287.463 27.28 287.088 26.35 287.088 25.25C287.088 24.15 287.463 23.22 288.213 22.46C288.973 21.7 289.888 21.32 290.958 21.32C292.288 21.32 293.298 21.87 293.988 22.97ZM288.933 27.365C289.503 27.935 290.203 28.22 291.033 28.22C291.863 28.22 292.563 27.935 293.133 27.365C293.703 26.775 293.988 26.07 293.988 25.25C293.988 24.42 293.703 23.72 293.133 23.15C292.563 22.57 291.863 22.28 291.033 22.28C290.203 22.28 289.503 22.57 288.933 23.15C288.363 23.72 288.078 24.42 288.078 25.25C288.078 26.07 288.363 26.775 288.933 27.365ZM303.074 21.5V28.04H304.274V31.01H303.284V29H296.924V21.5H297.914V28.04H302.084V21.5H303.074ZM306.612 27.275L311.082 21.5H311.922V29H310.932V23.225L306.462 29H305.622V21.5H306.612V27.275ZM320.271 21.32C321.371 21.32 322.301 21.7 323.061 22.46C323.831 23.21 324.216 24.14 324.216 25.25C324.216 26.35 323.831 27.285 323.061 28.055C322.291 28.805 321.361 29.18 320.271 29.18C319.271 29.18 318.401 28.855 317.661 28.205C316.931 27.535 316.516 26.71 316.416 25.73H314.856V29H313.866V21.5H314.856V24.77H316.416C316.526 23.78 316.941 22.96 317.661 22.31C318.391 21.65 319.261 21.32 320.271 21.32ZM318.171 27.365C318.741 27.935 319.441 28.22 320.271 28.22C321.101 28.22 321.801 27.935 322.371 27.365C322.941 26.775 323.226 26.07 323.226 25.25C323.226 24.42 322.941 23.72 322.371 23.15C321.801 22.57 321.101 22.28 320.271 22.28C319.441 22.28 318.741 22.57 318.171 23.15C317.601 23.72 317.316 24.42 317.316 25.25C317.316 26.07 317.601 26.775 318.171 27.365ZM96.442 39.5H102.742V47H101.752V40.46H97.432V47H96.442V39.5ZM110.971 46.055C110.201 46.805 109.271 47.18 108.181 47.18C107.071 47.18 106.136 46.805 105.376 46.055C104.616 45.295 104.236 44.36 104.236 43.25C104.236 42.14 104.616 41.21 105.376 40.46C106.136 39.7 107.071 39.32 108.181 39.32C109.281 39.32 110.211 39.7 110.971 40.46C111.741 41.21 112.126 42.14 112.126 43.25C112.126 44.35 111.741 45.285 110.971 46.055ZM106.081 45.365C106.651 45.935 107.351 46.22 108.181 46.22C109.011 46.22 109.711 45.935 110.281 45.365C110.851 44.775 111.136 44.07 111.136 43.25C111.136 42.42 110.851 41.72 110.281 41.15C109.711 40.57 109.011 40.28 108.181 40.28C107.351 40.28 106.651 40.57 106.081 41.15C105.511 41.72 105.226 42.42 105.226 43.25C105.226 44.07 105.511 44.775 106.081 45.365ZM122.002 43.145C122.822 43.445 123.232 44.03 123.232 44.9C123.232 45.52 123.022 46.025 122.602 46.415C122.192 46.805 121.617 47 120.877 47H117.232V39.5H120.577C121.297 39.5 121.857 39.685 122.257 40.055C122.667 40.425 122.872 40.91 122.872 41.51C122.872 42.26 122.582 42.805 122.002 43.145ZM120.577 40.46H118.222V42.74H120.577C121.447 42.74 121.882 42.35 121.882 41.57C121.882 41.22 121.767 40.95 121.537 40.76C121.317 40.56 120.997 40.46 120.577 40.46ZM118.222 46.04H120.877C121.317 46.04 121.652 45.935 121.882 45.725C122.122 45.515 122.242 45.22 122.242 44.84C122.242 44.48 122.122 44.2 121.882 44C121.652 43.8 121.317 43.7 120.877 43.7H118.222V46.04ZM127.664 43.115L130.589 47H129.404L127.064 43.91L124.724 47H123.539L126.479 43.115L123.734 39.5H124.919L127.064 42.335L129.209 39.5H130.394L127.664 43.115ZM137.543 46.055C136.773 46.805 135.843 47.18 134.753 47.18C133.643 47.18 132.708 46.805 131.948 46.055C131.188 45.295 130.808 44.36 130.808 43.25C130.808 42.14 131.188 41.21 131.948 40.46C132.708 39.7 133.643 39.32 134.753 39.32C135.853 39.32 136.783 39.7 137.543 40.46C138.313 41.21 138.698 42.14 138.698 43.25C138.698 44.35 138.313 45.285 137.543 46.055ZM132.653 45.365C133.223 45.935 133.923 46.22 134.753 46.22C135.583 46.22 136.283 45.935 136.853 45.365C137.423 44.775 137.708 44.07 137.708 43.25C137.708 42.42 137.423 41.72 136.853 41.15C136.283 40.57 135.583 40.28 134.753 40.28C133.923 40.28 133.223 40.57 132.653 41.15C132.083 41.72 131.798 42.42 131.798 43.25C131.798 44.07 132.083 44.775 132.653 45.365ZM146.212 39.5V46.04H147.262V49.01H146.272V47H140.152V49.01H139.162V46.04H140.077C140.587 45.36 140.842 44.415 140.842 43.205V39.5H146.212ZM141.277 46.04H145.222V40.46H141.832V43.205C141.832 44.365 141.647 45.31 141.277 46.04ZM150.818 39.5H153.863V47H152.873V44.12H151.583L149.273 47H148.013L150.383 44.09C149.773 44 149.273 43.75 148.883 43.34C148.503 42.92 148.313 42.415 148.313 41.825C148.313 41.155 148.553 40.6 149.033 40.16C149.533 39.72 150.128 39.5 150.818 39.5ZM150.818 43.19H152.873V40.46H150.818C150.388 40.46 150.028 40.59 149.738 40.85C149.448 41.1 149.303 41.425 149.303 41.825C149.303 42.225 149.448 42.555 149.738 42.815C150.028 43.065 150.388 43.19 150.818 43.19ZM165.863 39.5V46.04H166.913V49.01H165.923V47H155.813V39.5H156.803V46.04H160.343V39.5H161.333V46.04H164.873V39.5H165.863ZM171.433 39.32C172.553 39.32 173.448 39.715 174.118 40.505C174.808 41.285 175.153 42.21 175.153 43.28C175.153 43.33 175.143 43.485 175.123 43.745H168.538C168.638 44.495 168.958 45.095 169.498 45.545C170.038 45.995 170.713 46.22 171.523 46.22C172.663 46.22 173.468 45.795 173.938 44.945L174.808 45.455C174.478 45.995 174.023 46.42 173.443 46.73C172.873 47.03 172.228 47.18 171.508 47.18C170.328 47.18 169.368 46.81 168.628 46.07C167.888 45.33 167.518 44.39 167.518 43.25C167.518 42.12 167.883 41.185 168.613 40.445C169.343 39.695 170.283 39.32 171.433 39.32ZM171.433 40.28C170.653 40.28 169.998 40.51 169.468 40.97C168.948 41.43 168.638 42.035 168.538 42.785H174.133C174.023 41.985 173.718 41.37 173.218 40.94C172.698 40.5 172.103 40.28 171.433 40.28ZM182.788 39.5H183.928V47H182.938V41.015L180.313 45.275H180.193L177.568 41.015V47H176.578V39.5H177.718L180.253 43.61L182.788 39.5ZM188.846 45.785L191.276 39.5H192.326L189.116 47.69C188.816 48.45 188.396 49.035 187.856 49.445C187.326 49.865 186.736 50.05 186.086 50V49.07C186.986 49.18 187.671 48.66 188.141 47.51L188.336 47.045L184.976 39.5H186.026L188.846 45.785ZM200.842 43.145C201.712 43.475 202.147 44.075 202.147 44.945C202.147 45.575 201.902 46.105 201.412 46.535C200.942 46.965 200.252 47.18 199.342 47.18C197.822 47.18 196.832 46.58 196.372 45.38L197.212 44.885C197.532 45.775 198.242 46.22 199.342 46.22C199.912 46.22 200.357 46.1 200.677 45.86C200.997 45.61 201.157 45.285 201.157 44.885C201.157 44.525 201.027 44.24 200.767 44.03C200.507 43.81 200.157 43.7 199.717 43.7H198.622V42.74H199.417C199.847 42.74 200.182 42.635 200.422 42.425C200.672 42.205 200.797 41.905 200.797 41.525C200.797 41.165 200.647 40.87 200.347 40.64C200.057 40.4 199.672 40.28 199.192 40.28C198.262 40.28 197.637 40.655 197.317 41.405L196.492 40.925C196.992 39.855 197.892 39.32 199.192 39.32C199.992 39.32 200.622 39.53 201.082 39.95C201.552 40.36 201.787 40.865 201.787 41.465C201.787 42.235 201.472 42.795 200.842 43.145ZM208.272 43.145C209.092 43.445 209.502 44.03 209.502 44.9C209.502 45.52 209.292 46.025 208.872 46.415C208.462 46.805 207.887 47 207.147 47H203.502V39.5H206.847C207.567 39.5 208.127 39.685 208.527 40.055C208.937 40.425 209.142 40.91 209.142 41.51C209.142 42.26 208.852 42.805 208.272 43.145ZM206.847 40.46H204.492V42.74H206.847C207.717 42.74 208.152 42.35 208.152 41.57C208.152 41.22 208.037 40.95 207.807 40.76C207.587 40.56 207.267 40.46 206.847 40.46ZM204.492 46.04H207.147C207.587 46.04 207.922 45.935 208.152 45.725C208.392 45.515 208.512 45.22 208.512 44.84C208.512 44.48 208.392 44.2 208.152 44C207.922 43.8 207.587 43.7 207.147 43.7H204.492V46.04ZM217.137 46.055C216.367 46.805 215.437 47.18 214.347 47.18C213.237 47.18 212.302 46.805 211.542 46.055C210.782 45.295 210.402 44.36 210.402 43.25C210.402 42.14 210.782 41.21 211.542 40.46C212.302 39.7 213.237 39.32 214.347 39.32C215.447 39.32 216.377 39.7 217.137 40.46C217.907 41.21 218.292 42.14 218.292 43.25C218.292 44.35 217.907 45.285 217.137 46.055ZM212.247 45.365C212.817 45.935 213.517 46.22 214.347 46.22C215.177 46.22 215.877 45.935 216.447 45.365C217.017 44.775 217.302 44.07 217.302 43.25C217.302 42.42 217.017 41.72 216.447 41.15C215.877 40.57 215.177 40.28 214.347 40.28C213.517 40.28 212.817 40.57 212.247 41.15C211.677 41.72 211.392 42.42 211.392 43.25C211.392 44.07 211.677 44.775 212.247 45.365ZM225.109 42.77V39.5H226.099V47H225.109V43.73H220.789V47H219.799V39.5H220.789V42.77H225.109ZM230.082 43.1L234.102 47H232.782L229.032 43.385V47H228.042V39.5H229.032V42.815L232.602 39.5H233.952L230.082 43.1ZM237.982 45.785L240.412 39.5H241.462L238.252 47.69C237.952 48.45 237.532 49.035 236.992 49.445C236.462 49.865 235.872 50.05 235.222 50V49.07C236.122 49.18 236.807 48.66 237.277 47.51L237.472 47.045L234.112 39.5H235.162L237.982 45.785Z" fill="#949494"/>
</svg>
