<svg width="295" height="71" viewBox="0 0 295 71" fill="none" xmlns="http://www.w3.org/2000/svg">
<path d="M2.73352 7.16848V11.7972H8.92951V13H1.45788V0.243559H8.83839V1.44631H2.73352V5.96573H8.3828V7.16848H2.73352ZM14.8249 13.2187C13.4521 13.2187 12.3101 12.7631 11.3989 11.8519C10.4878 10.9164 10.0322 9.78052 10.0322 8.44413C10.0322 7.09559 10.4878 5.96573 11.3989 5.05456C12.3101 4.13124 13.4521 3.66957 14.8249 3.66957C15.724 3.66957 16.5319 3.88826 17.2487 4.32562C17.9655 4.75084 18.4879 5.32791 18.8159 6.05685L17.8318 6.62178C17.5888 6.07508 17.194 5.64379 16.6473 5.32791C16.1127 4.99989 15.5053 4.83588 14.8249 4.83588C13.8166 4.83588 12.9662 5.1882 12.2737 5.89284C11.5812 6.58533 11.2349 7.43576 11.2349 8.44413C11.2349 9.44035 11.5812 10.2968 12.2737 11.0136C12.9662 11.7061 13.8166 12.0524 14.8249 12.0524C15.4931 12.0524 16.0945 11.8944 16.6291 11.5786C17.1758 11.2627 17.601 10.8253 17.9047 10.2665L18.907 10.8496C18.5304 11.5786 17.9776 12.1556 17.2487 12.5809C16.5197 13.0061 15.7118 13.2187 14.8249 13.2187ZM21.2212 3.88826H27.7453V13H26.5425V5.05456H22.424V9.1184C22.424 10.637 22.1324 11.6818 21.5493 12.2528C20.9783 12.8238 20.1886 13.0729 19.1802 13V11.8701C19.8849 11.943 20.4012 11.773 20.7292 11.3599C21.0572 10.9468 21.2212 10.1997 21.2212 9.1184V3.88826ZM31.3135 10.9043L36.7441 3.88826H37.7646V13H36.5619V5.98396L31.1313 13H30.1108V3.88826H31.3135V10.9043ZM50.9506 7.86098V3.88826H52.1533V13H50.9506V9.02728H45.7022V13H44.4995V3.88826H45.7022V7.86098H50.9506ZM58.7242 3.66957C60.0849 3.66957 61.1722 4.14946 61.9862 5.10923C62.8245 6.05685 63.2436 7.18063 63.2436 8.48058C63.2436 8.54132 63.2315 8.72963 63.2072 9.0455H55.2071C55.3285 9.95668 55.7173 10.6856 56.3734 11.2323C57.0294 11.779 57.8495 12.0524 58.8335 12.0524C60.2185 12.0524 61.1965 11.536 61.7675 10.5034L62.8245 11.123C62.4236 11.779 61.8708 12.2954 61.1661 12.672C60.4736 13.0364 59.69 13.2187 58.8153 13.2187C57.3817 13.2187 56.2154 12.7692 55.3164 11.8701C54.4174 10.9711 53.9679 9.82911 53.9679 8.44413C53.9679 7.07129 54.4113 5.93536 55.2982 5.03634C56.185 4.12516 57.3271 3.66957 58.7242 3.66957ZM58.7242 4.83588C57.7766 4.83588 56.9808 5.1153 56.3369 5.67416C55.7052 6.23301 55.3285 6.96803 55.2071 7.8792H62.0044C61.8708 6.90728 61.5002 6.16012 60.8928 5.63771C60.261 5.10316 59.5382 4.83588 58.7242 4.83588ZM75.7993 7.86098V3.88826H77.0021V13H75.7993V9.02728H70.5509V13H69.3482V3.88826H70.5509V7.86098H75.7993ZM87.1994 5.67416V3.88826H88.4021V13H87.1994V11.2141C86.3611 12.5505 85.1341 13.2187 83.5182 13.2187C82.2183 13.2187 81.1067 12.757 80.1833 11.8337C79.2722 10.9104 78.8166 9.78052 78.8166 8.44413C78.8166 7.10774 79.2722 5.97788 80.1833 5.05456C81.1067 4.13124 82.2183 3.66957 83.5182 3.66957C85.1341 3.66957 86.3611 4.33777 87.1994 5.67416ZM81.0581 11.0136C81.7506 11.7061 82.601 12.0524 83.6094 12.0524C84.6177 12.0524 85.4682 11.7061 86.1606 11.0136C86.8531 10.2968 87.1994 9.44035 87.1994 8.44413C87.1994 7.43576 86.8531 6.58533 86.1606 5.89284C85.4682 5.1882 84.6177 4.83588 83.6094 4.83588C82.601 4.83588 81.7506 5.1882 81.0581 5.89284C80.3656 6.58533 80.0193 7.43576 80.0193 8.44413C80.0193 9.44035 80.3656 10.2968 81.0581 11.0136ZM101.773 11.8337V3.88826H102.976V13H90.7665V3.88826H91.9692V11.8337H96.27V3.88826H97.4727V11.8337H101.773ZM106.285 3.88826H112.809V13H111.606V5.05456H107.488V9.1184C107.488 10.637 107.196 11.6818 106.613 12.2528C106.042 12.8238 105.252 13.0729 104.244 13V11.8701C104.949 11.943 105.465 11.773 105.793 11.3599C106.121 10.9468 106.285 10.1997 106.285 9.1184V3.88826ZM116.377 10.9043L121.808 3.88826H122.828V13H121.626V5.98396L116.195 13H115.175V3.88826H116.377V10.9043ZM130.766 10.9043L136.197 3.88826H137.217V13H136.014V5.98396L130.584 13H129.563V3.88826H130.766V10.9043ZM146.029 7.86098V3.88826H147.232V13H146.029V9.02728H140.781V13H139.578V3.88826H140.781V7.86098H146.029ZM148.5 3.88826H156.154V5.05456H152.928V13H151.726V5.05456H148.5V3.88826ZM161.291 3.66957C162.652 3.66957 163.739 4.14946 164.553 5.10923C165.391 6.05685 165.811 7.18063 165.811 8.48058C165.811 8.54132 165.798 8.72963 165.774 9.0455H157.774C157.895 9.95668 158.284 10.6856 158.94 11.2323C159.596 11.779 160.416 12.0524 161.4 12.0524C162.785 12.0524 163.763 11.536 164.334 10.5034L165.391 11.123C164.99 11.779 164.438 12.2954 163.733 12.672C163.041 13.0364 162.257 13.2187 161.382 13.2187C159.949 13.2187 158.782 12.7692 157.883 11.8701C156.984 10.9711 156.535 9.82911 156.535 8.44413C156.535 7.07129 156.978 5.93536 157.865 5.03634C158.752 4.12516 159.894 3.66957 161.291 3.66957ZM161.291 4.83588C160.343 4.83588 159.548 5.1153 158.904 5.67416C158.272 6.23301 157.895 6.96803 157.774 7.8792H164.571C164.438 6.90728 164.067 6.16012 163.46 5.63771C162.828 5.10316 162.105 4.83588 161.291 4.83588ZM172.425 3.66957C173.725 3.66957 174.831 4.13124 175.742 5.05456C176.665 5.97788 177.127 7.10774 177.127 8.44413C177.127 9.78052 176.665 10.9104 175.742 11.8337C174.831 12.757 173.725 13.2187 172.425 13.2187C170.81 13.2187 169.582 12.5505 168.744 11.2141V16.6447H167.541V3.88826H168.744V5.67416C169.582 4.33777 170.81 3.66957 172.425 3.66957ZM169.783 11.0136C170.475 11.7061 171.326 12.0524 172.334 12.0524C173.343 12.0524 174.193 11.7061 174.886 11.0136C175.578 10.2968 175.924 9.44035 175.924 8.44413C175.924 7.43576 175.578 6.58533 174.886 5.89284C174.193 5.1882 173.343 4.83588 172.334 4.83588C171.326 4.83588 170.475 5.1882 169.783 5.89284C169.09 6.58533 168.744 7.43576 168.744 8.44413C168.744 9.44035 169.09 10.2968 169.783 11.0136ZM183.154 3.66957C184.515 3.66957 185.602 4.14946 186.416 5.10923C187.255 6.05685 187.674 7.18063 187.674 8.48058C187.674 8.54132 187.662 8.72963 187.637 9.0455H179.637C179.759 9.95668 180.147 10.6856 180.803 11.2323C181.46 11.779 182.28 12.0524 183.264 12.0524C184.649 12.0524 185.627 11.536 186.198 10.5034L187.255 11.123C186.854 11.779 186.301 12.2954 185.596 12.672C184.904 13.0364 184.12 13.2187 183.245 13.2187C181.812 13.2187 180.646 12.7692 179.746 11.8701C178.847 10.9711 178.398 9.82911 178.398 8.44413C178.398 7.07129 178.841 5.93536 179.728 5.03634C180.615 4.12516 181.757 3.66957 183.154 3.66957ZM183.154 4.83588C182.207 4.83588 181.411 5.1153 180.767 5.67416C180.135 6.23301 179.759 6.96803 179.637 7.8792H186.435C186.301 6.90728 185.93 6.16012 185.323 5.63771C184.691 5.10316 183.968 4.83588 183.154 4.83588ZM193.651 13.2187C192.278 13.2187 191.136 12.7631 190.225 11.8519C189.314 10.9164 188.858 9.78052 188.858 8.44413C188.858 7.09559 189.314 5.96573 190.225 5.05456C191.136 4.13124 192.278 3.66957 193.651 3.66957C194.55 3.66957 195.358 3.88826 196.074 4.32562C196.791 4.75084 197.314 5.32791 197.642 6.05685L196.658 6.62178C196.415 6.07508 196.02 5.64379 195.473 5.32791C194.939 4.99989 194.331 4.83588 193.651 4.83588C192.642 4.83588 191.792 5.1882 191.099 5.89284C190.407 6.58533 190.061 7.43576 190.061 8.44413C190.061 9.44035 190.407 10.2968 191.099 11.0136C191.792 11.7061 192.642 12.0524 193.651 12.0524C194.319 12.0524 194.92 11.8944 195.455 11.5786C196.002 11.2627 196.427 10.8253 196.73 10.2665L197.733 10.8496C197.356 11.5786 196.803 12.1556 196.074 12.5809C195.346 13.0061 194.538 13.2187 193.651 13.2187ZM202.53 11.5239L205.482 3.88826H206.758L202.858 13.8383C202.493 14.7616 201.983 15.4723 201.327 15.9704C200.683 16.4807 199.966 16.7054 199.177 16.6447V15.5148C200.27 15.6485 201.102 15.0167 201.673 13.6196L201.91 13.0547L197.828 3.88826H199.104L202.53 11.5239ZM215.81 3.66957C217.147 3.66957 218.277 4.13124 219.2 5.05456C220.135 5.96573 220.603 7.09559 220.603 8.44413C220.603 9.78052 220.135 10.9164 219.2 11.8519C218.264 12.7631 217.135 13.2187 215.81 13.2187C214.595 13.2187 213.538 12.8238 212.639 12.0342C211.753 11.2202 211.248 10.2179 211.127 9.02728H209.232V13H208.029V3.88826H209.232V7.86098H211.127C211.261 6.65823 211.765 5.66201 212.639 4.87233C213.526 4.07049 214.583 3.66957 215.81 3.66957ZM213.259 11.0136C213.952 11.7061 214.802 12.0524 215.81 12.0524C216.819 12.0524 217.669 11.7061 218.362 11.0136C219.054 10.2968 219.4 9.44035 219.4 8.44413C219.4 7.43576 219.054 6.58533 218.362 5.89284C217.669 5.1882 216.819 4.83588 215.81 4.83588C214.802 4.83588 213.952 5.1882 213.259 5.89284C212.567 6.58533 212.22 7.43576 212.22 8.44413C212.22 9.44035 212.567 10.2968 213.259 11.0136ZM234.632 3.88826V11.8337H235.907V15.4419H234.705V13H222.422V3.88826H223.625V11.8337H227.925V3.88826H229.128V11.8337H233.429V3.88826H234.632ZM241.398 3.66957C242.759 3.66957 243.846 4.14946 244.66 5.10923C245.499 6.05685 245.918 7.18063 245.918 8.48058C245.918 8.54132 245.906 8.72963 245.881 9.0455H237.881C238.003 9.95668 238.391 10.6856 239.047 11.2323C239.703 11.779 240.524 12.0524 241.508 12.0524C242.893 12.0524 243.871 11.536 244.442 10.5034L245.499 11.123C245.098 11.779 244.545 12.2954 243.84 12.672C243.148 13.0364 242.364 13.2187 241.489 13.2187C240.056 13.2187 238.889 12.7692 237.99 11.8701C237.091 10.9711 236.642 9.82911 236.642 8.44413C236.642 7.07129 237.085 5.93536 237.972 5.03634C238.859 4.12516 240.001 3.66957 241.398 3.66957ZM241.398 4.83588C240.451 4.83588 239.655 5.1153 239.011 5.67416C238.379 6.23301 238.003 6.96803 237.881 7.8792H244.678C244.545 6.90728 244.174 6.16012 243.567 5.63771C242.935 5.10316 242.212 4.83588 241.398 4.83588ZM251.858 3.66957C253.219 3.66957 254.306 4.14946 255.12 5.10923C255.959 6.05685 256.378 7.18063 256.378 8.48058C256.378 8.54132 256.366 8.72963 256.341 9.0455H248.341C248.463 9.95668 248.851 10.6856 249.507 11.2323C250.163 11.779 250.984 12.0524 251.968 12.0524C253.353 12.0524 254.331 11.536 254.902 10.5034L255.959 11.123C255.558 11.779 255.005 12.2954 254.3 12.672C253.608 13.0364 252.824 13.2187 251.949 13.2187C250.516 13.2187 249.349 12.7692 248.45 11.8701C247.551 10.9711 247.102 9.82911 247.102 8.44413C247.102 7.07129 247.545 5.93536 248.432 5.03634C249.319 4.12516 250.461 3.66957 251.858 3.66957ZM251.858 4.83588C250.911 4.83588 250.115 5.1153 249.471 5.67416C248.839 6.23301 248.463 6.96803 248.341 7.8792H255.138C255.005 6.90728 254.634 6.16012 254.027 5.63771C253.395 5.10316 252.672 4.83588 251.858 4.83588ZM268.277 8.31656C269.274 8.68103 269.772 9.39175 269.772 10.4487C269.772 11.2019 269.517 11.8155 269.006 12.2893C268.508 12.7631 267.81 13 266.911 13H262.482V3.88826H266.546C267.421 3.88826 268.101 4.11301 268.587 4.56253C269.085 5.01204 269.334 5.60126 269.334 6.3302C269.334 7.24138 268.982 7.9035 268.277 8.31656ZM266.546 5.05456H263.685V7.82453H266.546C267.603 7.82453 268.132 7.35072 268.132 6.4031C268.132 5.97788 267.992 5.64986 267.712 5.41903C267.445 5.17605 267.056 5.05456 266.546 5.05456ZM263.685 11.8337H266.911C267.445 11.8337 267.852 11.7061 268.132 11.451C268.423 11.1959 268.569 10.8375 268.569 10.3758C268.569 9.93845 268.423 9.59828 268.132 9.3553C267.852 9.11232 267.445 8.99083 266.911 8.99083H263.685V11.8337ZM279.248 5.67416V3.88826H280.451V13H279.248V11.2141C278.41 12.5505 277.183 13.2187 275.567 13.2187C274.267 13.2187 273.155 12.757 272.232 11.8337C271.321 10.9104 270.865 9.78052 270.865 8.44413C270.865 7.10774 271.321 5.97788 272.232 5.05456C273.155 4.13124 274.267 3.66957 275.567 3.66957C277.183 3.66957 278.41 4.33777 279.248 5.67416ZM273.107 11.0136C273.799 11.7061 274.649 12.0524 275.658 12.0524C276.666 12.0524 277.517 11.7061 278.209 11.0136C278.902 10.2968 279.248 9.44035 279.248 8.44413C279.248 7.43576 278.902 6.58533 278.209 5.89284C277.517 5.1882 276.666 4.83588 275.658 4.83588C274.649 4.83588 273.799 5.1882 273.107 5.89284C272.414 6.58533 272.068 7.43576 272.068 8.44413C272.068 9.44035 272.414 10.2968 273.107 11.0136ZM287.061 13.2187C285.688 13.2187 284.546 12.7631 283.635 11.8519C282.724 10.9164 282.268 9.78052 282.268 8.44413C282.268 7.09559 282.724 5.96573 283.635 5.05456C284.546 4.13124 285.688 3.66957 287.061 3.66957C287.96 3.66957 288.768 3.88826 289.485 4.32562C290.202 4.75084 290.724 5.32791 291.052 6.05685L290.068 6.62178C289.825 6.07508 289.43 5.64379 288.883 5.32791C288.349 4.99989 287.741 4.83588 287.061 4.83588C286.053 4.83588 285.202 5.1882 284.51 5.89284C283.817 6.58533 283.471 7.43576 283.471 8.44413C283.471 9.44035 283.817 10.2968 284.51 11.0136C285.202 11.7061 286.053 12.0524 287.061 12.0524C287.729 12.0524 288.331 11.8944 288.865 11.5786C289.412 11.2627 289.837 10.8253 290.141 10.2665L291.143 10.8496C290.766 11.5786 290.214 12.1556 289.485 12.5809C288.756 13.0061 287.948 13.2187 287.061 13.2187ZM292.683 11.451H294.141L293.047 15.5513H291.954L292.683 11.451ZM5.52172 31.2187C4.14888 31.2187 3.00688 30.7631 2.0957 29.8519C1.18453 28.9164 0.728939 27.7805 0.728939 26.4441C0.728939 25.0956 1.18453 23.9657 2.0957 23.0546C3.00688 22.1312 4.14888 21.6696 5.52172 21.6696C6.42074 21.6696 7.22865 21.8883 7.94544 22.3256C8.66223 22.7508 9.18464 23.3279 9.51266 24.0569L8.52859 24.6218C8.28561 24.0751 7.89077 23.6438 7.34407 23.3279C6.80951 22.9999 6.20206 22.8359 5.52172 22.8359C4.51335 22.8359 3.66292 23.1882 2.97043 23.8928C2.27794 24.5853 1.93169 25.4358 1.93169 26.4441C1.93169 27.4403 2.27794 28.2968 2.97043 29.0136C3.66292 29.7061 4.51335 30.0524 5.52172 30.0524C6.18991 30.0524 6.79129 29.8944 7.32584 29.5786C7.87255 29.2627 8.29776 28.8253 8.60149 28.2665L9.60378 28.8496C9.22716 29.5786 8.67438 30.1556 7.94544 30.5809C7.2165 31.0061 6.40859 31.2187 5.52172 31.2187ZM18.695 29.8519C17.7595 30.7631 16.6297 31.2187 15.3055 31.2187C13.9569 31.2187 12.821 30.7631 11.8977 29.8519C10.9743 28.9286 10.5127 27.7927 10.5127 26.4441C10.5127 25.0956 10.9743 23.9657 11.8977 23.0546C12.821 22.1312 13.9569 21.6696 15.3055 21.6696C16.6418 21.6696 17.7717 22.1312 18.695 23.0546C19.6305 23.9657 20.0982 25.0956 20.0982 26.4441C20.0982 27.7805 19.6305 28.9164 18.695 29.8519ZM12.7542 29.0136C13.4467 29.7061 14.2971 30.0524 15.3055 30.0524C16.3138 30.0524 17.1642 29.7061 17.8567 29.0136C18.5492 28.2968 18.8955 27.4403 18.8955 26.4441C18.8955 25.4358 18.5492 24.5853 17.8567 23.8928C17.1642 23.1882 16.3138 22.8359 15.3055 22.8359C14.2971 22.8359 13.4467 23.1882 12.7542 23.8928C12.0617 24.5853 11.7154 25.4358 11.7154 26.4441C11.7154 27.4403 12.0617 28.2968 12.7542 29.0136ZM26.2744 26.3166C27.3314 26.7175 27.8599 27.4464 27.8599 28.5034C27.8599 29.2688 27.5622 29.9127 26.9669 30.4351C26.3959 30.9575 25.5576 31.2187 24.4521 31.2187C22.6054 31.2187 21.4027 30.4897 20.8438 29.0319L21.8643 28.4305C22.2531 29.5117 23.1157 30.0524 24.4521 30.0524C25.1446 30.0524 25.6852 29.9066 26.074 29.615C26.4627 29.3113 26.6571 28.9164 26.6571 28.4305C26.6571 27.9931 26.4992 27.6469 26.1833 27.3917C25.8674 27.1245 25.4422 26.9908 24.9077 26.9908H23.5773V25.8245H24.5432C25.0656 25.8245 25.4726 25.697 25.7642 25.4418C26.0679 25.1746 26.2198 24.8101 26.2198 24.3484C26.2198 23.9111 26.0375 23.5527 25.673 23.2732C25.3207 22.9817 24.853 22.8359 24.2698 22.8359C23.14 22.8359 22.3807 23.2915 21.9919 24.2026L20.9896 23.6195C21.5971 22.3195 22.6905 21.6696 24.2698 21.6696C25.2418 21.6696 26.0071 21.9247 26.566 22.435C27.137 22.9331 27.4225 23.5466 27.4225 24.2755C27.4225 25.211 27.0398 25.8913 26.2744 26.3166ZM36.9816 21.8883V29.8337H38.2572V33.4419H37.0545V31H29.6193V33.4419H28.4165V29.8337H29.5282C30.1478 29.0076 30.4576 27.8595 30.4576 26.3895V21.8883H36.9816ZM30.986 29.8337H35.7788V23.0546H31.6603V26.3895C31.6603 27.7987 31.4356 28.9468 30.986 29.8337ZM47.3747 23.6742V21.8883H48.5774V31H47.3747V29.2141C46.5364 30.5505 45.3093 31.2187 43.6935 31.2187C42.3936 31.2187 41.2819 30.757 40.3586 29.8337C39.4474 28.9104 38.9919 27.7805 38.9919 26.4441C38.9919 25.1077 39.4474 23.9779 40.3586 23.0546C41.2819 22.1312 42.3936 21.6696 43.6935 21.6696C45.3093 21.6696 46.5364 22.3378 47.3747 23.6742ZM41.2333 29.0136C41.9258 29.7061 42.7763 30.0524 43.7846 30.0524C44.793 30.0524 45.6434 29.7061 46.3359 29.0136C47.0284 28.2968 47.3747 27.4403 47.3747 26.4441C47.3747 25.4358 47.0284 24.5853 46.3359 23.8928C45.6434 23.1882 44.793 22.8359 43.7846 22.8359C42.7763 22.8359 41.9258 23.1882 41.2333 23.8928C40.5408 24.5853 40.1946 25.4358 40.1946 26.4441C40.1946 27.4403 40.5408 28.2968 41.2333 29.0136ZM57.1377 20.4304H52.3996V19.3734H57.1377V20.4304ZM52.1445 28.9043L57.5751 21.8883H58.5956V31H57.3929V23.984L51.9623 31H50.9418V21.8883H52.1445V28.9043ZM59.8634 21.8883H67.5173V23.0546H64.2917V31H63.089V23.0546H59.8634V21.8883ZM72.6545 21.6696C74.0152 21.6696 75.1025 22.1495 75.9165 23.1092C76.7548 24.0569 77.1739 25.1806 77.1739 26.4806C77.1739 26.5413 77.1618 26.7296 77.1375 27.0455H69.1373C69.2588 27.9567 69.6476 28.6856 70.3036 29.2323C70.9597 29.779 71.7797 30.0524 72.7638 30.0524C74.1488 30.0524 75.1268 29.536 75.6978 28.5034L76.7548 29.123C76.3538 29.779 75.8011 30.2954 75.0964 30.672C74.4039 31.0364 73.6203 31.2187 72.7456 31.2187C71.312 31.2187 70.1457 30.7692 69.2467 29.8701C68.3477 28.9711 67.8981 27.8291 67.8981 26.4441C67.8981 25.0713 68.3416 23.9354 69.2285 23.0363C70.1153 22.1252 71.2573 21.6696 72.6545 21.6696ZM72.6545 22.8359C71.7069 22.8359 70.9111 23.1153 70.2672 23.6742C69.6354 24.233 69.2588 24.968 69.1373 25.8792H75.9347C75.8011 24.9073 75.4305 24.1601 74.8231 23.6377C74.1913 23.1032 73.4685 22.8359 72.6545 22.8359ZM87.5246 31.2187C86.1517 31.2187 85.0097 30.7631 84.0985 29.8519C83.1874 28.9164 82.7318 27.7805 82.7318 26.4441C82.7318 25.0956 83.1874 23.9657 84.0985 23.0546C85.0097 22.1312 86.1517 21.6696 87.5246 21.6696C88.4236 21.6696 89.2315 21.8883 89.9483 22.3256C90.6651 22.7508 91.1875 23.3279 91.5155 24.0569L90.5314 24.6218C90.2885 24.0751 89.8936 23.6438 89.3469 23.3279C88.8123 22.9999 88.2049 22.8359 87.5246 22.8359C86.5162 22.8359 85.6658 23.1882 84.9733 23.8928C84.2808 24.5853 83.9345 25.4358 83.9345 26.4441C83.9345 27.4403 84.2808 28.2968 84.9733 29.0136C85.6658 29.7061 86.5162 30.0524 87.5246 30.0524C88.1927 30.0524 88.7941 29.8944 89.3287 29.5786C89.8754 29.2627 90.3006 28.8253 90.6043 28.2665L91.6066 28.8496C91.23 29.5786 90.6772 30.1556 89.9483 30.5809C89.2193 31.0061 88.4114 31.2187 87.5246 31.2187ZM98.9463 26.3166C99.9425 26.681 100.441 27.3917 100.441 28.4487C100.441 29.2019 100.185 29.8155 99.6752 30.2893C99.1771 30.7631 98.4785 31 97.5795 31H93.1512V21.8883H97.215C98.0898 21.8883 98.7701 22.113 99.2561 22.5625C99.7542 23.012 100.003 23.6013 100.003 24.3302C100.003 25.2414 99.6509 25.9035 98.9463 26.3166ZM97.215 23.0546H94.354V25.8245H97.215C98.272 25.8245 98.8005 25.3507 98.8005 24.4031C98.8005 23.9779 98.6608 23.6499 98.3813 23.419C98.1141 23.176 97.7253 23.0546 97.215 23.0546ZM94.354 29.8337H97.5795C98.1141 29.8337 98.5211 29.7061 98.8005 29.451C99.0921 29.1959 99.2378 28.8375 99.2378 28.3758C99.2378 27.9385 99.0921 27.5983 98.8005 27.3553C98.5211 27.1123 98.1141 26.9908 97.5795 26.9908H94.354V29.8337ZM109.716 29.8519C108.781 30.7631 107.651 31.2187 106.327 31.2187C104.978 31.2187 103.842 30.7631 102.919 29.8519C101.996 28.9286 101.534 27.7927 101.534 26.4441C101.534 25.0956 101.996 23.9657 102.919 23.0546C103.842 22.1312 104.978 21.6696 106.327 21.6696C107.663 21.6696 108.793 22.1312 109.716 23.0546C110.652 23.9657 111.12 25.0956 111.12 26.4441C111.12 27.7805 110.652 28.9164 109.716 29.8519ZM103.775 29.0136C104.468 29.7061 105.318 30.0524 106.327 30.0524C107.335 30.0524 108.186 29.7061 108.878 29.0136C109.571 28.2968 109.917 27.4403 109.917 26.4441C109.917 25.4358 109.571 24.5853 108.878 23.8928C108.186 23.1882 107.335 22.8359 106.327 22.8359C105.318 22.8359 104.468 23.1882 103.775 23.8928C103.083 24.5853 102.737 25.4358 102.737 26.4441C102.737 27.4403 103.083 28.2968 103.775 29.0136ZM120.731 21.6696C122.068 21.6696 123.198 22.1312 124.121 23.0546C125.056 23.9657 125.524 25.0956 125.524 26.4441C125.524 27.7805 125.056 28.9164 124.121 29.8519C123.186 30.7631 122.056 31.2187 120.731 31.2187C119.517 31.2187 118.46 30.8238 117.561 30.0342C116.674 29.2202 116.17 28.2179 116.048 27.0273H114.153V31H112.95V21.8883H114.153V25.861H116.048C116.182 24.6582 116.686 23.662 117.561 22.8723C118.447 22.0705 119.504 21.6696 120.731 21.6696ZM118.18 29.0136C118.873 29.7061 119.723 30.0524 120.731 30.0524C121.74 30.0524 122.59 29.7061 123.283 29.0136C123.975 28.2968 124.321 27.4403 124.321 26.4441C124.321 25.4358 123.975 24.5853 123.283 23.8928C122.59 23.1882 121.74 22.8359 120.731 22.8359C119.723 22.8359 118.873 23.1882 118.18 23.8928C117.488 24.5853 117.141 25.4358 117.141 26.4441C117.141 27.4403 117.488 28.2968 118.18 29.0136ZM139.553 23.6742V21.8883H140.756V31H139.553V29.2141C138.714 30.5505 137.487 31.2187 135.872 31.2187C134.572 31.2187 133.46 30.757 132.537 29.8337C131.626 28.9104 131.17 27.7805 131.17 26.4441C131.17 25.1077 131.626 23.9779 132.537 23.0546C133.46 22.1312 134.572 21.6696 135.872 21.6696C137.487 21.6696 138.714 22.3378 139.553 23.6742ZM133.411 29.0136C134.104 29.7061 134.954 30.0524 135.963 30.0524C136.971 30.0524 137.822 29.7061 138.514 29.0136C139.207 28.2968 139.553 27.4403 139.553 26.4441C139.553 25.4358 139.207 24.5853 138.514 23.8928C137.822 23.1882 136.971 22.8359 135.963 22.8359C134.954 22.8359 134.104 23.1882 133.411 23.8928C132.719 24.5853 132.373 25.4358 132.373 26.4441C132.373 27.4403 132.719 28.2968 133.411 29.0136ZM145.598 26.2619L150.482 31H148.878L144.323 26.6081V31H143.12V21.8883H144.323V25.9156L148.66 21.8883H150.3L145.598 26.2619ZM150.849 21.8883H158.503V23.0546H155.277V31H154.075V23.0546H150.849V21.8883ZM160.989 28.9043L166.42 21.8883H167.44V31H166.238V23.984L160.807 31H159.787V21.8883H160.989V28.9043ZM175.597 26.3166C176.593 26.681 177.091 27.3917 177.091 28.4487C177.091 29.2019 176.836 29.8155 176.326 30.2893C175.827 30.7631 175.129 31 174.23 31H169.802V21.8883H173.865C174.74 21.8883 175.421 22.113 175.906 22.5625C176.405 23.012 176.654 23.6013 176.654 24.3302C176.654 25.2414 176.301 25.9035 175.597 26.3166ZM173.865 23.0546H171.004V25.8245H173.865C174.922 25.8245 175.451 25.3507 175.451 24.4031C175.451 23.9779 175.311 23.6499 175.032 23.419C174.764 23.176 174.376 23.0546 173.865 23.0546ZM171.004 29.8337H174.23C174.764 29.8337 175.171 29.7061 175.451 29.451C175.742 29.1959 175.888 28.8375 175.888 28.3758C175.888 27.9385 175.742 27.5983 175.451 27.3553C175.171 27.1123 174.764 26.9908 174.23 26.9908H171.004V29.8337ZM185.182 25.861V21.8883H186.385V31H185.182V27.0273H179.934V31H178.731V21.8883H179.934V25.861H185.182ZM196.382 29.8519C195.446 30.7631 194.317 31.2187 192.992 31.2187C191.644 31.2187 190.508 30.7631 189.584 29.8519C188.661 28.9286 188.199 27.7927 188.199 26.4441C188.199 25.0956 188.661 23.9657 189.584 23.0546C190.508 22.1312 191.644 21.6696 192.992 21.6696C194.329 21.6696 195.459 22.1312 196.382 23.0546C197.317 23.9657 197.785 25.0956 197.785 26.4441C197.785 27.7805 197.317 28.9164 196.382 29.8519ZM190.441 29.0136C191.133 29.7061 191.984 30.0524 192.992 30.0524C194.001 30.0524 194.851 29.7061 195.544 29.0136C196.236 28.2968 196.582 27.4403 196.582 26.4441C196.582 25.4358 196.236 24.5853 195.544 23.8928C194.851 23.1882 194.001 22.8359 192.992 22.8359C191.984 22.8359 191.133 23.1882 190.441 23.8928C189.748 24.5853 189.402 25.4358 189.402 26.4441C189.402 27.4403 189.748 28.2968 190.441 29.0136ZM203.862 31.2187C202.489 31.2187 201.347 30.7631 200.436 29.8519C199.524 28.9164 199.069 27.7805 199.069 26.4441C199.069 25.0956 199.524 23.9657 200.436 23.0546C201.347 22.1312 202.489 21.6696 203.862 21.6696C204.761 21.6696 205.569 21.8883 206.285 22.3256C207.002 22.7508 207.525 23.3279 207.853 24.0569L206.868 24.6218C206.625 24.0751 206.231 23.6438 205.684 23.3279C205.149 22.9999 204.542 22.8359 203.862 22.8359C202.853 22.8359 202.003 23.1882 201.31 23.8928C200.618 24.5853 200.272 25.4358 200.272 26.4441C200.272 27.4403 200.618 28.2968 201.31 29.0136C202.003 29.7061 202.853 30.0524 203.862 30.0524C204.53 30.0524 205.131 29.8944 205.666 29.5786C206.212 29.2627 206.638 28.8253 206.941 28.2665L207.944 28.8496C207.567 29.5786 207.014 30.1556 206.285 30.5809C205.556 31.0061 204.748 31.2187 203.862 31.2187ZM208.217 21.8883H215.871V23.0546H212.645V31H211.442V23.0546H208.217V21.8883ZM218.357 25.3507H220.854C221.692 25.3507 222.409 25.618 223.004 26.1526C223.599 26.675 223.897 27.3492 223.897 28.1754C223.897 29.0136 223.599 29.694 223.004 30.2164C222.433 30.7388 221.716 31 220.854 31H217.154V21.8883H218.357V25.3507ZM218.357 29.8337H220.854C221.376 29.8337 221.813 29.6818 222.166 29.3781C222.518 29.0622 222.694 28.6613 222.694 28.1754C222.694 27.6894 222.518 27.2946 222.166 26.9908C221.813 26.675 221.376 26.517 220.854 26.517H218.357V29.8337ZM226.808 27.5375H225.896L225.623 21.8883V18.2436H227.081V21.8883L226.808 27.5375ZM227.354 30.1799C227.354 30.4594 227.257 30.6963 227.063 30.8907C226.868 31.085 226.631 31.1822 226.352 31.1822C226.073 31.1822 225.836 31.085 225.641 30.8907C225.447 30.6963 225.35 30.4594 225.35 30.1799C225.35 29.9005 225.447 29.6636 225.641 29.4692C225.836 29.2748 226.073 29.1777 226.352 29.1777C226.631 29.1777 226.868 29.2748 227.063 29.4692C227.257 29.6636 227.354 29.9005 227.354 30.1799ZM11.5355 37.2436H13.1209V50H11.8453V39.1752L7.38051 46.6469H7.19828L2.73352 39.1752V50H1.45788V37.2436H3.04332L7.28939 44.3507L11.5355 37.2436ZM16.8714 44.3507H19.368C20.2063 44.3507 20.9231 44.618 21.5184 45.1526C22.1137 45.675 22.4113 46.3492 22.4113 47.1754C22.4113 48.0136 22.1137 48.694 21.5184 49.2164C20.9474 49.7388 20.2306 50 19.368 50H15.6686V40.8883H16.8714V44.3507ZM23.687 50V40.8883H24.8897V50H23.687ZM16.8714 48.8337H19.368C19.8904 48.8337 20.3278 48.6818 20.6801 48.3781C21.0324 48.0622 21.2086 47.6613 21.2086 47.1754C21.2086 46.6894 21.0324 46.2946 20.6801 45.9908C20.3278 45.675 19.8904 45.517 19.368 45.517H16.8714V48.8337ZM35.2495 48.5239L38.2017 40.8883H39.4773L35.5775 50.8383C35.213 51.7616 34.7028 52.4723 34.0467 52.9704C33.4028 53.4807 32.6861 53.7054 31.8964 53.6447V52.5148C32.9898 52.6485 33.822 52.0167 34.393 50.6196L34.6299 50.0547L30.5478 40.8883H31.8235L35.2495 48.5239ZM46.5438 45.3166C47.54 45.681 48.0381 46.3917 48.0381 47.4487C48.0381 48.2019 47.783 48.8155 47.2727 49.2893C46.7746 49.7631 46.076 50 45.177 50H40.7487V40.8883H44.8125C45.6873 40.8883 46.3676 41.113 46.8536 41.5625C47.3517 42.012 47.6007 42.6013 47.6007 43.3302C47.6007 44.2414 47.2484 44.9035 46.5438 45.3166ZM44.8125 42.0546H41.9515V44.8245H44.8125C45.8695 44.8245 46.398 44.3507 46.398 43.4031C46.398 42.9779 46.2583 42.6499 45.9789 42.419C45.7116 42.176 45.3228 42.0546 44.8125 42.0546ZM41.9515 48.8337H45.177C45.7116 48.8337 46.1186 48.7061 46.398 48.451C46.6896 48.1959 46.8354 47.8375 46.8354 47.3758C46.8354 46.9385 46.6896 46.5983 46.398 46.3553C46.1186 46.1123 45.7116 45.9908 45.177 45.9908H41.9515V48.8337ZM53.8878 40.6696C55.2485 40.6696 56.3359 41.1495 57.1499 42.1092C57.9881 43.0569 58.4073 44.1806 58.4073 45.4806C58.4073 45.5413 58.3951 45.7296 58.3708 46.0455H50.3707C50.4922 46.9567 50.881 47.6856 51.537 48.2323C52.1931 48.779 53.0131 49.0524 53.9972 49.0524C55.3822 49.0524 56.3602 48.536 56.9312 47.5034L57.9881 48.123C57.5872 48.779 57.0344 49.2954 56.3298 49.672C55.6373 50.0364 54.8537 50.2187 53.979 50.2187C52.5454 50.2187 51.3791 49.7692 50.4801 48.8701C49.581 47.9711 49.1315 46.8291 49.1315 45.4441C49.1315 44.0713 49.575 42.9354 50.4618 42.0363C51.3487 41.1252 52.4907 40.6696 53.8878 40.6696ZM53.8878 41.8359C52.9402 41.8359 52.1445 42.1153 51.5006 42.6742C50.8688 43.233 50.4922 43.968 50.3707 44.8792H57.1681C57.0344 43.9073 56.6639 43.1601 56.0564 42.6377C55.4247 42.1032 54.7018 41.8359 53.8878 41.8359ZM65.0221 40.6696C66.3221 40.6696 67.4276 41.1312 68.3388 42.0546C69.2621 42.9779 69.7238 44.1077 69.7238 45.4441C69.7238 46.7805 69.2621 47.9104 68.3388 48.8337C67.4276 49.757 66.3221 50.2187 65.0221 50.2187C63.4063 50.2187 62.1792 49.5505 61.341 48.2141V53.6447H60.1382V40.8883H61.341V42.6742C62.1792 41.3378 63.4063 40.6696 65.0221 40.6696ZM62.3797 48.0136C63.0722 48.7061 63.9226 49.0524 64.931 49.0524C65.9394 49.0524 66.7898 48.7061 67.4823 48.0136C68.1748 47.2968 68.521 46.4403 68.521 45.4441C68.521 44.4358 68.1748 43.5853 67.4823 42.8928C66.7898 42.1882 65.9394 41.8359 64.931 41.8359C63.9226 41.8359 63.0722 42.1882 62.3797 42.8928C61.6872 43.5853 61.341 44.4358 61.341 45.4441C61.341 46.4403 61.6872 47.2968 62.3797 48.0136ZM75.751 40.6696C77.1117 40.6696 78.1991 41.1495 79.0131 42.1092C79.8513 43.0569 80.2705 44.1806 80.2705 45.4806C80.2705 45.5413 80.2583 45.7296 80.234 46.0455H72.2339C72.3554 46.9567 72.7442 47.6856 73.4002 48.2323C74.0563 48.779 74.8763 49.0524 75.8604 49.0524C77.2454 49.0524 78.2234 48.536 78.7944 47.5034L79.8513 48.123C79.4504 48.779 78.8976 49.2954 78.193 49.672C77.5005 50.0364 76.7169 50.2187 75.8422 50.2187C74.4086 50.2187 73.2423 49.7692 72.3433 48.8701C71.4442 47.9711 70.9947 46.8291 70.9947 45.4441C70.9947 44.0713 71.4382 42.9354 72.325 42.0363C73.2119 41.1252 74.3539 40.6696 75.751 40.6696ZM75.751 41.8359C74.8034 41.8359 74.0077 42.1153 73.3638 42.6742C72.732 43.233 72.3554 43.968 72.2339 44.8792H79.0313C78.8976 43.9073 78.5271 43.1601 77.9196 42.6377C77.2879 42.1032 76.565 41.8359 75.751 41.8359ZM88.4525 44.861V40.8883H89.6553V50H88.4525V46.0273H83.2042V50H82.0014V40.8883H83.2042V44.861H88.4525ZM93.2193 44.3507H95.7159C96.5542 44.3507 97.2709 44.618 97.8662 45.1526C98.4615 45.675 98.7592 46.3492 98.7592 47.1754C98.7592 48.0136 98.4615 48.694 97.8662 49.2164C97.2952 49.7388 96.5785 50 95.7159 50H92.0165V40.8883H93.2193V44.3507ZM100.035 50V40.8883H101.238V50H100.035ZM93.2193 48.8337H95.7159C96.2383 48.8337 96.6756 48.6818 97.028 48.3781C97.3803 48.0622 97.5564 47.6613 97.5564 47.1754C97.5564 46.6894 97.3803 46.2946 97.028 45.9908C96.6756 45.675 96.2383 45.517 95.7159 45.517H93.2193V48.8337ZM104.162 48.451H105.62L104.527 52.5513H103.433L104.162 48.451ZM117.98 45.3166C118.976 45.681 119.474 46.3917 119.474 47.4487C119.474 48.2019 119.219 48.8155 118.709 49.2893C118.211 49.7631 117.512 50 116.613 50H112.185V40.8883H116.249C117.123 40.8883 117.804 41.113 118.29 41.5625C118.788 42.012 119.037 42.6013 119.037 43.3302C119.037 44.2414 118.684 44.9035 117.98 45.3166ZM116.249 42.0546H113.388V44.8245H116.249C117.306 44.8245 117.834 44.3507 117.834 43.4031C117.834 42.9779 117.694 42.6499 117.415 42.419C117.148 42.176 116.759 42.0546 116.249 42.0546ZM113.388 48.8337H116.613C117.148 48.8337 117.555 48.7061 117.834 48.451C118.126 48.1959 118.271 47.8375 118.271 47.3758C118.271 46.9385 118.126 46.5983 117.834 46.3553C117.555 46.1123 117.148 45.9908 116.613 45.9908H113.388V48.8337ZM122.317 44.3507H124.814C125.652 44.3507 126.369 44.618 126.964 45.1526C127.559 45.675 127.857 46.3492 127.857 47.1754C127.857 48.0136 127.559 48.694 126.964 49.2164C126.393 49.7388 125.676 50 124.814 50H121.114V40.8883H122.317V44.3507ZM129.133 50V40.8883H130.335V50H129.133ZM122.317 48.8337H124.814C125.336 48.8337 125.773 48.6818 126.126 48.3781C126.478 48.0622 126.654 47.6613 126.654 47.1754C126.654 46.6894 126.478 46.2946 126.126 45.9908C125.773 45.675 125.336 45.517 124.814 45.517H122.317V48.8337ZM141.333 50.2187C139.96 50.2187 138.818 49.7631 137.907 48.8519C136.996 47.9164 136.54 46.7805 136.54 45.4441C136.54 44.0956 136.996 42.9657 137.907 42.0546C138.818 41.1312 139.96 40.6696 141.333 40.6696C142.232 40.6696 143.04 40.8883 143.757 41.3256C144.473 41.7508 144.996 42.3279 145.324 43.0569L144.34 43.6218C144.097 43.0751 143.702 42.6438 143.155 42.3279C142.621 41.9999 142.013 41.8359 141.333 41.8359C140.325 41.8359 139.474 42.1882 138.782 42.8928C138.089 43.5853 137.743 44.4358 137.743 45.4441C137.743 46.4403 138.089 47.2968 138.782 48.0136C139.474 48.7061 140.325 49.0524 141.333 49.0524C142.001 49.0524 142.603 48.8944 143.137 48.5786C143.684 48.2627 144.109 47.8253 144.413 47.2665L145.415 47.8496C145.038 48.5786 144.486 49.1556 143.757 49.5809C143.028 50.0061 142.22 50.2187 141.333 50.2187ZM154.506 48.8519C153.571 49.7631 152.441 50.2187 151.117 50.2187C149.768 50.2187 148.632 49.7631 147.709 48.8519C146.786 47.9286 146.324 46.7927 146.324 45.4441C146.324 44.0956 146.786 42.9657 147.709 42.0546C148.632 41.1312 149.768 40.6696 151.117 40.6696C152.453 40.6696 153.583 41.1312 154.506 42.0546C155.442 42.9657 155.909 44.0956 155.909 45.4441C155.909 46.7805 155.442 47.9164 154.506 48.8519ZM148.565 48.0136C149.258 48.7061 150.108 49.0524 151.117 49.0524C152.125 49.0524 152.975 48.7061 153.668 48.0136C154.36 47.2968 154.707 46.4403 154.707 45.4441C154.707 44.4358 154.36 43.5853 153.668 42.8928C152.975 42.1882 152.125 41.8359 151.117 41.8359C150.108 41.8359 149.258 42.1882 148.565 42.8928C147.873 43.5853 147.527 44.4358 147.527 45.4441C147.527 46.4403 147.873 47.2968 148.565 48.0136ZM161.786 50.2187C160.486 50.2187 159.392 49.7874 158.505 48.9248C157.631 48.0501 157.193 46.9202 157.193 45.5352C157.193 43.9802 157.424 42.7896 157.886 41.9634C158.347 41.1252 159.283 40.3658 160.692 39.6855C161.142 39.479 161.494 39.321 161.749 39.2117C162.174 39.0416 162.508 38.8958 162.751 38.7743C163.808 38.2884 164.343 37.687 164.355 36.9702L165.303 37.5169C165.242 37.8206 165.145 38.094 165.011 38.337C164.853 38.6042 164.695 38.8169 164.537 38.9748C164.391 39.1327 164.161 39.3028 163.845 39.485C163.638 39.6065 163.389 39.7402 163.098 39.886L162.186 40.2687L161.33 40.6331C160.492 40.9976 159.866 41.3803 159.453 41.7812C159.052 42.17 158.767 42.6802 158.596 43.312C158.985 42.7896 159.495 42.3947 160.127 42.1275C160.759 41.848 161.397 41.7083 162.041 41.7083C163.256 41.7083 164.258 42.1092 165.048 42.9111C165.849 43.7007 166.25 44.7152 166.25 45.9544C166.25 47.1814 165.825 48.2019 164.975 49.0159C164.136 49.8178 163.073 50.2187 161.786 50.2187ZM159.416 48.123C160.048 48.7183 160.838 49.0159 161.786 49.0159C162.733 49.0159 163.511 48.7304 164.118 48.1594C164.738 47.5763 165.048 46.8413 165.048 45.9544C165.048 45.0554 164.756 44.3203 164.173 43.7493C163.602 43.1662 162.836 42.8746 161.877 42.8746C161.014 42.8746 160.23 43.148 159.526 43.6947C158.821 44.2171 158.469 44.9339 158.469 45.845C158.469 46.7684 158.785 47.5277 159.416 48.123ZM172.107 40.6696C173.468 40.6696 174.555 41.1495 175.369 42.1092C176.207 43.0569 176.626 44.1806 176.626 45.4806C176.626 45.5413 176.614 45.7296 176.59 46.0455H168.59C168.711 46.9567 169.1 47.6856 169.756 48.2323C170.412 48.779 171.232 49.0524 172.216 49.0524C173.601 49.0524 174.579 48.536 175.15 47.5034L176.207 48.123C175.806 48.779 175.254 49.2954 174.549 49.672C173.856 50.0364 173.073 50.2187 172.198 50.2187C170.765 50.2187 169.598 49.7692 168.699 48.8701C167.8 47.9711 167.351 46.8291 167.351 45.4441C167.351 44.0713 167.794 42.9354 168.681 42.0363C169.568 41.1252 170.71 40.6696 172.107 40.6696ZM172.107 41.8359C171.159 41.8359 170.364 42.1153 169.72 42.6742C169.088 43.233 168.711 43.968 168.59 44.8792H175.387C175.254 43.9073 174.883 43.1601 174.276 42.6377C173.644 42.1032 172.921 41.8359 172.107 41.8359ZM183.241 40.6696C184.541 40.6696 185.647 41.1312 186.558 42.0546C187.481 42.9779 187.943 44.1077 187.943 45.4441C187.943 46.7805 187.481 47.9104 186.558 48.8337C185.647 49.757 184.541 50.2187 183.241 50.2187C181.625 50.2187 180.398 49.5505 179.56 48.2141V53.6447H178.357V40.8883H179.56V42.6742C180.398 41.3378 181.625 40.6696 183.241 40.6696ZM180.599 48.0136C181.291 48.7061 182.142 49.0524 183.15 49.0524C184.159 49.0524 185.009 48.7061 185.701 48.0136C186.394 47.2968 186.74 46.4403 186.74 45.4441C186.74 44.4358 186.394 43.5853 185.701 42.8928C185.009 42.1882 184.159 41.8359 183.15 41.8359C182.142 41.8359 181.291 42.1882 180.599 42.8928C179.906 43.5853 179.56 44.4358 179.56 45.4441C179.56 46.4403 179.906 47.2968 180.599 48.0136ZM192.95 38.7014C192.95 38.9323 192.871 39.1267 192.713 39.2846C192.555 39.4425 192.36 39.5215 192.13 39.5215C191.899 39.5215 191.704 39.4425 191.546 39.2846C191.389 39.1267 191.31 38.9323 191.31 38.7014C191.31 38.4706 191.389 38.2762 191.546 38.1183C191.704 37.9603 191.899 37.8814 192.13 37.8814C192.36 37.8814 192.555 37.9603 192.713 38.1183C192.871 38.2762 192.95 38.4706 192.95 38.7014ZM196.412 38.7014C196.412 38.9323 196.333 39.1267 196.175 39.2846C196.017 39.4425 195.823 39.5215 195.592 39.5215C195.361 39.5215 195.167 39.4425 195.009 39.2846C194.851 39.1267 194.772 38.9323 194.772 38.7014C194.772 38.4706 194.851 38.2762 195.009 38.1183C195.167 37.9603 195.361 37.8814 195.592 37.8814C195.823 37.8814 196.017 37.9603 196.175 38.1183C196.333 38.2762 196.412 38.4706 196.412 38.7014ZM193.97 40.6696C195.331 40.6696 196.418 41.1495 197.232 42.1092C198.07 43.0569 198.49 44.1806 198.49 45.4806C198.49 45.5413 198.477 45.7296 198.453 46.0455H190.453C190.575 46.9567 190.963 47.6856 191.619 48.2323C192.275 48.779 193.095 49.0524 194.08 49.0524C195.465 49.0524 196.443 48.536 197.014 47.5034L198.07 48.123C197.67 48.779 197.117 49.2954 196.412 49.672C195.72 50.0364 194.936 50.2187 194.061 50.2187C192.628 50.2187 191.461 49.7692 190.562 48.8701C189.663 47.9711 189.214 46.8291 189.214 45.4441C189.214 44.0713 189.657 42.9354 190.544 42.0363C191.431 41.1252 192.573 40.6696 193.97 40.6696ZM193.97 41.8359C193.023 41.8359 192.227 42.1153 191.583 42.6742C190.951 43.233 190.575 43.968 190.453 44.8792H197.25C197.117 43.9073 196.746 43.1601 196.139 42.6377C195.507 42.1032 194.784 41.8359 193.97 41.8359ZM198.771 40.8883H206.425V42.0546H203.2V50H201.997V42.0546H198.771V40.8883ZM211.562 40.6696C212.923 40.6696 214.01 41.1495 214.824 42.1092C215.663 43.0569 216.082 44.1806 216.082 45.4806C216.082 45.5413 216.07 45.7296 216.045 46.0455H208.045C208.167 46.9567 208.555 47.6856 209.211 48.2323C209.867 48.779 210.688 49.0524 211.672 49.0524C213.057 49.0524 214.035 48.536 214.606 47.5034L215.663 48.123C215.262 48.779 214.709 49.2954 214.004 49.672C213.312 50.0364 212.528 50.2187 211.653 50.2187C210.22 50.2187 209.054 49.7692 208.154 48.8701C207.255 47.9711 206.806 46.8291 206.806 45.4441C206.806 44.0713 207.249 42.9354 208.136 42.0363C209.023 41.1252 210.165 40.6696 211.562 40.6696ZM211.562 41.8359C210.615 41.8359 209.819 42.1153 209.175 42.6742C208.543 43.233 208.167 43.968 208.045 44.8792H214.843C214.709 43.9073 214.338 43.1601 213.731 42.6377C213.099 42.1032 212.376 41.8359 211.562 41.8359ZM224.665 45.2619L229.549 50H227.945L223.389 45.6081V50H222.186V40.8883H223.389V44.9156L227.726 40.8883H229.366L224.665 45.2619ZM237.737 48.8519C236.802 49.7631 235.672 50.2187 234.347 50.2187C232.999 50.2187 231.863 49.7631 230.94 48.8519C230.016 47.9286 229.555 46.7927 229.555 45.4441C229.555 44.0956 230.016 42.9657 230.94 42.0546C231.863 41.1312 232.999 40.6696 234.347 40.6696C235.684 40.6696 236.814 41.1312 237.737 42.0546C238.673 42.9657 239.14 44.0956 239.14 45.4441C239.14 46.7805 238.673 47.9164 237.737 48.8519ZM231.796 48.0136C232.489 48.7061 233.339 49.0524 234.347 49.0524C235.356 49.0524 236.206 48.7061 236.899 48.0136C237.591 47.2968 237.938 46.4403 237.938 45.4441C237.938 44.4358 237.591 43.5853 236.899 42.8928C236.206 42.1882 235.356 41.8359 234.347 41.8359C233.339 41.8359 232.489 42.1882 231.796 42.8928C231.104 43.5853 230.757 44.4358 230.757 45.4441C230.757 46.4403 231.104 47.2968 231.796 48.0136ZM248.515 40.8883H249.9V50H248.697V42.7288L245.508 47.9043H245.363L242.173 42.7288V50H240.971V40.8883H242.356L245.435 45.8815L248.515 40.8883ZM260.103 42.6742V40.8883H261.306V50H260.103V48.2141C259.265 49.5505 258.038 50.2187 256.422 50.2187C255.122 50.2187 254.011 49.757 253.087 48.8337C252.176 47.9104 251.72 46.7805 251.72 45.4441C251.72 44.1077 252.176 42.9779 253.087 42.0546C254.011 41.1312 255.122 40.6696 256.422 40.6696C258.038 40.6696 259.265 41.3378 260.103 42.6742ZM253.962 48.0136C254.654 48.7061 255.505 49.0524 256.513 49.0524C257.522 49.0524 258.372 48.7061 259.065 48.0136C259.757 47.2968 260.103 46.4403 260.103 45.4441C260.103 44.4358 259.757 43.5853 259.065 42.8928C258.372 42.1882 257.522 41.8359 256.513 41.8359C255.505 41.8359 254.654 42.1882 253.962 42.8928C253.269 43.5853 252.923 44.4358 252.923 45.4441C252.923 46.4403 253.269 47.2968 253.962 48.0136ZM270.121 44.861V40.8883H271.324V50H270.121V46.0273H264.873V50H263.67V40.8883H264.873V44.861H270.121ZM281.339 40.8883V48.8337H282.615V52.4419H281.412V50H273.977V52.4419H272.774V48.8337H273.886C274.505 48.0076 274.815 46.8595 274.815 45.3895V40.8883H281.339ZM275.344 48.8337H280.137V42.0546H276.018V45.3895C276.018 46.7987 275.793 47.9468 275.344 48.8337ZM287.505 48.5239L290.457 40.8883H291.732L287.833 50.8383C287.468 51.7616 286.958 52.4723 286.302 52.9704C285.658 53.4807 284.941 53.7054 284.151 53.6447V52.5148C285.245 52.6485 286.077 52.0167 286.648 50.6196L286.885 50.0547L282.803 40.8883H284.079L287.505 48.5239ZM5.48527 58.6696C6.84596 58.6696 7.93329 59.1495 8.74727 60.1092C9.58555 61.0569 10.0047 62.1806 10.0047 63.4806C10.0047 63.5413 9.99255 63.7296 9.96825 64.0455H1.96814C2.08963 64.9567 2.47839 65.6856 3.13444 66.2323C3.79049 66.779 4.61054 67.0524 5.59461 67.0524C6.9796 67.0524 7.95759 66.536 8.52859 65.5034L9.58555 66.123C9.18464 66.779 8.63186 67.2954 7.92722 67.672C7.23472 68.0364 6.45111 68.2187 5.57639 68.2187C4.14281 68.2187 2.9765 67.7692 2.07748 66.8701C1.17845 65.9711 0.728939 64.8291 0.728939 63.4441C0.728939 62.0713 1.17238 60.9354 2.05925 60.0363C2.94613 59.1252 4.08814 58.6696 5.48527 58.6696ZM5.48527 59.8359C4.53765 59.8359 3.74189 60.1153 3.09799 60.6742C2.46625 61.233 2.08963 61.968 1.96814 62.8792H8.7655C8.63186 61.9073 8.26131 61.1601 7.65386 60.6377C7.02212 60.1032 6.29925 59.8359 5.48527 59.8359ZM19.0336 58.8883V66.8337H20.3092V70.4419H19.1065V68H11.6713V70.4419H10.4685V66.8337H11.5802C12.1998 66.0076 12.5096 64.8595 12.5096 63.3895V58.8883H19.0336ZM13.0381 66.8337H17.8308V60.0546H13.7123V63.3895C13.7123 64.7987 13.4876 65.9468 13.0381 66.8337ZM23.1492 65.9043L28.5798 58.8883H29.6004V68H28.3976V60.984L22.967 68H21.9465V58.8883H23.1492V65.9043ZM38.4127 62.861V58.8883H39.6154V68H38.4127V64.0273H33.1643V68H31.9616V58.8883H33.1643V62.861H38.4127ZM49.6123 66.8519C48.6768 67.7631 47.547 68.2187 46.2227 68.2187C44.8742 68.2187 43.7383 67.7631 42.8149 66.8519C41.8916 65.9286 41.43 64.7927 41.43 63.4441C41.43 62.0956 41.8916 60.9657 42.8149 60.0546C43.7383 59.1312 44.8742 58.6696 46.2227 58.6696C47.5591 58.6696 48.689 59.1312 49.6123 60.0546C50.5478 60.9657 51.0155 62.0956 51.0155 63.4441C51.0155 64.7805 50.5478 65.9164 49.6123 66.8519ZM43.6714 66.0136C44.3639 66.7061 45.2144 67.0524 46.2227 67.0524C47.2311 67.0524 48.0815 66.7061 48.774 66.0136C49.4665 65.2968 49.8128 64.4403 49.8128 63.4441C49.8128 62.4358 49.4665 61.5853 48.774 60.8928C48.0815 60.1882 47.2311 59.8359 46.2227 59.8359C45.2144 59.8359 44.3639 60.1882 43.6714 60.8928C42.979 61.5853 42.6327 62.4358 42.6327 63.4441C42.6327 64.4403 42.979 65.2968 43.6714 66.0136ZM60.3905 58.8883H61.7755V68H60.5727V60.7288L57.3836 65.9043H57.2378L54.0487 60.7288V68H52.846V58.8883H54.231L57.3107 63.8815L60.3905 58.8883ZM65.3452 62.3507H67.8418C68.68 62.3507 69.3968 62.618 69.9921 63.1526C70.5874 63.675 70.8851 64.3492 70.8851 65.1754C70.8851 66.0136 70.5874 66.694 69.9921 67.2164C69.4211 67.7388 68.7043 68 67.8418 68H64.1424V58.8883H65.3452V62.3507ZM72.1607 68V58.8883H73.3635V68H72.1607ZM65.3452 66.8337H67.8418C68.3642 66.8337 68.8015 66.6818 69.1539 66.3781C69.5062 66.0622 69.6823 65.6613 69.6823 65.1754C69.6823 64.6894 69.5062 64.2946 69.1539 63.9908C68.8015 63.675 68.3642 63.517 67.8418 63.517H65.3452V66.8337ZM86.7484 66.8337V58.8883H87.9511V68H75.7414V58.8883H76.9441V66.8337H81.2449V58.8883H82.4476V66.8337H86.7484ZM91.2599 58.8883H97.7839V68H96.5812V60.0546H92.4627V64.1184C92.4627 65.637 92.1711 66.6818 91.588 67.2528C91.017 67.8238 90.2273 68.0729 89.2189 68V66.8701C89.9236 66.943 90.4399 66.773 90.7679 66.3599C91.0959 65.9468 91.2599 65.1997 91.2599 64.1184V58.8883ZM104.359 58.6696C105.72 58.6696 106.807 59.1495 107.621 60.1092C108.459 61.0569 108.878 62.1806 108.878 63.4806C108.878 63.5413 108.866 63.7296 108.842 64.0455H100.842C100.963 64.9567 101.352 65.6856 102.008 66.2323C102.664 66.779 103.484 67.0524 104.468 67.0524C105.853 67.0524 106.831 66.536 107.402 65.5034L108.459 66.123C108.058 66.779 107.506 67.2954 106.801 67.672C106.109 68.0364 105.325 68.2187 104.45 68.2187C103.017 68.2187 101.85 67.7692 100.951 66.8701C100.052 65.9711 99.6027 64.8291 99.6027 63.4441C99.6027 62.0713 100.046 60.9354 100.933 60.0363C101.82 59.1252 102.962 58.6696 104.359 58.6696ZM104.359 59.8359C103.411 59.8359 102.616 60.1153 101.972 60.6742C101.34 61.233 100.963 61.968 100.842 62.8792H107.639C107.506 61.9073 107.135 61.1601 106.528 60.6377C105.896 60.1032 105.173 59.8359 104.359 59.8359ZM117.061 62.861V58.8883H118.263V68H117.061V64.0273H111.812V68H110.609V58.8883H111.812V62.861H117.061ZM127.076 62.861V58.8883H128.278V68H127.076V64.0273H121.827V68H120.625V58.8883H121.827V62.861H127.076ZM131.842 65.9043L137.273 58.8883H138.293V68H137.091V60.984L131.66 68H130.64V58.8883H131.842V65.9043ZM143.133 63.2619L148.017 68H146.413L141.857 63.6081V68H140.655V58.8883H141.857V62.9156L146.195 58.8883H147.835L143.133 63.2619ZM156.205 66.8519C155.27 67.7631 154.14 68.2187 152.816 68.2187C151.467 68.2187 150.331 67.7631 149.408 66.8519C148.485 65.9286 148.023 64.7927 148.023 63.4441C148.023 62.0956 148.485 60.9657 149.408 60.0546C150.331 59.1312 151.467 58.6696 152.816 58.6696C154.152 58.6696 155.282 59.1312 156.205 60.0546C157.141 60.9657 157.609 62.0956 157.609 63.4441C157.609 64.7805 157.141 65.9164 156.205 66.8519ZM150.265 66.0136C150.957 66.7061 151.808 67.0524 152.816 67.0524C153.824 67.0524 154.675 66.7061 155.367 66.0136C156.06 65.2968 156.406 64.4403 156.406 63.4441C156.406 62.4358 156.06 61.5853 155.367 60.8928C154.675 60.1882 153.824 59.8359 152.816 59.8359C151.808 59.8359 150.957 60.1882 150.265 60.8928C149.572 61.5853 149.226 62.4358 149.226 63.4441C149.226 64.4403 149.572 65.2968 150.265 66.0136ZM165.234 63.3166C166.23 63.681 166.729 64.3917 166.729 65.4487C166.729 66.2019 166.473 66.8155 165.963 67.2893C165.465 67.7631 164.766 68 163.867 68H159.439V58.8883H163.503C164.378 58.8883 165.058 59.113 165.544 59.5625C166.042 60.012 166.291 60.6013 166.291 61.3302C166.291 62.2414 165.939 62.9035 165.234 63.3166ZM163.503 60.0546H160.642V62.8245H163.503C164.56 62.8245 165.088 62.3507 165.088 61.4031C165.088 60.9779 164.949 60.6499 164.669 60.419C164.402 60.176 164.013 60.0546 163.503 60.0546ZM160.642 66.8337H163.867C164.402 66.8337 164.809 66.7061 165.088 66.451C165.38 66.1959 165.526 65.8375 165.526 65.3758C165.526 64.9385 165.38 64.5983 165.088 64.3553C164.809 64.1123 164.402 63.9908 163.867 63.9908H160.642V66.8337Z" fill="#F4F8FD"/>
</svg>
