<svg width="200" height="61" viewBox="0 0 200 61" fill="none" xmlns="http://www.w3.org/2000/svg">
<path d="M15.08 13.295C17.2267 14.5317 18.3 16.3983 18.3 18.895C18.3 20.9717 17.565 22.675 16.095 24.005C14.625 25.335 12.8167 26 10.67 26H0.275V1.5H9.935C12.0117 1.5 13.7733 2.15333 15.22 3.46C16.6667 4.76667 17.39 6.41167 17.39 8.395C17.39 10.425 16.62 12.0583 15.08 13.295ZM9.935 6.015H5.105V11.405H9.935C10.6817 11.405 11.3 11.1483 11.79 10.635C12.3033 10.1217 12.56 9.48 12.56 8.71C12.56 7.94 12.315 7.29833 11.825 6.785C11.335 6.27167 10.705 6.015 9.935 6.015ZM5.105 21.485H10.67C11.4867 21.485 12.1633 21.2167 12.7 20.68C13.2367 20.12 13.505 19.42 13.505 18.58C13.505 17.7633 13.2367 17.0867 12.7 16.55C12.1633 15.99 11.4867 15.71 10.67 15.71H5.105V21.485ZM29.5098 26.49C26.8732 26.49 24.6682 25.6033 22.8948 23.83C21.1448 22.0567 20.2698 19.8633 20.2698 17.25C20.2698 14.6367 21.1448 12.4433 22.8948 10.67C24.6682 8.89667 26.8732 8.01 29.5098 8.01C31.2132 8.01 32.7648 8.41833 34.1648 9.235C35.5648 10.0517 36.6265 11.1483 37.3498 12.525L33.4648 14.8C33.1148 14.0767 32.5782 13.505 31.8548 13.085C31.1548 12.665 30.3615 12.455 29.4748 12.455C28.1215 12.455 27.0015 12.91 26.1148 13.82C25.2282 14.7067 24.7848 15.85 24.7848 17.25C24.7848 18.6033 25.2282 19.7467 26.1148 20.68C27.0015 21.5667 28.1215 22.01 29.4748 22.01C30.3848 22.01 31.1898 21.8117 31.8898 21.415C32.6132 20.995 33.1498 20.4233 33.4998 19.7L37.4198 21.94C36.6498 23.34 35.5532 24.4483 34.1298 25.265C32.7298 26.0817 31.1898 26.49 29.5098 26.49ZM56.1943 19.105H42.9993C43.5827 21.2983 45.2277 22.395 47.9343 22.395C49.661 22.395 50.9677 21.8117 51.8543 20.645L55.4943 22.745C53.7677 25.2417 51.2243 26.49 47.8643 26.49C44.971 26.49 42.6493 25.615 40.8993 23.865C39.1493 22.115 38.2743 19.91 38.2743 17.25C38.2743 14.6367 39.1377 12.4433 40.8643 10.67C42.5677 8.89667 44.7843 8.01 47.5143 8.01C50.1043 8.01 52.216 8.89667 53.8493 10.67C55.5293 12.4433 56.3693 14.6367 56.3693 17.25C56.3693 17.74 56.311 18.3583 56.1943 19.105ZM42.9293 15.605H51.8543C51.5977 14.4617 51.0727 13.5867 50.2793 12.98C49.5093 12.3733 48.5877 12.07 47.5143 12.07C46.301 12.07 45.2977 12.385 44.5043 13.015C43.711 13.6217 43.186 14.485 42.9293 15.605ZM75.9012 26.49C73.2646 26.49 71.0596 25.6033 69.2862 23.83C67.5362 22.0567 66.6612 19.8633 66.6612 17.25C66.6612 14.6367 67.5362 12.4433 69.2862 10.67C71.0596 8.89667 73.2646 8.01 75.9012 8.01C77.6046 8.01 79.1562 8.41833 80.5562 9.235C81.9562 10.0517 83.0179 11.1483 83.7412 12.525L79.8562 14.8C79.5062 14.0767 78.9696 13.505 78.2462 13.085C77.5462 12.665 76.7529 12.455 75.8662 12.455C74.5129 12.455 73.3929 12.91 72.5062 13.82C71.6196 14.7067 71.1762 15.85 71.1762 17.25C71.1762 18.6033 71.6196 19.7467 72.5062 20.68C73.3929 21.5667 74.5129 22.01 75.8662 22.01C76.7762 22.01 77.5812 21.8117 78.2812 21.415C79.0046 20.995 79.5412 20.4233 79.8912 19.7L83.8112 21.94C83.0412 23.34 81.9446 24.4483 80.5212 25.265C79.1212 26.0817 77.5812 26.49 75.9012 26.49ZM100.486 23.83C98.7124 25.6033 96.5191 26.49 93.9057 26.49C91.2924 26.49 89.0991 25.6033 87.3257 23.83C85.5524 22.0567 84.6657 19.8633 84.6657 17.25C84.6657 14.66 85.5524 12.4783 87.3257 10.705C89.1224 8.90833 91.3157 8.01 93.9057 8.01C96.4957 8.01 98.6891 8.90833 100.486 10.705C102.282 12.5017 103.181 14.6833 103.181 17.25C103.181 19.84 102.282 22.0333 100.486 23.83ZM90.5107 20.715C91.4207 21.625 92.5524 22.08 93.9057 22.08C95.2591 22.08 96.3907 21.625 97.3007 20.715C98.2107 19.805 98.6657 18.65 98.6657 17.25C98.6657 15.85 98.2107 14.695 97.3007 13.785C96.3907 12.875 95.2591 12.42 93.9057 12.42C92.5524 12.42 91.4207 12.875 90.5107 13.785C89.6241 14.7183 89.1807 15.8733 89.1807 17.25C89.1807 18.6267 89.6241 19.7817 90.5107 20.715ZM114.302 26.49C111.549 26.49 109.32 25.6033 107.617 23.83C105.937 22.0567 105.097 19.805 105.097 17.075C105.097 14.1117 105.54 11.8133 106.427 10.18C107.29 8.54667 109.075 7.065 111.782 5.735C111.852 5.68833 111.98 5.61833 112.167 5.525C112.377 5.43167 112.587 5.33833 112.797 5.245C113.03 5.15167 113.252 5.05833 113.462 4.965L114.932 4.23C115.282 4.06667 115.655 3.85667 116.052 3.6C116.635 3.25 117.067 2.88833 117.347 2.515C117.627 2.14167 117.93 1.58167 118.257 0.834999L121.967 2.97C121.664 4.39333 120.975 5.50167 119.902 6.295C118.805 7.08833 117.219 7.88167 115.142 8.675C113.695 9.235 112.622 9.80667 111.922 10.39C111.222 10.9733 110.72 11.685 110.417 12.525C111.7 11.195 113.45 10.53 115.667 10.53C117.627 10.53 119.354 11.2417 120.847 12.665C122.364 14.065 123.122 15.9317 123.122 18.265C123.122 20.6683 122.305 22.64 120.672 24.18C119.062 25.72 116.939 26.49 114.302 26.49ZM114.232 14.135C113.065 14.135 112.039 14.4967 111.152 15.22C110.265 15.9667 109.822 16.935 109.822 18.125C109.822 19.3617 110.242 20.3767 111.082 21.17C111.945 21.9633 113.007 22.36 114.267 22.36C115.55 22.36 116.589 21.975 117.382 21.205C118.199 20.435 118.607 19.455 118.607 18.265C118.607 17.075 118.199 16.095 117.382 15.325C116.565 14.5317 115.515 14.135 114.232 14.135ZM130.03 14.1H133.425C135.409 14.1 137.007 14.6483 138.22 15.745C139.434 16.8183 140.04 18.2533 140.04 20.05C140.04 21.8467 139.434 23.2933 138.22 24.39C137.007 25.4633 135.409 26 133.425 26H125.515V8.5H130.03V14.1ZM141.965 26V8.5H146.48V26H141.965ZM130.03 22.01H133.46C134.09 22.01 134.604 21.835 135 21.485C135.42 21.1117 135.63 20.6333 135.63 20.05C135.63 19.4667 135.42 18.9883 135 18.615C134.604 18.2417 134.09 18.055 133.46 18.055H130.03V22.01ZM148.538 8.5H164.043V12.84H158.583V26H154.068V12.84H148.538V8.5ZM170.514 18.44L178.739 8.5H182.099V26H177.689V16.06L169.464 26H166.104V8.5H170.514V18.44ZM191.731 8.5H199.921V26H195.511V20.54H193.936L189.911 26H184.696L189.071 20.015C187.951 19.5483 187.053 18.8133 186.376 17.81C185.723 16.8067 185.396 15.71 185.396 14.52C185.396 12.91 185.98 11.4983 187.146 10.285C188.29 9.095 189.818 8.5 191.731 8.5ZM195.511 12.525H192.081C191.428 12.525 190.88 12.7233 190.436 13.12C190.016 13.5167 189.806 14.03 189.806 14.66C189.806 15.29 190.016 15.7917 190.436 16.165C190.88 16.5383 191.428 16.725 192.081 16.725H195.511V12.525ZM12.665 44.04C14.2983 44.8333 15.115 46.1633 15.115 48.03C15.115 49.5233 14.6017 50.725 13.575 51.635C12.5483 52.545 11.1133 53 9.27 53H0.0650001V35.5H8.57C10.39 35.5 11.8133 35.955 12.84 36.865C13.8667 37.7517 14.38 38.9417 14.38 40.435C14.38 41.975 13.8083 43.1767 12.665 44.04ZM8.15 39.21H4.3V42.36H8.15C9.43333 42.36 10.075 41.835 10.075 40.785C10.075 39.735 9.43333 39.21 8.15 39.21ZM4.3 49.185H8.745C10.0517 49.185 10.705 48.625 10.705 47.505C10.705 47.015 10.53 46.63 10.18 46.35C9.83 46.07 9.35167 45.93 8.745 45.93H4.3V49.185ZM32.501 50.83C30.7276 52.6033 28.5343 53.49 25.921 53.49C23.3076 53.49 21.1143 52.6033 19.341 50.83C17.5676 49.0567 16.681 46.8633 16.681 44.25C16.681 41.66 17.5676 39.4783 19.341 37.705C21.1376 35.9083 23.331 35.01 25.921 35.01C28.511 35.01 30.7043 35.9083 32.501 37.705C34.2976 39.5017 35.196 41.6833 35.196 44.25C35.196 46.84 34.2976 49.0333 32.501 50.83ZM22.526 47.715C23.436 48.625 24.5676 49.08 25.921 49.08C27.2743 49.08 28.406 48.625 29.316 47.715C30.226 46.805 30.681 45.65 30.681 44.25C30.681 42.85 30.226 41.695 29.316 40.785C28.406 39.875 27.2743 39.42 25.921 39.42C24.5676 39.42 23.436 39.875 22.526 40.785C21.6393 41.7183 21.196 42.8733 21.196 44.25C21.196 45.6267 21.6393 46.7817 22.526 47.715ZM46.9122 44.145L54.1572 53H48.9072L42.5372 45.055V53H38.0222V35.5H42.5372V43.2L48.5572 35.5H53.9472L46.9122 44.145ZM66.2459 35.01C68.6026 35.01 70.6092 35.9083 72.2659 37.705C73.9459 39.5017 74.7859 41.6833 74.7859 44.25C74.7859 46.8633 73.9459 49.0567 72.2659 50.83C70.6326 52.6033 68.6259 53.49 66.2459 53.49C63.7959 53.49 61.9059 52.6383 60.5759 50.935V60H56.0609V35.5H60.5759V37.565C61.9059 35.8617 63.7959 35.01 66.2459 35.01ZM61.9409 47.82C62.8509 48.73 64.0059 49.185 65.4059 49.185C66.8059 49.185 67.9609 48.73 68.8709 47.82C69.8042 46.8867 70.2709 45.6967 70.2709 44.25C70.2709 42.8033 69.8042 41.625 68.8709 40.715C67.9609 39.7817 66.8059 39.315 65.4059 39.315C64.0059 39.315 62.8509 39.7817 61.9409 40.715C61.0309 41.625 60.5759 42.8033 60.5759 44.25C60.5759 45.6967 61.0309 46.8867 61.9409 47.82ZM84.4615 47.26L88.3465 35.5H93.1765L86.8065 53C85.0332 57.9233 81.9531 60.2567 77.5665 60V55.8C78.7565 55.8233 79.6898 55.6017 80.3665 55.135C81.0665 54.6683 81.6265 53.8867 82.0465 52.79L74.9765 35.5H79.7715L84.4615 47.26ZM94.9752 35.5H106.945V39.84H99.4902V53H94.9752V35.5ZM130.015 44.04C131.648 44.8333 132.465 46.1633 132.465 48.03C132.465 49.5233 131.951 50.725 130.925 51.635C129.898 52.545 128.463 53 126.62 53H117.415V35.5H125.92C127.74 35.5 129.163 35.955 130.19 36.865C131.216 37.7517 131.73 38.9417 131.73 40.435C131.73 41.975 131.158 43.1767 130.015 44.04ZM125.5 39.21H121.65V42.36H125.5C126.783 42.36 127.425 41.835 127.425 40.785C127.425 39.735 126.783 39.21 125.5 39.21ZM121.65 49.185H126.095C127.401 49.185 128.055 48.625 128.055 47.505C128.055 47.015 127.88 46.63 127.53 46.35C127.18 46.07 126.701 45.93 126.095 45.93H121.65V49.185ZM148.241 37.565V35.5H152.756V53H148.241V50.935C146.887 52.6383 144.986 53.49 142.536 53.49C140.202 53.49 138.196 52.6033 136.516 50.83C134.859 49.0333 134.031 46.84 134.031 44.25C134.031 41.6833 134.859 39.5017 136.516 37.705C138.196 35.9083 140.202 35.01 142.536 35.01C144.986 35.01 146.887 35.8617 148.241 37.565ZM139.911 47.82C140.821 48.73 141.976 49.185 143.376 49.185C144.776 49.185 145.931 48.73 146.841 47.82C147.774 46.8867 148.241 45.6967 148.241 44.25C148.241 42.8033 147.774 41.625 146.841 40.715C145.931 39.7817 144.776 39.315 143.376 39.315C141.976 39.315 140.821 39.7817 139.911 40.715C139.001 41.625 138.546 42.8033 138.546 44.25C138.546 45.6967 139.001 46.8867 139.911 47.82ZM164.83 53.49C162.193 53.49 159.988 52.6033 158.215 50.83C156.465 49.0567 155.59 46.8633 155.59 44.25C155.59 41.6367 156.465 39.4433 158.215 37.67C159.988 35.8967 162.193 35.01 164.83 35.01C166.533 35.01 168.085 35.4183 169.485 36.235C170.885 37.0517 171.947 38.1483 172.67 39.525L168.785 41.8C168.435 41.0767 167.898 40.505 167.175 40.085C166.475 39.665 165.682 39.455 164.795 39.455C163.442 39.455 162.322 39.91 161.435 40.82C160.548 41.7067 160.105 42.85 160.105 44.25C160.105 45.6033 160.548 46.7467 161.435 47.68C162.322 48.5667 163.442 49.01 164.795 49.01C165.705 49.01 166.51 48.8117 167.21 48.415C167.933 47.995 168.47 47.4233 168.82 46.7L172.74 48.94C171.97 50.34 170.873 51.4483 169.45 52.265C168.05 53.0817 166.51 53.49 164.83 53.49Z" fill="#F4F8FD"/>
</svg>
