<svg width="280" height="54" viewBox="0 0 280 54" fill="none" xmlns="http://www.w3.org/2000/svg">
<path d="M9.65845 6.16776V0.573149H10.9341V13.3296H9.65845V7.37051H2.73352V13.3296H1.45788V0.573149H2.73352V6.16776H9.65845ZM21.3158 6.00375V4.21785H22.5185V13.3296H21.3158V11.5437C20.4775 12.8801 19.2505 13.5483 17.6346 13.5483C16.3347 13.5483 15.2231 13.0866 14.2997 12.1633C13.3886 11.24 12.933 10.1101 12.933 8.77372C12.933 7.43733 13.3886 6.30747 14.2997 5.38415C15.2231 4.46083 16.3347 3.99916 17.6346 3.99916C19.2505 3.99916 20.4775 4.66736 21.3158 6.00375ZM15.1745 11.3432C15.867 12.0357 16.7174 12.382 17.7258 12.382C18.7341 12.382 19.5846 12.0357 20.277 11.3432C20.9695 10.6264 21.3158 9.76994 21.3158 8.77372C21.3158 7.76535 20.9695 6.91492 20.277 6.22243C19.5846 5.51779 18.7341 5.16547 17.7258 5.16547C16.7174 5.16547 15.867 5.51779 15.1745 6.22243C14.482 6.91492 14.1357 7.76535 14.1357 8.77372C14.1357 9.76994 14.482 10.6264 15.1745 11.3432ZM31.0789 2.75997H26.3408V1.70301H31.0789V2.75997ZM26.0856 11.2339L31.5162 4.21785H32.5368V13.3296H31.334V6.31355L25.9034 13.3296H24.8829V4.21785H26.0856V11.2339ZM42.5518 4.21785V12.1633H43.8275V15.7715H42.6247V13.3296H35.1895V15.7715H33.9868V12.1633H35.0984C35.718 11.3372 36.0278 10.1891 36.0278 8.71905V4.21785H42.5518ZM36.5563 12.1633H41.3491V5.38415H37.2306V8.71905C37.2306 10.1283 37.0058 11.2764 36.5563 12.1633ZM46.6675 11.2339L52.0981 4.21785H53.1186V13.3296H51.9159V6.31355L46.4853 13.3296H45.4648V4.21785H46.6675V11.2339ZM54.3864 4.21785H62.0403V5.38415H58.8147V13.3296H57.612V5.38415H54.3864V4.21785ZM67.1775 3.99916C68.5382 3.99916 69.6255 4.47905 70.4395 5.43882C71.2777 6.38644 71.6969 7.51022 71.6969 8.81017C71.6969 8.87091 71.6847 9.05922 71.6604 9.37509H63.6603C63.7818 10.2863 64.1706 11.0152 64.8266 11.5619C65.4827 12.1086 66.3027 12.382 67.2868 12.382C68.6718 12.382 69.6498 11.8656 70.2208 10.833L71.2777 11.4526C70.8768 12.1086 70.3241 12.6249 69.6194 13.0016C68.9269 13.366 68.1433 13.5483 67.2686 13.5483C65.835 13.5483 64.6687 13.0988 63.7697 12.1997C62.8706 11.3007 62.4211 10.1587 62.4211 8.77372C62.4211 7.40088 62.8646 6.26495 63.7514 5.36593C64.6383 4.45475 65.7803 3.99916 67.1775 3.99916ZM67.1775 5.16547C66.2298 5.16547 65.4341 5.44489 64.7902 6.00375C64.1584 6.5626 63.7818 7.29762 63.6603 8.20879H70.4577C70.3241 7.23687 69.9535 6.48971 69.3461 5.9673C68.7143 5.43275 67.9914 5.16547 67.1775 5.16547ZM84.2526 8.19057V4.21785H85.4553V13.3296H84.2526V9.35687H79.0042V13.3296H77.8015V4.21785H79.0042V8.19057H84.2526ZM95.6527 6.00375V4.21785H96.8554V13.3296H95.6527V11.5437C94.8144 12.8801 93.5873 13.5483 91.9715 13.5483C90.6716 13.5483 89.5599 13.0866 88.6366 12.1633C87.7254 11.24 87.2699 10.1101 87.2699 8.77372C87.2699 7.43733 87.7254 6.30747 88.6366 5.38415C89.5599 4.46083 90.6716 3.99916 91.9715 3.99916C93.5873 3.99916 94.8144 4.66736 95.6527 6.00375ZM89.5113 11.3432C90.2038 12.0357 91.0543 12.382 92.0626 12.382C93.071 12.382 93.9214 12.0357 94.6139 11.3432C95.3064 10.6264 95.6527 9.76994 95.6527 8.77372C95.6527 7.76535 95.3064 6.91492 94.6139 6.22243C93.9214 5.51779 93.071 5.16547 92.0626 5.16547C91.0543 5.16547 90.2038 5.51779 89.5113 6.22243C88.8189 6.91492 88.4726 7.76535 88.4726 8.77372C88.4726 9.76994 88.8189 10.6264 89.5113 11.3432ZM106.072 8.59148L110.956 13.3296H109.352L104.796 8.93773V13.3296H103.593V4.21785H104.796V8.24524L109.133 4.21785H110.773L106.072 8.59148ZM119.345 6.00375V4.21785H120.547V13.3296H119.345V11.5437C118.506 12.8801 117.279 13.5483 115.663 13.5483C114.364 13.5483 113.252 13.0866 112.329 12.1633C111.417 11.24 110.962 10.1101 110.962 8.77372C110.962 7.43733 111.417 6.30747 112.329 5.38415C113.252 4.46083 114.364 3.99916 115.663 3.99916C117.279 3.99916 118.506 4.66736 119.345 6.00375ZM113.203 11.3432C113.896 12.0357 114.746 12.382 115.755 12.382C116.763 12.382 117.613 12.0357 118.306 11.3432C118.998 10.6264 119.345 9.76994 119.345 8.77372C119.345 7.76535 118.998 6.91492 118.306 6.22243C117.613 5.51779 116.763 5.16547 115.755 5.16547C114.746 5.16547 113.896 5.51779 113.203 6.22243C112.511 6.91492 112.165 7.76535 112.165 8.77372C112.165 9.76994 112.511 10.6264 113.203 11.3432ZM127.796 3.99916C129.096 3.99916 130.201 4.46083 131.112 5.38415C132.036 6.30747 132.497 7.43733 132.497 8.77372C132.497 10.1101 132.036 11.24 131.112 12.1633C130.201 13.0866 129.096 13.5483 127.796 13.5483C126.18 13.5483 124.953 12.8801 124.114 11.5437V16.9743H122.912V4.21785H124.114V6.00375C124.953 4.66736 126.18 3.99916 127.796 3.99916ZM125.153 11.3432C125.846 12.0357 126.696 12.382 127.704 12.382C128.713 12.382 129.563 12.0357 130.256 11.3432C130.948 10.6264 131.295 9.76994 131.295 8.77372C131.295 7.76535 130.948 6.91492 130.256 6.22243C129.563 5.51779 128.713 5.16547 127.704 5.16547C126.696 5.16547 125.846 5.51779 125.153 6.22243C124.461 6.91492 124.114 7.76535 124.114 8.77372C124.114 9.76994 124.461 10.6264 125.153 11.3432ZM132.866 4.21785H140.519V5.38415H137.294V13.3296H136.091V5.38415H132.866V4.21785ZM145.657 3.99916C147.017 3.99916 148.105 4.47905 148.919 5.43882C149.757 6.38644 150.176 7.51022 150.176 8.81017C150.176 8.87091 150.164 9.05922 150.14 9.37509H142.139C142.261 10.2863 142.65 11.0152 143.306 11.5619C143.962 12.1086 144.782 12.382 145.766 12.382C147.151 12.382 148.129 11.8656 148.7 10.833L149.757 11.4526C149.356 12.1086 148.803 12.6249 148.099 13.0016C147.406 13.366 146.622 13.5483 145.748 13.5483C144.314 13.5483 143.148 13.0988 142.249 12.1997C141.35 11.3007 140.9 10.1587 140.9 8.77372C140.9 7.40088 141.344 6.26495 142.231 5.36593C143.117 4.45475 144.259 3.99916 145.657 3.99916ZM145.657 5.16547C144.709 5.16547 143.913 5.44489 143.269 6.00375C142.638 6.5626 142.261 7.29762 142.139 8.20879H148.937C148.803 7.23687 148.433 6.48971 147.825 5.9673C147.193 5.43275 146.471 5.16547 145.657 5.16547ZM160.527 13.5483C159.154 13.5483 158.012 13.0927 157.101 12.1815C156.19 11.246 155.734 10.1101 155.734 8.77372C155.734 7.42518 156.19 6.29532 157.101 5.38415C158.012 4.46083 159.154 3.99916 160.527 3.99916C161.426 3.99916 162.234 4.21785 162.95 4.65521C163.667 5.08042 164.19 5.6575 164.518 6.38644L163.534 6.95137C163.291 6.40466 162.896 5.97338 162.349 5.6575C161.814 5.32948 161.207 5.16547 160.527 5.16547C159.518 5.16547 158.668 5.51779 157.975 6.22243C157.283 6.91492 156.937 7.76535 156.937 8.77372C156.937 9.76994 157.283 10.6264 157.975 11.3432C158.668 12.0357 159.518 12.382 160.527 12.382C161.195 12.382 161.796 12.224 162.331 11.9082C162.878 11.5923 163.303 11.1549 163.606 10.5961L164.609 11.1792C164.232 11.9082 163.679 12.4852 162.95 12.9104C162.221 13.3357 161.414 13.5483 160.527 13.5483ZM173.7 12.1815C172.765 13.0927 171.635 13.5483 170.31 13.5483C168.962 13.5483 167.826 13.0927 166.903 12.1815C165.979 11.2582 165.518 10.1223 165.518 8.77372C165.518 7.42518 165.979 6.29532 166.903 5.38415C167.826 4.46083 168.962 3.99916 170.31 3.99916C171.647 3.99916 172.777 4.46083 173.7 5.38415C174.635 6.29532 175.103 7.42518 175.103 8.77372C175.103 10.1101 174.635 11.246 173.7 12.1815ZM167.759 11.3432C168.452 12.0357 169.302 12.382 170.31 12.382C171.319 12.382 172.169 12.0357 172.862 11.3432C173.554 10.6264 173.9 9.76994 173.9 8.77372C173.9 7.76535 173.554 6.91492 172.862 6.22243C172.169 5.51779 171.319 5.16547 170.31 5.16547C169.302 5.16547 168.452 5.51779 167.759 6.22243C167.067 6.91492 166.72 7.76535 166.72 8.77372C166.72 9.76994 167.067 10.6264 167.759 11.3432ZM180.979 13.5483C179.679 13.5483 178.586 13.117 177.699 12.2544C176.824 11.3797 176.387 10.2498 176.387 8.86484C176.387 7.30976 176.618 6.11916 177.079 5.29303C177.541 4.45475 178.477 3.69544 179.886 3.0151C180.335 2.80856 180.688 2.65063 180.943 2.54129C181.368 2.3712 181.702 2.22541 181.945 2.10392C183.002 1.61796 183.537 1.01659 183.549 0.299797L184.496 0.846501C184.436 1.15023 184.338 1.42358 184.205 1.66656C184.047 1.93384 183.889 2.14644 183.731 2.30438C183.585 2.46232 183.354 2.6324 183.039 2.81464C182.832 2.93613 182.583 3.06977 182.291 3.21556L181.38 3.59825L180.524 3.96272C179.685 4.32719 179.06 4.70988 178.647 5.1108C178.246 5.49956 177.96 6.00982 177.79 6.64157C178.179 6.11916 178.689 5.72432 179.321 5.45704C179.953 5.17762 180.591 5.0379 181.234 5.0379C182.449 5.0379 183.452 5.43882 184.241 6.24065C185.043 7.03034 185.444 8.04478 185.444 9.28398C185.444 10.511 185.019 11.5315 184.168 12.3455C183.33 13.1474 182.267 13.5483 180.979 13.5483ZM178.61 11.4526C179.242 12.0479 180.032 12.3455 180.979 12.3455C181.927 12.3455 182.704 12.06 183.312 11.489C183.931 10.9059 184.241 10.1709 184.241 9.28398C184.241 8.38495 183.95 7.64994 183.367 7.07893C182.796 6.49578 182.03 6.20421 181.07 6.20421C180.208 6.20421 179.424 6.47756 178.72 7.02426C178.015 7.54667 177.663 8.26346 177.663 9.17463C177.663 10.098 177.978 10.8573 178.61 11.4526ZM188.294 7.68031H190.791C191.629 7.68031 192.346 7.94759 192.941 8.48214C193.536 9.00455 193.834 9.67882 193.834 10.5049C193.834 11.3432 193.536 12.0236 192.941 12.546C192.37 13.0684 191.653 13.3296 190.791 13.3296H187.091V4.21785H188.294V7.68031ZM195.109 13.3296V4.21785H196.312V13.3296H195.109ZM188.294 12.1633H190.791C191.313 12.1633 191.75 12.0114 192.103 11.7077C192.455 11.3918 192.631 10.9909 192.631 10.5049C192.631 10.019 192.455 9.62415 192.103 9.32042C191.75 9.00455 191.313 8.84661 190.791 8.84661H188.294V12.1633ZM197.597 4.21785H205.251V5.38415H202.025V13.3296H200.822V5.38415H197.597V4.21785ZM207.737 11.2339L213.167 4.21785H214.188V13.3296H212.985V6.31355L207.555 13.3296H206.534V4.21785H207.737V11.2339ZM219.41 4.21785H223.11V13.3296H221.907V9.83068H220.34L217.533 13.3296H216.002L218.882 9.79423C218.141 9.68489 217.533 9.38117 217.059 8.88306C216.598 8.3728 216.367 7.75928 216.367 7.04249C216.367 6.2285 216.658 5.55424 217.242 5.01968C217.849 4.48512 218.572 4.21785 219.41 4.21785ZM219.41 8.70082H221.907V5.38415H219.41C218.888 5.38415 218.45 5.54209 218.098 5.85796C217.746 6.16168 217.57 6.55653 217.57 7.04249C217.57 7.52845 217.746 7.92936 218.098 8.24524C218.45 8.54896 218.888 8.70082 219.41 8.70082ZM234.736 3.99916C236.036 3.99916 237.142 4.46083 238.053 5.38415C238.976 6.30747 239.438 7.43733 239.438 8.77372C239.438 10.1101 238.976 11.24 238.053 12.1633C237.142 13.0866 236.036 13.5483 234.736 13.5483C233.12 13.5483 231.893 12.8801 231.055 11.5437V16.9743H229.852V4.21785H231.055V6.00375C231.893 4.66736 233.12 3.99916 234.736 3.99916ZM232.094 11.3432C232.786 12.0357 233.637 12.382 234.645 12.382C235.653 12.382 236.504 12.0357 237.196 11.3432C237.889 10.6264 238.235 9.76994 238.235 8.77372C238.235 7.76535 237.889 6.91492 237.196 6.22243C236.504 5.51779 235.653 5.16547 234.645 5.16547C233.637 5.16547 232.786 5.51779 232.094 6.22243C231.401 6.91492 231.055 7.76535 231.055 8.77372C231.055 9.76994 231.401 10.6264 232.094 11.3432ZM243.761 4.21785H247.46V13.3296H246.257V9.83068H244.69L241.884 13.3296H240.353L243.232 9.79423C242.491 9.68489 241.884 9.38117 241.41 8.88306C240.948 8.3728 240.717 7.75928 240.717 7.04249C240.717 6.2285 241.009 5.55424 241.592 5.01968C242.199 4.48512 242.922 4.21785 243.761 4.21785ZM243.761 8.70082H246.257V5.38415H243.761C243.238 5.38415 242.801 5.54209 242.449 5.85796C242.096 6.16168 241.92 6.55653 241.92 7.04249C241.92 7.52845 242.096 7.92936 242.449 8.24524C242.801 8.54896 243.238 8.70082 243.761 8.70082ZM257.483 4.21785V12.1633H258.759V15.7715H257.556V13.3296H250.121V15.7715H248.918V12.1633H250.03C250.649 11.3372 250.959 10.1891 250.959 8.71905V4.21785H257.483ZM251.487 12.1633H256.28V5.38415H252.162V8.71905C252.162 10.1283 251.937 11.2764 251.487 12.1633ZM267.676 12.1815C266.74 13.0927 265.61 13.5483 264.286 13.5483C262.937 13.5483 261.801 13.0927 260.878 12.1815C259.955 11.2582 259.493 10.1223 259.493 8.77372C259.493 7.42518 259.955 6.29532 260.878 5.38415C261.801 4.46083 262.937 3.99916 264.286 3.99916C265.622 3.99916 266.752 4.46083 267.676 5.38415C268.611 6.29532 269.079 7.42518 269.079 8.77372C269.079 10.1101 268.611 11.246 267.676 12.1815ZM261.735 11.3432C262.427 12.0357 263.278 12.382 264.286 12.382C265.294 12.382 266.145 12.0357 266.837 11.3432C267.53 10.6264 267.876 9.76994 267.876 8.77372C267.876 7.76535 267.53 6.91492 266.837 6.22243C266.145 5.51779 265.294 5.16547 264.286 5.16547C263.278 5.16547 262.427 5.51779 261.735 6.22243C261.042 6.91492 260.696 7.76535 260.696 8.77372C260.696 9.76994 261.042 10.6264 261.735 11.3432ZM278.454 4.21785H279.839V13.3296H278.636V6.05842L275.447 11.2339H275.301L272.112 6.05842V13.3296H270.909V4.21785H272.294L275.374 9.21108L278.454 4.21785ZM5.52172 31.5483C4.14888 31.5483 3.00688 31.0927 2.0957 30.1815C1.18453 29.246 0.728939 28.1101 0.728939 26.7737C0.728939 25.4252 1.18453 24.2953 2.0957 23.3841C3.00688 22.4608 4.14888 21.9992 5.52172 21.9992C6.42074 21.9992 7.22865 22.2178 7.94544 22.6552C8.66223 23.0804 9.18464 23.6575 9.51266 24.3864L8.52859 24.9514C8.28561 24.4047 7.89077 23.9734 7.34407 23.6575C6.80951 23.3295 6.20206 23.1655 5.52172 23.1655C4.51335 23.1655 3.66292 23.5178 2.97043 24.2224C2.27794 24.9149 1.93169 25.7654 1.93169 26.7737C1.93169 27.7699 2.27794 28.6264 2.97043 29.3432C3.66292 30.0357 4.51335 30.382 5.52172 30.382C6.18991 30.382 6.79129 30.224 7.32584 29.9082C7.87255 29.5923 8.29776 29.1549 8.60149 28.5961L9.60378 29.1792C9.22716 29.9082 8.67438 30.4852 7.94544 30.9104C7.2165 31.3357 6.40859 31.5483 5.52172 31.5483ZM21.3171 26.6462C22.3133 27.0106 22.8114 27.7213 22.8114 28.7783C22.8114 29.5315 22.5563 30.1451 22.046 30.6189C21.5479 31.0927 20.8493 31.3296 19.9503 31.3296H15.522V22.2178H19.5858C20.4606 22.2178 21.1409 22.4426 21.6269 22.8921C22.125 23.3416 22.374 23.9309 22.374 24.6598C22.374 25.571 22.0217 26.2331 21.3171 26.6462ZM19.5858 23.3841H16.7247V26.1541H19.5858C20.6428 26.1541 21.1713 25.6803 21.1713 24.7327C21.1713 24.3075 21.0316 23.9795 20.7521 23.7486C20.4849 23.5056 20.0961 23.3841 19.5858 23.3841ZM16.7247 30.1633H19.9503C20.4849 30.1633 20.8919 30.0357 21.1713 29.7806C21.4629 29.5255 21.6086 29.1671 21.6086 28.7054C21.6086 28.268 21.4629 27.9279 21.1713 27.6849C20.8919 27.4419 20.4849 27.3204 19.9503 27.3204H16.7247V30.1633ZM32.2876 24.0037V22.2178H33.4904V31.3296H32.2876V29.5437C31.4493 30.8801 30.2223 31.5483 28.6065 31.5483C27.3065 31.5483 26.1949 31.0866 25.2716 30.1633C24.3604 29.24 23.9048 28.1101 23.9048 26.7737C23.9048 25.4373 24.3604 24.3075 25.2716 23.3841C26.1949 22.4608 27.3065 21.9992 28.6065 21.9992C30.2223 21.9992 31.4493 22.6674 32.2876 24.0037ZM26.1463 29.3432C26.8388 30.0357 27.6892 30.382 28.6976 30.382C29.7059 30.382 30.5564 30.0357 31.2489 29.3432C31.9414 28.6264 32.2876 27.7699 32.2876 26.7737C32.2876 25.7654 31.9414 24.9149 31.2489 24.2224C30.5564 23.5178 29.7059 23.1655 28.6976 23.1655C27.6892 23.1655 26.8388 23.5178 26.1463 24.2224C25.4538 24.9149 25.1076 25.7654 25.1076 26.7737C25.1076 27.7699 25.4538 28.6264 26.1463 29.3432ZM43.3992 22.2178H44.7842V31.3296H43.5815V24.0584L40.3924 29.2339H40.2466L37.0575 24.0584V31.3296H35.8547V22.2178H37.2397L40.3195 27.2111L43.3992 22.2178ZM48.3539 29.2339L53.7845 22.2178H54.805V31.3296H53.6023V24.3135L48.1717 31.3296H47.1511V22.2178H48.3539V29.2339ZM62.7426 29.2339L68.1732 22.2178H69.1937V31.3296H67.991V24.3135L62.5604 31.3296H61.5399V22.2178H62.7426V29.2339ZM72.5026 22.2178H79.0266V31.3296H77.8238V23.3841H73.7053V27.448C73.7053 28.9666 73.4137 30.0114 72.8306 30.5824C72.2596 31.1534 71.4699 31.4025 70.4615 31.3296V30.1997C71.1662 30.2726 71.6825 30.1025 72.0105 29.6895C72.3386 29.2764 72.5026 28.5292 72.5026 27.448V22.2178ZM82.5948 29.2339L88.0254 22.2178H89.0459V31.3296H87.8432V24.3135L82.4126 31.3296H81.3921V22.2178H82.5948V29.2339ZM101.576 26.6462C102.572 27.0106 103.07 27.7213 103.07 28.7783C103.07 29.5315 102.815 30.1451 102.305 30.6189C101.807 31.0927 101.108 31.3296 100.209 31.3296H95.7808V22.2178H99.8446C100.719 22.2178 101.4 22.4426 101.886 22.8921C102.384 23.3416 102.633 23.9309 102.633 24.6598C102.633 25.571 102.281 26.2331 101.576 26.6462ZM99.8446 23.3841H96.9835V26.1541H99.8446C100.902 26.1541 101.43 25.6803 101.43 24.7327C101.43 24.3075 101.29 23.9795 101.011 23.7486C100.744 23.5056 100.355 23.3841 99.8446 23.3841ZM96.9835 30.1633H100.209C100.744 30.1633 101.151 30.0357 101.43 29.7806C101.722 29.5255 101.867 29.1671 101.867 28.7054C101.867 28.268 101.722 27.9279 101.43 27.6849C101.151 27.4419 100.744 27.3204 100.209 27.3204H96.9835V30.1633ZM112.346 30.1815C111.41 31.0927 110.281 31.5483 108.956 31.5483C107.608 31.5483 106.472 31.0927 105.549 30.1815C104.625 29.2582 104.164 28.1223 104.164 26.7737C104.164 25.4252 104.625 24.2953 105.549 23.3841C106.472 22.4608 107.608 21.9992 108.956 21.9992C110.293 21.9992 111.423 22.4608 112.346 23.3841C113.281 24.2953 113.749 25.4252 113.749 26.7737C113.749 28.1101 113.281 29.246 112.346 30.1815ZM106.405 29.3432C107.098 30.0357 107.948 30.382 108.956 30.382C109.965 30.382 110.815 30.0357 111.508 29.3432C112.2 28.6264 112.546 27.7699 112.546 26.7737C112.546 25.7654 112.2 24.9149 111.508 24.2224C110.815 23.5178 109.965 23.1655 108.956 23.1655C107.948 23.1655 107.098 23.5178 106.405 24.2224C105.713 24.9149 105.366 25.7654 105.366 26.7737C105.366 27.7699 105.713 28.6264 106.405 29.3432ZM119.826 31.5483C118.453 31.5483 117.311 31.0927 116.4 30.1815C115.488 29.246 115.033 28.1101 115.033 26.7737C115.033 25.4252 115.488 24.2953 116.4 23.3841C117.311 22.4608 118.453 21.9992 119.826 21.9992C120.725 21.9992 121.533 22.2178 122.249 22.6552C122.966 23.0804 123.489 23.6575 123.817 24.3864L122.833 24.9514C122.59 24.4047 122.195 23.9734 121.648 23.6575C121.113 23.3295 120.506 23.1655 119.826 23.1655C118.817 23.1655 117.967 23.5178 117.274 24.2224C116.582 24.9149 116.236 25.7654 116.236 26.7737C116.236 27.7699 116.582 28.6264 117.274 29.3432C117.967 30.0357 118.817 30.382 119.826 30.382C120.494 30.382 121.095 30.224 121.63 29.9082C122.177 29.5923 122.602 29.1549 122.905 28.5961L123.908 29.1792C123.531 29.9082 122.978 30.4852 122.249 30.9104C121.52 31.3357 120.713 31.5483 119.826 31.5483ZM125.452 22.2178H133.106V31.3296H131.903V23.3841H126.655V31.3296H125.452V22.2178ZM143.103 30.1815C142.168 31.0927 141.038 31.5483 139.713 31.5483C138.365 31.5483 137.229 31.0927 136.306 30.1815C135.382 29.2582 134.921 28.1223 134.921 26.7737C134.921 25.4252 135.382 24.2953 136.306 23.3841C137.229 22.4608 138.365 21.9992 139.713 21.9992C141.05 21.9992 142.18 22.4608 143.103 23.3841C144.039 24.2953 144.506 25.4252 144.506 26.7737C144.506 28.1101 144.039 29.246 143.103 30.1815ZM137.162 29.3432C137.855 30.0357 138.705 30.382 139.713 30.382C140.722 30.382 141.572 30.0357 142.265 29.3432C142.957 28.6264 143.304 27.7699 143.304 26.7737C143.304 25.7654 142.957 24.9149 142.265 24.2224C141.572 23.5178 140.722 23.1655 139.713 23.1655C138.705 23.1655 137.855 23.5178 137.162 24.2224C136.47 24.9149 136.123 25.7654 136.123 26.7737C136.123 27.7699 136.47 28.6264 137.162 29.3432ZM146.928 22.2178H153.452V31.3296H152.25V23.3841H148.131V27.448C148.131 28.9666 147.84 30.0114 147.256 30.5824C146.685 31.1534 145.896 31.4025 144.887 31.3296V30.1997C145.592 30.2726 146.108 30.1025 146.436 29.6895C146.764 29.2764 146.928 28.5292 146.928 27.448V22.2178ZM157.021 25.6803H159.517C160.356 25.6803 161.072 25.9476 161.668 26.4821C162.263 27.0045 162.561 27.6788 162.561 28.5049C162.561 29.3432 162.263 30.0236 161.668 30.546C161.097 31.0684 160.38 31.3296 159.517 31.3296H155.818V22.2178H157.021V25.6803ZM157.021 30.1633H159.517C160.04 30.1633 160.477 30.0114 160.829 29.7077C161.182 29.3918 161.358 28.9909 161.358 28.5049C161.358 28.019 161.182 27.6241 160.829 27.3204C160.477 27.0045 160.04 26.8466 159.517 26.8466H157.021V30.1633ZM168.719 26.6462C169.776 27.0471 170.305 27.776 170.305 28.833C170.305 29.5984 170.007 30.2423 169.412 30.7647C168.841 31.2871 168.003 31.5483 166.897 31.5483C165.05 31.5483 163.848 30.8193 163.289 29.3615L164.309 28.7601C164.698 29.8413 165.561 30.382 166.897 30.382C167.59 30.382 168.13 30.2362 168.519 29.9446C168.908 29.6409 169.102 29.246 169.102 28.7601C169.102 28.3227 168.944 27.9765 168.628 27.7213C168.312 27.4541 167.887 27.3204 167.353 27.3204H166.022V26.1541H166.988C167.511 26.1541 167.918 26.0266 168.209 25.7714C168.513 25.5041 168.665 25.1397 168.665 24.678C168.665 24.2407 168.483 23.8823 168.118 23.6028C167.766 23.3113 167.298 23.1655 166.715 23.1655C165.585 23.1655 164.826 23.6211 164.437 24.5322L163.435 23.9491C164.042 22.6491 165.135 21.9992 166.715 21.9992C167.687 21.9992 168.452 22.2543 169.011 22.7646C169.582 23.2627 169.868 23.8762 169.868 24.6051C169.868 25.5406 169.485 26.2209 168.719 26.6462ZM175.203 29.8535L178.155 22.2178H179.431L175.531 32.1679C175.167 33.0912 174.656 33.8019 174 34.3C173.356 34.8103 172.64 35.035 171.85 34.9743V33.8444C172.943 33.9781 173.776 33.3463 174.347 31.9492L174.583 31.3843L170.501 22.2178H171.777L175.203 29.8535ZM186.898 20.76H182.16V19.703H186.898V20.76ZM181.905 29.2339L187.336 22.2178H188.356V31.3296H187.153V24.3135L181.723 31.3296H180.702V22.2178H181.905V29.2339ZM189.624 22.2178H197.278V23.3841H194.052V31.3296H192.849V23.3841H189.624V22.2178ZM202.415 21.9992C203.776 21.9992 204.863 22.479 205.677 23.4388C206.515 24.3864 206.934 25.5102 206.934 26.8102C206.934 26.8709 206.922 27.0592 206.898 27.3751H198.898C199.019 28.2863 199.408 29.0152 200.064 29.5619C200.72 30.1086 201.54 30.382 202.524 30.382C203.909 30.382 204.887 29.8656 205.458 28.833L206.515 29.4526C206.114 30.1086 205.562 30.6249 204.857 31.0016C204.164 31.366 203.381 31.5483 202.506 31.5483C201.072 31.5483 199.906 31.0988 199.007 30.1997C198.108 29.3007 197.659 28.1587 197.659 26.7737C197.659 25.4009 198.102 24.265 198.989 23.3659C199.876 22.4548 201.018 21.9992 202.415 21.9992ZM202.415 23.1655C201.467 23.1655 200.672 23.4449 200.028 24.0037C199.396 24.5626 199.019 25.2976 198.898 26.2088H205.695C205.562 25.2369 205.191 24.4897 204.584 23.9673C203.952 23.4327 203.229 23.1655 202.415 23.1655ZM212.911 31.5483C211.539 31.5483 210.397 31.0927 209.485 30.1815C208.574 29.246 208.119 28.1101 208.119 26.7737C208.119 25.4252 208.574 24.2953 209.485 23.3841C210.397 22.4608 211.539 21.9992 212.911 21.9992C213.81 21.9992 214.618 22.2178 215.335 22.6552C216.052 23.0804 216.574 23.6575 216.902 24.3864L215.918 24.9514C215.675 24.4047 215.28 23.9734 214.734 23.6575C214.199 23.3295 213.592 23.1655 212.911 23.1655C211.903 23.1655 211.053 23.5178 210.36 24.2224C209.668 24.9149 209.321 25.7654 209.321 26.7737C209.321 27.7699 209.668 28.6264 210.36 29.3432C211.053 30.0357 211.903 30.382 212.911 30.382C213.58 30.382 214.181 30.224 214.716 29.9082C215.262 29.5923 215.687 29.1549 215.991 28.5961L216.993 29.1792C216.617 29.9082 216.064 30.4852 215.335 30.9104C214.606 31.3357 213.798 31.5483 212.911 31.5483ZM219.741 25.6803H222.237C223.076 25.6803 223.792 25.9476 224.388 26.4821C224.983 27.0045 225.281 27.6788 225.281 28.5049C225.281 29.3432 224.983 30.0236 224.388 30.546C223.817 31.0684 223.1 31.3296 222.237 31.3296H218.538V22.2178H219.741V25.6803ZM219.741 30.1633H222.237C222.76 30.1633 223.197 30.0114 223.549 29.7077C223.902 29.3918 224.078 28.9909 224.078 28.5049C224.078 28.019 223.902 27.6241 223.549 27.3204C223.197 27.0045 222.76 26.8466 222.237 26.8466H219.741V30.1633ZM6.70624 50.53V53.9743H5.50349V50.53C4.05776 50.3964 2.90361 49.8922 2.04103 49.0175C1.1663 48.1185 0.728939 47.0372 0.728939 45.7737C0.728939 44.5102 1.1663 43.429 2.04103 42.5299C2.90361 41.6552 4.05776 41.151 5.50349 41.0174V37.5731H6.70624V41.0174C8.15197 41.151 9.30613 41.6552 10.1687 42.5299C11.0434 43.429 11.4808 44.5102 11.4808 45.7737C11.4808 47.0372 11.0434 48.1185 10.1687 49.0175C9.30613 49.8922 8.15197 50.3964 6.70624 50.53ZM5.50349 49.3455V42.2019C4.42223 42.3113 3.55358 42.6939 2.89753 43.35C2.25364 44.006 1.93169 44.8139 1.93169 45.7737C1.93169 46.7335 2.25364 47.5414 2.89753 48.1974C3.55358 48.8535 4.42223 49.2362 5.50349 49.3455ZM6.70624 42.2019V49.3455C7.7875 49.2362 8.65008 48.8535 9.29398 48.1974C9.95002 47.5414 10.278 46.7335 10.278 45.7737C10.278 44.8139 9.95002 44.006 9.29398 43.35C8.65008 42.6939 7.7875 42.3113 6.70624 42.2019ZM14.5045 48.2339L19.9351 41.2178H20.9556V50.3296H19.7528V43.3135L14.3222 50.3296H13.3017V41.2178H14.5045V48.2339ZM24.2644 41.2178H30.7884V50.3296H29.5857V42.3841H25.4672V46.448C25.4672 47.9666 25.1756 49.0114 24.5925 49.5824C24.0214 50.1534 23.2318 50.4025 22.2234 50.3296V49.1997C22.928 49.2726 23.4444 49.1025 23.7724 48.6895C24.1004 48.2764 24.2644 47.5292 24.2644 46.448V41.2178ZM34.3567 44.6803H36.8533C37.6916 44.6803 38.4084 44.9476 39.0037 45.4821C39.599 46.0045 39.8966 46.6788 39.8966 47.5049C39.8966 48.3432 39.599 49.0236 39.0037 49.546C38.4327 50.0684 37.7159 50.3296 36.8533 50.3296H33.1539V41.2178H34.3567V44.6803ZM34.3567 49.1633H36.8533C37.3757 49.1633 37.8131 49.0114 38.1654 48.7077C38.5177 48.3918 38.6939 47.9909 38.6939 47.5049C38.6939 47.019 38.5177 46.6241 38.1654 46.3204C37.8131 46.0045 37.3757 45.8466 36.8533 45.8466H34.3567V49.1633ZM39.3528 41.2178H47.0066V42.3841H43.7811V50.3296H42.5783V42.3841H39.3528V41.2178ZM53.174 40.9992C54.4739 40.9992 55.5795 41.4608 56.4907 42.3841C57.414 43.3075 57.8757 44.4373 57.8757 45.7737C57.8757 47.1101 57.414 48.24 56.4907 49.1633C55.5795 50.0866 54.4739 50.5483 53.174 50.5483C51.5582 50.5483 50.3311 49.8801 49.4929 48.5437V53.9743H48.2901V41.2178H49.4929V43.0037C50.3311 41.6674 51.5582 40.9992 53.174 40.9992ZM50.5316 48.3432C51.2241 49.0357 52.0745 49.382 53.0829 49.382C54.0912 49.382 54.9417 49.0357 55.6342 48.3432C56.3267 47.6264 56.6729 46.7699 56.6729 45.7737C56.6729 44.7654 56.3267 43.9149 55.6342 43.2224C54.9417 42.5178 54.0912 42.1655 53.0829 42.1655C52.0745 42.1655 51.2241 42.5178 50.5316 43.2224C49.8391 43.9149 49.4929 44.7654 49.4929 45.7737C49.4929 46.7699 49.8391 47.6264 50.5316 48.3432ZM67.5294 43.0037V41.2178H68.7322V50.3296H67.5294V48.5437C66.6911 49.8801 65.4641 50.5483 63.8483 50.5483C62.5483 50.5483 61.4367 50.0866 60.5134 49.1633C59.6022 48.24 59.1466 47.1101 59.1466 45.7737C59.1466 44.4373 59.6022 43.3075 60.5134 42.3841C61.4367 41.4608 62.5483 40.9992 63.8483 40.9992C65.4641 40.9992 66.6911 41.6674 67.5294 43.0037ZM61.3881 48.3432C62.0806 49.0357 62.931 49.382 63.9394 49.382C64.9477 49.382 65.7982 49.0357 66.4907 48.3432C67.1832 47.6264 67.5294 46.7699 67.5294 45.7737C67.5294 44.7654 67.1832 43.9149 66.4907 43.2224C65.7982 42.5178 64.9477 42.1655 63.9394 42.1655C62.931 42.1655 62.0806 42.5178 61.3881 43.2224C60.6956 43.9149 60.3494 44.7654 60.3494 45.7737C60.3494 46.7699 60.6956 47.6264 61.3881 48.3432ZM78.641 41.2178H80.026V50.3296H78.8233V43.0584L75.6342 48.2339H75.4884L72.2993 43.0584V50.3296H71.0965V41.2178H72.4815L75.5613 46.2111L78.641 41.2178ZM83.5957 48.2339L89.0263 41.2178H90.0468V50.3296H88.8441V43.3135L83.4135 50.3296H82.3929V41.2178H83.5957V48.2339ZM104.436 41.2178V49.1633H105.711V52.7715H104.508V50.3296H97.0732V52.7715H95.8705V49.1633H96.9821C97.6017 48.3372 97.9115 47.1891 97.9115 45.719V41.2178H104.436ZM98.44 49.1633H103.233V42.3841H99.1143V45.719C99.1143 47.1283 98.8895 48.2764 98.44 49.1633ZM108.296 41.2178H114.82V50.3296H113.617V42.3841H109.499V46.448C109.499 47.9666 109.207 49.0114 108.624 49.5824C108.053 50.1534 107.263 50.4025 106.255 50.3296V49.1997C106.96 49.2726 107.476 49.1025 107.804 48.6895C108.132 48.2764 108.296 47.5292 108.296 46.448V41.2178ZM120.047 41.2178H123.746V50.3296H122.543V46.8307H120.976L118.17 50.3296H116.639L119.518 46.7942C118.777 46.6849 118.17 46.3812 117.696 45.8831C117.234 45.3728 117.003 44.7593 117.003 44.0425C117.003 43.2285 117.295 42.5542 117.878 42.0197C118.485 41.4851 119.208 41.2178 120.047 41.2178ZM120.047 45.7008H122.543V42.3841H120.047C119.524 42.3841 119.087 42.5421 118.735 42.858C118.382 43.1617 118.206 43.5565 118.206 44.0425C118.206 44.5284 118.382 44.9294 118.735 45.2452C119.087 45.549 119.524 45.7008 120.047 45.7008ZM129.395 41.2178H137.049V42.3841H133.824V50.3296H132.621V42.3841H129.395V41.2178ZM145.612 49.1815C144.677 50.0927 143.547 50.5483 142.223 50.5483C140.874 50.5483 139.738 50.0927 138.815 49.1815C137.892 48.2582 137.43 47.1223 137.43 45.7737C137.43 44.4252 137.892 43.2953 138.815 42.3841C139.738 41.4608 140.874 40.9992 142.223 40.9992C143.559 40.9992 144.689 41.4608 145.612 42.3841C146.548 43.2953 147.016 44.4252 147.016 45.7737C147.016 47.1101 146.548 48.246 145.612 49.1815ZM139.671 48.3432C140.364 49.0357 141.214 49.382 142.223 49.382C143.231 49.382 144.082 49.0357 144.774 48.3432C145.467 47.6264 145.813 46.7699 145.813 45.7737C145.813 44.7654 145.467 43.9149 144.774 43.2224C144.082 42.5178 143.231 42.1655 142.223 42.1655C141.214 42.1655 140.364 42.5178 139.671 43.2224C138.979 43.9149 138.633 44.7654 138.633 45.7737C138.633 46.7699 138.979 47.6264 139.671 48.3432ZM154.572 45.7555V41.2178H155.775V50.3296H154.572V46.8671C153.868 47.2316 152.999 47.4138 151.967 47.4138C150.764 47.4138 149.853 47.1405 149.233 46.5938C148.613 46.0349 148.304 45.2149 148.304 44.1336V41.2178H149.506V44.1336C149.506 44.8868 149.701 45.4335 150.089 45.7737C150.49 46.1139 151.104 46.284 151.93 46.284C152.853 46.284 153.734 46.1078 154.572 45.7555ZM164.6 45.1906V41.2178H165.803V50.3296H164.6V46.3569H159.352V50.3296H158.149V41.2178H159.352V45.1906H164.6ZM175.8 49.1815C174.864 50.0927 173.735 50.5483 172.41 50.5483C171.062 50.5483 169.926 50.0927 169.003 49.1815C168.079 48.2582 167.618 47.1223 167.618 45.7737C167.618 44.4252 168.079 43.2953 169.003 42.3841C169.926 41.4608 171.062 40.9992 172.41 40.9992C173.747 40.9992 174.877 41.4608 175.8 42.3841C176.735 43.2953 177.203 44.4252 177.203 45.7737C177.203 47.1101 176.735 48.246 175.8 49.1815ZM169.859 48.3432C170.552 49.0357 171.402 49.382 172.41 49.382C173.419 49.382 174.269 49.0357 174.962 48.3432C175.654 47.6264 176 46.7699 176 45.7737C176 44.7654 175.654 43.9149 174.962 43.2224C174.269 42.5178 173.419 42.1655 172.41 42.1655C171.402 42.1655 170.552 42.5178 169.859 43.2224C169.167 43.9149 168.82 44.7654 168.82 45.7737C168.82 46.7699 169.167 47.6264 169.859 48.3432ZM179.034 41.2178H184.865V42.3841H180.236V50.3296H179.034V41.2178ZM193.428 49.1815C192.492 50.0927 191.362 50.5483 190.038 50.5483C188.69 50.5483 187.554 50.0927 186.63 49.1815C185.707 48.2582 185.245 47.1223 185.245 45.7737C185.245 44.4252 185.707 43.2953 186.63 42.3841C187.554 41.4608 188.69 40.9992 190.038 40.9992C191.374 40.9992 192.504 41.4608 193.428 42.3841C194.363 43.2953 194.831 44.4252 194.831 45.7737C194.831 47.1101 194.363 48.246 193.428 49.1815ZM187.487 48.3432C188.179 49.0357 189.03 49.382 190.038 49.382C191.046 49.382 191.897 49.0357 192.589 48.3432C193.282 47.6264 193.628 46.7699 193.628 45.7737C193.628 44.7654 193.282 43.9149 192.589 43.2224C191.897 42.5178 191.046 42.1655 190.038 42.1655C189.03 42.1655 188.179 42.5178 187.487 43.2224C186.794 43.9149 186.448 44.7654 186.448 45.7737C186.448 46.7699 186.794 47.6264 187.487 48.3432ZM201.035 41.2178H208.689V50.3296H207.486V42.3841H202.238V50.3296H201.035V41.2178ZM218.686 49.1815C217.75 50.0927 216.62 50.5483 215.296 50.5483C213.948 50.5483 212.812 50.0927 211.888 49.1815C210.965 48.2582 210.503 47.1223 210.503 45.7737C210.503 44.4252 210.965 43.2953 211.888 42.3841C212.812 41.4608 213.948 40.9992 215.296 40.9992C216.632 40.9992 217.762 41.4608 218.686 42.3841C219.621 43.2953 220.089 44.4252 220.089 45.7737C220.089 47.1101 219.621 48.246 218.686 49.1815ZM212.745 48.3432C213.437 49.0357 214.288 49.382 215.296 49.382C216.304 49.382 217.155 49.0357 217.847 48.3432C218.54 47.6264 218.886 46.7699 218.886 45.7737C218.886 44.7654 218.54 43.9149 217.847 43.2224C217.155 42.5178 216.304 42.1655 215.296 42.1655C214.288 42.1655 213.437 42.5178 212.745 43.2224C212.052 43.9149 211.706 44.7654 211.706 45.7737C211.706 46.7699 212.052 47.6264 212.745 48.3432ZM223.122 48.2339L228.553 41.2178H229.573V50.3296H228.37V43.3135L222.94 50.3296H221.919V41.2178H223.122V48.2339ZM236.181 50.5483C234.808 50.5483 233.666 50.0927 232.754 49.1815C231.843 48.246 231.388 47.1101 231.388 45.7737C231.388 44.4252 231.843 43.2953 232.754 42.3841C233.666 41.4608 234.808 40.9992 236.181 40.9992C237.08 40.9992 237.887 41.2178 238.604 41.6552C239.321 42.0804 239.843 42.6575 240.171 43.3864L239.187 43.9514C238.944 43.4047 238.55 42.9734 238.003 42.6575C237.468 42.3295 236.861 42.1655 236.181 42.1655C235.172 42.1655 234.322 42.5178 233.629 43.2224C232.937 43.9149 232.59 44.7654 232.59 45.7737C232.59 46.7699 232.937 47.6264 233.629 48.3432C234.322 49.0357 235.172 49.382 236.181 49.382C236.849 49.382 237.45 49.224 237.985 48.9082C238.531 48.5923 238.957 48.1549 239.26 47.5961L240.263 48.1792C239.886 48.9082 239.333 49.4852 238.604 49.9104C237.875 50.3357 237.067 50.5483 236.181 50.5483ZM244.286 45.5915L249.169 50.3296H247.566L243.01 45.9377V50.3296H241.807V41.2178H243.01V45.2452L247.347 41.2178H248.987L244.286 45.5915ZM257.558 43.0037V41.2178H258.761V50.3296H257.558V48.5437C256.72 49.8801 255.493 50.5483 253.877 50.5483C252.577 50.5483 251.466 50.0866 250.542 49.1633C249.631 48.24 249.176 47.1101 249.176 45.7737C249.176 44.4373 249.631 43.3075 250.542 42.3841C251.466 41.4608 252.577 40.9992 253.877 40.9992C255.493 40.9992 256.72 41.6674 257.558 43.0037ZM251.417 48.3432C252.11 49.0357 252.96 49.382 253.968 49.382C254.977 49.382 255.827 49.0357 256.52 48.3432C257.212 47.6264 257.558 46.7699 257.558 45.7737C257.558 44.7654 257.212 43.9149 256.52 43.2224C255.827 42.5178 254.977 42.1655 253.968 42.1655C252.96 42.1655 252.11 42.5178 251.417 43.2224C250.725 43.9149 250.378 44.7654 250.378 45.7737C250.378 46.7699 250.725 47.6264 251.417 48.3432Z" fill="#F4F8FD"/>
</svg>
