<svg width="394" height="110" viewBox="0 0 394 110" fill="none" xmlns="http://www.w3.org/2000/svg">
<g filter="url(#filter0_dd_148_492)">
<rect x="26" y="18" width="342" height="58" rx="16" fill="white"/>
</g>
<path d="M324.318 55L334.972 46.5L324.318 38" stroke="#4293EF" stroke-width="2"/>
<path d="M65.2109 56.2187C64.0443 56.2187 63.0052 56.0182 62.0938 55.6172C61.1875 55.2109 60.4714 54.6536 59.9453 53.9453C59.4245 53.2318 59.1563 52.4089 59.1406 51.4766H62.5469C62.5677 51.8672 62.6953 52.2109 62.9297 52.5078C63.1693 52.7995 63.487 53.026 63.8828 53.1875C64.2786 53.349 64.724 53.4297 65.2188 53.4297C65.7344 53.4297 66.1901 53.3385 66.5859 53.1562C66.9818 52.974 67.2917 52.7214 67.5156 52.3984C67.7396 52.0755 67.8516 51.7031 67.8516 51.2812C67.8516 50.8542 67.7318 50.4766 67.4922 50.1484C67.2578 49.8151 66.9193 49.5547 66.4766 49.3672C66.0391 49.1797 65.5182 49.0859 64.9141 49.0859H63.4219V46.6016H64.9141C65.4245 46.6016 65.875 46.513 66.2656 46.3359C66.6615 46.1589 66.9688 45.9141 67.1875 45.6016C67.4063 45.2839 67.5156 44.9141 67.5156 44.4922C67.5156 44.0911 67.4193 43.7396 67.2266 43.4375C67.0391 43.1302 66.7734 42.8906 66.4297 42.7187C66.0911 42.5469 65.6953 42.4609 65.2422 42.4609C64.7839 42.4609 64.3646 42.5443 63.9844 42.7109C63.6042 42.8724 63.2995 43.1042 63.0703 43.4062C62.8411 43.7083 62.7188 44.0625 62.7031 44.4687H59.4609C59.4766 43.5469 59.7396 42.7344 60.25 42.0312C60.7604 41.3281 61.4479 40.7786 62.3125 40.3828C63.1823 39.9818 64.1641 39.7812 65.2578 39.7812C66.362 39.7812 67.3281 39.9818 68.1563 40.3828C68.9844 40.7839 69.6276 41.3255 70.0859 42.0078C70.5495 42.6849 70.7786 43.4453 70.7734 44.2891C70.7786 45.1849 70.5 45.9323 69.9375 46.5312C69.3802 47.1302 68.6536 47.5104 67.7578 47.6719V47.7969C68.9349 47.9479 69.8307 48.3568 70.4453 49.0234C71.0651 49.6849 71.3724 50.513 71.3672 51.5078C71.3724 52.4193 71.1094 53.2292 70.5781 53.9375C70.0521 54.6458 69.3255 55.2031 68.3984 55.6094C67.4714 56.0156 66.4089 56.2187 65.2109 56.2187ZM77.032 56.2266C76.2663 56.2266 75.584 56.0938 74.9851 55.8281C74.3861 55.5573 73.9122 55.1589 73.5632 54.6328C73.2195 54.1016 73.0476 53.4401 73.0476 52.6484C73.0476 51.9818 73.17 51.4219 73.4148 50.9687C73.6596 50.5156 73.9929 50.151 74.4148 49.875C74.8366 49.599 75.3158 49.3906 75.8523 49.25C76.3939 49.1094 76.9616 49.0104 77.5554 48.9531C78.2533 48.8802 78.8158 48.8125 79.2429 48.75C79.67 48.6823 79.9799 48.5833 80.1726 48.4531C80.3653 48.3229 80.4616 48.1302 80.4616 47.875V47.8281C80.4616 47.3333 80.3054 46.9505 79.9929 46.6797C79.6856 46.4089 79.2481 46.2734 78.6804 46.2734C78.0814 46.2734 77.6049 46.4062 77.2507 46.6719C76.8965 46.9323 76.6622 47.2604 76.5476 47.6562L73.4695 47.4062C73.6257 46.6771 73.933 46.0469 74.3913 45.5156C74.8497 44.9792 75.4408 44.5677 76.1648 44.2812C76.8939 43.9896 77.7377 43.8438 78.696 43.8438C79.3627 43.8438 80.0007 43.9219 80.6101 44.0781C81.2247 44.2344 81.7689 44.4766 82.2429 44.8047C82.7221 45.1328 83.0997 45.5547 83.3757 46.0703C83.6517 46.5807 83.7898 47.1927 83.7898 47.9062V56H80.6335V54.3359H80.5398C80.3471 54.7109 80.0892 55.0417 79.7663 55.3281C79.4434 55.6094 79.0554 55.8307 78.6023 55.9922C78.1491 56.1484 77.6257 56.2266 77.032 56.2266ZM77.9851 53.9297C78.4747 53.9297 78.907 53.8333 79.282 53.6406C79.657 53.4427 79.9512 53.1771 80.1648 52.8438C80.3783 52.5104 80.4851 52.1328 80.4851 51.7109V50.4375C80.3809 50.5052 80.2377 50.5677 80.0554 50.625C79.8783 50.6771 79.6778 50.7266 79.4538 50.7734C79.2299 50.8151 79.0059 50.8542 78.782 50.8906C78.558 50.9219 78.3549 50.9505 78.1726 50.9766C77.782 51.0339 77.4408 51.125 77.1491 51.25C76.8575 51.375 76.6309 51.5443 76.4695 51.7578C76.308 51.9661 76.2273 52.2266 76.2273 52.5391C76.2273 52.9922 76.3913 53.3385 76.7195 53.5781C77.0528 53.8125 77.4747 53.9297 77.9851 53.9297ZM93.183 56V46.6094H90.933C90.3237 46.6094 89.8601 46.75 89.5424 47.0312C89.2247 47.3125 89.0685 47.6458 89.0737 48.0313C89.0685 48.4219 89.2195 48.7526 89.5268 49.0234C89.8393 49.2891 90.2976 49.4219 90.9018 49.4219H94.2924V51.6719H90.9018C89.8758 51.6719 88.9877 51.5156 88.2377 51.2031C87.4877 50.8906 86.9096 50.4557 86.5034 49.8984C86.0971 49.3359 85.8966 48.6823 85.9018 47.9375C85.8966 47.1562 86.0971 46.4714 86.5034 45.8828C86.9096 45.2891 87.4903 44.8281 88.2455 44.5C89.006 44.1667 89.9018 44 90.933 44H96.2846V56H93.183ZM85.558 56L88.894 49.75H92.0737L88.7455 56H85.558ZM98.6505 56V44H103.768C105.247 44 106.416 44.2812 107.276 44.8437C108.135 45.4062 108.565 46.2057 108.565 47.2422C108.565 47.8932 108.322 48.4349 107.838 48.8672C107.354 49.2995 106.682 49.5911 105.822 49.7422C106.541 49.7943 107.153 49.9583 107.658 50.2344C108.169 50.5052 108.557 50.8568 108.822 51.2891C109.093 51.7214 109.229 52.2005 109.229 52.7266C109.229 53.4089 109.046 53.9948 108.682 54.4844C108.322 54.974 107.794 55.349 107.096 55.6094C106.403 55.8698 105.557 56 104.557 56H98.6505ZM101.752 53.5078H104.557C105.02 53.5078 105.382 53.3984 105.643 53.1797C105.908 52.9557 106.041 52.651 106.041 52.2656C106.041 51.8385 105.908 51.5026 105.643 51.2578C105.382 51.013 105.02 50.8906 104.557 50.8906H101.752V53.5078ZM101.752 48.9375H103.838C104.171 48.9375 104.455 48.8906 104.69 48.7969C104.929 48.6979 105.111 48.5573 105.236 48.375C105.367 48.1927 105.432 47.9766 105.432 47.7266C105.432 47.3568 105.283 47.0677 104.986 46.8594C104.69 46.651 104.283 46.5469 103.768 46.5469H101.752V48.9375ZM111.106 56V44H114.434V48.6562H115.372L118.638 44H122.544L118.302 49.9531L122.591 56H118.638L115.677 51.7422H114.434V56H111.106ZM126.957 51.6094L131.277 44H134.558V56H131.386V48.3672L127.082 56H123.777V44H126.957V51.6094Z" fill="#4293EF"/>
<defs>
<filter id="filter0_dd_148_492" x="0" y="0" width="394" height="110" filterUnits="userSpaceOnUse" color-interpolation-filters="sRGB">
<feFlood flood-opacity="0" result="BackgroundImageFix"/>
<feColorMatrix in="SourceAlpha" type="matrix" values="0 0 0 0 0 0 0 0 0 0 0 0 0 0 0 0 0 0 127 0" result="hardAlpha"/>
<feMorphology radius="4" operator="erode" in="SourceAlpha" result="effect1_dropShadow_148_492"/>
<feOffset dy="8"/>
<feGaussianBlur stdDeviation="15"/>
<feComposite in2="hardAlpha" operator="out"/>
<feColorMatrix type="matrix" values="0 0 0 0 0 0 0 0 0 0 0 0 0 0 0 0 0 0 0.1 0"/>
<feBlend mode="normal" in2="BackgroundImageFix" result="effect1_dropShadow_148_492"/>
<feColorMatrix in="SourceAlpha" type="matrix" values="0 0 0 0 0 0 0 0 0 0 0 0 0 0 0 0 0 0 127 0" result="hardAlpha"/>
<feOffset/>
<feGaussianBlur stdDeviation="3.5"/>
<feComposite in2="hardAlpha" operator="out"/>
<feColorMatrix type="matrix" values="0 0 0 0 0 0 0 0 0 0 0 0 0 0 0 0 0 0 0.19 0"/>
<feBlend mode="normal" in2="effect1_dropShadow_148_492" result="effect2_dropShadow_148_492"/>
<feBlend mode="normal" in="SourceGraphic" in2="effect2_dropShadow_148_492" result="shape"/>
</filter>
</defs>
</svg>
