<svg width="216" height="59" viewBox="0 0 216 59" fill="none" xmlns="http://www.w3.org/2000/svg">
<path d="M12.895 25.49C9.23167 25.49 6.18667 24.265 3.76 21.815C1.35667 19.3883 0.155 16.3667 0.155 12.75C0.155 9.11 1.35667 6.08833 3.76 3.685C6.18667 1.235 9.23167 0.00999838 12.895 0.00999838C15.1117 0.00999838 17.1533 0.534999 19.02 1.585C20.91 2.61167 22.38 4.01167 23.43 5.785L19.265 8.2C18.6583 7.10333 17.795 6.25167 16.675 5.645C15.555 5.015 14.295 4.7 12.895 4.7C10.515 4.7 8.59 5.44667 7.12 6.94C5.67333 8.45667 4.95 10.3933 4.95 12.75C4.95 15.0833 5.67333 17.0083 7.12 18.525C8.59 20.0183 10.515 20.765 12.895 20.765C14.295 20.765 15.555 20.4617 16.675 19.855C17.8183 19.225 18.6817 18.3733 19.265 17.3L23.43 19.715C22.38 21.4883 20.91 22.9 19.02 23.95C17.1533 24.9767 15.1117 25.49 12.895 25.49ZM26.1105 7.5H42.1055V25H37.5905V11.735H30.6255V25H26.1105V7.5ZM50.3023 17.44L58.5273 7.5H61.8873V25H57.4773V15.06L49.2523 25H45.8923V7.5H50.3023V17.44ZM74.0042 25.49C71.3675 25.49 69.1625 24.6033 67.3892 22.83C65.6392 21.0567 64.7642 18.8633 64.7642 16.25C64.7642 13.6367 65.6392 11.4433 67.3892 9.67C69.1625 7.89667 71.3675 7.01 74.0042 7.01C75.7075 7.01 77.2592 7.41833 78.6592 8.235C80.0592 9.05167 81.1208 10.1483 81.8442 11.525L77.9592 13.8C77.6092 13.0767 77.0725 12.505 76.3492 12.085C75.6492 11.665 74.8558 11.455 73.9692 11.455C72.6158 11.455 71.4958 11.91 70.6092 12.82C69.7225 13.7067 69.2792 14.85 69.2792 16.25C69.2792 17.6033 69.7225 18.7467 70.6092 19.68C71.4958 20.5667 72.6158 21.01 73.9692 21.01C74.8792 21.01 75.6842 20.8117 76.3842 20.415C77.1075 19.995 77.6442 19.4233 77.9942 18.7L81.9142 20.94C81.1442 22.34 80.0475 23.4483 78.6242 24.265C77.2242 25.0817 75.6842 25.49 74.0042 25.49ZM98.5887 22.83C96.8153 24.6033 94.622 25.49 92.0087 25.49C89.3953 25.49 87.202 24.6033 85.4287 22.83C83.6553 21.0567 82.7687 18.8633 82.7687 16.25C82.7687 13.66 83.6553 11.4783 85.4287 9.705C87.2253 7.90833 89.4187 7.01 92.0087 7.01C94.5987 7.01 96.792 7.90833 98.5887 9.705C100.385 11.5017 101.284 13.6833 101.284 16.25C101.284 18.84 100.385 21.0333 98.5887 22.83ZM88.6137 19.715C89.5237 20.625 90.6553 21.08 92.0087 21.08C93.362 21.08 94.4937 20.625 95.4037 19.715C96.3137 18.805 96.7687 17.65 96.7687 16.25C96.7687 14.85 96.3137 13.695 95.4037 12.785C94.4937 11.875 93.362 11.42 92.0087 11.42C90.6553 11.42 89.5237 11.875 88.6137 12.785C87.727 13.7183 87.2837 14.8733 87.2837 16.25C87.2837 17.6267 87.727 18.7817 88.6137 19.715ZM113 16.145L120.245 25H114.995L108.625 17.055V25H104.11V7.5H108.625V15.2L114.645 7.5H120.035L113 16.145ZM14.82 34.5H19.265V52H14.89V41.78L10.445 48.78H9.885L5.405 41.71V52H1.065V34.5H5.51L10.165 41.85L14.82 34.5ZM40.0443 45.105H26.8493C27.4327 47.2983 29.0777 48.395 31.7843 48.395C33.511 48.395 34.8177 47.8117 35.7043 46.645L39.3443 48.745C37.6177 51.2417 35.0743 52.49 31.7143 52.49C28.821 52.49 26.4993 51.615 24.7493 49.865C22.9993 48.115 22.1243 45.91 22.1243 43.25C22.1243 40.6367 22.9877 38.4433 24.7143 36.67C26.4177 34.8967 28.6343 34.01 31.3643 34.01C33.9543 34.01 36.066 34.8967 37.6993 36.67C39.3793 38.4433 40.2193 40.6367 40.2193 43.25C40.2193 43.74 40.161 44.3583 40.0443 45.105ZM26.7793 41.605H35.7043C35.4477 40.4617 34.9227 39.5867 34.1293 38.98C33.3593 38.3733 32.4377 38.07 31.3643 38.07C30.151 38.07 29.1477 38.385 28.3543 39.015C27.561 39.6217 27.036 40.485 26.7793 41.605ZM53.2063 34.01C55.5629 34.01 57.5696 34.9083 59.2262 36.705C60.9063 38.5017 61.7463 40.6833 61.7463 43.25C61.7463 45.8633 60.9063 48.0567 59.2262 49.83C57.5929 51.6033 55.5863 52.49 53.2063 52.49C50.7562 52.49 48.8662 51.6383 47.5362 49.935V59H43.0212V34.5H47.5362V36.565C48.8662 34.8617 50.7562 34.01 53.2063 34.01ZM48.9012 46.82C49.8112 47.73 50.9662 48.185 52.3662 48.185C53.7662 48.185 54.9212 47.73 55.8312 46.82C56.7646 45.8867 57.2313 44.6967 57.2313 43.25C57.2313 41.8033 56.7646 40.625 55.8312 39.715C54.9212 38.7817 53.7662 38.315 52.3662 38.315C50.9662 38.315 49.8112 38.7817 48.9012 39.715C47.9912 40.625 47.5362 41.8033 47.5362 43.25C47.5362 44.6967 47.9912 45.8867 48.9012 46.82ZM79.4904 49.83C77.7171 51.6033 75.5238 52.49 72.9104 52.49C70.2971 52.49 68.1038 51.6033 66.3304 49.83C64.5571 48.0567 63.6704 45.8633 63.6704 43.25C63.6704 40.66 64.5571 38.4783 66.3304 36.705C68.1271 34.9083 70.3204 34.01 72.9104 34.01C75.5004 34.01 77.6938 34.9083 79.4904 36.705C81.2871 38.5017 82.1854 40.6833 82.1854 43.25C82.1854 45.84 81.2871 48.0333 79.4904 49.83ZM69.5154 46.715C70.4254 47.625 71.5571 48.08 72.9104 48.08C74.2638 48.08 75.3954 47.625 76.3054 46.715C77.2154 45.805 77.6704 44.65 77.6704 43.25C77.6704 41.85 77.2154 40.695 76.3054 39.785C75.3954 38.875 74.2638 38.42 72.9104 38.42C71.5571 38.42 70.4254 38.875 69.5154 39.785C68.6288 40.7183 68.1854 41.8733 68.1854 43.25C68.1854 44.6267 68.6288 45.7817 69.5154 46.715ZM85.0117 34.5H101.007V52H96.4917V38.735H89.5267V52H85.0117V34.5ZM114.979 34.01C117.335 34.01 119.342 34.9083 120.999 36.705C122.679 38.5017 123.519 40.6833 123.519 43.25C123.519 45.8633 122.679 48.0567 120.999 49.83C119.365 51.6033 117.359 52.49 114.979 52.49C112.529 52.49 110.639 51.6383 109.309 49.935V59H104.794V34.5H109.309V36.565C110.639 34.8617 112.529 34.01 114.979 34.01ZM110.674 46.82C111.584 47.73 112.739 48.185 114.139 48.185C115.539 48.185 116.694 47.73 117.604 46.82C118.537 45.8867 119.004 44.6967 119.004 43.25C119.004 41.8033 118.537 40.625 117.604 39.715C116.694 38.7817 115.539 38.315 114.139 38.315C112.739 38.315 111.584 38.7817 110.674 39.715C109.764 40.625 109.309 41.8033 109.309 43.25C109.309 44.6967 109.764 45.8867 110.674 46.82ZM130.763 44.44L138.988 34.5H142.348V52H137.938V42.06L129.713 52H126.353V34.5H130.763V44.44ZM151.98 34.5H160.17V52H155.76V46.54H154.185L150.16 52H144.945L149.32 46.015C148.2 45.5483 147.301 44.8133 146.625 43.81C145.971 42.8067 145.645 41.71 145.645 40.52C145.645 38.91 146.228 37.4983 147.395 36.285C148.538 35.095 150.066 34.5 151.98 34.5ZM155.76 38.525H152.33C151.676 38.525 151.128 38.7233 150.685 39.12C150.265 39.5167 150.055 40.03 150.055 40.66C150.055 41.29 150.265 41.7917 150.685 42.165C151.128 42.5383 151.676 42.725 152.33 42.725H155.76V38.525ZM162.219 34.5H177.724V38.84H172.264V52H167.749V38.84H162.219V34.5ZM184.195 44.44L192.42 34.5H195.78V52H191.37V42.06L183.145 52H179.785V34.5H184.195V44.44ZM212.657 32.26H202.507V28.34H212.657V32.26ZM203.977 44.44L212.202 34.5H215.562V52H211.152V42.06L202.927 52H199.567V34.5H203.977V44.44Z" fill="#F4F8FD"/>
</svg>
