<svg width="277" height="35" viewBox="0 0 277 35" fill="none" xmlns="http://www.w3.org/2000/svg">
<path d="M0.226583 8V0.727273H1.10727V3.96591H4.98511V0.727273H5.86579V8H4.98511V4.74716H1.10727V8H0.226583ZM9.0204 8.12784C8.67476 8.12784 8.36108 8.06274 8.07935 7.93253C7.79763 7.79995 7.57391 7.60938 7.40819 7.3608C7.24247 7.10985 7.15961 6.80682 7.15961 6.4517C7.15961 6.1392 7.22116 5.88589 7.34427 5.69176C7.46737 5.49527 7.63191 5.34138 7.83788 5.23011C8.04384 5.11884 8.27111 5.03598 8.51969 4.98153C8.77064 4.92472 9.02277 4.87973 9.27609 4.84659C9.60753 4.80398 9.87623 4.77202 10.0822 4.75071C10.2905 4.72704 10.442 4.68797 10.5367 4.63352C10.6338 4.57907 10.6823 4.48437 10.6823 4.34943V4.32102C10.6823 3.97064 10.5865 3.69839 10.3947 3.50426C10.2053 3.31013 9.91766 3.21307 9.53177 3.21307C9.13167 3.21307 8.81799 3.30066 8.59072 3.47585C8.36344 3.65104 8.20364 3.83807 8.11131 4.03693L7.31586 3.75284C7.4579 3.4214 7.6473 3.16335 7.88404 2.97869C8.12315 2.79167 8.38357 2.66146 8.66529 2.58807C8.94938 2.51231 9.22874 2.47443 9.50336 2.47443C9.67855 2.47443 9.87978 2.49574 10.1071 2.53835C10.3367 2.5786 10.558 2.66264 10.7711 2.79048C10.9865 2.91832 11.1653 3.11127 11.3073 3.36932C11.4494 3.62737 11.5204 3.97301 11.5204 4.40625V8H10.6823V7.26136H10.6397C10.5829 7.37973 10.4882 7.50639 10.3556 7.64134C10.2231 7.77628 10.0467 7.8911 9.82651 7.9858C9.60634 8.08049 9.33764 8.12784 9.0204 8.12784ZM9.14824 7.375C9.47968 7.375 9.75904 7.3099 9.98631 7.17969C10.216 7.04948 10.3888 6.88139 10.5048 6.67543C10.6232 6.46946 10.6823 6.25284 10.6823 6.02557V5.25852C10.6468 5.30114 10.5687 5.3402 10.448 5.37571C10.3296 5.40885 10.1923 5.43845 10.036 5.46449C9.88215 5.48816 9.73182 5.50947 9.58503 5.52841C9.44062 5.54498 9.32343 5.55919 9.23347 5.57102C9.01567 5.59943 8.81207 5.6456 8.62268 5.70952C8.43565 5.77107 8.28414 5.86458 8.16813 5.99006C8.05449 6.11316 7.99768 6.28125 7.99768 6.49432C7.99768 6.78551 8.10539 7.00568 8.32083 7.15483C8.53863 7.30161 8.81444 7.375 9.14824 7.375ZM12.6091 8L14.8251 5.23011L12.6376 2.54545H13.6319L15.4501 4.875H15.9046V2.54545H16.7427V4.875H17.183L19.0012 2.54545H19.9955L17.8222 5.23011L20.0239 8H19.0154L17.1688 5.65625H16.7427V8H15.9046V5.65625H15.4785L13.6177 8H12.6091ZM21.9596 6.7642L24.5875 2.54545H25.5534V8H24.7153V3.78125L22.1017 8H21.1215V2.54545H21.9596V6.7642ZM29.9713 6.86364L31.8747 2.54545H32.6702L30.3122 8H29.6304L27.315 2.54545H28.0963L29.9713 6.86364ZM27.8264 2.54545V8H26.9883V2.54545H27.8264ZM32.1162 8V2.54545H32.9542V8H32.1162ZM35.9935 8.12784C35.6478 8.12784 35.3341 8.06274 35.0524 7.93253C34.7707 7.79995 34.547 7.60938 34.3812 7.3608C34.2155 7.10985 34.1327 6.80682 34.1327 6.4517C34.1327 6.1392 34.1942 5.88589 34.3173 5.69176C34.4404 5.49527 34.605 5.34138 34.8109 5.23011C35.0169 5.11884 35.2442 5.03598 35.4927 4.98153C35.7437 4.92472 35.9958 4.87973 36.2491 4.84659C36.5806 4.80398 36.8493 4.77202 37.0552 4.75071C37.2636 4.72704 37.4151 4.68797 37.5098 4.63352C37.6069 4.57907 37.6554 4.48437 37.6554 4.34943V4.32102C37.6554 3.97064 37.5595 3.69839 37.3677 3.50426C37.1783 3.31013 36.8907 3.21307 36.5048 3.21307C36.1047 3.21307 35.791 3.30066 35.5638 3.47585C35.3365 3.65104 35.1767 3.83807 35.0844 4.03693L34.2889 3.75284C34.431 3.4214 34.6203 3.16335 34.8571 2.97869C35.0962 2.79167 35.3566 2.66146 35.6383 2.58807C35.9224 2.51231 36.2018 2.47443 36.4764 2.47443C36.6516 2.47443 36.8528 2.49574 37.0801 2.53835C37.3097 2.5786 37.5311 2.66264 37.7442 2.79048C37.9596 2.91832 38.1383 3.11127 38.2804 3.36932C38.4224 3.62737 38.4935 3.97301 38.4935 4.40625V8H37.6554V7.26136H37.6128C37.556 7.37973 37.4613 7.50639 37.3287 7.64134C37.1961 7.77628 37.0197 7.8911 36.7996 7.9858C36.5794 8.08049 36.3107 8.12784 35.9935 8.12784ZM36.1213 7.375C36.4527 7.375 36.7321 7.3099 36.9594 7.17969C37.189 7.04948 37.3618 6.88139 37.4778 6.67543C37.5962 6.46946 37.6554 6.25284 37.6554 6.02557V5.25852C37.6199 5.30114 37.5417 5.3402 37.421 5.37571C37.3026 5.40885 37.1653 5.43845 37.0091 5.46449C36.8552 5.48816 36.7049 5.50947 36.5581 5.52841C36.4137 5.54498 36.2965 5.55919 36.2065 5.57102C35.9887 5.59943 35.7851 5.6456 35.5957 5.70952C35.4087 5.77107 35.2572 5.86458 35.1412 5.99006C35.0275 6.11316 34.9707 6.28125 34.9707 6.49432C34.9707 6.78551 35.0784 7.00568 35.2939 7.15483C35.5117 7.30161 35.7875 7.375 36.1213 7.375ZM43.2044 8V3.3125H41.7555C41.4288 3.3125 41.1719 3.38826 40.9849 3.53977C40.7979 3.69129 40.7044 3.89962 40.7044 4.16477C40.7044 4.42519 40.7884 4.62997 40.9565 4.77912C41.1269 4.92827 41.3601 5.00284 41.6561 5.00284H43.4174V5.78409H41.6561C41.2867 5.78409 40.9683 5.71899 40.7008 5.58878C40.4333 5.45857 40.2273 5.27273 40.0829 5.03125C39.9385 4.78741 39.8663 4.49858 39.8663 4.16477C39.8663 3.8286 39.942 3.53977 40.0936 3.2983C40.2451 3.05682 40.4617 2.87098 40.7434 2.74077C41.0275 2.61056 41.3649 2.54545 41.7555 2.54545H43.9998V8H43.2044ZM39.568 8L41.1163 5.28693H42.0254L40.4771 8H39.568ZM50.2247 7.21875H49.4861L48.0514 5.08807V5.01705H48.8611L50.2247 7.21875ZM50.2247 2.85795L48.8611 5.05966H48.0514V4.98864L49.4861 2.85795H50.2247ZM52.0429 7.21875H51.3042L49.8696 5.08807V5.01705H50.6792L52.0429 7.21875ZM52.0429 2.85795L50.6792 5.05966H49.8696V4.98864L51.3042 2.85795H52.0429ZM52.9399 9.76136V7.21875H53.4086C53.5696 7.07197 53.7211 6.86482 53.8632 6.5973C54.0076 6.32741 54.1295 5.96757 54.2289 5.51776C54.3307 5.06558 54.3982 4.49148 54.4313 3.79545L54.5876 0.727273H58.9058V7.21875H59.7438V9.74716H58.9058V8H53.7779V9.76136H52.9399ZM54.4597 7.21875H58.0677V1.50852H55.383L55.2694 3.79545C55.241 4.32576 55.1913 4.80634 55.1203 5.23722C55.0492 5.66572 54.9581 6.04569 54.8468 6.37713C54.7356 6.7062 54.6065 6.98674 54.4597 7.21875ZM62.4661 8.12784C62.1205 8.12784 61.8068 8.06274 61.5251 7.93253C61.2433 7.79995 61.0196 7.60938 60.8539 7.3608C60.6882 7.10985 60.6053 6.80682 60.6053 6.4517C60.6053 6.1392 60.6669 5.88589 60.79 5.69176C60.9131 5.49527 61.0776 5.34138 61.2836 5.23011C61.4895 5.11884 61.7168 5.03598 61.9654 4.98153C62.2163 4.92472 62.4685 4.87973 62.7218 4.84659C63.0532 4.80398 63.3219 4.77202 63.5279 4.75071C63.7362 4.72704 63.8877 4.68797 63.9824 4.63352C64.0795 4.57907 64.128 4.48437 64.128 4.34943V4.32102C64.128 3.97064 64.0322 3.69839 63.8404 3.50426C63.651 3.31013 63.3634 3.21307 62.9775 3.21307C62.5774 3.21307 62.2637 3.30066 62.0364 3.47585C61.8091 3.65104 61.6493 3.83807 61.557 4.03693L60.7616 3.75284C60.9036 3.4214 61.093 3.16335 61.3297 2.97869C61.5689 2.79167 61.8293 2.66146 62.111 2.58807C62.3951 2.51231 62.6744 2.47443 62.9491 2.47443C63.1243 2.47443 63.3255 2.49574 63.5528 2.53835C63.7824 2.5786 64.0037 2.66264 64.2168 2.79048C64.4323 2.91832 64.611 3.11127 64.753 3.36932C64.8951 3.62737 64.9661 3.97301 64.9661 4.40625V8H64.128V7.26136H64.0854C64.0286 7.37973 63.9339 7.50639 63.8013 7.64134C63.6688 7.77628 63.4924 7.8911 63.2722 7.9858C63.052 8.08049 62.7833 8.12784 62.4661 8.12784ZM62.5939 7.375C62.9254 7.375 63.2047 7.3099 63.432 7.17969C63.6617 7.04948 63.8345 6.88139 63.9505 6.67543C64.0689 6.46946 64.128 6.25284 64.128 6.02557V5.25852C64.0925 5.30114 64.0144 5.3402 63.8937 5.37571C63.7753 5.40885 63.638 5.43845 63.4817 5.46449C63.3278 5.48816 63.1775 5.50947 63.0307 5.52841C62.8863 5.54498 62.7691 5.55919 62.6792 5.57102C62.4614 5.59943 62.2578 5.6456 62.0684 5.70952C61.8814 5.77107 61.7298 5.86458 61.6138 5.99006C61.5002 6.11316 61.4434 6.28125 61.4434 6.49432C61.4434 6.78551 61.5511 7.00568 61.7665 7.15483C61.9843 7.30161 62.2601 7.375 62.5939 7.375ZM65.9128 8V7.21875H66.1117C66.275 7.21875 66.4111 7.18679 66.5201 7.12287C66.629 7.05658 66.7165 6.94176 66.7828 6.77841C66.8515 6.61269 66.9036 6.38305 66.9391 6.08949C66.977 5.79356 67.0042 5.41714 67.0208 4.96023L67.1202 2.54545H70.7566V8H69.9185V3.3267H67.9156L67.8304 5.27273C67.8115 5.72017 67.7712 6.11435 67.7097 6.45526C67.6505 6.7938 67.5593 7.07789 67.4362 7.30753C67.3155 7.53717 67.1545 7.70999 66.9533 7.82599C66.7521 7.942 66.4999 8 66.1969 8H65.9128ZM74.4811 8.11364C73.9556 8.11364 73.5022 7.99763 73.121 7.76562C72.7423 7.53125 72.4499 7.20455 72.2439 6.78551C72.0403 6.36411 71.9385 5.87405 71.9385 5.31534C71.9385 4.75663 72.0403 4.2642 72.2439 3.83807C72.4499 3.40956 72.7363 3.07576 73.1033 2.83665C73.4726 2.59517 73.9035 2.47443 74.3959 2.47443C74.68 2.47443 74.9605 2.52178 75.2375 2.61648C75.5145 2.71117 75.7666 2.86506 75.9939 3.07812C76.2212 3.28883 76.4023 3.56818 76.5372 3.91619C76.6722 4.2642 76.7397 4.69271 76.7397 5.2017V5.55682H72.5351V4.83239H75.8874C75.8874 4.52462 75.8258 4.25 75.7027 4.00852C75.582 3.76705 75.4092 3.57647 75.1843 3.43679C74.9617 3.29711 74.6989 3.22727 74.3959 3.22727C74.0621 3.22727 73.7733 3.31013 73.5294 3.47585C73.288 3.6392 73.1021 3.85227 72.9719 4.11506C72.8417 4.37784 72.7766 4.65956 72.7766 4.96023V5.44318C72.7766 5.85511 72.8476 6.20431 72.9897 6.49077C73.1341 6.77486 73.3341 6.99148 73.5898 7.14062C73.8455 7.28741 74.1426 7.3608 74.4811 7.3608C74.7013 7.3608 74.9002 7.33002 75.0777 7.26847C75.2576 7.20455 75.4127 7.10985 75.5429 6.98438C75.6731 6.85653 75.7737 6.69792 75.8448 6.50852L76.6544 6.7358C76.5692 7.01042 76.426 7.25189 76.2247 7.46023C76.0235 7.66619 75.7749 7.82718 75.479 7.94318C75.1831 8.05682 74.8505 8.11364 74.4811 8.11364ZM80.2014 8.11364C79.6759 8.11364 79.2225 7.99763 78.8414 7.76562C78.4626 7.53125 78.1702 7.20455 77.9642 6.78551C77.7606 6.36411 77.6588 5.87405 77.6588 5.31534C77.6588 4.75663 77.7606 4.2642 77.9642 3.83807C78.1702 3.40956 78.4566 3.07576 78.8236 2.83665C79.1929 2.59517 79.6238 2.47443 80.1162 2.47443C80.4003 2.47443 80.6808 2.52178 80.9578 2.61648C81.2348 2.71117 81.4869 2.86506 81.7142 3.07812C81.9415 3.28883 82.1226 3.56818 82.2575 3.91619C82.3925 4.2642 82.46 4.69271 82.46 5.2017V5.55682H78.2554V4.83239H81.6077C81.6077 4.52462 81.5461 4.25 81.423 4.00852C81.3023 3.76705 81.1295 3.57647 80.9046 3.43679C80.682 3.29711 80.4192 3.22727 80.1162 3.22727C79.7824 3.22727 79.4936 3.31013 79.2497 3.47585C79.0083 3.6392 78.8224 3.85227 78.6922 4.11506C78.562 4.37784 78.4969 4.65956 78.4969 4.96023V5.44318C78.4969 5.85511 78.5679 6.20431 78.71 6.49077C78.8544 6.77486 79.0544 6.99148 79.3101 7.14062C79.5658 7.28741 79.8629 7.3608 80.2014 7.3608C80.4216 7.3608 80.6205 7.33002 80.798 7.26847C80.978 7.20455 81.133 7.10985 81.2632 6.98438C81.3934 6.85653 81.4941 6.69792 81.5651 6.50852L82.3747 6.7358C82.2895 7.01042 82.1463 7.25189 81.945 7.46023C81.7438 7.66619 81.4952 7.82718 81.1993 7.94318C80.9034 8.05682 80.5708 8.11364 80.2014 8.11364ZM83.5354 7.21875L84.899 5.01705H85.7087V5.08807L84.274 7.21875H83.5354ZM83.5354 2.85795H84.274L85.7087 4.98864V5.05966H84.899L83.5354 2.85795ZM85.3536 7.21875L86.7172 5.01705H87.5269V5.08807L86.0922 7.21875H85.3536ZM85.3536 2.85795H86.0922L87.5269 4.98864V5.05966H86.7172L85.3536 2.85795ZM90.1852 7.00568L90.1284 7.3892C90.0881 7.65909 90.0266 7.94792 89.9437 8.25568C89.8632 8.56345 89.7792 8.85346 89.6916 9.12571C89.604 9.39796 89.5318 9.61458 89.475 9.77557H88.8358C88.8666 9.62405 88.9068 9.42401 88.9565 9.17543C89.0062 8.92685 89.056 8.64867 89.1057 8.34091C89.1578 8.03551 89.2004 7.72301 89.2335 7.40341L89.2761 7.00568H90.1852ZM94.3505 8V2.54545H96.5806C97.1677 2.54545 97.6341 2.67803 97.9797 2.94318C98.3254 3.20833 98.4982 3.55871 98.4982 3.99432C98.4982 4.32576 98.3999 4.58262 98.2034 4.76491C98.0069 4.94484 97.7548 5.06676 97.447 5.13068C97.6483 5.15909 97.8436 5.23011 98.033 5.34375C98.2247 5.45739 98.3834 5.61364 98.5088 5.8125C98.6343 6.009 98.697 6.25047 98.697 6.53693C98.697 6.81629 98.626 7.06605 98.484 7.28622C98.3419 7.50639 98.1383 7.6804 97.8732 7.80824C97.608 7.93608 97.2908 8 96.9215 8H94.3505ZM95.1459 7.23295H96.9215C97.2103 7.23295 97.4364 7.1643 97.5997 7.02699C97.7631 6.88968 97.8448 6.70265 97.8448 6.46591C97.8448 6.18419 97.7631 5.96283 97.5997 5.80185C97.4364 5.63849 97.2103 5.55682 96.9215 5.55682H95.1459V7.23295ZM95.1459 4.83239H96.5806C96.8055 4.83239 96.9984 4.80161 97.1594 4.74006C97.3204 4.67614 97.4435 4.58617 97.5287 4.47017C97.6163 4.3518 97.6601 4.21212 97.6601 4.05114C97.6601 3.8215 97.5642 3.64157 97.3725 3.51136C97.1807 3.37879 96.9167 3.3125 96.5806 3.3125H95.1459V4.83239ZM100.59 4.51989H102.153C102.792 4.51989 103.281 4.68205 103.619 5.00639C103.958 5.33073 104.127 5.74148 104.127 6.23864C104.127 6.56534 104.051 6.86245 103.9 7.12997C103.748 7.39512 103.526 7.60701 103.232 7.76562C102.939 7.92188 102.579 8 102.153 8H99.8657V2.54545H100.704V7.21875H102.153C102.484 7.21875 102.756 7.13116 102.969 6.95597C103.182 6.78078 103.289 6.55587 103.289 6.28125C103.289 5.99242 103.182 5.75687 102.969 5.57457C102.756 5.39228 102.484 5.30114 102.153 5.30114H100.59V4.51989ZM104.994 8V2.54545H105.832V8H104.994ZM112.194 8.11364C111.683 8.11364 111.242 7.9929 110.873 7.75142C110.504 7.50994 110.22 7.17732 110.021 6.75355C109.822 6.32978 109.722 5.84564 109.722 5.30114C109.722 4.74716 109.824 4.25829 110.028 3.83452C110.234 3.40838 110.52 3.07576 110.887 2.83665C111.257 2.59517 111.687 2.47443 112.18 2.47443C112.563 2.47443 112.909 2.54545 113.217 2.6875C113.525 2.82955 113.777 3.02841 113.973 3.28409C114.17 3.53977 114.292 3.83807 114.339 4.17898H113.501C113.437 3.9304 113.295 3.71023 113.075 3.51847C112.857 3.32434 112.563 3.22727 112.194 3.22727C111.867 3.22727 111.581 3.3125 111.335 3.48295C111.091 3.65104 110.9 3.88897 110.763 4.19673C110.628 4.50213 110.561 4.8608 110.561 5.27273C110.561 5.69413 110.627 6.06108 110.759 6.37358C110.894 6.68608 111.084 6.92874 111.328 7.10156C111.574 7.27438 111.863 7.3608 112.194 7.3608C112.412 7.3608 112.61 7.32292 112.787 7.24716C112.965 7.1714 113.115 7.0625 113.238 6.92045C113.361 6.77841 113.449 6.60795 113.501 6.40909H114.339C114.292 6.73106 114.174 7.02107 113.987 7.27912C113.803 7.5348 113.558 7.7384 113.252 7.88991C112.949 8.03906 112.597 8.11364 112.194 8.11364ZM117.68 8.11364C117.188 8.11364 116.756 7.99645 116.384 7.76207C116.015 7.5277 115.726 7.19981 115.517 6.77841C115.311 6.35701 115.208 5.86458 115.208 5.30114C115.208 4.73295 115.311 4.23698 115.517 3.81321C115.726 3.38944 116.015 3.06037 116.384 2.82599C116.756 2.59162 117.188 2.47443 117.68 2.47443C118.172 2.47443 118.603 2.59162 118.973 2.82599C119.344 3.06037 119.633 3.38944 119.839 3.81321C120.047 4.23698 120.152 4.73295 120.152 5.30114C120.152 5.86458 120.047 6.35701 119.839 6.77841C119.633 7.19981 119.344 7.5277 118.973 7.76207C118.603 7.99645 118.172 8.11364 117.68 8.11364ZM117.68 7.3608C118.054 7.3608 118.362 7.26491 118.603 7.07315C118.845 6.88139 119.024 6.62926 119.14 6.31676C119.256 6.00426 119.314 5.66572 119.314 5.30114C119.314 4.93655 119.256 4.59683 119.14 4.28196C119.024 3.96709 118.845 3.71259 118.603 3.51847C118.362 3.32434 118.054 3.22727 117.68 3.22727C117.306 3.22727 116.998 3.32434 116.757 3.51847C116.515 3.71259 116.337 3.96709 116.221 4.28196C116.105 4.59683 116.047 4.93655 116.047 5.30114C116.047 5.66572 116.105 6.00426 116.221 6.31676C116.337 6.62926 116.515 6.88139 116.757 7.07315C116.998 7.26491 117.306 7.3608 117.68 7.3608ZM124.697 2.54545V3.3267H122.169V8H121.331V2.54545H124.697ZM124.879 8V7.21875H125.078C125.241 7.21875 125.377 7.18679 125.486 7.12287C125.595 7.05658 125.683 6.94176 125.749 6.77841C125.818 6.61269 125.87 6.38305 125.905 6.08949C125.943 5.79356 125.97 5.41714 125.987 4.96023L126.086 2.54545H129.723V8H128.884V3.3267H126.882L126.796 5.27273C126.777 5.72017 126.737 6.11435 126.676 6.45526C126.617 6.7938 126.525 7.07789 126.402 7.30753C126.282 7.53717 126.121 7.70999 125.919 7.82599C125.718 7.942 125.466 8 125.163 8H124.879ZM132.765 8.12784C132.42 8.12784 132.106 8.06274 131.824 7.93253C131.543 7.79995 131.319 7.60938 131.153 7.3608C130.987 7.10985 130.905 6.80682 130.905 6.4517C130.905 6.1392 130.966 5.88589 131.089 5.69176C131.212 5.49527 131.377 5.34138 131.583 5.23011C131.789 5.11884 132.016 5.03598 132.265 4.98153C132.516 4.92472 132.768 4.87973 133.021 4.84659C133.352 4.80398 133.621 4.77202 133.827 4.75071C134.035 4.72704 134.187 4.68797 134.282 4.63352C134.379 4.57907 134.427 4.48437 134.427 4.34943V4.32102C134.427 3.97064 134.331 3.69839 134.14 3.50426C133.95 3.31013 133.663 3.21307 133.277 3.21307C132.877 3.21307 132.563 3.30066 132.336 3.47585C132.108 3.65104 131.949 3.83807 131.856 4.03693L131.061 3.75284C131.203 3.4214 131.392 3.16335 131.629 2.97869C131.868 2.79167 132.128 2.66146 132.41 2.58807C132.694 2.51231 132.974 2.47443 133.248 2.47443C133.423 2.47443 133.625 2.49574 133.852 2.53835C134.082 2.5786 134.303 2.66264 134.516 2.79048C134.731 2.91832 134.91 3.11127 135.052 3.36932C135.194 3.62737 135.265 3.97301 135.265 4.40625V8H134.427V7.26136H134.385C134.328 7.37973 134.233 7.50639 134.101 7.64134C133.968 7.77628 133.792 7.8911 133.571 7.9858C133.351 8.08049 133.083 8.12784 132.765 8.12784ZM132.893 7.375C133.225 7.375 133.504 7.3099 133.731 7.17969C133.961 7.04948 134.134 6.88139 134.25 6.67543C134.368 6.46946 134.427 6.25284 134.427 6.02557V5.25852C134.392 5.30114 134.314 5.3402 134.193 5.37571C134.075 5.40885 133.937 5.43845 133.781 5.46449C133.627 5.48816 133.477 5.50947 133.33 5.52841C133.186 5.54498 133.068 5.55919 132.978 5.57102C132.761 5.59943 132.557 5.6456 132.368 5.70952C132.181 5.77107 132.029 5.86458 131.913 5.99006C131.799 6.11316 131.743 6.28125 131.743 6.49432C131.743 6.78551 131.85 7.00568 132.066 7.15483C132.284 7.30161 132.559 7.375 132.893 7.375ZM136.695 2.54545H137.533V7.21875H139.593V2.54545H140.431V7.21875H142.49V2.54545H143.329V8H136.695V2.54545ZM146.364 8.12784C146.019 8.12784 145.705 8.06274 145.423 7.93253C145.141 7.79995 144.918 7.60938 144.752 7.3608C144.586 7.10985 144.503 6.80682 144.503 6.4517C144.503 6.1392 144.565 5.88589 144.688 5.69176C144.811 5.49527 144.976 5.34138 145.182 5.23011C145.388 5.11884 145.615 5.03598 145.863 4.98153C146.114 4.92472 146.367 4.87973 146.62 4.84659C146.951 4.80398 147.22 4.77202 147.426 4.75071C147.634 4.72704 147.786 4.68797 147.88 4.63352C147.978 4.57907 148.026 4.48437 148.026 4.34943V4.32102C148.026 3.97064 147.93 3.69839 147.738 3.50426C147.549 3.31013 147.261 3.21307 146.876 3.21307C146.475 3.21307 146.162 3.30066 145.934 3.47585C145.707 3.65104 145.547 3.83807 145.455 4.03693L144.66 3.75284C144.802 3.4214 144.991 3.16335 145.228 2.97869C145.467 2.79167 145.727 2.66146 146.009 2.58807C146.293 2.51231 146.572 2.47443 146.847 2.47443C147.022 2.47443 147.224 2.49574 147.451 2.53835C147.68 2.5786 147.902 2.66264 148.115 2.79048C148.33 2.91832 148.509 3.11127 148.651 3.36932C148.793 3.62737 148.864 3.97301 148.864 4.40625V8H148.026V7.26136H147.983C147.927 7.37973 147.832 7.50639 147.699 7.64134C147.567 7.77628 147.39 7.8911 147.17 7.9858C146.95 8.08049 146.681 8.12784 146.364 8.12784ZM146.492 7.375C146.823 7.375 147.103 7.3099 147.33 7.17969C147.56 7.04948 147.733 6.88139 147.849 6.67543C147.967 6.46946 148.026 6.25284 148.026 6.02557V5.25852C147.991 5.30114 147.912 5.3402 147.792 5.37571C147.673 5.40885 147.536 5.43845 147.38 5.46449C147.226 5.48816 147.076 5.50947 146.929 5.52841C146.784 5.54498 146.667 5.55919 146.577 5.57102C146.359 5.59943 146.156 5.6456 145.966 5.70952C145.779 5.77107 145.628 5.86458 145.512 5.99006C145.398 6.11316 145.341 6.28125 145.341 6.49432C145.341 6.78551 145.449 7.00568 145.665 7.15483C145.882 7.30161 146.158 7.375 146.492 7.375ZM152.581 8.11364C152.055 8.11364 151.602 7.99763 151.221 7.76562C150.842 7.53125 150.549 7.20455 150.344 6.78551C150.14 6.36411 150.038 5.87405 150.038 5.31534C150.038 4.75663 150.14 4.2642 150.344 3.83807C150.549 3.40956 150.836 3.07576 151.203 2.83665C151.572 2.59517 152.003 2.47443 152.496 2.47443C152.78 2.47443 153.06 2.52178 153.337 2.61648C153.614 2.71117 153.866 2.86506 154.094 3.07812C154.321 3.28883 154.502 3.56818 154.637 3.91619C154.772 4.2642 154.839 4.69271 154.839 5.2017V5.55682H150.635V4.83239H153.987C153.987 4.52462 153.925 4.25 153.802 4.00852C153.682 3.76705 153.509 3.57647 153.284 3.43679C153.061 3.29711 152.799 3.22727 152.496 3.22727C152.162 3.22727 151.873 3.31013 151.629 3.47585C151.388 3.6392 151.202 3.85227 151.072 4.11506C150.941 4.37784 150.876 4.65956 150.876 4.96023V5.44318C150.876 5.85511 150.947 6.20431 151.089 6.49077C151.234 6.77486 151.434 6.99148 151.689 7.14062C151.945 7.28741 152.242 7.3608 152.581 7.3608C152.801 7.3608 153 7.33002 153.177 7.26847C153.357 7.20455 153.512 7.10985 153.643 6.98438C153.773 6.85653 153.873 6.69792 153.944 6.50852L154.754 6.7358C154.669 7.01042 154.526 7.25189 154.324 7.46023C154.123 7.66619 153.875 7.82718 153.579 7.94318C153.283 8.05682 152.95 8.11364 152.581 8.11364ZM155.506 3.3267V2.54545H159.938V3.3267H158.148V8H157.31V3.3267H155.506ZM163.064 8.11364C162.539 8.11364 162.085 7.99763 161.704 7.76562C161.325 7.53125 161.033 7.20455 160.827 6.78551C160.624 6.36411 160.522 5.87405 160.522 5.31534C160.522 4.75663 160.624 4.2642 160.827 3.83807C161.033 3.40956 161.32 3.07576 161.686 2.83665C162.056 2.59517 162.487 2.47443 162.979 2.47443C163.263 2.47443 163.544 2.52178 163.821 2.61648C164.098 2.71117 164.35 2.86506 164.577 3.07812C164.804 3.28883 164.986 3.56818 165.12 3.91619C165.255 4.2642 165.323 4.69271 165.323 5.2017V5.55682H161.118V4.83239H164.471C164.471 4.52462 164.409 4.25 164.286 4.00852C164.165 3.76705 163.992 3.57647 163.767 3.43679C163.545 3.29711 163.282 3.22727 162.979 3.22727C162.645 3.22727 162.356 3.31013 162.113 3.47585C161.871 3.6392 161.685 3.85227 161.555 4.11506C161.425 4.37784 161.36 4.65956 161.36 4.96023V5.44318C161.36 5.85511 161.431 6.20431 161.573 6.49077C161.717 6.77486 161.917 6.99148 162.173 7.14062C162.429 7.28741 162.726 7.3608 163.064 7.3608C163.285 7.3608 163.483 7.33002 163.661 7.26847C163.841 7.20455 163.996 7.10985 164.126 6.98438C164.256 6.85653 164.357 6.69792 164.428 6.50852L165.238 6.7358C165.152 7.01042 165.009 7.25189 164.808 7.46023C164.607 7.66619 164.358 7.82718 164.062 7.94318C163.766 8.05682 163.434 8.11364 163.064 8.11364ZM168.714 8.11364C168.202 8.11364 167.762 7.9929 167.393 7.75142C167.023 7.50994 166.739 7.17732 166.54 6.75355C166.341 6.32978 166.242 5.84564 166.242 5.30114C166.242 4.74716 166.344 4.25829 166.547 3.83452C166.753 3.40838 167.04 3.07576 167.407 2.83665C167.776 2.59517 168.207 2.47443 168.699 2.47443C169.083 2.47443 169.429 2.54545 169.736 2.6875C170.044 2.82955 170.296 3.02841 170.493 3.28409C170.689 3.53977 170.811 3.83807 170.859 4.17898H170.02C169.957 3.9304 169.814 3.71023 169.594 3.51847C169.377 3.32434 169.083 3.22727 168.714 3.22727C168.387 3.22727 168.1 3.3125 167.854 3.48295C167.61 3.65104 167.42 3.88897 167.283 4.19673C167.148 4.50213 167.08 4.8608 167.08 5.27273C167.08 5.69413 167.146 6.06108 167.279 6.37358C167.414 6.68608 167.603 6.92874 167.847 7.10156C168.093 7.27438 168.382 7.3608 168.714 7.3608C168.931 7.3608 169.129 7.32292 169.307 7.24716C169.484 7.1714 169.635 7.0625 169.758 6.92045C169.881 6.77841 169.968 6.60795 170.02 6.40909H170.859C170.811 6.73106 170.694 7.02107 170.507 7.27912C170.322 7.5348 170.077 7.7384 169.772 7.88991C169.469 8.03906 169.116 8.11364 168.714 8.11364ZM172.708 4.51989H174.271C174.91 4.51989 175.399 4.68205 175.737 5.00639C176.076 5.33073 176.245 5.74148 176.245 6.23864C176.245 6.56534 176.169 6.86245 176.018 7.12997C175.866 7.39512 175.644 7.60701 175.35 7.76562C175.057 7.92188 174.697 8 174.271 8H171.984V2.54545H172.822V7.21875H174.271C174.602 7.21875 174.874 7.13116 175.087 6.95597C175.3 6.78078 175.407 6.55587 175.407 6.28125C175.407 5.99242 175.3 5.75687 175.087 5.57457C174.874 5.39228 174.602 5.30114 174.271 5.30114H172.708V4.51989ZM182.349 8.11364C181.838 8.11364 181.397 7.9929 181.028 7.75142C180.659 7.50994 180.375 7.17732 180.176 6.75355C179.977 6.32978 179.878 5.84564 179.878 5.30114C179.878 4.74716 179.979 4.25829 180.183 3.83452C180.389 3.40838 180.675 3.07576 181.042 2.83665C181.412 2.59517 181.843 2.47443 182.335 2.47443C182.718 2.47443 183.064 2.54545 183.372 2.6875C183.68 2.82955 183.932 3.02841 184.128 3.28409C184.325 3.53977 184.447 3.83807 184.494 4.17898H183.656C183.592 3.9304 183.45 3.71023 183.23 3.51847C183.012 3.32434 182.718 3.22727 182.349 3.22727C182.022 3.22727 181.736 3.3125 181.49 3.48295C181.246 3.65104 181.055 3.88897 180.918 4.19673C180.783 4.50213 180.716 4.8608 180.716 5.27273C180.716 5.69413 180.782 6.06108 180.915 6.37358C181.049 6.68608 181.239 6.92874 181.483 7.10156C181.729 7.27438 182.018 7.3608 182.349 7.3608C182.567 7.3608 182.765 7.32292 182.942 7.24716C183.12 7.1714 183.27 7.0625 183.393 6.92045C183.516 6.77841 183.604 6.60795 183.656 6.40909H184.494C184.447 6.73106 184.33 7.02107 184.142 7.27912C183.958 7.5348 183.713 7.7384 183.407 7.88991C183.104 8.03906 182.752 8.11364 182.349 8.11364ZM69.6485 18.7642L72.2763 14.5455H73.2422V20H72.4042V15.7812L69.7905 20H68.8104V14.5455H69.6485V18.7642ZM235.801 19.0057L235.744 19.3892C235.704 19.6591 235.642 19.9479 235.559 20.2557C235.479 20.5634 235.395 20.8535 235.307 21.1257C235.219 21.398 235.147 21.6146 235.09 21.7756H234.451C234.482 21.6241 234.522 21.424 234.572 21.1754C234.622 20.9268 234.671 20.6487 234.721 20.3409C234.773 20.0355 234.816 19.723 234.849 19.4034L234.892 19.0057H235.801ZM241.571 20.1278C241.225 20.1278 240.912 20.0627 240.63 19.9325C240.348 19.8 240.125 19.6094 239.959 19.3608C239.793 19.1098 239.71 18.8068 239.71 18.4517C239.71 18.1392 239.772 17.8859 239.895 17.6918C240.018 17.4953 240.183 17.3414 240.388 17.2301C240.594 17.1188 240.822 17.036 241.07 16.9815C241.321 16.9247 241.573 16.8797 241.827 16.8466C242.158 16.804 242.427 16.772 242.633 16.7507C242.841 16.727 242.993 16.688 243.087 16.6335C243.184 16.5791 243.233 16.4844 243.233 16.3494V16.321C243.233 15.9706 243.137 15.6984 242.945 15.5043C242.756 15.3101 242.468 15.2131 242.082 15.2131C241.682 15.2131 241.369 15.3007 241.141 15.4759C240.914 15.651 240.754 15.8381 240.662 16.0369L239.866 15.7528C240.008 15.4214 240.198 15.1634 240.435 14.9787C240.674 14.7917 240.934 14.6615 241.216 14.5881C241.5 14.5123 241.779 14.4744 242.054 14.4744C242.229 14.4744 242.43 14.4957 242.658 14.5384C242.887 14.5786 243.109 14.6626 243.322 14.7905C243.537 14.9183 243.716 15.1113 243.858 15.3693C244 15.6274 244.071 15.973 244.071 16.4062V20H243.233V19.2614H243.19C243.133 19.3797 243.039 19.5064 242.906 19.6413C242.774 19.7763 242.597 19.8911 242.377 19.9858C242.157 20.0805 241.888 20.1278 241.571 20.1278ZM241.699 19.375C242.03 19.375 242.31 19.3099 242.537 19.1797C242.767 19.0495 242.939 18.8814 243.055 18.6754C243.174 18.4695 243.233 18.2528 243.233 18.0256V17.2585C243.197 17.3011 243.119 17.3402 242.999 17.3757C242.88 17.4089 242.743 17.4384 242.587 17.4645C242.433 17.4882 242.282 17.5095 242.136 17.5284C241.991 17.545 241.874 17.5592 241.784 17.571C241.566 17.5994 241.363 17.6456 241.173 17.7095C240.986 17.7711 240.835 17.8646 240.719 17.9901C240.605 18.1132 240.548 18.2812 240.548 18.4943C240.548 18.7855 240.656 19.0057 240.871 19.1548C241.089 19.3016 241.365 19.375 241.699 19.375ZM247.901 15.3267V14.5455H252.332V15.3267H250.543V20H249.705V15.3267H247.901ZM254.777 20.1278C254.431 20.1278 254.118 20.0627 253.836 19.9325C253.554 19.8 253.33 19.6094 253.165 19.3608C252.999 19.1098 252.916 18.8068 252.916 18.4517C252.916 18.1392 252.978 17.8859 253.101 17.6918C253.224 17.4953 253.388 17.3414 253.594 17.2301C253.8 17.1188 254.028 17.036 254.276 16.9815C254.527 16.9247 254.779 16.8797 255.033 16.8466C255.364 16.804 255.633 16.772 255.839 16.7507C256.047 16.727 256.198 16.688 256.293 16.6335C256.39 16.5791 256.439 16.4844 256.439 16.3494V16.321C256.439 15.9706 256.343 15.6984 256.151 15.5043C255.962 15.3101 255.674 15.2131 255.288 15.2131C254.888 15.2131 254.574 15.3007 254.347 15.4759C254.12 15.651 253.96 15.8381 253.868 16.0369L253.072 15.7528C253.214 15.4214 253.404 15.1634 253.64 14.9787C253.88 14.7917 254.14 14.6615 254.422 14.5881C254.706 14.5123 254.985 14.4744 255.26 14.4744C255.435 14.4744 255.636 14.4957 255.864 14.5384C256.093 14.5786 256.314 14.6626 256.528 14.7905C256.743 14.9183 256.922 15.1113 257.064 15.3693C257.206 15.6274 257.277 15.973 257.277 16.4062V20H256.439V19.2614H256.396C256.339 19.3797 256.245 19.5064 256.112 19.6413C255.98 19.7763 255.803 19.8911 255.583 19.9858C255.363 20.0805 255.094 20.1278 254.777 20.1278ZM254.905 19.375C255.236 19.375 255.515 19.3099 255.743 19.1797C255.972 19.0495 256.145 18.8814 256.261 18.6754C256.38 18.4695 256.439 18.2528 256.439 18.0256V17.2585C256.403 17.3011 256.325 17.3402 256.204 17.3757C256.086 17.4089 255.949 17.4384 255.792 17.4645C255.639 17.4882 255.488 17.5095 255.341 17.5284C255.197 17.545 255.08 17.5592 254.99 17.571C254.772 17.5994 254.569 17.6456 254.379 17.7095C254.192 17.7711 254.041 17.8646 253.925 17.9901C253.811 18.1132 253.754 18.2812 253.754 18.4943C253.754 18.7855 253.862 19.0057 254.077 19.1548C254.295 19.3016 254.571 19.375 254.905 19.375ZM258.706 20V14.5455H259.545V16.9176H260.099L262.059 14.5455H263.138L260.937 17.1733L263.167 20H262.087L260.297 17.6989H259.545V20H258.706ZM263.637 20L265.853 17.2301L263.665 14.5455H264.659L266.478 16.875H266.932V14.5455H267.77V16.875H268.211L270.029 14.5455H271.023L268.85 17.2301L271.051 20H270.043L268.196 17.6562H267.77V20H266.932V17.6562H266.506L264.645 20H263.637ZM274.211 20.1136C273.686 20.1136 273.232 19.9976 272.851 19.7656C272.473 19.5312 272.18 19.2045 271.974 18.7855C271.771 18.3641 271.669 17.8741 271.669 17.3153C271.669 16.7566 271.771 16.2642 271.974 15.8381C272.18 15.4096 272.467 15.0758 272.834 14.8366C273.203 14.5952 273.634 14.4744 274.126 14.4744C274.41 14.4744 274.691 14.5218 274.968 14.6165C275.245 14.7112 275.497 14.8651 275.724 15.0781C275.951 15.2888 276.133 15.5682 276.267 15.9162C276.402 16.2642 276.47 16.6927 276.47 17.2017V17.5568H272.265V16.8324H275.618C275.618 16.5246 275.556 16.25 275.433 16.0085C275.312 15.767 275.139 15.5765 274.915 15.4368C274.692 15.2971 274.429 15.2273 274.126 15.2273C273.792 15.2273 273.504 15.3101 273.26 15.4759C273.018 15.6392 272.832 15.8523 272.702 16.1151C272.572 16.3778 272.507 16.6596 272.507 16.9602V17.4432C272.507 17.8551 272.578 18.2043 272.72 18.4908C272.864 18.7749 273.064 18.9915 273.32 19.1406C273.576 19.2874 273.873 19.3608 274.211 19.3608C274.432 19.3608 274.63 19.33 274.808 19.2685C274.988 19.2045 275.143 19.1098 275.273 18.9844C275.403 18.8565 275.504 18.6979 275.575 18.5085L276.385 18.7358C276.299 19.0104 276.156 19.2519 275.955 19.4602C275.754 19.6662 275.505 19.8272 275.209 19.9432C274.913 20.0568 274.581 20.1136 274.211 20.1136ZM42.1717 32V26.5455H46.4615V32H45.6234V27.3267H43.0098V32H42.1717ZM50.108 32.1136C49.6155 32.1136 49.1835 31.9964 48.8118 31.7621C48.4425 31.5277 48.1536 31.1998 47.9453 30.7784C47.7393 30.357 47.6364 29.8646 47.6364 29.3011C47.6364 28.733 47.7393 28.237 47.9453 27.8132C48.1536 27.3894 48.4425 27.0604 48.8118 26.826C49.1835 26.5916 49.6155 26.4744 50.108 26.4744C50.6004 26.4744 51.0313 26.5916 51.4006 26.826C51.7723 27.0604 52.0611 27.3894 52.267 27.8132C52.4754 28.237 52.5795 28.733 52.5795 29.3011C52.5795 29.8646 52.4754 30.357 52.267 30.7784C52.0611 31.1998 51.7723 31.5277 51.4006 31.7621C51.0313 31.9964 50.6004 32.1136 50.108 32.1136ZM50.108 31.3608C50.482 31.3608 50.7898 31.2649 51.0312 31.0732C51.2727 30.8814 51.4515 30.6293 51.5675 30.3168C51.6835 30.0043 51.7415 29.6657 51.7415 29.3011C51.7415 28.9366 51.6835 28.5968 51.5675 28.282C51.4515 27.9671 51.2727 27.7126 51.0312 27.5185C50.7898 27.3243 50.482 27.2273 50.108 27.2273C49.7339 27.2273 49.4261 27.3243 49.1847 27.5185C48.9432 27.7126 48.7644 27.9671 48.6484 28.282C48.5324 28.5968 48.4744 28.9366 48.4744 29.3011C48.4744 29.6657 48.5324 30.0043 48.6484 30.3168C48.7644 30.6293 48.9432 30.8814 49.1847 31.0732C49.4261 31.2649 49.7339 31.3608 50.108 31.3608ZM53.1765 33.5625V31.2188H53.631C53.7423 31.1027 53.8381 30.9773 53.9186 30.8423C53.9991 30.7074 54.069 30.5476 54.1282 30.3629C54.1897 30.1759 54.2418 29.9486 54.2844 29.6811C54.327 29.4112 54.3649 29.0857 54.398 28.7045L54.5827 26.5455H58.0486V31.2188H58.8867V33.5625H58.0486V32H54.0145V33.5625H53.1765ZM54.5827 31.2188H57.2105V27.3267H55.364L55.2219 28.7045C55.1627 29.2751 55.0893 29.7734 55.0017 30.1996C54.9141 30.6257 54.7745 30.9654 54.5827 31.2188ZM59.5866 27.3267V26.5455H64.0184V27.3267H62.2286V32H61.3906V27.3267H59.5866ZM65.1409 32V26.5455H67.371C67.9581 26.5455 68.4245 26.678 68.7701 26.9432C69.1158 27.2083 69.2886 27.5587 69.2886 27.9943C69.2886 28.3258 69.1903 28.5826 68.9939 28.7649C68.7974 28.9448 68.5452 29.0668 68.2375 29.1307C68.4387 29.1591 68.634 29.2301 68.8234 29.3438C69.0152 29.4574 69.1738 29.6136 69.2993 29.8125C69.4247 30.009 69.4875 30.2505 69.4875 30.5369C69.4875 30.8163 69.4164 31.0661 69.2744 31.2862C69.1323 31.5064 68.9287 31.6804 68.6636 31.8082C68.3984 31.9361 68.0812 32 67.7119 32H65.1409ZM65.9363 31.233H67.7119C68.0007 31.233 68.2268 31.1643 68.3902 31.027C68.5535 30.8897 68.6352 30.7027 68.6352 30.4659C68.6352 30.1842 68.5535 29.9628 68.3902 29.8018C68.2268 29.6385 68.0007 29.5568 67.7119 29.5568H65.9363V31.233ZM65.9363 28.8324H67.371C67.5959 28.8324 67.7888 28.8016 67.9498 28.7401C68.1108 28.6761 68.2339 28.5862 68.3191 28.4702C68.4067 28.3518 68.4505 28.2121 68.4505 28.0511C68.4505 27.8215 68.3546 27.6416 68.1629 27.5114C67.9711 27.3788 67.7072 27.3125 67.371 27.3125H65.9363V28.8324ZM72.943 32.1136C72.4175 32.1136 71.9641 31.9976 71.583 31.7656C71.2042 31.5312 70.9118 31.2045 70.7058 30.7855C70.5022 30.3641 70.4004 29.8741 70.4004 29.3153C70.4004 28.7566 70.5022 28.2642 70.7058 27.8381C70.9118 27.4096 71.1982 27.0758 71.5652 26.8366C71.9345 26.5952 72.3654 26.4744 72.8578 26.4744C73.1419 26.4744 73.4224 26.5218 73.6994 26.6165C73.9764 26.7112 74.2285 26.8651 74.4558 27.0781C74.6831 27.2888 74.8642 27.5682 74.9991 27.9162C75.1341 28.2642 75.2016 28.6927 75.2016 29.2017V29.5568H70.997V28.8324H74.3493C74.3493 28.5246 74.2877 28.25 74.1646 28.0085C74.0439 27.767 73.8711 27.5765 73.6462 27.4368C73.4236 27.2971 73.1608 27.2273 72.8578 27.2273C72.524 27.2273 72.2352 27.3101 71.9913 27.4759C71.7499 27.6392 71.564 27.8523 71.4338 28.1151C71.3036 28.3778 71.2385 28.6596 71.2385 28.9602V29.4432C71.2385 29.8551 71.3095 30.2043 71.4516 30.4908C71.596 30.7749 71.796 30.9915 72.0517 31.1406C72.3074 31.2874 72.6045 31.3608 72.943 31.3608C73.1632 31.3608 73.3621 31.33 73.5396 31.2685C73.7196 31.2045 73.8746 31.1098 74.0048 30.9844C74.135 30.8565 74.2357 30.6979 74.3067 30.5085L75.1163 30.7358C75.0311 31.0104 74.8879 31.2519 74.6866 31.4602C74.4854 31.6662 74.2368 31.8272 73.9409 31.9432C73.645 32.0568 73.3124 32.1136 72.943 32.1136ZM76.3764 34.0455V26.5455H77.1861V27.4119H77.2855C77.3471 27.3172 77.4323 27.1965 77.5412 27.0497C77.6525 26.9006 77.8111 26.768 78.017 26.652C78.2254 26.5336 78.5071 26.4744 78.8622 26.4744C79.3215 26.4744 79.7263 26.5893 80.0767 26.8189C80.4271 27.0485 80.7005 27.3741 80.897 27.7955C81.0935 28.2169 81.1918 28.714 81.1918 29.2869C81.1918 29.8646 81.0935 30.3653 80.897 30.7891C80.7005 31.2105 80.4283 31.5372 80.0803 31.7692C79.7322 31.9988 79.331 32.1136 78.8764 32.1136C78.526 32.1136 78.2455 32.0556 78.0348 31.9396C77.8241 31.8213 77.6619 31.6875 77.5483 31.5384C77.4347 31.3868 77.3471 31.2614 77.2855 31.1619H77.2145V34.0455H76.3764ZM77.2003 29.2727C77.2003 29.6847 77.2607 30.0481 77.3814 30.3629C77.5021 30.6754 77.6785 30.9205 77.9105 31.098C78.1425 31.2732 78.4266 31.3608 78.7628 31.3608C79.1132 31.3608 79.4055 31.2685 79.6399 31.0838C79.8767 30.8968 80.0542 30.6458 80.1726 30.331C80.2933 30.0137 80.3537 29.661 80.3537 29.2727C80.3537 28.8892 80.2945 28.5436 80.1761 28.2358C80.0601 27.9257 79.8838 27.6806 79.647 27.5007C79.4126 27.3184 79.1179 27.2273 78.7628 27.2273C78.4219 27.2273 78.1354 27.3137 77.9034 27.4865C77.6714 27.657 77.4962 27.8961 77.3778 28.2038C77.2595 28.5092 77.2003 28.8655 77.2003 29.2727ZM81.8046 32L84.0206 29.2301L81.8331 26.5455H82.8274L84.6456 28.875H85.1001V26.5455H85.9382V28.875H86.3785L88.1967 26.5455H89.191L87.0177 29.2301L89.2194 32H88.2109L86.3643 29.6562H85.9382V32H85.1001V29.6562H84.674L82.8132 32H81.8046ZM89.7347 33.5625V31.2188H90.1892C90.3005 31.1027 90.3964 30.9773 90.4768 30.8423C90.5573 30.7074 90.6272 30.5476 90.6864 30.3629C90.7479 30.1759 90.8 29.9486 90.8426 29.6811C90.8852 29.4112 90.9231 29.0857 90.9563 28.7045L91.1409 26.5455H94.6068V31.2188H95.4449V33.5625H94.6068V32H90.5727V33.5625H89.7347ZM91.1409 31.2188H93.7688V27.3267H91.9222L91.7801 28.7045C91.7209 29.2751 91.6475 29.7734 91.5599 30.1996C91.4724 30.6257 91.3327 30.9654 91.1409 31.2188ZM98.0624 32.1278C97.7167 32.1278 97.4031 32.0627 97.1213 31.9325C96.8396 31.8 96.6159 31.6094 96.4502 31.3608C96.2845 31.1098 96.2016 30.8068 96.2016 30.4517C96.2016 30.1392 96.2631 29.8859 96.3863 29.6918C96.5094 29.4953 96.6739 29.3414 96.8799 29.2301C97.0858 29.1188 97.3131 29.036 97.5617 28.9815C97.8126 28.9247 98.0648 28.8797 98.3181 28.8466C98.6495 28.804 98.9182 28.772 99.1242 28.7507C99.3325 28.727 99.484 28.688 99.5787 28.6335C99.6758 28.5791 99.7243 28.4844 99.7243 28.3494V28.321C99.7243 27.9706 99.6284 27.6984 99.4367 27.5043C99.2473 27.3101 98.9596 27.2131 98.5738 27.2131C98.1737 27.2131 97.86 27.3007 97.6327 27.4759C97.4054 27.651 97.2456 27.8381 97.1533 28.0369L96.3578 27.7528C96.4999 27.4214 96.6893 27.1634 96.926 26.9787C97.1651 26.7917 97.4256 26.6615 97.7073 26.5881C97.9914 26.5123 98.2707 26.4744 98.5453 26.4744C98.7205 26.4744 98.9218 26.4957 99.149 26.5384C99.3787 26.5786 99.6 26.6626 99.8131 26.7905C100.029 26.9183 100.207 27.1113 100.349 27.3693C100.491 27.6274 100.562 27.973 100.562 28.4062V32H99.7243V31.2614H99.6817C99.6249 31.3797 99.5302 31.5064 99.3976 31.6413C99.265 31.7763 99.0887 31.8911 98.8685 31.9858C98.6483 32.0805 98.3796 32.1278 98.0624 32.1278ZM98.1902 31.375C98.5217 31.375 98.801 31.3099 99.0283 31.1797C99.2579 31.0495 99.4308 30.8814 99.5468 30.6754C99.6651 30.4695 99.7243 30.2528 99.7243 30.0256V29.2585C99.6888 29.3011 99.6107 29.3402 99.4899 29.3757C99.3716 29.4089 99.2343 29.4384 99.078 29.4645C98.9241 29.4882 98.7738 29.5095 98.627 29.5284C98.4826 29.545 98.3654 29.5592 98.2755 29.571C98.0577 29.5994 97.8541 29.6456 97.6647 29.7095C97.4776 29.7711 97.3261 29.8646 97.2101 29.9901C97.0965 30.1132 97.0397 30.2812 97.0397 30.4943C97.0397 30.7855 97.1474 31.0057 97.3628 31.1548C97.5806 31.3016 97.8564 31.375 98.1902 31.375ZM104.279 32.1136C103.753 32.1136 103.3 31.9976 102.919 31.7656C102.54 31.5312 102.248 31.2045 102.042 30.7855C101.838 30.3641 101.736 29.8741 101.736 29.3153C101.736 28.7566 101.838 28.2642 102.042 27.8381C102.248 27.4096 102.534 27.0758 102.901 26.8366C103.27 26.5952 103.701 26.4744 104.194 26.4744C104.478 26.4744 104.758 26.5218 105.035 26.6165C105.312 26.7112 105.564 26.8651 105.792 27.0781C106.019 27.2888 106.2 27.5682 106.335 27.9162C106.47 28.2642 106.537 28.6927 106.537 29.2017V29.5568H102.333V28.8324H105.685C105.685 28.5246 105.624 28.25 105.501 28.0085C105.38 27.767 105.207 27.5765 104.982 27.4368C104.76 27.2971 104.497 27.2273 104.194 27.2273C103.86 27.2273 103.571 27.3101 103.327 27.4759C103.086 27.6392 102.9 27.8523 102.77 28.1151C102.64 28.3778 102.574 28.6596 102.574 28.9602V29.4432C102.574 29.8551 102.645 30.2043 102.787 30.4908C102.932 30.7749 103.132 30.9915 103.388 31.1406C103.643 31.2874 103.94 31.3608 104.279 31.3608C104.499 31.3608 104.698 31.33 104.876 31.2685C105.055 31.2045 105.211 31.1098 105.341 30.9844C105.471 30.8565 105.572 30.6979 105.643 30.5085L106.452 30.7358C106.367 31.0104 106.224 31.2519 106.023 31.4602C105.821 31.6662 105.573 31.8272 105.277 31.9432C104.981 32.0568 104.648 32.1136 104.279 32.1136ZM107.205 27.3267V26.5455H111.636V27.3267H109.847V32H109.009V27.3267H107.205ZM114.763 32.1136C114.237 32.1136 113.784 31.9976 113.402 31.7656C113.024 31.5312 112.731 31.2045 112.525 30.7855C112.322 30.3641 112.22 29.8741 112.22 29.3153C112.22 28.7566 112.322 28.2642 112.525 27.8381C112.731 27.4096 113.018 27.0758 113.385 26.8366C113.754 26.5952 114.185 26.4744 114.677 26.4744C114.961 26.4744 115.242 26.5218 115.519 26.6165C115.796 26.7112 116.048 26.8651 116.275 27.0781C116.503 27.2888 116.684 27.5682 116.819 27.9162C116.954 28.2642 117.021 28.6927 117.021 29.2017V29.5568H112.817V28.8324H116.169C116.169 28.5246 116.107 28.25 115.984 28.0085C115.863 27.767 115.691 27.5765 115.466 27.4368C115.243 27.2971 114.98 27.2273 114.677 27.2273C114.344 27.2273 114.055 27.3101 113.811 27.4759C113.569 27.6392 113.384 27.8523 113.253 28.1151C113.123 28.3778 113.058 28.6596 113.058 28.9602V29.4432C113.058 29.8551 113.129 30.2043 113.271 30.4908C113.416 30.7749 113.616 30.9915 113.871 31.1406C114.127 31.2874 114.424 31.3608 114.763 31.3608C114.983 31.3608 115.182 31.33 115.359 31.2685C115.539 31.2045 115.694 31.1098 115.824 30.9844C115.955 30.8565 116.055 30.6979 116.126 30.5085L116.936 30.7358C116.851 31.0104 116.707 31.2519 116.506 31.4602C116.305 31.6662 116.056 31.8272 115.76 31.9432C115.465 32.0568 115.132 32.1136 114.763 32.1136ZM119.446 31.0057L119.389 31.3892C119.349 31.6591 119.287 31.9479 119.204 32.2557C119.124 32.5634 119.04 32.8535 118.952 33.1257C118.865 33.398 118.793 33.6146 118.736 33.7756H118.097C118.127 33.6241 118.168 33.424 118.217 33.1754C118.267 32.9268 118.317 32.6487 118.366 32.3409C118.418 32.0355 118.461 31.723 118.494 31.4034L118.537 31.0057H119.446ZM127.816 26.5455V32H126.978V26.5455H127.816ZM127.489 29.1449V29.9261C127.3 29.9972 127.111 30.0599 126.924 30.1143C126.737 30.1664 126.541 30.2079 126.335 30.2386C126.129 30.267 125.903 30.2812 125.657 30.2812C125.039 30.2812 124.543 30.1143 124.169 29.7805C123.797 29.4467 123.611 28.946 123.611 28.2784V26.5312H124.449V28.2784C124.449 28.5578 124.503 28.7874 124.609 28.9673C124.716 29.1473 124.86 29.281 125.042 29.3686C125.225 29.4562 125.429 29.5 125.657 29.5C126.012 29.5 126.333 29.468 126.619 29.4041C126.908 29.3378 127.198 29.2514 127.489 29.1449ZM128.511 27.3267V26.5455H132.943V27.3267H131.153V32H130.315V27.3267H128.511ZM135.998 32.1136C135.506 32.1136 135.074 31.9964 134.702 31.7621C134.333 31.5277 134.044 31.1998 133.836 30.7784C133.63 30.357 133.527 29.8646 133.527 29.3011C133.527 28.733 133.63 28.237 133.836 27.8132C134.044 27.3894 134.333 27.0604 134.702 26.826C135.074 26.5916 135.506 26.4744 135.998 26.4744C136.491 26.4744 136.921 26.5916 137.291 26.826C137.662 27.0604 137.951 27.3894 138.157 27.8132C138.366 28.237 138.47 28.733 138.47 29.3011C138.47 29.8646 138.366 30.357 138.157 30.7784C137.951 31.1998 137.662 31.5277 137.291 31.7621C136.921 31.9964 136.491 32.1136 135.998 32.1136ZM135.998 31.3608C136.372 31.3608 136.68 31.2649 136.921 31.0732C137.163 30.8814 137.342 30.6293 137.458 30.3168C137.574 30.0043 137.632 29.6657 137.632 29.3011C137.632 28.9366 137.574 28.5968 137.458 28.282C137.342 27.9671 137.163 27.7126 136.921 27.5185C136.68 27.3243 136.372 27.2273 135.998 27.2273C135.624 27.2273 135.316 27.3243 135.075 27.5185C134.833 27.7126 134.655 27.9671 134.539 28.282C134.423 28.5968 134.365 28.9366 134.365 29.3011C134.365 29.6657 134.423 30.0043 134.539 30.3168C134.655 30.6293 134.833 30.8814 135.075 31.0732C135.316 31.2649 135.624 31.3608 135.998 31.3608ZM142.362 32V26.5455H144.592C145.179 26.5455 145.645 26.678 145.991 26.9432C146.336 27.2083 146.509 27.5587 146.509 27.9943C146.509 28.3258 146.411 28.5826 146.215 28.7649C146.018 28.9448 145.766 29.0668 145.458 29.1307C145.659 29.1591 145.855 29.2301 146.044 29.3438C146.236 29.4574 146.394 29.6136 146.52 29.8125C146.645 30.009 146.708 30.2505 146.708 30.5369C146.708 30.8163 146.637 31.0661 146.495 31.2862C146.353 31.5064 146.149 31.6804 145.884 31.8082C145.619 31.9361 145.302 32 144.933 32H142.362ZM143.157 31.233H144.933C145.221 31.233 145.448 31.1643 145.611 31.027C145.774 30.8897 145.856 30.7027 145.856 30.4659C145.856 30.1842 145.774 29.9628 145.611 29.8018C145.448 29.6385 145.221 29.5568 144.933 29.5568H143.157V31.233ZM143.157 28.8324H144.592C144.817 28.8324 145.01 28.8016 145.171 28.7401C145.332 28.6761 145.455 28.5862 145.54 28.4702C145.627 28.3518 145.671 28.2121 145.671 28.0511C145.671 27.8215 145.575 27.6416 145.384 27.5114C145.192 27.3788 144.928 27.3125 144.592 27.3125H143.157V28.8324ZM149.482 32.1278C149.136 32.1278 148.823 32.0627 148.541 31.9325C148.259 31.8 148.035 31.6094 147.87 31.3608C147.704 31.1098 147.621 30.8068 147.621 30.4517C147.621 30.1392 147.683 29.8859 147.806 29.6918C147.929 29.4953 148.093 29.3414 148.299 29.2301C148.505 29.1188 148.733 29.036 148.981 28.9815C149.232 28.9247 149.484 28.8797 149.738 28.8466C150.069 28.804 150.338 28.772 150.544 28.7507C150.752 28.727 150.904 28.688 150.998 28.6335C151.095 28.5791 151.144 28.4844 151.144 28.3494V28.321C151.144 27.9706 151.048 27.6984 150.856 27.5043C150.667 27.3101 150.379 27.2131 149.993 27.2131C149.593 27.2131 149.28 27.3007 149.052 27.4759C148.825 27.651 148.665 27.8381 148.573 28.0369L147.777 27.7528C147.919 27.4214 148.109 27.1634 148.346 26.9787C148.585 26.7917 148.845 26.6615 149.127 26.5881C149.411 26.5123 149.69 26.4744 149.965 26.4744C150.14 26.4744 150.341 26.4957 150.569 26.5384C150.798 26.5786 151.02 26.6626 151.233 26.7905C151.448 26.9183 151.627 27.1113 151.769 27.3693C151.911 27.6274 151.982 27.973 151.982 28.4062V32H151.144V31.2614H151.101C151.044 31.3797 150.95 31.5064 150.817 31.6413C150.685 31.7763 150.508 31.8911 150.288 31.9858C150.068 32.0805 149.799 32.1278 149.482 32.1278ZM149.61 31.375C149.941 31.375 150.221 31.3099 150.448 31.1797C150.677 31.0495 150.85 30.8814 150.966 30.6754C151.085 30.4695 151.144 30.2528 151.144 30.0256V29.2585C151.108 29.3011 151.03 29.3402 150.909 29.3757C150.791 29.4089 150.654 29.4384 150.498 29.4645C150.344 29.4882 150.193 29.5095 150.047 29.5284C149.902 29.545 149.785 29.5592 149.695 29.571C149.477 29.5994 149.274 29.6456 149.084 29.7095C148.897 29.7711 148.746 29.8646 148.63 29.9901C148.516 30.1132 148.459 30.2812 148.459 30.4943C148.459 30.7855 148.567 31.0057 148.782 31.1548C149 31.3016 149.276 31.375 149.61 31.375ZM156.395 30.8636L158.298 26.5455H159.093L156.735 32H156.054L153.738 26.5455H154.52L156.395 30.8636ZM154.25 26.5455V32H153.412V26.5455H154.25ZM158.539 32V26.5455H159.377V32H158.539ZM166.067 24.7273V32H165.186V25.6506H165.143L163.368 26.8295V25.9347L165.186 24.7273H166.067ZM170.388 32.0994C169.9 32.0994 169.469 32.013 169.095 31.8402C168.724 31.665 168.434 31.4247 168.225 31.1193C168.017 30.8116 167.914 30.4612 167.916 30.0682C167.914 29.7604 167.974 29.4763 168.097 29.2159C168.22 28.9531 168.389 28.7341 168.602 28.5589C168.817 28.3814 169.057 28.2689 169.323 28.2216V28.179C168.974 28.089 168.698 27.8937 168.492 27.593C168.286 27.29 168.184 26.9455 168.186 26.5597C168.184 26.1903 168.277 25.8601 168.467 25.5689C168.656 25.2777 168.916 25.0481 169.248 24.88C169.582 24.7119 169.962 24.6278 170.388 24.6278C170.809 24.6278 171.186 24.7119 171.517 24.88C171.849 25.0481 172.109 25.2777 172.298 25.5689C172.49 25.8601 172.587 26.1903 172.59 26.5597C172.587 26.9455 172.482 27.29 172.274 27.593C172.068 27.8937 171.794 28.089 171.453 28.179V28.2216C171.716 28.2689 171.953 28.3814 172.163 28.5589C172.374 28.7341 172.542 28.9531 172.668 29.2159C172.793 29.4763 172.857 29.7604 172.859 30.0682C172.857 30.4612 172.751 30.8116 172.54 31.1193C172.332 31.4247 172.041 31.665 171.67 31.8402C171.3 32.013 170.873 32.0994 170.388 32.0994ZM170.388 31.3182C170.717 31.3182 171.001 31.2649 171.24 31.1584C171.479 31.0518 171.664 30.9015 171.794 30.7074C171.924 30.5133 171.991 30.286 171.993 30.0256C171.991 29.7509 171.92 29.5083 171.78 29.2976C171.64 29.0869 171.45 28.9212 171.208 28.8004C170.969 28.6797 170.696 28.6193 170.388 28.6193C170.078 28.6193 169.801 28.6797 169.557 28.8004C169.315 28.9212 169.125 29.0869 168.985 29.2976C168.848 29.5083 168.78 29.7509 168.783 30.0256C168.78 30.286 168.843 30.5133 168.971 30.7074C169.101 30.9015 169.287 31.0518 169.528 31.1584C169.77 31.2649 170.056 31.3182 170.388 31.3182ZM170.388 27.8665C170.648 27.8665 170.879 27.8144 171.08 27.7102C171.284 27.6061 171.444 27.4605 171.56 27.2734C171.676 27.0864 171.735 26.8674 171.737 26.6165C171.735 26.3703 171.677 26.156 171.563 25.9737C171.45 25.7891 171.292 25.647 171.091 25.5476C170.89 25.4458 170.655 25.3949 170.388 25.3949C170.116 25.3949 169.878 25.4458 169.674 25.5476C169.47 25.647 169.313 25.7891 169.202 25.9737C169.091 26.156 169.036 26.3703 169.038 26.6165C169.036 26.8674 169.092 27.0864 169.205 27.2734C169.321 27.4605 169.481 27.6061 169.685 27.7102C169.888 27.8144 170.123 27.8665 170.388 27.8665ZM176.364 32V31.2188H176.563C176.726 31.2188 176.863 31.1868 176.971 31.1229C177.08 31.0566 177.168 30.9418 177.234 30.7784C177.303 30.6127 177.355 30.383 177.39 30.0895C177.428 29.7936 177.456 29.4171 177.472 28.9602L177.572 26.5455H181.208V32H180.37V27.3267H178.367L178.282 29.2727C178.263 29.7202 178.223 30.1143 178.161 30.4553C178.102 30.7938 178.011 31.0779 177.888 31.3075C177.767 31.5372 177.606 31.71 177.405 31.826C177.203 31.942 176.951 32 176.648 32H176.364ZM184.932 32.1136C184.407 32.1136 183.954 31.9976 183.572 31.7656C183.194 31.5312 182.901 31.2045 182.695 30.7855C182.492 30.3641 182.39 29.8741 182.39 29.3153C182.39 28.7566 182.492 28.2642 182.695 27.8381C182.901 27.4096 183.188 27.0758 183.555 26.8366C183.924 26.5952 184.355 26.4744 184.847 26.4744C185.131 26.4744 185.412 26.5218 185.689 26.6165C185.966 26.7112 186.218 26.8651 186.445 27.0781C186.673 27.2888 186.854 27.5682 186.989 27.9162C187.124 28.2642 187.191 28.6927 187.191 29.2017V29.5568H182.986V28.8324H186.339C186.339 28.5246 186.277 28.25 186.154 28.0085C186.033 27.767 185.861 27.5765 185.636 27.4368C185.413 27.2971 185.15 27.2273 184.847 27.2273C184.513 27.2273 184.225 27.3101 183.981 27.4759C183.739 27.6392 183.553 27.8523 183.423 28.1151C183.293 28.3778 183.228 28.6596 183.228 28.9602V29.4432C183.228 29.8551 183.299 30.2043 183.441 30.4908C183.585 30.7749 183.785 30.9915 184.041 31.1406C184.297 31.2874 184.594 31.3608 184.932 31.3608C185.153 31.3608 185.352 31.33 185.529 31.2685C185.709 31.2045 185.864 31.1098 185.994 30.9844C186.124 30.8565 186.225 30.6979 186.296 30.5085L187.106 30.7358C187.021 31.0104 186.877 31.2519 186.676 31.4602C186.475 31.6662 186.226 31.8272 185.93 31.9432C185.634 32.0568 185.302 32.1136 184.932 32.1136ZM187.858 27.3267V26.5455H192.29V27.3267H190.5V32H189.662V27.3267H187.858ZM196.963 30.7642L199.591 26.5455H200.557V32H199.719V27.7812L197.105 32H196.125V26.5455H196.963V30.7642ZM208.752 24.5L209.179 25.0114C209.013 25.1723 208.821 25.2848 208.603 25.3487C208.385 25.4126 208.139 25.4517 207.865 25.4659C207.59 25.4801 207.285 25.4943 206.948 25.5085C206.57 25.5227 206.256 25.6151 206.007 25.7855C205.759 25.956 205.567 26.2022 205.432 26.5241C205.297 26.8461 205.211 27.2415 205.173 27.7102H205.244C205.429 27.3693 205.684 27.1184 206.011 26.9574C206.338 26.7964 206.688 26.7159 207.062 26.7159C207.488 26.7159 207.872 26.8153 208.213 27.0142C208.554 27.2131 208.823 27.5078 209.022 27.8984C209.221 28.2891 209.321 28.7708 209.321 29.3438C209.321 29.9143 209.219 30.4067 209.015 30.821C208.814 31.2353 208.531 31.5549 208.167 31.7798C207.804 32.0024 207.379 32.1136 206.892 32.1136C206.404 32.1136 205.977 31.9988 205.61 31.7692C205.243 31.5372 204.957 31.1939 204.754 30.7393C204.55 30.2824 204.448 29.7178 204.448 29.0455V28.4631C204.448 27.2486 204.654 26.3277 205.066 25.7003C205.481 25.0729 206.103 24.7486 206.934 24.7273C207.228 24.7178 207.489 24.7154 207.719 24.7202C207.949 24.7249 208.149 24.7143 208.319 24.6882C208.49 24.6622 208.634 24.5994 208.752 24.5ZM206.892 31.3608C207.221 31.3608 207.504 31.2779 207.74 31.1122C207.979 30.9465 208.163 30.7133 208.291 30.4126C208.419 30.1096 208.483 29.7533 208.483 29.3438C208.483 28.946 208.417 28.6075 208.287 28.3281C208.159 28.0488 207.976 27.8357 207.737 27.6889C207.498 27.5421 207.211 27.4688 206.877 27.4688C206.634 27.4688 206.415 27.5102 206.22 27.593C206.026 27.6759 205.861 27.7978 205.723 27.9588C205.586 28.1198 205.479 28.3163 205.404 28.5483C205.33 28.7803 205.291 29.0455 205.287 29.3438C205.287 29.9545 205.43 30.4434 205.716 30.8104C206.003 31.1773 206.394 31.3608 206.892 31.3608ZM212.718 32.1136C212.226 32.1136 211.794 31.9964 211.422 31.7621C211.053 31.5277 210.764 31.1998 210.556 30.7784C210.35 30.357 210.247 29.8646 210.247 29.3011C210.247 28.733 210.35 28.237 210.556 27.8132C210.764 27.3894 211.053 27.0604 211.422 26.826C211.794 26.5916 212.226 26.4744 212.718 26.4744C213.211 26.4744 213.642 26.5916 214.011 26.826C214.383 27.0604 214.672 27.3894 214.878 27.8132C215.086 28.237 215.19 28.733 215.19 29.3011C215.19 29.8646 215.086 30.357 214.878 30.7784C214.672 31.1998 214.383 31.5277 214.011 31.7621C213.642 31.9964 213.211 32.1136 212.718 32.1136ZM212.718 31.3608C213.093 31.3608 213.4 31.2649 213.642 31.0732C213.883 30.8814 214.062 30.6293 214.178 30.3168C214.294 30.0043 214.352 29.6657 214.352 29.3011C214.352 28.9366 214.294 28.5968 214.178 28.282C214.062 27.9671 213.883 27.7126 213.642 27.5185C213.4 27.3243 213.093 27.2273 212.718 27.2273C212.344 27.2273 212.037 27.3243 211.795 27.5185C211.554 27.7126 211.375 27.9671 211.259 28.282C211.143 28.5968 211.085 28.9366 211.085 29.3011C211.085 29.6657 211.143 30.0043 211.259 30.3168C211.375 30.6293 211.554 30.8814 211.795 31.0732C212.037 31.2649 212.344 31.3608 212.718 31.3608ZM215.886 32V31.2188H216.085C216.249 31.2188 216.385 31.1868 216.494 31.1229C216.603 31.0566 216.69 30.9418 216.756 30.7784C216.825 30.6127 216.877 30.383 216.913 30.0895C216.951 29.7936 216.978 29.4171 216.994 28.9602L217.094 26.5455H220.73V32H219.892V27.3267H217.889L217.804 29.2727C217.785 29.7202 217.745 30.1143 217.683 30.4553C217.624 30.7938 217.533 31.0779 217.41 31.3075C217.289 31.5372 217.128 31.71 216.927 31.826C216.726 31.942 216.474 32 216.171 32H215.886ZM224.455 32.1136C223.929 32.1136 223.476 31.9976 223.095 31.7656C222.716 31.5312 222.424 31.2045 222.218 30.7855C222.014 30.3641 221.912 29.8741 221.912 29.3153C221.912 28.7566 222.014 28.2642 222.218 27.8381C222.424 27.4096 222.71 27.0758 223.077 26.8366C223.446 26.5952 223.877 26.4744 224.37 26.4744C224.654 26.4744 224.934 26.5218 225.211 26.6165C225.488 26.7112 225.74 26.8651 225.968 27.0781C226.195 27.2888 226.376 27.5682 226.511 27.9162C226.646 28.2642 226.713 28.6927 226.713 29.2017V29.5568H222.509V28.8324H225.861C225.861 28.5246 225.799 28.25 225.676 28.0085C225.556 27.767 225.383 27.5765 225.158 27.4368C224.935 27.2971 224.673 27.2273 224.37 27.2273C224.036 27.2273 223.747 27.3101 223.503 27.4759C223.262 27.6392 223.076 27.8523 222.946 28.1151C222.815 28.3778 222.75 28.6596 222.75 28.9602V29.4432C222.75 29.8551 222.821 30.2043 222.963 30.4908C223.108 30.7749 223.308 30.9915 223.563 31.1406C223.819 31.2874 224.116 31.3608 224.455 31.3608C224.675 31.3608 224.874 31.33 225.051 31.2685C225.231 31.2045 225.386 31.1098 225.517 30.9844C225.647 30.8565 225.747 30.6979 225.818 30.5085L226.628 30.7358C226.543 31.0104 226.4 31.2519 226.198 31.4602C225.997 31.6662 225.749 31.8272 225.453 31.9432C225.157 32.0568 224.824 32.1136 224.455 32.1136ZM230.175 32.1136C229.65 32.1136 229.196 31.9976 228.815 31.7656C228.436 31.5312 228.144 31.2045 227.938 30.7855C227.734 30.3641 227.632 29.8741 227.632 29.3153C227.632 28.7566 227.734 28.2642 227.938 27.8381C228.144 27.4096 228.43 27.0758 228.797 26.8366C229.167 26.5952 229.597 26.4744 230.09 26.4744C230.374 26.4744 230.654 26.5218 230.931 26.6165C231.208 26.7112 231.461 26.8651 231.688 27.0781C231.915 27.2888 232.096 27.5682 232.231 27.9162C232.366 28.2642 232.434 28.6927 232.434 29.2017V29.5568H228.229V28.8324H231.581C231.581 28.5246 231.52 28.25 231.397 28.0085C231.276 27.767 231.103 27.5765 230.878 27.4368C230.656 27.2971 230.393 27.2273 230.09 27.2273C229.756 27.2273 229.467 27.3101 229.223 27.4759C228.982 27.6392 228.796 27.8523 228.666 28.1151C228.536 28.3778 228.471 28.6596 228.471 28.9602V29.4432C228.471 29.8551 228.542 30.2043 228.684 30.4908C228.828 30.7749 229.028 30.9915 229.284 31.1406C229.539 31.2874 229.837 31.3608 230.175 31.3608C230.395 31.3608 230.594 31.33 230.772 31.2685C230.952 31.2045 231.107 31.1098 231.237 30.9844C231.367 30.8565 231.468 30.6979 231.539 30.5085L232.348 30.7358C232.263 31.0104 232.12 31.2519 231.919 31.4602C231.717 31.6662 231.469 31.8272 231.173 31.9432C230.877 32.0568 230.544 32.1136 230.175 32.1136ZM234.219 32.0568C234.044 32.0568 233.894 31.9941 233.768 31.8686C233.643 31.7431 233.58 31.5928 233.58 31.4176C233.58 31.2424 233.643 31.0921 233.768 30.9666C233.894 30.8411 234.044 30.7784 234.219 30.7784C234.394 30.7784 234.545 30.8411 234.67 30.9666C234.796 31.0921 234.858 31.2424 234.858 31.4176C234.858 31.5336 234.829 31.6402 234.77 31.7372C234.713 31.8343 234.636 31.9124 234.539 31.9716C234.444 32.0284 234.338 32.0568 234.219 32.0568Z" fill="#666666"/>
<path d="M188.332 8V2.54545H192.621V8H191.783V3.3267H189.17V8H188.332ZM196.268 8.11364C195.775 8.11364 195.343 7.99645 194.972 7.76207C194.602 7.5277 194.314 7.19981 194.105 6.77841C193.899 6.35701 193.796 5.86458 193.796 5.30114C193.796 4.73295 193.899 4.23698 194.105 3.81321C194.314 3.38944 194.602 3.06037 194.972 2.82599C195.343 2.59162 195.775 2.47443 196.268 2.47443C196.76 2.47443 197.191 2.59162 197.561 2.82599C197.932 3.06037 198.221 3.38944 198.427 3.81321C198.635 4.23698 198.74 4.73295 198.74 5.30114C198.74 5.86458 198.635 6.35701 198.427 6.77841C198.221 7.19981 197.932 7.5277 197.561 7.76207C197.191 7.99645 196.76 8.11364 196.268 8.11364ZM196.268 7.3608C196.642 7.3608 196.95 7.26491 197.191 7.07315C197.433 6.88139 197.611 6.62926 197.727 6.31676C197.843 6.00426 197.901 5.66572 197.901 5.30114C197.901 4.93655 197.843 4.59683 197.727 4.28196C197.611 3.96709 197.433 3.71259 197.191 3.51847C196.95 3.32434 196.642 3.22727 196.268 3.22727C195.894 3.22727 195.586 3.32434 195.345 3.51847C195.103 3.71259 194.924 3.96709 194.808 4.28196C194.692 4.59683 194.634 4.93655 194.634 5.30114C194.634 5.66572 194.692 6.00426 194.808 6.31676C194.924 6.62926 195.103 6.88139 195.345 7.07315C195.586 7.26491 195.894 7.3608 196.268 7.3608ZM199.436 8V7.21875H199.635C199.798 7.21875 199.934 7.18679 200.043 7.12287C200.152 7.05658 200.24 6.94176 200.306 6.77841C200.375 6.61269 200.427 6.38305 200.462 6.08949C200.5 5.79356 200.527 5.41714 200.544 4.96023L200.643 2.54545H204.28V8H203.442V3.3267H201.439L201.353 5.27273C201.335 5.72017 201.294 6.11435 201.233 6.45526C201.174 6.7938 201.082 7.07789 200.959 7.30753C200.839 7.53717 200.678 7.70999 200.476 7.82599C200.275 7.942 200.023 8 199.72 8H199.436ZM206.442 4.51989H208.004C208.643 4.51989 209.132 4.68205 209.471 5.00639C209.809 5.33073 209.979 5.74148 209.979 6.23864C209.979 6.56534 209.903 6.86245 209.751 7.12997C209.6 7.39512 209.377 7.60701 209.084 7.76562C208.79 7.92188 208.43 8 208.004 8H205.717V2.54545H206.555V7.21875H208.004C208.336 7.21875 208.608 7.13116 208.821 6.95597C209.034 6.78078 209.141 6.55587 209.141 6.28125C209.141 5.99242 209.034 5.75687 208.821 5.57457C208.608 5.39228 208.336 5.30114 208.004 5.30114H206.442V4.51989ZM210.813 6.60795H211.708C211.727 6.85417 211.839 7.04119 212.042 7.16903C212.248 7.29688 212.516 7.3608 212.845 7.3608C213.181 7.3608 213.469 7.29214 213.708 7.15483C213.947 7.01515 214.066 6.79025 214.066 6.48011C214.066 6.29782 214.021 6.1392 213.931 6.00426C213.841 5.86695 213.715 5.76042 213.551 5.68466C213.388 5.6089 213.195 5.57102 212.973 5.57102H212.035V4.81818H212.973C213.306 4.81818 213.553 4.74242 213.711 4.59091C213.872 4.43939 213.953 4.25 213.953 4.02273C213.953 3.77888 213.866 3.58357 213.693 3.43679C213.521 3.28764 213.276 3.21307 212.958 3.21307C212.639 3.21307 212.372 3.28527 212.159 3.42969C211.946 3.57173 211.834 3.75521 211.822 3.98011H210.941C210.951 3.68655 211.041 3.42732 211.211 3.20241C211.382 2.97514 211.614 2.79759 211.907 2.66974C212.201 2.53954 212.537 2.47443 212.916 2.47443C213.299 2.47443 213.632 2.5419 213.914 2.67685C214.198 2.80942 214.417 2.99053 214.571 3.22017C214.727 3.44744 214.805 3.70549 214.805 3.99432C214.805 4.30208 214.719 4.55066 214.546 4.74006C214.373 4.92945 214.156 5.06439 213.896 5.14489V5.2017C214.102 5.21591 214.281 5.2822 214.432 5.40057C214.586 5.51657 214.705 5.66927 214.791 5.85866C214.876 6.04569 214.919 6.25284 214.919 6.48011C214.919 6.81155 214.83 7.10038 214.652 7.34659C214.475 7.59044 214.231 7.77983 213.921 7.91477C213.611 8.04735 213.257 8.11364 212.859 8.11364C212.473 8.11364 212.127 8.0509 211.822 7.92543C211.517 7.79759 211.274 7.62121 211.094 7.39631C210.916 7.16903 210.823 6.90625 210.813 6.60795ZM218.212 8.11364C217.719 8.11364 217.287 7.99645 216.916 7.76207C216.546 7.5277 216.257 7.19981 216.049 6.77841C215.843 6.35701 215.74 5.86458 215.74 5.30114C215.74 4.73295 215.843 4.23698 216.049 3.81321C216.257 3.38944 216.546 3.06037 216.916 2.82599C217.287 2.59162 217.719 2.47443 218.212 2.47443C218.704 2.47443 219.135 2.59162 219.504 2.82599C219.876 3.06037 220.165 3.38944 220.371 3.81321C220.579 4.23698 220.683 4.73295 220.683 5.30114C220.683 5.86458 220.579 6.35701 220.371 6.77841C220.165 7.19981 219.876 7.5277 219.504 7.76207C219.135 7.99645 218.704 8.11364 218.212 8.11364ZM218.212 7.3608C218.586 7.3608 218.893 7.26491 219.135 7.07315C219.376 6.88139 219.555 6.62926 219.671 6.31676C219.787 6.00426 219.845 5.66572 219.845 5.30114C219.845 4.93655 219.787 4.59683 219.671 4.28196C219.555 3.96709 219.376 3.71259 219.135 3.51847C218.893 3.32434 218.586 3.22727 218.212 3.22727C217.838 3.22727 217.53 3.32434 217.288 3.51847C217.047 3.71259 216.868 3.96709 216.752 4.28196C216.636 4.59683 216.578 4.93655 216.578 5.30114C216.578 5.66572 216.636 6.00426 216.752 6.31676C216.868 6.62926 217.047 6.88139 217.288 7.07315C217.53 7.26491 217.838 7.3608 218.212 7.3608ZM221.863 8V2.54545H224.093C224.68 2.54545 225.146 2.67803 225.492 2.94318C225.837 3.20833 226.01 3.55871 226.01 3.99432C226.01 4.32576 225.912 4.58262 225.716 4.76491C225.519 4.94484 225.267 5.06676 224.959 5.13068C225.16 5.15909 225.356 5.23011 225.545 5.34375C225.737 5.45739 225.895 5.61364 226.021 5.8125C226.146 6.009 226.209 6.25047 226.209 6.53693C226.209 6.81629 226.138 7.06605 225.996 7.28622C225.854 7.50639 225.65 7.6804 225.385 7.80824C225.12 7.93608 224.803 8 224.434 8H221.863ZM222.658 7.23295H224.434C224.722 7.23295 224.948 7.1643 225.112 7.02699C225.275 6.88968 225.357 6.70265 225.357 6.46591C225.357 6.18419 225.275 5.96283 225.112 5.80185C224.948 5.63849 224.722 5.55682 224.434 5.55682H222.658V7.23295ZM222.658 4.83239H224.093C224.318 4.83239 224.511 4.80161 224.671 4.74006C224.832 4.67614 224.956 4.58617 225.041 4.47017C225.128 4.3518 225.172 4.21212 225.172 4.05114C225.172 3.8215 225.076 3.64157 224.885 3.51136C224.693 3.37879 224.429 3.3125 224.093 3.3125H222.658V4.83239ZM228.983 8.12784C228.637 8.12784 228.324 8.06274 228.042 7.93253C227.76 7.79995 227.536 7.60938 227.371 7.3608C227.205 7.10985 227.122 6.80682 227.122 6.4517C227.122 6.1392 227.184 5.88589 227.307 5.69176C227.43 5.49527 227.594 5.34138 227.8 5.23011C228.006 5.11884 228.234 5.03598 228.482 4.98153C228.733 4.92472 228.985 4.87973 229.239 4.84659C229.57 4.80398 229.839 4.77202 230.045 4.75071C230.253 4.72704 230.405 4.68797 230.499 4.63352C230.596 4.57907 230.645 4.48437 230.645 4.34943V4.32102C230.645 3.97064 230.549 3.69839 230.357 3.50426C230.168 3.31013 229.88 3.21307 229.494 3.21307C229.094 3.21307 228.78 3.30066 228.553 3.47585C228.326 3.65104 228.166 3.83807 228.074 4.03693L227.278 3.75284C227.42 3.4214 227.61 3.16335 227.847 2.97869C228.086 2.79167 228.346 2.66146 228.628 2.58807C228.912 2.51231 229.191 2.47443 229.466 2.47443C229.641 2.47443 229.842 2.49574 230.07 2.53835C230.299 2.5786 230.521 2.66264 230.734 2.79048C230.949 2.91832 231.128 3.11127 231.27 3.36932C231.412 3.62737 231.483 3.97301 231.483 4.40625V8H230.645V7.26136H230.602C230.545 7.37973 230.451 7.50639 230.318 7.64134C230.186 7.77628 230.009 7.8911 229.789 7.9858C229.569 8.08049 229.3 8.12784 228.983 8.12784ZM229.111 7.375C229.442 7.375 229.722 7.3099 229.949 7.17969C230.178 7.04948 230.351 6.88139 230.467 6.67543C230.586 6.46946 230.645 6.25284 230.645 6.02557V5.25852C230.609 5.30114 230.531 5.3402 230.41 5.37571C230.292 5.40885 230.155 5.43845 229.999 5.46449C229.845 5.48816 229.694 5.50947 229.548 5.52841C229.403 5.54498 229.286 5.55919 229.196 5.57102C228.978 5.59943 228.775 5.6456 228.585 5.70952C228.398 5.77107 228.247 5.86458 228.131 5.99006C228.017 6.11316 227.96 6.28125 227.96 6.49432C227.96 6.78551 228.068 7.00568 228.283 7.15483C228.501 7.30161 228.777 7.375 229.111 7.375ZM232.17 3.3267V2.54545H236.602V3.3267H234.812V8H233.974V3.3267H232.17ZM239.728 8.11364C239.203 8.11364 238.749 7.99763 238.368 7.76562C237.99 7.53125 237.697 7.20455 237.491 6.78551C237.288 6.36411 237.186 5.87405 237.186 5.31534C237.186 4.75663 237.288 4.2642 237.491 3.83807C237.697 3.40956 237.984 3.07576 238.351 2.83665C238.72 2.59517 239.151 2.47443 239.643 2.47443C239.927 2.47443 240.208 2.52178 240.485 2.61648C240.762 2.71117 241.014 2.86506 241.241 3.07812C241.468 3.28883 241.65 3.56818 241.785 3.91619C241.919 4.2642 241.987 4.69271 241.987 5.2017V5.55682H237.782V4.83239H241.135C241.135 4.52462 241.073 4.25 240.95 4.00852C240.829 3.76705 240.656 3.57647 240.432 3.43679C240.209 3.29711 239.946 3.22727 239.643 3.22727C239.309 3.22727 239.021 3.31013 238.777 3.47585C238.535 3.6392 238.349 3.85227 238.219 4.11506C238.089 4.37784 238.024 4.65956 238.024 4.96023V5.44318C238.024 5.85511 238.095 6.20431 238.237 6.49077C238.381 6.77486 238.581 6.99148 238.837 7.14062C239.093 7.28741 239.39 7.3608 239.728 7.3608C239.949 7.3608 240.147 7.33002 240.325 7.26847C240.505 7.20455 240.66 7.10985 240.79 6.98438C240.92 6.85653 241.021 6.69792 241.092 6.50852L241.902 6.7358C241.816 7.01042 241.673 7.25189 241.472 7.46023C241.271 7.66619 241.022 7.82718 240.726 7.94318C240.43 8.05682 240.098 8.11364 239.728 8.11364ZM242.679 8V7.21875H242.878C243.041 7.21875 243.177 7.18679 243.286 7.12287C243.395 7.05658 243.483 6.94176 243.549 6.77841C243.618 6.61269 243.67 6.38305 243.705 6.08949C243.743 5.79356 243.77 5.41714 243.787 4.96023L243.886 2.54545H247.523V8H246.685V3.3267H244.682L244.596 5.27273C244.577 5.72017 244.537 6.11435 244.476 6.45526C244.417 6.7938 244.325 7.07789 244.202 7.30753C244.082 7.53717 243.921 7.70999 243.719 7.82599C243.518 7.942 243.266 8 242.963 8H242.679ZM249.685 4.51989H251.247C251.886 4.51989 252.375 4.68205 252.714 5.00639C253.052 5.33073 253.222 5.74148 253.222 6.23864C253.222 6.56534 253.146 6.86245 252.994 7.12997C252.843 7.39512 252.62 7.60701 252.327 7.76562C252.033 7.92188 251.673 8 251.247 8H248.96V2.54545H249.798V7.21875H251.247C251.579 7.21875 251.851 7.13116 252.064 6.95597C252.277 6.78078 252.384 6.55587 252.384 6.28125C252.384 5.99242 252.277 5.75687 252.064 5.57457C251.851 5.39228 251.579 5.30114 251.247 5.30114H249.685V4.51989ZM256.613 8.11364C256.102 8.11364 255.662 7.9929 255.292 7.75142C254.923 7.50994 254.639 7.17732 254.44 6.75355C254.241 6.32978 254.142 5.84564 254.142 5.30114C254.142 4.74716 254.243 4.25829 254.447 3.83452C254.653 3.40838 254.939 3.07576 255.306 2.83665C255.676 2.59517 256.107 2.47443 256.599 2.47443C256.983 2.47443 257.328 2.54545 257.636 2.6875C257.944 2.82955 258.196 3.02841 258.392 3.28409C258.589 3.53977 258.711 3.83807 258.758 4.17898H257.92C257.856 3.9304 257.714 3.71023 257.494 3.51847C257.276 3.32434 256.983 3.22727 256.613 3.22727C256.287 3.22727 256 3.3125 255.754 3.48295C255.51 3.65104 255.319 3.88897 255.182 4.19673C255.047 4.50213 254.98 4.8608 254.98 5.27273C254.98 5.69413 255.046 6.06108 255.179 6.37358C255.314 6.68608 255.503 6.92874 255.747 7.10156C255.993 7.27438 256.282 7.3608 256.613 7.3608C256.831 7.3608 257.029 7.32292 257.206 7.24716C257.384 7.1714 257.534 7.0625 257.657 6.92045C257.78 6.77841 257.868 6.60795 257.92 6.40909H258.758C258.711 6.73106 258.594 7.02107 258.407 7.27912C258.222 7.5348 257.977 7.7384 257.671 7.88991C257.368 8.03906 257.016 8.11364 256.613 8.11364ZM259.883 8V2.54545H260.721V4.91761H261.275L263.236 2.54545H264.315L262.113 5.1733L264.343 8H263.264L261.474 5.69886H260.721V8H259.883ZM265.992 6.7642L268.62 2.54545H269.586V8H268.748V3.78125L266.134 8H265.154V2.54545H265.992V6.7642ZM274.004 6.86364L275.907 2.54545H276.703L274.345 8H273.663L271.348 2.54545H272.129L274.004 6.86364ZM271.859 2.54545V8H271.021V2.54545H271.859ZM276.149 8V2.54545H276.987V8H276.149ZM3.10522 20.1136C2.59386 20.1136 2.15352 19.9929 1.7842 19.7514C1.41488 19.5099 1.13079 19.1773 0.931928 18.7536C0.733064 18.3298 0.633632 17.8456 0.633632 17.3011C0.633632 16.7472 0.735432 16.2583 0.93903 15.8345C1.145 15.4084 1.43145 15.0758 1.79841 14.8366C2.16772 14.5952 2.59859 14.4744 3.09102 14.4744C3.47454 14.4744 3.82019 14.5455 4.12795 14.6875C4.43572 14.8295 4.68785 15.0284 4.88434 15.2841C5.08084 15.5398 5.20276 15.8381 5.25011 16.179H4.41204C4.34812 15.9304 4.20608 15.7102 3.98591 15.5185C3.7681 15.3243 3.47454 15.2273 3.10522 15.2273C2.77852 15.2273 2.49206 15.3125 2.24585 15.483C2.002 15.651 1.81143 15.889 1.67412 16.1967C1.53917 16.5021 1.4717 16.8608 1.4717 17.2727C1.4717 17.6941 1.53799 18.0611 1.67056 18.3736C1.80551 18.6861 1.9949 18.9287 2.23875 19.1016C2.48496 19.2744 2.77378 19.3608 3.10522 19.3608C3.32303 19.3608 3.52071 19.3229 3.69826 19.2472C3.87582 19.1714 4.02615 19.0625 4.14926 18.9205C4.27236 18.7784 4.35996 18.608 4.41204 18.4091H5.25011C5.20276 18.7311 5.08557 19.0211 4.89855 19.2791C4.71389 19.5348 4.46886 19.7384 4.16346 19.8899C3.86043 20.0391 3.50769 20.1136 3.10522 20.1136ZM8.59116 20.1136C8.09874 20.1136 7.66668 19.9964 7.295 19.7621C6.92568 19.5277 6.63685 19.1998 6.42852 18.7784C6.22255 18.357 6.11957 17.8646 6.11957 17.3011C6.11957 16.733 6.22255 16.237 6.42852 15.8132C6.63685 15.3894 6.92568 15.0604 7.295 14.826C7.66668 14.5916 8.09874 14.4744 8.59116 14.4744C9.08358 14.4744 9.51446 14.5916 9.88377 14.826C10.2555 15.0604 10.5443 15.3894 10.7503 15.8132C10.9586 16.237 11.0628 16.733 11.0628 17.3011C11.0628 17.8646 10.9586 18.357 10.7503 18.7784C10.5443 19.1998 10.2555 19.5277 9.88377 19.7621C9.51446 19.9964 9.08358 20.1136 8.59116 20.1136ZM8.59116 19.3608C8.96521 19.3608 9.27298 19.2649 9.51446 19.0732C9.75593 18.8814 9.93467 18.6293 10.0507 18.3168C10.1667 18.0043 10.2247 17.6657 10.2247 17.3011C10.2247 16.9366 10.1667 16.5968 10.0507 16.282C9.93467 15.9671 9.75593 15.7126 9.51446 15.5185C9.27298 15.3243 8.96521 15.2273 8.59116 15.2273C8.21711 15.2273 7.90934 15.3243 7.66787 15.5185C7.42639 15.7126 7.24765 15.9671 7.13164 16.282C7.01564 16.5968 6.95764 16.9366 6.95764 17.3011C6.95764 17.6657 7.01564 18.0043 7.13164 18.3168C7.24765 18.6293 7.42639 18.8814 7.66787 19.0732C7.90934 19.2649 8.21711 19.3608 8.59116 19.3608ZM15.6085 14.5455V15.3267H13.0801V20H12.242V14.5455H15.6085ZM15.79 20V19.2188H15.9888C16.1522 19.2188 16.2883 19.1868 16.3972 19.1229C16.5061 19.0566 16.5937 18.9418 16.66 18.7784C16.7286 18.6127 16.7807 18.383 16.8162 18.0895C16.8541 17.7936 16.8813 17.4171 16.8979 16.9602L16.9973 14.5455H20.6337V20H19.7956V15.3267H17.7928L17.7076 17.2727C17.6886 17.7202 17.6484 18.1143 17.5868 18.4553C17.5276 18.7938 17.4365 19.0779 17.3134 19.3075C17.1927 19.5372 17.0317 19.71 16.8304 19.826C16.6292 19.942 16.3771 20 16.074 20H15.79ZM23.6765 20.1278C23.3308 20.1278 23.0171 20.0627 22.7354 19.9325C22.4537 19.8 22.23 19.6094 22.0642 19.3608C21.8985 19.1098 21.8157 18.8068 21.8157 18.4517C21.8157 18.1392 21.8772 17.8859 22.0003 17.6918C22.1234 17.4953 22.288 17.3414 22.4939 17.2301C22.6999 17.1188 22.9272 17.036 23.1757 16.9815C23.4267 16.9247 23.6788 16.8797 23.9321 16.8466C24.2636 16.804 24.5323 16.772 24.7382 16.7507C24.9466 16.727 25.0981 16.688 25.1928 16.6335C25.2899 16.5791 25.3384 16.4844 25.3384 16.3494V16.321C25.3384 15.9706 25.2425 15.6984 25.0507 15.5043C24.8614 15.3101 24.5737 15.2131 24.1878 15.2131C23.7877 15.2131 23.474 15.3007 23.2468 15.4759C23.0195 15.651 22.8597 15.8381 22.7674 16.0369L21.9719 15.7528C22.114 15.4214 22.3034 15.1634 22.5401 14.9787C22.7792 14.7917 23.0396 14.6615 23.3213 14.5881C23.6054 14.5123 23.8848 14.4744 24.1594 14.4744C24.3346 14.4744 24.5358 14.4957 24.7631 14.5384C24.9927 14.5786 25.2141 14.6626 25.4272 14.7905C25.6426 14.9183 25.8213 15.1113 25.9634 15.3693C26.1054 15.6274 26.1765 15.973 26.1765 16.4062V20H25.3384V19.2614H25.2958C25.239 19.3797 25.1443 19.5064 25.0117 19.6413C24.8791 19.7763 24.7027 19.8911 24.4826 19.9858C24.2624 20.0805 23.9937 20.1278 23.6765 20.1278ZM23.8043 19.375C24.1357 19.375 24.4151 19.3099 24.6424 19.1797C24.872 19.0495 25.0448 18.8814 25.1608 18.6754C25.2792 18.4695 25.3384 18.2528 25.3384 18.0256V17.2585C25.3029 17.3011 25.2248 17.3402 25.104 17.3757C24.9856 17.4089 24.8483 17.4384 24.6921 17.4645C24.5382 17.4882 24.3879 17.5095 24.2411 17.5284C24.0967 17.545 23.9795 17.5592 23.8895 17.571C23.6717 17.5994 23.4681 17.6456 23.2787 17.7095C23.0917 17.7711 22.9402 17.8646 22.8242 17.9901C22.7106 18.1132 22.6537 18.2812 22.6537 18.4943C22.6537 18.7855 22.7614 19.0057 22.9769 19.1548C23.1947 19.3016 23.4705 19.375 23.8043 19.375ZM27.6061 14.5455H28.4442V19.2188H30.5038V14.5455H31.3419V19.2188H33.4016V14.5455H34.2396V20H27.6061V14.5455ZM37.9571 20.1136C37.4315 20.1136 36.9782 19.9976 36.597 19.7656C36.2182 19.5312 35.9259 19.2045 35.7199 18.7855C35.5163 18.3641 35.4145 17.8741 35.4145 17.3153C35.4145 16.7566 35.5163 16.2642 35.7199 15.8381C35.9259 15.4096 36.2123 15.0758 36.5793 14.8366C36.9486 14.5952 37.3795 14.4744 37.8719 14.4744C38.156 14.4744 38.4365 14.5218 38.7135 14.6165C38.9905 14.7112 39.2426 14.8651 39.4699 15.0781C39.6972 15.2888 39.8783 15.5682 40.0132 15.9162C40.1482 16.2642 40.2156 16.6927 40.2156 17.2017V17.5568H36.0111V16.8324H39.3634C39.3634 16.5246 39.3018 16.25 39.1787 16.0085C39.058 15.767 38.8851 15.5765 38.6602 15.4368C38.4377 15.2971 38.1749 15.2273 37.8719 15.2273C37.5381 15.2273 37.2492 15.3101 37.0054 15.4759C36.7639 15.6392 36.5781 15.8523 36.4479 16.1151C36.3177 16.3778 36.2526 16.6596 36.2526 16.9602V17.4432C36.2526 17.8551 36.3236 18.2043 36.4656 18.4908C36.61 18.7749 36.8101 18.9915 37.0658 19.1406C37.3215 19.2874 37.6186 19.3608 37.9571 19.3608C38.1773 19.3608 38.3761 19.33 38.5537 19.2685C38.7336 19.2045 38.8887 19.1098 39.0189 18.9844C39.1491 18.8565 39.2497 18.6979 39.3207 18.5085L40.1304 18.7358C40.0452 19.0104 39.9019 19.2519 39.7007 19.4602C39.4995 19.6662 39.2509 19.8272 38.955 19.9432C38.659 20.0568 38.3264 20.1136 37.9571 20.1136ZM45.0411 16.8892V17.6705H42.0297V16.8892H45.0411ZM42.2286 14.5455V20H41.3905V14.5455H42.2286ZM45.6803 14.5455V20H44.8422V14.5455H45.6803ZM47.9489 18.7642L50.5767 14.5455H51.5426V20H50.7045V15.7812L48.0909 20H47.1108V14.5455H47.9489V18.7642ZM55.2645 20.1136C54.739 20.1136 54.2856 19.9976 53.9044 19.7656C53.5257 19.5312 53.2333 19.2045 53.0273 18.7855C52.8237 18.3641 52.7219 17.8741 52.7219 17.3153C52.7219 16.7566 52.8237 16.2642 53.0273 15.8381C53.2333 15.4096 53.5197 15.0758 53.8867 14.8366C54.256 14.5952 54.6869 14.4744 55.1793 14.4744C55.4634 14.4744 55.7439 14.5218 56.0209 14.6165C56.2979 14.7112 56.55 14.8651 56.7773 15.0781C57.0046 15.2888 57.1857 15.5682 57.3206 15.9162C57.4556 16.2642 57.523 16.6927 57.523 17.2017V17.5568H53.3185V16.8324H56.6708C56.6708 16.5246 56.6092 16.25 56.4861 16.0085C56.3654 15.767 56.1926 15.5765 55.9677 15.4368C55.7451 15.2971 55.4823 15.2273 55.1793 15.2273C54.8455 15.2273 54.5567 15.3101 54.3128 15.4759C54.0713 15.6392 53.8855 15.8523 53.7553 16.1151C53.6251 16.3778 53.56 16.6596 53.56 16.9602V17.4432C53.56 17.8551 53.631 18.2043 53.773 18.4908C53.9175 18.7749 54.1175 18.9915 54.3732 19.1406C54.6289 19.2874 54.926 19.3608 55.2645 19.3608C55.4847 19.3608 55.6836 19.33 55.8611 19.2685C56.041 19.2045 56.1961 19.1098 56.3263 18.9844C56.4565 18.8565 56.5571 18.6979 56.6282 18.5085L57.4378 18.7358C57.3526 19.0104 57.2094 19.2519 57.0081 19.4602C56.8069 19.6662 56.5583 19.8272 56.2624 19.9432C55.9665 20.0568 55.6338 20.1136 55.2645 20.1136ZM61.6809 18.8636L63.5843 14.5455H64.3797L62.0218 20H61.34L59.0246 14.5455H59.8059L61.6809 18.8636ZM59.536 14.5455V20H58.6979V14.5455H59.536ZM63.8257 20V14.5455H64.6638V20H63.8257ZM77.3897 20V14.5455H81.6795V20H80.8414V15.3267H78.2278V20H77.3897ZM85.3259 20.1136C84.8335 20.1136 84.4014 19.9964 84.0298 19.7621C83.6604 19.5277 83.3716 19.1998 83.1633 18.7784C82.9573 18.357 82.8543 17.8646 82.8543 17.3011C82.8543 16.733 82.9573 16.237 83.1633 15.8132C83.3716 15.3894 83.6604 15.0604 84.0298 14.826C84.4014 14.5916 84.8335 14.4744 85.3259 14.4744C85.8184 14.4744 86.2492 14.5916 86.6185 14.826C86.9902 15.0604 87.2791 15.3894 87.485 15.8132C87.6934 16.237 87.7975 16.733 87.7975 17.3011C87.7975 17.8646 87.6934 18.357 87.485 18.7784C87.2791 19.1998 86.9902 19.5277 86.6185 19.7621C86.2492 19.9964 85.8184 20.1136 85.3259 20.1136ZM85.3259 19.3608C85.7 19.3608 86.0077 19.2649 86.2492 19.0732C86.4907 18.8814 86.6694 18.6293 86.7854 18.3168C86.9014 18.0043 86.9594 17.6657 86.9594 17.3011C86.9594 16.9366 86.9014 16.5968 86.7854 16.282C86.6694 15.9671 86.4907 15.7126 86.2492 15.5185C86.0077 15.3243 85.7 15.2273 85.3259 15.2273C84.9519 15.2273 84.6441 15.3243 84.4026 15.5185C84.1612 15.7126 83.9824 15.9671 83.8664 16.282C83.7504 16.5968 83.6924 16.9366 83.6924 17.3011C83.6924 17.6657 83.7504 18.0043 83.8664 18.3168C83.9824 18.6293 84.1612 18.8814 84.4026 19.0732C84.6441 19.2649 84.9519 19.3608 85.3259 19.3608ZM88.4939 20V19.2188H88.6927C88.8561 19.2188 88.9922 19.1868 89.1011 19.1229C89.21 19.0566 89.2976 18.9418 89.3639 18.7784C89.4325 18.6127 89.4846 18.383 89.5201 18.0895C89.558 17.7936 89.5852 17.4171 89.6018 16.9602L89.7012 14.5455H93.3376V20H92.4995V15.3267H90.4967L90.4115 17.2727C90.3925 17.7202 90.3523 18.1143 90.2907 18.4553C90.2316 18.7938 90.1404 19.0779 90.0173 19.3075C89.8966 19.5372 89.7356 19.71 89.5343 19.826C89.3331 19.942 89.081 20 88.778 20H88.4939ZM95.6133 18.7642L98.2412 14.5455H99.2071V20H98.369V15.7812L95.7554 20H94.7753V14.5455H95.6133V18.7642ZM99.8999 15.3267V14.5455H104.332V15.3267H102.542V20H101.704V15.3267H99.8999ZM106.292 18.7642L108.92 14.5455H109.886V20H109.048V15.7812L106.434 20H105.454V14.5455H106.292V18.7642ZM111.321 20V14.5455H112.159V16.9176H112.713L114.673 14.5455H115.753L113.551 17.1733L115.781 20H114.702L112.912 17.6989H112.159V20H111.321ZM118.583 20.1136C118.091 20.1136 117.659 19.9964 117.287 19.7621C116.918 19.5277 116.629 19.1998 116.421 18.7784C116.215 18.357 116.112 17.8646 116.112 17.3011C116.112 16.733 116.215 16.237 116.421 15.8132C116.629 15.3894 116.918 15.0604 117.287 14.826C117.659 14.5916 118.091 14.4744 118.583 14.4744C119.076 14.4744 119.507 14.5916 119.876 14.826C120.248 15.0604 120.536 15.3894 120.742 15.8132C120.951 16.237 121.055 16.733 121.055 17.3011C121.055 17.8646 120.951 18.357 120.742 18.7784C120.536 19.1998 120.248 19.5277 119.876 19.7621C119.507 19.9964 119.076 20.1136 118.583 20.1136ZM118.583 19.3608C118.957 19.3608 119.265 19.2649 119.507 19.0732C119.748 18.8814 119.927 18.6293 120.043 18.3168C120.159 18.0043 120.217 17.6657 120.217 17.3011C120.217 16.9366 120.159 16.5968 120.043 16.282C119.927 15.9671 119.748 15.7126 119.507 15.5185C119.265 15.3243 118.957 15.2273 118.583 15.2273C118.209 15.2273 117.902 15.3243 117.66 15.5185C117.419 15.7126 117.24 15.9671 117.124 16.282C117.008 16.5968 116.95 16.9366 116.95 17.3011C116.95 17.6657 117.008 18.0043 117.124 18.3168C117.24 18.6293 117.419 18.8814 117.66 19.0732C117.902 19.2649 118.209 19.3608 118.583 19.3608ZM123.072 18.7642L125.7 14.5455H126.666V20H125.828V15.7812L123.214 20H122.234V14.5455H123.072V18.7642ZM125.146 12.7273H125.927C125.927 13.1108 125.795 13.4245 125.53 13.6683C125.265 13.9122 124.905 14.0341 124.45 14.0341C124.003 14.0341 123.646 13.9122 123.381 13.6683C123.118 13.4245 122.987 13.1108 122.987 12.7273H123.768C123.768 12.9119 123.819 13.0741 123.921 13.2138C124.025 13.3535 124.202 13.4233 124.45 13.4233C124.699 13.4233 124.876 13.3535 124.983 13.2138C125.092 13.0741 125.146 12.9119 125.146 12.7273ZM130.814 20V14.5455H131.652V16.9176H132.206L134.166 14.5455H135.245L133.044 17.1733L135.274 20H134.194L132.404 17.6989H131.652V20H130.814ZM138.076 20.1136C137.584 20.1136 137.151 19.9964 136.78 19.7621C136.41 19.5277 136.122 19.1998 135.913 18.7784C135.707 18.357 135.604 17.8646 135.604 17.3011C135.604 16.733 135.707 16.237 135.913 15.8132C136.122 15.3894 136.41 15.0604 136.78 14.826C137.151 14.5916 137.584 14.4744 138.076 14.4744C138.568 14.4744 138.999 14.5916 139.369 14.826C139.74 15.0604 140.029 15.3894 140.235 15.8132C140.443 16.237 140.548 16.733 140.548 17.3011C140.548 17.8646 140.443 18.357 140.235 18.7784C140.029 19.1998 139.74 19.5277 139.369 19.7621C138.999 19.9964 138.568 20.1136 138.076 20.1136ZM138.076 19.3608C138.45 19.3608 138.758 19.2649 138.999 19.0732C139.241 18.8814 139.419 18.6293 139.535 18.3168C139.651 18.0043 139.709 17.6657 139.709 17.3011C139.709 16.9366 139.651 16.5968 139.535 16.282C139.419 15.9671 139.241 15.7126 138.999 15.5185C138.758 15.3243 138.45 15.2273 138.076 15.2273C137.702 15.2273 137.394 15.3243 137.153 15.5185C136.911 15.7126 136.732 15.9671 136.616 16.282C136.5 16.5968 136.442 16.9366 136.442 17.3011C136.442 17.6657 136.5 18.0043 136.616 18.3168C136.732 18.6293 136.911 18.8814 137.153 19.0732C137.394 19.2649 137.702 19.3608 138.076 19.3608ZM145.377 16.8892V17.6705H142.366V16.8892H145.377ZM142.565 14.5455V20H141.727V14.5455H142.565ZM146.017 14.5455V20H145.179V14.5455H146.017ZM149.663 21.8608V12.7273H150.501V21.8608H149.663ZM149.663 20.1136C149.294 20.1136 148.958 20.0473 148.655 19.9148C148.351 19.7798 148.091 19.5893 147.873 19.343C147.655 19.0945 147.487 18.7973 147.369 18.4517C147.251 18.1061 147.191 17.7225 147.191 17.3011C147.191 16.875 147.251 16.4891 147.369 16.1435C147.487 15.7955 147.655 15.4972 147.873 15.2486C148.091 15 148.351 14.8094 148.655 14.6768C148.958 14.5419 149.294 14.4744 149.663 14.4744H149.919V20.1136H149.663ZM149.663 19.3608H149.805V15.2273H149.663C149.384 15.2273 149.141 15.2841 148.935 15.3977C148.729 15.509 148.559 15.6617 148.424 15.8558C148.291 16.0476 148.192 16.2678 148.125 16.5163C148.061 16.7649 148.03 17.0265 148.03 17.3011C148.03 17.6657 148.088 18.0043 148.204 18.3168C148.32 18.6293 148.498 18.8814 148.74 19.0732C148.981 19.2649 149.289 19.3608 149.663 19.3608ZM150.501 20.1136H150.245V14.4744H150.501C150.87 14.4744 151.207 14.5419 151.51 14.6768C151.813 14.8094 152.073 15 152.291 15.2486C152.509 15.4972 152.677 15.7955 152.795 16.1435C152.914 16.4891 152.973 16.875 152.973 17.3011C152.973 17.7225 152.914 18.1061 152.795 18.4517C152.677 18.7973 152.509 19.0945 152.291 19.343C152.073 19.5893 151.813 19.7798 151.51 19.9148C151.207 20.0473 150.87 20.1136 150.501 20.1136ZM150.501 19.3608C150.783 19.3608 151.025 19.3063 151.229 19.1974C151.435 19.0862 151.604 18.9347 151.737 18.7429C151.872 18.5488 151.971 18.3286 152.035 18.0824C152.101 17.8338 152.135 17.5734 152.135 17.3011C152.135 16.9366 152.077 16.5968 151.961 16.282C151.845 15.9671 151.666 15.7126 151.424 15.5185C151.183 15.3243 150.875 15.2273 150.501 15.2273H150.359V19.3608H150.501ZM154.992 18.7642L157.62 14.5455H158.586V20H157.748V15.7812L155.134 20H154.154V14.5455H154.992V18.7642ZM159.438 21.5625V19.2188H159.893C160.004 19.1027 160.1 18.9773 160.18 18.8423C160.261 18.7074 160.331 18.5476 160.39 18.3629C160.451 18.1759 160.504 17.9486 160.546 17.6811C160.589 17.4112 160.627 17.0857 160.66 16.7045L160.844 14.5455H164.31V19.2188H165.148V21.5625H164.31V20H160.276V21.5625H159.438ZM160.844 19.2188H163.472V15.3267H161.626L161.484 16.7045C161.424 17.2751 161.351 17.7734 161.263 18.1996C161.176 18.6257 161.036 18.9654 160.844 19.2188ZM168.448 20.1136C167.922 20.1136 167.469 19.9976 167.088 19.7656C166.709 19.5312 166.416 19.2045 166.211 18.7855C166.007 18.3641 165.905 17.8741 165.905 17.3153C165.905 16.7566 166.007 16.2642 166.211 15.8381C166.416 15.4096 166.703 15.0758 167.07 14.8366C167.439 14.5952 167.87 14.4744 168.363 14.4744C168.647 14.4744 168.927 14.5218 169.204 14.6165C169.481 14.7112 169.733 14.8651 169.961 15.0781C170.188 15.2888 170.369 15.5682 170.504 15.9162C170.639 16.2642 170.706 16.6927 170.706 17.2017V17.5568H166.502V16.8324H169.854C169.854 16.5246 169.792 16.25 169.669 16.0085C169.549 15.767 169.376 15.5765 169.151 15.4368C168.928 15.2971 168.666 15.2273 168.363 15.2273C168.029 15.2273 167.74 15.3101 167.496 15.4759C167.255 15.6392 167.069 15.8523 166.938 16.1151C166.808 16.3778 166.743 16.6596 166.743 16.9602V17.4432C166.743 17.8551 166.814 18.2043 166.956 18.4908C167.101 18.7749 167.301 18.9915 167.556 19.1406C167.812 19.2874 168.109 19.3608 168.448 19.3608C168.668 19.3608 168.867 19.33 169.044 19.2685C169.224 19.2045 169.379 19.1098 169.51 18.9844C169.64 18.8565 169.74 18.6979 169.811 18.5085L170.621 18.7358C170.536 19.0104 170.393 19.2519 170.191 19.4602C169.99 19.6662 169.742 19.8272 169.446 19.9432C169.15 20.0568 168.817 20.1136 168.448 20.1136ZM175.532 16.8892V17.6705H172.52V16.8892H175.532ZM172.719 14.5455V20H171.881V14.5455H172.719ZM176.171 14.5455V20H175.333V14.5455H176.171ZM181.891 14.5455V19.2188H182.658V21.7614H181.82V20H177.601V14.5455H178.439V19.2188H181.053V14.5455H181.891ZM184.687 18.7642L187.315 14.5455H188.281V20H187.443V15.7812L184.829 20H183.849V14.5455H184.687V18.7642ZM191.321 20.1278C190.975 20.1278 190.662 20.0627 190.38 19.9325C190.098 19.8 189.875 19.6094 189.709 19.3608C189.543 19.1098 189.46 18.8068 189.46 18.4517C189.46 18.1392 189.522 17.8859 189.645 17.6918C189.768 17.4953 189.933 17.3414 190.138 17.2301C190.344 17.1188 190.572 17.036 190.82 16.9815C191.071 16.9247 191.323 16.8797 191.577 16.8466C191.908 16.804 192.177 16.772 192.383 16.7507C192.591 16.727 192.743 16.688 192.837 16.6335C192.934 16.5791 192.983 16.4844 192.983 16.3494V16.321C192.983 15.9706 192.887 15.6984 192.695 15.5043C192.506 15.3101 192.218 15.2131 191.832 15.2131C191.432 15.2131 191.119 15.3007 190.891 15.4759C190.664 15.651 190.504 15.8381 190.412 16.0369L189.616 15.7528C189.758 15.4214 189.948 15.1634 190.185 14.9787C190.424 14.7917 190.684 14.6615 190.966 14.5881C191.25 14.5123 191.529 14.4744 191.804 14.4744C191.979 14.4744 192.18 14.4957 192.408 14.5384C192.637 14.5786 192.859 14.6626 193.072 14.7905C193.287 14.9183 193.466 15.1113 193.608 15.3693C193.75 15.6274 193.821 15.973 193.821 16.4062V20H192.983V19.2614H192.94C192.883 19.3797 192.789 19.5064 192.656 19.6413C192.524 19.7763 192.347 19.8911 192.127 19.9858C191.907 20.0805 191.638 20.1278 191.321 20.1278ZM191.449 19.375C191.78 19.375 192.06 19.3099 192.287 19.1797C192.517 19.0495 192.689 18.8814 192.805 18.6754C192.924 18.4695 192.983 18.2528 192.983 18.0256V17.2585C192.947 17.3011 192.869 17.3402 192.749 17.3757C192.63 17.4089 192.493 17.4384 192.337 17.4645C192.183 17.4882 192.032 17.5095 191.886 17.5284C191.741 17.545 191.624 17.5592 191.534 17.571C191.316 17.5994 191.113 17.6456 190.923 17.7095C190.736 17.7711 190.585 17.8646 190.469 17.9901C190.355 18.1132 190.298 18.2812 190.298 18.4943C190.298 18.7855 190.406 19.0057 190.621 19.1548C190.839 19.3016 191.115 19.375 191.449 19.375ZM194.768 20V19.2188H194.967C195.13 19.2188 195.266 19.1868 195.375 19.1229C195.484 19.0566 195.571 18.9418 195.638 18.7784C195.706 18.6127 195.758 18.383 195.794 18.0895C195.832 17.7936 195.859 17.4171 195.876 16.9602L195.975 14.5455H199.611V20H198.773V15.3267H196.771L196.685 17.2727C196.666 17.7202 196.626 18.1143 196.565 18.4553C196.505 18.7938 196.414 19.0779 196.291 19.3075C196.17 19.5372 196.009 19.71 195.808 19.826C195.607 19.942 195.355 20 195.052 20H194.768ZM201.774 16.5199H203.336C203.975 16.5199 204.464 16.6821 204.803 17.0064C205.141 17.3307 205.31 17.7415 205.31 18.2386C205.31 18.5653 205.235 18.8625 205.083 19.13C204.932 19.3951 204.709 19.607 204.416 19.7656C204.122 19.9219 203.762 20 203.336 20H201.049V14.5455H201.887V19.2188H203.336C203.667 19.2188 203.94 19.1312 204.153 18.956C204.366 18.7808 204.472 18.5559 204.472 18.2812C204.472 17.9924 204.366 17.7569 204.153 17.5746C203.94 17.3923 203.667 17.3011 203.336 17.3011H201.774V16.5199ZM210.137 16.8892V17.6705H207.125V16.8892H210.137ZM207.324 14.5455V20H206.486V14.5455H207.324ZM210.776 14.5455V20H209.938V14.5455H210.776ZM214.422 20.1136C213.93 20.1136 213.498 19.9964 213.126 19.7621C212.757 19.5277 212.468 19.1998 212.26 18.7784C212.054 18.357 211.951 17.8646 211.951 17.3011C211.951 16.733 212.054 16.237 212.26 15.8132C212.468 15.3894 212.757 15.0604 213.126 14.826C213.498 14.5916 213.93 14.4744 214.422 14.4744C214.915 14.4744 215.346 14.5916 215.715 14.826C216.087 15.0604 216.376 15.3894 216.581 15.8132C216.79 16.237 216.894 16.733 216.894 17.3011C216.894 17.8646 216.79 18.357 216.581 18.7784C216.376 19.1998 216.087 19.5277 215.715 19.7621C215.346 19.9964 214.915 20.1136 214.422 20.1136ZM214.422 19.3608C214.796 19.3608 215.104 19.2649 215.346 19.0732C215.587 18.8814 215.766 18.6293 215.882 18.3168C215.998 18.0043 216.056 17.6657 216.056 17.3011C216.056 16.9366 215.998 16.5968 215.882 16.282C215.766 15.9671 215.587 15.7126 215.346 15.5185C215.104 15.3243 214.796 15.2273 214.422 15.2273C214.048 15.2273 213.741 15.3243 213.499 15.5185C213.258 15.7126 213.079 15.9671 212.963 16.282C212.847 16.5968 212.789 16.9366 212.789 17.3011C212.789 17.6657 212.847 18.0043 212.963 18.3168C213.079 18.6293 213.258 18.8814 213.499 19.0732C213.741 19.2649 214.048 19.3608 214.422 19.3608ZM220.289 20.1136C219.778 20.1136 219.338 19.9929 218.968 19.7514C218.599 19.5099 218.315 19.1773 218.116 18.7536C217.917 18.3298 217.818 17.8456 217.818 17.3011C217.818 16.7472 217.919 16.2583 218.123 15.8345C218.329 15.4084 218.615 15.0758 218.982 14.8366C219.352 14.5952 219.783 14.4744 220.275 14.4744C220.659 14.4744 221.004 14.5455 221.312 14.6875C221.62 14.8295 221.872 15.0284 222.068 15.2841C222.265 15.5398 222.387 15.8381 222.434 16.179H221.596C221.532 15.9304 221.39 15.7102 221.17 15.5185C220.952 15.3243 220.659 15.2273 220.289 15.2273C219.963 15.2273 219.676 15.3125 219.43 15.483C219.186 15.651 218.995 15.889 218.858 16.1967C218.723 16.5021 218.656 16.8608 218.656 17.2727C218.656 17.6941 218.722 18.0611 218.855 18.3736C218.989 18.6861 219.179 18.9287 219.423 19.1016C219.669 19.2744 219.958 19.3608 220.289 19.3608C220.507 19.3608 220.705 19.3229 220.882 19.2472C221.06 19.1714 221.21 19.0625 221.333 18.9205C221.456 18.7784 221.544 18.608 221.596 18.4091H222.434C222.387 18.7311 222.27 19.0211 222.083 19.2791C221.898 19.5348 221.653 19.7384 221.347 19.8899C221.044 20.0391 220.692 20.1136 220.289 20.1136ZM223.13 15.3267V14.5455H227.561V15.3267H225.772V20H224.934V15.3267H223.13ZM229.522 18.7642L232.15 14.5455H233.116V20H232.278V15.7812L229.664 20H228.684V14.5455H229.522V18.7642Z" fill="#4293EF"/>
</svg>
