<svg width="296" height="131" viewBox="0 0 296 131" fill="none" xmlns="http://www.w3.org/2000/svg">
<path d="M22.89 21.815C20.4167 24.265 17.4067 25.49 13.86 25.49C10.3133 25.49 7.30333 24.265 4.83 21.815C2.38 19.3183 1.155 16.2967 1.155 12.75C1.155 9.18 2.38 6.17 4.83 3.72C7.30333 1.24667 10.3133 0.00999838 13.86 0.00999838C17.4067 0.00999838 20.4167 1.24667 22.89 3.72C25.3633 6.17 26.6 9.18 26.6 12.75C26.6 16.32 25.3633 19.3417 22.89 21.815ZM8.225 18.525C9.71833 20.0183 11.5967 20.765 13.86 20.765C16.1233 20.765 18.0017 20.0183 19.495 18.525C21.0117 17.0083 21.77 15.0833 21.77 12.75C21.77 10.4167 21.0117 8.49167 19.495 6.975C17.9783 5.45833 16.1 4.7 13.86 4.7C11.62 4.7 9.74167 5.45833 8.225 6.975C6.70833 8.49167 5.95 10.4167 5.95 12.75C5.95 15.0833 6.70833 17.0083 8.225 18.525ZM27.7197 7.5H43.2247V11.84H37.7647V25H33.2497V11.84H27.7197V7.5ZM45.3471 7.5H59.2071V25H54.6921V11.84H49.8621V17.685C49.8621 23.075 47.4005 25.5133 42.4771 25V20.765C43.4105 20.9983 44.1221 20.835 44.6121 20.275C45.1021 19.715 45.3471 18.77 45.3471 17.44V7.5ZM67.3586 17.44L75.5836 7.5H78.9436V25H74.5336V15.06L66.3086 25H62.9486V7.5H67.3586V17.44ZM93.0554 15.2V7.5H97.5704V25H93.0554V19.435C91.7488 19.855 90.3604 20.065 88.8904 20.065C86.7438 20.065 85.0404 19.5167 83.7804 18.42C82.5204 17.3233 81.8904 15.7717 81.8904 13.765V7.5H86.4054V13.24C86.4054 14.99 87.4904 15.865 89.6604 15.865C90.9438 15.865 92.0754 15.6433 93.0554 15.2ZM112.796 14.115V7.5H117.311V25H112.796V18.35H105.831V25H101.316V7.5H105.831V14.115H112.796ZM136.008 22.83C134.234 24.6033 132.041 25.49 129.428 25.49C126.814 25.49 124.621 24.6033 122.848 22.83C121.074 21.0567 120.188 18.8633 120.188 16.25C120.188 13.66 121.074 11.4783 122.848 9.705C124.644 7.90833 126.838 7.01 129.428 7.01C132.018 7.01 134.211 7.90833 136.008 9.705C137.804 11.5017 138.703 13.6833 138.703 16.25C138.703 18.84 137.804 21.0333 136.008 22.83ZM126.033 19.715C126.943 20.625 128.074 21.08 129.428 21.08C130.781 21.08 131.913 20.625 132.823 19.715C133.733 18.805 134.188 17.65 134.188 16.25C134.188 14.85 133.733 13.695 132.823 12.785C131.913 11.875 130.781 11.42 129.428 11.42C128.074 11.42 126.943 11.875 126.033 12.785C125.146 13.7183 124.703 14.8733 124.703 16.25C124.703 17.6267 125.146 18.7817 126.033 19.715ZM145.939 16.775H142.369L141.424 7.5V0.499998H146.849V7.5L145.939 16.775ZM147.129 22.48C147.129 23.2967 146.837 23.9967 146.254 24.58C145.671 25.1633 144.971 25.455 144.154 25.455C143.337 25.455 142.637 25.1633 142.054 24.58C141.471 23.9967 141.179 23.2967 141.179 22.48C141.179 21.6633 141.471 20.9633 142.054 20.38C142.637 19.7967 143.337 19.505 144.154 19.505C144.971 19.505 145.671 19.7967 146.254 20.38C146.837 20.9633 147.129 21.6633 147.129 22.48ZM0.455 35.5H18.48V40.12H11.865V60H7.035V40.12H0.455V35.5ZM34.4477 53.105H21.2527C21.836 55.2983 23.481 56.395 26.1877 56.395C27.9143 56.395 29.221 55.8117 30.1077 54.645L33.7477 56.745C32.021 59.2417 29.4777 60.49 26.1177 60.49C23.2243 60.49 20.9027 59.615 19.1527 57.865C17.4027 56.115 16.5277 53.91 16.5277 51.25C16.5277 48.6367 17.391 46.4433 19.1177 44.67C20.821 42.8967 23.0377 42.01 25.7677 42.01C28.3577 42.01 30.4693 42.8967 32.1027 44.67C33.7827 46.4433 34.6227 48.6367 34.6227 51.25C34.6227 51.74 34.5643 52.3583 34.4477 53.105ZM21.1827 49.605H30.1077C29.851 48.4617 29.326 47.5867 28.5327 46.98C27.7627 46.3733 26.841 46.07 25.7677 46.07C24.5543 46.07 23.551 46.385 22.7577 47.015C21.9643 47.6217 21.4393 48.485 21.1827 49.605ZM37.4246 42.5H53.4196V60H48.9046V46.735H41.9396V60H37.4246V42.5ZM74.2164 53.105H61.0214C61.6047 55.2983 63.2497 56.395 65.9564 56.395C67.6831 56.395 68.9897 55.8117 69.8764 54.645L73.5164 56.745C71.7897 59.2417 69.2464 60.49 65.8864 60.49C62.9931 60.49 60.6714 59.615 58.9214 57.865C57.1714 56.115 56.2964 53.91 56.2964 51.25C56.2964 48.6367 57.1597 46.4433 58.8864 44.67C60.5897 42.8967 62.8064 42.01 65.5364 42.01C68.1264 42.01 70.2381 42.8967 71.8714 44.67C73.5514 46.4433 74.3914 48.6367 74.3914 51.25C74.3914 51.74 74.3331 52.3583 74.2164 53.105ZM60.9514 49.605H69.8764C69.6197 48.4617 69.0947 47.5867 68.3014 46.98C67.5314 46.3733 66.6097 46.07 65.5364 46.07C64.3231 46.07 63.3197 46.385 62.5264 47.015C61.7331 47.6217 61.2081 48.485 60.9514 49.605ZM87.3783 42.01C89.735 42.01 91.7417 42.9083 93.3983 44.705C95.0783 46.5017 95.9183 48.6833 95.9183 51.25C95.9183 53.8633 95.0783 56.0567 93.3983 57.83C91.765 59.6033 89.7583 60.49 87.3783 60.49C84.9283 60.49 83.0383 59.6383 81.7083 57.935V67H77.1933V42.5H81.7083V44.565C83.0383 42.8617 84.9283 42.01 87.3783 42.01ZM83.0733 54.82C83.9833 55.73 85.1383 56.185 86.5383 56.185C87.9383 56.185 89.0933 55.73 90.0033 54.82C90.9367 53.8867 91.4033 52.6967 91.4033 51.25C91.4033 49.8033 90.9367 48.625 90.0033 47.715C89.0933 46.7817 87.9383 46.315 86.5383 46.315C85.1383 46.315 83.9833 46.7817 83.0733 47.715C82.1633 48.625 81.7083 49.8033 81.7083 51.25C81.7083 52.6967 82.1633 53.8867 83.0733 54.82ZM103.268 48.1H106.663C108.646 48.1 110.244 48.6483 111.458 49.745C112.671 50.8183 113.278 52.2533 113.278 54.05C113.278 55.8467 112.671 57.2933 111.458 58.39C110.244 59.4633 108.646 60 106.663 60H98.7525V42.5H103.268V48.1ZM103.268 56.01H106.698C107.328 56.01 107.841 55.835 108.238 55.485C108.658 55.1117 108.868 54.6333 108.868 54.05C108.868 53.4667 108.658 52.9883 108.238 52.615C107.841 52.2417 107.328 52.055 106.698 52.055H103.268V56.01ZM124.166 42.5H140.161V60H135.646V46.735H128.681V60H124.166V42.5ZM154.133 42.01C156.489 42.01 158.496 42.9083 160.153 44.705C161.833 46.5017 162.673 48.6833 162.673 51.25C162.673 53.8633 161.833 56.0567 160.153 57.83C158.519 59.6033 156.513 60.49 154.133 60.49C151.683 60.49 149.793 59.6383 148.463 57.935V67H143.948V42.5H148.463V44.565C149.793 42.8617 151.683 42.01 154.133 42.01ZM149.828 54.82C150.738 55.73 151.893 56.185 153.293 56.185C154.693 56.185 155.848 55.73 156.758 54.82C157.691 53.8867 158.158 52.6967 158.158 51.25C158.158 49.8033 157.691 48.625 156.758 47.715C155.848 46.7817 154.693 46.315 153.293 46.315C151.893 46.315 150.738 46.7817 149.828 47.715C148.918 48.625 148.463 49.8033 148.463 51.25C148.463 52.6967 148.918 53.8867 149.828 54.82ZM169.917 52.44L178.142 42.5H181.502V60H177.092V50.06L168.867 60H165.507V42.5H169.917V52.44ZM193.619 60.49C190.982 60.49 188.777 59.6033 187.004 57.83C185.254 56.0567 184.379 53.8633 184.379 51.25C184.379 48.6367 185.254 46.4433 187.004 44.67C188.777 42.8967 190.982 42.01 193.619 42.01C195.322 42.01 196.874 42.4183 198.274 43.235C199.674 44.0517 200.735 45.1483 201.459 46.525L197.574 48.8C197.224 48.0767 196.687 47.505 195.964 47.085C195.264 46.665 194.47 46.455 193.584 46.455C192.23 46.455 191.11 46.91 190.224 47.82C189.337 48.7067 188.894 49.85 188.894 51.25C188.894 52.6033 189.337 53.7467 190.224 54.68C191.11 55.5667 192.23 56.01 193.584 56.01C194.494 56.01 195.299 55.8117 195.999 55.415C196.722 54.995 197.259 54.4233 197.609 53.7L201.529 55.94C200.759 57.34 199.662 58.4483 198.239 59.265C196.839 60.0817 195.299 60.49 193.619 60.49ZM201.749 42.5H217.254V46.84H211.794V60H207.279V46.84H201.749V42.5ZM227.114 54.26L230.999 42.5H235.829L229.459 60C227.685 64.9233 224.605 67.2567 220.219 67V62.8C221.409 62.8233 222.342 62.6017 223.019 62.135C223.719 61.6683 224.279 60.8867 224.699 59.79L217.629 42.5H222.424L227.114 54.26ZM237.627 42.5H253.622V60H249.107V46.735H242.142V60H237.627V42.5ZM261.819 52.44L270.044 42.5H273.404V60H268.994V50.06L260.769 60H257.409V42.5H261.819V52.44ZM290.946 42.5H295.391V60H291.016V49.78L286.571 56.78H286.011L281.531 49.71V60H277.191V42.5H281.636L286.291 49.85L290.946 42.5ZM10.955 86.145L18.2 95H12.95L6.58 87.055V95H2.065V77.5H6.58V85.2L12.6 77.5H17.99L10.955 86.145ZM28.5037 77.5H44.4987V95H39.9837V81.735H33.0187V95H28.5037V77.5ZM63.1955 92.83C61.4222 94.6033 59.2288 95.49 56.6155 95.49C54.0022 95.49 51.8088 94.6033 50.0355 92.83C48.2622 91.0567 47.3755 88.8633 47.3755 86.25C47.3755 83.66 48.2622 81.4783 50.0355 79.705C51.8322 77.9083 54.0255 77.01 56.6155 77.01C59.2055 77.01 61.3988 77.9083 63.1955 79.705C64.9922 81.5017 65.8905 83.6833 65.8905 86.25C65.8905 88.84 64.9922 91.0333 63.1955 92.83ZM53.2205 89.715C54.1305 90.625 55.2622 91.08 56.6155 91.08C57.9688 91.08 59.1005 90.625 60.0105 89.715C60.9205 88.805 61.3755 87.65 61.3755 86.25C61.3755 84.85 60.9205 83.695 60.0105 82.785C59.1005 81.875 57.9688 81.42 56.6155 81.42C55.2622 81.42 54.1305 81.875 53.2205 82.785C52.3338 83.7183 51.8905 84.8733 51.8905 86.25C51.8905 87.6267 52.3338 88.7817 53.2205 89.715ZM73.1268 87.44L81.3518 77.5H84.7118V95H80.3018V85.06L72.0768 95H68.7168V77.5H73.1268V87.44ZM96.8286 95.49C94.1919 95.49 91.9869 94.6033 90.2136 92.83C88.4636 91.0567 87.5886 88.8633 87.5886 86.25C87.5886 83.6367 88.4636 81.4433 90.2136 79.67C91.9869 77.8967 94.1919 77.01 96.8286 77.01C98.5319 77.01 100.084 77.4183 101.484 78.235C102.884 79.0517 103.945 80.1483 104.669 81.525L100.784 83.8C100.434 83.0767 99.8969 82.505 99.1736 82.085C98.4736 81.665 97.6803 81.455 96.7936 81.455C95.4403 81.455 94.3203 81.91 93.4336 82.82C92.5469 83.7067 92.1036 84.85 92.1036 86.25C92.1036 87.6033 92.5469 88.7467 93.4336 89.68C94.3203 90.5667 95.4403 91.01 96.7936 91.01C97.7036 91.01 98.5086 90.8117 99.2086 90.415C99.9319 89.995 100.469 89.4233 100.819 88.7L104.739 90.94C103.969 92.34 102.872 93.4483 101.449 94.265C100.049 95.0817 98.5086 95.49 96.8286 95.49ZM115.803 86.145L123.048 95H117.798L111.428 87.055V95H106.913V77.5H111.428V85.2L117.448 77.5H122.838L115.803 86.145ZM132.306 89.26L136.191 77.5H141.021L134.651 95C132.878 99.9233 129.798 102.257 125.411 102V97.8C126.601 97.8233 127.534 97.6017 128.211 97.135C128.911 96.6683 129.471 95.8867 129.891 94.79L122.821 77.5H127.616L132.306 89.26ZM157.065 77.5H165.255V95H160.845V89.54H159.27L155.245 95H150.03L154.405 89.015C153.285 88.5483 152.386 87.8133 151.71 86.81C151.056 85.8067 150.73 84.71 150.73 83.52C150.73 81.91 151.313 80.4983 152.48 79.285C153.623 78.095 155.151 77.5 157.065 77.5ZM160.845 81.525H157.415C156.761 81.525 156.213 81.7233 155.77 82.12C155.35 82.5167 155.14 83.03 155.14 83.66C155.14 84.29 155.35 84.7917 155.77 85.165C156.213 85.5383 156.761 85.725 157.415 85.725H160.845V81.525ZM179.204 77.01C181.561 77.01 183.567 77.9083 185.224 79.705C186.904 81.5017 187.744 83.6833 187.744 86.25C187.744 88.8633 186.904 91.0567 185.224 92.83C183.591 94.6033 181.584 95.49 179.204 95.49C176.754 95.49 174.864 94.6383 173.534 92.935V102H169.019V77.5H173.534V79.565C174.864 77.8617 176.754 77.01 179.204 77.01ZM174.899 89.82C175.809 90.73 176.964 91.185 178.364 91.185C179.764 91.185 180.919 90.73 181.829 89.82C182.762 88.8867 183.229 87.6967 183.229 86.25C183.229 84.8033 182.762 83.625 181.829 82.715C180.919 81.7817 179.764 81.315 178.364 81.315C176.964 81.315 175.809 81.7817 174.899 82.715C173.989 83.625 173.534 84.8033 173.534 86.25C173.534 87.6967 173.989 88.8867 174.899 89.82ZM199.468 86.145L206.713 95H201.463L195.093 87.055V95H190.578V77.5H195.093V85.2L201.113 77.5H206.503L199.468 86.145ZM213.027 87.44L221.252 77.5H224.612V95H220.202V85.06L211.977 95H208.617V77.5H213.027V87.44ZM238.129 86.04L244.534 95H239.319L235.539 89.68L231.724 95H226.509L232.914 86.075L226.789 77.5H232.004L235.539 82.435L239.074 77.5H244.254L238.129 86.04ZM10.395 130.49C7.75833 130.49 5.55333 129.603 3.78 127.83C2.03 126.057 1.155 123.863 1.155 121.25C1.155 118.637 2.03 116.443 3.78 114.67C5.55333 112.897 7.75833 112.01 10.395 112.01C12.0983 112.01 13.65 112.418 15.05 113.235C16.45 114.052 17.5117 115.148 18.235 116.525L14.35 118.8C14 118.077 13.4633 117.505 12.74 117.085C12.04 116.665 11.2467 116.455 10.36 116.455C9.00667 116.455 7.88667 116.91 7 117.82C6.11333 118.707 5.67 119.85 5.67 121.25C5.67 122.603 6.11333 123.747 7 124.68C7.88667 125.567 9.00667 126.01 10.36 126.01C11.27 126.01 12.075 125.812 12.775 125.415C13.4983 124.995 14.035 124.423 14.385 123.7L18.305 125.94C17.535 127.34 16.4383 128.448 15.015 129.265C13.615 130.082 12.075 130.49 10.395 130.49ZM34.9795 127.83C33.2062 129.603 31.0128 130.49 28.3995 130.49C25.7862 130.49 23.5928 129.603 21.8195 127.83C20.0462 126.057 19.1595 123.863 19.1595 121.25C19.1595 118.66 20.0462 116.478 21.8195 114.705C23.6162 112.908 25.8095 112.01 28.3995 112.01C30.9895 112.01 33.1828 112.908 34.9795 114.705C36.7762 116.502 37.6745 118.683 37.6745 121.25C37.6745 123.84 36.7762 126.033 34.9795 127.83ZM25.0045 124.715C25.9145 125.625 27.0462 126.08 28.3995 126.08C29.7528 126.08 30.8845 125.625 31.7945 124.715C32.7045 123.805 33.1595 122.65 33.1595 121.25C33.1595 119.85 32.7045 118.695 31.7945 117.785C30.8845 116.875 29.7528 116.42 28.3995 116.42C27.0462 116.42 25.9145 116.875 25.0045 117.785C24.1178 118.718 23.6745 119.873 23.6745 121.25C23.6745 122.627 24.1178 123.782 25.0045 124.715ZM48.7957 130.49C46.0424 130.49 43.8141 129.603 42.1107 127.83C40.4307 126.057 39.5907 123.805 39.5907 121.075C39.5907 118.112 40.0341 115.813 40.9207 114.18C41.7841 112.547 43.5691 111.065 46.2757 109.735C46.3457 109.688 46.4741 109.618 46.6607 109.525C46.8707 109.432 47.0807 109.338 47.2907 109.245C47.5241 109.152 47.7457 109.058 47.9557 108.965L49.4257 108.23C49.7757 108.067 50.1491 107.857 50.5457 107.6C51.1291 107.25 51.5607 106.888 51.8407 106.515C52.1207 106.142 52.4241 105.582 52.7507 104.835L56.4607 106.97C56.1574 108.393 55.4691 109.502 54.3957 110.295C53.2991 111.088 51.7124 111.882 49.6357 112.675C48.1891 113.235 47.1157 113.807 46.4157 114.39C45.7157 114.973 45.2141 115.685 44.9107 116.525C46.1941 115.195 47.9441 114.53 50.1607 114.53C52.1207 114.53 53.8474 115.242 55.3407 116.665C56.8574 118.065 57.6157 119.932 57.6157 122.265C57.6157 124.668 56.7991 126.64 55.1657 128.18C53.5557 129.72 51.4324 130.49 48.7957 130.49ZM48.7257 118.135C47.5591 118.135 46.5324 118.497 45.6457 119.22C44.7591 119.967 44.3157 120.935 44.3157 122.125C44.3157 123.362 44.7357 124.377 45.5757 125.17C46.4391 125.963 47.5007 126.36 48.7607 126.36C50.0441 126.36 51.0824 125.975 51.8757 125.205C52.6924 124.435 53.1007 123.455 53.1007 122.265C53.1007 121.075 52.6924 120.095 51.8757 119.325C51.0591 118.532 50.0091 118.135 48.7257 118.135ZM64.5241 118.1H67.9191C69.9025 118.1 71.5008 118.648 72.7141 119.745C73.9275 120.818 74.5341 122.253 74.5341 124.05C74.5341 125.847 73.9275 127.293 72.7141 128.39C71.5008 129.463 69.9025 130 67.9191 130H60.0091V112.5H64.5241V118.1ZM76.4591 130V112.5H80.9741V130H76.4591ZM64.5241 126.01H67.9541C68.5841 126.01 69.0975 125.835 69.4941 125.485C69.9141 125.112 70.1241 124.633 70.1241 124.05C70.1241 123.467 69.9141 122.988 69.4941 122.615C69.0975 122.242 68.5841 122.055 67.9541 122.055H64.5241V126.01ZM83.032 112.5H98.537V116.84H93.077V130H88.562V116.84H83.032V112.5ZM105.008 122.44L113.233 112.5H116.593V130H112.183V120.06L103.958 130H100.598V112.5H105.008V122.44ZM133.47 110.26H123.32V106.34H133.47V110.26ZM124.79 122.44L133.015 112.5H136.375V130H131.965V120.06L123.74 130H120.38V112.5H124.79V122.44Z" fill="#F4F8FD"/>
</svg>
