<svg width="183" height="53" viewBox="0 0 183 53" fill="none" xmlns="http://www.w3.org/2000/svg">
<path d="M12.895 25.49C9.23167 25.49 6.18667 24.265 3.76 21.815C1.35667 19.3883 0.155 16.3667 0.155 12.75C0.155 9.11 1.35667 6.08833 3.76 3.685C6.18667 1.235 9.23167 0.00999838 12.895 0.00999838C15.1117 0.00999838 17.1533 0.534999 19.02 1.585C20.91 2.61167 22.38 4.01167 23.43 5.785L19.265 8.2C18.6583 7.10333 17.795 6.25167 16.675 5.645C15.555 5.015 14.295 4.7 12.895 4.7C10.515 4.7 8.59 5.44667 7.12 6.94C5.67333 8.45667 4.95 10.3933 4.95 12.75C4.95 15.0833 5.67333 17.0083 7.12 18.525C8.59 20.0183 10.515 20.765 12.895 20.765C14.295 20.765 15.555 20.4617 16.675 19.855C17.8183 19.225 18.6817 18.3733 19.265 17.3L23.43 19.715C22.38 21.4883 20.91 22.9 19.02 23.95C17.1533 24.9767 15.1117 25.49 12.895 25.49ZM40.8496 22.83C39.0763 24.6033 36.8829 25.49 34.2696 25.49C31.6563 25.49 29.4629 24.6033 27.6896 22.83C25.9163 21.0567 25.0296 18.8633 25.0296 16.25C25.0296 13.66 25.9163 11.4783 27.6896 9.705C29.4863 7.90833 31.6796 7.01 34.2696 7.01C36.8596 7.01 39.0529 7.90833 40.8496 9.705C42.6463 11.5017 43.5446 13.6833 43.5446 16.25C43.5446 18.84 42.6463 21.0333 40.8496 22.83ZM30.8746 19.715C31.7846 20.625 32.9163 21.08 34.2696 21.08C35.6229 21.08 36.7546 20.625 37.6646 19.715C38.5746 18.805 39.0296 17.65 39.0296 16.25C39.0296 14.85 38.5746 13.695 37.6646 12.785C36.7546 11.875 35.6229 11.42 34.2696 11.42C32.9163 11.42 31.7846 11.875 30.8746 12.785C29.9879 13.7183 29.5446 14.8733 29.5446 16.25C29.5446 17.6267 29.9879 18.7817 30.8746 19.715ZM55.9423 16.075C57.7156 16.9383 58.6023 18.3267 58.6023 20.24C58.6023 21.78 57.9723 23.04 56.7123 24.02C55.4523 25 53.7256 25.49 51.5323 25.49C47.9856 25.49 45.5706 24.09 44.2873 21.29L47.9623 19.12C48.5223 20.7067 49.7239 21.5 51.5673 21.5C52.4073 21.5 53.0489 21.3367 53.4923 21.01C53.9589 20.6833 54.1923 20.24 54.1923 19.68C54.1923 18.6067 53.5039 18.07 52.1273 18.07H49.6423V14.22H51.5323C52.8856 14.22 53.5623 13.6833 53.5623 12.61C53.5623 12.0967 53.3639 11.6883 52.9673 11.385C52.5706 11.0817 52.0456 10.93 51.3923 10.93C49.8989 10.93 48.8139 11.665 48.1373 13.135L44.4973 11.035C45.8273 8.35167 48.1023 7.01 51.3223 7.01C53.3289 7.01 54.9156 7.52333 56.0823 8.55C57.2723 9.57667 57.8673 10.8017 57.8673 12.225C57.8673 13.9283 57.2256 15.2117 55.9423 16.075ZM76.7416 7.5V20.765H79.0516V29.69H74.6416V25H63.7916V29.69H59.3816V20.765H61.5166C62.5199 19.2717 63.0216 17.2067 63.0216 14.57V7.5H76.7416ZM66.3466 20.765H72.3316V11.56H67.4316V14.57C67.4316 17.09 67.0699 19.155 66.3466 20.765ZM94.1759 9.565V7.5H98.6909V25H94.1759V22.935C92.8226 24.6383 90.9209 25.49 88.4709 25.49C86.1376 25.49 84.1309 24.6033 82.4509 22.83C80.7943 21.0333 79.9659 18.84 79.9659 16.25C79.9659 13.6833 80.7943 11.5017 82.4509 9.705C84.1309 7.90833 86.1376 7.01 88.4709 7.01C90.9209 7.01 92.8226 7.86167 94.1759 9.565ZM85.8459 19.82C86.7559 20.73 87.9109 21.185 89.3109 21.185C90.7109 21.185 91.8659 20.73 92.7759 19.82C93.7093 18.8867 94.1759 17.6967 94.1759 16.25C94.1759 14.8033 93.7093 13.625 92.7759 12.715C91.8659 11.7817 90.7109 11.315 89.3109 11.315C87.9109 11.315 86.7559 11.7817 85.8459 12.715C84.9359 13.625 84.4809 14.8033 84.4809 16.25C84.4809 17.6967 84.9359 18.8867 85.8459 19.82ZM115.035 16.04C116.668 16.8333 117.485 18.1633 117.485 20.03C117.485 21.5233 116.972 22.725 115.945 23.635C114.918 24.545 113.483 25 111.64 25H102.435V7.5H110.94C112.76 7.5 114.183 7.955 115.21 8.865C116.237 9.75167 116.75 10.9417 116.75 12.435C116.75 13.975 116.178 15.1767 115.035 16.04ZM110.52 11.21H106.67V14.36H110.52C111.803 14.36 112.445 13.835 112.445 12.785C112.445 11.735 111.803 11.21 110.52 11.21ZM106.67 21.185H111.115C112.422 21.185 113.075 20.625 113.075 19.505C113.075 19.015 112.9 18.63 112.55 18.35C112.2 18.07 111.722 17.93 111.115 17.93H106.67V21.185ZM133.261 9.565V7.5H137.776V25H133.261V22.935C131.908 24.6383 130.006 25.49 127.556 25.49C125.223 25.49 123.216 24.6033 121.536 22.83C119.879 21.0333 119.051 18.84 119.051 16.25C119.051 13.6833 119.879 11.5017 121.536 9.705C123.216 7.90833 125.223 7.01 127.556 7.01C130.006 7.01 131.908 7.86167 133.261 9.565ZM124.931 19.82C125.841 20.73 126.996 21.185 128.396 21.185C129.796 21.185 130.951 20.73 131.861 19.82C132.794 18.8867 133.261 17.6967 133.261 16.25C133.261 14.8033 132.794 13.625 131.861 12.715C130.951 11.7817 129.796 11.315 128.396 11.315C126.996 11.315 125.841 11.7817 124.931 12.715C124.021 13.625 123.566 14.8033 123.566 16.25C123.566 17.6967 124.021 18.8867 124.931 19.82ZM154.61 5.26H144.46V1.34H154.61V5.26ZM145.93 17.44L154.155 7.5H157.515V25H153.105V15.06L144.88 25H141.52V7.5H145.93V17.44ZM14.365 36.565V34.5H18.88V52H14.365V49.935C13.0117 51.6383 11.11 52.49 8.66 52.49C6.32667 52.49 4.32 51.6033 2.64 49.83C0.983333 48.0333 0.155 45.84 0.155 43.25C0.155 40.6833 0.983333 38.5017 2.64 36.705C4.32 34.9083 6.32667 34.01 8.66 34.01C11.11 34.01 13.0117 34.8617 14.365 36.565ZM6.035 46.82C6.945 47.73 8.1 48.185 9.5 48.185C10.9 48.185 12.055 47.73 12.965 46.82C13.8983 45.8867 14.365 44.6967 14.365 43.25C14.365 41.8033 13.8983 40.625 12.965 39.715C12.055 38.7817 10.9 38.315 9.5 38.315C8.1 38.315 6.945 38.7817 6.035 39.715C5.125 40.625 4.67 41.8033 4.67 43.25C4.67 44.6967 5.125 45.8867 6.035 46.82ZM31.5142 43.145L38.7592 52H33.5092L27.1392 44.055V52H22.6242V34.5H27.1392V42.2L33.1592 34.5H38.5492L31.5142 43.145ZM38.9479 34.5H54.4529V38.84H48.9929V52H44.4779V38.84H38.9479V34.5ZM60.924 44.44L69.149 34.5H72.509V52H68.099V42.06L59.874 52H56.514V34.5H60.924V44.44ZM88.8959 43.04C90.5292 43.8333 91.3459 45.1633 91.3459 47.03C91.3459 48.5233 90.8325 49.725 89.8059 50.635C88.7792 51.545 87.3442 52 85.5009 52H76.2959V34.5H84.8009C86.6209 34.5 88.0442 34.955 89.0709 35.865C90.0975 36.7517 90.6109 37.9417 90.6109 39.435C90.6109 40.975 90.0392 42.1767 88.8959 43.04ZM84.3809 38.21H80.5309V41.36H84.3809C85.6642 41.36 86.3059 40.835 86.3059 39.785C86.3059 38.735 85.6642 38.21 84.3809 38.21ZM80.5309 48.185H84.9759C86.2825 48.185 86.9359 47.625 86.9359 46.505C86.9359 46.015 86.7609 45.63 86.4109 45.35C86.0609 45.07 85.5825 44.93 84.9759 44.93H80.5309V48.185ZM105.302 41.115V34.5H109.817V52H105.302V45.35H98.3368V52H93.8218V34.5H98.3368V41.115H105.302ZM128.514 49.83C126.74 51.6033 124.547 52.49 121.934 52.49C119.32 52.49 117.127 51.6033 115.354 49.83C113.58 48.0567 112.694 45.8633 112.694 43.25C112.694 40.66 113.58 38.4783 115.354 36.705C117.15 34.9083 119.344 34.01 121.934 34.01C124.524 34.01 126.717 34.9083 128.514 36.705C130.31 38.5017 131.209 40.6833 131.209 43.25C131.209 45.84 130.31 48.0333 128.514 49.83ZM118.539 46.715C119.449 47.625 120.58 48.08 121.934 48.08C123.287 48.08 124.419 47.625 125.329 46.715C126.239 45.805 126.694 44.65 126.694 43.25C126.694 41.85 126.239 40.695 125.329 39.785C124.419 38.875 123.287 38.42 121.934 38.42C120.58 38.42 119.449 38.875 118.539 39.785C117.652 40.7183 117.209 41.8733 117.209 43.25C117.209 44.6267 117.652 45.7817 118.539 46.715ZM142.365 52.49C139.728 52.49 137.523 51.6033 135.75 49.83C134 48.0567 133.125 45.8633 133.125 43.25C133.125 40.6367 134 38.4433 135.75 36.67C137.523 34.8967 139.728 34.01 142.365 34.01C144.068 34.01 145.62 34.4183 147.02 35.235C148.42 36.0517 149.482 37.1483 150.205 38.525L146.32 40.8C145.97 40.0767 145.433 39.505 144.71 39.085C144.01 38.665 143.217 38.455 142.33 38.455C140.977 38.455 139.857 38.91 138.97 39.82C138.083 40.7067 137.64 41.85 137.64 43.25C137.64 44.6033 138.083 45.7467 138.97 46.68C139.857 47.5667 140.977 48.01 142.33 48.01C143.24 48.01 144.045 47.8117 144.745 47.415C145.468 46.995 146.005 46.4233 146.355 45.7L150.275 47.94C149.505 49.34 148.408 50.4483 146.985 51.265C145.585 52.0817 144.045 52.49 142.365 52.49ZM150.495 34.5H166V38.84H160.54V52H156.025V38.84H150.495V34.5ZM172.576 40.1H175.971C177.955 40.1 179.553 40.6483 180.766 41.745C181.98 42.8183 182.586 44.2533 182.586 46.05C182.586 47.8467 181.98 49.2933 180.766 50.39C179.553 51.4633 177.955 52 175.971 52H168.061V34.5H172.576V40.1ZM172.576 48.01H176.006C176.636 48.01 177.15 47.835 177.546 47.485C177.966 47.1117 178.176 46.6333 178.176 46.05C178.176 45.4667 177.966 44.9883 177.546 44.615C177.15 44.2417 176.636 44.055 176.006 44.055H172.576V48.01Z" fill="#F4F8FD"/>
</svg>
