<svg width="115" height="27" viewBox="0 0 115 27" fill="none" xmlns="http://www.w3.org/2000/svg">
<path d="M14.6965 0.636363V21H12.8471V2.30682H1.87977V21H0.0203981V0.636363H14.6965ZM19.3185 26.7273V5.72727H21.0387V8.64062H21.2475C21.4596 8.18324 21.7513 7.71591 22.1225 7.23864C22.4937 6.75473 22.9842 6.34706 23.5941 6.01562C24.2106 5.68419 24.9861 5.51847 25.9208 5.51847C27.1803 5.51847 28.2806 5.84991 29.2219 6.51278C30.1698 7.16903 30.9056 8.09043 31.4293 9.27699C31.9596 10.4569 32.2248 11.8324 32.2248 13.4034C32.2248 14.9811 31.9596 16.3632 31.4293 17.5497C30.9056 18.7363 30.1698 19.661 29.2219 20.3239C28.2806 20.9867 27.1869 21.3182 25.9407 21.3182C25.0193 21.3182 24.247 21.1525 23.6239 20.821C23.0074 20.4896 22.507 20.0819 22.1225 19.598C21.7447 19.1075 21.453 18.6302 21.2475 18.1662H21.0884V26.7273H19.3185ZM21.0685 13.3736C21.0685 14.6065 21.2508 15.7003 21.6154 16.6548C21.9866 17.6027 22.5169 18.3485 23.2063 18.892C23.9023 19.429 24.7442 19.6974 25.7319 19.6974C26.7461 19.6974 27.6012 19.419 28.2972 18.8622C28.9999 18.2988 29.5335 17.5398 29.8981 16.5852C30.2693 15.6307 30.4549 14.5601 30.4549 13.3736C30.4549 12.2003 30.2726 11.143 29.908 10.2017C29.5501 9.26042 29.0198 8.51468 28.3171 7.96449C27.6145 7.40767 26.7527 7.12926 25.7319 7.12926C24.7376 7.12926 23.8924 7.39773 23.1964 7.93466C22.5003 8.46496 21.97 9.20076 21.6055 10.142C21.2475 11.0767 21.0685 12.1539 21.0685 13.3736ZM41.7637 21.3182C40.4445 21.3182 39.2779 20.9834 38.2637 20.3139C37.2561 19.6444 36.4673 18.7197 35.8972 17.5398C35.3271 16.3532 35.0421 14.9844 35.0421 13.4332C35.0421 11.8688 35.3271 10.4934 35.8972 9.30682C36.4673 8.11364 37.2561 7.18561 38.2637 6.52273C39.2779 5.85322 40.4445 5.51847 41.7637 5.51847C43.0828 5.51847 44.2461 5.85322 45.2537 6.52273C46.2613 7.19223 47.0501 8.12026 47.6202 9.30682C48.1969 10.4934 48.4853 11.8688 48.4853 13.4332C48.4853 14.9844 48.2002 16.3532 47.6301 17.5398C47.0601 18.7197 46.2679 19.6444 45.2537 20.3139C44.2461 20.9834 43.0828 21.3182 41.7637 21.3182ZM41.7637 19.6974C42.8243 19.6974 43.7225 19.4124 44.4583 18.8423C45.1941 18.2723 45.7509 17.5133 46.1287 16.5653C46.5132 15.6174 46.7054 14.5734 46.7054 13.4332C46.7054 12.2931 46.5132 11.2457 46.1287 10.2912C45.7509 9.33665 45.1941 8.57102 44.4583 7.99432C43.7225 7.41761 42.8243 7.12926 41.7637 7.12926C40.7097 7.12926 39.8115 7.41761 39.0691 7.99432C38.3333 8.57102 37.7731 9.33665 37.3887 10.2912C37.0108 11.2457 36.8219 12.2931 36.8219 13.4332C36.8219 14.5734 37.0108 15.6174 37.3887 16.5653C37.7731 17.5133 38.3333 18.2723 39.0691 18.8423C39.8049 19.4124 40.7031 19.6974 41.7637 19.6974ZM58.5437 26.2102V0.636363H60.3235V26.2102H58.5437ZM58.5437 21.3182C57.4897 21.3182 56.5219 21.1259 55.6403 20.7415C54.7586 20.357 53.993 19.8134 53.3434 19.1108C52.7004 18.4015 52.1999 17.5663 51.842 16.6051C51.484 15.6439 51.305 14.59 51.305 13.4432C51.305 12.2831 51.484 11.2192 51.842 10.2514C52.1999 9.28362 52.7004 8.44839 53.3434 7.74574C53.993 7.04309 54.7586 6.49953 55.6403 6.11506C56.5219 5.72396 57.4897 5.52841 58.5437 5.52841H59.0707V21.3182H58.5437ZM58.5437 19.6974H58.832V7.14915H58.5437C57.6886 7.14915 56.9229 7.31818 56.2468 7.65625C55.5707 7.98769 54.9973 8.44508 54.5266 9.02841C54.056 9.61174 53.698 10.2812 53.4528 11.0369C53.2075 11.7926 53.0849 12.5947 53.0849 13.4432C53.0849 14.5701 53.3003 15.6075 53.7312 16.5554C54.1687 17.5033 54.7951 18.2656 55.6104 18.8423C56.4258 19.419 57.4035 19.7041 58.5437 19.6974ZM60.3235 21.3182H59.7866V5.52841H60.3235C61.3709 5.52841 62.3353 5.72396 63.217 6.11506C64.1052 6.49953 64.8709 7.04309 65.5138 7.74574C66.1635 8.44839 66.6673 9.28362 67.0252 10.2514C67.3832 11.2192 67.5621 12.2831 67.5621 13.4432C67.5621 14.59 67.3832 15.6439 67.0252 16.6051C66.6673 17.5663 66.1635 18.4015 65.5138 19.1108C64.8709 19.8134 64.1052 20.357 63.217 20.7415C62.3353 21.1259 61.3709 21.3182 60.3235 21.3182ZM60.3235 19.6974C61.1786 19.6974 61.9409 19.535 62.6104 19.2102C63.2866 18.8788 63.86 18.4214 64.3306 17.8381C64.8079 17.2547 65.1692 16.5885 65.4144 15.8395C65.6597 15.0838 65.7823 14.285 65.7823 13.4432C65.7823 12.3163 65.5636 11.2756 65.1261 10.321C64.6952 9.36648 64.0721 8.60085 63.2567 8.02415C62.4414 7.44081 61.4637 7.14915 60.3235 7.14915H60.0252V19.6974H60.3235ZM72.9398 18.4844L81.0037 5.72727H83.1216V21H81.3517V8.2429L73.3177 21H71.1699V5.72727H72.9398V18.4844ZM86.0135 21V19.3295H86.4908C87.0343 19.3295 87.4718 19.2301 87.8033 19.0312C88.1414 18.8258 88.4032 18.4811 88.5888 17.9972C88.7744 17.5133 88.9136 16.8537 89.0064 16.0185C89.0992 15.1832 89.1721 14.1359 89.2252 12.8764L89.5533 5.72727H99.2578V21H97.478V7.39773H91.2337L90.9453 13.473C90.8857 14.7126 90.7862 15.803 90.647 16.7443C90.5145 17.6856 90.2957 18.4711 89.9908 19.1009C89.6925 19.7306 89.2749 20.2045 88.7379 20.5227C88.2076 20.8409 87.5116 21 86.6499 21H86.0135ZM105.14 11.6236H109.605C111.321 11.6236 112.647 12.0412 113.582 12.8764C114.517 13.7116 114.984 14.8419 114.984 16.267C114.984 17.215 114.775 18.0436 114.357 18.7528C113.94 19.4621 113.33 20.0156 112.528 20.4134C111.726 20.8045 110.751 21 109.605 21H103.669V5.72727H105.438V19.3295H109.605C110.685 19.3295 111.557 19.071 112.22 18.554C112.883 18.0369 113.214 17.3011 113.214 16.3466C113.214 15.3722 112.883 14.6198 112.22 14.0895C111.557 13.5592 110.685 13.294 109.605 13.294H105.14V11.6236Z" fill="black"/>
</svg>
