<svg width="304" height="91" viewBox="0 0 304 91" fill="none" xmlns="http://www.w3.org/2000/svg">
<path d="M14.9674 11.8665C16.8486 12.9502 17.7891 14.5859 17.7891 16.7738C17.7891 18.5936 17.145 20.0863 15.8569 21.2518C14.5687 22.4173 12.984 23 11.1029 23H1.99361V1.53035H10.4588C12.2786 1.53035 13.8224 2.10287 15.0901 3.24792C16.3578 4.39297 16.9917 5.8345 16.9917 7.57252C16.9917 9.35144 16.3169 10.7827 14.9674 11.8665ZM10.4588 5.4869H6.2262V10.2102H10.4588C11.1131 10.2102 11.655 9.9853 12.0843 9.53546C12.5342 9.08562 12.7591 8.52332 12.7591 7.84856C12.7591 7.1738 12.5444 6.6115 12.115 6.16166C11.6856 5.71182 11.1335 5.4869 10.4588 5.4869ZM6.2262 19.0435H11.1029C11.8185 19.0435 12.4115 18.8083 12.8818 18.338C13.3521 17.8473 13.5872 17.2339 13.5872 16.4978C13.5872 15.7821 13.3521 15.1891 12.8818 14.7188C12.4115 14.2281 11.8185 13.9827 11.1029 13.9827H6.2262V19.0435ZM24.0297 12.5719H27.0048C28.7428 12.5719 30.1435 13.0524 31.2067 14.0134C32.27 14.954 32.8016 16.2115 32.8016 17.7859C32.8016 19.3604 32.27 20.6281 31.2067 21.5891C30.1435 22.5297 28.7428 23 27.0048 23H20.0732V7.66454H24.0297V12.5719ZM34.4885 23V7.66454H38.4451V23H34.4885ZM24.0297 19.5035H27.0355C27.5875 19.5035 28.0374 19.3502 28.385 19.0435C28.753 18.7163 28.9371 18.2971 28.9371 17.7859C28.9371 17.2748 28.753 16.8556 28.385 16.5284C28.0374 16.2013 27.5875 16.0377 27.0355 16.0377H24.0297V19.5035ZM49.0203 23.4294C46.6075 23.4294 44.6548 22.6524 43.1621 21.0984C41.6899 19.5444 40.9538 17.5712 40.9538 15.1789C40.9538 12.5821 41.3423 10.5681 42.1193 9.13674C42.8759 7.70543 44.4401 6.40703 46.812 5.24153C46.8733 5.20064 46.9858 5.1393 47.1494 5.05751C47.3334 4.97572 47.5174 4.89393 47.7014 4.81214C47.9059 4.73035 48.1002 4.64856 48.2842 4.56677L49.5724 3.92268C49.8791 3.77955 50.2062 3.59553 50.5538 3.37061C51.065 3.0639 51.4433 2.74696 51.6887 2.41981C51.934 2.09265 52.1998 1.60192 52.4861 0.947602L55.7372 2.81853C55.4714 4.06581 54.8682 5.03706 53.9276 5.73227C52.9666 6.42747 51.5762 7.12268 49.7564 7.81789C48.4887 8.30863 47.5481 8.80958 46.9347 9.32077C46.3212 9.83195 45.8816 10.4556 45.6158 11.1917C46.7404 10.0262 48.274 9.44345 50.2165 9.44345C51.934 9.44345 53.4471 10.0671 54.7558 11.3144C56.0848 12.5412 56.7494 14.177 56.7494 16.2217C56.7494 18.3278 56.0337 20.0556 54.6024 21.4051C53.1915 22.7546 51.3308 23.4294 49.0203 23.4294ZM48.9589 12.6026C47.9366 12.6026 47.0369 12.9195 46.2599 13.5534C45.4829 14.2077 45.0944 15.0562 45.0944 16.099C45.0944 17.1827 45.4625 18.0722 46.1986 18.7674C46.9551 19.4626 47.8855 19.8102 48.9896 19.8102C50.1142 19.8102 51.0241 19.4728 51.7193 18.7981C52.435 18.1233 52.7928 17.2645 52.7928 16.2217C52.7928 15.1789 52.435 14.3201 51.7193 13.6454C51.0037 12.9502 50.0835 12.6026 48.9589 12.6026ZM73.7528 16.9578H62.1899C62.701 18.8799 64.1426 19.8409 66.5145 19.8409C68.0276 19.8409 69.1726 19.3297 69.9496 18.3073L73.1394 20.1476C71.6263 22.3355 69.3975 23.4294 66.4531 23.4294C63.9177 23.4294 61.8832 22.6626 60.3496 21.1291C58.8161 19.5955 58.0493 17.6633 58.0493 15.3323C58.0493 13.0422 58.8058 11.1201 60.3189 9.56613C61.8116 8.01214 63.7541 7.23514 66.1464 7.23514C68.4161 7.23514 70.2665 8.01214 71.6978 9.56613C73.1701 11.1201 73.9062 13.0422 73.9062 15.3323C73.9062 15.7617 73.855 16.3035 73.7528 16.9578ZM62.1285 13.8907H69.9496C69.7247 12.8888 69.2646 12.122 68.5694 11.5904C67.8947 11.0588 67.087 10.793 66.1464 10.793C65.0832 10.793 64.2039 11.069 63.5087 11.6211C62.8135 12.1527 62.3534 12.9093 62.1285 13.8907ZM85.2867 7.23514C87.3519 7.23514 89.1104 8.02236 90.5621 9.5968C92.0343 11.1712 92.7704 13.0831 92.7704 15.3323C92.7704 17.6224 92.0343 19.5444 90.5621 21.0984C89.1308 22.6524 87.3724 23.4294 85.2867 23.4294C83.1398 23.4294 81.4835 22.6831 80.3181 21.1904V29.1342H76.3615V7.66454H80.3181V9.47412C81.4835 7.98147 83.1398 7.23514 85.2867 7.23514ZM81.5142 18.4607C82.3117 19.2581 83.3238 19.6569 84.5506 19.6569C85.7775 19.6569 86.7896 19.2581 87.5871 18.4607C88.405 17.6428 88.8139 16.6 88.8139 15.3323C88.8139 14.0645 88.405 13.0319 87.5871 12.2345C86.7896 11.4166 85.7775 11.0077 84.5506 11.0077C83.3238 11.0077 82.3117 11.4166 81.5142 12.2345C80.7168 13.0319 80.3181 14.0645 80.3181 15.3323C80.3181 16.6 80.7168 17.6428 81.5142 18.4607ZM99.1186 16.3751L106.326 7.66454H109.271V23H105.406V14.2895L98.1985 23H95.2541V7.66454H99.1186V16.3751ZM111.086 7.66454H124.673V11.4677H119.889V23H115.932V11.4677H111.086V7.66454ZM140.787 16.9578H129.224C129.735 18.8799 131.177 19.8409 133.548 19.8409C135.062 19.8409 136.207 19.3297 136.984 18.3073L140.173 20.1476C138.66 22.3355 136.431 23.4294 133.487 23.4294C130.952 23.4294 128.917 22.6626 127.384 21.1291C125.85 19.5955 125.083 17.6633 125.083 15.3323C125.083 13.0422 125.84 11.1201 127.353 9.56613C128.846 8.01214 130.788 7.23514 133.18 7.23514C135.45 7.23514 137.3 8.01214 138.732 9.56613C140.204 11.1201 140.94 13.0422 140.94 15.3323C140.94 15.7617 140.889 16.3035 140.787 16.9578ZM129.162 13.8907H136.984C136.759 12.8888 136.299 12.122 135.603 11.5904C134.929 11.0588 134.121 10.793 133.18 10.793C132.117 10.793 131.238 11.069 130.543 11.6211C129.847 12.1527 129.387 12.9093 129.162 13.8907ZM158.056 23.4294C155.746 23.4294 153.813 22.6524 152.259 21.0984C150.726 19.5444 149.959 17.6224 149.959 15.3323C149.959 13.0422 150.726 11.1201 152.259 9.56613C153.813 8.01214 155.746 7.23514 158.056 7.23514C159.549 7.23514 160.909 7.59297 162.135 8.30862C163.362 9.02428 164.293 9.9853 164.926 11.1917L161.522 13.1853C161.215 12.5514 160.745 12.0505 160.111 11.6824C159.498 11.3144 158.802 11.1304 158.025 11.1304C156.84 11.1304 155.858 11.5291 155.081 12.3265C154.304 13.1035 153.916 14.1054 153.916 15.3323C153.916 16.5182 154.304 17.5201 155.081 18.338C155.858 19.115 156.84 19.5035 158.025 19.5035C158.823 19.5035 159.528 19.3297 160.142 18.9821C160.776 18.6141 161.246 18.1131 161.553 17.4792L164.988 19.4422C164.313 20.669 163.352 21.6403 162.105 22.3559C160.878 23.0716 159.528 23.4294 158.056 23.4294ZM177.935 15.1482C179.366 15.8434 180.082 17.0089 180.082 18.6447C180.082 19.9534 179.632 21.0064 178.732 21.8038C177.833 22.6013 176.575 23 174.96 23H166.893V7.66454H174.346C175.941 7.66454 177.189 8.06326 178.088 8.8607C178.988 9.6377 179.438 10.6805 179.438 11.9891C179.438 13.3387 178.937 14.3917 177.935 15.1482ZM173.978 10.9157H170.605V13.676H173.978C175.103 13.676 175.665 13.216 175.665 12.2958C175.665 11.3757 175.103 10.9157 173.978 10.9157ZM170.605 19.6569H174.5C175.645 19.6569 176.217 19.1661 176.217 18.1847C176.217 17.7553 176.064 17.4179 175.757 17.1725C175.451 16.9272 175.031 16.8045 174.5 16.8045H170.605V19.6569ZM195.317 21.0984C193.763 22.6524 191.841 23.4294 189.551 23.4294C187.261 23.4294 185.339 22.6524 183.785 21.0984C182.231 19.5444 181.454 17.6224 181.454 15.3323C181.454 13.0626 182.231 11.1508 183.785 9.5968C185.36 8.02236 187.282 7.23514 189.551 7.23514C191.821 7.23514 193.743 8.02236 195.317 9.5968C196.892 11.1712 197.679 13.0831 197.679 15.3323C197.679 17.6019 196.892 19.524 195.317 21.0984ZM186.576 18.3687C187.374 19.1661 188.365 19.5649 189.551 19.5649C190.737 19.5649 191.729 19.1661 192.526 18.3687C193.324 17.5712 193.723 16.5591 193.723 15.3323C193.723 14.1054 193.324 13.0933 192.526 12.2958C191.729 11.4984 190.737 11.0997 189.551 11.0997C188.365 11.0997 187.374 11.4984 186.576 12.2958C185.799 13.1137 185.411 14.1259 185.411 15.3323C185.411 16.5387 185.799 17.5508 186.576 18.3687ZM204.02 16.3751L211.228 7.66454H214.172V23H210.308V14.2895L203.1 23H200.156V7.66454H204.02V16.3751ZM8.40383 47.97L11.8083 37.6645H16.0409L10.4588 53C8.90479 57.3144 6.20575 59.3591 2.36166 59.1342V55.4537C3.40447 55.4741 4.22236 55.2799 4.81534 54.8709C5.42875 54.462 5.91949 53.777 6.28754 52.816L0.0920128 37.6645H4.29393L8.40383 47.97ZM28.6586 45.1482C30.0899 45.8434 30.8056 47.0089 30.8056 48.6447C30.8056 49.9534 30.3558 51.0064 29.4561 51.8038C28.5564 52.6013 27.2989 53 25.6835 53H17.6171V37.6645H25.0701C26.665 37.6645 27.9123 38.0633 28.812 38.8607C29.7117 39.6377 30.1615 40.6805 30.1615 41.9891C30.1615 43.3387 29.6605 44.3917 28.6586 45.1482ZM24.7021 40.9157H21.3283V43.676H24.7021C25.8267 43.676 26.389 43.216 26.389 42.2958C26.389 41.3757 25.8267 40.9157 24.7021 40.9157ZM21.3283 49.6569H25.2235C26.3685 49.6569 26.9411 49.1661 26.9411 48.1847C26.9411 47.7553 26.7877 47.4179 26.481 47.1725C26.1743 46.9272 25.7551 46.8045 25.2235 46.8045H21.3283V49.6569ZM33.8377 37.6645H45.9834V53H42.0268V41.4677H37.7943V46.5898C37.7943 51.3131 35.6371 53.4498 31.3227 53V49.2888C32.1406 49.4933 32.7642 49.3502 33.1936 48.8594C33.623 48.3687 33.8377 47.5406 33.8377 46.3751V37.6645ZM64.1681 46.9578H52.6052C53.1164 48.8799 54.5579 49.8409 56.9298 49.8409C58.4429 49.8409 59.5879 49.3297 60.3649 48.3073L63.5547 50.1476C62.0416 52.3355 59.8129 53.4294 56.8685 53.4294C54.333 53.4294 52.2985 52.6626 50.7649 51.1291C49.2314 49.5955 48.4646 47.6633 48.4646 45.3323C48.4646 43.0422 49.2212 41.1201 50.7343 39.5661C52.2269 38.0121 54.1694 37.2351 56.5617 37.2351C58.8314 37.2351 60.6819 38.0121 62.1132 39.5661C63.5854 41.1201 64.3215 43.0422 64.3215 45.3323C64.3215 45.7617 64.2704 46.3035 64.1681 46.9578ZM52.5439 43.8907H60.3649C60.14 42.8888 59.68 42.122 58.9847 41.5904C58.31 41.0588 57.5023 40.793 56.5617 40.793C55.4985 40.793 54.6192 41.069 53.924 41.6211C53.2288 42.1527 52.7688 42.9093 52.5439 43.8907ZM75.8248 44.4121V37.6645H79.7813V53H75.8248V48.1233C74.6797 48.4914 73.4631 48.6754 72.1749 48.6754C70.2938 48.6754 68.8011 48.1949 67.697 47.2339C66.5928 46.2728 66.0407 44.9131 66.0407 43.1546V37.6645H69.9973V42.6946C69.9973 44.2281 70.9481 44.9949 72.8497 44.9949C73.9743 44.9949 74.966 44.8006 75.8248 44.4121ZM97.9697 46.9578H86.4067C86.9179 48.8799 88.3594 49.8409 90.7313 49.8409C92.2444 49.8409 93.3895 49.3297 94.1665 48.3073L97.3562 50.1476C95.8431 52.3355 93.6144 53.4294 90.67 53.4294C88.1345 53.4294 86.1 52.6626 84.5665 51.1291C83.0329 49.5955 82.2661 47.6633 82.2661 45.3323C82.2661 43.0422 83.0227 41.1201 84.5358 39.5661C86.0284 38.0121 87.9709 37.2351 90.3633 37.2351C92.6329 37.2351 94.4834 38.0121 95.9147 39.5661C97.3869 41.1201 98.123 43.0422 98.123 45.3323C98.123 45.7617 98.0719 46.3035 97.9697 46.9578ZM86.3454 43.8907H94.1665C93.9415 42.8888 93.4815 42.122 92.7863 41.5904C92.1115 41.0588 91.3038 40.793 90.3633 40.793C89.3 40.793 88.4208 41.069 87.7256 41.6211C87.0304 42.1527 86.5703 42.9093 86.3454 43.8907ZM110.638 43.4613V37.6645H114.595V53H110.638V47.1725H104.535V53H100.578V37.6645H104.535V43.4613H110.638ZM121.778 46.3751L128.986 37.6645H131.93V53H128.065V44.2895L120.858 53H117.913V37.6645H121.778V46.3751ZM140.371 37.6645H147.548V53H143.683V48.2153H142.303L138.776 53H134.206L138.04 47.7553C137.058 47.3463 136.271 46.7022 135.678 45.823C135.105 44.9438 134.819 43.9827 134.819 42.9399C134.819 41.5291 135.33 40.292 136.353 39.2288C137.355 38.1859 138.694 37.6645 140.371 37.6645ZM143.683 41.1917H140.677C140.105 41.1917 139.624 41.3655 139.236 41.7131C138.868 42.0607 138.684 42.5105 138.684 43.0626C138.684 43.6147 138.868 44.0543 139.236 44.3815C139.624 44.7086 140.105 44.8722 140.677 44.8722H143.683V41.1917ZM151.766 48.7674H156.06L153.76 57.2939H150.54L151.766 48.7674ZM175.485 44.4121V37.6645H179.441V53H175.485V48.1233C174.34 48.4914 173.123 48.6754 171.835 48.6754C169.954 48.6754 168.461 48.1949 167.357 47.2339C166.253 46.2728 165.701 44.9131 165.701 43.1546V37.6645H169.657V42.6946C169.657 44.2281 170.608 44.9949 172.51 44.9949C173.634 44.9949 174.626 44.8006 175.485 44.4121ZM181.221 37.6645H194.808V41.4677H190.023V53H186.067V41.4677H181.221V37.6645ZM209.081 51.0984C207.527 52.6524 205.605 53.4294 203.315 53.4294C201.025 53.4294 199.103 52.6524 197.549 51.0984C195.995 49.5444 195.218 47.6224 195.218 45.3323C195.218 43.0626 195.995 41.1508 197.549 39.5968C199.123 38.0224 201.045 37.2351 203.315 37.2351C205.585 37.2351 207.507 38.0224 209.081 39.5968C210.656 41.1712 211.443 43.0831 211.443 45.3323C211.443 47.6019 210.656 49.524 209.081 51.0984ZM200.34 48.3687C201.137 49.1661 202.129 49.5649 203.315 49.5649C204.501 49.5649 205.493 49.1661 206.29 48.3687C207.087 47.5712 207.486 46.5591 207.486 45.3323C207.486 44.1054 207.087 43.0933 206.29 42.2958C205.493 41.4984 204.501 41.0997 203.315 41.0997C202.129 41.0997 201.137 41.4984 200.34 42.2958C199.563 43.1137 199.174 44.1259 199.174 45.3323C199.174 46.5387 199.563 47.5508 200.34 48.3687ZM221.188 53.4294C218.776 53.4294 216.823 52.6524 215.33 51.0984C213.858 49.5444 213.122 47.5712 213.122 45.1789C213.122 42.5821 213.51 40.5681 214.287 39.1367C215.044 37.7054 216.608 36.407 218.98 35.2415C219.041 35.2006 219.154 35.1393 219.318 35.0575C219.502 34.9757 219.686 34.8939 219.87 34.8121C220.074 34.7304 220.268 34.6486 220.452 34.5668L221.741 33.9227C222.047 33.7796 222.374 33.5955 222.722 33.3706C223.233 33.0639 223.611 32.747 223.857 32.4198C224.102 32.0927 224.368 31.6019 224.654 30.9476L227.905 32.8185C227.64 34.0658 227.036 35.0371 226.096 35.7323C225.135 36.4275 223.744 37.1227 221.925 37.8179C220.657 38.3086 219.716 38.8096 219.103 39.3208C218.489 39.8319 218.05 40.4556 217.784 41.1917C218.909 40.0262 220.442 39.4434 222.385 39.4434C224.102 39.4434 225.615 40.0671 226.924 41.3144C228.253 42.5412 228.918 44.177 228.918 46.2217C228.918 48.3278 228.202 50.0556 226.771 51.4051C225.36 52.7546 223.499 53.4294 221.188 53.4294ZM221.127 42.6026C220.105 42.6026 219.205 42.9195 218.428 43.5534C217.651 44.2077 217.263 45.0562 217.263 46.099C217.263 47.1827 217.631 48.0722 218.367 48.7674C219.123 49.4626 220.054 49.8102 221.158 49.8102C222.282 49.8102 223.192 49.4728 223.887 48.7981C224.603 48.1233 224.961 47.2645 224.961 46.2217C224.961 45.1789 224.603 44.3201 223.887 43.6454C223.172 42.9502 222.252 42.6026 221.127 42.6026ZM234.971 42.5719H237.946C239.685 42.5719 241.085 43.0524 242.148 44.0134C243.212 44.954 243.743 46.2115 243.743 47.7859C243.743 49.3604 243.212 50.6281 242.148 51.5891C241.085 52.5297 239.685 53 237.946 53H231.015V37.6645H234.971V42.5719ZM245.43 53V37.6645H249.387V53H245.43ZM234.971 49.5035H237.977C238.529 49.5035 238.979 49.3502 239.327 49.0435C239.695 48.7163 239.879 48.2971 239.879 47.7859C239.879 47.2748 239.695 46.8556 239.327 46.5284C238.979 46.2013 238.529 46.0377 237.977 46.0377H234.971V49.5035ZM272.108 37.6645H276.003V53H272.169V44.0441L268.274 50.1783H267.783L263.857 43.9827V53H260.054V37.6645H263.949L268.028 44.1054L272.108 37.6645ZM283.263 42.5719H286.238C287.976 42.5719 289.376 43.0524 290.44 44.0134C291.503 44.954 292.034 46.2115 292.034 47.7859C292.034 49.3604 291.503 50.6281 290.44 51.5891C289.376 52.5297 287.976 53 286.238 53H279.306V37.6645H283.263V42.5719ZM293.721 53V37.6645H297.678V53H293.721ZM283.263 49.5035H286.268C286.82 49.5035 287.27 49.3502 287.618 49.0435C287.986 48.7163 288.17 48.2971 288.17 47.7859C288.17 47.2748 287.986 46.8556 287.618 46.5284C287.27 46.2013 286.82 46.0377 286.268 46.0377H283.263V49.5035ZM1.80958 68.6645H15.8262V84H11.8696V72.3757H5.76613V84H1.80958V68.6645ZM28.0699 68.2351C30.1351 68.2351 31.8935 69.0224 33.3453 70.5968C34.8175 72.1712 35.5536 74.0831 35.5536 76.3323C35.5536 78.6224 34.8175 80.5444 33.3453 82.0984C31.914 83.6524 30.1555 84.4294 28.0699 84.4294C25.9229 84.4294 24.2667 83.6831 23.1012 82.1904V90.1342H19.1446V68.6645H23.1012V70.4741C24.2667 68.9815 25.9229 68.2351 28.0699 68.2351ZM24.2974 79.4607C25.0948 80.2581 26.1069 80.6569 27.3338 80.6569C28.5606 80.6569 29.5728 80.2581 30.3702 79.4607C31.1881 78.6428 31.597 77.6 31.597 76.3323C31.597 75.0645 31.1881 74.0319 30.3702 73.2345C29.5728 72.4166 28.5606 72.0077 27.3338 72.0077C26.1069 72.0077 25.0948 72.4166 24.2974 73.2345C23.4999 74.0319 23.1012 75.0645 23.1012 76.3323C23.1012 77.6 23.4999 78.6428 24.2974 79.4607ZM52.9433 77.9578H41.3804C41.8915 79.8799 43.3331 80.8409 45.705 80.8409C47.2181 80.8409 48.3631 80.3297 49.1401 79.3073L52.3299 81.1476C50.8168 83.3355 48.588 84.4294 45.6436 84.4294C43.1081 84.4294 41.0736 83.6626 39.5401 82.1291C38.0066 80.5955 37.2398 78.6633 37.2398 76.3323C37.2398 74.0422 37.9963 72.1201 39.5094 70.5661C41.0021 69.0121 42.9446 68.2351 45.3369 68.2351C47.6066 68.2351 49.457 69.0121 50.8883 70.5661C52.3605 72.1201 53.0966 74.0422 53.0966 76.3323C53.0966 76.7617 53.0455 77.3035 52.9433 77.9578ZM41.319 74.8907H49.1401C48.9152 73.8888 48.4551 73.122 47.7599 72.5904C47.0851 72.0588 46.2775 71.793 45.3369 71.793C44.2736 71.793 43.3944 72.069 42.6992 72.6211C42.004 73.1527 41.5439 73.9093 41.319 74.8907ZM68.7549 68.6645V80.2888H70.7792V88.1099H66.9146V84H57.4066V88.1099H53.5421V80.2888H55.413C56.2923 78.9802 56.7319 77.1706 56.7319 74.8601V68.6645H68.7549ZM59.6456 80.2888H64.8903V72.2224H60.5964V74.8601C60.5964 77.0684 60.2795 78.878 59.6456 80.2888ZM73.9891 68.6645H86.1347V84H82.1782V72.4677H77.9456V77.5898C77.9456 82.3131 75.7884 84.4498 71.474 84V80.2888C72.2919 80.4933 72.9156 80.3502 73.345 79.8594C73.7744 79.3687 73.9891 78.5406 73.9891 77.3751V68.6645ZM101.068 70.4741V68.6645H105.025V84H101.068V82.1904C99.8824 83.6831 98.216 84.4294 96.069 84.4294C94.0243 84.4294 92.2658 83.6524 90.7936 82.0984C89.3419 80.524 88.616 78.6019 88.616 76.3323C88.616 74.0831 89.3419 72.1712 90.7936 70.5968C92.2658 69.0224 94.0243 68.2351 96.069 68.2351C98.216 68.2351 99.8824 68.9815 101.068 70.4741ZM93.7687 79.4607C94.5661 80.2581 95.5783 80.6569 96.8051 80.6569C98.032 80.6569 99.0441 80.2581 99.8415 79.4607C100.659 78.6428 101.068 77.6 101.068 76.3323C101.068 75.0645 100.659 74.0319 99.8415 73.2345C99.0441 72.4166 98.032 72.0077 96.8051 72.0077C95.5783 72.0077 94.5661 72.4166 93.7687 73.2345C92.9712 74.0319 92.5725 75.0645 92.5725 76.3323C92.5725 77.6 92.9712 78.6428 93.7687 79.4607ZM108.306 68.6645H118.795V72.4677H112.263V84H108.306V68.6645ZM131.665 70.4741V68.6645H135.622V84H131.665V82.1904C130.479 83.6831 128.813 84.4294 126.666 84.4294C124.621 84.4294 122.862 83.6524 121.39 82.0984C119.939 80.524 119.213 78.6019 119.213 76.3323C119.213 74.0831 119.939 72.1712 121.39 70.5968C122.862 69.0224 124.621 68.2351 126.666 68.2351C128.813 68.2351 130.479 68.9815 131.665 70.4741ZM124.365 79.4607C125.163 80.2581 126.175 80.6569 127.402 80.6569C128.629 80.6569 129.641 80.2581 130.438 79.4607C131.256 78.6428 131.665 77.6 131.665 76.3323C131.665 75.0645 131.256 74.0319 130.438 73.2345C129.641 72.4166 128.629 72.0077 127.402 72.0077C126.175 72.0077 125.163 72.4166 124.365 73.2345C123.568 74.0319 123.169 75.0645 123.169 76.3323C123.169 77.6 123.568 78.6428 124.365 79.4607ZM139.915 68.6645H152.06V84H148.104V72.4677H143.871V77.5898C143.871 82.3131 141.714 84.4498 137.4 84V80.2888C138.218 80.4933 138.841 80.3502 139.271 79.8594C139.7 79.3687 139.915 78.5406 139.915 77.3751V68.6645ZM159.204 77.3751L166.411 68.6645H169.356V84H165.491V75.2895L158.284 84H155.339V68.6645H159.204V77.3751ZM183.9 77.3751L191.107 68.6645H194.052V84H190.187V75.2895L182.98 84H180.035V68.6645H183.9V77.3751ZM205.897 76.1482L211.51 84H206.94L203.627 79.338L200.284 84H195.714L201.327 76.1789L195.959 68.6645H200.529L203.627 72.9891L206.725 68.6645H211.264L205.897 76.1482ZM229.587 75.4121V68.6645H233.543V84H229.587V79.1233C228.442 79.4914 227.225 79.6754 225.937 79.6754C224.056 79.6754 222.563 79.1949 221.459 78.2339C220.355 77.2728 219.803 75.9131 219.803 74.1546V68.6645H223.759V73.6946C223.759 75.2281 224.71 75.9949 226.612 75.9949C227.736 75.9949 228.728 75.8006 229.587 75.4121ZM248.481 70.4741V68.6645H252.437V84H248.481V82.1904C247.295 83.6831 245.628 84.4294 243.481 84.4294C241.436 84.4294 239.678 83.6524 238.206 82.0984C236.754 80.524 236.028 78.6019 236.028 76.3323C236.028 74.0831 236.754 72.1712 238.206 70.5968C239.678 69.0224 241.436 68.2351 243.481 68.2351C245.628 68.2351 247.295 68.9815 248.481 70.4741ZM241.181 79.4607C241.978 80.2581 242.99 80.6569 244.217 80.6569C245.444 80.6569 246.456 80.2581 247.254 79.4607C248.072 78.6428 248.481 77.6 248.481 76.3323C248.481 75.0645 248.072 74.0319 247.254 73.2345C246.456 72.4166 245.444 72.0077 244.217 72.0077C242.99 72.0077 241.978 72.4166 241.181 73.2345C240.383 74.0319 239.985 75.0645 239.985 76.3323C239.985 77.6 240.383 78.6428 241.181 79.4607ZM277.188 68.6645V80.2888H279.212V88.1099H275.348V84H255.718V68.6645H259.675V80.2888H264.459V68.6645H268.416V80.2888H273.231V68.6645H277.188ZM295.717 77.9578H284.154C284.665 79.8799 286.107 80.8409 288.479 80.8409C289.992 80.8409 291.137 80.3297 291.914 79.3073L295.103 81.1476C293.59 83.3355 291.362 84.4294 288.417 84.4294C285.882 84.4294 283.847 83.6626 282.314 82.1291C280.78 80.5955 280.013 78.6633 280.013 76.3323C280.013 74.0422 280.77 72.1201 282.283 70.5661C283.776 69.0121 285.718 68.2351 288.11 68.2351C290.38 68.2351 292.231 69.0121 293.662 70.5661C295.134 72.1201 295.87 74.0422 295.87 76.3323C295.87 76.7617 295.819 77.3035 295.717 77.9578ZM284.093 74.8907H291.914C291.689 73.8888 291.229 73.122 290.533 72.5904C289.859 72.0588 289.051 71.793 288.11 71.793C287.047 71.793 286.168 72.069 285.473 72.6211C284.778 73.1527 284.317 73.9093 284.093 74.8907ZM302.19 76.7923H299.062L298.234 68.6645V62.5303H302.988V68.6645L302.19 76.7923ZM303.233 81.7917C303.233 82.5073 302.977 83.1208 302.466 83.6319C301.955 84.1431 301.342 84.3987 300.626 84.3987C299.91 84.3987 299.297 84.1431 298.786 83.6319C298.274 83.1208 298.019 82.5073 298.019 81.7917C298.019 81.076 298.274 80.4626 298.786 79.9514C299.297 79.4403 299.91 79.1847 300.626 79.1847C301.342 79.1847 301.955 79.4403 302.466 79.9514C302.977 80.4626 303.233 81.076 303.233 81.7917Z" fill="#F4F8FD"/>
</svg>
