<svg width="143" height="34" viewBox="0 0 143 34" fill="none" xmlns="http://www.w3.org/2000/svg">
<rect y="0.5" width="143" height="33" rx="16.5" fill="white"/>
<path d="M34.1513 12.0394H32.4978L31.4478 10.9895C31.0676 10.6101 30.5546 10.3936 30.0176 10.3859H27.9507C27.8349 9.92195 27.5699 9.50885 27.1965 9.21011C26.8231 8.91138 26.3619 8.74355 25.8838 8.73242V13.9906C25.9263 14.8255 26.2564 15.6201 26.818 16.2394C27.7428 17.1284 28.9524 17.6614 30.2325 17.744L33.0848 16.6031C33.4195 16.4688 33.7208 16.2631 33.9678 16.0004C34.2149 15.7376 34.4016 15.4242 34.5151 15.0819L34.9781 13.817C34.9914 13.732 34.9914 13.6456 34.9781 13.5607V12.8662C34.9781 12.6469 34.891 12.4366 34.7359 12.2816C34.5809 12.1265 34.3706 12.0394 34.1513 12.0394ZM30.0176 13.6929C29.854 13.6929 29.6942 13.6445 29.5582 13.5536C29.4223 13.4628 29.3163 13.3336 29.2537 13.1826C29.1912 13.0315 29.1748 12.8653 29.2067 12.7049C29.2386 12.5445 29.3173 12.3972 29.433 12.2816C29.5486 12.166 29.6959 12.0872 29.8563 12.0553C30.0166 12.0234 30.1829 12.0398 30.3339 12.1024C30.485 12.1649 30.6141 12.2709 30.705 12.4069C30.7958 12.5428 30.8443 12.7027 30.8443 12.8662C30.8443 13.0855 30.7572 13.2958 30.6022 13.4508C30.4471 13.6058 30.2368 13.6929 30.0176 13.6929Z" fill="#4293EF"/>
<path d="M26.1983 16.7851C25.6216 16.1535 25.2447 15.3653 25.1153 14.5198H21.7504C21.5295 14.5344 21.308 14.5017 21.1007 14.4237C20.8935 14.3458 20.7053 14.2245 20.5487 14.068C20.3922 13.9114 20.2709 13.7232 20.1929 13.516C20.115 13.3087 20.0823 13.0872 20.0969 12.8663C20.0969 12.647 20.0098 12.4367 19.8547 12.2817C19.6997 12.1267 19.4894 12.0396 19.2701 12.0396C19.0508 12.0396 18.8406 12.1267 18.6855 12.2817C18.5305 12.4367 18.4434 12.647 18.4434 12.8663C18.4519 13.44 18.5875 14.0047 18.8402 14.5198C19.12 15.06 19.5586 15.5014 20.0969 15.7847V25.2676H22.5771V21.1338H27.5377V25.2676H30.0179V18.5461C28.5757 18.4325 27.2213 17.8081 26.1983 16.7851Z" fill="#4293EF"/>
<path d="M49.1459 16.1L53.6609 21.5H52.4309L48.1109 16.37V21.5H47.0609V16.37L42.7409 21.5H41.5109L46.0259 16.1L41.6609 11H42.8909L47.0609 15.845V11H48.1109V15.845L52.2809 11H53.5109L49.1459 16.1ZM55.8451 19.775L60.3151 14H61.1551V21.5H60.1651V15.725L55.6951 21.5H54.8551V14H55.8451V19.775ZM67.8686 17.645C68.6886 17.945 69.0986 18.53 69.0986 19.4C69.0986 20.02 68.8886 20.525 68.4686 20.915C68.0586 21.305 67.4836 21.5 66.7436 21.5H63.0986V14H66.4436C67.1636 14 67.7236 14.185 68.1236 14.555C68.5336 14.925 68.7386 15.41 68.7386 16.01C68.7386 16.76 68.4486 17.305 67.8686 17.645ZM66.4436 14.96H64.0886V17.24H66.4436C67.3136 17.24 67.7486 16.85 67.7486 16.07C67.7486 15.72 67.6336 15.45 67.4036 15.26C67.1836 15.06 66.8636 14.96 66.4436 14.96ZM64.0886 20.54H66.7436C67.1836 20.54 67.5186 20.435 67.7486 20.225C67.9886 20.015 68.1086 19.72 68.1086 19.34C68.1086 18.98 67.9886 18.7 67.7486 18.5C67.5186 18.3 67.1836 18.2 66.7436 18.2H64.0886V20.54ZM76.7336 20.555C75.9636 21.305 75.0336 21.68 73.9436 21.68C72.8336 21.68 71.8986 21.305 71.1386 20.555C70.3786 19.795 69.9986 18.86 69.9986 17.75C69.9986 16.64 70.3786 15.71 71.1386 14.96C71.8986 14.2 72.8336 13.82 73.9436 13.82C75.0436 13.82 75.9736 14.2 76.7336 14.96C77.5036 15.71 77.8886 16.64 77.8886 17.75C77.8886 18.85 77.5036 19.785 76.7336 20.555ZM71.8436 19.865C72.4136 20.435 73.1136 20.72 73.9436 20.72C74.7736 20.72 75.4736 20.435 76.0436 19.865C76.6136 19.275 76.8986 18.57 76.8986 17.75C76.8986 16.92 76.6136 16.22 76.0436 15.65C75.4736 15.07 74.7736 14.78 73.9436 14.78C73.1136 14.78 72.4136 15.07 71.8436 15.65C71.2736 16.22 70.9886 16.92 70.9886 17.75C70.9886 18.57 71.2736 19.275 71.8436 19.865ZM78.2023 14H84.5023V14.96H81.8473V21.5H80.8573V14.96H78.2023V14ZM90.8688 17.27V14H91.8588V21.5H90.8688V18.23H86.5488V21.5H85.5588V14H86.5488V17.27H90.8688ZM94.7923 16.85H96.8473C97.5373 16.85 98.1273 17.07 98.6173 17.51C99.1073 17.94 99.3523 18.495 99.3523 19.175C99.3523 19.865 99.1073 20.425 98.6173 20.855C98.1473 21.285 97.5573 21.5 96.8473 21.5H93.8023V14H94.7923V16.85ZM100.402 21.5V14H101.392V21.5H100.402ZM94.7923 20.54H96.8473C97.2773 20.54 97.6373 20.415 97.9273 20.165C98.2173 19.905 98.3623 19.575 98.3623 19.175C98.3623 18.775 98.2173 18.45 97.9273 18.2C97.6373 17.94 97.2773 17.81 96.8473 17.81H94.7923V20.54ZM106.815 13.82C107.935 13.82 108.83 14.215 109.5 15.005C110.19 15.785 110.535 16.71 110.535 17.78C110.535 17.83 110.525 17.985 110.505 18.245H103.92C104.02 18.995 104.34 19.595 104.88 20.045C105.42 20.495 106.095 20.72 106.905 20.72C108.045 20.72 108.85 20.295 109.32 19.445L110.19 19.955C109.86 20.495 109.405 20.92 108.825 21.23C108.255 21.53 107.61 21.68 106.89 21.68C105.71 21.68 104.75 21.31 104.01 20.57C103.27 19.83 102.9 18.89 102.9 17.75C102.9 16.62 103.265 15.685 103.995 14.945C104.725 14.195 105.665 13.82 106.815 13.82ZM106.815 14.78C106.035 14.78 105.38 15.01 104.85 15.47C104.33 15.93 104.02 16.535 103.92 17.285H109.515C109.405 16.485 109.1 15.87 108.6 15.44C108.08 15 107.485 14.78 106.815 14.78Z" fill="black"/>
</svg>
