<svg width="143" height="34" viewBox="0 0 143 34" fill="none" xmlns="http://www.w3.org/2000/svg">
<rect y="0.5" width="143" height="33" rx="16.5" fill="white"/>
<path d="M25.947 24.6318C24.9448 24.6318 23.9524 24.4344 23.0265 24.0509C22.1006 23.6674 21.2593 23.1052 20.5507 22.3966C19.1195 20.9654 18.3154 19.0243 18.3154 17.0002C18.3154 14.9762 19.1195 13.0351 20.5507 11.6039C21.9819 10.1727 23.923 9.36865 25.947 9.36865C30.1444 9.36865 33.5786 12.4213 33.5786 16.2371C33.5786 17.4515 33.0962 18.6162 32.2374 19.4749C31.3787 20.3336 30.2141 20.816 28.9996 20.816H27.626C27.397 20.816 27.2444 20.9687 27.2444 21.1976C27.2444 21.2739 27.3207 21.3502 27.3207 21.4265C27.626 21.8081 27.7786 22.266 27.7786 22.7239C27.8549 23.7923 27.0154 24.6318 25.947 24.6318ZM25.947 10.895C24.3278 10.895 22.7749 11.5382 21.6299 12.6832C20.485 13.8281 19.8417 15.381 19.8417 17.0002C19.8417 18.6194 20.485 20.1723 21.6299 21.3173C22.7749 22.4623 24.3278 23.1055 25.947 23.1055C26.176 23.1055 26.3286 22.9529 26.3286 22.7239C26.3286 22.5713 26.2523 22.495 26.2523 22.4187C25.947 22.0371 25.7944 21.6555 25.7944 21.1976C25.7944 20.1292 26.6339 19.2897 27.7023 19.2897H28.9996C29.8092 19.2897 30.5857 18.9681 31.1582 18.3956C31.7307 17.8231 32.0523 17.0467 32.0523 16.2371C32.0523 13.2608 29.3049 10.895 25.947 10.895ZM21.7496 15.4739C22.3602 15.4739 22.8944 16.0081 22.8944 16.6187C22.8944 17.2292 22.3602 17.7634 21.7496 17.7634C21.1391 17.7634 20.6049 17.2292 20.6049 16.6187C20.6049 16.0081 21.1391 15.4739 21.7496 15.4739ZM24.0391 12.4213C24.6496 12.4213 25.1839 12.9555 25.1839 13.566C25.1839 14.1765 24.6496 14.7108 24.0391 14.7108C23.4286 14.7108 22.8944 14.1765 22.8944 13.566C22.8944 12.9555 23.4286 12.4213 24.0391 12.4213ZM27.8549 12.4213C28.4654 12.4213 28.9996 12.9555 28.9996 13.566C28.9996 14.1765 28.4654 14.7108 27.8549 14.7108C27.2444 14.7108 26.7102 14.1765 26.7102 13.566C26.7102 12.9555 27.2444 12.4213 27.8549 12.4213ZM30.1444 15.4739C30.7549 15.4739 31.2891 16.0081 31.2891 16.6187C31.2891 17.2292 30.7549 17.7634 30.1444 17.7634C29.5339 17.7634 28.9996 17.2292 28.9996 16.6187C28.9996 16.0081 29.5339 15.4739 30.1444 15.4739Z" fill="#4293EF"/>
<path d="M39.9846 11H47.4846V11.99H44.2596V21.5H43.2096V11.99H39.9846V11ZM52.4005 17.645C53.2205 17.945 53.6305 18.53 53.6305 19.4C53.6305 20.02 53.4205 20.525 53.0005 20.915C52.5905 21.305 52.0155 21.5 51.2755 21.5H47.6305V14H50.9755C51.6955 14 52.2555 14.185 52.6555 14.555C53.0655 14.925 53.2705 15.41 53.2705 16.01C53.2705 16.76 52.9805 17.305 52.4005 17.645ZM50.9755 14.96H48.6205V17.24H50.9755C51.8455 17.24 52.2805 16.85 52.2805 16.07C52.2805 15.72 52.1655 15.45 51.9355 15.26C51.7155 15.06 51.3955 14.96 50.9755 14.96ZM48.6205 20.54H51.2755C51.7155 20.54 52.0505 20.435 52.2805 20.225C52.5205 20.015 52.6405 19.72 52.6405 19.34C52.6405 18.98 52.5205 18.7 52.2805 18.5C52.0505 18.3 51.7155 18.2 51.2755 18.2H48.6205V20.54ZM61.2655 20.555C60.4955 21.305 59.5655 21.68 58.4755 21.68C57.3655 21.68 56.4305 21.305 55.6705 20.555C54.9105 19.795 54.5305 18.86 54.5305 17.75C54.5305 16.64 54.9105 15.71 55.6705 14.96C56.4305 14.2 57.3655 13.82 58.4755 13.82C59.5755 13.82 60.5055 14.2 61.2655 14.96C62.0355 15.71 62.4205 16.64 62.4205 17.75C62.4205 18.85 62.0355 19.785 61.2655 20.555ZM56.3755 19.865C56.9455 20.435 57.6455 20.72 58.4755 20.72C59.3055 20.72 60.0055 20.435 60.5755 19.865C61.1455 19.275 61.4305 18.57 61.4305 17.75C61.4305 16.92 61.1455 16.22 60.5755 15.65C60.0055 15.07 59.3055 14.78 58.4755 14.78C57.6455 14.78 56.9455 15.07 56.3755 15.65C55.8055 16.22 55.5205 16.92 55.5205 17.75C55.5205 18.57 55.8055 19.275 56.3755 19.865ZM67.9471 13.82C69.0171 13.82 69.9271 14.2 70.6771 14.96C71.4371 15.72 71.8171 16.65 71.8171 17.75C71.8171 18.85 71.4371 19.78 70.6771 20.54C69.9271 21.3 69.0171 21.68 67.9471 21.68C66.6171 21.68 65.6071 21.13 64.9171 20.03V24.5H63.9271V14H64.9171V15.47C65.6071 14.37 66.6171 13.82 67.9471 13.82ZM65.7721 19.865C66.3421 20.435 67.0421 20.72 67.8721 20.72C68.7021 20.72 69.4021 20.435 69.9721 19.865C70.5421 19.275 70.8271 18.57 70.8271 17.75C70.8271 16.92 70.5421 16.22 69.9721 15.65C69.4021 15.07 68.7021 14.78 67.8721 14.78C67.0421 14.78 66.3421 15.07 65.7721 15.65C65.2021 16.22 64.9171 16.92 64.9171 17.75C64.9171 18.57 65.2021 19.275 65.7721 19.865ZM78.0268 17.735V14H79.0168V21.5H78.0268V18.65C77.4468 18.95 76.7318 19.1 75.8818 19.1C74.8918 19.1 74.1418 18.875 73.6318 18.425C73.1218 17.965 72.8668 17.29 72.8668 16.4V14H73.8568V16.4C73.8568 17.02 74.0168 17.47 74.3368 17.75C74.6668 18.03 75.1718 18.17 75.8518 18.17C76.6118 18.17 77.3368 18.025 78.0268 17.735ZM84.4359 13.82C85.5559 13.82 86.4509 14.215 87.1209 15.005C87.8109 15.785 88.1559 16.71 88.1559 17.78C88.1559 17.83 88.1459 17.985 88.1259 18.245H81.5409C81.6409 18.995 81.9609 19.595 82.5009 20.045C83.0409 20.495 83.7159 20.72 84.5259 20.72C85.6659 20.72 86.4709 20.295 86.9409 19.445L87.8109 19.955C87.4809 20.495 87.0259 20.92 86.4459 21.23C85.8759 21.53 85.2309 21.68 84.5109 21.68C83.3309 21.68 82.3709 21.31 81.6309 20.57C80.8909 19.83 80.5209 18.89 80.5209 17.75C80.5209 16.62 80.8859 15.685 81.6159 14.945C82.3459 14.195 83.2859 13.82 84.4359 13.82ZM84.4359 14.78C83.6559 14.78 83.0009 15.01 82.4709 15.47C81.9509 15.93 81.6409 16.535 81.5409 17.285H87.1359C87.0259 16.485 86.7209 15.87 86.2209 15.44C85.7009 15 85.1059 14.78 84.4359 14.78ZM93.0757 21.68C91.9457 21.68 91.0057 21.305 90.2557 20.555C89.5057 19.785 89.1307 18.85 89.1307 17.75C89.1307 16.64 89.5057 15.71 90.2557 14.96C91.0057 14.2 91.9457 13.82 93.0757 13.82C93.8157 13.82 94.4807 14 95.0707 14.36C95.6607 14.71 96.0907 15.185 96.3607 15.785L95.5507 16.25C95.3507 15.8 95.0257 15.445 94.5757 15.185C94.1357 14.915 93.6357 14.78 93.0757 14.78C92.2457 14.78 91.5457 15.07 90.9757 15.65C90.4057 16.22 90.1207 16.92 90.1207 17.75C90.1207 18.57 90.4057 19.275 90.9757 19.865C91.5457 20.435 92.2457 20.72 93.0757 20.72C93.6257 20.72 94.1207 20.59 94.5607 20.33C95.0107 20.07 95.3607 19.71 95.6107 19.25L96.4357 19.73C96.1257 20.33 95.6707 20.805 95.0707 21.155C94.4707 21.505 93.8057 21.68 93.0757 21.68ZM96.6605 14H102.961V14.96H100.306V21.5H99.3155V14.96H96.6605V14ZM108.787 17.645C109.607 17.945 110.017 18.53 110.017 19.4C110.017 20.02 109.807 20.525 109.387 20.915C108.977 21.305 108.402 21.5 107.662 21.5H104.017V14H107.362C108.082 14 108.642 14.185 109.042 14.555C109.452 14.925 109.657 15.41 109.657 16.01C109.657 16.76 109.367 17.305 108.787 17.645ZM107.362 14.96H105.007V17.24H107.362C108.232 17.24 108.667 16.85 108.667 16.07C108.667 15.72 108.552 15.45 108.322 15.26C108.102 15.06 107.782 14.96 107.362 14.96ZM105.007 20.54H107.662C108.102 20.54 108.437 20.435 108.667 20.225C108.907 20.015 109.027 19.72 109.027 19.34C109.027 18.98 108.907 18.7 108.667 18.5C108.437 18.3 108.102 18.2 107.662 18.2H105.007V20.54ZM117.652 20.555C116.882 21.305 115.952 21.68 114.862 21.68C113.752 21.68 112.817 21.305 112.057 20.555C111.297 19.795 110.917 18.86 110.917 17.75C110.917 16.64 111.297 15.71 112.057 14.96C112.817 14.2 113.752 13.82 114.862 13.82C115.962 13.82 116.892 14.2 117.652 14.96C118.422 15.71 118.807 16.64 118.807 17.75C118.807 18.85 118.422 19.785 117.652 20.555ZM112.762 19.865C113.332 20.435 114.032 20.72 114.862 20.72C115.692 20.72 116.392 20.435 116.962 19.865C117.532 19.275 117.817 18.57 117.817 17.75C117.817 16.92 117.532 16.22 116.962 15.65C116.392 15.07 115.692 14.78 114.862 14.78C114.032 14.78 113.332 15.07 112.762 15.65C112.192 16.22 111.907 16.92 111.907 17.75C111.907 18.57 112.192 19.275 112.762 19.865Z" fill="black"/>
</svg>
