<svg width="143" height="34" viewBox="0 0 143 34" fill="none" xmlns="http://www.w3.org/2000/svg">
<rect y="0.5" width="143" height="33" rx="16.5" fill="white"/>
<g clip-path="url(#clip0_3374_379)">
<path d="M28.1412 23.6775C27.952 23.6775 27.7936 23.6134 27.6658 23.4852C27.538 23.357 27.4739 23.1985 27.4735 23.0098C27.473 22.821 27.5371 22.6625 27.6658 22.5343C27.7945 22.4061 27.9529 22.342 28.1412 22.342H30.1445V21.0065H28.1412C27.952 21.0065 27.7936 20.9424 27.6658 20.8142C27.538 20.6859 27.4739 20.5275 27.4735 20.3387C27.473 20.15 27.5371 19.9915 27.6658 19.8633C27.7945 19.7351 27.9529 19.6709 28.1412 19.6709H30.1445V18.3354H28.1412C27.952 18.3354 27.7936 18.2713 27.6658 18.1431C27.538 18.0149 27.4739 17.8564 27.4735 17.6677C27.473 17.4789 27.5371 17.3204 27.6658 17.1922C27.7945 17.064 27.9529 16.9999 28.1412 16.9999H30.1445V15.6644H28.1412C27.952 15.6644 27.7936 15.6003 27.6658 15.4721C27.538 15.3438 27.4739 15.1854 27.4735 14.9966C27.473 14.8079 27.5371 14.6494 27.6658 14.5212C27.7945 14.3929 27.9529 14.3288 28.1412 14.3288H30.1445V12.9933H28.1412C27.952 12.9933 27.7936 12.9292 27.6658 12.801C27.538 12.6728 27.4739 12.5143 27.4735 12.3256C27.473 12.1368 27.5371 11.9783 27.6658 11.8501C27.7945 11.7219 27.9529 11.6578 28.1412 11.6578H30.8123C31.1796 11.6578 31.4941 11.7887 31.7558 12.0504C32.0176 12.3122 32.1483 12.6265 32.1478 12.9933V22.342C32.1478 22.7093 32.0172 23.0238 31.7558 23.2856C31.4945 23.5473 31.18 23.678 30.8123 23.6775H28.1412ZM20.1281 23.6775L17.457 16.3321L20.7958 14.3288V10.3223H23.4669V14.3288L26.8057 16.3321L24.1347 23.6775H20.1281Z" fill="#4293EF"/>
</g>
<path d="M40.7545 16.1L45.9445 21.5H44.5645L39.6445 16.415V21.5H38.5945V11H39.6445V15.8L44.4145 11H45.7945L40.7545 16.1ZM51.0157 13.82C52.0857 13.82 52.9957 14.2 53.7457 14.96C54.5057 15.72 54.8857 16.65 54.8857 17.75C54.8857 18.85 54.5057 19.78 53.7457 20.54C52.9957 21.3 52.0857 21.68 51.0157 21.68C49.6857 21.68 48.6757 21.13 47.9857 20.03V24.5H46.9957V14H47.9857V15.47C48.6757 14.37 49.6857 13.82 51.0157 13.82ZM48.8407 19.865C49.4107 20.435 50.1107 20.72 50.9407 20.72C51.7707 20.72 52.4707 20.435 53.0407 19.865C53.6107 19.275 53.8957 18.57 53.8957 17.75C53.8957 16.92 53.6107 16.22 53.0407 15.65C52.4707 15.07 51.7707 14.78 50.9407 14.78C50.1107 14.78 49.4107 15.07 48.8407 15.65C48.2707 16.22 47.9857 16.92 47.9857 17.75C47.9857 18.57 48.2707 19.275 48.8407 19.865ZM62.8318 15.47V14H63.8218V21.5H62.8318V20.03C62.1418 21.13 61.1318 21.68 59.8018 21.68C58.7318 21.68 57.8168 21.3 57.0568 20.54C56.3068 19.78 55.9318 18.85 55.9318 17.75C55.9318 16.65 56.3068 15.72 57.0568 14.96C57.8168 14.2 58.7318 13.82 59.8018 13.82C61.1318 13.82 62.1418 14.37 62.8318 15.47ZM57.7768 19.865C58.3468 20.435 59.0468 20.72 59.8768 20.72C60.7068 20.72 61.4068 20.435 61.9768 19.865C62.5468 19.275 62.8318 18.57 62.8318 17.75C62.8318 16.92 62.5468 16.22 61.9768 15.65C61.4068 15.07 60.7068 14.78 59.8768 14.78C59.0468 14.78 58.3468 15.07 57.7768 15.65C57.2068 16.22 56.9218 16.92 56.9218 17.75C56.9218 18.57 57.2068 19.275 57.7768 19.865ZM69.263 21.68C68.133 21.68 67.193 21.305 66.443 20.555C65.693 19.785 65.318 18.85 65.318 17.75C65.318 16.64 65.693 15.71 66.443 14.96C67.193 14.2 68.133 13.82 69.263 13.82C70.003 13.82 70.668 14 71.258 14.36C71.848 14.71 72.278 15.185 72.548 15.785L71.738 16.25C71.538 15.8 71.213 15.445 70.763 15.185C70.323 14.915 69.823 14.78 69.263 14.78C68.433 14.78 67.733 15.07 67.163 15.65C66.593 16.22 66.308 16.92 66.308 17.75C66.308 18.57 66.593 19.275 67.163 19.865C67.733 20.435 68.433 20.72 69.263 20.72C69.813 20.72 70.308 20.59 70.748 20.33C71.198 20.07 71.548 19.71 71.798 19.25L72.623 19.73C72.313 20.33 71.858 20.805 71.258 21.155C70.658 21.505 69.993 21.68 69.263 21.68ZM80.1061 20.555C79.3361 21.305 78.4061 21.68 77.3161 21.68C76.2061 21.68 75.2711 21.305 74.5111 20.555C73.7511 19.795 73.3711 18.86 73.3711 17.75C73.3711 16.64 73.7511 15.71 74.5111 14.96C75.2711 14.2 76.2061 13.82 77.3161 13.82C78.4161 13.82 79.3461 14.2 80.1061 14.96C80.8761 15.71 81.2611 16.64 81.2611 17.75C81.2611 18.85 80.8761 19.785 80.1061 20.555ZM75.2161 19.865C75.7861 20.435 76.4861 20.72 77.3161 20.72C78.1461 20.72 78.8461 20.435 79.4161 19.865C79.9861 19.275 80.2711 18.57 80.2711 17.75C80.2711 16.92 79.9861 16.22 79.4161 15.65C78.8461 15.07 78.1461 14.78 77.3161 14.78C76.4861 14.78 75.7861 15.07 75.2161 15.65C74.6461 16.22 74.3611 16.92 74.3611 17.75C74.3611 18.57 74.6461 19.275 75.2161 19.865ZM81.5748 14H87.8748V14.96H85.2198V21.5H84.2298V14.96H81.5748V14ZM95.0883 15.47V14H96.0783V21.5H95.0883V20.03C94.3983 21.13 93.3883 21.68 92.0583 21.68C90.9883 21.68 90.0733 21.3 89.3133 20.54C88.5633 19.78 88.1883 18.85 88.1883 17.75C88.1883 16.65 88.5633 15.72 89.3133 14.96C90.0733 14.2 90.9883 13.82 92.0583 13.82C93.3883 13.82 94.3983 14.37 95.0883 15.47ZM90.0333 19.865C90.6033 20.435 91.3033 20.72 92.1333 20.72C92.9633 20.72 93.6633 20.435 94.2333 19.865C94.8033 19.275 95.0883 18.57 95.0883 17.75C95.0883 16.92 94.8033 16.22 94.2333 15.65C93.6633 15.07 92.9633 14.78 92.1333 14.78C91.3033 14.78 90.6033 15.07 90.0333 15.65C89.4633 16.22 89.1783 16.92 89.1783 17.75C89.1783 18.57 89.4633 19.275 90.0333 19.865Z" fill="black"/>
<defs>
<clipPath id="clip0_3374_379">
<rect width="16.0263" height="16.0263" fill="white" transform="translate(16.7891 8.98682)"/>
</clipPath>
</defs>
</svg>
