<svg width="143" height="34" viewBox="0 0 143 34" fill="none" xmlns="http://www.w3.org/2000/svg">
<rect y="0.5" width="143" height="33" rx="16.5" fill="white"/>
<g clip-path="url(#clip0_3374_416)">
<path d="M18.9089 10.6401C17.7397 10.6401 16.7891 11.5908 16.7891 12.76V21.2396C16.7891 22.4088 17.7397 23.3594 18.9089 23.3594H33.7481C34.9174 23.3594 35.868 22.4088 35.868 21.2396V12.76C35.868 11.5908 34.9174 10.6401 33.7481 10.6401H18.9089ZM21.0288 21.2396H18.9089V19.1197C20.0782 19.1197 21.0288 20.0703 21.0288 21.2396ZM18.9089 14.8799V12.76H21.0288C21.0288 13.9293 20.0782 14.8799 18.9089 14.8799ZM31.6282 21.2396C31.6282 20.0703 32.5789 19.1197 33.7481 19.1197V21.2396H31.6282ZM33.7481 14.8799C32.5789 14.8799 31.6282 13.9293 31.6282 12.76H33.7481V14.8799ZM22.6187 16.9998C22.6187 16.5126 22.7147 16.0302 22.9011 15.5801C23.0876 15.13 23.3608 14.7211 23.7053 14.3766C24.0498 14.0321 24.4588 13.7588 24.9089 13.5724C25.359 13.3859 25.8414 13.29 26.3285 13.29C26.8157 13.29 27.2981 13.3859 27.7482 13.5724C28.1983 13.7588 28.6073 14.0321 28.9518 14.3766C29.2962 14.7211 29.5695 15.13 29.7559 15.5801C29.9424 16.0302 30.0383 16.5126 30.0383 16.9998C30.0383 17.487 29.9424 17.9694 29.7559 18.4195C29.5695 18.8696 29.2962 19.2785 28.9518 19.623C28.6073 19.9675 28.1983 20.2408 27.7482 20.4272C27.2981 20.6136 26.8157 20.7096 26.3285 20.7096C25.8414 20.7096 25.359 20.6136 24.9089 20.4272C24.4588 20.2408 24.0498 19.9675 23.7053 19.623C23.3608 19.2785 23.0876 18.8696 22.9011 18.4195C22.7147 17.9694 22.6187 17.487 22.6187 16.9998ZM25.1361 15.4099C25.1361 15.7312 25.3647 15.9962 25.6661 16.0591V17.6622H25.5336C25.1692 17.6622 24.8711 17.9604 24.8711 18.3247C24.8711 18.6891 25.1692 18.9872 25.5336 18.9872H27.1235C27.4878 18.9872 27.786 18.6891 27.786 18.3247C27.786 17.9604 27.4878 17.6622 27.1235 17.6622H26.991V15.4099C26.991 15.0455 26.6929 14.7474 26.3285 14.7474H25.7986C25.4342 14.7474 25.1361 15.0455 25.1361 15.4099Z" fill="#4293EF"/>
</g>
<path d="M42.6973 15.2H45.5473C46.4073 15.2 47.1473 15.51 47.7673 16.13C48.3873 16.75 48.6973 17.49 48.6973 18.35C48.6973 19.22 48.3873 19.965 47.7673 20.585C47.1573 21.195 46.4173 21.5 45.5473 21.5H41.6473V11H47.7973V11.99H42.6973V15.2ZM42.6973 20.51H45.5473C46.1273 20.51 46.6223 20.3 47.0323 19.88C47.4423 19.45 47.6473 18.94 47.6473 18.35C47.6473 17.77 47.4423 17.265 47.0323 16.835C46.6323 16.405 46.1373 16.19 45.5473 16.19H42.6973V20.51ZM51.1117 19.775L55.5817 14H56.4217V21.5H55.4317V15.725L50.9617 21.5H50.1217V14H51.1117V19.775ZM62.2352 17.645C63.1052 17.975 63.5402 18.575 63.5402 19.445C63.5402 20.075 63.2952 20.605 62.8052 21.035C62.3352 21.465 61.6452 21.68 60.7352 21.68C59.2152 21.68 58.2252 21.08 57.7652 19.88L58.6052 19.385C58.9252 20.275 59.6352 20.72 60.7352 20.72C61.3052 20.72 61.7502 20.6 62.0702 20.36C62.3902 20.11 62.5502 19.785 62.5502 19.385C62.5502 19.025 62.4202 18.74 62.1602 18.53C61.9002 18.31 61.5502 18.2 61.1102 18.2H60.0152V17.24H60.8102C61.2402 17.24 61.5752 17.135 61.8152 16.925C62.0652 16.705 62.1902 16.405 62.1902 16.025C62.1902 15.665 62.0402 15.37 61.7402 15.14C61.4502 14.9 61.0652 14.78 60.5852 14.78C59.6552 14.78 59.0302 15.155 58.7102 15.905L57.8852 15.425C58.3852 14.355 59.2852 13.82 60.5852 13.82C61.3852 13.82 62.0152 14.03 62.4752 14.45C62.9452 14.86 63.1802 15.365 63.1802 15.965C63.1802 16.735 62.8652 17.295 62.2352 17.645ZM70.2049 17.27V14H71.1949V21.5H70.2049V18.23H65.8849V21.5H64.8949V14H65.8849V17.27H70.2049ZM76.6035 13.82C77.7235 13.82 78.6185 14.215 79.2885 15.005C79.9785 15.785 80.3235 16.71 80.3235 17.78C80.3235 17.83 80.3135 17.985 80.2935 18.245H73.7085C73.8085 18.995 74.1285 19.595 74.6685 20.045C75.2085 20.495 75.8835 20.72 76.6935 20.72C77.8335 20.72 78.6385 20.295 79.1085 19.445L79.9785 19.955C79.6485 20.495 79.1935 20.92 78.6135 21.23C78.0435 21.53 77.3985 21.68 76.6785 21.68C75.4985 21.68 74.5385 21.31 73.7985 20.57C73.0585 19.83 72.6885 18.89 72.6885 17.75C72.6885 16.62 73.0535 15.685 73.7835 14.945C74.5135 14.195 75.4535 13.82 76.6035 13.82ZM76.6035 14.78C75.8235 14.78 75.1685 15.01 74.6385 15.47C74.1185 15.93 73.8085 16.535 73.7085 17.285H79.3035C79.1935 16.485 78.8885 15.87 78.3885 15.44C77.8685 15 77.2735 14.78 76.6035 14.78ZM85.2432 21.68C84.1132 21.68 83.1732 21.305 82.4232 20.555C81.6732 19.785 81.2982 18.85 81.2982 17.75C81.2982 16.64 81.6732 15.71 82.4232 14.96C83.1732 14.2 84.1132 13.82 85.2432 13.82C85.9832 13.82 86.6482 14 87.2382 14.36C87.8282 14.71 88.2582 15.185 88.5282 15.785L87.7182 16.25C87.5182 15.8 87.1932 15.445 86.7432 15.185C86.3032 14.915 85.8032 14.78 85.2432 14.78C84.4132 14.78 83.7132 15.07 83.1432 15.65C82.5732 16.22 82.2882 16.92 82.2882 17.75C82.2882 18.57 82.5732 19.275 83.1432 19.865C83.7132 20.435 84.4132 20.72 85.2432 20.72C85.7932 20.72 86.2882 20.59 86.7282 20.33C87.1782 20.07 87.5282 19.71 87.7782 19.25L88.6032 19.73C88.2932 20.33 87.8382 20.805 87.2382 21.155C86.6382 21.505 85.9732 21.68 85.2432 21.68Z" fill="black"/>
<defs>
<clipPath id="clip0_3374_416">
<rect width="19.0789" height="16.9591" fill="white" transform="translate(16.7891 8.52051)"/>
</clipPath>
</defs>
</svg>
