<svg width="143" height="34" viewBox="0 0 143 34" fill="none" xmlns="http://www.w3.org/2000/svg">
<rect y="0.5" width="143" height="33" rx="16.5" fill="white"/>
<path d="M20.1847 14.8022H21.6192L21.8397 21.3959H19.9939L20.1847 14.8022ZM18.9869 21.7622H32.9069V22.4949H34.0058V23.5938H34.7384V24.3265H17.1553V23.5938H17.8879V22.4949H18.9869V21.7622ZM33.6395 12.9018L25.9476 9.67383L18.2542 12.9018V13.337H33.6395V12.9018ZM19.7195 13.7033H32.1742V14.4359H19.7195V13.7033ZM30.2459 14.8022H31.6797L31.902 21.3959H30.0536L30.2459 14.8022ZM26.8934 14.8022H28.3272L28.547 21.3959H26.7004L26.8934 14.8022ZM23.5402 14.8022H24.9743L25.1926 21.3959H23.3467L23.5402 14.8022Z" fill="#4293EF"/>
<path d="M43.0446 16.1L48.2346 21.5H46.8546L41.9346 16.415V21.5H40.8846V11H41.9346V15.8L46.7046 11H48.0846L43.0446 16.1ZM51.8016 20.285L54.2316 14H55.2816L52.0716 22.19C51.7716 22.95 51.3516 23.535 50.8116 23.945C50.2816 24.365 49.6916 24.55 49.0416 24.5V23.57C49.9416 23.68 50.6266 23.16 51.0966 22.01L51.2916 21.545L47.9316 14H48.9816L51.8016 20.285ZM56.654 14H62.024V21.5H61.034V14.96H57.644V18.305C57.644 19.555 57.404 20.415 56.924 20.885C56.454 21.355 55.804 21.56 54.974 21.5V20.57C55.554 20.63 55.979 20.49 56.249 20.15C56.519 19.81 56.654 19.195 56.654 18.305V14ZM64.9611 16.85H67.0161C67.7061 16.85 68.2961 17.07 68.7861 17.51C69.2761 17.94 69.5211 18.495 69.5211 19.175C69.5211 19.865 69.2761 20.425 68.7861 20.855C68.3161 21.285 67.7261 21.5 67.0161 21.5H63.9711V14H64.9611V16.85ZM64.9611 20.54H67.0161C67.4461 20.54 67.8061 20.415 68.0961 20.165C68.3861 19.905 68.5311 19.575 68.5311 19.175C68.5311 18.775 68.3861 18.45 68.0961 18.2C67.8061 17.94 67.4461 17.81 67.0161 17.81H64.9611V20.54ZM69.0734 14H75.3734V14.96H72.7184V21.5H71.7284V14.96H69.0734V14ZM79.3999 20.285L81.8299 14H82.8799L79.6699 22.19C79.3699 22.95 78.9499 23.535 78.4099 23.945C77.8799 24.365 77.2899 24.55 76.6399 24.5V23.57C77.5399 23.68 78.2249 23.16 78.6949 22.01L78.8899 21.545L75.5299 14H76.5799L79.3999 20.285ZM87.9464 13.82C89.0164 13.82 89.9264 14.2 90.6764 14.96C91.4364 15.72 91.8164 16.65 91.8164 17.75C91.8164 18.85 91.4364 19.78 90.6764 20.54C89.9264 21.3 89.0164 21.68 87.9464 21.68C86.6164 21.68 85.6064 21.13 84.9164 20.03V24.5H83.9264V14H84.9164V15.47C85.6064 14.37 86.6164 13.82 87.9464 13.82ZM85.7714 19.865C86.3414 20.435 87.0414 20.72 87.8714 20.72C88.7014 20.72 89.4014 20.435 89.9714 19.865C90.5414 19.275 90.8264 18.57 90.8264 17.75C90.8264 16.92 90.5414 16.22 89.9714 15.65C89.4014 15.07 88.7014 14.78 87.8714 14.78C87.0414 14.78 86.3414 15.07 85.7714 15.65C85.2014 16.22 84.9164 16.92 84.9164 17.75C84.9164 18.57 85.2014 19.275 85.7714 19.865ZM99.7625 15.47V14H100.753V21.5H99.7625V20.03C99.0725 21.13 98.0625 21.68 96.7325 21.68C95.6625 21.68 94.7475 21.3 93.9875 20.54C93.2375 19.78 92.8625 18.85 92.8625 17.75C92.8625 16.65 93.2375 15.72 93.9875 14.96C94.7475 14.2 95.6625 13.82 96.7325 13.82C98.0625 13.82 99.0725 14.37 99.7625 15.47ZM94.7075 19.865C95.2775 20.435 95.9775 20.72 96.8075 20.72C97.6375 20.72 98.3375 20.435 98.9075 19.865C99.4775 19.275 99.7625 18.57 99.7625 17.75C99.7625 16.92 99.4775 16.22 98.9075 15.65C98.3375 15.07 97.6375 14.78 96.8075 14.78C95.9775 14.78 95.2775 15.07 94.7075 15.65C94.1375 16.22 93.8525 16.92 93.8525 17.75C93.8525 18.57 94.1375 19.275 94.7075 19.865Z" fill="black"/>
</svg>
