<svg width="143" height="34" viewBox="0 0 143 34" fill="none" xmlns="http://www.w3.org/2000/svg">
<rect y="0.5" width="143" height="33" rx="16.5" fill="white"/>
<path d="M29.7624 20.8155H28.2361V25.3945H26.7098V20.8155H25.0919L23.9166 22.2884L25.7253 24.0895L24.6416 25.1732L22.8405 23.3645C22.5734 23.105 22.4208 22.7463 22.3979 22.3724C22.375 21.9984 22.4895 21.6245 22.7261 21.3345L23.1382 20.8155H22.1308L23.6571 17.7629V15.4734C23.184 15.8321 22.8024 16.29 22.5353 16.8166C22.2682 17.3508 22.1308 17.9308 22.1308 18.5261H20.6045C20.6045 17.1092 21.1673 15.7505 22.1692 14.7486C23.171 13.7468 24.5298 13.184 25.9466 13.184C26.9616 13.184 27.9308 12.7795 28.6482 12.0697C29.3579 11.3524 29.7624 10.3832 29.7624 9.36816H31.2887C31.2887 10.3755 30.9987 11.3676 30.4569 12.2147C29.9174 13.0676 29.1474 13.7503 28.2361 14.1837V17.7629L29.7624 20.8155ZM27.4729 10.8945C27.4729 11.1997 27.3813 11.4897 27.2134 11.7416C27.0455 11.9934 26.809 12.1918 26.5342 12.3063C26.2548 12.4213 25.9476 12.4508 25.6514 12.391C25.3552 12.3312 25.0835 12.1849 24.8705 11.9705C24.6569 11.7568 24.5119 11.4897 24.4508 11.1921C24.3898 10.8945 24.4203 10.5892 24.5348 10.3145C24.6492 10.0321 24.8477 9.79553 25.0995 9.62764C25.3513 9.45974 25.6413 9.36816 25.9466 9.36816C26.3511 9.36816 26.7403 9.52843 27.0226 9.81843C27.3126 10.1008 27.4729 10.49 27.4729 10.8945Z" fill="#4293EF"/>
<path d="M39.9846 11H47.4846V11.99H44.2596V21.5H43.2096V11.99H39.9846V11ZM53.7875 15.47V14H54.7775V21.5H53.7875V20.03C53.0975 21.13 52.0875 21.68 50.7575 21.68C49.6875 21.68 48.7725 21.3 48.0125 20.54C47.2625 19.78 46.8875 18.85 46.8875 17.75C46.8875 16.65 47.2625 15.72 48.0125 14.96C48.7725 14.2 49.6875 13.82 50.7575 13.82C52.0875 13.82 53.0975 14.37 53.7875 15.47ZM48.7325 19.865C49.3025 20.435 50.0025 20.72 50.8325 20.72C51.6625 20.72 52.3625 20.435 52.9325 19.865C53.5025 19.275 53.7875 18.57 53.7875 17.75C53.7875 16.92 53.5025 16.22 52.9325 15.65C52.3625 15.07 51.6625 14.78 50.8325 14.78C50.0025 14.78 49.3025 15.07 48.7325 15.65C48.1625 16.22 47.8775 16.92 47.8775 17.75C47.8775 18.57 48.1625 19.275 48.7325 19.865ZM62.0336 17.27V14H63.0236V21.5H62.0336V18.23H57.7136V21.5H56.7236V14H57.7136V17.27H62.0336ZM71.1172 14V20.54H72.3172V23.51H71.3272V21.5H64.9672V14H65.9572V20.54H70.1272V14H71.1172ZM74.6548 16.85H76.7098C77.3998 16.85 77.9898 17.07 78.4798 17.51C78.9698 17.94 79.2148 18.495 79.2148 19.175C79.2148 19.865 78.9698 20.425 78.4798 20.855C78.0098 21.285 77.4198 21.5 76.7098 21.5H73.6648V14H74.6548V16.85ZM80.2648 21.5V14H81.2548V21.5H80.2648ZM74.6548 20.54H76.7098C77.1398 20.54 77.4998 20.415 77.7898 20.165C78.0798 19.905 78.2248 19.575 78.2248 19.175C78.2248 18.775 78.0798 18.45 77.7898 18.2C77.4998 17.94 77.1398 17.81 76.7098 17.81H74.6548V20.54Z" fill="black"/>
</svg>
