<svg width="143" height="34" viewBox="0 0 143 34" fill="none" xmlns="http://www.w3.org/2000/svg">
<rect y="0.5" width="143" height="33" rx="16.5" fill="white"/>
<g clip-path="url(#clip0_3374_407)">
<path d="M34.2214 14.4403L25.5658 8.81396L16.9102 14.4403L25.5658 20.0659L31.4167 16.2629V19.9255H32.8794V15.3128L34.2214 14.4403Z" fill="#4293EF"/>
<path d="M20.4463 21.0222V18.3418L25.5658 21.6695L30.6853 18.3418V21.0222C30.6853 22.0973 29.9437 22.9347 29.0376 23.4635C28.1131 24.0033 26.8837 24.3133 25.5658 24.3133C24.2479 24.3133 23.0192 24.0033 22.094 23.4635C21.1879 22.9347 20.4463 22.0973 20.4463 21.0222Z" fill="#4293EF"/>
</g>
<path d="M48.8059 20.105C47.7559 21.155 46.4709 21.68 44.9509 21.68C43.4309 21.68 42.1459 21.155 41.0959 20.105C40.0459 19.035 39.5209 17.75 39.5209 16.25C39.5209 14.74 40.0459 13.46 41.0959 12.41C42.1459 11.35 43.4309 10.82 44.9509 10.82C46.4709 10.82 47.7559 11.35 48.8059 12.41C49.8559 13.46 50.3809 14.74 50.3809 16.25C50.3809 17.75 49.8559 19.035 48.8059 20.105ZM40.5709 16.25C40.5709 17.49 40.9909 18.535 41.8309 19.385C42.6709 20.235 43.7109 20.66 44.9509 20.66C46.1909 20.66 47.2309 20.235 48.0709 19.385C48.9109 18.535 49.3309 17.49 49.3309 16.25C49.3309 15.02 48.9109 13.98 48.0709 13.13C47.2309 12.27 46.1909 11.84 44.9509 11.84C43.7109 11.84 42.6709 12.27 41.8309 13.13C40.9909 13.98 40.5709 15.02 40.5709 16.25ZM55.2066 21.68C54.1366 21.68 53.2366 21.325 52.5066 20.615C51.7866 19.895 51.4266 18.965 51.4266 17.825C51.4266 16.545 51.6166 15.565 51.9966 14.885C52.3766 14.195 53.1466 13.57 54.3066 13.01C54.6766 12.84 54.9666 12.71 55.1766 12.62C55.5266 12.48 55.8016 12.36 56.0016 12.26C56.8716 11.86 57.3116 11.365 57.3216 10.775L58.1016 11.225C58.0516 11.475 57.9716 11.7 57.8616 11.9C57.7316 12.12 57.6016 12.295 57.4716 12.425C57.3516 12.555 57.1616 12.695 56.9016 12.845C56.7316 12.945 56.5266 13.055 56.2866 13.175L55.5366 13.49L54.8316 13.79C54.1416 14.09 53.6266 14.405 53.2866 14.735C52.9566 15.055 52.7216 15.475 52.5816 15.995C52.9016 15.565 53.3216 15.24 53.8416 15.02C54.3616 14.79 54.8866 14.675 55.4166 14.675C56.4166 14.675 57.2416 15.005 57.8916 15.665C58.5516 16.315 58.8816 17.15 58.8816 18.17C58.8816 19.18 58.5316 20.02 57.8316 20.69C57.1416 21.35 56.2666 21.68 55.2066 21.68ZM53.2566 19.955C53.7766 20.445 54.4266 20.69 55.2066 20.69C55.9866 20.69 56.6266 20.455 57.1266 19.985C57.6366 19.505 57.8916 18.9 57.8916 18.17C57.8916 17.43 57.6516 16.825 57.1716 16.355C56.7016 15.875 56.0716 15.635 55.2816 15.635C54.5716 15.635 53.9266 15.86 53.3466 16.31C52.7666 16.74 52.4766 17.33 52.4766 18.08C52.4766 18.84 52.7366 19.465 53.2566 19.955ZM64.2573 13.82C65.3273 13.82 66.2373 14.2 66.9873 14.96C67.7473 15.72 68.1273 16.65 68.1273 17.75C68.1273 18.85 67.7473 19.78 66.9873 20.54C66.2373 21.3 65.3273 21.68 64.2573 21.68C62.9273 21.68 61.9173 21.13 61.2273 20.03V24.5H60.2373V14H61.2273V15.47C61.9173 14.37 62.9273 13.82 64.2573 13.82ZM62.0823 19.865C62.6523 20.435 63.3523 20.72 64.1823 20.72C65.0123 20.72 65.7123 20.435 66.2823 19.865C66.8523 19.275 67.1373 18.57 67.1373 17.75C67.1373 16.92 66.8523 16.22 66.2823 15.65C65.7123 15.07 65.0123 14.78 64.1823 14.78C63.3523 14.78 62.6523 15.07 62.0823 15.65C61.5123 16.22 61.2273 16.92 61.2273 17.75C61.2273 18.57 61.5123 19.275 62.0823 19.865ZM76.0734 15.47V14H77.0634V21.5H76.0734V20.03C75.3834 21.13 74.3734 21.68 73.0434 21.68C71.9734 21.68 71.0584 21.3 70.2984 20.54C69.5484 19.78 69.1734 18.85 69.1734 17.75C69.1734 16.65 69.5484 15.72 70.2984 14.96C71.0584 14.2 71.9734 13.82 73.0434 13.82C74.3734 13.82 75.3834 14.37 76.0734 15.47ZM71.0184 19.865C71.5884 20.435 72.2884 20.72 73.1184 20.72C73.9484 20.72 74.6484 20.435 75.2184 19.865C75.7884 19.275 76.0734 18.57 76.0734 17.75C76.0734 16.92 75.7884 16.22 75.2184 15.65C74.6484 15.07 73.9484 14.78 73.1184 14.78C72.2884 14.78 71.5884 15.07 71.0184 15.65C70.4484 16.22 70.1634 16.92 70.1634 17.75C70.1634 18.57 70.4484 19.275 71.0184 19.865ZM82.8796 17.645C83.7496 17.975 84.1846 18.575 84.1846 19.445C84.1846 20.075 83.9396 20.605 83.4496 21.035C82.9796 21.465 82.2896 21.68 81.3796 21.68C79.8596 21.68 78.8696 21.08 78.4096 19.88L79.2496 19.385C79.5696 20.275 80.2796 20.72 81.3796 20.72C81.9496 20.72 82.3946 20.6 82.7146 20.36C83.0346 20.11 83.1946 19.785 83.1946 19.385C83.1946 19.025 83.0646 18.74 82.8046 18.53C82.5446 18.31 82.1946 18.2 81.7546 18.2H80.6596V17.24H81.4546C81.8846 17.24 82.2196 17.135 82.4596 16.925C82.7096 16.705 82.8346 16.405 82.8346 16.025C82.8346 15.665 82.6846 15.37 82.3846 15.14C82.0946 14.9 81.7096 14.78 81.2296 14.78C80.2996 14.78 79.6746 15.155 79.3546 15.905L78.5296 15.425C79.0296 14.355 79.9296 13.82 81.2296 13.82C82.0296 13.82 82.6596 14.03 83.1196 14.45C83.5896 14.86 83.8246 15.365 83.8246 15.965C83.8246 16.735 83.5096 17.295 82.8796 17.645ZM91.8243 20.555C91.0543 21.305 90.1243 21.68 89.0343 21.68C87.9243 21.68 86.9893 21.305 86.2293 20.555C85.4693 19.795 85.0893 18.86 85.0893 17.75C85.0893 16.64 85.4693 15.71 86.2293 14.96C86.9893 14.2 87.9243 13.82 89.0343 13.82C90.1343 13.82 91.0643 14.2 91.8243 14.96C92.5943 15.71 92.9793 16.64 92.9793 17.75C92.9793 18.85 92.5943 19.785 91.8243 20.555ZM86.9343 19.865C87.5043 20.435 88.2043 20.72 89.0343 20.72C89.8643 20.72 90.5643 20.435 91.1343 19.865C91.7043 19.275 91.9893 18.57 91.9893 17.75C91.9893 16.92 91.7043 16.22 91.1343 15.65C90.5643 15.07 89.8643 14.78 89.0343 14.78C88.2043 14.78 87.5043 15.07 86.9343 15.65C86.3643 16.22 86.0793 16.92 86.0793 17.75C86.0793 18.57 86.3643 19.275 86.9343 19.865ZM99.2559 17.645C100.076 17.945 100.486 18.53 100.486 19.4C100.486 20.02 100.276 20.525 99.8559 20.915C99.4459 21.305 98.8709 21.5 98.1309 21.5H94.4859V14H97.8309C98.5509 14 99.1109 14.185 99.5109 14.555C99.9209 14.925 100.126 15.41 100.126 16.01C100.126 16.76 99.8359 17.305 99.2559 17.645ZM97.8309 14.96H95.4759V17.24H97.8309C98.7009 17.24 99.1359 16.85 99.1359 16.07C99.1359 15.72 99.0209 15.45 98.7909 15.26C98.5709 15.06 98.2509 14.96 97.8309 14.96ZM95.4759 20.54H98.1309C98.5709 20.54 98.9059 20.435 99.1359 20.225C99.3759 20.015 99.4959 19.72 99.4959 19.34C99.4959 18.98 99.3759 18.7 99.1359 18.5C98.9059 18.3 98.5709 18.2 98.1309 18.2H95.4759V20.54ZM108.286 15.47V14H109.276V21.5H108.286V20.03C107.596 21.13 106.586 21.68 105.256 21.68C104.186 21.68 103.271 21.3 102.511 20.54C101.761 19.78 101.386 18.85 101.386 17.75C101.386 16.65 101.761 15.72 102.511 14.96C103.271 14.2 104.186 13.82 105.256 13.82C106.586 13.82 107.596 14.37 108.286 15.47ZM103.231 19.865C103.801 20.435 104.501 20.72 105.331 20.72C106.161 20.72 106.861 20.435 107.431 19.865C108.001 19.275 108.286 18.57 108.286 17.75C108.286 16.92 108.001 16.22 107.431 15.65C106.861 15.07 106.161 14.78 105.331 14.78C104.501 14.78 103.801 15.07 103.231 15.65C102.661 16.22 102.376 16.92 102.376 17.75C102.376 18.57 102.661 19.275 103.231 19.865ZM116.532 17.27V14H117.522V21.5H116.532V18.23H112.212V21.5H111.222V14H112.212V17.27H116.532ZM120.456 19.775L124.926 14H125.766V21.5H124.776V15.725L120.306 21.5H119.466V14H120.456V19.775ZM131.174 13.82C132.294 13.82 133.189 14.215 133.859 15.005C134.549 15.785 134.894 16.71 134.894 17.78C134.894 17.83 134.884 17.985 134.864 18.245H128.279C128.379 18.995 128.699 19.595 129.239 20.045C129.779 20.495 130.454 20.72 131.264 20.72C132.404 20.72 133.209 20.295 133.679 19.445L134.549 19.955C134.219 20.495 133.764 20.92 133.184 21.23C132.614 21.53 131.969 21.68 131.249 21.68C130.069 21.68 129.109 21.31 128.369 20.57C127.629 19.83 127.259 18.89 127.259 17.75C127.259 16.62 127.624 15.685 128.354 14.945C129.084 14.195 130.024 13.82 131.174 13.82ZM131.174 14.78C130.394 14.78 129.739 15.01 129.209 15.47C128.689 15.93 128.379 16.535 128.279 17.285H133.874C133.764 16.485 133.459 15.87 132.959 15.44C132.439 15 131.844 14.78 131.174 14.78Z" fill="black"/>
<defs>
<clipPath id="clip0_3374_407">
<rect width="17.5526" height="17.5526" fill="white" transform="translate(16.7891 8.22363)"/>
</clipPath>
</defs>
</svg>
