<svg width="143" height="34" viewBox="0 0 143 34" fill="none" xmlns="http://www.w3.org/2000/svg">
<rect y="0.5" width="143" height="33" rx="16.5" fill="white"/>
<path d="M20.2014 17.9063C22.0861 17.9063 23.6138 16.3786 23.6138 14.4939C23.6138 12.6093 22.0861 11.0815 20.2014 11.0815C18.3168 11.0815 16.7891 12.6093 16.7891 14.4939C16.7891 16.3786 18.3168 17.9063 20.2014 17.9063Z" fill="#4293EF" stroke="#4293EF" stroke-width="0.763158" stroke-linejoin="round"/>
<path d="M23.6139 14.9038C23.6187 14.9086 25.2254 16.9292 28.4342 20.9655C28.4885 21.031 28.5165 21.1143 28.5126 21.1993C28.5087 21.2842 28.4732 21.3647 28.413 21.4248L27.0194 22.8184C26.9593 22.8786 26.8788 22.9141 26.7939 22.918C26.7089 22.9219 26.6255 22.894 26.5601 22.8396L20.8232 17.906M23.7743 18.0664L24.7396 19.0317" stroke="#4293EF" stroke-width="0.763158" stroke-linecap="round" stroke-linejoin="round"/>
<path d="M34.2918 11H38.0418C38.9818 11 39.7668 11.315 40.3968 11.945C41.0268 12.575 41.3418 13.36 41.3418 14.3C41.3418 15.24 41.0268 16.025 40.3968 16.655C39.7668 17.285 38.9818 17.6 38.0418 17.6H35.3418V21.5H34.2918V11ZM35.3418 16.61H38.0418C38.6918 16.61 39.2268 16.395 39.6468 15.965C40.0768 15.535 40.2918 14.98 40.2918 14.3C40.2918 13.63 40.0768 13.08 39.6468 12.65C39.2268 12.21 38.6918 11.99 38.0418 11.99H35.3418V16.61ZM48.6889 15.47V14H49.6789V21.5H48.6889V20.03C47.9989 21.13 46.9889 21.68 45.6589 21.68C44.5889 21.68 43.6739 21.3 42.9139 20.54C42.1639 19.78 41.7889 18.85 41.7889 17.75C41.7889 16.65 42.1639 15.72 42.9139 14.96C43.6739 14.2 44.5889 13.82 45.6589 13.82C46.9889 13.82 47.9989 14.37 48.6889 15.47ZM43.6339 19.865C44.2039 20.435 44.9039 20.72 45.7339 20.72C46.5639 20.72 47.2639 20.435 47.8339 19.865C48.4039 19.275 48.6889 18.57 48.6889 17.75C48.6889 16.92 48.4039 16.22 47.8339 15.65C47.2639 15.07 46.5639 14.78 45.7339 14.78C44.9039 14.78 44.2039 15.07 43.6339 15.65C43.0639 16.22 42.7789 16.92 42.7789 17.75C42.7789 18.57 43.0639 19.275 43.6339 19.865ZM55.495 17.645C56.365 17.975 56.8 18.575 56.8 19.445C56.8 20.075 56.555 20.605 56.065 21.035C55.595 21.465 54.905 21.68 53.995 21.68C52.475 21.68 51.485 21.08 51.025 19.88L51.865 19.385C52.185 20.275 52.895 20.72 53.995 20.72C54.565 20.72 55.01 20.6 55.33 20.36C55.65 20.11 55.81 19.785 55.81 19.385C55.81 19.025 55.68 18.74 55.42 18.53C55.16 18.31 54.81 18.2 54.37 18.2H53.275V17.24H54.07C54.5 17.24 54.835 17.135 55.075 16.925C55.325 16.705 55.45 16.405 55.45 16.025C55.45 15.665 55.3 15.37 55 15.14C54.71 14.9 54.325 14.78 53.845 14.78C52.915 14.78 52.29 15.155 51.97 15.905L51.145 15.425C51.645 14.355 52.545 13.82 53.845 13.82C54.645 13.82 55.275 14.03 55.735 14.45C56.205 14.86 56.44 15.365 56.44 15.965C56.44 16.735 56.125 17.295 55.495 17.645ZM62.9247 17.645C63.7447 17.945 64.1547 18.53 64.1547 19.4C64.1547 20.02 63.9447 20.525 63.5247 20.915C63.1147 21.305 62.5397 21.5 61.7997 21.5H58.1547V14H61.4997C62.2197 14 62.7797 14.185 63.1797 14.555C63.5897 14.925 63.7947 15.41 63.7947 16.01C63.7947 16.76 63.5047 17.305 62.9247 17.645ZM61.4997 14.96H59.1447V17.24H61.4997C62.3697 17.24 62.8047 16.85 62.8047 16.07C62.8047 15.72 62.6897 15.45 62.4597 15.26C62.2397 15.06 61.9197 14.96 61.4997 14.96ZM59.1447 20.54H61.7997C62.2397 20.54 62.5747 20.435 62.8047 20.225C63.0447 20.015 63.1647 19.72 63.1647 19.34C63.1647 18.98 63.0447 18.7 62.8047 18.5C62.5747 18.3 62.2397 18.2 61.7997 18.2H59.1447V20.54ZM65.9917 14H71.3617V21.5H70.3717V14.96H66.9817V18.305C66.9817 19.555 66.7417 20.415 66.2617 20.885C65.7917 21.355 65.1417 21.56 64.3117 21.5V20.57C64.8917 20.63 65.3167 20.49 65.5867 20.15C65.8567 19.81 65.9917 19.195 65.9917 18.305V14ZM76.7738 13.82C77.8938 13.82 78.7888 14.215 79.4588 15.005C80.1488 15.785 80.4938 16.71 80.4938 17.78C80.4938 17.83 80.4838 17.985 80.4638 18.245H73.8788C73.9788 18.995 74.2988 19.595 74.8388 20.045C75.3788 20.495 76.0538 20.72 76.8638 20.72C78.0038 20.72 78.8088 20.295 79.2788 19.445L80.1488 19.955C79.8188 20.495 79.3638 20.92 78.7838 21.23C78.2138 21.53 77.5688 21.68 76.8488 21.68C75.6688 21.68 74.7088 21.31 73.9688 20.57C73.2288 19.83 72.8588 18.89 72.8588 17.75C72.8588 16.62 73.2238 15.685 73.9538 14.945C74.6838 14.195 75.6238 13.82 76.7738 13.82ZM76.7738 14.78C75.9938 14.78 75.3388 15.01 74.8088 15.47C74.2888 15.93 73.9788 16.535 73.8788 17.285H79.4738C79.3638 16.485 79.0588 15.87 78.5588 15.44C78.0388 15 77.4438 14.78 76.7738 14.78ZM86.7786 17.735V14H87.7686V21.5H86.7786V18.65C86.1986 18.95 85.4836 19.1 84.6336 19.1C83.6436 19.1 82.8936 18.875 82.3836 18.425C81.8736 17.965 81.6186 17.29 81.6186 16.4V14H82.6086V16.4C82.6086 17.02 82.7686 17.47 83.0886 17.75C83.4186 18.03 83.9236 18.17 84.6036 18.17C85.3636 18.17 86.0886 18.025 86.7786 17.735ZM93.1877 13.82C94.3077 13.82 95.2027 14.215 95.8727 15.005C96.5627 15.785 96.9077 16.71 96.9077 17.78C96.9077 17.83 96.8977 17.985 96.8777 18.245H90.2927C90.3927 18.995 90.7127 19.595 91.2527 20.045C91.7927 20.495 92.4677 20.72 93.2777 20.72C94.4177 20.72 95.2227 20.295 95.6927 19.445L96.5627 19.955C96.2327 20.495 95.7777 20.92 95.1977 21.23C94.6277 21.53 93.9827 21.68 93.2627 21.68C92.0827 21.68 91.1227 21.31 90.3827 20.57C89.6427 19.83 89.2727 18.89 89.2727 17.75C89.2727 16.62 89.6377 15.685 90.3677 14.945C91.0977 14.195 92.0377 13.82 93.1877 13.82ZM93.1877 14.78C92.4077 14.78 91.7527 15.01 91.2227 15.47C90.7027 15.93 90.3927 16.535 90.2927 17.285H95.8877C95.7777 16.485 95.4727 15.87 94.9727 15.44C94.4527 15 93.8577 14.78 93.1877 14.78ZM103.642 17.27V14H104.632V21.5H103.642V18.23H99.3224V21.5H98.3324V14H99.3224V17.27H103.642ZM107.566 19.775L112.036 14H112.876V21.5H111.886V15.725L107.416 21.5H106.576V14H107.566V19.775ZM117.175 14H120.22V21.5H119.23V18.62H117.94L115.63 21.5H114.37L116.74 18.59C116.13 18.5 115.63 18.25 115.24 17.84C114.86 17.42 114.67 16.915 114.67 16.325C114.67 15.655 114.91 15.1 115.39 14.66C115.89 14.22 116.485 14 117.175 14ZM117.175 17.69H119.23V14.96H117.175C116.745 14.96 116.385 15.09 116.095 15.35C115.805 15.6 115.66 15.925 115.66 16.325C115.66 16.725 115.805 17.055 116.095 17.315C116.385 17.565 116.745 17.69 117.175 17.69Z" fill="black"/>
</svg>
