<svg width="143" height="34" viewBox="0 0 143 34" fill="none" xmlns="http://www.w3.org/2000/svg">
<rect y="0.5" width="143" height="33" rx="16.5" fill="white"/>
<path d="M25.9476 21.3118C26.0494 21.3118 26.1417 21.2961 26.2247 21.2645C26.3076 21.233 26.387 21.1851 26.4628 21.121C26.8698 20.7522 27.2577 20.3897 27.6266 20.0335C27.9954 19.6774 28.3167 19.3276 28.5904 18.9842C28.8642 18.6408 29.0834 18.307 29.2483 17.9829C29.4131 17.6588 29.4958 17.3439 29.4963 17.0381C29.4963 16.4785 29.3055 16.0142 28.9239 15.6454C28.5424 15.2765 28.0845 15.0921 27.5503 15.0921C27.2196 15.0921 26.9176 15.159 26.6444 15.2928C26.3712 15.4266 26.1389 15.6014 25.9476 15.8171C25.7568 15.6009 25.5185 15.4261 25.2325 15.2928C24.9466 15.1595 24.6508 15.0926 24.345 15.0921C23.8108 15.0921 23.3529 15.2765 22.9713 15.6454C22.5897 16.0142 22.3989 16.4785 22.3989 17.0381C22.3989 17.3434 22.4816 17.6583 22.647 17.9829C22.8123 18.3075 23.0319 18.6413 23.3056 18.9842C23.5793 19.3271 23.9003 19.6769 24.2687 20.0335C24.637 20.3902 25.025 20.7527 25.4325 21.121C25.5088 21.1846 25.5884 21.2325 25.6714 21.2645C25.7543 21.2966 25.8464 21.3123 25.9476 21.3118ZM21.3687 23.8684C20.9489 23.8684 20.5898 23.7191 20.2911 23.4204C19.9925 23.1218 19.8429 22.7623 19.8424 22.3421V16.7138L19.0792 17.3053C18.9011 17.4324 18.7103 17.4833 18.5068 17.4579C18.3033 17.4324 18.138 17.3307 18.0108 17.1526C17.8836 16.9746 17.836 16.7838 17.8681 16.5803C17.9001 16.3767 17.9986 16.2114 18.1634 16.0842L25.0128 10.8375C25.1527 10.7357 25.3023 10.6594 25.4615 10.6085C25.6207 10.5577 25.7828 10.5322 25.9476 10.5322C26.1125 10.5322 26.2748 10.5577 26.4345 10.6085C26.5943 10.6594 26.7436 10.7357 26.8825 10.8375L33.7509 16.0842C33.9163 16.2114 34.0117 16.3767 34.0371 16.5803C34.0625 16.7838 34.0117 16.9746 33.8845 17.1526C33.7573 17.318 33.5919 17.4134 33.3884 17.4388C33.1849 17.4642 33.0005 17.4134 32.8351 17.2862L32.0529 16.7138V22.3421C32.0529 22.7618 31.9036 23.1213 31.6049 23.4204C31.3063 23.7196 30.9468 23.8689 30.5266 23.8684H21.3687Z" fill="#4293EF"/>
<path d="M45.7896 21.68C44.1896 21.68 42.8746 21.155 41.8446 20.105C40.8046 19.045 40.2846 17.76 40.2846 16.25C40.2846 14.74 40.8046 13.455 41.8446 12.395C42.8746 11.345 44.1896 10.82 45.7896 10.82C46.7496 10.82 47.6346 11.055 48.4446 11.525C49.2546 11.985 49.8846 12.61 50.3346 13.4L49.4046 13.94C49.0746 13.3 48.5846 12.79 47.9346 12.41C47.2846 12.03 46.5696 11.84 45.7896 11.84C44.4696 11.84 43.3996 12.265 42.5796 13.115C41.7496 13.975 41.3346 15.02 41.3346 16.25C41.3346 17.48 41.7496 18.525 42.5796 19.385C43.3996 20.235 44.4696 20.66 45.7896 20.66C46.5696 20.66 47.2846 20.47 47.9346 20.09C48.5846 19.71 49.0746 19.2 49.4046 18.56L50.3346 19.085C49.9046 19.875 49.2796 20.505 48.4596 20.975C47.6396 21.445 46.7496 21.68 45.7896 21.68ZM55.1531 13.82C56.2731 13.82 57.1681 14.215 57.8381 15.005C58.5281 15.785 58.8731 16.71 58.8731 17.78C58.8731 17.83 58.8631 17.985 58.8431 18.245H52.2581C52.3581 18.995 52.6781 19.595 53.2181 20.045C53.7581 20.495 54.4331 20.72 55.2431 20.72C56.3831 20.72 57.1881 20.295 57.6581 19.445L58.5281 19.955C58.1981 20.495 57.7431 20.92 57.1631 21.23C56.5931 21.53 55.9481 21.68 55.2281 21.68C54.0481 21.68 53.0881 21.31 52.3481 20.57C51.6081 19.83 51.2381 18.89 51.2381 17.75C51.2381 16.62 51.6031 15.685 52.3331 14.945C53.0631 14.195 54.0031 13.82 55.1531 13.82ZM55.1531 14.78C54.3731 14.78 53.7181 15.01 53.1881 15.47C52.6681 15.93 52.3581 16.535 52.2581 17.285H57.8531C57.7431 16.485 57.4381 15.87 56.9381 15.44C56.4181 15 55.8231 14.78 55.1531 14.78ZM66.5079 14H67.6479V21.5H66.6579V15.515L64.0329 19.775H63.9129L61.2879 15.515V21.5H60.2979V14H61.4379L63.9729 18.11L66.5079 14ZM70.5861 16.85H72.6411C73.3311 16.85 73.9211 17.07 74.4111 17.51C74.9011 17.94 75.1461 18.495 75.1461 19.175C75.1461 19.865 74.9011 20.425 74.4111 20.855C73.9411 21.285 73.3511 21.5 72.6411 21.5H69.5961V14H70.5861V16.85ZM70.5861 20.54H72.6411C73.0711 20.54 73.4311 20.415 73.7211 20.165C74.0111 19.905 74.1561 19.575 74.1561 19.175C74.1561 18.775 74.0111 18.45 73.7211 18.2C73.4311 17.94 73.0711 17.81 72.6411 17.81H70.5861V20.54ZM78.3929 14H81.4379V21.5H80.4479V18.62H79.1579L76.8479 21.5H75.5879L77.9579 18.59C77.3479 18.5 76.8479 18.25 76.4579 17.84C76.0779 17.42 75.8879 16.915 75.8879 16.325C75.8879 15.655 76.1279 15.1 76.6079 14.66C77.1079 14.22 77.7029 14 78.3929 14ZM78.3929 17.69H80.4479V14.96H78.3929C77.9629 14.96 77.6029 15.09 77.3129 15.35C77.0229 15.6 76.8779 15.925 76.8779 16.325C76.8779 16.725 77.0229 17.055 77.3129 17.315C77.6029 17.565 77.9629 17.69 78.3929 17.69Z" fill="black"/>
</svg>
