<svg width="143" height="34" viewBox="0 0 143 34" fill="none" xmlns="http://www.w3.org/2000/svg">
<rect y="0.5" width="143" height="33" rx="16.5" fill="white"/>
<path fill-rule="evenodd" clip-rule="evenodd" d="M21.0929 10.1313H23.6571V10.6728C23.6629 10.6843 23.6869 10.7403 23.7739 10.8411C23.8918 10.9785 24.0772 11.1422 24.3154 11.299C24.7984 11.6161 25.4051 11.8485 25.9466 11.8485C26.4881 11.8485 27.0959 11.6161 27.5779 11.299C27.816 11.1422 28.0014 10.9785 28.1205 10.8411C28.2063 10.7403 28.2304 10.6843 28.2361 10.6728V10.1313H30.8003L33.4469 13.4396L32.0309 18.3929L29.9532 17.3535V23.8682H21.94V17.3535L19.8623 18.3929L18.4463 13.4385L21.0929 10.1313Z" fill="#4293EF"/>
<path d="M49.1796 11H50.4846V21.5H49.4346V12.59L45.7596 18.74H45.6096L41.9346 12.59V21.5H40.8846V11H42.1896L45.6846 16.85L49.1796 11ZM58.8666 20.555C58.0966 21.305 57.1666 21.68 56.0766 21.68C54.9666 21.68 54.0316 21.305 53.2716 20.555C52.5116 19.795 52.1316 18.86 52.1316 17.75C52.1316 16.64 52.5116 15.71 53.2716 14.96C54.0316 14.2 54.9666 13.82 56.0766 13.82C57.1766 13.82 58.1066 14.2 58.8666 14.96C59.6366 15.71 60.0216 16.64 60.0216 17.75C60.0216 18.85 59.6366 19.785 58.8666 20.555ZM53.9766 19.865C54.5466 20.435 55.2466 20.72 56.0766 20.72C56.9066 20.72 57.6066 20.435 58.1766 19.865C58.7466 19.275 59.0316 18.57 59.0316 17.75C59.0316 16.92 58.7466 16.22 58.1766 15.65C57.6066 15.07 56.9066 14.78 56.0766 14.78C55.2466 14.78 54.5466 15.07 53.9766 15.65C53.4066 16.22 53.1216 16.92 53.1216 17.75C53.1216 18.57 53.4066 19.275 53.9766 19.865ZM67.5354 14V20.54H68.5854V23.51H67.5954V21.5H61.4754V23.51H60.4854V20.54H61.4004C61.9104 19.86 62.1654 18.915 62.1654 17.705V14H67.5354ZM62.6004 20.54H66.5454V14.96H63.1554V17.705C63.1554 18.865 62.9704 19.81 62.6004 20.54ZM76.09 15.47V14H77.08V21.5H76.09V20.03C75.4 21.13 74.39 21.68 73.06 21.68C71.99 21.68 71.075 21.3 70.315 20.54C69.565 19.78 69.19 18.85 69.19 17.75C69.19 16.65 69.565 15.72 70.315 14.96C71.075 14.2 71.99 13.82 73.06 13.82C74.39 13.82 75.4 14.37 76.09 15.47ZM71.035 19.865C71.605 20.435 72.305 20.72 73.135 20.72C73.965 20.72 74.665 20.435 75.235 19.865C75.805 19.275 76.09 18.57 76.09 17.75C76.09 16.92 75.805 16.22 75.235 15.65C74.665 15.07 73.965 14.78 73.135 14.78C72.305 14.78 71.605 15.07 71.035 15.65C70.465 16.22 70.18 16.92 70.18 17.75C70.18 18.57 70.465 19.275 71.035 19.865Z" fill="black"/>
</svg>
