<svg width="143" height="34" viewBox="0 0 143 34" fill="none" xmlns="http://www.w3.org/2000/svg">
<rect y="0.5" width="143" height="33" rx="16.5" fill="white"/>
<g clip-path="url(#clip0_3374_438)">
<path d="M28.8491 24.3456H29.9576C30.5185 24.3456 30.9792 23.9115 31.046 23.364L32.1478 12.3592H28.809V9.65479H27.4935V12.3592H24.1747L24.3751 13.9218C25.5169 14.2356 26.5854 14.8032 27.2264 15.4309C28.188 16.3792 28.8491 17.3608 28.8491 18.9634V24.3456ZM17.457 23.6778V23.01H27.4935V23.6778C27.4935 24.0384 27.193 24.3456 26.8057 24.3456H18.1248C17.7575 24.3456 17.457 24.0384 17.457 23.6778ZM27.4935 19.0035C27.4935 13.6614 17.457 13.6614 17.457 19.0035H27.4935ZM17.457 20.339H27.4735V21.6745H17.457V20.339Z" fill="#4293EF"/>
</g>
<path d="M39.6445 16.7V20.51H44.7445V21.5H38.5945V11H44.6695V11.99H39.6445V15.71H44.2945V16.7H39.6445ZM52.5486 14V20.54H53.5986V23.51H52.6086V21.5H46.4886V23.51H45.4986V20.54H46.4136C46.9236 19.86 47.1786 18.915 47.1786 17.705V14H52.5486ZM47.6136 20.54H51.5586V14.96H48.1686V17.705C48.1686 18.865 47.9836 19.81 47.6136 20.54ZM61.1033 15.47V14H62.0933V21.5H61.1033V20.03C60.4133 21.13 59.4033 21.68 58.0733 21.68C57.0033 21.68 56.0883 21.3 55.3283 20.54C54.5783 19.78 54.2033 18.85 54.2033 17.75C54.2033 16.65 54.5783 15.72 55.3283 14.96C56.0883 14.2 57.0033 13.82 58.0733 13.82C59.4033 13.82 60.4133 14.37 61.1033 15.47ZM56.0483 19.865C56.6183 20.435 57.3183 20.72 58.1483 20.72C58.9783 20.72 59.6783 20.435 60.2483 19.865C60.8183 19.275 61.1033 18.57 61.1033 17.75C61.1033 16.92 60.8183 16.22 60.2483 15.65C59.6783 15.07 58.9783 14.78 58.1483 14.78C57.3183 14.78 56.6183 15.07 56.0483 15.65C55.4783 16.22 55.1933 16.92 55.1933 17.75C55.1933 18.57 55.4783 19.275 56.0483 19.865Z" fill="black"/>
<defs>
<clipPath id="clip0_3374_438">
<rect width="16.0263" height="16.0263" fill="white" transform="translate(16.7891 8.98682)"/>
</clipPath>
</defs>
</svg>
