<svg width="143" height="34" viewBox="0 0 143 34" fill="none" xmlns="http://www.w3.org/2000/svg">
<rect y="0.5" width="143" height="33" rx="16.5" fill="white"/>
<path fill-rule="evenodd" clip-rule="evenodd" d="M24.2516 12.8963L23.9005 12.648C23.3993 12.2933 22.8005 12.1029 22.1865 12.103H21.7584C21.4751 12.103 21.1897 12.1205 20.9231 12.215C19.2561 12.8068 18.1095 14.9677 18.1927 19.8703C18.2095 20.858 18.4404 21.9494 19.3316 22.3754C19.6356 22.5216 19.9688 22.5971 20.3061 22.5964C20.6853 22.6027 21.0578 22.4963 21.3764 22.2907C21.6633 22.1033 21.9151 21.8598 22.1669 21.6164C22.4775 21.3156 22.7881 21.0147 23.1631 20.8203C23.5716 20.6082 24.0251 20.4976 24.4853 20.4978H25.8837C26.344 20.4978 26.7973 20.6083 27.2059 20.8196C27.5808 21.0147 27.8915 21.3156 28.2028 21.6164C28.4546 21.8598 28.7064 22.1033 28.9919 22.2907C29.2647 22.4698 29.618 22.5964 30.0629 22.5964C30.4002 22.5971 30.7334 22.5216 31.0374 22.3754C31.9286 21.9494 32.1595 20.8573 32.1763 19.8703C32.2595 14.9677 31.1129 12.8068 29.4459 12.2157C29.1786 12.1205 28.8918 12.103 28.6099 12.103H28.1818C27.5678 12.1031 26.9689 12.2938 26.4678 12.6487L26.1167 12.8963C25.8439 13.0891 25.5181 13.1925 25.1841 13.1925C24.8502 13.1925 24.5244 13.0891 24.2516 12.8963ZM28.5071 14.9013C28.6462 14.9013 28.7797 14.9566 28.8781 15.0549C28.9765 15.1533 29.0317 15.2868 29.0317 15.4259C29.0317 15.5651 28.9765 15.6985 28.8781 15.7969C28.7797 15.8953 28.6462 15.9506 28.5071 15.9506C28.3679 15.9506 28.2345 15.8953 28.1361 15.7969C28.0377 15.6985 27.9824 15.5651 27.9824 15.4259C27.9824 15.2868 28.0377 15.1533 28.1361 15.0549C28.2345 14.9566 28.3679 14.9013 28.5071 14.9013ZM22.0361 15.0762C22.1753 15.0762 22.3087 15.1314 22.4071 15.2298C22.5055 15.3282 22.5608 15.4617 22.5608 15.6008V16.1255H23.0855C23.2246 16.1255 23.3581 16.1808 23.4565 16.2792C23.5549 16.3776 23.6101 16.511 23.6101 16.6502C23.6101 16.7893 23.5549 16.9228 23.4565 17.0212C23.3581 17.1196 23.2246 17.1748 23.0855 17.1748H22.5608V17.6995C22.5608 17.8387 22.5055 17.9721 22.4071 18.0705C22.3087 18.1689 22.1753 18.2242 22.0361 18.2242C21.897 18.2242 21.7635 18.1689 21.6651 18.0705C21.5667 17.9721 21.5115 17.8387 21.5115 17.6995V17.1748H20.9868C20.8476 17.1748 20.7142 17.1196 20.6158 17.0212C20.5174 16.9228 20.4621 16.7893 20.4621 16.6502C20.4621 16.511 20.5174 16.3776 20.6158 16.2792C20.7142 16.1808 20.8476 16.1255 20.9868 16.1255H21.5115V15.6008C21.5115 15.4617 21.5667 15.3282 21.6651 15.2298C21.7635 15.1314 21.897 15.0762 22.0361 15.0762ZM30.0811 16.4753C30.0811 16.6144 30.0258 16.7479 29.9274 16.8463C29.829 16.9447 29.6956 17 29.5564 17C29.4173 17 29.2838 16.9447 29.1854 16.8463C29.087 16.7479 29.0317 16.6144 29.0317 16.4753C29.0317 16.3361 29.087 16.2027 29.1854 16.1043C29.2838 16.0059 29.4173 15.9506 29.5564 15.9506C29.6956 15.9506 29.829 16.0059 29.9274 16.1043C30.0258 16.2027 30.0811 16.3361 30.0811 16.4753ZM27.4577 17C27.5969 17 27.7303 16.9447 27.8287 16.8463C27.9271 16.7479 27.9824 16.6144 27.9824 16.4753C27.9824 16.3361 27.9271 16.2027 27.8287 16.1043C27.7303 16.0059 27.5969 15.9506 27.4577 15.9506C27.3186 15.9506 27.1851 16.0059 27.0867 16.1043C26.9883 16.2027 26.9331 16.3361 26.9331 16.4753C26.9331 16.6144 26.9883 16.7479 27.0867 16.8463C27.1851 16.9447 27.3186 17 27.4577 17ZM29.0317 17.5246C29.0317 17.3855 28.9765 17.252 28.8781 17.1536C28.7797 17.0552 28.6462 17 28.5071 17C28.3679 17 28.2345 17.0552 28.1361 17.1536C28.0377 17.252 27.9824 17.3855 27.9824 17.5246C27.9824 17.6638 28.0377 17.7972 28.1361 17.8956C28.2345 17.994 28.3679 18.0493 28.5071 18.0493C28.6462 18.0493 28.7797 17.994 28.8781 17.8956C28.9765 17.7972 29.0317 17.6638 29.0317 17.5246Z" fill="#4293EF"/>
<path d="M45.1782 16.055C45.6982 16.275 46.1082 16.61 46.4082 17.06C46.7082 17.51 46.8582 18.015 46.8582 18.575C46.8582 19.385 46.5732 20.075 46.0032 20.645C45.4332 21.215 44.7432 21.5 43.9332 21.5H39.3582V11H43.5882C44.3582 11 45.0232 11.28 45.5832 11.84C46.1332 12.39 46.4082 13.05 46.4082 13.82C46.4082 14.8 45.9982 15.545 45.1782 16.055ZM43.5882 11.99H40.4082V15.65H43.5882C44.0682 15.65 44.4832 15.475 44.8332 15.125C45.1832 14.755 45.3582 14.32 45.3582 13.82C45.3582 13.33 45.1832 12.9 44.8332 12.53C44.4832 12.17 44.0682 11.99 43.5882 11.99ZM40.4082 20.51H43.9332C44.4532 20.51 44.8932 20.325 45.2532 19.955C45.6232 19.585 45.8082 19.125 45.8082 18.575C45.8082 18.035 45.6232 17.58 45.2532 17.21C44.8932 16.83 44.4532 16.64 43.9332 16.64H40.4082V20.51ZM49.35 19.775L53.82 14H54.66V21.5H53.67V15.725L49.2 21.5H48.36V14H49.35V19.775ZM62.9035 14V20.54H63.9535V23.51H62.9635V21.5H56.8435V23.51H55.8535V20.54H56.7685C57.2785 19.86 57.5335 18.915 57.5335 17.705V14H62.9035ZM57.9685 20.54H61.9135V14.96H58.5235V17.705C58.5235 18.865 58.3385 19.81 57.9685 20.54ZM68.4732 13.82C69.5932 13.82 70.4882 14.215 71.1582 15.005C71.8482 15.785 72.1932 16.71 72.1932 17.78C72.1932 17.83 72.1832 17.985 72.1632 18.245H65.5782C65.6782 18.995 65.9982 19.595 66.5382 20.045C67.0782 20.495 67.7532 20.72 68.5632 20.72C69.7032 20.72 70.5082 20.295 70.9782 19.445L71.8482 19.955C71.5182 20.495 71.0632 20.92 70.4832 21.23C69.9132 21.53 69.2682 21.68 68.5482 21.68C67.3682 21.68 66.4082 21.31 65.6682 20.57C64.9282 19.83 64.5582 18.89 64.5582 17.75C64.5582 16.62 64.9232 15.685 65.6532 14.945C66.3832 14.195 67.3232 13.82 68.4732 13.82ZM68.4732 14.78C67.6932 14.78 67.0382 15.01 66.5082 15.47C65.9882 15.93 65.6782 16.535 65.5782 17.285H71.1732C71.0632 16.485 70.7582 15.87 70.2582 15.44C69.7382 15 69.1432 14.78 68.4732 14.78ZM79.903 20.555C79.133 21.305 78.203 21.68 77.113 21.68C76.003 21.68 75.068 21.305 74.308 20.555C73.548 19.795 73.168 18.86 73.168 17.75C73.168 16.64 73.548 15.71 74.308 14.96C75.068 14.2 76.003 13.82 77.113 13.82C78.213 13.82 79.143 14.2 79.903 14.96C80.673 15.71 81.058 16.64 81.058 17.75C81.058 18.85 80.673 19.785 79.903 20.555ZM75.013 19.865C75.583 20.435 76.283 20.72 77.113 20.72C77.943 20.72 78.643 20.435 79.213 19.865C79.783 19.275 80.068 18.57 80.068 17.75C80.068 16.92 79.783 16.22 79.213 15.65C78.643 15.07 77.943 14.78 77.113 14.78C76.283 14.78 75.583 15.07 75.013 15.65C74.443 16.22 74.158 16.92 74.158 17.75C74.158 18.57 74.443 19.275 75.013 19.865ZM83.5546 19.775L88.0246 14H88.8646V21.5H87.8746V15.725L83.4046 21.5H82.5646V14H83.5546V19.775ZM90.8082 14H95.6082V14.96H91.7982V21.5H90.8082V14ZM100.684 13.82C101.754 13.82 102.664 14.2 103.414 14.96C104.174 15.72 104.554 16.65 104.554 17.75C104.554 18.85 104.174 19.78 103.414 20.54C102.664 21.3 101.754 21.68 100.684 21.68C99.3541 21.68 98.3441 21.13 97.6541 20.03V24.5H96.6641V14H97.6541V15.47C98.3441 14.37 99.3541 13.82 100.684 13.82ZM98.5091 19.865C99.0791 20.435 99.7791 20.72 100.609 20.72C101.439 20.72 102.139 20.435 102.709 19.865C103.279 19.275 103.564 18.57 103.564 17.75C103.564 16.92 103.279 16.22 102.709 15.65C102.139 15.07 101.439 14.78 100.609 14.78C99.7791 14.78 99.0791 15.07 98.5091 15.65C97.9391 16.22 97.6541 16.92 97.6541 17.75C97.6541 18.57 97.9391 19.275 98.5091 19.865ZM107.04 16.85H109.095C109.785 16.85 110.375 17.07 110.865 17.51C111.355 17.94 111.6 18.495 111.6 19.175C111.6 19.865 111.355 20.425 110.865 20.855C110.395 21.285 109.805 21.5 109.095 21.5H106.05V14H107.04V16.85ZM112.65 21.5V14H113.64V21.5H112.65ZM107.04 20.54H109.095C109.525 20.54 109.885 20.415 110.175 20.165C110.465 19.905 110.61 19.575 110.61 19.175C110.61 18.775 110.465 18.45 110.175 18.2C109.885 17.94 109.525 17.81 109.095 17.81H107.04V20.54Z" fill="black"/>
</svg>
