<svg width="143" height="34" viewBox="0 0 143 34" fill="none" xmlns="http://www.w3.org/2000/svg">
<rect y="0.5" width="143" height="33" rx="16.5" fill="white"/>
<path fill-rule="evenodd" clip-rule="evenodd" d="M23.6285 21.9372C21.3826 20.2163 18.3154 17.3735 18.3154 14.6857C18.3154 10.1953 22.5128 8.51859 25.947 11.9864C29.3812 8.51859 33.5786 10.1953 33.5786 14.6857C33.5786 17.3735 30.5107 20.2163 28.2655 21.9372C27.249 22.7156 26.7407 23.1056 25.947 23.1056C25.1533 23.1056 24.6451 22.7164 23.6285 21.9372ZM29.3812 12.6122C29.533 12.6122 29.6786 12.6725 29.7859 12.7798C29.8933 12.8872 29.9536 13.0327 29.9536 13.1845V14.1385H30.9075C31.0593 14.1385 31.2049 14.1988 31.3123 14.3061C31.4196 14.4135 31.4799 14.5591 31.4799 14.7109C31.4799 14.8627 31.4196 15.0082 31.3123 15.1156C31.2049 15.2229 31.0593 15.2832 30.9075 15.2832H29.9536V16.2372C29.9536 16.389 29.8933 16.5346 29.7859 16.6419C29.6786 16.7492 29.533 16.8095 29.3812 16.8095C29.2294 16.8095 29.0838 16.7492 28.9765 16.6419C28.8692 16.5346 28.8089 16.389 28.8089 16.2372V15.2832H27.8549C27.7031 15.2832 27.5575 15.2229 27.4502 15.1156C27.3428 15.0082 27.2825 14.8627 27.2825 14.7109C27.2825 14.5591 27.3428 14.4135 27.4502 14.3061C27.5575 14.1988 27.7031 14.1385 27.8549 14.1385H28.8089V13.1845C28.8089 13.0327 28.8692 12.8872 28.9765 12.7798C29.0838 12.6725 29.2294 12.6122 29.3812 12.6122Z" fill="#4293EF"/>
<path d="M45.7296 16.07C46.3096 16.29 46.7596 16.625 47.0796 17.075C47.3996 17.525 47.5596 18.055 47.5596 18.665C47.5596 19.545 47.2296 20.27 46.5696 20.84C45.9196 21.4 45.0396 21.68 43.9296 21.68C42.9696 21.68 42.1846 21.465 41.5746 21.035C40.9646 20.605 40.5346 20.03 40.2846 19.31L41.1846 18.8C41.3246 19.37 41.6196 19.83 42.0696 20.18C42.5196 20.52 43.1396 20.69 43.9296 20.69C44.7296 20.69 45.3596 20.505 45.8196 20.135C46.2796 19.765 46.5096 19.275 46.5096 18.665C46.5096 18.055 46.2996 17.565 45.8796 17.195C45.4596 16.825 44.8896 16.64 44.1696 16.64H42.9696V15.65H43.7946C44.5046 15.65 45.0696 15.475 45.4896 15.125C45.9096 14.765 46.1196 14.295 46.1196 13.715C46.1196 13.145 45.9146 12.685 45.5046 12.335C45.0946 11.985 44.5446 11.81 43.8546 11.81C42.5646 11.81 41.7146 12.36 41.3046 13.46L40.4346 12.95C41.0146 11.53 42.1546 10.82 43.8546 10.82C44.8346 10.82 45.6346 11.1 46.2546 11.66C46.8646 12.21 47.1696 12.9 47.1696 13.73C47.1696 14.78 46.6896 15.56 45.7296 16.07ZM55.2195 14V20.54H56.2695V23.51H55.2795V21.5H49.1595V23.51H48.1695V20.54H49.0845C49.5945 19.86 49.8495 18.915 49.8495 17.705V14H55.2195ZM50.2845 20.54H54.2295V14.96H50.8395V17.705C50.8395 18.865 50.6545 19.81 50.2845 20.54ZM63.6092 20.555C62.8392 21.305 61.9092 21.68 60.8192 21.68C59.7092 21.68 58.7742 21.305 58.0142 20.555C57.2542 19.795 56.8742 18.86 56.8742 17.75C56.8742 16.64 57.2542 15.71 58.0142 14.96C58.7742 14.2 59.7092 13.82 60.8192 13.82C61.9192 13.82 62.8492 14.2 63.6092 14.96C64.3792 15.71 64.7642 16.64 64.7642 17.75C64.7642 18.85 64.3792 19.785 63.6092 20.555ZM58.7192 19.865C59.2892 20.435 59.9892 20.72 60.8192 20.72C61.6492 20.72 62.3492 20.435 62.9192 19.865C63.4892 19.275 63.7742 18.57 63.7742 17.75C63.7742 16.92 63.4892 16.22 62.9192 15.65C62.3492 15.07 61.6492 14.78 60.8192 14.78C59.9892 14.78 59.2892 15.07 58.7192 15.65C58.1492 16.22 57.8642 16.92 57.8642 17.75C57.8642 18.57 58.1492 19.275 58.7192 19.865ZM70.2909 13.82C71.3609 13.82 72.2709 14.2 73.0209 14.96C73.7809 15.72 74.1609 16.65 74.1609 17.75C74.1609 18.85 73.7809 19.78 73.0209 20.54C72.2709 21.3 71.3609 21.68 70.2909 21.68C68.9609 21.68 67.9509 21.13 67.2609 20.03V24.5H66.2709V14H67.2609V15.47C67.9509 14.37 68.9609 13.82 70.2909 13.82ZM68.1159 19.865C68.6859 20.435 69.3859 20.72 70.2159 20.72C71.0459 20.72 71.7459 20.435 72.3159 19.865C72.8859 19.275 73.1709 18.57 73.1709 17.75C73.1709 16.92 72.8859 16.22 72.3159 15.65C71.7459 15.07 71.0459 14.78 70.2159 14.78C69.3859 14.78 68.6859 15.07 68.1159 15.65C67.5459 16.22 67.2609 16.92 67.2609 17.75C67.2609 18.57 67.5459 19.275 68.1159 19.865ZM81.942 20.555C81.172 21.305 80.242 21.68 79.152 21.68C78.042 21.68 77.107 21.305 76.347 20.555C75.587 19.795 75.207 18.86 75.207 17.75C75.207 16.64 75.587 15.71 76.347 14.96C77.107 14.2 78.042 13.82 79.152 13.82C80.252 13.82 81.182 14.2 81.942 14.96C82.712 15.71 83.097 16.64 83.097 17.75C83.097 18.85 82.712 19.785 81.942 20.555ZM77.052 19.865C77.622 20.435 78.322 20.72 79.152 20.72C79.982 20.72 80.682 20.435 81.252 19.865C81.822 19.275 82.107 18.57 82.107 17.75C82.107 16.92 81.822 16.22 81.252 15.65C80.682 15.07 79.982 14.78 79.152 14.78C78.322 14.78 77.622 15.07 77.052 15.65C76.482 16.22 76.197 16.92 76.197 17.75C76.197 18.57 76.482 19.275 77.052 19.865ZM89.3737 17.645C90.1937 17.945 90.6037 18.53 90.6037 19.4C90.6037 20.02 90.3937 20.525 89.9737 20.915C89.5637 21.305 88.9887 21.5 88.2487 21.5H84.6037V14H87.9487C88.6687 14 89.2287 14.185 89.6287 14.555C90.0387 14.925 90.2437 15.41 90.2437 16.01C90.2437 16.76 89.9537 17.305 89.3737 17.645ZM87.9487 14.96H85.5937V17.24H87.9487C88.8187 17.24 89.2537 16.85 89.2537 16.07C89.2537 15.72 89.1387 15.45 88.9087 15.26C88.6887 15.06 88.3687 14.96 87.9487 14.96ZM85.5937 20.54H88.2487C88.6887 20.54 89.0237 20.435 89.2537 20.225C89.4937 20.015 89.6137 19.72 89.6137 19.34C89.6137 18.98 89.4937 18.7 89.2537 18.5C89.0237 18.3 88.6887 18.2 88.2487 18.2H85.5937V20.54ZM92.9437 16.85H94.9987C95.6887 16.85 96.2787 17.07 96.7687 17.51C97.2587 17.94 97.5037 18.495 97.5037 19.175C97.5037 19.865 97.2587 20.425 96.7687 20.855C96.2987 21.285 95.7087 21.5 94.9987 21.5H91.9537V14H92.9437V16.85ZM92.9437 20.54H94.9987C95.4287 20.54 95.7887 20.415 96.0787 20.165C96.3687 19.905 96.5137 19.575 96.5137 19.175C96.5137 18.775 96.3687 18.45 96.0787 18.2C95.7887 17.94 95.4287 17.81 94.9987 17.81H92.9437V20.54ZM102.241 13.82C103.361 13.82 104.256 14.215 104.926 15.005C105.616 15.785 105.961 16.71 105.961 17.78C105.961 17.83 105.951 17.985 105.931 18.245H99.3464C99.4464 18.995 99.7664 19.595 100.306 20.045C100.846 20.495 101.521 20.72 102.331 20.72C103.471 20.72 104.276 20.295 104.746 19.445L105.616 19.955C105.286 20.495 104.831 20.92 104.251 21.23C103.681 21.53 103.036 21.68 102.316 21.68C101.136 21.68 100.176 21.31 99.4364 20.57C98.6964 19.83 98.3264 18.89 98.3264 17.75C98.3264 16.62 98.6914 15.685 99.4214 14.945C100.151 14.195 101.091 13.82 102.241 13.82ZM102.241 14.78C101.461 14.78 100.806 15.01 100.276 15.47C99.7564 15.93 99.4464 16.535 99.3464 17.285H104.941C104.831 16.485 104.526 15.87 104.026 15.44C103.506 15 102.911 14.78 102.241 14.78Z" fill="black"/>
</svg>
