<svg width="143" height="34" viewBox="0 0 143 34" fill="none" xmlns="http://www.w3.org/2000/svg">
<rect y="0.5" width="143" height="33" rx="16.5" fill="white"/>
<path d="M26.3282 8.39209C24.901 8.39209 24.3197 8.89887 24.003 9.54614C23.7943 9.96648 23.7235 10.4632 23.6974 10.926H28.9553C28.9255 10.4651 28.8472 9.96908 28.6348 9.54838C28.3107 8.89887 27.7293 8.39209 26.3282 8.39209ZM22.6429 11.5968L22.982 12.4911H29.9689L30.1105 11.5968H22.6429ZM20.1984 11.9508C20.1108 11.9545 20.0284 11.9657 19.9543 11.988C19.7583 12.0402 19.604 12.1483 19.4729 12.383C19.4538 12.424 19.4516 12.4501 19.4878 12.5395C19.5246 12.6364 19.6107 12.7706 19.7132 12.9196C19.8157 13.0687 19.9334 13.2326 20.0214 13.4264C20.1093 13.6202 20.1686 13.8661 20.0903 14.1195C19.9841 14.4586 19.7326 14.6896 19.4688 14.8499C19.2049 15.0064 18.9161 15.1144 18.6486 15.215C18.3814 15.3194 18.1362 15.4163 17.9734 15.5281C17.8109 15.6361 17.7401 15.7256 17.7162 15.8634C17.6797 16.0796 17.7818 16.2994 18.0028 16.5603C18.2241 16.8211 18.5435 17.0894 18.8148 17.3577C19.0518 17.5962 19.0544 17.9055 19.0421 18.1291C19.0302 18.3564 19.0085 18.5576 19.0223 18.6358C19.0279 18.6731 19.0354 18.6731 19.0316 18.6694C19.0279 18.6657 19.0369 18.6806 19.1114 18.6917C19.24 18.7104 19.55 18.6731 20.0314 18.5352V18.4905C20.0314 16.2882 20.7726 14.2835 21.9762 12.8563C21.6483 12.5023 21.149 12.1594 20.6794 12.0216C20.5416 11.9843 20.4111 11.9619 20.2889 11.9545C20.2584 11.9508 20.2286 11.9508 20.1991 11.9508H20.1984ZM32.3687 11.9545C32.2457 11.9619 32.1153 11.9843 31.9774 12.0253C31.5079 12.1632 31.0085 12.5023 30.6806 12.8563C31.8842 14.2835 32.6258 16.2882 32.6258 18.4905V18.5352C33.1065 18.6731 33.4195 18.7104 33.5462 18.6917C33.6207 18.6806 33.6282 18.6657 33.6244 18.6694C33.6244 18.6731 33.6282 18.6731 33.6356 18.6358C33.6468 18.5576 33.6282 18.3564 33.6133 18.1291C33.6021 17.9055 33.6058 17.5962 33.8406 17.3577C34.1126 17.0894 34.4331 16.8211 34.6529 16.5603C34.8765 16.2994 34.9771 16.0796 34.9398 15.8634C34.9175 15.7256 34.8467 15.6361 34.6827 15.5281C34.5188 15.4163 34.2765 15.3194 34.0083 15.215C33.74 15.1144 33.453 15.0064 33.1885 14.8499C32.9239 14.6896 32.6742 14.4586 32.5662 14.1195C32.4879 13.8661 32.5475 13.6202 32.637 13.4264C32.7227 13.2326 32.8419 13.0687 32.9425 12.9196C33.0469 12.7706 33.1326 12.6364 33.1698 12.5395C33.2034 12.4501 33.2034 12.424 33.1847 12.383C33.0543 12.1483 32.8978 12.0439 32.704 11.988C32.6295 11.9657 32.5475 11.9545 32.4581 11.9545H32.3687ZM22.6019 13.1618C21.443 14.4586 20.7014 16.3553 20.7014 18.4905C20.7014 19.3513 20.8207 20.1748 21.0443 20.935C21.4951 20.3835 22.192 20.0929 22.9745 20.0929C23.4664 20.0929 23.9993 20.1972 24.547 20.3984C24.5823 20.0609 24.7128 19.7404 24.9234 19.4743C24.4837 19.3364 24.2005 19.2731 23.9434 19.2731C23.5707 19.2731 23.1534 19.4035 22.259 19.7016L21.8193 19.8506V19.3848C21.8193 19.1799 21.8603 18.852 21.9349 18.4234C22.0131 17.9912 22.1286 17.4769 22.2814 16.9776C22.4342 16.4746 22.628 15.9864 22.8776 15.5989C23.0006 15.4088 23.1459 15.2337 23.3136 15.1033L23.9434 13.7208L24.5731 15.1033C24.7408 15.2337 24.8861 15.4088 25.0091 15.5989C25.2588 15.9864 25.4525 16.4746 25.6053 16.9776C25.7581 17.4769 25.8736 17.9912 25.9519 18.4234C25.978 18.565 25.9966 18.6955 26.0152 18.8184C26.1185 18.7993 26.2232 18.7894 26.3282 18.7886C26.4332 18.7894 26.538 18.7993 26.6412 18.8184C26.6599 18.6992 26.6785 18.565 26.7046 18.4234C26.7828 17.9912 26.8984 17.4769 27.0511 16.9776C27.2039 16.4746 27.3977 15.9864 27.6474 15.5989C27.7703 15.4088 27.9157 15.2337 28.0833 15.1033L28.7131 13.7208L29.3429 15.1033C29.5105 15.2337 29.6559 15.4088 29.7788 15.5989C30.0285 15.9864 30.2223 16.4746 30.3751 16.9776C30.5278 17.4769 30.6434 17.9912 30.7216 18.4234C30.7961 18.852 30.8371 19.1799 30.8371 19.3848V19.8506L30.3974 19.7016C29.5031 19.4035 29.0857 19.2731 28.7131 19.2731C28.456 19.2731 28.1765 19.3364 27.7331 19.4743C27.9423 19.7408 28.0715 20.0613 28.1057 20.3984C28.6572 20.1972 29.1863 20.0929 29.682 20.0929C30.4645 20.0929 31.1613 20.3835 31.6122 20.935C31.8358 20.1748 31.955 19.3513 31.955 18.4905C31.955 16.3553 31.2135 14.4586 30.0546 13.1618H22.6019ZM23.9434 15.5467C23.8129 15.5467 23.6378 15.6622 23.444 15.9603C23.2465 16.2622 23.0677 16.7056 22.9223 17.1714C22.777 17.6409 22.6689 18.1328 22.5981 18.539C22.5721 18.6768 22.5572 18.7886 22.5422 18.9041C22.9447 18.7737 23.254 18.6806 23.5446 18.6358C23.4825 18.5799 23.4327 18.5115 23.3987 18.4351C23.3647 18.3587 23.3471 18.276 23.3471 18.1924C23.3471 18.0343 23.41 17.8826 23.5218 17.7708C23.6336 17.659 23.7852 17.5962 23.9434 17.5962C24.1015 17.5962 24.2531 17.659 24.3649 17.7708C24.4768 17.8826 24.5396 18.0343 24.5396 18.1924C24.5396 18.276 24.522 18.3587 24.488 18.4351C24.454 18.5115 24.4043 18.5799 24.3421 18.6358C24.6327 18.6806 24.942 18.7737 25.3445 18.9041C25.3296 18.7886 25.3147 18.6768 25.2886 18.539C25.2178 18.1328 25.1097 17.6409 24.9644 17.1714C24.8191 16.7056 24.6402 16.2622 24.4427 15.9603C24.2489 15.6622 24.0738 15.5467 23.9434 15.5467ZM28.7131 15.5467C28.5827 15.5467 28.4075 15.6622 28.2138 15.9603C28.0163 16.2622 27.8374 16.7056 27.6921 17.1714C27.5467 17.6409 27.4387 18.1328 27.3679 18.539C27.3418 18.6768 27.3269 18.7886 27.312 18.9041C27.7144 18.7737 28.0237 18.6806 28.3144 18.6358C28.2522 18.5799 28.2025 18.5115 28.1685 18.4351C28.1344 18.3587 28.1169 18.276 28.1169 18.1924C28.1169 18.0343 28.1797 17.8826 28.2915 17.7708C28.4033 17.659 28.555 17.5962 28.7131 17.5962C28.8712 17.5962 29.0229 17.659 29.1347 17.7708C29.2465 17.8826 29.3093 18.0343 29.3093 18.1924C29.3093 18.276 29.2918 18.3587 29.2577 18.4351C29.2237 18.5115 29.174 18.5799 29.1118 18.6358C29.4025 18.6806 29.7118 18.7737 30.1142 18.9041C30.0993 18.7886 30.0844 18.6768 30.0583 18.539C29.9875 18.1328 29.8794 17.6409 29.7341 17.1714C29.5888 16.7056 29.4099 16.2622 29.2124 15.9603C29.0187 15.6622 28.8435 15.5467 28.7131 15.5467ZM26.3282 19.3848C26.012 19.3848 25.7087 19.5105 25.4851 19.7341C25.2614 19.9577 25.1358 20.261 25.1358 20.5773C25.1368 20.8293 25.2177 21.0746 25.3668 21.2778C25.3956 20.8461 25.5798 20.4395 25.8854 20.1332C26.1909 19.827 26.5972 19.6418 27.0288 19.6122C26.8251 19.4644 26.5799 19.3848 26.3282 19.3848ZM22.9745 20.7636C22.1584 20.7636 21.5995 21.0729 21.3237 21.7511C22.2665 24.054 24.1707 25.6079 26.3282 25.6079C28.4858 25.6079 30.39 24.054 31.3327 21.7511C31.057 21.0729 30.498 20.7636 29.682 20.7636C29.1975 20.7636 28.6274 20.894 28.0163 21.1586C27.8954 21.5104 27.6678 21.8157 27.3653 22.0321C27.0627 22.2485 26.7002 22.3652 26.3282 22.3659C25.9563 22.3652 25.5938 22.2485 25.2912 22.0321C24.9886 21.8157 24.7611 21.5104 24.6402 21.1586C24.0291 20.894 23.4589 20.7636 22.9745 20.7636ZM23.0379 21.5983C23.8837 23.0031 25.1097 23.6702 26.3282 23.6702C27.5467 23.6702 28.7727 23.0031 29.6186 21.5983L30.1925 21.9411C29.2497 23.5174 27.7927 24.3409 26.3282 24.3409C24.8638 24.3409 23.4068 23.5174 22.464 21.9411L23.0379 21.5983Z" fill="#4293EF"/>
<path d="M50.0173 10.82C51.5373 10.82 52.8223 11.35 53.8723 12.41C54.9223 13.46 55.4473 14.74 55.4473 16.25C55.4473 17.75 54.9223 19.035 53.8723 20.105C52.8223 21.155 51.5373 21.68 50.0173 21.68C48.5673 21.68 47.3273 21.19 46.2973 20.21C45.2873 19.23 44.7423 18.025 44.6623 16.595H42.6973V21.5H41.6473V11H42.6973V15.605H44.6773C44.8473 14.225 45.4273 13.085 46.4173 12.185C47.4173 11.275 48.6173 10.82 50.0173 10.82ZM45.6373 16.25C45.6373 17.49 46.0573 18.535 46.8973 19.385C47.7373 20.235 48.7773 20.66 50.0173 20.66C51.2573 20.66 52.2973 20.235 53.1373 19.385C53.9773 18.535 54.3973 17.49 54.3973 16.25C54.3973 15.02 53.9773 13.98 53.1373 13.13C52.2973 12.27 51.2573 11.84 50.0173 11.84C48.7773 11.84 47.7373 12.27 46.8973 13.13C46.0573 13.98 45.6373 15.02 45.6373 16.25ZM63.1579 14H64.2979V21.5H63.3079V15.515L60.6829 19.775H60.5629L57.9379 15.515V21.5H56.9479V14H58.0879L60.6229 18.11L63.1579 14ZM72.5311 20.555C71.7611 21.305 70.8311 21.68 69.7411 21.68C68.6311 21.68 67.6961 21.305 66.9361 20.555C66.1761 19.795 65.7961 18.86 65.7961 17.75C65.7961 16.64 66.1761 15.71 66.9361 14.96C67.6961 14.2 68.6311 13.82 69.7411 13.82C70.8411 13.82 71.7711 14.2 72.5311 14.96C73.3011 15.71 73.6861 16.64 73.6861 17.75C73.6861 18.85 73.3011 19.785 72.5311 20.555ZM67.6411 19.865C68.2111 20.435 68.9111 20.72 69.7411 20.72C70.5711 20.72 71.2711 20.435 71.8411 19.865C72.4111 19.275 72.6961 18.57 72.6961 17.75C72.6961 16.92 72.4111 16.22 71.8411 15.65C71.2711 15.07 70.5711 14.78 69.7411 14.78C68.9111 14.78 68.2111 15.07 67.6411 15.65C67.0711 16.22 66.7861 16.92 66.7861 17.75C66.7861 18.57 67.0711 19.275 67.6411 19.865ZM79.2128 13.82C80.2828 13.82 81.1928 14.2 81.9428 14.96C82.7028 15.72 83.0828 16.65 83.0828 17.75C83.0828 18.85 82.7028 19.78 81.9428 20.54C81.1928 21.3 80.2828 21.68 79.2128 21.68C77.8828 21.68 76.8728 21.13 76.1828 20.03V24.5H75.1928V14H76.1828V15.47C76.8728 14.37 77.8828 13.82 79.2128 13.82ZM77.0378 19.865C77.6078 20.435 78.3078 20.72 79.1378 20.72C79.9678 20.72 80.6678 20.435 81.2378 19.865C81.8078 19.275 82.0928 18.57 82.0928 17.75C82.0928 16.92 81.8078 16.22 81.2378 15.65C80.6678 15.07 79.9678 14.78 79.1378 14.78C78.3078 14.78 77.6078 15.07 77.0378 15.65C76.4678 16.22 76.1828 16.92 76.1828 17.75C76.1828 18.57 76.4678 19.275 77.0378 19.865Z" fill="black"/>
</svg>
