<svg width="143" height="34" viewBox="0 0 143 34" fill="none" xmlns="http://www.w3.org/2000/svg">
<rect y="0.5" width="143" height="33" rx="16.5" fill="white"/>
<path d="M28.2484 14.7816C28.5882 14.7816 28.9247 14.7147 29.2386 14.5846C29.5526 14.4546 29.8378 14.264 30.0781 14.0237C30.3184 13.7834 30.509 13.4982 30.639 13.1843C30.7691 12.8703 30.836 12.5338 30.836 12.194C30.836 11.8542 30.7691 11.5177 30.639 11.2038C30.509 10.8899 30.3184 10.6046 30.0781 10.3643C29.8378 10.1241 29.5526 9.93345 29.2386 9.80341C28.9247 9.67338 28.5882 9.60645 28.2484 9.60645C27.5621 9.60645 26.904 9.87906 26.4187 10.3643C25.9334 10.8496 25.6608 11.5078 25.6608 12.194C25.6608 12.8803 25.9334 13.5385 26.4187 14.0237C26.904 14.509 27.5621 14.7816 28.2484 14.7816ZM25.6608 17.3692C25.6608 16.879 25.8556 16.4089 26.2022 16.0623C26.5488 15.7156 27.0189 15.5209 27.5091 15.5209H33.4236C33.9138 15.5209 34.3839 15.7156 34.7305 16.0623C35.0771 16.4089 35.2718 16.879 35.2718 17.3692V21.0657C35.2718 21.3085 35.224 21.5488 35.1312 21.773C35.0383 21.9973 34.9021 22.201 34.7305 22.3727C34.5589 22.5443 34.3551 22.6804 34.1309 22.7733C33.9066 22.8662 33.6663 22.914 33.4236 22.914H27.5091C27.2664 22.914 27.026 22.8662 26.8018 22.7733C26.5775 22.6804 26.3738 22.5443 26.2022 22.3727C26.0305 22.201 25.8944 21.9973 25.8015 21.773C25.7086 21.5488 25.6608 21.3085 25.6608 21.0657V17.3692ZM21.999 16.1589V22.3144C21.9991 22.424 22.0317 22.5311 22.0926 22.6222C22.1536 22.7133 22.2401 22.7843 22.3414 22.8262C22.4426 22.8682 22.5541 22.8792 22.6615 22.8578C22.769 22.8364 22.8678 22.7837 22.9453 22.7063L24.7707 20.8816C24.8747 20.7778 24.9332 20.6368 24.9333 20.4898V17.9695C24.9333 17.8964 24.9187 17.824 24.8906 17.7565C24.8624 17.689 24.8212 17.6277 24.7692 17.5762L22.9439 15.7649C22.8661 15.6878 22.7673 15.6355 22.6598 15.6145C22.5524 15.5935 22.4411 15.6048 22.3401 15.6469C22.239 15.6891 22.1527 15.7602 22.092 15.8513C22.0313 15.9424 21.999 16.0495 21.999 16.1589ZM35.2718 12.9333C35.2718 13.4235 35.0771 13.8936 34.7305 14.2403C34.3839 14.5869 33.9138 14.7816 33.4236 14.7816C32.9334 14.7816 32.4633 14.5869 32.1166 14.2403C31.77 13.8936 31.5753 13.4235 31.5753 12.9333C31.5753 12.4431 31.77 11.973 32.1166 11.6264C32.4633 11.2798 32.9334 11.0851 33.4236 11.0851C33.9138 11.0851 34.3839 11.2798 34.7305 11.6264C35.0771 11.973 35.2718 12.4431 35.2718 12.9333Z" fill="#4293EF"/>
<path d="M48.3864 16.1L53.5764 21.5H52.1964L47.2764 16.415V21.5H46.2264V11H47.2764V15.8L52.0464 11H53.4264L48.3864 16.1ZM55.6175 19.775L60.0875 14H60.9275V21.5H59.9375V15.725L55.4675 21.5H54.6275V14H55.6175V19.775ZM68.1811 17.27V14H69.1711V21.5H68.1811V18.23H63.8611V21.5H62.8711V14H63.8611V17.27H68.1811ZM77.3996 20.555C76.6296 21.305 75.6996 21.68 74.6096 21.68C73.4996 21.68 72.5646 21.305 71.8046 20.555C71.0446 19.795 70.6646 18.86 70.6646 17.75C70.6646 16.64 71.0446 15.71 71.8046 14.96C72.5646 14.2 73.4996 13.82 74.6096 13.82C75.7096 13.82 76.6396 14.2 77.3996 14.96C78.1696 15.71 78.5546 16.64 78.5546 17.75C78.5546 18.85 78.1696 19.785 77.3996 20.555ZM72.5096 19.865C73.0796 20.435 73.7796 20.72 74.6096 20.72C75.4396 20.72 76.1396 20.435 76.7096 19.865C77.2796 19.275 77.5646 18.57 77.5646 17.75C77.5646 16.92 77.2796 16.22 76.7096 15.65C76.1396 15.07 75.4396 14.78 74.6096 14.78C73.7796 14.78 73.0796 15.07 72.5096 15.65C71.9396 16.22 71.6546 16.92 71.6546 17.75C71.6546 18.57 71.9396 19.275 72.5096 19.865Z" fill="black"/>
</svg>
