<svg width="143" height="34" viewBox="0 0 143 34" fill="none" xmlns="http://www.w3.org/2000/svg">
<rect y="0.5" width="143" height="33" rx="16.5" fill="white"/>
<path d="M30.8125 10.9902V19.3373C30.8125 19.9571 30.5663 20.5516 30.128 20.9899C29.6897 21.4282 29.0952 21.6744 28.4753 21.6744C27.8555 21.6744 27.261 21.4282 26.8227 20.9899C26.3844 20.5516 26.1382 19.9571 26.1382 19.3373C26.1382 18.7174 26.3844 18.1229 26.8227 17.6846C27.261 17.2463 27.8555 17.0001 28.4753 17.0001C28.8359 17.0001 29.1765 17.0802 29.477 17.2271V13.3074L22.7993 14.7297V20.6728C22.7993 21.2927 22.5531 21.8871 22.1148 22.3254C21.6765 22.7637 21.082 23.01 20.4622 23.01C19.8423 23.01 19.2478 22.7637 18.8095 22.3254C18.3712 21.8871 18.125 21.2927 18.125 20.6728C18.125 20.0529 18.3712 19.4585 18.8095 19.0202C19.2478 18.5819 19.8423 18.3356 20.4622 18.3356C20.8228 18.3356 21.1633 18.4158 21.4638 18.5627V12.9935L30.8125 10.9902Z" fill="#4293EF"/>
<path d="M46.8895 11H48.1945V21.5H47.1445V12.59L43.4695 18.74H43.3195L39.6445 12.59V21.5H38.5945V11H39.8995L43.3945 16.85L46.8895 11ZM53.2616 20.285L55.6916 14H56.7416L53.5316 22.19C53.2316 22.95 52.8116 23.535 52.2716 23.945C51.7416 24.365 51.1516 24.55 50.5016 24.5V23.57C51.4016 23.68 52.0866 23.16 52.5566 22.01L52.7516 21.545L49.3916 14H50.4416L53.2616 20.285ZM61.5116 17.645C62.3816 17.975 62.8166 18.575 62.8166 19.445C62.8166 20.075 62.5716 20.605 62.0816 21.035C61.6116 21.465 60.9216 21.68 60.0116 21.68C58.4916 21.68 57.5016 21.08 57.0416 19.88L57.8816 19.385C58.2016 20.275 58.9116 20.72 60.0116 20.72C60.5816 20.72 61.0266 20.6 61.3466 20.36C61.6666 20.11 61.8266 19.785 61.8266 19.385C61.8266 19.025 61.6966 18.74 61.4366 18.53C61.1766 18.31 60.8266 18.2 60.3866 18.2H59.2916V17.24H60.0866C60.5166 17.24 60.8516 17.135 61.0916 16.925C61.3416 16.705 61.4666 16.405 61.4666 16.025C61.4666 15.665 61.3166 15.37 61.0166 15.14C60.7266 14.9 60.3416 14.78 59.8616 14.78C58.9316 14.78 58.3066 15.155 57.9866 15.905L57.1616 15.425C57.6616 14.355 58.5616 13.82 59.8616 13.82C60.6616 13.82 61.2916 14.03 61.7516 14.45C62.2216 14.86 62.4566 15.365 62.4566 15.965C62.4566 16.735 62.1416 17.295 61.5116 17.645ZM65.1613 16.85H67.2163C67.9063 16.85 68.4963 17.07 68.9863 17.51C69.4763 17.94 69.7213 18.495 69.7213 19.175C69.7213 19.865 69.4763 20.425 68.9863 20.855C68.5163 21.285 67.9263 21.5 67.2163 21.5H64.1713V14H65.1613V16.85ZM70.7713 21.5V14H71.7613V21.5H70.7713ZM65.1613 20.54H67.2163C67.6463 20.54 68.0063 20.415 68.2963 20.165C68.5863 19.905 68.7313 19.575 68.7313 19.175C68.7313 18.775 68.5863 18.45 68.2963 18.2C68.0063 17.94 67.6463 17.81 67.2163 17.81H65.1613V20.54ZM75.7586 17.6L79.7786 21.5H78.4586L74.7086 17.885V21.5H73.7186V14H74.7086V17.315L78.2786 14H79.6286L75.7586 17.6ZM86.6836 15.47V14H87.6736V21.5H86.6836V20.03C85.9936 21.13 84.9836 21.68 83.6536 21.68C82.5836 21.68 81.6686 21.3 80.9086 20.54C80.1586 19.78 79.7836 18.85 79.7836 17.75C79.7836 16.65 80.1586 15.72 80.9086 14.96C81.6686 14.2 82.5836 13.82 83.6536 13.82C84.9836 13.82 85.9936 14.37 86.6836 15.47ZM81.6286 19.865C82.1986 20.435 82.8986 20.72 83.7286 20.72C84.5586 20.72 85.2586 20.435 85.8286 19.865C86.3986 19.275 86.6836 18.57 86.6836 17.75C86.6836 16.92 86.3986 16.22 85.8286 15.65C85.2586 15.07 84.5586 14.78 83.7286 14.78C82.8986 14.78 82.1986 15.07 81.6286 15.65C81.0586 16.22 80.7736 16.92 80.7736 17.75C80.7736 18.57 81.0586 19.275 81.6286 19.865Z" fill="black"/>
</svg>
