<svg width="143" height="34" viewBox="0 0 143 34" fill="none" xmlns="http://www.w3.org/2000/svg">
<rect y="0.5" width="143" height="33" rx="16.5" fill="white"/>
<g clip-path="url(#clip0_3374_403)">
<path fill-rule="evenodd" clip-rule="evenodd" d="M25.4064 19.6682C26.0703 19.2843 26.6504 18.7708 27.112 18.1583C26.9632 17.9269 26.8574 17.6706 26.7995 17.4017L26.7778 17.3009C26.7154 17.0133 26.5685 16.7509 26.356 16.5473C26.1435 16.3438 25.875 16.2084 25.5849 16.1585C23.213 15.7464 23.213 12.3419 25.5849 11.9287C25.8651 11.8804 26.1253 11.7524 26.3345 11.5599C26.5436 11.3674 26.6928 11.1186 26.764 10.8435C26.2063 10.2357 25.5237 9.75564 24.7632 9.43623C24.0026 9.11682 23.182 8.96558 22.3575 8.99288C21.5331 9.02018 20.7242 9.22537 19.9865 9.59439C19.2487 9.96341 18.5994 10.4875 18.0831 11.1309C17.5668 11.7742 17.1956 12.5216 16.995 13.3217C16.7944 14.1219 16.7692 14.956 16.921 15.7668C17.0728 16.5776 17.3981 17.346 17.8746 18.0194C18.351 18.6928 18.9674 19.2553 19.6815 19.6682V21.0064C19.6815 21.31 19.8021 21.6012 20.0168 21.8159C20.2315 22.0306 20.5227 22.1512 20.8263 22.1512H24.2605C24.5641 22.1512 24.8553 22.0306 25.0699 21.8159C25.2846 21.6012 25.4052 21.31 25.4052 21.0064L25.4064 19.6682ZM19.6827 24.1545C19.6827 23.9268 19.7731 23.7084 19.9341 23.5474C20.0952 23.3864 20.3135 23.2959 20.5412 23.2959H24.5478C24.7755 23.2959 24.9939 23.3864 25.1549 23.5474C25.3159 23.7084 25.4064 23.9268 25.4064 24.1545C25.4064 24.3822 25.3159 24.6005 25.1549 24.7615C24.9939 24.9226 24.7755 25.013 24.5478 25.013H20.5412C20.3135 25.013 20.0952 24.9226 19.9341 24.7615C19.7731 24.6005 19.6827 24.3822 19.6827 24.1545ZM28.0164 10.9522C28.2258 9.99521 29.5881 9.98948 29.8056 10.9442L29.8159 10.99L29.8365 11.0793C29.9601 11.6022 30.2342 12.0774 30.6251 12.446C31.0159 12.8147 31.5063 13.0607 32.0355 13.1535C33.0337 13.3275 33.0337 14.7607 32.0355 14.9347C31.5033 15.028 31.0103 15.2762 30.6183 15.6482C30.2264 16.0202 29.9528 16.4995 29.8319 17.0262L29.8056 17.1429C29.5881 18.0988 28.2247 18.0931 28.0141 17.1349L27.9923 17.0353C27.8769 16.5066 27.6067 16.0243 27.216 15.6497C26.8254 15.2752 26.3321 15.0255 25.799 14.9325C24.8019 14.7596 24.8019 13.3287 25.799 13.1547C26.3302 13.0623 26.8221 12.8144 27.2124 12.4423C27.6026 12.0702 27.8736 11.5906 27.9912 11.0644L28.0083 10.99L28.0164 10.9522Z" fill="#4293EF"/>
</g>
<path d="M45.3445 15.605V11H46.3945V21.5H45.3445V16.595H39.6445V21.5H38.5945V11H39.6445V15.605H45.3445ZM54.9398 15.47V14H55.9298V21.5H54.9398V20.03C54.2498 21.13 53.2398 21.68 51.9098 21.68C50.8398 21.68 49.9248 21.3 49.1648 20.54C48.4148 19.78 48.0398 18.85 48.0398 17.75C48.0398 16.65 48.4148 15.72 49.1648 14.96C49.9248 14.2 50.8398 13.82 51.9098 13.82C53.2398 13.82 54.2498 14.37 54.9398 15.47ZM49.8848 19.865C50.4548 20.435 51.1548 20.72 51.9848 20.72C52.8148 20.72 53.5148 20.435 54.0848 19.865C54.6548 19.275 54.9398 18.57 54.9398 17.75C54.9398 16.92 54.6548 16.22 54.0848 15.65C53.5148 15.07 52.8148 14.78 51.9848 14.78C51.1548 14.78 50.4548 15.07 49.8848 15.65C49.3148 16.22 49.0298 16.92 49.0298 17.75C49.0298 18.57 49.3148 19.275 49.8848 19.865ZM60.846 20.285L63.276 14H64.326L61.116 22.19C60.816 22.95 60.396 23.535 59.856 23.945C59.326 24.365 58.736 24.55 58.086 24.5V23.57C58.986 23.68 59.671 23.16 60.141 22.01L60.336 21.545L56.976 14H58.026L60.846 20.285ZM67.4125 17.6L71.4325 21.5H70.1125L66.3625 17.885V21.5H65.3725V14H66.3625V17.315L69.9325 14H71.2825L67.4125 17.6ZM78.3375 15.47V14H79.3275V21.5H78.3375V20.03C77.6475 21.13 76.6375 21.68 75.3075 21.68C74.2375 21.68 73.3225 21.3 72.5625 20.54C71.8125 19.78 71.4375 18.85 71.4375 17.75C71.4375 16.65 71.8125 15.72 72.5625 14.96C73.3225 14.2 74.2375 13.82 75.3075 13.82C76.6375 13.82 77.6475 14.37 78.3375 15.47ZM73.2825 19.865C73.8525 20.435 74.5525 20.72 75.3825 20.72C76.2125 20.72 76.9125 20.435 77.4825 19.865C78.0525 19.275 78.3375 18.57 78.3375 17.75C78.3375 16.92 78.0525 16.22 77.4825 15.65C76.9125 15.07 76.2125 14.78 75.3825 14.78C74.5525 14.78 73.8525 15.07 73.2825 15.65C72.7125 16.22 72.4275 16.92 72.4275 17.75C72.4275 18.57 72.7125 19.275 73.2825 19.865Z" fill="black"/>
<defs>
<clipPath id="clip0_3374_403">
<rect width="16.0263" height="16.0263" fill="white" transform="translate(16.7891 8.98682)"/>
</clipPath>
</defs>
</svg>
