<svg width="143" height="34" viewBox="0 0 143 34" fill="none" xmlns="http://www.w3.org/2000/svg">
<rect y="0.5" width="143" height="33" rx="16.5" fill="white"/>
<path d="M28.5747 13.9863C28.4067 13.6053 28.1862 13.2497 27.9195 12.9298L26.5062 14.3431C26.8371 14.5389 27.2268 14.6106 27.6057 14.5452C27.9846 14.4798 28.3278 14.2817 28.5739 13.9863M25.9321 13.7698L27.3454 12.3565C27.0258 12.0899 26.6705 11.8694 26.2897 11.7013C25.9941 11.9475 25.7959 12.2909 25.7305 12.6699C25.6652 13.049 25.7369 13.4389 25.9329 13.7698M24.8983 12.946C24.8983 13.4714 25.0653 13.958 25.3483 14.3553L24.6956 15.008L21.8673 12.1789C22.3755 11.8097 22.9558 11.5516 23.5703 11.4214C24.1849 11.2912 24.82 11.2918 25.4343 11.4232C25.0875 11.855 24.8984 12.3922 24.8983 12.946ZM25.2688 15.5813L25.9216 14.9286C26.3189 15.2124 26.8054 15.3786 27.3308 15.3786C27.8846 15.3787 28.4217 15.1899 28.8536 14.8434C28.919 15.1472 28.952 15.4607 28.9526 15.784C28.9526 16.7651 28.6355 17.6733 28.0979 18.4104L25.2688 15.5813ZM27.5611 19.0201L24.6956 16.1546L24.205 16.6451C25.0483 17.6064 25.5657 18.8099 25.6832 20.0832C26.3967 19.8861 27.0389 19.5148 27.5611 19.0201ZM20.1929 14.5937C20.3899 13.8801 20.7605 13.2379 21.2551 12.7157L24.1223 15.5813L23.6317 16.0719C22.6705 15.2286 21.4662 14.7111 20.1929 14.5937ZM18.8169 15.3786C18.4943 15.3786 18.1849 15.5067 17.9568 15.7348C17.7287 15.9629 17.6006 16.2723 17.6006 16.5949V17.4057C17.6006 18.8036 18.1559 20.1441 19.1443 21.1326C20.1327 22.121 21.4733 22.6763 22.8711 22.6763H23.682C24.0046 22.6763 24.3139 22.5481 24.542 22.32C24.7701 22.0919 24.8983 21.7826 24.8983 21.46V20.6491C24.8983 19.2513 24.343 17.9107 23.3546 16.9223C22.3662 15.9339 21.0256 15.3786 19.6277 15.3786H18.8169ZM20.3543 18.1322C20.3919 18.0945 20.4367 18.0645 20.4859 18.0441C20.5352 18.0237 20.588 18.0131 20.6413 18.0131C20.6946 18.0131 20.7474 18.0237 20.7967 18.0441C20.8459 18.0645 20.8907 18.0945 20.9283 18.1322L22.1446 19.3485C22.1823 19.3862 22.2122 19.431 22.2326 19.4802C22.253 19.5295 22.2635 19.5823 22.2635 19.6356C22.2635 19.6889 22.253 19.7417 22.2326 19.7909C22.2122 19.8402 22.1823 19.8849 22.1446 19.9226C22.1069 19.9603 22.0622 19.9902 22.0129 20.0106C21.9637 20.031 21.9109 20.0415 21.8576 20.0415C21.8043 20.0415 21.7515 20.031 21.7022 20.0106C21.653 19.9902 21.6082 19.9603 21.5705 19.9226L20.3543 18.7063C20.3165 18.6687 20.2865 18.6239 20.2661 18.5747C20.2457 18.5254 20.2351 18.4726 20.2351 18.4193C20.2351 18.366 20.2457 18.3132 20.2661 18.2639C20.2865 18.2146 20.3165 18.1699 20.3543 18.1322Z" fill="#4293EF"/>
<path d="M40.4468 21.68C38.8468 21.68 37.5318 21.155 36.5018 20.105C35.4618 19.045 34.9418 17.76 34.9418 16.25C34.9418 14.74 35.4618 13.455 36.5018 12.395C37.5318 11.345 38.8468 10.82 40.4468 10.82C41.4068 10.82 42.2918 11.055 43.1018 11.525C43.9118 11.985 44.5418 12.61 44.9918 13.4L44.0618 13.94C43.7318 13.3 43.2418 12.79 42.5918 12.41C41.9418 12.03 41.2268 11.84 40.4468 11.84C39.1268 11.84 38.0568 12.265 37.2368 13.115C36.4068 13.975 35.9918 15.02 35.9918 16.25C35.9918 17.48 36.4068 18.525 37.2368 19.385C38.0568 20.235 39.1268 20.66 40.4468 20.66C41.2268 20.66 41.9418 20.47 42.5918 20.09C43.2418 19.71 43.7318 19.2 44.0618 18.56L44.9918 19.085C44.5618 19.875 43.9368 20.505 43.1168 20.975C42.2968 21.445 41.4068 21.68 40.4468 21.68ZM46.4186 14H52.7186V21.5H51.7286V14.96H47.4086V21.5H46.4186V14ZM60.9471 20.555C60.1771 21.305 59.2471 21.68 58.1571 21.68C57.0471 21.68 56.1121 21.305 55.3521 20.555C54.5921 19.795 54.2121 18.86 54.2121 17.75C54.2121 16.64 54.5921 15.71 55.3521 14.96C56.1121 14.2 57.0471 13.82 58.1571 13.82C59.2571 13.82 60.1871 14.2 60.9471 14.96C61.7171 15.71 62.1021 16.64 62.1021 17.75C62.1021 18.85 61.7171 19.785 60.9471 20.555ZM56.0571 19.865C56.6271 20.435 57.3271 20.72 58.1571 20.72C58.9871 20.72 59.6871 20.435 60.2571 19.865C60.8271 19.275 61.1121 18.57 61.1121 17.75C61.1121 16.92 60.8271 16.22 60.2571 15.65C59.6871 15.07 58.9871 14.78 58.1571 14.78C57.3271 14.78 56.6271 15.07 56.0571 15.65C55.4871 16.22 55.2021 16.92 55.2021 17.75C55.2021 18.57 55.4871 19.275 56.0571 19.865ZM67.6288 13.82C68.6988 13.82 69.6088 14.2 70.3588 14.96C71.1188 15.72 71.4988 16.65 71.4988 17.75C71.4988 18.85 71.1188 19.78 70.3588 20.54C69.6088 21.3 68.6988 21.68 67.6288 21.68C66.2988 21.68 65.2888 21.13 64.5988 20.03V24.5H63.6088V14H64.5988V15.47C65.2888 14.37 66.2988 13.82 67.6288 13.82ZM65.4538 19.865C66.0238 20.435 66.7238 20.72 67.5538 20.72C68.3838 20.72 69.0838 20.435 69.6538 19.865C70.2238 19.275 70.5088 18.57 70.5088 17.75C70.5088 16.92 70.2238 16.22 69.6538 15.65C69.0838 15.07 68.3838 14.78 67.5538 14.78C66.7238 14.78 66.0238 15.07 65.4538 15.65C64.8838 16.22 64.5988 16.92 64.5988 17.75C64.5988 18.57 64.8838 19.275 65.4538 19.865ZM71.802 14H78.102V14.96H75.447V21.5H74.457V14.96H71.802V14Z" fill="black"/>
</svg>
