<svg width="143" height="34" viewBox="0 0 143 34" fill="none" xmlns="http://www.w3.org/2000/svg">
<rect y="0.5" width="143" height="33" rx="16.5" fill="white"/>
<path d="M25.4704 21.0062V22.3417H28.1415V23.6772H21.4638V22.3417H24.1349V21.0062H18.7874C18.6997 21.0055 18.6131 20.9875 18.5323 20.9533C18.4516 20.9191 18.3783 20.8693 18.3168 20.8068C18.2553 20.7443 18.2067 20.6703 18.1738 20.589C18.1409 20.5078 18.1243 20.4208 18.125 20.3331V11.6629C18.125 11.2909 18.4289 10.9897 18.7874 10.9897H30.8179C31.1838 10.9897 31.4803 11.2896 31.4803 11.6622V20.3331C31.4803 20.705 31.1765 21.0062 30.8179 21.0062H25.4704Z" fill="#4293EF"/>
<path d="M37.6945 11H45.1945V11.99H41.9695V21.5H40.9195V11.99H37.6945V11ZM48.5125 13.82C49.6325 13.82 50.5275 14.215 51.1975 15.005C51.8875 15.785 52.2325 16.71 52.2325 17.78C52.2325 17.83 52.2225 17.985 52.2025 18.245H45.6175C45.7175 18.995 46.0375 19.595 46.5775 20.045C47.1175 20.495 47.7925 20.72 48.6025 20.72C49.7425 20.72 50.5475 20.295 51.0175 19.445L51.8875 19.955C51.5575 20.495 51.1025 20.92 50.5225 21.23C49.9525 21.53 49.3075 21.68 48.5875 21.68C47.4075 21.68 46.4475 21.31 45.7075 20.57C44.9675 19.83 44.5975 18.89 44.5975 17.75C44.5975 16.62 44.9625 15.685 45.6925 14.945C46.4225 14.195 47.3625 13.82 48.5125 13.82ZM48.5125 14.78C47.7325 14.78 47.0775 15.01 46.5475 15.47C46.0275 15.93 45.7175 16.535 45.6175 17.285H51.2125C51.1025 16.485 50.7975 15.87 50.2975 15.44C49.7775 15 49.1825 14.78 48.5125 14.78ZM56.7393 17.615L59.6643 21.5H58.4793L56.1393 18.41L53.7993 21.5H52.6143L55.5543 17.615L52.8093 14H53.9943L56.1393 16.835L58.2843 14H59.4693L56.7393 17.615ZM66.1707 17.27V14H67.1607V21.5H66.1707V18.23H61.8507V21.5H60.8607V14H61.8507V17.27H66.1707ZM75.3893 20.555C74.6193 21.305 73.6893 21.68 72.5993 21.68C71.4893 21.68 70.5543 21.305 69.7943 20.555C69.0343 19.795 68.6543 18.86 68.6543 17.75C68.6543 16.64 69.0343 15.71 69.7943 14.96C70.5543 14.2 71.4893 13.82 72.5993 13.82C73.6993 13.82 74.6293 14.2 75.3893 14.96C76.1593 15.71 76.5443 16.64 76.5443 17.75C76.5443 18.85 76.1593 19.785 75.3893 20.555ZM70.4993 19.865C71.0693 20.435 71.7693 20.72 72.5993 20.72C73.4293 20.72 74.1293 20.435 74.6993 19.865C75.2693 19.275 75.5543 18.57 75.5543 17.75C75.5543 16.92 75.2693 16.22 74.6993 15.65C74.1293 15.07 73.4293 14.78 72.5993 14.78C71.7693 14.78 71.0693 15.07 70.4993 15.65C69.9293 16.22 69.6443 16.92 69.6443 17.75C69.6443 18.57 69.9293 19.275 70.4993 19.865ZM78.538 14H83.908V21.5H82.918V14.96H79.528V18.305C79.528 19.555 79.288 20.415 78.808 20.885C78.338 21.355 77.688 21.56 76.858 21.5V20.57C77.438 20.63 77.863 20.49 78.133 20.15C78.403 19.81 78.538 19.195 78.538 18.305V14ZM92.1401 20.555C91.3701 21.305 90.4401 21.68 89.3501 21.68C88.2401 21.68 87.3051 21.305 86.5451 20.555C85.7851 19.795 85.4051 18.86 85.4051 17.75C85.4051 16.64 85.7851 15.71 86.5451 14.96C87.3051 14.2 88.2401 13.82 89.3501 13.82C90.4501 13.82 91.3801 14.2 92.1401 14.96C92.9101 15.71 93.2951 16.64 93.2951 17.75C93.2951 18.85 92.9101 19.785 92.1401 20.555ZM87.2501 19.865C87.8201 20.435 88.5201 20.72 89.3501 20.72C90.1801 20.72 90.8801 20.435 91.4501 19.865C92.0201 19.275 92.3051 18.57 92.3051 17.75C92.3051 16.92 92.0201 16.22 91.4501 15.65C90.8801 15.07 90.1801 14.78 89.3501 14.78C88.5201 14.78 87.8201 15.07 87.2501 15.65C86.6801 16.22 86.3951 16.92 86.3951 17.75C86.3951 18.57 86.6801 19.275 87.2501 19.865ZM94.8018 14H99.6018V14.96H95.7918V21.5H94.8018V14ZM101.648 19.775L106.118 14H106.958V21.5H105.968V15.725L101.498 21.5H100.658V14H101.648V19.775ZM109.891 19.775L114.361 14H115.201V21.5H114.211V15.725L109.741 21.5H108.901V14H109.891V19.775Z" fill="black"/>
</svg>
