<svg width="143" height="34" viewBox="0 0 143 34" fill="none" xmlns="http://www.w3.org/2000/svg">
<rect y="0.5" width="143" height="33" rx="16.5" fill="white"/>
<path d="M29.2535 10.7681C29.484 10.7681 29.7055 10.8574 29.8714 11.0174L29.9489 11.1019L33.2423 15.2198H33.7053C34.3866 15.2198 35.0422 15.4801 35.5379 15.9475C36.0336 16.4149 36.3319 17.054 36.3719 17.7342L36.3764 17.8909V21.4523C36.3764 21.6884 36.2825 21.9149 36.1156 22.0819C35.9486 22.2488 35.7221 22.3426 35.486 22.3426H34.4434C34.2591 22.8633 33.9179 23.3141 33.4668 23.633C33.0158 23.9518 32.477 24.123 31.9246 24.123C31.3722 24.123 30.8334 23.9518 30.3824 23.633C29.9313 23.3141 29.5901 22.8633 29.4058 22.3426H25.5399C25.3556 22.8633 25.0144 23.3141 24.5633 23.633C24.1123 23.9518 23.5735 24.123 23.0211 24.123C22.4687 24.123 21.9299 23.9518 21.4788 23.633C21.0278 23.3141 20.6866 22.8633 20.5023 22.3426H19.4597C19.2236 22.3426 18.9971 22.2488 18.8301 22.0819C18.6631 21.9149 18.5693 21.6884 18.5693 21.4523V16.1102L18.5756 16.006L18.5827 15.9561L18.5978 15.8867L18.6085 15.8546L18.621 15.8101L20.4141 11.3281C20.4801 11.1629 20.5941 11.0212 20.7414 10.9214C20.8887 10.8216 21.0625 10.7682 21.2404 10.7681H29.2535ZM23.0211 20.5619C22.785 20.5619 22.5585 20.6557 22.3915 20.8227C22.2245 20.9897 22.1307 21.2161 22.1307 21.4523C22.1307 21.6884 22.2245 21.9149 22.3915 22.0819C22.5585 22.2488 22.785 22.3426 23.0211 22.3426C23.2572 22.3426 23.4837 22.2488 23.6507 22.0819C23.8176 21.9149 23.9114 21.6884 23.9114 21.4523C23.9114 21.2161 23.8176 20.9897 23.6507 20.8227C23.4837 20.6557 23.2572 20.5619 23.0211 20.5619ZM31.9246 20.5619C31.6885 20.5619 31.462 20.6557 31.295 20.8227C31.1281 20.9897 31.0342 21.2161 31.0342 21.4523C31.0342 21.6884 31.1281 21.9149 31.295 22.0819C31.462 22.2488 31.6885 22.3426 31.9246 22.3426C32.1607 22.3426 32.3872 22.2488 32.5542 22.0819C32.7211 21.9149 32.8149 21.6884 32.8149 21.4523C32.8149 21.2161 32.7211 20.9897 32.5542 20.8227C32.3872 20.6557 32.1607 20.5619 31.9246 20.5619ZM26.5825 12.5488H21.8423L20.7738 15.2198H26.5825V12.5488ZM28.8262 12.5488H28.3632V15.2198H30.963L28.8262 12.5488Z" fill="#4293EF"/>
<path d="M43.0373 11H50.5373V11.99H47.3123V21.5H46.2623V11.99H43.0373V11ZM54.7032 13.82C55.7732 13.82 56.6832 14.2 57.4332 14.96C58.1932 15.72 58.5732 16.65 58.5732 17.75C58.5732 18.85 58.1932 19.78 57.4332 20.54C56.6832 21.3 55.7732 21.68 54.7032 21.68C53.3732 21.68 52.3632 21.13 51.6732 20.03V24.5H50.6832V14H51.6732V15.47C52.3632 14.37 53.3732 13.82 54.7032 13.82ZM52.5282 19.865C53.0982 20.435 53.7982 20.72 54.6282 20.72C55.4582 20.72 56.1582 20.435 56.7282 19.865C57.2982 19.275 57.5832 18.57 57.5832 17.75C57.5832 16.92 57.2982 16.22 56.7282 15.65C56.1582 15.07 55.4582 14.78 54.6282 14.78C53.7982 14.78 53.0982 15.07 52.5282 15.65C51.9582 16.22 51.6732 16.92 51.6732 17.75C51.6732 18.57 51.9582 19.275 52.5282 19.865ZM66.5193 15.47V14H67.5093V21.5H66.5193V20.03C65.8293 21.13 64.8193 21.68 63.4893 21.68C62.4193 21.68 61.5043 21.3 60.7443 20.54C59.9943 19.78 59.6193 18.85 59.6193 17.75C59.6193 16.65 59.9943 15.72 60.7443 14.96C61.5043 14.2 62.4193 13.82 63.4893 13.82C64.8193 13.82 65.8293 14.37 66.5193 15.47ZM61.4643 19.865C62.0343 20.435 62.7343 20.72 63.5643 20.72C64.3943 20.72 65.0943 20.435 65.6643 19.865C66.2343 19.275 66.5193 18.57 66.5193 17.75C66.5193 16.92 66.2343 16.22 65.6643 15.65C65.0943 15.07 64.3943 14.78 63.5643 14.78C62.7343 14.78 62.0343 15.07 61.4643 15.65C60.8943 16.22 60.6093 16.92 60.6093 17.75C60.6093 18.57 60.8943 19.275 61.4643 19.865ZM74.7655 17.27V14H75.7555V21.5H74.7655V18.23H70.4455V21.5H69.4555V14H70.4455V17.27H74.7655ZM81.194 21.68C80.064 21.68 79.124 21.305 78.374 20.555C77.624 19.785 77.249 18.85 77.249 17.75C77.249 16.64 77.624 15.71 78.374 14.96C79.124 14.2 80.064 13.82 81.194 13.82C81.934 13.82 82.599 14 83.189 14.36C83.779 14.71 84.209 15.185 84.479 15.785L83.669 16.25C83.469 15.8 83.144 15.445 82.694 15.185C82.254 14.915 81.754 14.78 81.194 14.78C80.364 14.78 79.664 15.07 79.094 15.65C78.524 16.22 78.239 16.92 78.239 17.75C78.239 18.57 78.524 19.275 79.094 19.865C79.664 20.435 80.364 20.72 81.194 20.72C81.744 20.72 82.239 20.59 82.679 20.33C83.129 20.07 83.479 19.71 83.729 19.25L84.554 19.73C84.244 20.33 83.789 20.805 83.189 21.155C82.589 21.505 81.924 21.68 81.194 21.68ZM85.8254 14H92.1254V21.5H91.1354V14.96H86.8154V21.5H85.8254V14ZM100.354 20.555C99.5839 21.305 98.6539 21.68 97.5639 21.68C96.4539 21.68 95.5189 21.305 94.7589 20.555C93.9989 19.795 93.6189 18.86 93.6189 17.75C93.6189 16.64 93.9989 15.71 94.7589 14.96C95.5189 14.2 96.4539 13.82 97.5639 13.82C98.6639 13.82 99.5939 14.2 100.354 14.96C101.124 15.71 101.509 16.64 101.509 17.75C101.509 18.85 101.124 19.785 100.354 20.555ZM95.4639 19.865C96.0339 20.435 96.7339 20.72 97.5639 20.72C98.3939 20.72 99.0939 20.435 99.6639 19.865C100.234 19.275 100.519 18.57 100.519 17.75C100.519 16.92 100.234 16.22 99.6639 15.65C99.0939 15.07 98.3939 14.78 97.5639 14.78C96.7339 14.78 96.0339 15.07 95.4639 15.65C94.8939 16.22 94.6089 16.92 94.6089 17.75C94.6089 18.57 94.8939 19.275 95.4639 19.865ZM107.036 13.82C108.106 13.82 109.016 14.2 109.766 14.96C110.526 15.72 110.906 16.65 110.906 17.75C110.906 18.85 110.526 19.78 109.766 20.54C109.016 21.3 108.106 21.68 107.036 21.68C105.706 21.68 104.696 21.13 104.006 20.03V24.5H103.016V14H104.006V15.47C104.696 14.37 105.706 13.82 107.036 13.82ZM104.861 19.865C105.431 20.435 106.131 20.72 106.961 20.72C107.791 20.72 108.491 20.435 109.061 19.865C109.631 19.275 109.916 18.57 109.916 17.75C109.916 16.92 109.631 16.22 109.061 15.65C108.491 15.07 107.791 14.78 106.961 14.78C106.131 14.78 105.431 15.07 104.861 15.65C104.291 16.22 104.006 16.92 104.006 17.75C104.006 18.57 104.291 19.275 104.861 19.865ZM111.209 14H117.509V14.96H114.854V21.5H113.864V14.96H111.209V14Z" fill="black"/>
</svg>
