<svg width="143" height="34" viewBox="0 0 143 34" fill="none" xmlns="http://www.w3.org/2000/svg">
<rect y="0.5" width="143" height="33" rx="16.5" fill="white"/>
<path d="M27.0916 8.62891C22.476 8.62891 18.7207 12.3842 18.7207 16.9998C18.7207 21.6154 22.476 25.3707 27.0916 25.3707C31.7072 25.3707 35.4625 21.6154 35.4625 16.9998C35.4625 12.3842 31.7072 8.62891 27.0916 8.62891ZM26.3672 9.9573C26.3929 9.95408 26.4213 9.95923 26.4477 9.9573V10.5606H27.7355V9.95666C29.383 10.1043 30.9263 10.8259 32.0959 11.9955C33.2655 13.1651 33.9871 14.7084 34.1347 16.3559H33.5307V17.6437H34.1347C33.9871 19.2912 33.2655 20.8345 32.0959 22.0041C30.9263 23.1737 29.383 23.8953 27.7355 24.0429V23.4389H26.4477V24.0429C24.8002 23.8953 23.2569 23.1737 22.0873 22.0041C20.9177 20.8345 20.1961 19.2912 20.0485 17.6437H20.6524V16.3559H20.0485C20.3524 12.9798 23.0021 10.2966 26.3672 9.95666V9.9573ZM31.0162 13.0758L25.543 15.4505L23.1669 20.9238L28.6402 18.5491L31.0162 13.0758ZM27.0916 16.0339C27.6067 16.0339 28.0575 16.4847 28.0575 16.9998C28.0575 17.5149 27.6067 17.9657 27.0916 17.9657C26.5765 17.9657 26.1257 17.5149 26.1257 16.9998C26.1257 16.4847 26.5765 16.0339 27.0916 16.0339Z" fill="#4293EF"/>
<path d="M43.1736 11H50.6736V21.5H49.6236V11.99H44.2236V21.5H43.1736V11ZM55.746 20.285L58.176 14H59.226L56.016 22.19C55.716 22.95 55.296 23.535 54.756 23.945C54.226 24.365 53.636 24.55 52.986 24.5V23.57C53.886 23.68 54.571 23.16 55.041 22.01L55.236 21.545L51.876 14H52.926L55.746 20.285ZM59.3725 14H65.6725V14.96H63.0175V21.5H62.0275V14.96H59.3725V14ZM69.9009 13.82C71.0209 13.82 71.9159 14.215 72.5859 15.005C73.2759 15.785 73.6209 16.71 73.6209 17.78C73.6209 17.83 73.6109 17.985 73.5909 18.245H67.0059C67.1059 18.995 67.4259 19.595 67.9659 20.045C68.5059 20.495 69.1809 20.72 69.9909 20.72C71.1309 20.72 71.9359 20.295 72.4059 19.445L73.2759 19.955C72.9459 20.495 72.4909 20.92 71.9109 21.23C71.3409 21.53 70.6959 21.68 69.9759 21.68C68.7959 21.68 67.8359 21.31 67.0959 20.57C66.3559 19.83 65.9859 18.89 65.9859 17.75C65.9859 16.62 66.3509 15.685 67.0809 14.945C67.8109 14.195 68.7509 13.82 69.9009 13.82ZM69.9009 14.78C69.1209 14.78 68.4659 15.01 67.9359 15.47C67.4159 15.93 67.1059 16.535 67.0059 17.285H72.6009C72.4909 16.485 72.1859 15.87 71.6859 15.44C71.1659 15 70.5709 14.78 69.9009 14.78ZM84.1057 20.54V14H85.0957V21.5H75.0457V14H76.0357V20.54H79.5757V14H80.5657V20.54H84.1057ZM90.5043 13.82C91.6243 13.82 92.5193 14.215 93.1893 15.005C93.8793 15.785 94.2243 16.71 94.2243 17.78C94.2243 17.83 94.2143 17.985 94.1943 18.245H87.6093C87.7093 18.995 88.0293 19.595 88.5693 20.045C89.1093 20.495 89.7843 20.72 90.5943 20.72C91.7343 20.72 92.5393 20.295 93.0093 19.445L93.8793 19.955C93.5493 20.495 93.0943 20.92 92.5143 21.23C91.9443 21.53 91.2993 21.68 90.5793 21.68C89.3993 21.68 88.4393 21.31 87.6993 20.57C86.9593 19.83 86.5893 18.89 86.5893 17.75C86.5893 16.62 86.9543 15.685 87.6843 14.945C88.4143 14.195 89.3543 13.82 90.5043 13.82ZM90.5043 14.78C89.7243 14.78 89.0693 15.01 88.5393 15.47C88.0193 15.93 87.7093 16.535 87.6093 17.285H93.2043C93.0943 16.485 92.7893 15.87 92.2893 15.44C91.7693 15 91.1743 14.78 90.5043 14.78ZM99.144 21.68C98.014 21.68 97.074 21.305 96.324 20.555C95.574 19.785 95.199 18.85 95.199 17.75C95.199 16.64 95.574 15.71 96.324 14.96C97.074 14.2 98.014 13.82 99.144 13.82C99.884 13.82 100.549 14 101.139 14.36C101.729 14.71 102.159 15.185 102.429 15.785L101.619 16.25C101.419 15.8 101.094 15.445 100.644 15.185C100.204 14.915 99.704 14.78 99.144 14.78C98.314 14.78 97.614 15.07 97.044 15.65C96.474 16.22 96.189 16.92 96.189 17.75C96.189 18.57 96.474 19.275 97.044 19.865C97.614 20.435 98.314 20.72 99.144 20.72C99.694 20.72 100.189 20.59 100.629 20.33C101.079 20.07 101.429 19.71 101.679 19.25L102.504 19.73C102.194 20.33 101.739 20.805 101.139 21.155C100.539 21.505 99.874 21.68 99.144 21.68ZM102.729 14H109.029V14.96H106.374V21.5H105.384V14.96H102.729V14ZM114.855 17.645C115.675 17.945 116.085 18.53 116.085 19.4C116.085 20.02 115.875 20.525 115.455 20.915C115.045 21.305 114.47 21.5 113.73 21.5H110.085V14H113.43C114.15 14 114.71 14.185 115.11 14.555C115.52 14.925 115.725 15.41 115.725 16.01C115.725 16.76 115.435 17.305 114.855 17.645ZM113.43 14.96H111.075V17.24H113.43C114.3 17.24 114.735 16.85 114.735 16.07C114.735 15.72 114.62 15.45 114.39 15.26C114.17 15.06 113.85 14.96 113.43 14.96ZM111.075 20.54H113.73C114.17 20.54 114.505 20.435 114.735 20.225C114.975 20.015 115.095 19.72 115.095 19.34C115.095 18.98 114.975 18.7 114.735 18.5C114.505 18.3 114.17 18.2 113.73 18.2H111.075V20.54ZM118.425 19.775L122.895 14H123.735V21.5H122.745V15.725L118.275 21.5H117.435V14H118.425V19.775ZM128.034 14H131.079V21.5H130.089V18.62H128.799L126.489 21.5H125.229L127.599 18.59C126.989 18.5 126.489 18.25 126.099 17.84C125.719 17.42 125.529 16.915 125.529 16.325C125.529 15.655 125.769 15.1 126.249 14.66C126.749 14.22 127.344 14 128.034 14ZM128.034 17.69H130.089V14.96H128.034C127.604 14.96 127.244 15.09 126.954 15.35C126.664 15.6 126.519 15.925 126.519 16.325C126.519 16.725 126.664 17.055 126.954 17.315C127.244 17.565 127.604 17.69 128.034 17.69Z" fill="black"/>
</svg>
