<svg width="67" height="60" viewBox="0 0 67 60" fill="none" xmlns="http://www.w3.org/2000/svg">
<path d="M54.8182 18V12H48.7273V6H54.8182V0H60.9091V6H67V12H60.9091V18H54.8182ZM30.4545 49.5C34.2614 49.5 37.4977 48.188 40.1635 45.564C42.8292 42.94 44.1611 39.752 44.1591 36C44.1571 32.248 42.8252 29.061 40.1635 26.439C37.5017 23.817 34.2654 22.504 30.4545 22.5C26.6437 22.496 23.4084 23.809 20.7487 26.439C18.089 29.069 16.7561 32.256 16.75 36C16.7439 39.744 18.0768 42.932 20.7487 45.564C23.4206 48.196 26.6558 49.508 30.4545 49.5ZM30.4545 43.5C28.3227 43.5 26.5208 42.775 25.0489 41.325C23.5769 39.875 22.8409 38.1 22.8409 36C22.8409 33.9 23.5769 32.125 25.0489 30.675C26.5208 29.225 28.3227 28.5 30.4545 28.5C32.5864 28.5 34.3883 29.225 35.8602 30.675C37.3322 32.125 38.0682 33.9 38.0682 36C38.0682 38.1 37.3322 39.875 35.8602 41.325C34.3883 42.775 32.5864 43.5 30.4545 43.5ZM6.09091 60C4.41591 60 2.98252 59.413 1.79073 58.239C0.59894 57.065 0.0020303 55.652 0 54V18C0 16.35 0.596909 14.938 1.79073 13.764C2.98455 12.59 4.41794 12.002 6.09091 12H15.6841L21.3182 6H42.6364V18H48.7273V24H60.9091V54C60.9091 55.65 60.3132 57.063 59.1214 58.239C57.9296 59.415 56.4952 60.002 54.8182 60H6.09091Z" fill="#C1C1C1"/>
</svg>
