<svg width="20" height="17" viewBox="0 0 20 17" fill="none" xmlns="http://www.w3.org/2000/svg">
<path d="M9.16667 17C8.99 17 8.81417 16.9422 8.66667 16.83L5.33333 14.28C5.12333 14.1202 5 13.8678 5 13.6V10.5145L0.786667 5.50035C0.279167 4.89685 0 4.12675 0 3.332C0 1.4943 1.465 0 3.26667 0H11.7333C13.535 0 15 1.4943 15 3.332C15 4.12675 14.7208 4.89685 14.2133 5.50035L10 10.5145V16.15C10 16.4722 9.82167 16.7663 9.53917 16.9108C9.42083 16.9711 9.29333 17 9.16667 17ZM20 15.3C20 14.8308 19.6267 14.45 19.1667 14.45H12.5C12.04 14.45 11.6667 14.8308 11.6667 15.3C11.6667 15.7692 12.04 16.15 12.5 16.15H19.1667C19.6267 16.15 20 15.7692 20 15.3ZM20 11.9C20 11.4308 19.6267 11.05 19.1667 11.05H12.5C12.04 11.05 11.6667 11.4308 11.6667 11.9C11.6667 12.3692 12.04 12.75 12.5 12.75H19.1667C19.6267 12.75 20 12.3692 20 11.9ZM20 8.5C20 8.0308 19.6267 7.65 19.1667 7.65H15C14.54 7.65 14.1667 8.0308 14.1667 8.5C14.1667 8.9692 14.54 9.35 15 9.35H19.1667C19.6267 9.35 20 8.9692 20 8.5Z" fill="#4293EF"/>
</svg>
