<svg width="31" height="28" viewBox="0 0 31 28" fill="none" xmlns="http://www.w3.org/2000/svg">
<g clip-path="url(#clip0_2686_83)">
<path d="M26.4724 1.89772L26.641 1.91439L26.8088 1.94182C27.1422 2.0083 27.4659 2.14388 27.7525 2.34858L27.8933 2.4569L28.0267 2.57716C28.2842 2.82773 28.4872 3.14075 28.6041 3.49851L28.6552 3.68169L28.6909 3.86923C28.7546 4.30864 28.6832 4.75299 28.4931 5.14885L28.4921 5.15083L19.1213 24.5783C18.9188 24.9984 18.599 25.331 18.2261 25.5574C17.8998 25.7554 17.5352 25.8713 17.1653 25.9053L17.0074 25.9157C16.7111 25.9242 16.4127 25.8804 16.1282 25.7836C15.8436 25.6866 15.572 25.5357 15.3347 25.3324C15.0972 25.1288 14.8963 24.8747 14.7553 24.5792C14.6202 24.2959 14.5477 23.9852 14.5416 23.666L14.5396 23.666L14.3094 15.6215L5.01141 15.8876L5.01138 15.8866C4.61491 15.8997 4.21341 15.8206 3.84678 15.6455L3.69009 15.564C3.27713 15.3287 2.92448 14.9659 2.71395 14.5006L2.70873 14.4891L2.70355 14.4785C2.45569 13.906 2.46076 13.2627 2.71213 12.6962L2.81478 12.494C3.0737 12.0392 3.47385 11.702 3.9217 11.5049L3.92267 11.5049L25.3119 2.10386L25.4712 2.04068C25.793 1.92522 26.1345 1.87695 26.4724 1.89772Z" fill="#4293EF" stroke="white" stroke-width="3"/>
</g>
<defs>
<clipPath id="clip0_2686_83">
<rect width="28.866" height="25.5348" fill="white" transform="translate(0.972656 1.72314) rotate(-1.63961)"/>
</clipPath>
</defs>
</svg>
