<svg width="27" height="24" viewBox="0 0 27 24" fill="none" xmlns="http://www.w3.org/2000/svg">
<g opacity="0.5">
<path d="M21.4197 2.76083C20.0559 1.70662 18.4719 0.926233 16.7674 0.468832C15.0629 0.01143 13.2749 -0.113068 11.5161 0.103181C8.26228 0.495847 5.29132 2.0241 3.20643 4.37762C1.12155 6.73114 0.0790318 9.73352 0.29056 12.7751C0.502088 15.8167 1.95181 18.6695 4.34535 20.7543C6.7389 22.8391 9.89684 23.9995 13.178 24H20.6932C22.12 23.9984 23.4879 23.4712 24.4968 22.534C25.5057 21.5968 26.0733 20.3261 26.075 19.0007V11.3107V11.2477C25.9611 9.61336 25.4895 8.01778 24.689 6.55854C23.8886 5.09929 22.7761 3.80705 21.4197 2.76083ZM8.85314 7.00226H13.1586C13.4441 7.00226 13.7178 7.10761 13.9197 7.29512C14.1216 7.48263 14.235 7.73695 14.235 8.00213C14.235 8.26731 14.1216 8.52163 13.9197 8.70914C13.7178 8.89665 13.4441 9.002 13.1586 9.002H8.85314C8.56767 9.002 8.29389 8.89665 8.09203 8.70914C7.89017 8.52163 7.77677 8.26731 7.77677 8.00213C7.77677 7.73695 7.89017 7.48263 8.09203 7.29512C8.29389 7.10761 8.56767 7.00226 8.85314 7.00226ZM17.4641 17.0009H8.85314C8.56767 17.0009 8.29389 16.8956 8.09203 16.7081C7.89017 16.5206 7.77677 16.2662 7.77677 16.0011C7.77677 15.7359 7.89017 15.4816 8.09203 15.2941C8.29389 15.1065 8.56767 15.0012 8.85314 15.0012H17.4641C17.7495 15.0012 18.0233 15.1065 18.2252 15.2941C18.427 15.4816 18.5404 15.7359 18.5404 16.0011C18.5404 16.2662 18.427 16.5206 18.2252 16.7081C18.0233 16.8956 17.7495 17.0009 17.4641 17.0009ZM17.4641 13.0015H8.85314C8.56767 13.0015 8.29389 12.8961 8.09203 12.7086C7.89017 12.5211 7.77677 12.2668 7.77677 12.0016C7.77677 11.7364 7.89017 11.4821 8.09203 11.2946C8.29389 11.1071 8.56767 11.0017 8.85314 11.0017H17.4641C17.7495 11.0017 18.0233 11.1071 18.2252 11.2946C18.427 11.4821 18.5404 11.7364 18.5404 12.0016C18.5404 12.2668 18.427 12.5211 18.2252 12.7086C18.0233 12.8961 17.7495 13.0015 17.4641 13.0015Z" fill="#4293EF"/>
</g>
</svg>
