<svg width="26" height="24" viewBox="0 0 26 24" fill="none" xmlns="http://www.w3.org/2000/svg">
<g opacity="0.5">
<path d="M25.867 7V8H0.0556641V7C0.0556641 4.239 2.46365 2 5.43302 2H6.50849V1C6.50849 0.448 6.99031 0 7.58397 0C8.17763 0 8.65944 0.448 8.65944 1V2H17.2632V1C17.2632 0.448 17.745 0 18.3387 0C18.9323 0 19.4142 0.448 19.4142 1V2H20.4896C23.459 2 25.867 4.239 25.867 7ZM25.867 17C25.867 20.86 22.4889 24 18.3387 24C14.1884 24 10.8104 20.86 10.8104 17C10.8104 13.14 14.1884 10 18.3387 10C22.4889 10 25.867 13.14 25.867 17ZM20.4896 17.586L19.4142 16.586V15C19.4142 14.448 18.9323 14 18.3387 14C17.745 14 17.2632 14.448 17.2632 15V17C17.2632 17.265 17.3761 17.52 17.5783 17.707L18.9689 19C19.3883 19.39 20.0702 19.39 20.4896 19C20.9091 18.61 20.9091 17.976 20.4896 17.586ZM8.65944 17C8.65944 14.171 10.0662 11.65 12.2612 10H0.0556641V19C0.0556641 21.761 2.46365 24 5.43302 24H12.2612C10.0662 22.35 8.65944 19.829 8.65944 17Z" fill="#4293EF"/>
</g>
</svg>
