<svg width="27" height="24" viewBox="0 0 27 24" fill="none" xmlns="http://www.w3.org/2000/svg">
<g opacity="0.5">
<path d="M14.2925 0C11.2987 0.00291109 8.42852 1.05527 6.31152 2.92622C4.19452 4.79717 3.00359 7.33393 3 9.97998C3 12.55 5.25148 16.572 9.6922 21.934C10.2209 22.5741 10.913 23.0949 11.7124 23.4539C12.5118 23.8129 13.3958 24 14.2925 24C15.1891 24 16.0731 23.8129 16.8725 23.4539C17.6719 23.0949 18.364 22.5741 18.8927 21.934C23.3334 16.572 25.5849 12.55 25.5849 9.97998C25.5813 7.33393 24.3904 4.79717 22.2734 2.92622C20.1564 1.05527 17.2862 0.00291109 14.2925 0ZM14.2925 13.958C13.3974 13.958 12.5224 13.7234 11.7782 13.2839C11.0339 12.8443 10.4539 12.2196 10.1114 11.4887C9.76883 10.7578 9.67921 9.95355 9.85383 9.17762C10.0285 8.4017 10.4595 7.68897 11.0924 7.12956C11.7253 6.57015 12.5317 6.18919 13.4096 6.03485C14.2874 5.88051 15.1974 5.95972 16.0243 6.26247C16.8513 6.56522 17.5581 7.07791 18.0553 7.73571C18.5526 8.3935 18.818 9.16686 18.818 9.95798C18.818 11.0188 18.3412 12.0363 17.4925 12.7864C16.6438 13.5366 15.4927 13.958 14.2925 13.958Z" fill="#4293EF"/>
</g>
</svg>
