<svg width="14" height="11" viewBox="0 0 14 11" fill="none" xmlns="http://www.w3.org/2000/svg">
<path d="M6.41667 11C6.293 11 6.16992 10.9626 6.06667 10.89L3.73333 9.24C3.58633 9.1366 3.5 8.97325 3.5 8.8V6.8035L0.550667 3.55905C0.195417 3.16855 0 2.67025 0 2.156C0 0.9669 1.0255 0 2.28667 0H8.21333C9.4745 0 10.5 0.9669 10.5 2.156C10.5 2.67025 10.3046 3.16855 9.94933 3.55905L7 6.8035V10.45C7 10.6585 6.87517 10.8488 6.67742 10.9423C6.59458 10.9813 6.50533 11 6.41667 11ZM14 9.9C14 9.5964 13.7387 9.35 13.4167 9.35H8.75C8.428 9.35 8.16667 9.5964 8.16667 9.9C8.16667 10.2036 8.428 10.45 8.75 10.45H13.4167C13.7387 10.45 14 10.2036 14 9.9ZM14 7.7C14 7.3964 13.7387 7.15 13.4167 7.15H8.75C8.428 7.15 8.16667 7.3964 8.16667 7.7C8.16667 8.0036 8.428 8.25 8.75 8.25H13.4167C13.7387 8.25 14 8.0036 14 7.7ZM14 5.5C14 5.1964 13.7387 4.95 13.4167 4.95H10.5C10.178 4.95 9.91667 5.1964 9.91667 5.5C9.91667 5.8036 10.178 6.05 10.5 6.05H13.4167C13.7387 6.05 14 5.8036 14 5.5Z" fill="white"/>
</svg>
