<svg width="54" height="54" viewBox="0 0 54 54" fill="none" xmlns="http://www.w3.org/2000/svg">
<path fill-rule="evenodd" clip-rule="evenodd" d="M25.6025 0.0574793C24.8394 0.304979 24.3994 0.744979 24.1863 1.46342C24.0659 1.8656 24.0453 2.8006 24.0453 7.68185C24.0453 14.1478 24.0384 14.0653 24.6984 14.7253C25.5819 15.6053 27.6444 15.6053 28.5278 14.7253C29.1878 14.0653 29.1809 14.1478 29.1809 7.68185C29.1809 1.4256 29.1706 1.3156 28.6619 0.710604C28.2356 0.205292 27.7784 0.0368543 26.7506 0.00935428C26.3673 -0.0123629 25.9827 0.0037567 25.6025 0.0574793ZM8.57657 6.84998C8.03345 7.09748 7.23251 7.88123 6.95407 8.4381C6.81082 8.7161 6.73267 9.02304 6.72552 9.3357C6.71838 9.64835 6.78242 9.95854 6.91282 10.2428C7.1672 10.81 15.1559 18.8262 15.785 19.1459C16.6788 19.6042 17.5874 19.382 18.5109 18.479C19.4184 17.5922 19.6591 16.6297 19.1984 15.7325C18.8788 15.1034 10.8625 7.11467 10.2953 6.86029C10.0242 6.74331 9.73228 6.68211 9.43699 6.68034C9.14171 6.67857 8.84909 6.73626 8.57657 6.84998ZM43.2953 6.90498C42.8725 7.10092 42.1506 7.7781 38.7063 11.2328C35.5403 14.4056 34.5744 15.43 34.4197 15.7669C34.2918 16.0464 34.2259 16.3502 34.2265 16.6575C34.2271 16.9649 34.2942 17.2685 34.4231 17.5475C34.6638 18.0631 35.4544 18.8744 35.9872 19.1528C36.5269 19.4347 37.3278 19.4312 37.8881 19.1459C38.4622 18.8503 46.4028 10.9097 46.6984 10.3356C46.8388 10.0399 46.9124 9.71701 46.9142 9.38972C46.916 9.06243 46.8459 8.73874 46.7088 8.44154C46.3283 7.80538 45.791 7.2775 45.1481 6.90842C44.8636 6.75504 44.5454 6.67446 44.2222 6.67386C43.8989 6.67326 43.5805 6.75266 43.2953 6.90498ZM1.51595 24.1269C0.503029 24.4454 -0.00228391 25.2555 7.75959e-06 26.5572C0.00344526 27.8875 0.498446 28.685 1.51251 28.9875C1.91813 29.1078 2.82219 29.1284 7.73438 29.1284C12.8528 29.1284 13.5369 29.1112 13.9563 28.9737C14.2646 28.873 14.5448 28.701 14.7741 28.4716C15.0035 28.2423 15.1755 27.962 15.2763 27.6537C15.5719 26.7428 15.4241 25.4503 14.9531 24.8109C14.7654 24.6046 14.5433 24.4324 14.2966 24.3022L13.8256 24.0409L7.86844 24.0203C3.07313 24.0065 1.8322 24.0272 1.51595 24.1269ZM39.4866 24.0787C39.022 24.2073 38.602 24.4619 38.2731 24.8144C37.8022 25.4503 37.6544 26.7428 37.95 27.6537C38.1494 28.2725 38.6513 28.7744 39.27 28.9737C39.6894 29.1112 40.3734 29.1284 45.4919 29.1284C50.4041 29.1284 51.3081 29.1078 51.7138 28.9875C52.7278 28.685 53.2228 27.8875 53.2263 26.5572C53.2263 25.2337 52.7209 24.4397 51.6725 24.1234C51.3184 24.0169 50.2081 23.9962 45.5056 24.0031C42.35 24.01 39.6413 24.0444 39.4866 24.0787ZM15.7953 34.405C15.3725 34.6009 14.6506 35.2781 11.2063 38.7328C8.04032 41.9056 7.07438 42.93 6.91969 43.2669C6.79184 43.5463 6.72595 43.8502 6.72654 44.1575C6.72714 44.4649 6.7942 44.7685 6.92313 45.0475C7.16376 45.5631 7.95438 46.3744 8.4872 46.6528C9.02688 46.9347 9.82782 46.9312 10.3881 46.6459C10.9622 46.3503 18.9028 38.4097 19.1984 37.8356C19.3388 37.5399 19.4124 37.217 19.4142 36.8897C19.416 36.5624 19.3459 36.2387 19.2088 35.9415C18.8283 35.3054 18.291 34.7775 17.6481 34.4084C17.3636 34.255 17.0454 34.1745 16.7222 34.1739C16.3989 34.1733 16.0805 34.2527 15.7953 34.405ZM36.0766 34.35C35.5334 34.5975 34.7325 35.3812 34.4541 35.9381C34.3108 36.2161 34.2327 36.523 34.2255 36.8357C34.2184 37.1483 34.2824 37.4585 34.4128 37.7428C34.6672 38.31 42.6559 46.3262 43.285 46.6459C44.1788 47.1042 45.0874 46.882 46.0109 45.979C46.9184 45.0922 47.1591 44.1297 46.6984 43.2325C46.3788 42.6034 38.3625 34.6147 37.7953 34.3603C37.5242 34.2433 37.2323 34.1821 36.937 34.1803C36.6417 34.1786 36.3491 34.2363 36.0766 34.35ZM25.7366 37.8253C25.2723 37.9565 24.8527 38.212 24.5231 38.5644C24.0488 39.2037 24.0453 39.2484 24.0453 45.429C24.0453 50.3515 24.0659 51.2556 24.1863 51.6612C24.4842 52.6696 25.2931 53.1726 26.6131 53.1703C27.9331 53.1749 28.7421 52.6719 29.04 51.6612C29.2531 50.9325 29.2497 39.8809 29.0331 39.245C28.9661 38.9888 28.8441 38.7502 28.6755 38.546C28.5069 38.3418 28.2958 38.1768 28.0569 38.0625C27.6788 37.8562 27.4588 37.8047 26.8091 37.7806C26.451 37.7581 26.0915 37.7731 25.7366 37.8253Z" fill="#4293EF"/>
</svg>
