<svg width="24" height="26" viewBox="0 0 24 26" fill="none" xmlns="http://www.w3.org/2000/svg">
<path d="M4.533 3.90805C6.52009 1.9607 9.1954 0.87622 11.9776 0.890272C14.7598 0.904323 17.424 2.01577 19.3913 3.98309C21.3586 5.95041 22.4701 8.61463 22.4841 11.3968C22.4982 14.179 21.4137 16.8543 19.4663 18.8414L13.885 24.4227C13.3849 24.9226 12.7068 25.2035 11.9997 25.2035C11.2926 25.2035 10.6144 24.9226 10.1143 24.4227L4.533 18.8414C2.55285 16.861 1.44043 14.1752 1.44043 11.3747C1.44043 8.57421 2.55285 5.8884 4.533 3.90805Z" stroke="black" stroke-width="1.5" stroke-linejoin="round"/>
<path d="M12 15.3745C14.2091 15.3745 16 13.5837 16 11.3745C16 9.16537 14.2091 7.37451 12 7.37451C9.79086 7.37451 8 9.16537 8 11.3745C8 13.5837 9.79086 15.3745 12 15.3745Z" stroke="black" stroke-width="1.5" stroke-linecap="round" stroke-linejoin="round"/>
</svg>
