<svg width="20" height="18" viewBox="0 0 20 18" fill="none" xmlns="http://www.w3.org/2000/svg">
<path d="M20 5.37265V6.06979H0V5.37265C0 3.44785 1.86583 1.88695 4.16667 1.88695H5V1.18982C5 0.804994 5.37333 0.492676 5.83333 0.492676C6.29333 0.492676 6.66667 0.804994 6.66667 1.18982V1.88695H13.3333V1.18982C13.3333 0.804994 13.7067 0.492676 14.1667 0.492676C14.6267 0.492676 15 0.804994 15 1.18982V1.88695H15.8333C18.1342 1.88695 20 3.44785 20 5.37265ZM20 12.344C20 15.035 17.3825 17.224 14.1667 17.224C10.9508 17.224 8.33333 15.035 8.33333 12.344C8.33333 9.65309 10.9508 7.46407 14.1667 7.46407C17.3825 7.46407 20 9.65309 20 12.344ZM15.8333 12.7526L15 12.0554V10.9498C15 10.5649 14.6267 10.2526 14.1667 10.2526C13.7067 10.2526 13.3333 10.5649 13.3333 10.9498V12.344C13.3333 12.5288 13.4208 12.7066 13.5775 12.8369L14.655 13.7383C14.98 14.0102 15.5083 14.0102 15.8333 13.7383C16.1583 13.4664 16.1583 13.0245 15.8333 12.7526ZM6.66667 12.344C6.66667 10.3718 7.75667 8.61435 9.4575 7.46407H0V13.7383C0 15.6631 1.86583 17.224 4.16667 17.224H9.4575C7.75667 16.0737 6.66667 14.3163 6.66667 12.344Z" fill="white"/>
</svg>
