<svg width="95" height="121" viewBox="0 0 95 121" fill="none" xmlns="http://www.w3.org/2000/svg">
<path d="M18.9229 106.5H23.1229V117H22.0729V112.8H19.5529L16.6729 117H15.4729L18.3979 112.755C17.6279 112.615 17.0029 112.26 16.5229 111.69C16.0229 111.1 15.7729 110.42 15.7729 109.65C15.7729 108.78 16.0779 108.04 16.6879 107.43C17.3079 106.81 18.0529 106.5 18.9229 106.5ZM18.9229 111.81H22.0729V107.49H18.9229C18.3429 107.49 17.8479 107.7 17.4379 108.12C17.0279 108.55 16.8229 109.06 16.8229 109.65C16.8229 110.23 17.0279 110.74 17.4379 111.18C17.8479 111.6 18.3429 111.81 18.9229 111.81ZM30.6847 112.77V109.5H31.6747V117H30.6847V113.73H26.3647V117H25.3747V109.5H26.3647V112.77H30.6847ZM40.0683 109.5V116.04H41.1183V119.01H40.1283V117H34.0083V119.01H33.0183V116.04H33.9333C34.4433 115.36 34.6983 114.415 34.6983 113.205V109.5H40.0683ZM35.1333 116.04H39.0783V110.46H35.6883V113.205C35.6883 114.365 35.5033 115.31 35.1333 116.04ZM45.7879 109.32C46.9079 109.32 47.8029 109.715 48.4729 110.505C49.1629 111.285 49.5079 112.21 49.5079 113.28C49.5079 113.33 49.4979 113.485 49.4779 113.745H42.8929C42.9929 114.495 43.3129 115.095 43.8529 115.545C44.3929 115.995 45.0679 116.22 45.8779 116.22C47.0179 116.22 47.8229 115.795 48.2929 114.945L49.1629 115.455C48.8329 115.995 48.3779 116.42 47.7979 116.73C47.2279 117.03 46.5829 117.18 45.8629 117.18C44.6829 117.18 43.7229 116.81 42.9829 116.07C42.2429 115.33 41.8729 114.39 41.8729 113.25C41.8729 112.12 42.2379 111.185 42.9679 110.445C43.6979 109.695 44.6379 109.32 45.7879 109.32ZM45.7879 110.28C45.0079 110.28 44.3529 110.51 43.8229 110.97C43.3029 111.43 42.9929 112.035 42.8929 112.785H48.4879C48.3779 111.985 48.0729 111.37 47.5729 110.94C47.0529 110.5 46.4579 110.28 45.7879 110.28ZM53.1227 113.1L57.1427 117H55.8227L52.0727 113.385V117H51.0827V109.5H52.0727V112.815L55.6427 109.5H56.9927L53.1227 113.1ZM61.2428 117.18C60.1128 117.18 59.1728 116.805 58.4228 116.055C57.6728 115.285 57.2978 114.35 57.2978 113.25C57.2978 112.14 57.6728 111.21 58.4228 110.46C59.1728 109.7 60.1128 109.32 61.2428 109.32C61.9828 109.32 62.6478 109.5 63.2378 109.86C63.8278 110.21 64.2578 110.685 64.5278 111.285L63.7178 111.75C63.5178 111.3 63.1928 110.945 62.7428 110.685C62.3028 110.415 61.8028 110.28 61.2428 110.28C60.4128 110.28 59.7128 110.57 59.1428 111.15C58.5728 111.72 58.2878 112.42 58.2878 113.25C58.2878 114.07 58.5728 114.775 59.1428 115.365C59.7128 115.935 60.4128 116.22 61.2428 116.22C61.7928 116.22 62.2878 116.09 62.7278 115.83C63.1778 115.57 63.5278 115.21 63.7778 114.75L64.6028 115.23C64.2928 115.83 63.8378 116.305 63.2378 116.655C62.6378 117.005 61.9728 117.18 61.2428 117.18ZM69.9241 117V106.5H70.9741V117H69.9241ZM73.3812 106.5H77.4312C78.8612 106.5 80.0412 107.01 80.9712 108.03C81.9112 109.03 82.3812 110.27 82.3812 111.75C82.3812 113.23 81.9112 114.475 80.9712 115.485C80.0412 116.495 78.8612 117 77.4312 117H73.3812V106.5ZM74.4312 116.01H77.4312C78.5812 116.01 79.5212 115.6 80.2512 114.78C80.9912 113.95 81.3612 112.94 81.3612 111.75C81.3612 110.56 80.9912 109.55 80.2512 108.72C79.5212 107.9 78.5812 107.49 77.4312 107.49H74.4312V116.01Z" fill="black"/>
<circle cx="47.2897" cy="47.2897" r="47.2897" fill="#4293EF"/>
<path d="M53.0166 52.8574V69.7534H57.9294V24.8281H50.5913C43.3801 24.8281 37.3173 29.6989 37.3173 39.1899C37.3173 45.961 39.9981 49.6315 44.0187 51.656L35.4668 69.7534H41.1465L48.9322 52.8574H53.0166ZM53.0012 48.9161H50.3856C46.1095 48.9161 42.5986 46.5747 42.5986 39.2976C42.5986 31.7684 46.4276 29.0805 50.3855 29.0805H53.0012V48.9161Z" fill="white"/>
</svg>
