<svg width="83" height="29" viewBox="0 0 83 29" fill="none" xmlns="http://www.w3.org/2000/svg">
<rect y="0.479492" width="83" height="28.026" rx="14.013" fill="#4293EF"/>
<path d="M22.9893 9.57855H28.3936V17.0254H27.4042V10.5147H23.9787V17.0254H22.9893V9.57855ZM32.7255 11.5679C33.4702 11.5679 34.105 11.841 34.6298 12.3871C35.1546 12.9332 35.417 13.5928 35.417 14.3658C35.417 15.1459 35.1546 15.8091 34.6298 16.3552C34.1121 16.8942 33.4773 17.1637 32.7255 17.1637C31.8461 17.1637 31.1759 16.8126 30.7149 16.1105V19.1531H29.7894V11.7062H30.7149V12.6211C31.1759 11.919 31.8461 11.5679 32.7255 11.5679ZM32.6085 16.2701C33.1404 16.2701 33.5872 16.0892 33.949 15.7275C34.3107 15.3516 34.4915 14.8977 34.4915 14.3658C34.4915 13.8268 34.3107 13.3764 33.949 13.0147C33.5872 12.6459 33.1404 12.4615 32.6085 12.4615C32.0695 12.4615 31.6192 12.6459 31.2575 13.0147C30.8957 13.3764 30.7149 13.8268 30.7149 14.3658C30.7149 14.8977 30.8957 15.3516 31.2575 15.7275C31.6192 16.0892 32.0695 16.2701 32.6085 16.2701ZM37.33 15.4403L40.2768 11.7062H41.0215V17.0254H40.1066V13.2913L37.1597 17.0254H36.4151V11.7062H37.33V15.4403ZM46.0048 13.919V11.7062H46.9303V17.0254H46.0048V14.802H43.2494V17.0254H42.3239V11.7062H43.2494V13.919H46.0048ZM49.9455 11.7062H52.2115V17.0254H51.2966V15.1105H50.52L49.0306 17.0254H47.903L49.4562 15.0573C49.0519 14.958 48.7257 14.7594 48.4774 14.4615C48.2363 14.1637 48.1157 13.8162 48.1157 13.419C48.1157 12.9296 48.2895 12.5218 48.637 12.1956C48.9845 11.8693 49.4207 11.7062 49.9455 11.7062ZM49.9774 14.2807H51.2966V12.5679H49.9774C49.7079 12.5679 49.481 12.6495 49.2966 12.8126C49.1193 12.9686 49.0306 13.1743 49.0306 13.4296C49.0306 13.6779 49.1193 13.8835 49.2966 14.0467C49.481 14.2027 49.7079 14.2807 49.9774 14.2807ZM52.9121 11.7062H57.4653V12.5998H55.6568V17.0254H54.7313V12.5998H52.9121V11.7062ZM59.0956 13.6211H60.4147C60.9467 13.6211 61.3864 13.7807 61.7339 14.0998C62.0885 14.4119 62.2658 14.8197 62.2658 15.3233C62.2658 15.8268 62.0885 16.2382 61.7339 16.5573C61.3793 16.8694 60.9396 17.0254 60.4147 17.0254H58.1701V11.7062H59.0956V13.6211ZM59.0956 16.1637H60.4147C60.6842 16.1637 60.9077 16.0857 61.085 15.9296C61.2623 15.7736 61.3509 15.5715 61.3509 15.3233C61.3509 15.075 61.2587 14.8729 61.0743 14.7169C60.897 14.5537 60.6772 14.4722 60.4147 14.4722H59.0956V16.1637Z" fill="white"/>
</svg>
