<svg width="14" height="14" viewBox="0 0 14 14" fill="none" xmlns="http://www.w3.org/2000/svg">
<path d="M6.55526 0.277344C10.1607 0.277344 13.1105 3.22721 13.1105 6.8326C13.1105 10.438 10.1607 13.3879 6.55526 13.3879C2.94987 13.3879 0 10.438 0 6.8326C0 3.22721 2.94987 0.277344 6.55526 0.277344ZM6.55526 1.5884C5.30976 1.5884 4.19537 1.98171 3.34318 2.70279L10.6851 10.0447C11.3406 9.12695 11.7995 8.01255 11.7995 6.8326C11.7995 3.94829 9.43958 1.5884 6.55526 1.5884ZM9.76734 10.9624L2.42545 3.62053C1.70437 4.47271 1.31105 5.5871 1.31105 6.8326C1.31105 9.71692 3.67095 12.0768 6.55526 12.0768C7.80076 12.0768 8.91515 11.6835 9.76734 10.9624Z" fill="#C60000"/>
</svg>
