<svg width="18" height="16" viewBox="0 0 18 16" fill="none" xmlns="http://www.w3.org/2000/svg">
<path d="M14.25 9.25H17.25V0.25H14.25M11.25 0.25H4.5C3.8775 0.25 3.345 0.625 3.12 1.165L0.855 6.4525C0.7875 6.625 0.75 6.805 0.75 7V8.5C0.75 8.89782 0.908035 9.27936 1.18934 9.56066C1.47064 9.84196 1.85218 10 2.25 10H6.9825L6.27 13.4275C6.255 13.5025 6.2475 13.5775 6.2475 13.66C6.2475 13.975 6.375 14.2525 6.5775 14.455L7.3725 15.25L12.3075 10.3075C12.585 10.0375 12.75 9.6625 12.75 9.25V1.75C12.75 1.35218 12.592 0.970644 12.3107 0.68934C12.0294 0.408035 11.6478 0.25 11.25 0.25Z" fill="#FF0000"/>
</svg>
