<svg width="21" height="20" viewBox="0 0 21 20" fill="none" xmlns="http://www.w3.org/2000/svg">
<path d="M10.0244 0.293945C15.3992 0.293945 19.7549 4.64027 19.7549 10C19.7549 15.3597 15.3992 19.7061 10.0244 19.7061C4.64981 19.7059 0.293945 15.3596 0.293945 10C0.293945 4.64037 4.64981 0.29411 10.0244 0.293945Z" stroke="#4293EF" stroke-width="0.588235"/>
<path d="M5.10261 7.33849L6.45122 6.86941H7.03758V12H6.36327V7.60235L5.27119 7.92485L5.10261 7.33849ZM10.5296 9.34675C11.0622 9.62038 11.3285 10.0357 11.3285 10.5928C11.3285 11.0618 11.1649 11.4307 10.8375 11.6995C10.5052 11.9634 10.0825 12.0953 9.56949 12.0953C9.05643 12.0953 8.63621 11.9634 8.30883 11.6995C7.98145 11.4307 7.81776 11.0618 7.81776 10.5928C7.81776 10.0357 8.08406 9.62038 8.61666 9.34675C8.19644 9.08289 7.98633 8.70909 7.98633 8.22535C7.98633 7.76116 8.14025 7.40446 8.44809 7.15526C8.76081 6.90117 9.13461 6.77413 9.56949 6.77413C10.0141 6.77413 10.3879 6.90117 10.6909 7.15526C11.0036 7.40446 11.16 7.76116 11.16 8.22535C11.16 8.70909 10.9499 9.08289 10.5296 9.34675ZM9.56949 7.42645C9.30074 7.42645 9.08086 7.4973 8.90984 7.639C8.74371 7.7807 8.66064 7.98104 8.66064 8.24001C8.66064 8.4941 8.74615 8.69444 8.91717 8.84102C9.08819 8.98761 9.30563 9.06091 9.56949 9.06091C9.83335 9.06091 10.0508 8.98761 10.2218 8.84102C10.3928 8.69444 10.4783 8.4941 10.4783 8.24001C10.4783 7.98104 10.3953 7.7807 10.2291 7.639C10.063 7.4973 9.84312 7.42645 9.56949 7.42645ZM9.56949 11.443C9.90175 11.443 10.1656 11.3648 10.3611 11.2084C10.5565 11.0521 10.6542 10.8322 10.6542 10.5488C10.6542 10.2703 10.5565 10.0528 10.3611 9.89646C10.1656 9.7401 9.90175 9.66192 9.56949 9.66192C9.24211 9.66192 8.98069 9.7401 8.78524 9.89646C8.58979 10.0528 8.49206 10.2703 8.49206 10.5488C8.49206 10.8322 8.58979 11.0521 8.78524 11.2084C8.98069 11.3648 9.24211 11.443 9.56949 11.443ZM13.8329 9.12687H15.1082V9.73521H13.8329V11.0105H13.2246V9.73521H11.9566V9.12687H13.2246V7.85888H13.8329V9.12687Z" fill="#4293EF"/>
</svg>
