<svg width="18" height="18" viewBox="0 0 18 18" fill="none" xmlns="http://www.w3.org/2000/svg">
<path d="M9.375 0C7.28726 0.00218331 5.28568 0.791455 3.80935 2.19467C2.33302 3.59788 1.50251 5.50045 1.5 7.48499C1.5 9.41249 3.07011 12.429 6.16693 16.4505C6.5356 16.9306 7.0183 17.3211 7.57577 17.5904C8.13323 17.8597 8.7497 18 9.375 18C10.0003 18 10.6168 17.8597 11.1742 17.5904C11.7317 17.3211 12.2144 16.9306 12.5831 16.4505C15.6799 12.429 17.25 9.41249 17.25 7.48499C17.2475 5.50045 16.417 3.59788 14.9406 2.19467C13.4643 0.791455 11.4627 0.00218331 9.375 0ZM9.375 10.4685C8.7508 10.4685 8.14062 10.2925 7.62162 9.96289C7.10262 9.63325 6.69811 9.16471 6.45924 8.61654C6.22037 8.06836 6.15787 7.46516 6.27964 6.88322C6.40142 6.30128 6.702 5.76673 7.14337 5.34717C7.58475 4.92761 8.14709 4.64189 8.75929 4.52614C9.3715 4.41038 10.0061 4.46979 10.5827 4.69685C11.1594 4.92392 11.6523 5.30843 11.9991 5.80178C12.3459 6.29513 12.531 6.87515 12.531 7.46849C12.531 8.26414 12.1985 9.0272 11.6066 9.58981C11.0148 10.1524 10.212 10.4685 9.375 10.4685Z" fill="#4293EF"/>
</svg>
