<svg width="104" height="125" viewBox="0 0 104 125" fill="none" xmlns="http://www.w3.org/2000/svg">
<g filter="url(#filter0_d_5125_582)">
<path d="M38.3432 117H37.2632L33.3932 106.5H34.5332L37.8032 115.605L41.0732 106.5H42.2132L38.3432 117ZM45.7291 111.6L50.9191 117H49.5391L44.6191 111.915V117H43.5691V106.5H44.6191V111.3L49.3891 106.5H50.7691L45.7291 111.6ZM56.0203 117V106.5H57.0703V117H56.0203ZM59.4773 106.5H63.5273C64.9573 106.5 66.1373 107.01 67.0673 108.03C68.0073 109.03 68.4773 110.27 68.4773 111.75C68.4773 113.23 68.0073 114.475 67.0673 115.485C66.1373 116.495 64.9573 117 63.5273 117H59.4773V106.5ZM60.5273 116.01H63.5273C64.6773 116.01 65.6173 115.6 66.3473 114.78C67.0873 113.95 67.4573 112.94 67.4573 111.75C67.4573 110.56 67.0873 109.55 66.3473 108.72C65.6173 107.9 64.6773 107.49 63.5273 107.49H60.5273V116.01Z" fill="black"/>
<circle cx="51.8688" cy="47.2897" r="47.2897" fill="#4293EF"/>
<path d="M76.2134 63.6347H70.368C68.1574 63.6347 67.4914 61.8442 63.5288 57.879C60.0656 54.5413 58.6029 54.1264 57.7269 54.1264C56.5153 54.1264 56.1849 54.4594 56.1849 56.1269V61.3832C56.1849 62.8048 55.7238 63.6373 52.0096 63.6373C48.4062 63.3952 44.912 62.3006 41.8146 60.4435C38.7172 58.5864 36.1054 56.02 34.1942 52.9557C29.6577 47.3066 26.5004 40.6779 24.9727 33.5957C24.9727 32.7197 25.3057 31.9256 26.9758 31.9256H32.816C34.3171 31.9256 34.8576 32.5942 35.4467 34.1388C38.2823 42.4842 43.1211 49.7436 45.0858 49.7436C45.8389 49.7436 46.1667 49.4106 46.1667 47.533V38.9365C45.9183 35.0148 43.8357 34.6844 43.8357 33.2653C43.8621 32.8909 44.0333 32.5415 44.3131 32.2914C44.5929 32.0412 44.9592 31.91 45.3342 31.9256H54.5147C55.7699 31.9256 56.1849 32.5506 56.1849 34.0517V45.6554C56.1849 46.908 56.7228 47.3229 57.1019 47.3229C57.855 47.3229 58.4339 46.908 59.8145 45.5299C62.7728 41.9198 65.1906 37.8989 66.9919 33.5932C67.1755 33.0756 67.5236 32.6326 67.983 32.3318C68.4425 32.0311 68.9878 31.8893 69.5355 31.9282H75.3784C77.1305 31.9282 77.5019 32.8042 77.1305 34.0542C75.0047 38.8143 72.3753 43.333 69.2871 47.533C68.6569 48.4936 68.4059 48.9931 69.2871 50.1201C69.866 50.9962 71.9152 52.7073 73.2907 54.3338C75.2938 56.3318 76.9563 58.6423 78.214 61.1731C78.716 62.8023 77.881 63.6347 76.2134 63.6347Z" fill="white"/>
</g>
<defs>
<filter id="filter0_d_5125_582" x="0.579102" y="0" width="102.579" height="125" filterUnits="userSpaceOnUse" color-interpolation-filters="sRGB">
<feFlood flood-opacity="0" result="BackgroundImageFix"/>
<feColorMatrix in="SourceAlpha" type="matrix" values="0 0 0 0 0 0 0 0 0 0 0 0 0 0 0 0 0 0 127 0" result="hardAlpha"/>
<feOffset dy="4"/>
<feGaussianBlur stdDeviation="2"/>
<feComposite in2="hardAlpha" operator="out"/>
<feColorMatrix type="matrix" values="0 0 0 0 0 0 0 0 0 0 0 0 0 0 0 0 0 0 0.25 0"/>
<feBlend mode="normal" in2="BackgroundImageFix" result="effect1_dropShadow_5125_582"/>
<feBlend mode="normal" in="SourceGraphic" in2="effect1_dropShadow_5125_582" result="shape"/>
</filter>
</defs>
</svg>
