<svg width="129" height="129" viewBox="0 0 129 129" fill="none" xmlns="http://www.w3.org/2000/svg">
<path d="M16.125 32.25H26.875H112.875" stroke="#F33C3C" stroke-width="10" stroke-linecap="round" stroke-linejoin="round"/>
<path d="M102.125 32.25V107.5C102.125 110.351 100.992 113.085 98.9764 115.101C96.9604 117.117 94.2261 118.25 91.375 118.25H37.625C34.7739 118.25 32.0396 117.117 30.0236 115.101C28.0076 113.085 26.875 110.351 26.875 107.5V32.25M43 32.25V21.5C43 18.6489 44.1326 15.9146 46.1486 13.8986C48.1646 11.8826 50.8989 10.75 53.75 10.75H75.25C78.1011 10.75 80.8354 11.8826 82.8514 13.8986C84.8674 15.9146 86 18.6489 86 21.5V32.25" stroke="#F33C3C" stroke-width="10" stroke-linecap="round" stroke-linejoin="round"/>
<path d="M53.75 59.125V91.375" stroke="#F33C3C" stroke-width="10" stroke-linecap="round" stroke-linejoin="round"/>
<path d="M75.25 59.125V91.375" stroke="#F33C3C" stroke-width="10" stroke-linecap="round" stroke-linejoin="round"/>
</svg>
