<svg width="14" height="14" viewBox="0 0 14 14" fill="none" xmlns="http://www.w3.org/2000/svg">
<path d="M11.8554 11.6232L8.62299 8.39081M2.1582 5.69715C2.1582 6.19238 2.25575 6.68277 2.44526 7.1403C2.63478 7.59783 2.91256 8.01356 3.26274 8.36374C3.61292 8.71392 4.02865 8.9917 4.48618 9.18122C4.94372 9.37074 5.4341 9.46828 5.92933 9.46828C6.42456 9.46828 6.91494 9.37074 7.37248 9.18122C7.83001 8.9917 8.24574 8.71392 8.59592 8.36374C8.9461 8.01356 9.22388 7.59783 9.4134 7.1403C9.60291 6.68277 9.70046 6.19238 9.70046 5.69715C9.70046 5.20192 9.60291 4.71154 9.4134 4.254C9.22388 3.79647 8.9461 3.38074 8.59592 3.03056C8.24574 2.68038 7.83001 2.4026 7.37248 2.21309C6.91494 2.02357 6.42456 1.92603 5.92933 1.92603C5.4341 1.92603 4.94372 2.02357 4.48618 2.21309C4.02865 2.4026 3.61292 2.68038 3.26274 3.03056C2.91256 3.38074 2.63478 3.79647 2.44526 4.254C2.25575 4.71154 2.1582 5.20192 2.1582 5.69715Z" stroke="#070707" stroke-width="1.07746" stroke-linecap="round" stroke-linejoin="round"/>
</svg>
