<svg width="16" height="17" viewBox="0 0 16 17" fill="none" xmlns="http://www.w3.org/2000/svg">
<path d="M13.3333 6.5H7.33333C6.59695 6.5 6 7.09695 6 7.83333V13.8333C6 14.5697 6.59695 15.1667 7.33333 15.1667H13.3333C14.0697 15.1667 14.6667 14.5697 14.6667 13.8333V7.83333C14.6667 7.09695 14.0697 6.5 13.3333 6.5Z" stroke="black" stroke-linecap="round" stroke-linejoin="round"/>
<path d="M3.33301 10.5H2.66634C2.31272 10.5 1.97358 10.3596 1.72353 10.1095C1.47348 9.85947 1.33301 9.52033 1.33301 9.16671V3.16671C1.33301 2.81309 1.47348 2.47395 1.72353 2.2239C1.97358 1.97385 2.31272 1.83337 2.66634 1.83337H8.66634C9.01996 1.83337 9.3591 1.97385 9.60915 2.2239C9.8592 2.47395 9.99967 2.81309 9.99967 3.16671V3.83337" stroke="black" stroke-linecap="round" stroke-linejoin="round"/>
</svg>
