<svg width="12" height="20" viewBox="0 0 12 20" fill="none" xmlns="http://www.w3.org/2000/svg">
<path d="M11.1429 2.5C10.6714 2.5 10.2857 2.875 10.2857 3.33333V14.1667C10.2857 16.4667 8.36571 18.3333 6 18.3333C3.63429 18.3333 1.71429 16.4667 1.71429 14.1667V4.16667C1.71429 2.79167 2.87143 1.66667 4.28571 1.66667C5.7 1.66667 6.85714 2.79167 6.85714 4.16667V14.1667C6.85714 14.625 6.47143 15 6 15C5.52857 15 5.14286 14.625 5.14286 14.1667V5C5.14286 4.54167 4.75714 4.16667 4.28571 4.16667C3.81429 4.16667 3.42857 4.54167 3.42857 5V14.1667C3.42857 15.5417 4.58571 16.6667 6 16.6667C7.41429 16.6667 8.57143 15.5417 8.57143 14.1667V4.16667C8.57143 1.86667 6.65143 0 4.28571 0C1.92 0 0 1.86667 0 4.16667V14.1667C0 17.3833 2.69143 20 6 20C9.30857 20 12 17.3833 12 14.1667V3.33333C12 2.875 11.6143 2.5 11.1429 2.5Z" fill="#4293EF"/>
</svg>
