<svg width="16" height="16" viewBox="0 0 16 16" fill="none" xmlns="http://www.w3.org/2000/svg">
<path d="M12.9327 10.0003C12.8439 10.2014 12.8175 10.4245 12.8567 10.6407C12.8959 10.857 12.999 11.0565 13.1527 11.2137L13.1927 11.2537C13.3167 11.3775 13.415 11.5245 13.4821 11.6864C13.5492 11.8483 13.5837 12.0218 13.5837 12.197C13.5837 12.3722 13.5492 12.5457 13.4821 12.7076C13.415 12.8694 13.3167 13.0165 13.1927 13.1403C13.0689 13.2643 12.9218 13.3626 12.7599 13.4297C12.5981 13.4968 12.4246 13.5314 12.2493 13.5314C12.0741 13.5314 11.9006 13.4968 11.7388 13.4297C11.5769 13.3626 11.4298 13.2643 11.306 13.1403L11.266 13.1003C11.1089 12.9466 10.9093 12.8435 10.6931 12.8043C10.4768 12.7651 10.2538 12.7916 10.0527 12.8803C9.8555 12.9648 9.68734 13.1052 9.56889 13.284C9.45044 13.4629 9.38687 13.6725 9.38602 13.887V14.0003C9.38602 14.3539 9.24554 14.6931 8.99549 14.9431C8.74544 15.1932 8.4063 15.3337 8.05268 15.3337C7.69906 15.3337 7.35992 15.1932 7.10987 14.9431C6.85983 14.6931 6.71935 14.3539 6.71935 14.0003V13.9403C6.71419 13.7197 6.64276 13.5057 6.51436 13.3261C6.38595 13.1466 6.20651 13.0098 5.99935 12.9337C5.79827 12.8449 5.57522 12.8184 5.35896 12.8577C5.14269 12.8969 4.94314 13 4.78602 13.1537L4.74602 13.1937C4.62218 13.3176 4.47513 13.416 4.31327 13.4831C4.15141 13.5502 3.9779 13.5847 3.80268 13.5847C3.62746 13.5847 3.45396 13.5502 3.2921 13.4831C3.13023 13.416 2.98318 13.3176 2.85935 13.1937C2.73538 13.0698 2.63704 12.9228 2.56994 12.7609C2.50284 12.599 2.4683 12.4255 2.4683 12.2503C2.4683 12.0751 2.50284 11.9016 2.56994 11.7397C2.63704 11.5779 2.73538 11.4308 2.85935 11.307L2.89935 11.267C3.05304 11.1099 3.15614 10.9103 3.19535 10.6941C3.23456 10.4778 3.20809 10.2547 3.11935 10.0537C3.03484 9.85648 2.89452 9.68831 2.71566 9.56986C2.5368 9.45141 2.32721 9.38785 2.11268 9.38699H1.99935C1.64573 9.38699 1.30659 9.24652 1.05654 8.99647C0.806491 8.74642 0.666016 8.40728 0.666016 8.05366C0.666016 7.70004 0.806491 7.3609 1.05654 7.11085C1.30659 6.8608 1.64573 6.72033 1.99935 6.72033H2.05935C2.28001 6.71516 2.49402 6.64374 2.67355 6.51533C2.85308 6.38693 2.98983 6.20748 3.06602 6.00033C3.15476 5.79925 3.18123 5.5762 3.14202 5.35993C3.10281 5.14367 2.99971 4.94411 2.84602 4.78699L2.80602 4.74699C2.68205 4.62316 2.5837 4.47611 2.5166 4.31425C2.4495 4.15238 2.41497 3.97888 2.41497 3.80366C2.41497 3.62844 2.4495 3.45494 2.5166 3.29307C2.5837 3.13121 2.68205 2.98416 2.80602 2.86033C2.92985 2.73636 3.0769 2.63801 3.23876 2.57091C3.40063 2.50381 3.57413 2.46928 3.74935 2.46928C3.92457 2.46928 4.09807 2.50381 4.25994 2.57091C4.4218 2.63801 4.56885 2.73636 4.69268 2.86033L4.73268 2.90033C4.8898 3.05402 5.08936 3.15712 5.30562 3.19633C5.52189 3.23554 5.74494 3.20907 5.94602 3.12033H5.99935C6.19653 3.03582 6.36469 2.8955 6.48314 2.71664C6.60159 2.53778 6.66516 2.32818 6.66602 2.11366V2.00033C6.66602 1.6467 6.80649 1.30757 7.05654 1.05752C7.30659 0.807468 7.64573 0.666992 7.99935 0.666992C8.35297 0.666992 8.69211 0.807468 8.94216 1.05752C9.19221 1.30757 9.33268 1.6467 9.33268 2.00033V2.06033C9.33354 2.27485 9.3971 2.48444 9.51555 2.6633C9.634 2.84216 9.80217 2.98248 9.99935 3.06699C10.2004 3.15574 10.4235 3.18221 10.6397 3.143C10.856 3.10378 11.0556 3.00068 11.2127 2.84699L11.2527 2.80699C11.3765 2.68302 11.5236 2.58468 11.6854 2.51758C11.8473 2.45048 12.0208 2.41594 12.196 2.41594C12.3712 2.41594 12.5447 2.45048 12.7066 2.51758C12.8685 2.58468 13.0155 2.68302 13.1393 2.80699C13.2633 2.93082 13.3617 3.07787 13.4288 3.23974C13.4959 3.4016 13.5304 3.5751 13.5304 3.75033C13.5304 3.92555 13.4959 4.09905 13.4288 4.26091C13.3617 4.42278 13.2633 4.56983 13.1393 4.69366L13.0993 4.73366C12.9457 4.89078 12.8426 5.09034 12.8033 5.3066C12.7641 5.52286 12.7906 5.74592 12.8793 5.94699V6.00033C12.9639 6.19751 13.1042 6.36567 13.283 6.48412C13.4619 6.60257 13.6715 6.66614 13.886 6.66699H13.9993C14.353 6.66699 14.6921 6.80747 14.9422 7.05752C15.1922 7.30757 15.3327 7.6467 15.3327 8.00033C15.3327 8.35395 15.1922 8.69309 14.9422 8.94313C14.6921 9.19318 14.353 9.33366 13.9993 9.33366H13.9393C13.7248 9.33451 13.5152 9.39808 13.3364 9.51653C13.1575 9.63498 13.0172 9.80315 12.9327 10.0003Z" stroke="#070707" stroke-width="1.33333" stroke-linecap="round" stroke-linejoin="round"/>
</svg>
