<svg width="26" height="24" viewBox="0 0 26 24" fill="none" xmlns="http://www.w3.org/2000/svg">
<path d="M21.156 2.76083C19.7923 1.70662 18.2082 0.926233 16.5037 0.468832C14.7993 0.01143 13.0112 -0.113068 11.2524 0.103181C7.99861 0.495847 5.02764 2.0241 2.94276 4.37762C0.857879 6.73114 -0.18464 9.73352 0.0268883 12.7751C0.238417 15.8167 1.68814 18.6695 4.08168 20.7543C6.47522 22.8391 9.63317 23.9995 12.9143 24H20.4295C21.8563 23.9984 23.2242 23.4712 24.2331 22.534C25.2421 21.5968 25.8096 20.3261 25.8113 19.0007V11.3107V11.2477C25.6974 9.61336 25.2258 8.01778 24.4254 6.55854C23.6249 5.09929 22.5125 3.80705 21.156 2.76083ZM8.58946 7.00226H12.8949C13.1804 7.00226 13.4542 7.10761 13.656 7.29512C13.8579 7.48263 13.9713 7.73695 13.9713 8.00213C13.9713 8.26731 13.8579 8.52163 13.656 8.70914C13.4542 8.89665 13.1804 9.002 12.8949 9.002H8.58946C8.30399 9.002 8.03022 8.89665 7.82836 8.70914C7.6265 8.52163 7.5131 8.26731 7.5131 8.00213C7.5131 7.73695 7.6265 7.48263 7.82836 7.29512C8.03022 7.10761 8.30399 7.00226 8.58946 7.00226ZM17.2004 17.0009H8.58946C8.30399 17.0009 8.03022 16.8956 7.82836 16.7081C7.6265 16.5206 7.5131 16.2662 7.5131 16.0011C7.5131 15.7359 7.6265 15.4816 7.82836 15.2941C8.03022 15.1065 8.30399 15.0012 8.58946 15.0012H17.2004C17.4859 15.0012 17.7596 15.1065 17.9615 15.2941C18.1634 15.4816 18.2768 15.7359 18.2768 16.0011C18.2768 16.2662 18.1634 16.5206 17.9615 16.7081C17.7596 16.8956 17.4859 17.0009 17.2004 17.0009ZM17.2004 13.0015H8.58946C8.30399 13.0015 8.03022 12.8961 7.82836 12.7086C7.6265 12.5211 7.5131 12.2668 7.5131 12.0016C7.5131 11.7364 7.6265 11.4821 7.82836 11.2946C8.03022 11.1071 8.30399 11.0017 8.58946 11.0017H17.2004C17.4859 11.0017 17.7596 11.1071 17.9615 11.2946C18.1634 11.4821 18.2768 11.7364 18.2768 12.0016C18.2768 12.2668 18.1634 12.5211 17.9615 12.7086C17.7596 12.8961 17.4859 13.0015 17.2004 13.0015Z" fill="white"/>
</svg>
