<svg width="24" height="25" viewBox="0 0 24 25" fill="none" xmlns="http://www.w3.org/2000/svg">
<path d="M2 12.3423C2 8.57129 2 6.68529 3.172 5.51429C4.344 4.34329 6.229 4.34229 10 4.34229H14C17.771 4.34229 19.657 4.34229 20.828 5.51429C21.999 6.68629 22 8.57129 22 12.3423V14.3423C22 18.1133 22 19.9993 20.828 21.1703C19.656 22.3413 17.771 22.3423 14 22.3423H10C6.229 22.3423 4.343 22.3423 3.172 21.1703C2.001 19.9983 2 18.1133 2 14.3423V12.3423Z" stroke="black" stroke-width="1.5"/>
<path d="M7 4.34229V2.84229M17 4.34229V2.84229M2.5 9.34229H21.5" stroke="black" stroke-width="1.5" stroke-linecap="round"/>
<path d="M18 17.3423C18 17.6075 17.8946 17.8619 17.7071 18.0494C17.5196 18.2369 17.2652 18.3423 17 18.3423C16.7348 18.3423 16.4804 18.2369 16.2929 18.0494C16.1054 17.8619 16 17.6075 16 17.3423C16 17.0771 16.1054 16.8227 16.2929 16.6352C16.4804 16.4476 16.7348 16.3423 17 16.3423C17.2652 16.3423 17.5196 16.4476 17.7071 16.6352C17.8946 16.8227 18 17.0771 18 17.3423ZM18 13.3423C18 13.6075 17.8946 13.8619 17.7071 14.0494C17.5196 14.2369 17.2652 14.3423 17 14.3423C16.7348 14.3423 16.4804 14.2369 16.2929 14.0494C16.1054 13.8619 16 13.6075 16 13.3423C16 13.0771 16.1054 12.8227 16.2929 12.6352C16.4804 12.4476 16.7348 12.3423 17 12.3423C17.2652 12.3423 17.5196 12.4476 17.7071 12.6352C17.8946 12.8227 18 13.0771 18 13.3423ZM13 17.3423C13 17.6075 12.8946 17.8619 12.7071 18.0494C12.5196 18.2369 12.2652 18.3423 12 18.3423C11.7348 18.3423 11.4804 18.2369 11.2929 18.0494C11.1054 17.8619 11 17.6075 11 17.3423C11 17.0771 11.1054 16.8227 11.2929 16.6352C11.4804 16.4476 11.7348 16.3423 12 16.3423C12.2652 16.3423 12.5196 16.4476 12.7071 16.6352C12.8946 16.8227 13 17.0771 13 17.3423ZM13 13.3423C13 13.6075 12.8946 13.8619 12.7071 14.0494C12.5196 14.2369 12.2652 14.3423 12 14.3423C11.7348 14.3423 11.4804 14.2369 11.2929 14.0494C11.1054 13.8619 11 13.6075 11 13.3423C11 13.0771 11.1054 12.8227 11.2929 12.6352C11.4804 12.4476 11.7348 12.3423 12 12.3423C12.2652 12.3423 12.5196 12.4476 12.7071 12.6352C12.8946 12.8227 13 13.0771 13 13.3423ZM8 17.3423C8 17.6075 7.89464 17.8619 7.70711 18.0494C7.51957 18.2369 7.26522 18.3423 7 18.3423C6.73478 18.3423 6.48043 18.2369 6.29289 18.0494C6.10536 17.8619 6 17.6075 6 17.3423C6 17.0771 6.10536 16.8227 6.29289 16.6352C6.48043 16.4476 6.73478 16.3423 7 16.3423C7.26522 16.3423 7.51957 16.4476 7.70711 16.6352C7.89464 16.8227 8 17.0771 8 17.3423ZM8 13.3423C8 13.6075 7.89464 13.8619 7.70711 14.0494C7.51957 14.2369 7.26522 14.3423 7 14.3423C6.73478 14.3423 6.48043 14.2369 6.29289 14.0494C6.10536 13.8619 6 13.6075 6 13.3423C6 13.0771 6.10536 12.8227 6.29289 12.6352C6.48043 12.4476 6.73478 12.3423 7 12.3423C7.26522 12.3423 7.51957 12.4476 7.70711 12.6352C7.89464 12.8227 8 13.0771 8 13.3423Z" fill="black"/>
</svg>
