<svg width="48" height="48" viewBox="0 0 48 48" fill="none" xmlns="http://www.w3.org/2000/svg">
<path d="M38 14V10H34V6H38V2H42V6H46V10H42V14H38ZM22 35C24.5 35 26.6253 34.1253 28.376 32.376C30.1267 30.6267 31.0013 28.5013 31 26C30.9987 23.4987 30.124 21.374 28.376 19.626C26.628 17.878 24.5027 17.0027 22 17C19.4973 16.9973 17.3727 17.8727 15.626 19.626C13.8793 21.3793 13.004 23.504 13 26C12.996 28.496 13.8713 30.6213 15.626 32.376C17.3807 34.1307 19.5053 35.0053 22 35ZM22 31C20.6 31 19.4167 30.5167 18.45 29.55C17.4833 28.5833 17 27.4 17 26C17 24.6 17.4833 23.4167 18.45 22.45C19.4167 21.4833 20.6 21 22 21C23.4 21 24.5833 21.4833 25.55 22.45C26.5167 23.4167 27 24.6 27 26C27 27.4 26.5167 28.5833 25.55 29.55C24.5833 30.5167 23.4 31 22 31ZM6 42C4.9 42 3.95867 41.6087 3.176 40.826C2.39333 40.0433 2.00133 39.1013 2 38V14C2 12.9 2.392 11.9587 3.176 11.176C3.96 10.3933 4.90133 10.0013 6 10H12.3L16 6H30V14H34V18H42V38C42 39.1 41.6087 40.042 40.826 40.826C40.0433 41.61 39.1013 42.0013 38 42H6Z" fill="#898989"/>
</svg>
