<svg width="20" height="20" viewBox="0 0 20 20" fill="none" xmlns="http://www.w3.org/2000/svg">
<path d="M0.141018 3.08824C-0.182326 2.20307 0.0610152 1.22287 0.761871 0.591906C1.46106 -0.0365544 2.45693 -0.17825 3.30195 0.232667L18.3774 7.27076C19.1858 7.64917 19.7642 8.34014 19.9983 9.16531H3.37112L0.188519 3.1941C0.171019 3.15993 0.155185 3.12409 0.141018 3.08824ZM3.38279 10.8331L0.255188 16.8135C0.237688 16.8469 0.222687 16.8802 0.210187 16.9152C-0.112324 17.8012 0.133518 18.7798 0.834374 19.4099C1.26855 19.7991 1.81691 20 2.36859 20C2.70944 20 3.05111 19.9233 3.36946 19.7675L18.3791 12.7344C19.19 12.3543 19.7675 11.6608 20 10.834H3.38279V10.8331Z" fill="#4293EF"/>
</svg>
