<svg width="83" height="28" viewBox="0 0 83 28" fill="none" xmlns="http://www.w3.org/2000/svg">
<rect width="82.9231" height="28" rx="14" fill="#4293EF"/>
<path d="M13.8265 9.09815H19.2258V16.5381H18.2373V10.0335H14.815V16.5381H13.8265V9.09815ZM23.5537 11.0857C24.2977 11.0857 24.9319 11.3585 25.4562 11.9041C25.9806 12.4497 26.2427 13.1086 26.2427 13.881C26.2427 14.6604 25.9806 15.3229 25.4562 15.8685C24.939 16.407 24.3048 16.6763 23.5537 16.6763C22.6751 16.6763 22.0055 16.3255 21.5449 15.624V18.6638H20.6203V11.2238H21.5449V12.1379C22.0055 11.4364 22.6751 11.0857 23.5537 11.0857ZM23.4368 15.7835C23.9682 15.7835 24.4146 15.6028 24.776 15.2414C25.1374 14.8659 25.3181 14.4124 25.3181 13.881C25.3181 13.3425 25.1374 12.8925 24.776 12.5311C24.4146 12.1627 23.9682 11.9785 23.4368 11.9785C22.8983 11.9785 22.4484 12.1627 22.087 12.5311C21.7256 12.8925 21.5449 13.3425 21.5449 13.881C21.5449 14.4124 21.7256 14.8659 22.087 15.2414C22.4484 15.6028 22.8983 15.7835 23.4368 15.7835ZM28.1539 14.9544L31.098 11.2238H31.842V16.5381H30.9279V12.8075L27.9838 16.5381H27.2398V11.2238H28.1539V14.9544ZM33.1432 11.2238H36.6293V12.1166H34.0679V16.5381H33.1432V11.2238ZM37.4907 11.2238H41.4339V16.5381H40.5092V12.1166H38.4154V14.2848C38.4154 15.1351 38.2454 15.7409 37.9053 16.1023C37.5651 16.4566 37.0656 16.6019 36.4066 16.5381V15.6666C36.7751 15.7161 37.0479 15.6347 37.225 15.4221C37.4022 15.2024 37.4907 14.8163 37.4907 14.2636V11.2238ZM47.129 12.1379V11.2238H48.0536V16.5381H47.129V15.624C46.6755 16.3255 46.0059 16.6763 45.1202 16.6763C44.3691 16.6763 43.7349 16.407 43.2177 15.8685C42.6933 15.3229 42.4312 14.6604 42.4312 13.881C42.4312 13.1086 42.6933 12.4497 43.2177 11.9041C43.742 11.3585 44.3762 11.0857 45.1202 11.0857C46.0059 11.0857 46.6755 11.4364 47.129 12.1379ZM45.2371 15.7835C45.7756 15.7835 46.2255 15.6028 46.5869 15.2414C46.9483 14.8659 47.129 14.4124 47.129 13.881C47.129 13.3425 46.9483 12.8925 46.5869 12.5311C46.2255 12.1627 45.7756 11.9785 45.2371 11.9785C44.7057 11.9785 44.2593 12.1627 43.8979 12.5311C43.5365 12.8925 43.3558 13.3425 43.3558 13.881C43.3558 14.4124 43.5365 14.8659 43.8979 15.2414C44.2593 15.6028 44.7057 15.7835 45.2371 15.7835ZM51.846 16.6763C51.0453 16.6763 50.3793 16.4105 49.8479 15.8791C49.3164 15.3406 49.0507 14.6746 49.0507 13.881C49.0507 13.0874 49.3164 12.4249 49.8479 11.8934C50.3793 11.3549 51.0453 11.0857 51.846 11.0857C52.3703 11.0857 52.8415 11.2132 53.2596 11.4683C53.6777 11.7163 53.9894 12.0529 54.1949 12.478L53.419 12.9244C53.2844 12.641 53.0754 12.4142 52.7919 12.2442C52.5156 12.0741 52.2003 11.9891 51.846 11.9891C51.3146 11.9891 50.8682 12.1698 50.5068 12.5311C50.1525 12.8996 49.9754 13.3495 49.9754 13.881C49.9754 14.4053 50.1525 14.8517 50.5068 15.2202C50.8682 15.5815 51.3146 15.7622 51.846 15.7622C52.2003 15.7622 52.5191 15.6807 52.8026 15.5178C53.086 15.3477 53.3021 15.121 53.4509 14.8375L54.2374 15.2946C54.0036 15.7197 53.6741 16.0563 53.249 16.3043C52.8238 16.5523 52.3562 16.6763 51.846 16.6763ZM55.9685 14.9544L58.9126 11.2238H59.6566V16.5381H58.7426V12.8075L55.7985 16.5381H55.0545V11.2238H55.9685V14.9544ZM60.3627 11.2238H64.9117V12.1166H63.1048V16.5381H62.1801V12.1166H60.3627V11.2238ZM66.5404 13.137H67.8583C68.3897 13.137 68.8291 13.2964 69.1762 13.6153C69.5305 13.927 69.7077 14.3344 69.7077 14.8375C69.7077 15.3406 69.5305 15.7516 69.1762 16.0704C68.822 16.3822 68.3827 16.5381 67.8583 16.5381H65.6157V11.2238H66.5404V13.137ZM66.5404 15.6772H67.8583C68.1276 15.6772 68.3508 15.5992 68.5279 15.4434C68.7051 15.2875 68.7936 15.0855 68.7936 14.8375C68.7936 14.5895 68.7015 14.3876 68.5173 14.2317C68.3401 14.0687 68.1205 13.9872 67.8583 13.9872H66.5404V15.6772Z" fill="white"/>
</svg>
