<svg width="18" height="18" viewBox="0 0 18 18" fill="none" xmlns="http://www.w3.org/2000/svg">
<path d="M9.00033 17.3332C7.84755 17.3332 6.76422 17.1143 5.75033 16.6765C4.73644 16.2387 3.85449 15.6451 3.10449 14.8957C2.35449 14.1462 1.76088 13.2643 1.32366 12.2498C0.886438 11.2354 0.667549 10.1521 0.666993 8.99984C0.666438 7.84762 0.885327 6.76428 1.32366 5.74984C1.76199 4.73539 2.3556 3.85345 3.10449 3.104C3.85338 2.35456 4.73533 1.76095 5.75033 1.32317C6.76533 0.885393 7.84866 0.666504 9.00033 0.666504C10.152 0.666504 11.2353 0.885393 12.2503 1.32317C13.2653 1.76095 14.1473 2.35456 14.8962 3.104C15.6451 3.85345 16.2389 4.73539 16.6778 5.74984C17.1167 6.76428 17.3353 7.84762 17.3337 8.99984C17.332 10.1521 17.1131 11.2354 16.677 12.2498C16.2409 13.2643 15.6473 14.1462 14.8962 14.8957C14.1451 15.6451 13.2631 16.239 12.2503 16.6773C11.2375 17.1157 10.1542 17.3343 9.00033 17.3332ZM9.00033 15.6665C9.75033 15.6665 10.4725 15.5451 11.167 15.3023C11.8614 15.0596 12.5003 14.7087 13.0837 14.2498L3.75033 4.9165C3.29199 5.49984 2.94116 6.13873 2.69783 6.83317C2.45449 7.52762 2.3331 8.24984 2.33366 8.99984C2.33366 10.8609 2.97949 12.4373 4.27116 13.729C5.56283 15.0207 7.13921 15.6665 9.00033 15.6665ZM14.2503 13.0832C14.7087 12.4998 15.0595 11.8609 15.3028 11.1665C15.5462 10.4721 15.6675 9.74984 15.667 8.99984C15.667 7.13873 15.0212 5.56234 13.7295 4.27067C12.4378 2.979 10.8614 2.33317 9.00033 2.33317C8.25033 2.33317 7.5281 2.45456 6.83366 2.69734C6.13921 2.94011 5.50033 3.29095 4.91699 3.74984L14.2503 13.0832Z" fill="black"/>
</svg>
