<svg width="17" height="16" viewBox="0 0 17 16" fill="none" xmlns="http://www.w3.org/2000/svg">
<path d="M9.66699 8C9.66699 7.26362 9.07036 6.66699 8.33398 6.66699C7.5976 6.66699 7.00098 7.26362 7.00098 8C7.00098 8.73638 7.5976 9.33301 8.33398 9.33301C9.07036 9.33301 9.66699 8.73638 9.66699 8ZM11.001 8C11.001 9.47276 9.80674 10.667 8.33398 10.667C6.86123 10.667 5.66699 9.47276 5.66699 8C5.66699 6.52724 6.86123 5.33301 8.33398 5.33301C9.80674 5.33301 11.001 6.52724 11.001 8Z" fill="#070707"/>
<path d="M9 2C8.99991 1.82338 8.92953 1.65423 8.80469 1.5293C8.71089 1.4355 8.59205 1.37228 8.46387 1.34668L8.33301 1.33398C8.15631 1.33407 7.98725 1.40435 7.8623 1.5293C7.73736 1.65424 7.66708 1.82331 7.66699 2V2.11621C7.66562 2.46075 7.56329 2.7977 7.37305 3.08496C7.20669 3.33611 6.9791 3.53977 6.71289 3.67773L6.5957 3.7334C6.54328 3.75583 6.48776 3.76796 6.43164 3.77637C6.14047 3.88072 5.82631 3.90799 5.52051 3.85254C5.17325 3.78955 4.85289 3.62372 4.60059 3.37695L4.55469 3.33105C4.49288 3.26927 4.41959 3.22001 4.33887 3.18652C4.25794 3.15297 4.17062 3.13574 4.08301 3.13574C3.99556 3.13578 3.90891 3.15306 3.82812 3.18652C3.74721 3.22007 3.67324 3.26909 3.61133 3.33105C3.54934 3.39297 3.50035 3.4679 3.4668 3.54883C3.43332 3.62968 3.41602 3.7162 3.41602 3.80371C3.41602 3.89124 3.4333 3.97773 3.4668 4.05859C3.50035 4.13953 3.54934 4.21348 3.61133 4.27539L3.65625 4.32031C3.90304 4.57264 4.06886 4.89392 4.13184 5.24121C4.19224 5.57453 4.15347 5.91694 4.02441 6.22949L4.02539 6.23047C3.90303 6.5631 3.68377 6.85142 3.39551 7.05762C3.14315 7.23811 2.84825 7.34861 2.54102 7.37891L2.40918 7.38672H2.33301C2.15646 7.3868 1.98722 7.45727 1.8623 7.58203C1.73728 7.70706 1.66699 7.8769 1.66699 8.05371C1.66701 8.2305 1.73729 8.40038 1.8623 8.52539C1.98722 8.65012 2.15648 8.72062 2.33301 8.7207H2.44922L2.57812 8.72559C2.87728 8.74866 3.16663 8.84723 3.41797 9.01367C3.70319 9.20256 3.92745 9.4704 4.06348 9.78418L4.1123 9.90723C4.21501 10.1968 4.24064 10.5096 4.18555 10.8135C4.12251 11.1606 3.9567 11.4812 3.70996 11.7334L3.66504 11.7783C3.60307 11.8402 3.55307 11.9142 3.51953 11.9951C3.48607 12.0759 3.46879 12.1626 3.46875 12.25L3.48145 12.3809C3.48996 12.4235 3.5028 12.4655 3.51953 12.5059C3.53629 12.5463 3.55687 12.5849 3.58105 12.6211L3.66406 12.7217L3.66504 12.7227L3.76562 12.8057C3.80193 12.83 3.84128 12.8504 3.88184 12.8672C3.96266 12.9006 4.04925 12.918 4.13672 12.918C4.2242 12.918 4.31077 12.9007 4.3916 12.8672C4.47252 12.8336 4.54649 12.7846 4.6084 12.7227L4.64844 12.6826L4.65332 12.6768C4.9056 12.4301 5.22707 12.2651 5.57422 12.2021C5.90735 12.1418 6.25008 12.1788 6.5625 12.3076C6.89521 12.43 7.1844 12.6501 7.39062 12.9385C7.59679 13.2268 7.71144 13.5705 7.71973 13.9248V14C7.71973 14.1767 7.7901 14.3467 7.91504 14.4717C8.04006 14.5967 8.20991 14.667 8.38672 14.667C8.56351 14.667 8.73339 14.5967 8.8584 14.4717C8.9833 14.3467 9.05371 14.1767 9.05371 14V13.8848L9.05859 13.7559C9.08161 13.4567 9.18027 13.1674 9.34668 12.916C9.53618 12.6299 9.80502 12.4044 10.1201 12.2686C10.4423 12.127 10.8002 12.0856 11.1465 12.1484C11.4503 12.2036 11.7337 12.3372 11.9688 12.5352L12.0664 12.624L12.1113 12.6689L12.2129 12.752C12.2491 12.7762 12.2877 12.7967 12.3281 12.8135C12.409 12.847 12.4955 12.8642 12.583 12.8643C12.6706 12.8643 12.7579 12.847 12.8389 12.8135C12.9196 12.7799 12.9929 12.7308 13.0547 12.6689L13.1387 12.5674C13.1628 12.5312 13.1835 12.4925 13.2002 12.4521C13.2337 12.3713 13.2509 12.2847 13.251 12.1973C13.251 12.1097 13.2337 12.0223 13.2002 11.9414C13.1667 11.8607 13.1175 11.7874 13.0557 11.7256L13.0098 11.6797C12.7631 11.4274 12.5981 11.1069 12.5352 10.7598C12.4726 10.4146 12.5139 10.0587 12.6543 9.7373L12.709 9.62109C12.847 9.35469 13.0514 9.12738 13.3027 8.96094C13.5899 8.77082 13.9261 8.6684 14.2705 8.66699H14.333C14.5098 8.66699 14.6797 8.5967 14.8047 8.47168C14.9297 8.34666 15 8.17681 15 8C14.9999 7.82338 14.9295 7.65423 14.8047 7.5293C14.6797 7.40427 14.5098 7.33398 14.333 7.33398H14.2178C13.8733 7.33261 13.5363 7.23023 13.249 7.04004C12.9618 6.8498 12.7363 6.57938 12.6006 6.2627C12.5781 6.21021 12.5651 6.15483 12.5566 6.09863C12.4523 5.80752 12.426 5.49323 12.4814 5.1875C12.5444 4.84023 12.7102 4.51988 12.957 4.26758L13.002 4.22266L13.085 4.12109C13.1092 4.0849 13.1297 4.04628 13.1465 4.00586C13.18 3.92493 13.1973 3.83761 13.1973 3.75C13.1972 3.6625 13.18 3.57595 13.1465 3.49512C13.1297 3.45468 13.1092 3.4161 13.085 3.37988L13.002 3.27832C12.94 3.21634 12.8661 3.16734 12.7852 3.13379C12.7043 3.10027 12.6178 3.08304 12.5303 3.08301C12.4427 3.08301 12.3553 3.10024 12.2744 3.13379C12.1936 3.16733 12.1204 3.21645 12.0586 3.27832L12.0186 3.31836L12.0127 3.32324C11.7604 3.57005 11.4401 3.73583 11.0928 3.79883C10.7475 3.86143 10.3917 3.81919 10.0703 3.67871C9.75379 3.54297 9.48411 3.3184 9.29395 3.03125C9.10371 2.74399 9.00137 2.40704 9 2.0625V2ZM10.333 2.05762L10.3379 2.12012C10.3472 2.18236 10.3703 2.24201 10.4053 2.29492C10.4402 2.34772 10.4865 2.39192 10.54 2.4248L10.5957 2.4541L10.6025 2.45703L10.6631 2.47852C10.7252 2.49552 10.7906 2.49884 10.8545 2.4873C10.9184 2.47572 10.979 2.44982 11.0312 2.41211L11.0801 2.37012L11.1152 2.33594L11.2607 2.2041C11.4125 2.07946 11.5816 1.97686 11.7637 1.90137C12.0065 1.80072 12.2674 1.74902 12.5303 1.74902C12.793 1.74906 13.0532 1.80078 13.2959 1.90137C13.5384 2.00188 13.7588 2.14937 13.9443 2.33496L14.0762 2.48145C14.2008 2.63321 14.3034 2.80231 14.3789 2.98438C14.4795 3.22706 14.5312 3.4873 14.5312 3.75C14.5312 4.01283 14.4796 4.27381 14.3789 4.5166C14.3034 4.69866 14.2008 4.86778 14.0762 5.01953L13.9443 5.16504L13.9092 5.19922L13.9102 5.2002C13.8496 5.26208 13.8084 5.34061 13.793 5.42578C13.7776 5.51086 13.7883 5.59863 13.8232 5.67773L13.8633 5.80566C13.8952 5.85403 13.9366 5.89641 13.9854 5.92871C14.0557 5.97522 14.1383 5.99966 14.2227 6H14.333C14.8633 6 15.372 6.21107 15.7471 6.58594C16.1221 6.96093 16.3329 7.46968 16.333 8C16.333 8.53043 16.1221 9.03899 15.7471 9.41406C15.372 9.78913 14.8634 10 14.333 10H14.2764L14.2129 10.0049C14.1508 10.0143 14.0909 10.0373 14.0381 10.0723C13.9678 10.1188 13.9132 10.1853 13.8799 10.2627L13.877 10.2695C13.842 10.3487 13.8313 10.4364 13.8467 10.5215C13.8621 10.6065 13.9026 10.6852 13.9629 10.7471L13.998 10.7822L14.1299 10.9277C14.2544 11.0794 14.3562 11.2488 14.4316 11.4307C14.5323 11.6735 14.584 11.9344 14.584 12.1973C14.5839 12.46 14.5323 12.7202 14.4316 12.9629C14.331 13.2056 14.184 13.4266 13.998 13.6123L13.9971 13.6113C13.8115 13.797 13.5921 13.9454 13.3496 14.0459C13.1068 14.1465 12.8458 14.1982 12.583 14.1982C12.3203 14.1982 12.0601 14.1465 11.8174 14.0459C11.5746 13.9452 11.3537 13.7973 11.168 13.6113L11.1338 13.5762C11.0719 13.5156 10.9934 13.4754 10.9082 13.46C10.8231 13.4445 10.7354 13.4554 10.6562 13.4902L10.6494 13.4932C10.5717 13.5265 10.5056 13.5819 10.459 13.6523C10.4123 13.7228 10.3871 13.8052 10.3867 13.8896V14C10.3867 14.5303 10.1757 15.039 9.80078 15.4141C9.42572 15.7891 8.91713 16 8.38672 16C7.85629 16 7.34773 15.7891 6.97266 15.4141C6.59767 15.039 6.38672 14.5304 6.38672 14V13.9561L6.38086 13.8916C6.36974 13.8278 6.34366 13.767 6.30566 13.7139C6.2677 13.6609 6.21879 13.617 6.16211 13.5859L6.10352 13.5596C6.09047 13.5548 6.07718 13.5496 6.06445 13.5439C5.98524 13.509 5.89672 13.4982 5.81152 13.5137C5.72898 13.5287 5.65272 13.5675 5.5918 13.625L5.55176 13.665C5.36603 13.851 5.14511 13.998 4.90234 14.0986C4.65958 14.1993 4.39951 14.251 4.13672 14.251C3.87394 14.251 3.61384 14.1992 3.37109 14.0986C3.12835 13.998 2.9074 13.8509 2.72168 13.665C2.53623 13.4796 2.38857 13.2589 2.28809 13.0166C2.21255 12.8344 2.16477 12.6419 2.14551 12.4463L2.13574 12.25C2.13578 11.9873 2.18748 11.7271 2.28809 11.4844C2.38873 11.2416 2.53672 11.0207 2.72266 10.835L2.75684 10.8008C2.81732 10.7389 2.85759 10.6603 2.87305 10.5752C2.88462 10.5113 2.88216 10.4459 2.86523 10.3838L2.84375 10.3232L2.84082 10.3164C2.80756 10.2388 2.75201 10.1726 2.68164 10.126C2.62879 10.091 2.56902 10.068 2.50684 10.0586L2.44434 10.0537H2.33301C1.80269 10.0536 1.29394 9.84277 0.918945 9.46777C0.54397 9.09273 0.333022 8.58406 0.333008 8.05371C0.333008 7.52337 0.543991 7.0147 0.918945 6.63965C1.29394 6.26465 1.80269 6.0538 2.33301 6.05371H2.37793C2.46479 6.05164 2.54944 6.0232 2.62012 5.97266C2.69054 5.92214 2.74445 5.85183 2.77441 5.77051L2.79004 5.73145L2.81152 5.66992C2.82841 5.60789 2.83188 5.54231 2.82031 5.47852C2.80871 5.41479 2.78269 5.35483 2.74512 5.30273L2.70312 5.25293L2.66895 5.21875C2.48299 5.033 2.33502 4.81213 2.23438 4.56934C2.13382 4.32664 2.08204 4.06642 2.08203 3.80371C2.08203 3.54102 2.13383 3.28077 2.23438 3.03809C2.33502 2.79529 2.48299 2.57442 2.66895 2.38867C2.85456 2.203 3.07486 2.05562 3.31738 1.95508C3.56008 1.85447 3.82029 1.80278 4.08301 1.80273C4.34584 1.80273 4.60681 1.85443 4.84961 1.95508C5.09188 2.05556 5.3116 2.20322 5.49707 2.38867L5.5332 2.42383L5.58203 2.46582C5.63423 2.50347 5.69493 2.52846 5.75879 2.54004C5.84386 2.55543 5.93163 2.54561 6.01074 2.51074L6.1416 2.46777C6.18859 2.4361 6.23014 2.39632 6.26172 2.34863C6.30791 2.27884 6.33223 2.19694 6.33301 2.11328V2C6.33309 1.46968 6.54395 0.960933 6.91895 0.585938C7.29394 0.210942 7.80269 8.62334e-05 8.33301 0L8.53125 0.00976562C8.98887 0.0552504 9.41897 0.257989 9.74707 0.585938C10.1221 0.960933 10.3329 1.46968 10.333 2V2.05762Z" fill="#070707"/>
</svg>
