<svg width="104" height="130" viewBox="0 0 104 130" fill="none" xmlns="http://www.w3.org/2000/svg">
<g filter="url(#filter0_d_9_2519)">
<path d="M23.3778 118H21.9929L25.9986 107.09H27.3622L31.3679 118H29.983L26.723 108.816H26.6378L23.3778 118ZM23.8892 113.738H29.4716V114.91H23.8892V113.738ZM32.8967 121.068V109.818H34.1112V111.117H34.2603C34.3526 110.975 34.4805 110.794 34.6438 110.574C34.8107 110.35 35.0487 110.152 35.3576 109.977C35.6701 109.8 36.0927 109.711 36.6254 109.711C37.3143 109.711 37.9215 109.883 38.4471 110.228C38.9727 110.572 39.3828 111.061 39.6776 111.693C39.9723 112.325 40.1197 113.071 40.1197 113.93C40.1197 114.796 39.9723 115.547 39.6776 116.183C39.3828 116.815 38.9744 117.305 38.4524 117.653C37.9304 117.998 37.3285 118.17 36.6467 118.17C36.1211 118.17 35.7003 118.083 35.3842 117.909C35.0682 117.731 34.8249 117.531 34.6545 117.307C34.484 117.08 34.3526 116.892 34.2603 116.742H34.1538V121.068H32.8967ZM34.1325 113.909C34.1325 114.527 34.223 115.072 34.4041 115.544C34.5852 116.013 34.8498 116.38 35.1978 116.647C35.5458 116.909 35.9719 117.041 36.4762 117.041C37.0018 117.041 37.4403 116.902 37.7919 116.625C38.147 116.345 38.4134 115.968 38.5909 115.496C38.772 115.02 38.8626 114.491 38.8626 113.909C38.8626 113.333 38.7738 112.815 38.5962 112.353C38.4222 111.888 38.1577 111.52 37.8026 111.251C37.451 110.977 37.0089 110.84 36.4762 110.84C35.9648 110.84 35.5352 110.97 35.1871 111.229C34.8391 111.485 34.5763 111.844 34.3988 112.305C34.2212 112.763 34.1325 113.298 34.1325 113.909ZM42.0373 121.068V109.818H43.2518V111.117H43.4009C43.4933 110.975 43.6211 110.794 43.7844 110.574C43.9513 110.35 44.1893 110.152 44.4982 109.977C44.8107 109.8 45.2333 109.711 45.766 109.711C46.4549 109.711 47.0621 109.883 47.5877 110.228C48.1133 110.572 48.5234 111.061 48.8182 111.693C49.1129 112.325 49.2603 113.071 49.2603 113.93C49.2603 114.796 49.1129 115.547 48.8182 116.183C48.5234 116.815 48.1151 117.305 47.593 117.653C47.071 117.998 46.4691 118.17 45.7873 118.17C45.2617 118.17 44.8409 118.083 44.5249 117.909C44.2088 117.731 43.9656 117.531 43.7951 117.307C43.6246 117.08 43.4933 116.892 43.4009 116.742H43.2944V121.068H42.0373ZM43.2731 113.909C43.2731 114.527 43.3636 115.072 43.5447 115.544C43.7259 116.013 43.9904 116.38 44.3384 116.647C44.6864 116.909 45.1126 117.041 45.6168 117.041C46.1424 117.041 46.581 116.902 46.9325 116.625C47.2876 116.345 47.554 115.968 47.7315 115.496C47.9126 115.02 48.0032 114.491 48.0032 113.909C48.0032 113.333 47.9144 112.815 47.7369 112.353C47.5629 111.888 47.2983 111.52 46.9432 111.251C46.5916 110.977 46.1495 110.84 45.6168 110.84C45.1055 110.84 44.6758 110.97 44.3278 111.229C43.9798 111.485 43.717 111.844 43.5394 112.305C43.3619 112.763 43.2731 113.298 43.2731 113.909ZM52.435 107.09V118H51.1779V107.09H52.435ZM58.1679 118.17C57.3795 118.17 56.6995 117.996 56.1278 117.648C55.5596 117.296 55.121 116.806 54.8121 116.178C54.5067 115.546 54.354 114.811 54.354 113.973C54.354 113.134 54.5067 112.396 54.8121 111.757C55.121 111.114 55.5507 110.613 56.1011 110.254C56.6551 109.892 57.3014 109.711 58.04 109.711C58.4662 109.711 58.887 109.782 59.3025 109.924C59.718 110.066 60.0961 110.297 60.4371 110.617C60.778 110.933 61.0496 111.352 61.252 111.874C61.4545 112.396 61.5557 113.039 61.5557 113.802V114.335H55.2488V113.248H60.2773C60.2773 112.786 60.1849 112.375 60.0003 112.012C59.8192 111.65 59.5599 111.364 59.2226 111.155C58.8888 110.945 58.4946 110.84 58.04 110.84C57.5393 110.84 57.1061 110.965 56.7403 111.213C56.3781 111.458 56.0993 111.778 55.904 112.172C55.7087 112.566 55.6111 112.989 55.6111 113.44V114.164C55.6111 114.782 55.7176 115.306 55.9307 115.736C56.1473 116.162 56.4474 116.487 56.8309 116.71C57.2144 116.931 57.6601 117.041 58.1679 117.041C58.4981 117.041 58.7964 116.995 59.0628 116.902C59.3327 116.806 59.5653 116.664 59.7606 116.476C59.9559 116.284 60.1068 116.046 60.2133 115.762L61.4278 116.103C61.3 116.515 61.0851 116.877 60.7833 117.19C60.4814 117.499 60.1086 117.74 59.6647 117.914C59.2208 118.085 58.7219 118.17 58.1679 118.17ZM69.1782 107.09V118H67.8572V107.09H69.1782ZM75.1934 118H71.8269V107.09H75.3425C76.4007 107.09 77.3063 107.309 78.0591 107.746C78.812 108.179 79.389 108.802 79.7903 109.615C80.1916 110.425 80.3922 111.394 80.3922 112.524C80.3922 113.66 80.1898 114.638 79.785 115.459C79.3801 116.275 78.7907 116.904 78.0165 117.344C77.2424 117.781 76.3013 118 75.1934 118ZM73.1479 116.828H75.1081C76.0101 116.828 76.7576 116.654 77.3507 116.306C77.9437 115.958 78.3858 115.462 78.677 114.819C78.9682 114.177 79.1138 113.411 79.1138 112.524C79.1138 111.643 78.97 110.885 78.6824 110.249C78.3947 109.61 77.965 109.12 77.3933 108.779C76.8216 108.435 76.1096 108.262 75.2573 108.262H73.1479V116.828Z" fill="black"/>
<circle cx="52.1589" cy="47.2897" r="47.2897" fill="#4293EF"/>
<path d="M51.3533 32.7616C54.6338 33.0028 57.9142 31.314 59.9645 29.1728C61.9806 26.9713 63.3133 24.0158 62.9716 21C60.067 21.1206 56.479 22.6888 54.4287 24.8904C52.5493 26.7903 50.9432 29.8664 51.3533 32.7616Z" fill="white"/>
<path d="M51.8659 35.717C54.1212 35.717 58.1876 33.0933 62.9374 33.3346C64.7827 33.4552 70.1135 33.9377 73.5306 38.4011C73.2572 38.582 67.2089 41.6581 67.2772 48.1119C67.3456 55.8323 74.9317 58.3957 75 58.456C74.9317 58.637 73.804 62.1051 71.0361 65.6638C68.6099 68.8002 66.1154 71.8763 62.1515 71.9366C58.3243 71.9969 57.0599 69.916 52.6518 69.916C48.2779 69.916 46.8426 71.8763 43.2205 71.9969C39.3933 72.1175 36.4887 68.6795 34.0625 65.5431C29.1076 59.21 25.3146 47.6897 30.4403 39.909C32.9348 36.0186 37.4796 33.5758 42.3662 33.5155C46.125 33.4552 49.5764 35.717 51.8659 35.717Z" fill="white"/>
</g>
<defs>
<filter id="filter0_d_9_2519" x="0.869141" y="0" width="102.579" height="129.068" filterUnits="userSpaceOnUse" color-interpolation-filters="sRGB">
<feFlood flood-opacity="0" result="BackgroundImageFix"/>
<feColorMatrix in="SourceAlpha" type="matrix" values="0 0 0 0 0 0 0 0 0 0 0 0 0 0 0 0 0 0 127 0" result="hardAlpha"/>
<feOffset dy="4"/>
<feGaussianBlur stdDeviation="2"/>
<feComposite in2="hardAlpha" operator="out"/>
<feColorMatrix type="matrix" values="0 0 0 0 0 0 0 0 0 0 0 0 0 0 0 0 0 0 0.25 0"/>
<feBlend mode="normal" in2="BackgroundImageFix" result="effect1_dropShadow_9_2519"/>
<feBlend mode="normal" in="SourceGraphic" in2="effect1_dropShadow_9_2519" result="shape"/>
</filter>
</defs>
</svg>
