<svg width="18" height="18" viewBox="0 0 18 18" fill="none" xmlns="http://www.w3.org/2000/svg">
<circle cx="9" cy="9" r="8.5" stroke="#4293EF"/>
<path d="M8.54 5.726C8.30667 5.726 8.11067 5.64667 7.952 5.488C7.79333 5.32933 7.714 5.138 7.714 4.914C7.714 4.69 7.79333 4.49867 7.952 4.34C8.11067 4.172 8.30667 4.088 8.54 4.088C8.764 4.088 8.95533 4.172 9.114 4.34C9.27267 4.49867 9.352 4.69 9.352 4.914C9.352 5.138 9.27267 5.32933 9.114 5.488C8.95533 5.64667 8.764 5.726 8.54 5.726ZM9.142 14H7.924V7H9.142V14Z" fill="#4293EF"/>
</svg>
