<svg width="16" height="16" viewBox="0 0 16 16" fill="none" xmlns="http://www.w3.org/2000/svg">
<path d="M3.375 4.16699H2.58333C2.16341 4.16699 1.76068 4.33381 1.46375 4.63074C1.16681 4.92767 1 5.3304 1 5.75033V12.8753C1 13.2953 1.16681 13.698 1.46375 13.9949C1.76068 14.2918 2.16341 14.4587 2.58333 14.4587H9.70833C10.1283 14.4587 10.531 14.2918 10.8279 13.9949C11.1249 13.698 11.2917 13.2953 11.2917 12.8753V12.0837" stroke="#070707" stroke-width="1.3" stroke-linecap="round" stroke-linejoin="round"/>
<path d="M10.5002 2.58342L12.8752 4.95842M13.9716 3.83821C14.2834 3.52641 14.4586 3.10353 14.4586 2.66258C14.4586 2.22164 14.2834 1.79875 13.9716 1.48696C13.6598 1.17516 13.2369 1 12.796 1C12.3551 1 11.9322 1.17516 11.6204 1.48696L4.9585 8.12508V10.5001H7.3335L13.9716 3.83821Z" stroke="#070707" stroke-width="1.3" stroke-linecap="round" stroke-linejoin="round"/>
</svg>
