<svg width="15" height="15" viewBox="0 0 15 15" fill="none" xmlns="http://www.w3.org/2000/svg">
<path d="M7.539 0.941406C3.67908 0.941406 0.539001 4.08149 0.539001 7.94141C0.539001 11.8013 3.67908 14.9414 7.539 14.9414C11.3989 14.9414 14.539 11.8013 14.539 7.94141C14.539 4.08149 11.3989 0.941406 7.539 0.941406ZM11.1557 7.07341L8.57383 9.60799C8.11708 10.056 7.52908 10.2794 6.9405 10.2794C6.35833 10.2794 5.77617 10.0601 5.32117 9.62082L4.21342 8.53174C3.98358 8.30599 3.98067 7.93674 4.20642 7.70691C4.43158 7.47649 4.802 7.47357 5.03125 7.69991L6.1355 8.78549C6.58817 9.22299 7.30275 9.22066 7.75775 8.77499L10.339 6.24099C10.5683 6.01466 10.9363 6.01874 11.1638 6.24857C11.3896 6.47841 11.3861 6.84766 11.1557 7.07341Z" fill="white"/>
</svg>
