<svg width="23" height="23" viewBox="0 0 23 23" fill="none" xmlns="http://www.w3.org/2000/svg">
<path d="M11.5 0C5.15871 0 0 5.15871 0 11.5C0 17.8413 5.15871 23 11.5 23C17.8413 23 23 17.8413 23 11.5C23 5.15871 17.8413 0 11.5 0ZM17.4417 10.074L13.2001 14.238C12.4497 14.974 11.4837 15.341 10.5167 15.341C9.56033 15.341 8.60392 14.9807 7.85642 14.259L6.03654 12.4698C5.65896 12.099 5.65417 11.4923 6.02504 11.1147C6.39496 10.7362 7.0035 10.7314 7.38013 11.1033L9.19425 12.8867C9.93792 13.6055 11.1119 13.6016 11.8594 12.8695L16.1 8.70646C16.4766 8.33463 17.0813 8.34133 17.4551 8.71892C17.826 9.0965 17.8202 9.70312 17.4417 10.074Z" fill="white"/>
</svg>
