<svg width="342" height="59" viewBox="0 0 342 59" fill="none" xmlns="http://www.w3.org/2000/svg">
<rect width="342" height="59" rx="28" fill="#4293EF"/>
<path d="M105.742 28.239C105.742 26.5711 106.318 25.161 107.47 24.0088C108.622 22.8456 110.032 22.264 111.7 22.264C113.368 22.264 114.778 22.8456 115.931 24.0088C117.094 25.161 117.675 26.5711 117.675 28.239C117.675 29.896 117.094 31.306 115.931 32.4692C114.778 33.6324 113.368 34.214 111.7 34.214C110.032 34.214 108.622 33.6324 107.47 32.4692C106.318 31.2951 105.742 29.885 105.742 28.239ZM116.145 28.239C116.145 26.9661 115.717 25.9017 114.861 25.0458C114.027 24.1789 112.973 23.7454 111.7 23.7454C110.438 23.7454 109.38 24.1789 108.524 25.0458C107.679 25.9127 107.256 26.9771 107.256 28.239C107.256 29.49 107.679 30.5544 108.524 31.4322C109.38 32.2882 110.438 32.7161 111.7 32.7161C112.973 32.7161 114.027 32.2882 114.861 31.4322C115.717 30.5544 116.145 29.49 116.145 28.239ZM118.281 25.77H125.326V27.1526H122.528V34H121.096V27.1526H118.281V25.77ZM129.313 29.7533L133.379 34H131.601L127.848 30.099V34H126.416V25.77H127.848V29.4077L131.404 25.77H133.247L129.313 29.7533ZM139.089 25.556C140.241 25.556 141.223 25.9785 142.035 26.8234C142.847 27.6684 143.253 28.6889 143.253 29.885C143.253 31.0921 142.847 32.1181 142.035 32.963C141.234 33.797 140.252 34.214 139.089 34.214C137.728 34.214 136.691 33.6708 135.978 32.5844V37.292H134.546V25.77H135.978V27.1856C136.691 26.0992 137.728 25.556 139.089 25.556ZM138.908 32.8313C139.731 32.8313 140.422 32.5515 140.982 31.9919C141.542 31.4103 141.821 30.708 141.821 29.885C141.821 29.051 141.542 28.3542 140.982 27.7946C140.422 27.224 139.731 26.9387 138.908 26.9387C138.074 26.9387 137.377 27.224 136.818 27.7946C136.258 28.3542 135.978 29.051 135.978 29.885C135.978 30.708 136.258 31.4103 136.818 31.9919C137.377 32.5515 138.074 32.8313 138.908 32.8313ZM146.23 28.7328H148.271C149.094 28.7328 149.774 28.9797 150.312 29.4735C150.86 29.9563 151.135 30.5873 151.135 31.3664C151.135 32.1455 150.86 32.782 150.312 33.2758C149.763 33.7586 149.083 34 148.271 34H144.798V25.77H146.23V28.7328ZM152.205 34V25.77H153.637V34H152.205ZM146.23 32.6667H148.271C148.688 32.6667 149.033 32.546 149.308 32.3046C149.582 32.0632 149.719 31.7505 149.719 31.3664C149.719 30.9823 149.576 30.6696 149.291 30.4282C149.017 30.1758 148.677 30.0496 148.271 30.0496H146.23V32.6667ZM154.738 25.77H161.783V27.1526H158.985V34H157.553V27.1526H154.738V25.77ZM164.305 28.7328H166.346C167.169 28.7328 167.85 28.9797 168.387 29.4735C168.936 29.9563 169.21 30.5873 169.21 31.3664C169.21 32.1455 168.936 32.782 168.387 33.2758C167.839 33.7586 167.158 34 166.346 34H162.873V25.77H164.305V28.7328ZM164.305 32.6667H166.346C166.763 32.6667 167.109 32.546 167.383 32.3046C167.658 32.0632 167.795 31.7505 167.795 31.3664C167.795 30.9823 167.652 30.6696 167.367 30.4282C167.093 30.1758 166.752 30.0496 166.346 30.0496H164.305V32.6667ZM178.404 34.214C177.164 34.214 176.132 33.8025 175.309 32.9795C174.486 32.1455 174.075 31.114 174.075 29.885C174.075 28.656 174.486 27.63 175.309 26.807C176.132 25.973 177.164 25.556 178.404 25.556C179.216 25.556 179.945 25.7535 180.593 26.1486C181.24 26.5326 181.723 27.0539 182.041 27.7123L180.84 28.4036C180.631 27.9647 180.307 27.6135 179.869 27.3502C179.441 27.0868 178.952 26.9551 178.404 26.9551C177.581 26.9551 176.889 27.2349 176.33 27.7946C175.781 28.3652 175.507 29.062 175.507 29.885C175.507 30.697 175.781 31.3883 176.33 31.959C176.889 32.5186 177.581 32.7984 178.404 32.7984C178.952 32.7984 179.446 32.6722 179.885 32.4198C180.324 32.1565 180.659 31.8053 180.889 31.3664L182.107 32.0742C181.745 32.7326 181.235 33.2538 180.576 33.6379C179.918 34.0219 179.194 34.214 178.404 34.214ZM190.19 32.963C189.356 33.797 188.33 34.214 187.112 34.214C185.894 34.214 184.868 33.797 184.034 32.963C183.2 32.129 182.783 31.103 182.783 29.885C182.783 28.667 183.2 27.641 184.034 26.807C184.868 25.973 185.894 25.556 187.112 25.556C188.33 25.556 189.356 25.973 190.19 26.807C191.035 27.6519 191.457 28.6779 191.457 29.885C191.457 31.0921 191.035 32.1181 190.19 32.963ZM187.112 32.8149C187.935 32.8149 188.626 32.5351 189.186 31.9754C189.746 31.4158 190.025 30.719 190.025 29.885C190.025 29.051 189.746 28.3542 189.186 27.7946C188.626 27.2349 187.935 26.9551 187.112 26.9551C186.3 26.9551 185.614 27.2349 185.054 27.7946C184.495 28.3542 184.215 29.051 184.215 29.885C184.215 30.719 184.495 31.4158 185.054 31.9754C185.614 32.5351 186.3 32.8149 187.112 32.8149ZM196.717 34.214C195.499 34.214 194.495 33.8135 193.705 33.0124C192.915 32.2004 192.52 31.1689 192.52 29.9179C192.52 28.5024 192.723 27.4215 193.129 26.6753C193.546 25.9181 194.391 25.2323 195.664 24.6178C195.73 24.5849 195.807 24.5465 195.894 24.5026C195.993 24.4587 196.108 24.4093 196.24 24.3544C196.383 24.2886 196.503 24.2337 196.602 24.1898L197.491 23.7948C198.369 23.3559 198.835 22.8291 198.89 22.2146L200.042 22.873C199.966 23.2571 199.839 23.5644 199.664 23.7948C199.653 23.8167 199.62 23.8661 199.565 23.9429C199.51 24.0088 199.472 24.0582 199.45 24.0911C199.428 24.113 199.389 24.1514 199.335 24.2063C199.291 24.2502 199.241 24.2941 199.186 24.338C199.143 24.3819 199.082 24.4258 199.005 24.4697C198.599 24.722 198.309 24.8866 198.133 24.9635C198.067 24.9964 197.996 25.0293 197.919 25.0622C197.853 25.0951 197.798 25.1226 197.754 25.1445C197.711 25.1665 197.678 25.1829 197.656 25.1939L197.112 25.4243L196.586 25.6383C195.851 25.9565 195.307 26.2803 194.956 26.6095C194.605 26.9387 194.353 27.3556 194.199 27.8604C194.539 27.4434 194.967 27.1252 195.483 26.9057C196.01 26.6863 196.547 26.5765 197.096 26.5765C198.138 26.5765 199.011 26.9277 199.713 27.63C200.437 28.3432 200.8 29.2485 200.8 30.3459C200.8 31.4652 200.415 32.3924 199.647 33.1276C198.868 33.8519 197.892 34.214 196.717 34.214ZM199.367 30.3459C199.367 29.6107 199.126 29.0126 198.643 28.5517C198.171 28.0799 197.546 27.844 196.767 27.844C196.075 27.844 195.439 28.0689 194.857 28.5188C194.298 28.9687 194.018 29.5503 194.018 30.2636C194.018 31.0098 194.276 31.6243 194.792 32.1071C195.307 32.5899 195.949 32.8313 196.717 32.8313C197.497 32.8313 198.127 32.5954 198.61 32.1236C199.115 31.6517 199.367 31.0591 199.367 30.3459ZM203.588 28.7328H205.629C206.452 28.7328 207.132 28.9797 207.67 29.4735C208.218 29.9563 208.493 30.5873 208.493 31.3664C208.493 32.1455 208.218 32.782 207.67 33.2758C207.121 33.7586 206.441 34 205.629 34H202.156V25.77H203.588V28.7328ZM209.563 34V25.77H210.995V34H209.563ZM203.588 32.6667H205.629C206.046 32.6667 206.391 32.546 206.666 32.3046C206.94 32.0632 207.077 31.7505 207.077 31.3664C207.077 30.9823 206.934 30.6696 206.649 30.4282C206.375 30.1758 206.035 30.0496 205.629 30.0496H203.588V32.6667ZM212.096 25.77H219.141V27.1526H216.343V34H214.911V27.1526H212.096V25.77ZM221.647 31.5475L226.206 25.77H227.358V34H225.943V28.2225L221.384 34H220.231V25.77H221.647V31.5475ZM237.274 30.5434H230.378C230.52 31.2676 230.855 31.8383 231.382 32.2552C231.909 32.6613 232.567 32.8643 233.357 32.8643C234.443 32.8643 235.233 32.4637 235.727 31.6627L236.945 32.354C236.133 33.594 234.926 34.214 233.324 34.214C232.029 34.214 230.965 33.808 230.131 32.9959C229.319 32.162 228.913 31.125 228.913 29.885C228.913 28.634 229.313 27.6025 230.114 26.7905C230.915 25.9675 231.952 25.556 233.225 25.556C234.432 25.556 235.414 25.984 236.172 26.8399C236.94 27.6739 237.324 28.6944 237.324 29.9015C237.324 30.11 237.307 30.3239 237.274 30.5434ZM233.225 26.9057C232.468 26.9057 231.832 27.1197 231.316 27.5477C230.811 27.9756 230.498 28.5572 230.378 29.2924H235.875C235.755 28.5353 235.453 27.9482 234.97 27.5312C234.487 27.1142 233.906 26.9057 233.225 26.9057Z" fill="white"/>
</svg>
