<svg width="369" height="181" viewBox="0 0 369 181" fill="none" xmlns="http://www.w3.org/2000/svg">
<g filter="url(#filter0_d_4901_273)">
<rect x="15.5" y="11.5" width="338" height="150" rx="27.5" stroke="#666666" shape-rendering="crispEdges"/>
</g>
<path d="M209.818 51V45H203.727V39H209.818V33H215.909V39H222V45H215.909V51H209.818ZM185.455 82.5C189.261 82.5 192.498 81.188 195.163 78.564C197.829 75.94 199.161 72.752 199.159 69C199.157 65.248 197.825 62.061 195.163 59.439C192.502 56.817 189.265 55.504 185.455 55.5C181.644 55.496 178.408 56.809 175.749 59.439C173.089 62.069 171.756 65.256 171.75 69C171.744 72.744 173.077 75.932 175.749 78.564C178.421 81.196 181.656 82.508 185.455 82.5ZM185.455 76.5C183.323 76.5 181.521 75.775 180.049 74.325C178.577 72.875 177.841 71.1 177.841 69C177.841 66.9 178.577 65.125 180.049 63.675C181.521 62.225 183.323 61.5 185.455 61.5C187.586 61.5 189.388 62.225 190.86 63.675C192.332 65.125 193.068 66.9 193.068 69C193.068 71.1 192.332 72.875 190.86 74.325C189.388 75.775 187.586 76.5 185.455 76.5ZM161.091 93C159.416 93 157.983 92.413 156.791 91.239C155.599 90.065 155.002 88.652 155 87V51C155 49.35 155.597 47.938 156.791 46.764C157.985 45.59 159.418 45.002 161.091 45H170.684L176.318 39H197.636V51H203.727V57H215.909V87C215.909 88.65 215.313 90.063 214.121 91.239C212.93 92.415 211.495 93.002 209.818 93H161.091Z" fill="#C1C1C1"/>
<path d="M118.146 114.425H127.128V127H125.87V115.611H119.403V127H118.146V114.425ZM134.46 117.802C135.741 117.802 136.831 118.258 137.729 119.168C138.64 120.078 139.095 121.192 139.095 122.509C139.095 123.826 138.64 124.94 137.729 125.85C136.831 126.76 135.741 127.216 134.46 127.216C132.867 127.216 131.658 126.557 130.831 125.24V130.593H129.646V118.018H130.831V119.778C131.658 118.461 132.867 117.802 134.46 117.802ZM131.855 125.042C132.538 125.725 133.376 126.066 134.37 126.066C135.364 126.066 136.202 125.725 136.885 125.042C137.568 124.335 137.909 123.491 137.909 122.509C137.909 121.515 137.568 120.677 136.885 119.994C136.202 119.299 135.364 118.952 134.37 118.952C133.376 118.952 132.538 119.299 131.855 119.994C131.173 120.677 130.831 121.515 130.831 122.509C130.831 123.491 131.173 124.335 131.855 125.042ZM142.072 124.934L147.425 118.018H148.431V127H147.246V120.084L141.892 127H140.886V118.018H142.072V124.934ZM153.202 122.329L158.016 127H156.435L151.944 122.671V127H150.759V118.018H151.944V121.988L156.22 118.018H157.837L153.202 122.329ZM164.27 117.802C165.552 117.802 166.642 118.258 167.54 119.168C168.45 120.078 168.905 121.192 168.905 122.509C168.905 123.826 168.45 124.94 167.54 125.85C166.642 126.76 165.552 127.216 164.27 127.216C162.677 127.216 161.468 126.557 160.642 125.24V130.593H159.456V118.018H160.642V119.778C161.468 118.461 162.677 117.802 164.27 117.802ZM161.665 125.042C162.348 125.725 163.186 126.066 164.18 126.066C165.174 126.066 166.013 125.725 166.695 125.042C167.378 124.335 167.719 123.491 167.719 122.509C167.719 121.515 167.378 120.677 166.695 119.994C166.013 119.299 165.174 118.952 164.18 118.952C163.186 118.952 162.348 119.299 161.665 119.994C160.983 120.677 160.642 121.515 160.642 122.509C160.642 123.491 160.983 124.335 161.665 125.042ZM174.846 117.802C176.188 117.802 177.26 118.276 178.062 119.222C178.888 120.156 179.301 121.264 179.301 122.545C179.301 122.605 179.289 122.79 179.266 123.102H171.379C171.499 124 171.882 124.719 172.529 125.257C173.176 125.796 173.984 126.066 174.954 126.066C176.319 126.066 177.284 125.557 177.846 124.539L178.888 125.15C178.493 125.796 177.948 126.305 177.254 126.677C176.571 127.036 175.798 127.216 174.936 127.216C173.523 127.216 172.373 126.772 171.487 125.886C170.601 125 170.158 123.874 170.158 122.509C170.158 121.156 170.595 120.036 171.469 119.15C172.343 118.252 173.469 117.802 174.846 117.802ZM174.846 118.952C173.912 118.952 173.128 119.228 172.493 119.778C171.87 120.329 171.499 121.054 171.379 121.952H178.08C177.948 120.994 177.583 120.258 176.984 119.743C176.361 119.216 175.649 118.952 174.846 118.952ZM181.008 118.018H188.553V127H187.367V119.168H182.193V127H181.008V118.018ZM192.066 124.934L197.419 118.018H198.425V127H197.239V120.084L191.886 127H190.88V118.018H192.066V124.934ZM199.675 118.018H207.22V119.168H204.04V127H202.854V119.168H199.675V118.018ZM209.671 121.431H212.132C212.958 121.431 213.665 121.695 214.251 122.222C214.838 122.737 215.132 123.401 215.132 124.216C215.132 125.042 214.838 125.713 214.251 126.228C213.688 126.743 212.982 127 212.132 127H208.485V118.018H209.671V121.431ZM209.671 125.85H212.132C212.647 125.85 213.078 125.701 213.425 125.401C213.772 125.09 213.946 124.695 213.946 124.216C213.946 123.737 213.772 123.347 213.425 123.048C213.078 122.737 212.647 122.581 212.132 122.581H209.671V125.85ZM226.408 127.198V130.593H225.222V127.198C223.797 127.066 222.66 126.569 221.809 125.707C220.947 124.82 220.516 123.755 220.516 122.509C220.516 121.264 220.947 120.198 221.809 119.311C222.66 118.449 223.797 117.952 225.222 117.82V114.425H226.408V117.82C227.833 117.952 228.971 118.449 229.821 119.311C230.683 120.198 231.115 121.264 231.115 122.509C231.115 123.755 230.683 124.82 229.821 125.707C228.971 126.569 227.833 127.066 226.408 127.198ZM225.222 126.03V118.988C224.157 119.096 223.3 119.473 222.654 120.12C222.019 120.767 221.701 121.563 221.701 122.509C221.701 123.455 222.019 124.252 222.654 124.898C223.3 125.545 224.157 125.922 225.222 126.03ZM226.408 118.988V126.03C227.474 125.922 228.324 125.545 228.959 124.898C229.606 124.252 229.929 123.455 229.929 122.509C229.929 121.563 229.606 120.767 228.959 120.12C228.324 119.473 227.474 119.096 226.408 118.988ZM240.436 125.868C239.514 126.766 238.401 127.216 237.095 127.216C235.766 127.216 234.646 126.766 233.736 125.868C232.826 124.958 232.371 123.838 232.371 122.509C232.371 121.18 232.826 120.066 233.736 119.168C234.646 118.258 235.766 117.802 237.095 117.802C238.413 117.802 239.526 118.258 240.436 119.168C241.359 120.066 241.82 121.18 241.82 122.509C241.82 123.826 241.359 124.946 240.436 125.868ZM234.58 125.042C235.263 125.725 236.101 126.066 237.095 126.066C238.089 126.066 238.928 125.725 239.61 125.042C240.293 124.335 240.634 123.491 240.634 122.509C240.634 121.515 240.293 120.677 239.61 119.994C238.928 119.299 238.089 118.952 237.095 118.952C236.101 118.952 235.263 119.299 234.58 119.994C233.898 120.677 233.556 121.515 233.556 122.509C233.556 123.491 233.898 124.335 234.58 125.042ZM242.195 118.018H249.74V119.168H246.561V127H245.375V119.168H242.195V118.018ZM258.182 125.868C257.259 126.766 256.146 127.216 254.84 127.216C253.511 127.216 252.391 126.766 251.481 125.868C250.571 124.958 250.116 123.838 250.116 122.509C250.116 121.18 250.571 120.066 251.481 119.168C252.391 118.258 253.511 117.802 254.84 117.802C256.158 117.802 257.271 118.258 258.182 119.168C259.104 120.066 259.565 121.18 259.565 122.509C259.565 123.826 259.104 124.946 258.182 125.868ZM252.325 125.042C253.008 125.725 253.846 126.066 254.84 126.066C255.834 126.066 256.673 125.725 257.355 125.042C258.038 124.335 258.379 123.491 258.379 122.509C258.379 121.515 258.038 120.677 257.355 119.994C256.673 119.299 255.834 118.952 254.84 118.952C253.846 118.952 253.008 119.299 252.325 119.994C251.643 120.677 251.301 121.515 251.301 122.509C251.301 123.491 251.643 124.335 252.325 125.042Z" fill="#585858"/>
<defs>
<filter id="filter0_d_4901_273" x="0" y="0" width="369" height="181" filterUnits="userSpaceOnUse" color-interpolation-filters="sRGB">
<feFlood flood-opacity="0" result="BackgroundImageFix"/>
<feColorMatrix in="SourceAlpha" type="matrix" values="0 0 0 0 0 0 0 0 0 0 0 0 0 0 0 0 0 0 127 0" result="hardAlpha"/>
<feOffset dy="4"/>
<feGaussianBlur stdDeviation="7.5"/>
<feComposite in2="hardAlpha" operator="out"/>
<feColorMatrix type="matrix" values="0 0 0 0 0 0 0 0 0 0 0 0 0 0 0 0 0 0 0.25 0"/>
<feBlend mode="normal" in2="BackgroundImageFix" result="effect1_dropShadow_4901_273"/>
<feBlend mode="normal" in="SourceGraphic" in2="effect1_dropShadow_4901_273" result="shape"/>
</filter>
</defs>
</svg>
