<svg width="158" height="149" viewBox="0 0 158 149" fill="none" xmlns="http://www.w3.org/2000/svg">
<g filter="url(#filter0_d_4885_273)">
<rect x="15.5" y="11.5" width="127" height="118" rx="27.5" stroke="#666666" shape-rendering="crispEdges"/>
</g>
<path d="M104.818 45V39H98.7273V33H104.818V27H110.909V33H117V39H110.909V45H104.818ZM80.4545 76.5C84.2614 76.5 87.4977 75.188 90.1635 72.564C92.8292 69.94 94.1611 66.752 94.1591 63C94.1571 59.248 92.8252 56.061 90.1635 53.439C87.5017 50.817 84.2654 49.504 80.4545 49.5C76.6437 49.496 73.4084 50.809 70.7487 53.439C68.089 56.069 66.7561 59.256 66.75 63C66.7439 66.744 68.0768 69.932 70.7487 72.564C73.4206 75.196 76.6558 76.508 80.4545 76.5ZM80.4545 70.5C78.3227 70.5 76.5208 69.775 75.0489 68.325C73.5769 66.875 72.8409 65.1 72.8409 63C72.8409 60.9 73.5769 59.125 75.0489 57.675C76.5208 56.225 78.3227 55.5 80.4545 55.5C82.5864 55.5 84.3883 56.225 85.8602 57.675C87.3322 59.125 88.0682 60.9 88.0682 63C88.0682 65.1 87.3322 66.875 85.8602 68.325C84.3883 69.775 82.5864 70.5 80.4545 70.5ZM56.0909 87C54.4159 87 52.9825 86.413 51.7907 85.239C50.5989 84.065 50.002 82.652 50 81V45C50 43.35 50.5969 41.938 51.7907 40.764C52.9845 39.59 54.4179 39.002 56.0909 39H65.6841L71.3182 33H92.6364V45H98.7273V51H110.909V81C110.909 82.65 110.313 84.063 109.121 85.239C107.93 86.415 106.495 87.002 104.818 87H56.0909Z" fill="#C1C1C1"/>
<path d="M44.6278 113.642V109.828H45.3309C45.5724 109.608 45.7996 109.297 46.0127 108.896C46.2293 108.491 46.4122 107.951 46.5614 107.277C46.7141 106.598 46.8153 105.737 46.865 104.693L47.0994 100.091H53.5766V109.828H54.8337V113.621H53.5766V111H45.8849V113.642H44.6278ZM46.9076 109.828H52.3195V101.263H48.2925L48.1221 104.693C48.0795 105.489 48.0049 106.21 47.8984 106.856C47.7918 107.499 47.6551 108.069 47.4882 108.566C47.3213 109.059 47.1278 109.48 46.9076 109.828ZM59.8333 111.17C59.0947 111.17 58.4466 110.995 57.8891 110.643C57.3351 110.292 56.9019 109.8 56.5894 109.168C56.2804 108.536 56.1259 107.797 56.1259 106.952C56.1259 106.099 56.2804 105.355 56.5894 104.72C56.9019 104.084 57.3351 103.591 57.8891 103.239C58.4466 102.887 59.0947 102.712 59.8333 102.712C60.572 102.712 61.2183 102.887 61.7722 103.239C62.3298 103.591 62.763 104.084 63.072 104.72C63.3845 105.355 63.5407 106.099 63.5407 106.952C63.5407 107.797 63.3845 108.536 63.072 109.168C62.763 109.8 62.3298 110.292 61.7722 110.643C61.2183 110.995 60.572 111.17 59.8333 111.17ZM59.8333 110.041C60.3944 110.041 60.856 109.897 61.2183 109.61C61.5805 109.322 61.8486 108.944 62.0226 108.475C62.1966 108.006 62.2836 107.499 62.2836 106.952C62.2836 106.405 62.1966 105.895 62.0226 105.423C61.8486 104.951 61.5805 104.569 61.2183 104.278C60.856 103.987 60.3944 103.841 59.8333 103.841C59.2722 103.841 58.8106 103.987 58.4484 104.278C58.0862 104.569 57.8181 104.951 57.644 105.423C57.47 105.895 57.383 106.405 57.383 106.952C57.383 107.499 57.47 108.006 57.644 108.475C57.8181 108.944 58.0862 109.322 58.4484 109.61C58.8106 109.897 59.2722 110.041 59.8333 110.041ZM71.3821 99.75L72.0213 100.517C71.7727 100.759 71.4851 100.927 71.1584 101.023C70.8317 101.119 70.4624 101.178 70.0504 101.199C69.6385 101.22 69.1804 101.241 68.6761 101.263C68.1079 101.284 67.6374 101.423 67.2646 101.678C66.8917 101.934 66.604 102.303 66.4016 102.786C66.1992 103.269 66.0696 103.862 66.0128 104.565H66.1193C66.3963 104.054 66.7798 103.678 67.2699 103.436C67.7599 103.195 68.2855 103.074 68.8466 103.074C69.4858 103.074 70.0611 103.223 70.5724 103.521C71.0838 103.82 71.4886 104.262 71.7869 104.848C72.0852 105.434 72.2344 106.156 72.2344 107.016C72.2344 107.871 72.0817 108.61 71.7763 109.232C71.4744 109.853 71.0501 110.332 70.5032 110.67C69.9599 111.004 69.3224 111.17 68.5909 111.17C67.8594 111.17 67.2184 110.998 66.668 110.654C66.1175 110.306 65.6896 109.791 65.3842 109.109C65.0788 108.424 64.9261 107.577 64.9261 106.568V105.695C64.9261 103.873 65.2351 102.491 65.853 101.55C66.4744 100.609 67.4084 100.123 68.6548 100.091C69.0952 100.077 69.4876 100.073 69.832 100.08C70.1765 100.087 70.4766 100.071 70.7322 100.032C70.9879 99.9933 71.2045 99.8991 71.3821 99.75ZM68.5909 110.041C69.0845 110.041 69.5089 109.917 69.864 109.668C70.2226 109.42 70.4979 109.07 70.6896 108.619C70.8814 108.164 70.9773 107.63 70.9773 107.016C70.9773 106.419 70.8796 105.911 70.6843 105.492C70.4925 105.073 70.2173 104.754 69.8587 104.533C69.5 104.313 69.0703 104.203 68.5696 104.203C68.2038 104.203 67.8753 104.265 67.5842 104.39C67.293 104.514 67.0444 104.697 66.8384 104.938C66.6325 105.18 66.4726 105.474 66.359 105.822C66.2489 106.17 66.1903 106.568 66.1832 107.016C66.1832 107.932 66.3981 108.665 66.8278 109.216C67.2575 109.766 67.8452 110.041 68.5909 110.041ZM76.415 111.192C75.8965 111.192 75.426 111.094 75.0034 110.899C74.5808 110.7 74.2452 110.414 73.9967 110.041C73.7481 109.665 73.6238 109.21 73.6238 108.678C73.6238 108.209 73.7161 107.829 73.9008 107.538C74.0854 107.243 74.3322 107.012 74.6412 106.845C74.9501 106.678 75.291 106.554 75.6639 106.472C76.0403 106.387 76.4185 106.32 76.7985 106.27C77.2957 106.206 77.6987 106.158 78.0077 106.126C78.3202 106.091 78.5474 106.032 78.6895 105.95C78.8351 105.869 78.9079 105.727 78.9079 105.524V105.482C78.9079 104.956 78.7641 104.548 78.4764 104.256C78.1923 103.965 77.7609 103.82 77.182 103.82C76.5819 103.82 76.1114 103.951 75.7704 104.214C75.4295 104.477 75.1898 104.757 75.0513 105.055L73.8582 104.629C74.0712 104.132 74.3553 103.745 74.7104 103.468C75.0691 103.187 75.4597 102.992 75.8823 102.882C76.3084 102.768 76.7275 102.712 77.1394 102.712C77.4022 102.712 77.704 102.744 78.0449 102.808C78.3894 102.868 78.7214 102.994 79.041 103.186C79.3642 103.377 79.6323 103.667 79.8454 104.054C80.0584 104.441 80.165 104.96 80.165 105.609V111H78.9079V109.892H78.844C78.7587 110.07 78.6167 110.26 78.4178 110.462C78.219 110.664 77.9544 110.837 77.6241 110.979C77.2939 111.121 76.8908 111.192 76.415 111.192ZM76.6067 110.062C77.1039 110.062 77.5229 109.965 77.8638 109.77C78.2083 109.574 78.4675 109.322 78.6415 109.013C78.8191 108.704 78.9079 108.379 78.9079 108.038V106.888C78.8546 106.952 78.7374 107.01 78.5563 107.064C78.3788 107.113 78.1728 107.158 77.9384 107.197C77.7076 107.232 77.4821 107.264 77.2619 107.293C77.0453 107.317 76.8695 107.339 76.7346 107.357C76.4079 107.399 76.1025 107.468 75.8184 107.564C75.5378 107.657 75.3106 107.797 75.1366 107.985C74.9661 108.17 74.8809 108.422 74.8809 108.741C74.8809 109.178 75.0425 109.509 75.3656 109.732C75.6923 109.952 76.106 110.062 76.6067 110.062ZM82.3095 111V102.818H85.6546C86.5353 102.818 87.2349 103.017 87.7534 103.415C88.2718 103.812 88.531 104.338 88.531 104.991C88.531 105.489 88.3837 105.874 88.0889 106.147C87.7942 106.417 87.416 106.6 86.9543 106.696C87.2562 106.739 87.5492 106.845 87.8333 107.016C88.1209 107.186 88.3588 107.42 88.547 107.719C88.7352 108.013 88.8293 108.376 88.8293 108.805C88.8293 109.224 88.7228 109.599 88.5097 109.929C88.2967 110.26 87.9913 110.521 87.5935 110.712C87.1958 110.904 86.72 111 86.166 111H82.3095ZM83.5026 109.849H86.166C86.5992 109.849 86.9384 109.746 87.1834 109.54C87.4284 109.335 87.5509 109.054 87.5509 108.699C87.5509 108.276 87.4284 107.944 87.1834 107.703C86.9384 107.458 86.5992 107.335 86.166 107.335H83.5026V109.849ZM83.5026 106.249H85.6546C85.992 106.249 86.2814 106.202 86.5229 106.11C86.7644 106.014 86.949 105.879 87.0769 105.705C87.2083 105.528 87.2739 105.318 87.2739 105.077C87.2739 104.732 87.1301 104.462 86.8425 104.267C86.5548 104.068 86.1589 103.969 85.6546 103.969H83.5026V106.249ZM91.8394 109.146L95.7812 102.818H97.23V111H95.9729V104.672L92.0525 111H90.5823V102.818H91.8394V109.146ZM98.2692 103.99V102.818H104.917V103.99H102.232V111H100.975V103.99H98.2692ZM107.687 105.78H110.031C110.99 105.78 111.723 106.023 112.231 106.51C112.739 106.996 112.993 107.612 112.993 108.358C112.993 108.848 112.879 109.294 112.652 109.695C112.425 110.093 112.091 110.411 111.65 110.648C111.21 110.883 110.67 111 110.031 111H106.601V102.818H107.858V109.828H110.031C110.528 109.828 110.937 109.697 111.256 109.434C111.576 109.171 111.736 108.834 111.736 108.422C111.736 107.989 111.576 107.635 111.256 107.362C110.937 107.088 110.528 106.952 110.031 106.952H107.687V105.78Z" fill="#585858"/>
<defs>
<filter id="filter0_d_4885_273" x="0" y="0" width="158" height="149" filterUnits="userSpaceOnUse" color-interpolation-filters="sRGB">
<feFlood flood-opacity="0" result="BackgroundImageFix"/>
<feColorMatrix in="SourceAlpha" type="matrix" values="0 0 0 0 0 0 0 0 0 0 0 0 0 0 0 0 0 0 127 0" result="hardAlpha"/>
<feOffset dy="4"/>
<feGaussianBlur stdDeviation="7.5"/>
<feComposite in2="hardAlpha" operator="out"/>
<feColorMatrix type="matrix" values="0 0 0 0 0 0 0 0 0 0 0 0 0 0 0 0 0 0 0.25 0"/>
<feBlend mode="normal" in2="BackgroundImageFix" result="effect1_dropShadow_4885_273"/>
<feBlend mode="normal" in="SourceGraphic" in2="effect1_dropShadow_4885_273" result="shape"/>
</filter>
</defs>
</svg>
