icon_star<svg width="40" height="38" viewBox="0 0 40 38" fill="none" xmlns="http://www.w3.org/2000/svg">
<path d="M17.8312 1.8541C18.4299 0.0114783 21.0367 0.0114804 21.6354 1.8541L24.8373 11.7084C25.105 12.5324 25.8729 13.0903 26.7394 13.0903H37.1008C39.0382 13.0903 39.8438 15.5695 38.2763 16.7083L29.8938 22.7986C29.1928 23.3079 28.8995 24.2106 29.1673 25.0347L32.3691 34.8889C32.9678 36.7315 30.8589 38.2638 29.2914 37.125L20.9089 31.0347C20.2079 30.5254 19.2587 30.5254 18.5578 31.0347L10.1752 37.125C8.60781 38.2638 6.49885 36.7315 7.09756 34.8889L10.2994 25.0347C10.5671 24.2106 10.2738 23.3079 9.57285 22.7986L1.19033 16.7083C-0.377098 15.5695 0.428456 13.0903 2.3659 13.0903H12.7273C13.5937 13.0903 14.3616 12.5324 14.6294 11.7083L17.8312 1.8541Z" fill="url(#paint0_linear_15_3)"/>
<defs>
<linearGradient id="paint0_linear_15_3" x1="5.4507" y1="-4" x2="41.8903" y2="6.98924" gradientUnits="userSpaceOnUse">
<stop stop-color="#EFB242"/>
<stop offset="1" stop-color="#E98513"/>
</linearGradient>
</defs>
</svg>
