<svg width="18" height="18" viewBox="0 0 18 18" fill="none" xmlns="http://www.w3.org/2000/svg">
<path d="M16.4846 17.154L10.2226 10.892C9.72262 11.318 9.14762 11.6477 8.49762 11.881C7.84762 12.1144 7.19428 12.231 6.53762 12.231C4.93628 12.231 3.58095 11.6767 2.47162 10.568C1.36228 9.45938 0.807617 8.10438 0.807617 6.50305C0.807617 4.90171 1.36162 3.54605 2.46962 2.43605C3.57762 1.32605 4.93228 0.770379 6.53362 0.769045C8.13495 0.767712 9.49095 1.32238 10.6016 2.43305C11.7123 3.54371 12.2676 4.89938 12.2676 6.50005C12.2676 7.19471 12.1446 7.86705 11.8986 8.51705C11.6526 9.16705 11.3293 9.72305 10.9286 10.185L17.1906 16.446L16.4846 17.154ZM6.53862 11.23C7.86528 11.23 8.98528 10.7734 9.89862 9.86005C10.8119 8.94671 11.2686 7.82638 11.2686 6.49904C11.2686 5.17171 10.8119 4.05171 9.89862 3.13905C8.98528 2.22638 7.86528 1.76971 6.53862 1.76905C5.21195 1.76838 4.09162 2.22505 3.17762 3.13905C2.26362 4.05305 1.80695 5.17305 1.80762 6.49904C1.80828 7.82504 2.26495 8.94505 3.17762 9.85905C4.09028 10.773 5.21028 11.2297 6.53762 11.229" fill="#C2C2C2"/>
</svg>
