<svg width="34" height="34" viewBox="0 0 34 34" fill="none" xmlns="http://www.w3.org/2000/svg">
<circle cx="17" cy="17" r="16.5" fill="white" stroke="#4293EF"/>
<path d="M8.17444 13.0754L10.4671 12.278H11.4639V21H10.3176V13.524L8.46102 14.0722L8.17444 13.0754ZM17.4004 16.4895C18.3058 16.9547 18.7585 17.6607 18.7585 18.6077C18.7585 19.4051 18.4803 20.0323 17.9237 20.4891C17.3589 20.9377 16.6403 21.162 15.7681 21.162C14.8959 21.162 14.1816 20.9377 13.625 20.4891C13.0685 20.0323 12.7902 19.4051 12.7902 18.6077C12.7902 17.6607 13.2429 16.9547 14.1483 16.4895C13.434 16.0409 13.0768 15.4055 13.0768 14.5831C13.0768 13.794 13.3384 13.1876 13.8617 12.7639C14.3934 12.332 15.0288 12.116 15.7681 12.116C16.524 12.116 17.1595 12.332 17.6745 12.7639C18.2061 13.1876 18.4719 13.794 18.4719 14.5831C18.4719 15.4055 18.1148 16.0409 17.4004 16.4895ZM15.7681 13.225C15.3113 13.225 14.9375 13.3454 14.6467 13.5863C14.3643 13.8272 14.2231 14.1678 14.2231 14.608C14.2231 15.04 14.3685 15.3805 14.6592 15.6297C14.9499 15.8789 15.3196 16.0035 15.7681 16.0035C16.2167 16.0035 16.5863 15.8789 16.8771 15.6297C17.1678 15.3805 17.3132 15.04 17.3132 14.608C17.3132 14.1678 17.172 13.8272 16.8895 13.5863C16.6071 13.3454 16.2333 13.225 15.7681 13.225ZM15.7681 20.053C16.333 20.053 16.7815 19.9201 17.1138 19.6543C17.4461 19.3885 17.6122 19.0147 17.6122 18.5329C17.6122 18.0594 17.4461 17.6898 17.1138 17.424C16.7815 17.1582 16.333 17.0253 15.7681 17.0253C15.2116 17.0253 14.7672 17.1582 14.4349 17.424C14.1026 17.6898 13.9365 18.0594 13.9365 18.5329C13.9365 19.0147 14.1026 19.3885 14.4349 19.6543C14.7672 19.9201 15.2116 20.053 15.7681 20.053ZM23.016 16.1157H25.184V17.1499H23.016V19.3179H21.9818V17.1499H19.8262V16.1157H21.9818V13.9601H23.016V16.1157Z" fill="#4293EF"/>
</svg>
