<svg width="83" height="29" viewBox="0 0 83 29" fill="none" xmlns="http://www.w3.org/2000/svg">
<rect y="0.479492" width="82.9231" height="28" rx="14" fill="#4293EF"/>
<path d="M29.3674 9.57861H34.7667V17.0186H33.7782V10.5139H30.3559V17.0186H29.3674V9.57861ZM39.0946 11.5661C39.8386 11.5661 40.4728 11.8389 40.9971 12.3845C41.5215 12.9301 41.7836 13.5891 41.7836 14.3614C41.7836 15.1409 41.5215 15.8034 40.9971 16.349C40.4799 16.8875 39.8457 17.1567 39.0946 17.1567C38.216 17.1567 37.5464 16.806 37.0858 16.1045V19.1443H36.1612V11.7043H37.0858V12.6184C37.5464 11.9169 38.216 11.5661 39.0946 11.5661ZM38.9777 16.2639C39.5091 16.2639 39.9555 16.0832 40.3169 15.7219C40.6783 15.3463 40.859 14.8929 40.859 14.3614C40.859 13.8229 40.6783 13.373 40.3169 13.0116C39.9555 12.6432 39.5091 12.4589 38.9777 12.4589C38.4392 12.4589 37.9893 12.6432 37.6279 13.0116C37.2665 13.373 37.0858 13.8229 37.0858 14.3614C37.0858 14.8929 37.2665 15.3463 37.6279 15.7219C37.9893 16.0832 38.4392 16.2639 38.9777 16.2639ZM43.6948 15.4349L46.6389 11.7043H47.3829V17.0186H46.4688V13.288L43.5247 17.0186H42.7807V11.7043H43.6948V15.4349ZM52.3615 13.915V11.7043H53.2862V17.0186H52.3615V14.7972H49.6088V17.0186H48.6841V11.7043H49.6088V13.915H52.3615ZM56.2987 11.7043H58.5625V17.0186H57.6485V15.1054H56.8726L55.3846 17.0186H54.258L55.8097 15.0523C55.4059 14.9531 55.0799 14.7547 54.8319 14.4571C54.591 14.1595 54.4706 13.8123 54.4706 13.4155C54.4706 12.9266 54.6442 12.5192 54.9914 12.1932C55.3385 11.8673 55.7743 11.7043 56.2987 11.7043ZM56.3305 14.2764H57.6485V12.5652H56.3305C56.0613 12.5652 55.8345 12.6467 55.6503 12.8097C55.4732 12.9656 55.3846 13.171 55.3846 13.4261C55.3846 13.6741 55.4732 13.8796 55.6503 14.0426C55.8345 14.1985 56.0613 14.2764 56.3305 14.2764ZM59.2625 11.7043H63.8115V12.5971H62.0047V17.0186H61.08V12.5971H59.2625V11.7043ZM68.7932 16.349C68.2547 16.8875 67.5922 17.1567 66.8057 17.1567C66.0192 17.1567 65.3566 16.8875 64.8181 16.349C64.2796 15.8105 64.0104 15.1479 64.0104 14.3614C64.0104 13.5749 64.2796 12.9124 64.8181 12.3739C65.3566 11.8354 66.0192 11.5661 66.8057 11.5661C67.5922 11.5661 68.2547 11.8354 68.7932 12.3739C69.3388 12.9195 69.6116 13.582 69.6116 14.3614C69.6116 15.1409 69.3388 15.8034 68.7932 16.349ZM66.8057 16.2533C67.3371 16.2533 67.7835 16.0726 68.1449 15.7113C68.5062 15.3499 68.6869 14.8999 68.6869 14.3614C68.6869 13.8229 68.5062 13.373 68.1449 13.0116C67.7835 12.6502 67.3371 12.4696 66.8057 12.4696C66.2813 12.4696 65.8385 12.6502 65.4771 13.0116C65.1157 13.373 64.935 13.8229 64.935 14.3614C64.935 14.8999 65.1157 15.3499 65.4771 15.7113C65.8385 16.0726 66.2813 16.2533 66.8057 16.2533Z" fill="white"/>
<path d="M14.539 6.94141C10.6791 6.94141 7.539 10.0815 7.539 13.9414C7.539 17.8013 10.6791 20.9414 14.539 20.9414C18.3989 20.9414 21.539 17.8013 21.539 13.9414C21.539 10.0815 18.3989 6.94141 14.539 6.94141ZM18.1557 13.0734L15.5738 15.608C15.1171 16.056 14.5291 16.2794 13.9405 16.2794C13.3583 16.2794 12.7762 16.0601 12.3212 15.6208L11.2134 14.5317C10.9836 14.306 10.9807 13.9367 11.2064 13.7069C11.4316 13.4765 11.802 13.4736 12.0313 13.6999L13.1355 14.7855C13.5882 15.223 14.3028 15.2207 14.7578 14.775L17.339 12.241C17.5683 12.0147 17.9363 12.0187 18.1638 12.2486C18.3896 12.4784 18.3861 12.8477 18.1557 13.0734Z" fill="white"/>
</svg>
