<svg width="15" height="8" viewBox="0 0 15 8" fill="none" xmlns="http://www.w3.org/2000/svg">
<path d="M10.3448 0.180244C10.5927 -0.0600814 10.9946 -0.0600814 11.2426 0.180244C11.4906 0.42057 11.4906 0.810121 11.2426 1.05045L4.25836 7.81976C4.0104 8.06008 3.60848 8.06008 3.36052 7.81976L0.185866 4.7428L0.142463 4.69592C-0.0609378 4.45421 -0.0465923 4.0979 0.185866 3.8726C0.418325 3.64729 0.785951 3.63339 1.03534 3.83053L1.0837 3.8726L3.80944 6.51445L10.3448 0.180244Z" fill="white"/>
<path d="M13.7676 0.180244C14.0156 -0.0600814 14.4175 -0.0600814 14.6655 0.180244C14.9134 0.42057 14.9134 0.810121 14.6655 1.05045L7.68123 7.81976C7.43327 8.06008 7.03135 8.06008 6.78339 7.81976L5.14192 6.28571L5.09852 6.23884C4.89512 5.99713 4.90946 5.64082 5.14192 5.41551C5.52748 5.54292 5.74201 5.1763 5.99139 5.37344L6.03975 5.41551L7.23231 6.51445L13.7676 0.180244Z" fill="white"/>
</svg>
