<svg width="13" height="13" viewBox="0 0 13 13" fill="none" xmlns="http://www.w3.org/2000/svg">
<path d="M12.7617 11.6162L10.2456 9.09898C12.1283 6.58306 11.6149 3.01727 9.09899 1.13459C6.58306 -0.748098 3.01727 -0.234752 1.13459 2.28117C-0.748098 4.79709 -0.234752 8.36288 2.28117 10.2456C4.30217 11.7579 7.07796 11.7579 9.09899 10.2456L11.6162 12.7628C11.9325 13.0791 12.4454 13.0791 12.7617 12.7628C13.078 12.4464 13.078 11.9336 12.7617 11.6173L12.7617 11.6162ZM5.71105 9.75973C3.47502 9.75973 1.66238 7.94709 1.66238 5.71105C1.66238 3.47502 3.47502 1.66238 5.71105 1.66238C7.94709 1.66238 9.75973 3.47502 9.75973 5.71105C9.75735 7.94607 7.9461 9.75735 5.71105 9.75973Z" fill="black"/>
</svg>
