<svg width="23" height="19" viewBox="0 0 23 19" fill="none" xmlns="http://www.w3.org/2000/svg">
<path d="M2 2H16" stroke="#666666" stroke-width="3" stroke-linecap="round"/>
<path d="M2 9H11" stroke="#666666" stroke-width="3" stroke-linecap="round"/>
<path d="M2 16H7" stroke="#666666" stroke-width="3" stroke-linecap="round"/>
<path d="M19.5 11C19.5 10.7239 19.2761 10.5 19 10.5C18.7239 10.5 18.5 10.7239 18.5 11L19.5 11ZM18.6464 18.3536C18.8417 18.5488 19.1583 18.5488 19.3536 18.3536L22.5355 15.1716C22.7308 14.9763 22.7308 14.6597 22.5355 14.4645C22.3403 14.2692 22.0237 14.2692 21.8284 14.4645L19 17.2929L16.1716 14.4645C15.9763 14.2692 15.6597 14.2692 15.4645 14.4645C15.2692 14.6597 15.2692 14.9763 15.4645 15.1716L18.6464 18.3536ZM18.5 11L18.5 18L19.5 18L19.5 11L18.5 11Z" fill="#666666"/>
</svg>
